<?xml version="1.0" encoding="UTF-8"?>
<svg width="100px" height="101px" viewBox="0 0 100 101" version="1.1" xmlns="http://www.w3.org/2000/svg" xmlns:xlink="http://www.w3.org/1999/xlink">
    <!-- Generator: Sketch 49.2 (51160) - http://www.bohemiancoding.com/sketch -->
    <title>Page 1</title>
    <desc>Created with Sketch.</desc>
    <defs>
        <polygon id="path-1" points="0 100 0 0.283425414 99.7176796 0.283425414 99.7176796 100"></polygon>
    </defs>
    <g id="HD-Desktop-1920---1440-px" stroke="none" stroke-width="1" fill="none" fill-rule="evenodd" opacity="0.05">
        <g id="HD-Desktop_EDU-Promo" transform="translate(-393.000000, -236.000000)">
            <g id="Page-1" transform="translate(393.000000, 236.000000)">
                <g id="Group-3" transform="translate(0.000000, 0.269061)">
                    <mask id="mask-2" fill="white">
                        <use xlink:href="#path-1"></use>
                    </mask>
                    <g id="Clip-2"></g>
                    <path d="M57.3701105,100 C57.0585083,100 56.7535359,99.8944751 56.5071271,99.6972376 L45.4430387,90.8425414 L32.7364088,97.118232 C32.388895,97.2900552 31.9855801,97.3082873 31.6253591,97.1679558 C31.2645856,97.0276243 30.9783978,96.7425414 30.8380663,96.3823204 L25.6839227,83.1812155 L11.5419337,82.2635359 C11.1557459,82.238674 10.7977348,82.0524862 10.5551934,81.7508287 C10.3126519,81.4491713 10.2076796,81.0596685 10.2662431,80.6767956 L12.4027072,66.6668508 L0.614309392,58.8022099 C0.292762431,58.5867403 0.0756353591,58.2469613 0.0159668508,57.8640884 C-0.0425966851,57.481768 0.0612707182,57.0917127 0.302707182,56.7895028 L9.15850829,45.7254144 L2.88226519,33.0198895 C2.71099448,32.6729282 2.69331492,32.2690608 2.83309392,31.9088398 C2.97342541,31.5480663 3.2579558,31.2618785 3.61872928,31.1209945 L16.8198343,25.9668508 L17.7375138,11.8243094 C17.7629282,11.4381215 17.9485635,11.080663 18.250221,10.8375691 C18.5518785,10.5955801 18.9419337,10.4922652 19.3242541,10.5486188 L33.3336464,12.6856354 L41.1993923,0.897237569 C41.4143094,0.575690608 41.7540884,0.35801105 42.1369613,0.298895028 C42.5192818,0.241436464 42.9087845,0.343646409 43.211547,0.586187845 L54.2756354,9.44143646 L66.9817127,3.16519337 C67.3281215,2.99392265 67.7314365,2.97624309 68.0927624,3.1160221 C68.4535359,3.25635359 68.7391713,3.54088398 68.8800552,3.90165746 L72.7568508,13.8309392 C73.0347514,14.5414365 72.6833702,15.3425414 71.9728729,15.6198895 C71.2634807,15.8955801 70.4612707,15.5464088 70.1839227,14.8359116 L66.8546409,6.30939227 L54.710442,12.3071823 C54.228674,12.5458564 53.6540884,12.4823204 53.2358564,12.1475138 L42.6612707,3.68342541 L35.1435912,14.9502762 C34.8452486,15.3961326 34.3165193,15.6270718 33.7861326,15.5491713 L20.3966298,13.5066298 L19.5192818,27.0232044 C19.4844751,27.5585635 19.1430387,28.0254144 18.6430387,28.220442 L6.02646409,33.1464088 L12.0248066,45.2900552 C12.2623757,45.7712707 12.1999448,46.3458564 11.8645856,46.7651934 L3.40049724,57.339779 L14.6673481,64.8569061 C15.1137569,65.1546961 15.3469061,65.6839779 15.2662431,66.2143646 L13.2237017,79.6044199 L26.7402762,80.4812155 C27.2756354,80.5160221 27.7424862,80.858011 27.9375138,81.3574586 L32.8634807,93.9745856 L45.008232,87.9762431 C45.4894475,87.738674 46.0640331,87.8016575 46.4822652,88.1359116 L57.0574033,96.5994475 L64.5750829,85.3325967 C64.8723204,84.8867403 65.4016022,84.6552486 65.931989,84.7337017 L79.3214917,86.7767956 L80.1993923,73.2607735 C80.2341989,72.7254144 80.5756354,72.2585635 81.0750829,72.0635359 L93.6922099,67.1375691 L87.6933149,54.9928177 C87.4562983,54.5116022 87.5181768,53.9370166 87.8535359,53.5176796 L96.3170718,42.9441989 L85.0507735,35.4254144 C84.6043646,35.1281768 84.3712155,34.598895 84.4518785,34.0685083 L86.4944199,20.679558 L77.548011,20.0983425 C76.7872376,20.0486188 76.2098895,19.3917127 76.2596133,18.6303867 C76.3087845,17.8690608 76.9667956,17.2994475 77.7275691,17.3414365 L88.1767403,18.0198895 C88.5629282,18.0453039 88.9209392,18.2314917 89.1634807,18.5331492 C89.4060221,18.8348066 89.5109945,19.2243094 89.4524309,19.6066298 L87.3154144,33.6160221 L99.1032597,41.4823204 C99.4253591,41.6972376 99.6424862,42.0370166 99.7016022,42.419337 C99.7607182,42.8022099 99.6568508,43.1922652 99.4148619,43.4944751 L90.5596133,54.5574586 L96.8358564,67.2640884 C97.0071271,67.6116022 97.0248066,68.0143646 96.8850276,68.3751381 C96.7452486,68.7359116 96.4601657,69.0220994 96.0999448,69.1629834 L82.8988398,74.3171271 L81.9806077,88.459116 C81.9557459,88.8458564 81.7701105,89.2033149 81.468453,89.4458564 C81.1662431,89.6889503 80.7772928,89.7917127 80.3944199,89.7353591 L66.3844751,87.5977901 L58.5192818,99.3856354 C58.3043646,99.7077348 57.9640331,99.9243094 57.5817127,99.9839779 C57.5109945,99.9944751 57.4402762,100 57.3701105,100" id="Fill-1" fill="#FEFEFE" mask="url(#mask-2)"></path>
                </g>
                <path d="M33.4124862,75.431989 C33.1401105,75.431989 32.8649724,75.351326 32.6246409,75.1844751 C31.998674,74.749116 31.8439779,73.8883425 32.2798895,73.2618232 L65.1716022,25.9822652 C65.6069613,25.3557459 66.4682873,25.2021547 67.0942541,25.6375138 C67.720221,26.0728729 67.8749171,26.9336464 67.4390055,27.5601657 L34.5472928,74.8397238 C34.2787845,75.2253591 33.8495028,75.431989 33.4124862,75.431989" id="Fill-4" fill="#FEFEFE"></path>
                <path d="M37.6144199,29.8319337 C36.2249171,29.8319337 34.9044751,30.4137017 33.7950829,31.5142541 C30.9586188,34.3297238 30.5254696,39.4744751 32.8298895,42.9838674 C34.0271271,44.8081768 35.7751934,45.8551381 37.6254696,45.8551381 C39.0149724,45.8551381 40.3359669,45.2728177 41.4453591,44.1717127 C44.2812707,41.3573481 44.7144199,36.2120442 42.4105525,32.7020994 C41.2122099,30.8783425 39.4641436,29.8319337 37.6144199,29.8319337 M37.6254696,48.6175691 L37.6249171,48.6175691 C34.8271271,48.6175691 32.2376243,47.1164641 30.5204972,44.4998895 C27.5332044,39.9501657 28.129337,33.2457459 31.8492265,29.5534807 C33.4635912,27.9518232 35.5105525,27.0695028 37.6144199,27.0695028 C40.4116575,27.0695028 43.0011602,28.5700552 44.7193923,31.1860773 C47.7066851,35.7369061 47.1105525,42.441326 43.391768,46.1324862 C41.7768508,47.7346961 39.7287845,48.6175691 37.6254696,48.6175691" id="Fill-6" fill="#FEFEFE"></path>
                <path d="M62.0929282,54.9656906 C60.7034254,54.9656906 59.3824309,55.548011 58.2719337,56.649116 C55.4360221,59.4629282 55.0028729,64.608232 57.3072928,68.1187293 C58.5045304,69.9419337 60.2520442,70.9883425 62.101768,70.9883425 L62.1023204,70.9883425 C63.4918232,70.9883425 64.8122652,70.4065746 65.9222099,69.3054696 C68.7592265,66.4905525 69.1923757,61.3458011 66.8879558,57.8358564 C65.6901657,56.0120994 63.9426519,54.9656906 62.0929282,54.9656906 M62.1023204,73.7507735 L62.101768,73.7507735 C59.3045304,73.7507735 56.7155801,72.250221 54.9979006,69.6347514 C52.0106077,65.0833702 52.6072928,58.3783978 56.3266298,54.6883425 C57.941547,53.0861326 59.9890608,52.2032597 62.0929282,52.2032597 C64.8896133,52.2032597 67.479116,53.7038122 69.1973481,56.3198343 C72.1846409,60.870663 71.5885083,67.5750829 67.8680663,71.2662431 C66.2531492,72.868453 64.2056354,73.7507735 62.1023204,73.7507735" id="Fill-8" fill="#FEFEFE"></path>
            </g>
        </g>
    </g>
</svg>