<?xml version="1.0" encoding="UTF-8"?>
<svg width="163px" height="147px" viewBox="0 0 163 147" version="1.1" xmlns="http://www.w3.org/2000/svg" xmlns:xlink="http://www.w3.org/1999/xlink">
    <!-- Generator: Sketch 49.2 (51160) - http://www.bohemiancoding.com/sketch -->
    <title>Group 2</title>
    <desc>Created with Sketch.</desc>
    <defs>
        <polygon id="path-1" points="40.1824941 34.5782843 0 34.5782843 0 0.11811465 40.1824941 0.11811465"></polygon>
        <polygon id="path-3" points="40.1824941 34.5782843 0 34.5782843 0 0.11811465 40.1824941 0.11811465"></polygon>
        <polygon id="path-5" points="40.1824941 34.5782843 0 34.5782843 0 0.11811465 40.1824941 0.11811465"></polygon>
        <polygon id="path-7" points="40.1824941 34.5782843 0 34.5782843 0 0.11811465 40.1824941 0.11811465"></polygon>
        <polygon id="path-9" points="40.1824941 34.5782843 0 34.5782843 0 0.11811465 40.1824941 0.11811465"></polygon>
        <polygon id="path-11" points="40.1824941 34.5782843 0 34.5782843 0 0.11811465 40.1824941 0.11811465"></polygon>
        <polygon id="path-13" points="40.1824941 34.5782843 0 34.5782843 0 0.11811465 40.1824941 0.11811465"></polygon>
        <polygon id="path-15" points="40.1824941 34.5782843 0 34.5782843 0 0.11811465 40.1824941 0.11811465"></polygon>
        <polygon id="path-17" points="40.1824941 34.5782843 0 34.5782843 0 0.11811465 40.1824941 0.11811465"></polygon>
        <polygon id="path-19" points="40.1824941 34.5782843 0 34.5782843 0 0.11811465 40.1824941 0.11811465"></polygon>
        <polygon id="path-21" points="40.1824941 34.5782843 0 34.5782843 0 0.11811465 40.1824941 0.11811465"></polygon>
        <polygon id="path-23" points="40.1824941 34.5782843 0 34.5782843 0 0.11811465 40.1824941 0.11811465"></polygon>
    </defs>
    <g id="HD-Desktop-1920---1440-px" stroke="none" stroke-width="1" fill="none" fill-rule="evenodd">
        <g id="HD-Desktop_EDU-Plans" transform="translate(-361.000000, -390.000000)">
            <g id="Group-31" transform="translate(280.000000, 278.000000)">
                <g id="Group-2" transform="translate(81.000000, 112.000000)">
                    <g id="Group">
                        <g id="Page-1-Copy-2" transform="translate(0.000000, 72.000000)">
                            <g id="Group-3" transform="translate(0.000000, 0.120428)">
                                <mask id="mask-2" fill="white">
                                    <use xlink:href="#path-1"></use>
                                </mask>
                                <g id="Clip-2"></g>
                                <path d="M1.43931512,19.4125588 L15.1654631,33.1391838 L38.7433221,9.56132485 L30.4919896,1.31046928 L19.5414046,1.31046928 L1.43931512,19.4125588 Z M15.1654631,34.5783558 C15.0073569,34.5783558 14.8556894,34.515638 14.744085,34.4035566 L0.1747038,19.8341754 C-0.0582822943,19.6014278 -0.0582822943,19.2239283 0.1747038,18.9909422 L18.8729706,0.292675367 C18.9848135,0.180832503 19.1362425,0.11811465 19.2945872,0.11811465 L30.7390454,0.11811465 C30.8971517,0.11811465 31.0488192,0.180832503 31.1604236,0.292675367 L40.0079334,9.13994672 C40.1197763,9.25178958 40.1824941,9.40321862 40.1824941,9.56132485 C40.1824941,9.71966954 40.1197763,9.87109858 40.0079334,9.98294144 L15.5870797,34.4035566 C15.4752369,34.515638 15.3235694,34.5783558 15.1654631,34.5783558 Z" id="Fill-1" fill="#FCB528" mask="url(#mask-2)"></path>
                            </g>
                            <path d="M20.733807,1.4308494 L25.0167448,5.7140257 L29.2996826,1.4308494 L20.733807,1.4308494 Z M25.0167448,7.15319774 C24.8586386,7.15319774 24.7072095,7.09047989 24.5953667,6.97863702 L18.8730183,1.25628869 C18.7022731,1.08578197 18.6514788,0.829425728 18.7437671,0.606455412 C18.8360553,0.383485096 19.0533023,0.238494773 19.2943965,0.238494773 L30.7390931,0.238494773 C30.9801872,0.238494773 31.1974343,0.383485096 31.2897225,0.606455412 C31.3820107,0.829425728 31.330978,1.08578197 31.1604713,1.25628869 L25.4385999,6.97863702 C25.3265185,7.09047989 25.1750895,7.15319774 25.0167448,7.15319774 Z" id="Fill-4" fill="#FCB528"></path>
                            <path d="M15.0988821,29.9725999 C14.9407758,29.9725999 14.7891083,29.909882 14.6772655,29.7980392 L4.90067292,20.0214466 C4.66792529,19.7884605 4.66792529,19.410961 4.90067292,19.1782134 L21.2693173,2.80956906 C21.5020649,2.57658297 21.8798028,2.57658297 22.112312,2.80956906 C22.3452981,3.04231669 22.3452981,3.41981616 22.112312,3.65256378 L6.16552271,19.59983 L15.0988821,28.5334278 L34.017496,9.61481388 L30.1559363,5.75325417 C29.9229502,5.52074502 29.9229502,5.14324554 30.1559363,4.91025945 C30.3884455,4.67751182 30.7661834,4.67751182 30.9989311,4.91025945 L35.2821074,9.19319728 C35.3939502,9.30504014 35.4566681,9.45670765 35.4566681,9.61481388 C35.4566681,9.7729201 35.3939502,9.92458761 35.2821074,10.036192 L15.5204987,29.7980392 C15.4086558,29.909882 15.2569883,29.9725999 15.0988821,29.9725999" id="Fill-6" fill="#FCB528"></path>
                            <path d="M18.0463589,13.499696 C17.8210038,13.499696 17.5050299,13.5466748 17.2808672,13.7710759 C16.7152142,14.3364905 17.0712512,15.6845667 18.0425433,16.6560972 C18.6797376,17.2932915 19.4917311,17.6891533 20.1620729,17.6891533 C20.3874279,17.6891533 20.7031634,17.641936 20.9273261,17.4177733 C21.2647625,17.0805755 21.2156375,16.5428235 21.1562582,16.2523659 C21.0372612,15.6700199 20.6762162,15.0430799 20.1661269,14.5325136 C19.5286941,13.8955578 18.7164622,13.499696 18.0463589,13.499696 M20.1620729,18.8815079 C19.1721801,18.8812694 18.0647211,18.3645029 17.1993101,17.4990919 C15.7043359,16.0036408 15.3697612,13.9957156 16.437634,12.9280812 C16.84375,12.5219652 17.3998642,12.3073414 18.0463589,12.3073414 C19.0357747,12.3073414 20.1434722,12.8241079 21.0091216,13.6895189 C21.6904331,14.3708303 22.1575976,15.1964167 22.3242888,16.0136565 C22.5095807,16.9205615 22.3130807,17.7184852 21.7705593,18.2610065 C21.3646818,18.6668841 20.8085676,18.8815079 20.1620729,18.8815079" id="Fill-8" fill="#FCB528"></path>
                            <path d="M22.6599843,8.88585595 C22.4346293,8.88585595 22.1186553,8.93307319 21.8944927,9.15747433 C21.3288396,9.72312737 21.6848767,11.0712035 22.6561688,12.0422571 C23.2931246,12.6796899 24.1053566,13.0753132 24.7759369,13.0755516 C25.0012919,13.0755516 25.3170274,13.0285729 25.5411901,12.8044102 C26.1068431,12.2387572 25.750806,10.8904426 24.7797524,9.91915047 C24.1423196,9.28171769 23.3300876,8.88585595 22.6599843,8.88585595 M24.7759369,14.2679063 L24.7756984,14.2679063 C23.7858056,14.2676678 22.6783466,13.7509013 21.8129356,12.8854903 C20.3179614,11.3905161 19.9831482,9.38259089 21.0512595,8.31447961 C21.4573754,7.90812515 22.0137281,7.69350132 22.6599843,7.69350132 C23.6494002,7.69350132 24.7570976,8.21026782 25.6227471,9.07591728 C27.1179598,10.57113 27.4522961,12.5792937 26.3841848,13.6474049 C25.9783073,14.0532824 25.4221931,14.2679063 24.7759369,14.2679063" id="Fill-10" fill="#FCB528"></path>
                            <path d="M18.1678121,21.4805787 C18.0151907,21.4805787 17.8625693,21.4223918 17.7461955,21.306018 L14.2976674,17.8572514 L14.2502117,18.4400744 C14.223503,18.7684488 13.9373379,19.0147893 13.6077711,18.9861728 C13.2793966,18.959464 13.0352024,18.6718681 13.0616726,18.3437321 L13.2133401,16.4760278 C13.2321794,16.2444725 13.3838469,16.0448724 13.6020478,15.9645077 C13.8200102,15.8846199 14.0649198,15.9382759 14.2289878,16.1025823 L18.5894287,20.4627848 C18.8221763,20.6955324 18.8221763,21.0730319 18.5894287,21.306018 C18.4730549,21.4223918 18.3204335,21.4805787 18.1678121,21.4805787" id="Fill-12" fill="#FCB528"></path>
                        </g>
                        <g id="Page-1-Copy-17" transform="translate(82.000000, 76.000000)">
                            <g id="Group-3" transform="translate(0.000000, 0.120428)">
                                <mask id="mask-4" fill="white">
                                    <use xlink:href="#path-3"></use>
                                </mask>
                                <g id="Clip-2"></g>
                                <path d="M1.43931512,19.4125588 L15.1654631,33.1391838 L38.7433221,9.56132485 L30.4919896,1.31046928 L19.5414046,1.31046928 L1.43931512,19.4125588 Z M15.1654631,34.5783558 C15.0073569,34.5783558 14.8556894,34.515638 14.744085,34.4035566 L0.1747038,19.8341754 C-0.0582822943,19.6014278 -0.0582822943,19.2239283 0.1747038,18.9909422 L18.8729706,0.292675367 C18.9848135,0.180832503 19.1362425,0.11811465 19.2945872,0.11811465 L30.7390454,0.11811465 C30.8971517,0.11811465 31.0488192,0.180832503 31.1604236,0.292675367 L40.0079334,9.13994672 C40.1197763,9.25178958 40.1824941,9.40321862 40.1824941,9.56132485 C40.1824941,9.71966954 40.1197763,9.87109858 40.0079334,9.98294144 L15.5870797,34.4035566 C15.4752369,34.515638 15.3235694,34.5783558 15.1654631,34.5783558 Z" id="Fill-1" fill="#FEFEFE" mask="url(#mask-4)"></path>
                            </g>
                            <path d="M20.733807,1.4308494 L25.0167448,5.7140257 L29.2996826,1.4308494 L20.733807,1.4308494 Z M25.0167448,7.15319774 C24.8586386,7.15319774 24.7072095,7.09047989 24.5953667,6.97863702 L18.8730183,1.25628869 C18.7022731,1.08578197 18.6514788,0.829425728 18.7437671,0.606455412 C18.8360553,0.383485096 19.0533023,0.238494773 19.2943965,0.238494773 L30.7390931,0.238494773 C30.9801872,0.238494773 31.1974343,0.383485096 31.2897225,0.606455412 C31.3820107,0.829425728 31.330978,1.08578197 31.1604713,1.25628869 L25.4385999,6.97863702 C25.3265185,7.09047989 25.1750895,7.15319774 25.0167448,7.15319774 Z" id="Fill-4" fill="#FEFEFE"></path>
                            <path d="M15.0988821,29.9725999 C14.9407758,29.9725999 14.7891083,29.909882 14.6772655,29.7980392 L4.90067292,20.0214466 C4.66792529,19.7884605 4.66792529,19.410961 4.90067292,19.1782134 L21.2693173,2.80956906 C21.5020649,2.57658297 21.8798028,2.57658297 22.112312,2.80956906 C22.3452981,3.04231669 22.3452981,3.41981616 22.112312,3.65256378 L6.16552271,19.59983 L15.0988821,28.5334278 L34.017496,9.61481388 L30.1559363,5.75325417 C29.9229502,5.52074502 29.9229502,5.14324554 30.1559363,4.91025945 C30.3884455,4.67751182 30.7661834,4.67751182 30.9989311,4.91025945 L35.2821074,9.19319728 C35.3939502,9.30504014 35.4566681,9.45670765 35.4566681,9.61481388 C35.4566681,9.7729201 35.3939502,9.92458761 35.2821074,10.036192 L15.5204987,29.7980392 C15.4086558,29.909882 15.2569883,29.9725999 15.0988821,29.9725999" id="Fill-6" fill="#FEFEFE"></path>
                            <path d="M18.0463589,13.499696 C17.8210038,13.499696 17.5050299,13.5466748 17.2808672,13.7710759 C16.7152142,14.3364905 17.0712512,15.6845667 18.0425433,16.6560972 C18.6797376,17.2932915 19.4917311,17.6891533 20.1620729,17.6891533 C20.3874279,17.6891533 20.7031634,17.641936 20.9273261,17.4177733 C21.2647625,17.0805755 21.2156375,16.5428235 21.1562582,16.2523659 C21.0372612,15.6700199 20.6762162,15.0430799 20.1661269,14.5325136 C19.5286941,13.8955578 18.7164622,13.499696 18.0463589,13.499696 M20.1620729,18.8815079 C19.1721801,18.8812694 18.0647211,18.3645029 17.1993101,17.4990919 C15.7043359,16.0036408 15.3697612,13.9957156 16.437634,12.9280812 C16.84375,12.5219652 17.3998642,12.3073414 18.0463589,12.3073414 C19.0357747,12.3073414 20.1434722,12.8241079 21.0091216,13.6895189 C21.6904331,14.3708303 22.1575976,15.1964167 22.3242888,16.0136565 C22.5095807,16.9205615 22.3130807,17.7184852 21.7705593,18.2610065 C21.3646818,18.6668841 20.8085676,18.8815079 20.1620729,18.8815079" id="Fill-8" fill="#FEFEFE"></path>
                            <path d="M22.6599843,8.88585595 C22.4346293,8.88585595 22.1186553,8.93307319 21.8944927,9.15747433 C21.3288396,9.72312737 21.6848767,11.0712035 22.6561688,12.0422571 C23.2931246,12.6796899 24.1053566,13.0753132 24.7759369,13.0755516 C25.0012919,13.0755516 25.3170274,13.0285729 25.5411901,12.8044102 C26.1068431,12.2387572 25.750806,10.8904426 24.7797524,9.91915047 C24.1423196,9.28171769 23.3300876,8.88585595 22.6599843,8.88585595 M24.7759369,14.2679063 L24.7756984,14.2679063 C23.7858056,14.2676678 22.6783466,13.7509013 21.8129356,12.8854903 C20.3179614,11.3905161 19.9831482,9.38259089 21.0512595,8.31447961 C21.4573754,7.90812515 22.0137281,7.69350132 22.6599843,7.69350132 C23.6494002,7.69350132 24.7570976,8.21026782 25.6227471,9.07591728 C27.1179598,10.57113 27.4522961,12.5792937 26.3841848,13.6474049 C25.9783073,14.0532824 25.4221931,14.2679063 24.7759369,14.2679063" id="Fill-10" fill="#FEFEFE"></path>
                            <path d="M18.1678121,21.4805787 C18.0151907,21.4805787 17.8625693,21.4223918 17.7461955,21.306018 L14.2976674,17.8572514 L14.2502117,18.4400744 C14.223503,18.7684488 13.9373379,19.0147893 13.6077711,18.9861728 C13.2793966,18.959464 13.0352024,18.6718681 13.0616726,18.3437321 L13.2133401,16.4760278 C13.2321794,16.2444725 13.3838469,16.0448724 13.6020478,15.9645077 C13.8200102,15.8846199 14.0649198,15.9382759 14.2289878,16.1025823 L18.5894287,20.4627848 C18.8221763,20.6955324 18.8221763,21.0730319 18.5894287,21.306018 C18.4730549,21.4223918 18.3204335,21.4805787 18.1678121,21.4805787" id="Fill-12" fill="#FEFEFE"></path>
                        </g>
                        <g id="Page-1-Copy-22" transform="translate(82.000000, 0.000000)">
                            <g id="Group-3" transform="translate(0.000000, 0.120428)">
                                <mask id="mask-6" fill="white">
                                    <use xlink:href="#path-5"></use>
                                </mask>
                                <g id="Clip-2"></g>
                                <path d="M1.43931512,19.4125588 L15.1654631,33.1391838 L38.7433221,9.56132485 L30.4919896,1.31046928 L19.5414046,1.31046928 L1.43931512,19.4125588 Z M15.1654631,34.5783558 C15.0073569,34.5783558 14.8556894,34.515638 14.744085,34.4035566 L0.1747038,19.8341754 C-0.0582822943,19.6014278 -0.0582822943,19.2239283 0.1747038,18.9909422 L18.8729706,0.292675367 C18.9848135,0.180832503 19.1362425,0.11811465 19.2945872,0.11811465 L30.7390454,0.11811465 C30.8971517,0.11811465 31.0488192,0.180832503 31.1604236,0.292675367 L40.0079334,9.13994672 C40.1197763,9.25178958 40.1824941,9.40321862 40.1824941,9.56132485 C40.1824941,9.71966954 40.1197763,9.87109858 40.0079334,9.98294144 L15.5870797,34.4035566 C15.4752369,34.515638 15.3235694,34.5783558 15.1654631,34.5783558 Z" id="Fill-1" fill="#FCB528" mask="url(#mask-6)"></path>
                            </g>
                            <path d="M20.733807,1.4308494 L25.0167448,5.7140257 L29.2996826,1.4308494 L20.733807,1.4308494 Z M25.0167448,7.15319774 C24.8586386,7.15319774 24.7072095,7.09047989 24.5953667,6.97863702 L18.8730183,1.25628869 C18.7022731,1.08578197 18.6514788,0.829425728 18.7437671,0.606455412 C18.8360553,0.383485096 19.0533023,0.238494773 19.2943965,0.238494773 L30.7390931,0.238494773 C30.9801872,0.238494773 31.1974343,0.383485096 31.2897225,0.606455412 C31.3820107,0.829425728 31.330978,1.08578197 31.1604713,1.25628869 L25.4385999,6.97863702 C25.3265185,7.09047989 25.1750895,7.15319774 25.0167448,7.15319774 Z" id="Fill-4" fill="#FCB528"></path>
                            <path d="M15.0988821,29.9725999 C14.9407758,29.9725999 14.7891083,29.909882 14.6772655,29.7980392 L4.90067292,20.0214466 C4.66792529,19.7884605 4.66792529,19.410961 4.90067292,19.1782134 L21.2693173,2.80956906 C21.5020649,2.57658297 21.8798028,2.57658297 22.112312,2.80956906 C22.3452981,3.04231669 22.3452981,3.41981616 22.112312,3.65256378 L6.16552271,19.59983 L15.0988821,28.5334278 L34.017496,9.61481388 L30.1559363,5.75325417 C29.9229502,5.52074502 29.9229502,5.14324554 30.1559363,4.91025945 C30.3884455,4.67751182 30.7661834,4.67751182 30.9989311,4.91025945 L35.2821074,9.19319728 C35.3939502,9.30504014 35.4566681,9.45670765 35.4566681,9.61481388 C35.4566681,9.7729201 35.3939502,9.92458761 35.2821074,10.036192 L15.5204987,29.7980392 C15.4086558,29.909882 15.2569883,29.9725999 15.0988821,29.9725999" id="Fill-6" fill="#FCB528"></path>
                            <path d="M18.0463589,13.499696 C17.8210038,13.499696 17.5050299,13.5466748 17.2808672,13.7710759 C16.7152142,14.3364905 17.0712512,15.6845667 18.0425433,16.6560972 C18.6797376,17.2932915 19.4917311,17.6891533 20.1620729,17.6891533 C20.3874279,17.6891533 20.7031634,17.641936 20.9273261,17.4177733 C21.2647625,17.0805755 21.2156375,16.5428235 21.1562582,16.2523659 C21.0372612,15.6700199 20.6762162,15.0430799 20.1661269,14.5325136 C19.5286941,13.8955578 18.7164622,13.499696 18.0463589,13.499696 M20.1620729,18.8815079 C19.1721801,18.8812694 18.0647211,18.3645029 17.1993101,17.4990919 C15.7043359,16.0036408 15.3697612,13.9957156 16.437634,12.9280812 C16.84375,12.5219652 17.3998642,12.3073414 18.0463589,12.3073414 C19.0357747,12.3073414 20.1434722,12.8241079 21.0091216,13.6895189 C21.6904331,14.3708303 22.1575976,15.1964167 22.3242888,16.0136565 C22.5095807,16.9205615 22.3130807,17.7184852 21.7705593,18.2610065 C21.3646818,18.6668841 20.8085676,18.8815079 20.1620729,18.8815079" id="Fill-8" fill="#FCB528"></path>
                            <path d="M22.6599843,8.88585595 C22.4346293,8.88585595 22.1186553,8.93307319 21.8944927,9.15747433 C21.3288396,9.72312737 21.6848767,11.0712035 22.6561688,12.0422571 C23.2931246,12.6796899 24.1053566,13.0753132 24.7759369,13.0755516 C25.0012919,13.0755516 25.3170274,13.0285729 25.5411901,12.8044102 C26.1068431,12.2387572 25.750806,10.8904426 24.7797524,9.91915047 C24.1423196,9.28171769 23.3300876,8.88585595 22.6599843,8.88585595 M24.7759369,14.2679063 L24.7756984,14.2679063 C23.7858056,14.2676678 22.6783466,13.7509013 21.8129356,12.8854903 C20.3179614,11.3905161 19.9831482,9.38259089 21.0512595,8.31447961 C21.4573754,7.90812515 22.0137281,7.69350132 22.6599843,7.69350132 C23.6494002,7.69350132 24.7570976,8.21026782 25.6227471,9.07591728 C27.1179598,10.57113 27.4522961,12.5792937 26.3841848,13.6474049 C25.9783073,14.0532824 25.4221931,14.2679063 24.7759369,14.2679063" id="Fill-10" fill="#FCB528"></path>
                            <path d="M18.1678121,21.4805787 C18.0151907,21.4805787 17.8625693,21.4223918 17.7461955,21.306018 L14.2976674,17.8572514 L14.2502117,18.4400744 C14.223503,18.7684488 13.9373379,19.0147893 13.6077711,18.9861728 C13.2793966,18.959464 13.0352024,18.6718681 13.0616726,18.3437321 L13.2133401,16.4760278 C13.2321794,16.2444725 13.3838469,16.0448724 13.6020478,15.9645077 C13.8200102,15.8846199 14.0649198,15.9382759 14.2289878,16.1025823 L18.5894287,20.4627848 C18.8221763,20.6955324 18.8221763,21.0730319 18.5894287,21.306018 C18.4730549,21.4223918 18.3204335,21.4805787 18.1678121,21.4805787" id="Fill-12" fill="#FCB528"></path>
                        </g>
                        <g id="Page-1-Copy-20" transform="translate(40.000000, 36.000000)">
                            <g id="Group-3" transform="translate(0.000000, 0.120428)">
                                <mask id="mask-8" fill="white">
                                    <use xlink:href="#path-7"></use>
                                </mask>
                                <g id="Clip-2"></g>
                                <path d="M1.43931512,19.4125588 L15.1654631,33.1391838 L38.7433221,9.56132485 L30.4919896,1.31046928 L19.5414046,1.31046928 L1.43931512,19.4125588 Z M15.1654631,34.5783558 C15.0073569,34.5783558 14.8556894,34.515638 14.744085,34.4035566 L0.1747038,19.8341754 C-0.0582822943,19.6014278 -0.0582822943,19.2239283 0.1747038,18.9909422 L18.8729706,0.292675367 C18.9848135,0.180832503 19.1362425,0.11811465 19.2945872,0.11811465 L30.7390454,0.11811465 C30.8971517,0.11811465 31.0488192,0.180832503 31.1604236,0.292675367 L40.0079334,9.13994672 C40.1197763,9.25178958 40.1824941,9.40321862 40.1824941,9.56132485 C40.1824941,9.71966954 40.1197763,9.87109858 40.0079334,9.98294144 L15.5870797,34.4035566 C15.4752369,34.515638 15.3235694,34.5783558 15.1654631,34.5783558 Z" id="Fill-1" fill="#FCB528" mask="url(#mask-8)"></path>
                            </g>
                            <path d="M20.733807,1.4308494 L25.0167448,5.7140257 L29.2996826,1.4308494 L20.733807,1.4308494 Z M25.0167448,7.15319774 C24.8586386,7.15319774 24.7072095,7.09047989 24.5953667,6.97863702 L18.8730183,1.25628869 C18.7022731,1.08578197 18.6514788,0.829425728 18.7437671,0.606455412 C18.8360553,0.383485096 19.0533023,0.238494773 19.2943965,0.238494773 L30.7390931,0.238494773 C30.9801872,0.238494773 31.1974343,0.383485096 31.2897225,0.606455412 C31.3820107,0.829425728 31.330978,1.08578197 31.1604713,1.25628869 L25.4385999,6.97863702 C25.3265185,7.09047989 25.1750895,7.15319774 25.0167448,7.15319774 Z" id="Fill-4" fill="#FCB528"></path>
                            <path d="M15.0988821,29.9725999 C14.9407758,29.9725999 14.7891083,29.909882 14.6772655,29.7980392 L4.90067292,20.0214466 C4.66792529,19.7884605 4.66792529,19.410961 4.90067292,19.1782134 L21.2693173,2.80956906 C21.5020649,2.57658297 21.8798028,2.57658297 22.112312,2.80956906 C22.3452981,3.04231669 22.3452981,3.41981616 22.112312,3.65256378 L6.16552271,19.59983 L15.0988821,28.5334278 L34.017496,9.61481388 L30.1559363,5.75325417 C29.9229502,5.52074502 29.9229502,5.14324554 30.1559363,4.91025945 C30.3884455,4.67751182 30.7661834,4.67751182 30.9989311,4.91025945 L35.2821074,9.19319728 C35.3939502,9.30504014 35.4566681,9.45670765 35.4566681,9.61481388 C35.4566681,9.7729201 35.3939502,9.92458761 35.2821074,10.036192 L15.5204987,29.7980392 C15.4086558,29.909882 15.2569883,29.9725999 15.0988821,29.9725999" id="Fill-6" fill="#FCB528"></path>
                            <path d="M18.0463589,13.499696 C17.8210038,13.499696 17.5050299,13.5466748 17.2808672,13.7710759 C16.7152142,14.3364905 17.0712512,15.6845667 18.0425433,16.6560972 C18.6797376,17.2932915 19.4917311,17.6891533 20.1620729,17.6891533 C20.3874279,17.6891533 20.7031634,17.641936 20.9273261,17.4177733 C21.2647625,17.0805755 21.2156375,16.5428235 21.1562582,16.2523659 C21.0372612,15.6700199 20.6762162,15.0430799 20.1661269,14.5325136 C19.5286941,13.8955578 18.7164622,13.499696 18.0463589,13.499696 M20.1620729,18.8815079 C19.1721801,18.8812694 18.0647211,18.3645029 17.1993101,17.4990919 C15.7043359,16.0036408 15.3697612,13.9957156 16.437634,12.9280812 C16.84375,12.5219652 17.3998642,12.3073414 18.0463589,12.3073414 C19.0357747,12.3073414 20.1434722,12.8241079 21.0091216,13.6895189 C21.6904331,14.3708303 22.1575976,15.1964167 22.3242888,16.0136565 C22.5095807,16.9205615 22.3130807,17.7184852 21.7705593,18.2610065 C21.3646818,18.6668841 20.8085676,18.8815079 20.1620729,18.8815079" id="Fill-8" fill="#FCB528"></path>
                            <path d="M22.6599843,8.88585595 C22.4346293,8.88585595 22.1186553,8.93307319 21.8944927,9.15747433 C21.3288396,9.72312737 21.6848767,11.0712035 22.6561688,12.0422571 C23.2931246,12.6796899 24.1053566,13.0753132 24.7759369,13.0755516 C25.0012919,13.0755516 25.3170274,13.0285729 25.5411901,12.8044102 C26.1068431,12.2387572 25.750806,10.8904426 24.7797524,9.91915047 C24.1423196,9.28171769 23.3300876,8.88585595 22.6599843,8.88585595 M24.7759369,14.2679063 L24.7756984,14.2679063 C23.7858056,14.2676678 22.6783466,13.7509013 21.8129356,12.8854903 C20.3179614,11.3905161 19.9831482,9.38259089 21.0512595,8.31447961 C21.4573754,7.90812515 22.0137281,7.69350132 22.6599843,7.69350132 C23.6494002,7.69350132 24.7570976,8.21026782 25.6227471,9.07591728 C27.1179598,10.57113 27.4522961,12.5792937 26.3841848,13.6474049 C25.9783073,14.0532824 25.4221931,14.2679063 24.7759369,14.2679063" id="Fill-10" fill="#FCB528"></path>
                            <path d="M18.1678121,21.4805787 C18.0151907,21.4805787 17.8625693,21.4223918 17.7461955,21.306018 L14.2976674,17.8572514 L14.2502117,18.4400744 C14.223503,18.7684488 13.9373379,19.0147893 13.6077711,18.9861728 C13.2793966,18.959464 13.0352024,18.6718681 13.0616726,18.3437321 L13.2133401,16.4760278 C13.2321794,16.2444725 13.3838469,16.0448724 13.6020478,15.9645077 C13.8200102,15.8846199 14.0649198,15.9382759 14.2289878,16.1025823 L18.5894287,20.4627848 C18.8221763,20.6955324 18.8221763,21.0730319 18.5894287,21.306018 C18.4730549,21.4223918 18.3204335,21.4805787 18.1678121,21.4805787" id="Fill-12" fill="#FCB528"></path>
                        </g>
                        <g id="Page-1-Copy-23" transform="translate(40.000000, 0.000000)">
                            <g id="Group-3" transform="translate(0.000000, 0.120428)">
                                <mask id="mask-10" fill="white">
                                    <use xlink:href="#path-9"></use>
                                </mask>
                                <g id="Clip-2"></g>
                                <path d="M1.43931512,19.4125588 L15.1654631,33.1391838 L38.7433221,9.56132485 L30.4919896,1.31046928 L19.5414046,1.31046928 L1.43931512,19.4125588 Z M15.1654631,34.5783558 C15.0073569,34.5783558 14.8556894,34.515638 14.744085,34.4035566 L0.1747038,19.8341754 C-0.0582822943,19.6014278 -0.0582822943,19.2239283 0.1747038,18.9909422 L18.8729706,0.292675367 C18.9848135,0.180832503 19.1362425,0.11811465 19.2945872,0.11811465 L30.7390454,0.11811465 C30.8971517,0.11811465 31.0488192,0.180832503 31.1604236,0.292675367 L40.0079334,9.13994672 C40.1197763,9.25178958 40.1824941,9.40321862 40.1824941,9.56132485 C40.1824941,9.71966954 40.1197763,9.87109858 40.0079334,9.98294144 L15.5870797,34.4035566 C15.4752369,34.515638 15.3235694,34.5783558 15.1654631,34.5783558 Z" id="Fill-1" fill="#FCB528" mask="url(#mask-10)"></path>
                            </g>
                            <path d="M20.733807,1.4308494 L25.0167448,5.7140257 L29.2996826,1.4308494 L20.733807,1.4308494 Z M25.0167448,7.15319774 C24.8586386,7.15319774 24.7072095,7.09047989 24.5953667,6.97863702 L18.8730183,1.25628869 C18.7022731,1.08578197 18.6514788,0.829425728 18.7437671,0.606455412 C18.8360553,0.383485096 19.0533023,0.238494773 19.2943965,0.238494773 L30.7390931,0.238494773 C30.9801872,0.238494773 31.1974343,0.383485096 31.2897225,0.606455412 C31.3820107,0.829425728 31.330978,1.08578197 31.1604713,1.25628869 L25.4385999,6.97863702 C25.3265185,7.09047989 25.1750895,7.15319774 25.0167448,7.15319774 Z" id="Fill-4" fill="#FCB528"></path>
                            <path d="M15.0988821,29.9725999 C14.9407758,29.9725999 14.7891083,29.909882 14.6772655,29.7980392 L4.90067292,20.0214466 C4.66792529,19.7884605 4.66792529,19.410961 4.90067292,19.1782134 L21.2693173,2.80956906 C21.5020649,2.57658297 21.8798028,2.57658297 22.112312,2.80956906 C22.3452981,3.04231669 22.3452981,3.41981616 22.112312,3.65256378 L6.16552271,19.59983 L15.0988821,28.5334278 L34.017496,9.61481388 L30.1559363,5.75325417 C29.9229502,5.52074502 29.9229502,5.14324554 30.1559363,4.91025945 C30.3884455,4.67751182 30.7661834,4.67751182 30.9989311,4.91025945 L35.2821074,9.19319728 C35.3939502,9.30504014 35.4566681,9.45670765 35.4566681,9.61481388 C35.4566681,9.7729201 35.3939502,9.92458761 35.2821074,10.036192 L15.5204987,29.7980392 C15.4086558,29.909882 15.2569883,29.9725999 15.0988821,29.9725999" id="Fill-6" fill="#FCB528"></path>
                            <path d="M18.0463589,13.499696 C17.8210038,13.499696 17.5050299,13.5466748 17.2808672,13.7710759 C16.7152142,14.3364905 17.0712512,15.6845667 18.0425433,16.6560972 C18.6797376,17.2932915 19.4917311,17.6891533 20.1620729,17.6891533 C20.3874279,17.6891533 20.7031634,17.641936 20.9273261,17.4177733 C21.2647625,17.0805755 21.2156375,16.5428235 21.1562582,16.2523659 C21.0372612,15.6700199 20.6762162,15.0430799 20.1661269,14.5325136 C19.5286941,13.8955578 18.7164622,13.499696 18.0463589,13.499696 M20.1620729,18.8815079 C19.1721801,18.8812694 18.0647211,18.3645029 17.1993101,17.4990919 C15.7043359,16.0036408 15.3697612,13.9957156 16.437634,12.9280812 C16.84375,12.5219652 17.3998642,12.3073414 18.0463589,12.3073414 C19.0357747,12.3073414 20.1434722,12.8241079 21.0091216,13.6895189 C21.6904331,14.3708303 22.1575976,15.1964167 22.3242888,16.0136565 C22.5095807,16.9205615 22.3130807,17.7184852 21.7705593,18.2610065 C21.3646818,18.6668841 20.8085676,18.8815079 20.1620729,18.8815079" id="Fill-8" fill="#FCB528"></path>
                            <path d="M22.6599843,8.88585595 C22.4346293,8.88585595 22.1186553,8.93307319 21.8944927,9.15747433 C21.3288396,9.72312737 21.6848767,11.0712035 22.6561688,12.0422571 C23.2931246,12.6796899 24.1053566,13.0753132 24.7759369,13.0755516 C25.0012919,13.0755516 25.3170274,13.0285729 25.5411901,12.8044102 C26.1068431,12.2387572 25.750806,10.8904426 24.7797524,9.91915047 C24.1423196,9.28171769 23.3300876,8.88585595 22.6599843,8.88585595 M24.7759369,14.2679063 L24.7756984,14.2679063 C23.7858056,14.2676678 22.6783466,13.7509013 21.8129356,12.8854903 C20.3179614,11.3905161 19.9831482,9.38259089 21.0512595,8.31447961 C21.4573754,7.90812515 22.0137281,7.69350132 22.6599843,7.69350132 C23.6494002,7.69350132 24.7570976,8.21026782 25.6227471,9.07591728 C27.1179598,10.57113 27.4522961,12.5792937 26.3841848,13.6474049 C25.9783073,14.0532824 25.4221931,14.2679063 24.7759369,14.2679063" id="Fill-10" fill="#FCB528"></path>
                            <path d="M18.1678121,21.4805787 C18.0151907,21.4805787 17.8625693,21.4223918 17.7461955,21.306018 L14.2976674,17.8572514 L14.2502117,18.4400744 C14.223503,18.7684488 13.9373379,19.0147893 13.6077711,18.9861728 C13.2793966,18.959464 13.0352024,18.6718681 13.0616726,18.3437321 L13.2133401,16.4760278 C13.2321794,16.2444725 13.3838469,16.0448724 13.6020478,15.9645077 C13.8200102,15.8846199 14.0649198,15.9382759 14.2289878,16.1025823 L18.5894287,20.4627848 C18.8221763,20.6955324 18.8221763,21.0730319 18.5894287,21.306018 C18.4730549,21.4223918 18.3204335,21.4805787 18.1678121,21.4805787" id="Fill-12" fill="#FCB528"></path>
                        </g>
                        <g id="Page-1-Copy-21" transform="translate(0.000000, 36.000000)">
                            <g id="Group-3" transform="translate(0.000000, 0.120428)">
                                <mask id="mask-12" fill="white">
                                    <use xlink:href="#path-11"></use>
                                </mask>
                                <g id="Clip-2"></g>
                                <path d="M1.43931512,19.4125588 L15.1654631,33.1391838 L38.7433221,9.56132485 L30.4919896,1.31046928 L19.5414046,1.31046928 L1.43931512,19.4125588 Z M15.1654631,34.5783558 C15.0073569,34.5783558 14.8556894,34.515638 14.744085,34.4035566 L0.1747038,19.8341754 C-0.0582822943,19.6014278 -0.0582822943,19.2239283 0.1747038,18.9909422 L18.8729706,0.292675367 C18.9848135,0.180832503 19.1362425,0.11811465 19.2945872,0.11811465 L30.7390454,0.11811465 C30.8971517,0.11811465 31.0488192,0.180832503 31.1604236,0.292675367 L40.0079334,9.13994672 C40.1197763,9.25178958 40.1824941,9.40321862 40.1824941,9.56132485 C40.1824941,9.71966954 40.1197763,9.87109858 40.0079334,9.98294144 L15.5870797,34.4035566 C15.4752369,34.515638 15.3235694,34.5783558 15.1654631,34.5783558 Z" id="Fill-1" fill="#FCB528" mask="url(#mask-12)"></path>
                            </g>
                            <path d="M20.733807,1.4308494 L25.0167448,5.7140257 L29.2996826,1.4308494 L20.733807,1.4308494 Z M25.0167448,7.15319774 C24.8586386,7.15319774 24.7072095,7.09047989 24.5953667,6.97863702 L18.8730183,1.25628869 C18.7022731,1.08578197 18.6514788,0.829425728 18.7437671,0.606455412 C18.8360553,0.383485096 19.0533023,0.238494773 19.2943965,0.238494773 L30.7390931,0.238494773 C30.9801872,0.238494773 31.1974343,0.383485096 31.2897225,0.606455412 C31.3820107,0.829425728 31.330978,1.08578197 31.1604713,1.25628869 L25.4385999,6.97863702 C25.3265185,7.09047989 25.1750895,7.15319774 25.0167448,7.15319774 Z" id="Fill-4" fill="#FCB528"></path>
                            <path d="M15.0988821,29.9725999 C14.9407758,29.9725999 14.7891083,29.909882 14.6772655,29.7980392 L4.90067292,20.0214466 C4.66792529,19.7884605 4.66792529,19.410961 4.90067292,19.1782134 L21.2693173,2.80956906 C21.5020649,2.57658297 21.8798028,2.57658297 22.112312,2.80956906 C22.3452981,3.04231669 22.3452981,3.41981616 22.112312,3.65256378 L6.16552271,19.59983 L15.0988821,28.5334278 L34.017496,9.61481388 L30.1559363,5.75325417 C29.9229502,5.52074502 29.9229502,5.14324554 30.1559363,4.91025945 C30.3884455,4.67751182 30.7661834,4.67751182 30.9989311,4.91025945 L35.2821074,9.19319728 C35.3939502,9.30504014 35.4566681,9.45670765 35.4566681,9.61481388 C35.4566681,9.7729201 35.3939502,9.92458761 35.2821074,10.036192 L15.5204987,29.7980392 C15.4086558,29.909882 15.2569883,29.9725999 15.0988821,29.9725999" id="Fill-6" fill="#FCB528"></path>
                            <path d="M18.0463589,13.499696 C17.8210038,13.499696 17.5050299,13.5466748 17.2808672,13.7710759 C16.7152142,14.3364905 17.0712512,15.6845667 18.0425433,16.6560972 C18.6797376,17.2932915 19.4917311,17.6891533 20.1620729,17.6891533 C20.3874279,17.6891533 20.7031634,17.641936 20.9273261,17.4177733 C21.2647625,17.0805755 21.2156375,16.5428235 21.1562582,16.2523659 C21.0372612,15.6700199 20.6762162,15.0430799 20.1661269,14.5325136 C19.5286941,13.8955578 18.7164622,13.499696 18.0463589,13.499696 M20.1620729,18.8815079 C19.1721801,18.8812694 18.0647211,18.3645029 17.1993101,17.4990919 C15.7043359,16.0036408 15.3697612,13.9957156 16.437634,12.9280812 C16.84375,12.5219652 17.3998642,12.3073414 18.0463589,12.3073414 C19.0357747,12.3073414 20.1434722,12.8241079 21.0091216,13.6895189 C21.6904331,14.3708303 22.1575976,15.1964167 22.3242888,16.0136565 C22.5095807,16.9205615 22.3130807,17.7184852 21.7705593,18.2610065 C21.3646818,18.6668841 20.8085676,18.8815079 20.1620729,18.8815079" id="Fill-8" fill="#FCB528"></path>
                            <path d="M22.6599843,8.88585595 C22.4346293,8.88585595 22.1186553,8.93307319 21.8944927,9.15747433 C21.3288396,9.72312737 21.6848767,11.0712035 22.6561688,12.0422571 C23.2931246,12.6796899 24.1053566,13.0753132 24.7759369,13.0755516 C25.0012919,13.0755516 25.3170274,13.0285729 25.5411901,12.8044102 C26.1068431,12.2387572 25.750806,10.8904426 24.7797524,9.91915047 C24.1423196,9.28171769 23.3300876,8.88585595 22.6599843,8.88585595 M24.7759369,14.2679063 L24.7756984,14.2679063 C23.7858056,14.2676678 22.6783466,13.7509013 21.8129356,12.8854903 C20.3179614,11.3905161 19.9831482,9.38259089 21.0512595,8.31447961 C21.4573754,7.90812515 22.0137281,7.69350132 22.6599843,7.69350132 C23.6494002,7.69350132 24.7570976,8.21026782 25.6227471,9.07591728 C27.1179598,10.57113 27.4522961,12.5792937 26.3841848,13.6474049 C25.9783073,14.0532824 25.4221931,14.2679063 24.7759369,14.2679063" id="Fill-10" fill="#FCB528"></path>
                            <path d="M18.1678121,21.4805787 C18.0151907,21.4805787 17.8625693,21.4223918 17.7461955,21.306018 L14.2976674,17.8572514 L14.2502117,18.4400744 C14.223503,18.7684488 13.9373379,19.0147893 13.6077711,18.9861728 C13.2793966,18.959464 13.0352024,18.6718681 13.0616726,18.3437321 L13.2133401,16.4760278 C13.2321794,16.2444725 13.3838469,16.0448724 13.6020478,15.9645077 C13.8200102,15.8846199 14.0649198,15.9382759 14.2289878,16.1025823 L18.5894287,20.4627848 C18.8221763,20.6955324 18.8221763,21.0730319 18.5894287,21.306018 C18.4730549,21.4223918 18.3204335,21.4805787 18.1678121,21.4805787" id="Fill-12" fill="#FCB528"></path>
                        </g>
                        <g id="Page-1-Copy-24">
                            <g id="Group-3" transform="translate(0.000000, 0.120428)">
                                <mask id="mask-14" fill="white">
                                    <use xlink:href="#path-13"></use>
                                </mask>
                                <g id="Clip-2"></g>
                                <path d="M1.43931512,19.4125588 L15.1654631,33.1391838 L38.7433221,9.56132485 L30.4919896,1.31046928 L19.5414046,1.31046928 L1.43931512,19.4125588 Z M15.1654631,34.5783558 C15.0073569,34.5783558 14.8556894,34.515638 14.744085,34.4035566 L0.1747038,19.8341754 C-0.0582822943,19.6014278 -0.0582822943,19.2239283 0.1747038,18.9909422 L18.8729706,0.292675367 C18.9848135,0.180832503 19.1362425,0.11811465 19.2945872,0.11811465 L30.7390454,0.11811465 C30.8971517,0.11811465 31.0488192,0.180832503 31.1604236,0.292675367 L40.0079334,9.13994672 C40.1197763,9.25178958 40.1824941,9.40321862 40.1824941,9.56132485 C40.1824941,9.71966954 40.1197763,9.87109858 40.0079334,9.98294144 L15.5870797,34.4035566 C15.4752369,34.515638 15.3235694,34.5783558 15.1654631,34.5783558 Z" id="Fill-1" fill="#FCB528" mask="url(#mask-14)"></path>
                            </g>
                            <path d="M20.733807,1.4308494 L25.0167448,5.7140257 L29.2996826,1.4308494 L20.733807,1.4308494 Z M25.0167448,7.15319774 C24.8586386,7.15319774 24.7072095,7.09047989 24.5953667,6.97863702 L18.8730183,1.25628869 C18.7022731,1.08578197 18.6514788,0.829425728 18.7437671,0.606455412 C18.8360553,0.383485096 19.0533023,0.238494773 19.2943965,0.238494773 L30.7390931,0.238494773 C30.9801872,0.238494773 31.1974343,0.383485096 31.2897225,0.606455412 C31.3820107,0.829425728 31.330978,1.08578197 31.1604713,1.25628869 L25.4385999,6.97863702 C25.3265185,7.09047989 25.1750895,7.15319774 25.0167448,7.15319774 Z" id="Fill-4" fill="#FCB528"></path>
                            <path d="M15.0988821,29.9725999 C14.9407758,29.9725999 14.7891083,29.909882 14.6772655,29.7980392 L4.90067292,20.0214466 C4.66792529,19.7884605 4.66792529,19.410961 4.90067292,19.1782134 L21.2693173,2.80956906 C21.5020649,2.57658297 21.8798028,2.57658297 22.112312,2.80956906 C22.3452981,3.04231669 22.3452981,3.41981616 22.112312,3.65256378 L6.16552271,19.59983 L15.0988821,28.5334278 L34.017496,9.61481388 L30.1559363,5.75325417 C29.9229502,5.52074502 29.9229502,5.14324554 30.1559363,4.91025945 C30.3884455,4.67751182 30.7661834,4.67751182 30.9989311,4.91025945 L35.2821074,9.19319728 C35.3939502,9.30504014 35.4566681,9.45670765 35.4566681,9.61481388 C35.4566681,9.7729201 35.3939502,9.92458761 35.2821074,10.036192 L15.5204987,29.7980392 C15.4086558,29.909882 15.2569883,29.9725999 15.0988821,29.9725999" id="Fill-6" fill="#FCB528"></path>
                            <path d="M18.0463589,13.499696 C17.8210038,13.499696 17.5050299,13.5466748 17.2808672,13.7710759 C16.7152142,14.3364905 17.0712512,15.6845667 18.0425433,16.6560972 C18.6797376,17.2932915 19.4917311,17.6891533 20.1620729,17.6891533 C20.3874279,17.6891533 20.7031634,17.641936 20.9273261,17.4177733 C21.2647625,17.0805755 21.2156375,16.5428235 21.1562582,16.2523659 C21.0372612,15.6700199 20.6762162,15.0430799 20.1661269,14.5325136 C19.5286941,13.8955578 18.7164622,13.499696 18.0463589,13.499696 M20.1620729,18.8815079 C19.1721801,18.8812694 18.0647211,18.3645029 17.1993101,17.4990919 C15.7043359,16.0036408 15.3697612,13.9957156 16.437634,12.9280812 C16.84375,12.5219652 17.3998642,12.3073414 18.0463589,12.3073414 C19.0357747,12.3073414 20.1434722,12.8241079 21.0091216,13.6895189 C21.6904331,14.3708303 22.1575976,15.1964167 22.3242888,16.0136565 C22.5095807,16.9205615 22.3130807,17.7184852 21.7705593,18.2610065 C21.3646818,18.6668841 20.8085676,18.8815079 20.1620729,18.8815079" id="Fill-8" fill="#FCB528"></path>
                            <path d="M22.6599843,8.88585595 C22.4346293,8.88585595 22.1186553,8.93307319 21.8944927,9.15747433 C21.3288396,9.72312737 21.6848767,11.0712035 22.6561688,12.0422571 C23.2931246,12.6796899 24.1053566,13.0753132 24.7759369,13.0755516 C25.0012919,13.0755516 25.3170274,13.0285729 25.5411901,12.8044102 C26.1068431,12.2387572 25.750806,10.8904426 24.7797524,9.91915047 C24.1423196,9.28171769 23.3300876,8.88585595 22.6599843,8.88585595 M24.7759369,14.2679063 L24.7756984,14.2679063 C23.7858056,14.2676678 22.6783466,13.7509013 21.8129356,12.8854903 C20.3179614,11.3905161 19.9831482,9.38259089 21.0512595,8.31447961 C21.4573754,7.90812515 22.0137281,7.69350132 22.6599843,7.69350132 C23.6494002,7.69350132 24.7570976,8.21026782 25.6227471,9.07591728 C27.1179598,10.57113 27.4522961,12.5792937 26.3841848,13.6474049 C25.9783073,14.0532824 25.4221931,14.2679063 24.7759369,14.2679063" id="Fill-10" fill="#FCB528"></path>
                            <path d="M18.1678121,21.4805787 C18.0151907,21.4805787 17.8625693,21.4223918 17.7461955,21.306018 L14.2976674,17.8572514 L14.2502117,18.4400744 C14.223503,18.7684488 13.9373379,19.0147893 13.6077711,18.9861728 C13.2793966,18.959464 13.0352024,18.6718681 13.0616726,18.3437321 L13.2133401,16.4760278 C13.2321794,16.2444725 13.3838469,16.0448724 13.6020478,15.9645077 C13.8200102,15.8846199 14.0649198,15.9382759 14.2289878,16.1025823 L18.5894287,20.4627848 C18.8221763,20.6955324 18.8221763,21.0730319 18.5894287,21.306018 C18.4730549,21.4223918 18.3204335,21.4805787 18.1678121,21.4805787" id="Fill-12" fill="#FCB528"></path>
                        </g>
                        <g id="Page-1-Copy-18" transform="translate(122.000000, 76.000000)">
                            <g id="Group-3" transform="translate(0.000000, 0.120428)">
                                <mask id="mask-16" fill="white">
                                    <use xlink:href="#path-15"></use>
                                </mask>
                                <g id="Clip-2"></g>
                                <path d="M1.43931512,19.4125588 L15.1654631,33.1391838 L38.7433221,9.56132485 L30.4919896,1.31046928 L19.5414046,1.31046928 L1.43931512,19.4125588 Z M15.1654631,34.5783558 C15.0073569,34.5783558 14.8556894,34.515638 14.744085,34.4035566 L0.1747038,19.8341754 C-0.0582822943,19.6014278 -0.0582822943,19.2239283 0.1747038,18.9909422 L18.8729706,0.292675367 C18.9848135,0.180832503 19.1362425,0.11811465 19.2945872,0.11811465 L30.7390454,0.11811465 C30.8971517,0.11811465 31.0488192,0.180832503 31.1604236,0.292675367 L40.0079334,9.13994672 C40.1197763,9.25178958 40.1824941,9.40321862 40.1824941,9.56132485 C40.1824941,9.71966954 40.1197763,9.87109858 40.0079334,9.98294144 L15.5870797,34.4035566 C15.4752369,34.515638 15.3235694,34.5783558 15.1654631,34.5783558 Z" id="Fill-1" fill="#FEFEFE" mask="url(#mask-16)"></path>
                            </g>
                            <path d="M20.733807,1.4308494 L25.0167448,5.7140257 L29.2996826,1.4308494 L20.733807,1.4308494 Z M25.0167448,7.15319774 C24.8586386,7.15319774 24.7072095,7.09047989 24.5953667,6.97863702 L18.8730183,1.25628869 C18.7022731,1.08578197 18.6514788,0.829425728 18.7437671,0.606455412 C18.8360553,0.383485096 19.0533023,0.238494773 19.2943965,0.238494773 L30.7390931,0.238494773 C30.9801872,0.238494773 31.1974343,0.383485096 31.2897225,0.606455412 C31.3820107,0.829425728 31.330978,1.08578197 31.1604713,1.25628869 L25.4385999,6.97863702 C25.3265185,7.09047989 25.1750895,7.15319774 25.0167448,7.15319774 Z" id="Fill-4" fill="#FEFEFE"></path>
                            <path d="M15.0988821,29.9725999 C14.9407758,29.9725999 14.7891083,29.909882 14.6772655,29.7980392 L4.90067292,20.0214466 C4.66792529,19.7884605 4.66792529,19.410961 4.90067292,19.1782134 L21.2693173,2.80956906 C21.5020649,2.57658297 21.8798028,2.57658297 22.112312,2.80956906 C22.3452981,3.04231669 22.3452981,3.41981616 22.112312,3.65256378 L6.16552271,19.59983 L15.0988821,28.5334278 L34.017496,9.61481388 L30.1559363,5.75325417 C29.9229502,5.52074502 29.9229502,5.14324554 30.1559363,4.91025945 C30.3884455,4.67751182 30.7661834,4.67751182 30.9989311,4.91025945 L35.2821074,9.19319728 C35.3939502,9.30504014 35.4566681,9.45670765 35.4566681,9.61481388 C35.4566681,9.7729201 35.3939502,9.92458761 35.2821074,10.036192 L15.5204987,29.7980392 C15.4086558,29.909882 15.2569883,29.9725999 15.0988821,29.9725999" id="Fill-6" fill="#FEFEFE"></path>
                            <path d="M18.0463589,13.499696 C17.8210038,13.499696 17.5050299,13.5466748 17.2808672,13.7710759 C16.7152142,14.3364905 17.0712512,15.6845667 18.0425433,16.6560972 C18.6797376,17.2932915 19.4917311,17.6891533 20.1620729,17.6891533 C20.3874279,17.6891533 20.7031634,17.641936 20.9273261,17.4177733 C21.2647625,17.0805755 21.2156375,16.5428235 21.1562582,16.2523659 C21.0372612,15.6700199 20.6762162,15.0430799 20.1661269,14.5325136 C19.5286941,13.8955578 18.7164622,13.499696 18.0463589,13.499696 M20.1620729,18.8815079 C19.1721801,18.8812694 18.0647211,18.3645029 17.1993101,17.4990919 C15.7043359,16.0036408 15.3697612,13.9957156 16.437634,12.9280812 C16.84375,12.5219652 17.3998642,12.3073414 18.0463589,12.3073414 C19.0357747,12.3073414 20.1434722,12.8241079 21.0091216,13.6895189 C21.6904331,14.3708303 22.1575976,15.1964167 22.3242888,16.0136565 C22.5095807,16.9205615 22.3130807,17.7184852 21.7705593,18.2610065 C21.3646818,18.6668841 20.8085676,18.8815079 20.1620729,18.8815079" id="Fill-8" fill="#FEFEFE"></path>
                            <path d="M22.6599843,8.88585595 C22.4346293,8.88585595 22.1186553,8.93307319 21.8944927,9.15747433 C21.3288396,9.72312737 21.6848767,11.0712035 22.6561688,12.0422571 C23.2931246,12.6796899 24.1053566,13.0753132 24.7759369,13.0755516 C25.0012919,13.0755516 25.3170274,13.0285729 25.5411901,12.8044102 C26.1068431,12.2387572 25.750806,10.8904426 24.7797524,9.91915047 C24.1423196,9.28171769 23.3300876,8.88585595 22.6599843,8.88585595 M24.7759369,14.2679063 L24.7756984,14.2679063 C23.7858056,14.2676678 22.6783466,13.7509013 21.8129356,12.8854903 C20.3179614,11.3905161 19.9831482,9.38259089 21.0512595,8.31447961 C21.4573754,7.90812515 22.0137281,7.69350132 22.6599843,7.69350132 C23.6494002,7.69350132 24.7570976,8.21026782 25.6227471,9.07591728 C27.1179598,10.57113 27.4522961,12.5792937 26.3841848,13.6474049 C25.9783073,14.0532824 25.4221931,14.2679063 24.7759369,14.2679063" id="Fill-10" fill="#FEFEFE"></path>
                            <path d="M18.1678121,21.4805787 C18.0151907,21.4805787 17.8625693,21.4223918 17.7461955,21.306018 L14.2976674,17.8572514 L14.2502117,18.4400744 C14.223503,18.7684488 13.9373379,19.0147893 13.6077711,18.9861728 C13.2793966,18.959464 13.0352024,18.6718681 13.0616726,18.3437321 L13.2133401,16.4760278 C13.2321794,16.2444725 13.3838469,16.0448724 13.6020478,15.9645077 C13.8200102,15.8846199 14.0649198,15.9382759 14.2289878,16.1025823 L18.5894287,20.4627848 C18.8221763,20.6955324 18.8221763,21.0730319 18.5894287,21.306018 C18.4730549,21.4223918 18.3204335,21.4805787 18.1678121,21.4805787" id="Fill-12" fill="#FEFEFE"></path>
                        </g>
                        <g id="Page-1-Copy-19" transform="translate(122.000000, 40.000000)">
                            <g id="Group-3" transform="translate(0.000000, 0.120428)">
                                <mask id="mask-18" fill="white">
                                    <use xlink:href="#path-17"></use>
                                </mask>
                                <g id="Clip-2"></g>
                                <path d="M1.43931512,19.4125588 L15.1654631,33.1391838 L38.7433221,9.56132485 L30.4919896,1.31046928 L19.5414046,1.31046928 L1.43931512,19.4125588 Z M15.1654631,34.5783558 C15.0073569,34.5783558 14.8556894,34.515638 14.744085,34.4035566 L0.1747038,19.8341754 C-0.0582822943,19.6014278 -0.0582822943,19.2239283 0.1747038,18.9909422 L18.8729706,0.292675367 C18.9848135,0.180832503 19.1362425,0.11811465 19.2945872,0.11811465 L30.7390454,0.11811465 C30.8971517,0.11811465 31.0488192,0.180832503 31.1604236,0.292675367 L40.0079334,9.13994672 C40.1197763,9.25178958 40.1824941,9.40321862 40.1824941,9.56132485 C40.1824941,9.71966954 40.1197763,9.87109858 40.0079334,9.98294144 L15.5870797,34.4035566 C15.4752369,34.515638 15.3235694,34.5783558 15.1654631,34.5783558 Z" id="Fill-1" fill="#FEFEFE" mask="url(#mask-18)"></path>
                            </g>
                            <path d="M20.733807,1.4308494 L25.0167448,5.7140257 L29.2996826,1.4308494 L20.733807,1.4308494 Z M25.0167448,7.15319774 C24.8586386,7.15319774 24.7072095,7.09047989 24.5953667,6.97863702 L18.8730183,1.25628869 C18.7022731,1.08578197 18.6514788,0.829425728 18.7437671,0.606455412 C18.8360553,0.383485096 19.0533023,0.238494773 19.2943965,0.238494773 L30.7390931,0.238494773 C30.9801872,0.238494773 31.1974343,0.383485096 31.2897225,0.606455412 C31.3820107,0.829425728 31.330978,1.08578197 31.1604713,1.25628869 L25.4385999,6.97863702 C25.3265185,7.09047989 25.1750895,7.15319774 25.0167448,7.15319774 Z" id="Fill-4" fill="#FEFEFE"></path>
                            <path d="M15.0988821,29.9725999 C14.9407758,29.9725999 14.7891083,29.909882 14.6772655,29.7980392 L4.90067292,20.0214466 C4.66792529,19.7884605 4.66792529,19.410961 4.90067292,19.1782134 L21.2693173,2.80956906 C21.5020649,2.57658297 21.8798028,2.57658297 22.112312,2.80956906 C22.3452981,3.04231669 22.3452981,3.41981616 22.112312,3.65256378 L6.16552271,19.59983 L15.0988821,28.5334278 L34.017496,9.61481388 L30.1559363,5.75325417 C29.9229502,5.52074502 29.9229502,5.14324554 30.1559363,4.91025945 C30.3884455,4.67751182 30.7661834,4.67751182 30.9989311,4.91025945 L35.2821074,9.19319728 C35.3939502,9.30504014 35.4566681,9.45670765 35.4566681,9.61481388 C35.4566681,9.7729201 35.3939502,9.92458761 35.2821074,10.036192 L15.5204987,29.7980392 C15.4086558,29.909882 15.2569883,29.9725999 15.0988821,29.9725999" id="Fill-6" fill="#FEFEFE"></path>
                            <path d="M18.0463589,13.499696 C17.8210038,13.499696 17.5050299,13.5466748 17.2808672,13.7710759 C16.7152142,14.3364905 17.0712512,15.6845667 18.0425433,16.6560972 C18.6797376,17.2932915 19.4917311,17.6891533 20.1620729,17.6891533 C20.3874279,17.6891533 20.7031634,17.641936 20.9273261,17.4177733 C21.2647625,17.0805755 21.2156375,16.5428235 21.1562582,16.2523659 C21.0372612,15.6700199 20.6762162,15.0430799 20.1661269,14.5325136 C19.5286941,13.8955578 18.7164622,13.499696 18.0463589,13.499696 M20.1620729,18.8815079 C19.1721801,18.8812694 18.0647211,18.3645029 17.1993101,17.4990919 C15.7043359,16.0036408 15.3697612,13.9957156 16.437634,12.9280812 C16.84375,12.5219652 17.3998642,12.3073414 18.0463589,12.3073414 C19.0357747,12.3073414 20.1434722,12.8241079 21.0091216,13.6895189 C21.6904331,14.3708303 22.1575976,15.1964167 22.3242888,16.0136565 C22.5095807,16.9205615 22.3130807,17.7184852 21.7705593,18.2610065 C21.3646818,18.6668841 20.8085676,18.8815079 20.1620729,18.8815079" id="Fill-8" fill="#FEFEFE"></path>
                            <path d="M22.6599843,8.88585595 C22.4346293,8.88585595 22.1186553,8.93307319 21.8944927,9.15747433 C21.3288396,9.72312737 21.6848767,11.0712035 22.6561688,12.0422571 C23.2931246,12.6796899 24.1053566,13.0753132 24.7759369,13.0755516 C25.0012919,13.0755516 25.3170274,13.0285729 25.5411901,12.8044102 C26.1068431,12.2387572 25.750806,10.8904426 24.7797524,9.91915047 C24.1423196,9.28171769 23.3300876,8.88585595 22.6599843,8.88585595 M24.7759369,14.2679063 L24.7756984,14.2679063 C23.7858056,14.2676678 22.6783466,13.7509013 21.8129356,12.8854903 C20.3179614,11.3905161 19.9831482,9.38259089 21.0512595,8.31447961 C21.4573754,7.90812515 22.0137281,7.69350132 22.6599843,7.69350132 C23.6494002,7.69350132 24.7570976,8.21026782 25.6227471,9.07591728 C27.1179598,10.57113 27.4522961,12.5792937 26.3841848,13.6474049 C25.9783073,14.0532824 25.4221931,14.2679063 24.7759369,14.2679063" id="Fill-10" fill="#FEFEFE"></path>
                            <path d="M18.1678121,21.4805787 C18.0151907,21.4805787 17.8625693,21.4223918 17.7461955,21.306018 L14.2976674,17.8572514 L14.2502117,18.4400744 C14.223503,18.7684488 13.9373379,19.0147893 13.6077711,18.9861728 C13.2793966,18.959464 13.0352024,18.6718681 13.0616726,18.3437321 L13.2133401,16.4760278 C13.2321794,16.2444725 13.3838469,16.0448724 13.6020478,15.9645077 C13.8200102,15.8846199 14.0649198,15.9382759 14.2289878,16.1025823 L18.5894287,20.4627848 C18.8221763,20.6955324 18.8221763,21.0730319 18.5894287,21.306018 C18.4730549,21.4223918 18.3204335,21.4805787 18.1678121,21.4805787" id="Fill-12" fill="#FEFEFE"></path>
                        </g>
                        <g id="Page-1-Copy-8" transform="translate(82.000000, 112.000000)">
                            <g id="Group-3" transform="translate(0.000000, 0.120428)">
                                <mask id="mask-20" fill="white">
                                    <use xlink:href="#path-19"></use>
                                </mask>
                                <g id="Clip-2"></g>
                                <path d="M1.43931512,19.4125588 L15.1654631,33.1391838 L38.7433221,9.56132485 L30.4919896,1.31046928 L19.5414046,1.31046928 L1.43931512,19.4125588 Z M15.1654631,34.5783558 C15.0073569,34.5783558 14.8556894,34.515638 14.744085,34.4035566 L0.1747038,19.8341754 C-0.0582822943,19.6014278 -0.0582822943,19.2239283 0.1747038,18.9909422 L18.8729706,0.292675367 C18.9848135,0.180832503 19.1362425,0.11811465 19.2945872,0.11811465 L30.7390454,0.11811465 C30.8971517,0.11811465 31.0488192,0.180832503 31.1604236,0.292675367 L40.0079334,9.13994672 C40.1197763,9.25178958 40.1824941,9.40321862 40.1824941,9.56132485 C40.1824941,9.71966954 40.1197763,9.87109858 40.0079334,9.98294144 L15.5870797,34.4035566 C15.4752369,34.515638 15.3235694,34.5783558 15.1654631,34.5783558 Z" id="Fill-1" fill="#FEFEFE" mask="url(#mask-20)"></path>
                            </g>
                            <path d="M20.733807,1.4308494 L25.0167448,5.7140257 L29.2996826,1.4308494 L20.733807,1.4308494 Z M25.0167448,7.15319774 C24.8586386,7.15319774 24.7072095,7.09047989 24.5953667,6.97863702 L18.8730183,1.25628869 C18.7022731,1.08578197 18.6514788,0.829425728 18.7437671,0.606455412 C18.8360553,0.383485096 19.0533023,0.238494773 19.2943965,0.238494773 L30.7390931,0.238494773 C30.9801872,0.238494773 31.1974343,0.383485096 31.2897225,0.606455412 C31.3820107,0.829425728 31.330978,1.08578197 31.1604713,1.25628869 L25.4385999,6.97863702 C25.3265185,7.09047989 25.1750895,7.15319774 25.0167448,7.15319774 Z" id="Fill-4" fill="#FEFEFE"></path>
                            <path d="M15.0988821,29.9725999 C14.9407758,29.9725999 14.7891083,29.909882 14.6772655,29.7980392 L4.90067292,20.0214466 C4.66792529,19.7884605 4.66792529,19.410961 4.90067292,19.1782134 L21.2693173,2.80956906 C21.5020649,2.57658297 21.8798028,2.57658297 22.112312,2.80956906 C22.3452981,3.04231669 22.3452981,3.41981616 22.112312,3.65256378 L6.16552271,19.59983 L15.0988821,28.5334278 L34.017496,9.61481388 L30.1559363,5.75325417 C29.9229502,5.52074502 29.9229502,5.14324554 30.1559363,4.91025945 C30.3884455,4.67751182 30.7661834,4.67751182 30.9989311,4.91025945 L35.2821074,9.19319728 C35.3939502,9.30504014 35.4566681,9.45670765 35.4566681,9.61481388 C35.4566681,9.7729201 35.3939502,9.92458761 35.2821074,10.036192 L15.5204987,29.7980392 C15.4086558,29.909882 15.2569883,29.9725999 15.0988821,29.9725999" id="Fill-6" fill="#FEFEFE"></path>
                            <path d="M18.0463589,13.499696 C17.8210038,13.499696 17.5050299,13.5466748 17.2808672,13.7710759 C16.7152142,14.3364905 17.0712512,15.6845667 18.0425433,16.6560972 C18.6797376,17.2932915 19.4917311,17.6891533 20.1620729,17.6891533 C20.3874279,17.6891533 20.7031634,17.641936 20.9273261,17.4177733 C21.2647625,17.0805755 21.2156375,16.5428235 21.1562582,16.2523659 C21.0372612,15.6700199 20.6762162,15.0430799 20.1661269,14.5325136 C19.5286941,13.8955578 18.7164622,13.499696 18.0463589,13.499696 M20.1620729,18.8815079 C19.1721801,18.8812694 18.0647211,18.3645029 17.1993101,17.4990919 C15.7043359,16.0036408 15.3697612,13.9957156 16.437634,12.9280812 C16.84375,12.5219652 17.3998642,12.3073414 18.0463589,12.3073414 C19.0357747,12.3073414 20.1434722,12.8241079 21.0091216,13.6895189 C21.6904331,14.3708303 22.1575976,15.1964167 22.3242888,16.0136565 C22.5095807,16.9205615 22.3130807,17.7184852 21.7705593,18.2610065 C21.3646818,18.6668841 20.8085676,18.8815079 20.1620729,18.8815079" id="Fill-8" fill="#FEFEFE"></path>
                            <path d="M22.6599843,8.88585595 C22.4346293,8.88585595 22.1186553,8.93307319 21.8944927,9.15747433 C21.3288396,9.72312737 21.6848767,11.0712035 22.6561688,12.0422571 C23.2931246,12.6796899 24.1053566,13.0753132 24.7759369,13.0755516 C25.0012919,13.0755516 25.3170274,13.0285729 25.5411901,12.8044102 C26.1068431,12.2387572 25.750806,10.8904426 24.7797524,9.91915047 C24.1423196,9.28171769 23.3300876,8.88585595 22.6599843,8.88585595 M24.7759369,14.2679063 L24.7756984,14.2679063 C23.7858056,14.2676678 22.6783466,13.7509013 21.8129356,12.8854903 C20.3179614,11.3905161 19.9831482,9.38259089 21.0512595,8.31447961 C21.4573754,7.90812515 22.0137281,7.69350132 22.6599843,7.69350132 C23.6494002,7.69350132 24.7570976,8.21026782 25.6227471,9.07591728 C27.1179598,10.57113 27.4522961,12.5792937 26.3841848,13.6474049 C25.9783073,14.0532824 25.4221931,14.2679063 24.7759369,14.2679063" id="Fill-10" fill="#FEFEFE"></path>
                            <path d="M18.1678121,21.4805787 C18.0151907,21.4805787 17.8625693,21.4223918 17.7461955,21.306018 L14.2976674,17.8572514 L14.2502117,18.4400744 C14.223503,18.7684488 13.9373379,19.0147893 13.6077711,18.9861728 C13.2793966,18.959464 13.0352024,18.6718681 13.0616726,18.3437321 L13.2133401,16.4760278 C13.2321794,16.2444725 13.3838469,16.0448724 13.6020478,15.9645077 C13.8200102,15.8846199 14.0649198,15.9382759 14.2289878,16.1025823 L18.5894287,20.4627848 C18.8221763,20.6955324 18.8221763,21.0730319 18.5894287,21.306018 C18.4730549,21.4223918 18.3204335,21.4805787 18.1678121,21.4805787" id="Fill-12" fill="#FEFEFE"></path>
                        </g>
                        <g id="Page-1-Copy-5" transform="translate(40.000000, 112.000000)">
                            <g id="Group-3" transform="translate(0.000000, 0.120428)">
                                <mask id="mask-22" fill="white">
                                    <use xlink:href="#path-21"></use>
                                </mask>
                                <g id="Clip-2"></g>
                                <path d="M1.43931512,19.4125588 L15.1654631,33.1391838 L38.7433221,9.56132485 L30.4919896,1.31046928 L19.5414046,1.31046928 L1.43931512,19.4125588 Z M15.1654631,34.5783558 C15.0073569,34.5783558 14.8556894,34.515638 14.744085,34.4035566 L0.1747038,19.8341754 C-0.0582822943,19.6014278 -0.0582822943,19.2239283 0.1747038,18.9909422 L18.8729706,0.292675367 C18.9848135,0.180832503 19.1362425,0.11811465 19.2945872,0.11811465 L30.7390454,0.11811465 C30.8971517,0.11811465 31.0488192,0.180832503 31.1604236,0.292675367 L40.0079334,9.13994672 C40.1197763,9.25178958 40.1824941,9.40321862 40.1824941,9.56132485 C40.1824941,9.71966954 40.1197763,9.87109858 40.0079334,9.98294144 L15.5870797,34.4035566 C15.4752369,34.515638 15.3235694,34.5783558 15.1654631,34.5783558 Z" id="Fill-1" fill="#FEFEFE" mask="url(#mask-22)"></path>
                            </g>
                            <path d="M20.733807,1.4308494 L25.0167448,5.7140257 L29.2996826,1.4308494 L20.733807,1.4308494 Z M25.0167448,7.15319774 C24.8586386,7.15319774 24.7072095,7.09047989 24.5953667,6.97863702 L18.8730183,1.25628869 C18.7022731,1.08578197 18.6514788,0.829425728 18.7437671,0.606455412 C18.8360553,0.383485096 19.0533023,0.238494773 19.2943965,0.238494773 L30.7390931,0.238494773 C30.9801872,0.238494773 31.1974343,0.383485096 31.2897225,0.606455412 C31.3820107,0.829425728 31.330978,1.08578197 31.1604713,1.25628869 L25.4385999,6.97863702 C25.3265185,7.09047989 25.1750895,7.15319774 25.0167448,7.15319774 Z" id="Fill-4" fill="#FEFEFE"></path>
                            <path d="M15.0988821,29.9725999 C14.9407758,29.9725999 14.7891083,29.909882 14.6772655,29.7980392 L4.90067292,20.0214466 C4.66792529,19.7884605 4.66792529,19.410961 4.90067292,19.1782134 L21.2693173,2.80956906 C21.5020649,2.57658297 21.8798028,2.57658297 22.112312,2.80956906 C22.3452981,3.04231669 22.3452981,3.41981616 22.112312,3.65256378 L6.16552271,19.59983 L15.0988821,28.5334278 L34.017496,9.61481388 L30.1559363,5.75325417 C29.9229502,5.52074502 29.9229502,5.14324554 30.1559363,4.91025945 C30.3884455,4.67751182 30.7661834,4.67751182 30.9989311,4.91025945 L35.2821074,9.19319728 C35.3939502,9.30504014 35.4566681,9.45670765 35.4566681,9.61481388 C35.4566681,9.7729201 35.3939502,9.92458761 35.2821074,10.036192 L15.5204987,29.7980392 C15.4086558,29.909882 15.2569883,29.9725999 15.0988821,29.9725999" id="Fill-6" fill="#FEFEFE"></path>
                            <path d="M18.0463589,13.499696 C17.8210038,13.499696 17.5050299,13.5466748 17.2808672,13.7710759 C16.7152142,14.3364905 17.0712512,15.6845667 18.0425433,16.6560972 C18.6797376,17.2932915 19.4917311,17.6891533 20.1620729,17.6891533 C20.3874279,17.6891533 20.7031634,17.641936 20.9273261,17.4177733 C21.2647625,17.0805755 21.2156375,16.5428235 21.1562582,16.2523659 C21.0372612,15.6700199 20.6762162,15.0430799 20.1661269,14.5325136 C19.5286941,13.8955578 18.7164622,13.499696 18.0463589,13.499696 M20.1620729,18.8815079 C19.1721801,18.8812694 18.0647211,18.3645029 17.1993101,17.4990919 C15.7043359,16.0036408 15.3697612,13.9957156 16.437634,12.9280812 C16.84375,12.5219652 17.3998642,12.3073414 18.0463589,12.3073414 C19.0357747,12.3073414 20.1434722,12.8241079 21.0091216,13.6895189 C21.6904331,14.3708303 22.1575976,15.1964167 22.3242888,16.0136565 C22.5095807,16.9205615 22.3130807,17.7184852 21.7705593,18.2610065 C21.3646818,18.6668841 20.8085676,18.8815079 20.1620729,18.8815079" id="Fill-8" fill="#FEFEFE"></path>
                            <path d="M22.6599843,8.88585595 C22.4346293,8.88585595 22.1186553,8.93307319 21.8944927,9.15747433 C21.3288396,9.72312737 21.6848767,11.0712035 22.6561688,12.0422571 C23.2931246,12.6796899 24.1053566,13.0753132 24.7759369,13.0755516 C25.0012919,13.0755516 25.3170274,13.0285729 25.5411901,12.8044102 C26.1068431,12.2387572 25.750806,10.8904426 24.7797524,9.91915047 C24.1423196,9.28171769 23.3300876,8.88585595 22.6599843,8.88585595 M24.7759369,14.2679063 L24.7756984,14.2679063 C23.7858056,14.2676678 22.6783466,13.7509013 21.8129356,12.8854903 C20.3179614,11.3905161 19.9831482,9.38259089 21.0512595,8.31447961 C21.4573754,7.90812515 22.0137281,7.69350132 22.6599843,7.69350132 C23.6494002,7.69350132 24.7570976,8.21026782 25.6227471,9.07591728 C27.1179598,10.57113 27.4522961,12.5792937 26.3841848,13.6474049 C25.9783073,14.0532824 25.4221931,14.2679063 24.7759369,14.2679063" id="Fill-10" fill="#FEFEFE"></path>
                            <path d="M18.1678121,21.4805787 C18.0151907,21.4805787 17.8625693,21.4223918 17.7461955,21.306018 L14.2976674,17.8572514 L14.2502117,18.4400744 C14.223503,18.7684488 13.9373379,19.0147893 13.6077711,18.9861728 C13.2793966,18.959464 13.0352024,18.6718681 13.0616726,18.3437321 L13.2133401,16.4760278 C13.2321794,16.2444725 13.3838469,16.0448724 13.6020478,15.9645077 C13.8200102,15.8846199 14.0649198,15.9382759 14.2289878,16.1025823 L18.5894287,20.4627848 C18.8221763,20.6955324 18.8221763,21.0730319 18.5894287,21.306018 C18.4730549,21.4223918 18.3204335,21.4805787 18.1678121,21.4805787" id="Fill-12" fill="#FEFEFE"></path>
                        </g>
                        <g id="Page-1-Copy-9" transform="translate(122.000000, 112.000000)">
                            <g id="Group-3" transform="translate(0.000000, 0.120428)">
                                <mask id="mask-24" fill="white">
                                    <use xlink:href="#path-23"></use>
                                </mask>
                                <g id="Clip-2"></g>
                                <path d="M1.43931512,19.4125588 L15.1654631,33.1391838 L38.7433221,9.56132485 L30.4919896,1.31046928 L19.5414046,1.31046928 L1.43931512,19.4125588 Z M15.1654631,34.5783558 C15.0073569,34.5783558 14.8556894,34.515638 14.744085,34.4035566 L0.1747038,19.8341754 C-0.0582822943,19.6014278 -0.0582822943,19.2239283 0.1747038,18.9909422 L18.8729706,0.292675367 C18.9848135,0.180832503 19.1362425,0.11811465 19.2945872,0.11811465 L30.7390454,0.11811465 C30.8971517,0.11811465 31.0488192,0.180832503 31.1604236,0.292675367 L40.0079334,9.13994672 C40.1197763,9.25178958 40.1824941,9.40321862 40.1824941,9.56132485 C40.1824941,9.71966954 40.1197763,9.87109858 40.0079334,9.98294144 L15.5870797,34.4035566 C15.4752369,34.515638 15.3235694,34.5783558 15.1654631,34.5783558 Z" id="Fill-1" fill="#FEFEFE" mask="url(#mask-24)"></path>
                            </g>
                            <path d="M20.733807,1.4308494 L25.0167448,5.7140257 L29.2996826,1.4308494 L20.733807,1.4308494 Z M25.0167448,7.15319774 C24.8586386,7.15319774 24.7072095,7.09047989 24.5953667,6.97863702 L18.8730183,1.25628869 C18.7022731,1.08578197 18.6514788,0.829425728 18.7437671,0.606455412 C18.8360553,0.383485096 19.0533023,0.238494773 19.2943965,0.238494773 L30.7390931,0.238494773 C30.9801872,0.238494773 31.1974343,0.383485096 31.2897225,0.606455412 C31.3820107,0.829425728 31.330978,1.08578197 31.1604713,1.25628869 L25.4385999,6.97863702 C25.3265185,7.09047989 25.1750895,7.15319774 25.0167448,7.15319774 Z" id="Fill-4" fill="#FEFEFE"></path>
                            <path d="M15.0988821,29.9725999 C14.9407758,29.9725999 14.7891083,29.909882 14.6772655,29.7980392 L4.90067292,20.0214466 C4.66792529,19.7884605 4.66792529,19.410961 4.90067292,19.1782134 L21.2693173,2.80956906 C21.5020649,2.57658297 21.8798028,2.57658297 22.112312,2.80956906 C22.3452981,3.04231669 22.3452981,3.41981616 22.112312,3.65256378 L6.16552271,19.59983 L15.0988821,28.5334278 L34.017496,9.61481388 L30.1559363,5.75325417 C29.9229502,5.52074502 29.9229502,5.14324554 30.1559363,4.91025945 C30.3884455,4.67751182 30.7661834,4.67751182 30.9989311,4.91025945 L35.2821074,9.19319728 C35.3939502,9.30504014 35.4566681,9.45670765 35.4566681,9.61481388 C35.4566681,9.7729201 35.3939502,9.92458761 35.2821074,10.036192 L15.5204987,29.7980392 C15.4086558,29.909882 15.2569883,29.9725999 15.0988821,29.9725999" id="Fill-6" fill="#FEFEFE"></path>
                            <path d="M18.0463589,13.499696 C17.8210038,13.499696 17.5050299,13.5466748 17.2808672,13.7710759 C16.7152142,14.3364905 17.0712512,15.6845667 18.0425433,16.6560972 C18.6797376,17.2932915 19.4917311,17.6891533 20.1620729,17.6891533 C20.3874279,17.6891533 20.7031634,17.641936 20.9273261,17.4177733 C21.2647625,17.0805755 21.2156375,16.5428235 21.1562582,16.2523659 C21.0372612,15.6700199 20.6762162,15.0430799 20.1661269,14.5325136 C19.5286941,13.8955578 18.7164622,13.499696 18.0463589,13.499696 M20.1620729,18.8815079 C19.1721801,18.8812694 18.0647211,18.3645029 17.1993101,17.4990919 C15.7043359,16.0036408 15.3697612,13.9957156 16.437634,12.9280812 C16.84375,12.5219652 17.3998642,12.3073414 18.0463589,12.3073414 C19.0357747,12.3073414 20.1434722,12.8241079 21.0091216,13.6895189 C21.6904331,14.3708303 22.1575976,15.1964167 22.3242888,16.0136565 C22.5095807,16.9205615 22.3130807,17.7184852 21.7705593,18.2610065 C21.3646818,18.6668841 20.8085676,18.8815079 20.1620729,18.8815079" id="Fill-8" fill="#FEFEFE"></path>
                            <path d="M22.6599843,8.88585595 C22.4346293,8.88585595 22.1186553,8.93307319 21.8944927,9.15747433 C21.3288396,9.72312737 21.6848767,11.0712035 22.6561688,12.0422571 C23.2931246,12.6796899 24.1053566,13.0753132 24.7759369,13.0755516 C25.0012919,13.0755516 25.3170274,13.0285729 25.5411901,12.8044102 C26.1068431,12.2387572 25.750806,10.8904426 24.7797524,9.91915047 C24.1423196,9.28171769 23.3300876,8.88585595 22.6599843,8.88585595 M24.7759369,14.2679063 L24.7756984,14.2679063 C23.7858056,14.2676678 22.6783466,13.7509013 21.8129356,12.8854903 C20.3179614,11.3905161 19.9831482,9.38259089 21.0512595,8.31447961 C21.4573754,7.90812515 22.0137281,7.69350132 22.6599843,7.69350132 C23.6494002,7.69350132 24.7570976,8.21026782 25.6227471,9.07591728 C27.1179598,10.57113 27.4522961,12.5792937 26.3841848,13.6474049 C25.9783073,14.0532824 25.4221931,14.2679063 24.7759369,14.2679063" id="Fill-10" fill="#FEFEFE"></path>
                            <path d="M18.1678121,21.4805787 C18.0151907,21.4805787 17.8625693,21.4223918 17.7461955,21.306018 L14.2976674,17.8572514 L14.2502117,18.4400744 C14.223503,18.7684488 13.9373379,19.0147893 13.6077711,18.9861728 C13.2793966,18.959464 13.0352024,18.6718681 13.0616726,18.3437321 L13.2133401,16.4760278 C13.2321794,16.2444725 13.3838469,16.0448724 13.6020478,15.9645077 C13.8200102,15.8846199 14.0649198,15.9382759 14.2289878,16.1025823 L18.5894287,20.4627848 C18.8221763,20.6955324 18.8221763,21.0730319 18.5894287,21.306018 C18.4730549,21.4223918 18.3204335,21.4805787 18.1678121,21.4805787" id="Fill-12" fill="#FEFEFE"></path>
                        </g>
                    </g>
                    <path d="M9.5,142.5 L143.634261,8.3657389" id="Line" stroke="#EEF2F3" stroke-linecap="square"></path>
                </g>
            </g>
        </g>
    </g>
</svg>