<?xml version="1.0" encoding="UTF-8"?>
<svg width="41px" height="30px" viewBox="0 0 41 30" version="1.1" xmlns="http://www.w3.org/2000/svg" xmlns:xlink="http://www.w3.org/1999/xlink">
    <!-- Generator: Sketch 49.2 (51160) - http://www.bohemiancoding.com/sketch -->
    <title>Group 23 Copy</title>
    <desc>Created with Sketch.</desc>
    <defs></defs>
    <g id="HD-Desktop-1920---1440-px" stroke="none" stroke-width="1" fill="none" fill-rule="evenodd">
        <g id="HD-Desktop_EDU-Promo_Static" transform="translate(-296.000000, -205.000000)">
            <g id="Group-23-Copy" transform="translate(296.000000, 205.000000)">
                <path d="M7.22593927,4.66666667 C7.22593927,2.26290909 9.74338511,0.238424242 13.2475553,-2.66453526e-15 L19.2691714,-2.66453526e-15 L13.8497169,-2.66453526e-15 L39.742666,-2.66453526e-15 C40.1006031,-2.66453526e-15 40.2230734,0.00254545455 40.3448276,-2.66453526e-15 C37.0225153,0.140848485 34.7081074,2.20521212 34.9253731,4.66666667 L34.9253731,23.8327429 C34.9253731,27.2155024 32.0077946,29.1997344 28.9037571,29.3333333 C25.0256811,29.2071454 22.3949488,27.2578427 22.2799794,24.744186 L16.860525,24.744186 L7.22593927,24.744186 L7.22593927,4.66666667 Z" id="Combined-Shape" fill="#FFFFFF" transform="translate(23.785383, 14.666667) scale(-1, -1) rotate(180.000000) translate(-23.785383, -14.666667) "></path>
                <path d="M21.6778178,25.3333333 L15.6562017,25.3333333 L6.62377766,25.3333333 L0.602161606,25.3333333 C0.602161606,27.7370909 3.13721196,29.7615758 6.62377766,30 L6.62377766,30 L7.22593927,30 L27.0972723,30 C27.4535015,30 27.5768283,29.9974545 27.6994339,30 C24.3538886,29.8591515 21.6960884,27.7947879 21.6778178,25.3333333" id="Fill-5" fill="#FFFFFF" transform="translate(14.150798, 27.666667) scale(-1, -1) rotate(180.000000) translate(-14.150798, -27.666667) "></path>
                <path d="M23.8256168,11.4332539 C23.8440947,11.3391491 23.8730344,11.2455722 23.9147455,11.1508074 C23.994907,10.9691969 24.1026495,10.8139833 24.244087,10.6765876 C24.386068,10.538796 24.5544072,10.4299089 24.7588869,10.3441191 C24.9510028,10.2636086 25.1620042,10.2244093 25.4037115,10.2244093 C25.6452829,10.2244093 25.8564202,10.2636086 26.0492154,10.344383 C26.2526082,10.4299089 26.421355,10.538928 26.5640153,10.6772476 C26.7047735,10.8142473 26.812516,10.9693289 26.8924057,11.1505434 C26.9686271,11.323179 27.0055829,11.491591 27.0055829,11.6660743 C27.0055829,11.8524362 26.9701216,12.0213762 26.8970252,12.182661 C26.8164561,12.3612358 26.7074908,12.5155255 26.5634718,12.655297 C26.4212191,12.7936166 26.25288,12.9023717 26.0488078,12.9880295 C25.8566919,13.0686719 25.6458264,13.1078713 25.4037115,13.1078713 C25.1614607,13.1078713 24.9507311,13.0688039 24.7595663,12.9884255 C24.5542713,12.9023717 24.3862039,12.7937486 24.2446305,12.6559569 C24.0999322,12.5156575 23.9911028,12.3614998 23.9106695,12.1834529 C23.8703171,12.0943635 23.8426002,12.0028983 23.8246658,11.9078696 C23.8265679,11.8273592 23.8303722,11.7473766 23.8303722,11.6660743 C23.8303722,11.5875436 23.8276548,11.5105967 23.8256168,11.4332539 L23.8256168,11.4332539 Z M18.5372673,11.9080016 C18.5194688,12.0027664 18.4917519,12.0940995 18.4516712,12.182661 C18.3709662,12.3612358 18.2620009,12.5155255 18.1179819,12.655297 C17.9757292,12.7936166 17.8073901,12.9023717 17.6033179,12.9880295 C17.411202,13.0686719 17.2003365,13.1078713 16.9582216,13.1078713 C16.7159708,13.1078713 16.5052412,13.0688039 16.3140764,12.9884255 C16.1087814,12.9023717 15.940714,12.7937486 15.7991406,12.6559569 C15.6544423,12.5156575 15.5456129,12.3614998 15.4651796,12.1834529 C15.3919473,12.0213762 15.3563502,11.8523042 15.3563502,11.6660743 C15.3563502,11.491723 15.393306,11.323179 15.4693915,11.1508074 C15.549553,10.9691969 15.6572955,10.8139833 15.798733,10.6765876 C15.9405781,10.538796 16.1090531,10.4299089 16.3135329,10.3441191 C16.5055129,10.2636086 16.7165143,10.2244093 16.9582216,10.2244093 C17.199793,10.2244093 17.4109303,10.2636086 17.6037255,10.344383 C17.8071183,10.4299089 17.9758651,10.538928 18.1185254,10.6772476 C18.2592836,10.8142473 18.3671619,10.9693289 18.4470517,11.1505434 C18.4893063,11.2463641 18.518246,11.3409968 18.5367239,11.4360256 C18.5344141,11.5125765 18.5315609,11.5888634 18.5315609,11.6660743 C18.5315609,11.7473766 18.5348217,11.8274911 18.5372673,11.9080016 L18.5372673,11.9080016 Z M31.0530595,11.6660743 C31.0530595,12.8093227 30.8449113,13.8651975 30.4292943,14.8330387 C30.0134055,15.8012759 29.4365144,16.7684572 28.6991645,17.8053262 L26.5805911,20.7431658 L23.0263115,20.7431658 L26.0863071,16.6619458 C25.6261257,16.7437761 25.1855092,16.8021132 24.7647292,16.8021132 C24.3245203,16.8021132 23.9059142,16.7660814 23.508911,16.6765961 C23.1809281,16.6025528 22.8737329,16.5062043 22.5848798,16.381875 C22.5846081,16.381743 22.5843363,16.3827989 22.5840646,16.3826669 C22.5837929,16.3831949 22.5835211,16.3843827 22.5831135,16.3849107 C22.3946661,16.3036083 22.2145065,16.2120112 22.0427706,16.1094593 C21.8664153,16.0041358 21.6984838,15.8885175 21.5397912,15.7606247 C21.5293294,15.7523097 21.5183242,15.7447866 21.5079983,15.7362076 C20.9508079,15.2788818 20.5194303,14.6997345 20.2133221,13.9983697 C19.9449849,13.3837186 19.7944443,12.7102025 19.7614286,11.9778213 C19.7568091,11.8751375 19.7543635,11.7712658 19.7543635,11.6660743 C19.7543635,11.5653702 19.7572167,11.466118 19.7618362,11.3676577 C19.7323531,11.1357612 19.670126,10.9072963 19.571079,10.6829229 C19.4981184,10.5176785 19.4099408,10.3629928 19.3077688,10.218206 C19.2119826,10.0822621 19.1039684,9.95489723 18.9826392,9.83677124 C18.9306022,9.78635322 18.8754402,9.73936679 18.819463,9.69330425 C18.6047932,9.51618126 18.3618631,9.36875475 18.0882271,9.25379638 C17.7428533,9.10900955 17.3662301,9.03655014 16.9582216,9.03655014 C16.5500773,9.03655014 16.1734541,9.10900955 15.828352,9.25379638 C15.4829782,9.39871519 15.1847502,9.59312814 14.9339398,9.83677124 C14.6827218,10.0808103 14.4866658,10.3627289 14.3455001,10.6829229 C14.2041984,11.0029849 14.1335476,11.330966 14.1335476,11.6660743 C14.1335476,12.0170207 14.2041984,12.3485653 14.3455001,12.6607083 C14.4866658,12.9733792 14.6827218,13.2517342 14.9339398,13.4953773 C15.1847502,13.7394164 15.4829782,13.9336974 15.828352,14.0784842 C16.1734541,14.223535 16.5500773,14.2957304 16.9582216,14.2957304 C17.3662301,14.2957304 17.7428533,14.223535 18.0882271,14.0784842 C18.353847,13.9670894 18.5910707,13.8254702 18.801121,13.6552104 C18.8800597,13.9323775 18.9740796,14.2022855 19.0875285,14.4621627 C19.4676843,15.3332594 20.0164509,16.0672243 20.718883,16.643732 C20.7888545,16.7011451 20.8612716,16.7556547 20.9340963,16.8096363 C20.9346398,16.8100322 20.9353191,16.8105602 20.9358626,16.8109561 C20.7258123,17.1488361 20.4994579,17.4596592 20.2536746,17.8053262 L18.135237,20.7431658 L14.5808216,20.7431658 L17.640953,16.6439959 C17.1806358,16.7259582 16.7400193,16.7836354 16.3192393,16.7836354 L16.3180165,16.7836354 C16.7385247,16.7836354 17.1799565,16.744172 17.6397302,16.6623417 C17.1795489,16.744304 16.7394758,16.8023771 16.3186958,16.8023771 C15.8784869,16.8023771 15.4602884,16.7662134 15.0631493,16.676728 C14.2863979,16.5013208 13.6192912,16.1893098 13.0623725,15.7319841 C12.5051822,15.2746583 12.0276098,14.6976228 11.7216374,13.9962579 C11.415665,13.2954211 11.2164841,12.5196171 11.2164841,11.6658103 L11.2164841,11.6655464 C11.2164841,10.9189109 11.3921601,10.2331202 11.6511225,9.60791038 C11.909949,8.9829645 12.3057295,8.44182868 12.792269,7.98450291 C13.2785369,7.52717715 13.8826013,7.1692356 14.5809575,6.90988636 C15.2791778,6.65080109 16.073456,6.52119246 16.9525152,6.52119246 C18.270017,6.52119246 19.3755665,6.77222669 20.2642722,7.2729753 C20.3116898,7.22532895 20.3135919,7.22532895 20.2663102,7.2729753 C20.4471491,7.37486721 20.6191567,7.48771383 20.782197,7.61032729 C20.8963253,7.69611711 21.0073286,7.78586647 21.1127613,7.88168711 C21.1566464,7.92181035 21.1984934,7.96325343 21.2404763,8.00469652 C22.0897806,8.84147728 22.5442556,9.95951668 22.6011838,11.3597386 C22.5880047,11.4612346 22.5790375,11.5632585 22.5790375,11.6660743 C22.5790375,11.7719257 22.5875971,11.8754015 22.6003686,11.9776893 C22.6301235,12.2146012 22.6922147,12.4426702 22.7908541,12.6607083 C22.8730536,12.8425828 22.9760408,13.0113907 23.0951961,13.1699039 C23.181064,13.2839384 23.2742687,13.3934854 23.3792939,13.4953773 C23.453749,13.5677048 23.5336387,13.6343569 23.6163817,13.6979733 C23.8125736,13.8488314 24.0309118,13.9767243 24.2738419,14.0784842 C24.6188081,14.223535 24.9954313,14.2957304 25.4037115,14.2957304 C25.8115841,14.2957304 26.1882073,14.223535 26.5335811,14.0784842 C26.8785473,13.9336974 27.1769111,13.7394164 27.4279933,13.4953773 C27.6789395,13.2517342 27.8752673,12.9733792 28.016433,12.6607083 C28.1577347,12.3485653 28.2283855,12.0170207 28.2283855,11.6660743 C28.2283855,11.330966 28.1577347,11.0029849 28.016433,10.6829229 C27.8752673,10.3627289 27.6789395,10.0808103 27.4279933,9.83677124 C27.1769111,9.59312814 26.8785473,9.39871519 26.5335811,9.25379638 C26.1882073,9.10900955 25.8115841,9.03655014 25.4037115,9.03655014 C24.9954313,9.03655014 24.6188081,9.10900955 24.2738419,9.25379638 C24.0128415,9.36334339 23.7790145,9.50126703 23.5719532,9.66717135 C23.3157081,8.75212388 22.8680265,7.95968986 22.2339354,7.29567661 C22.4844741,7.15603717 22.7517244,7.02378885 23.0379961,6.91754145 C23.7360805,6.65858816 24.5246523,6.5242281 25.4037115,6.5242281 C27.1672646,6.5242281 28.5745745,6.97046717 29.5703434,7.8674328 C29.5757781,7.87231622 29.5529524,7.87680369 29.5583871,7.88168711 C30.5542919,8.78841957 31.0530595,10.049266 31.0530595,11.6639625 L31.0530595,11.6660743 Z M30.3946482,7.01507788 C29.1679055,5.89901824 27.4888617,5.33333333 25.4037115,5.33333333 C24.3795464,5.33333333 23.4367656,5.49039471 22.6017273,5.80016197 C22.1130139,5.98177243 21.6632942,6.2079936 21.2536554,6.47394206 C20.1137316,5.71687985 18.6736778,5.33333333 16.9584933,5.33333333 C15.9343282,5.33333333 14.9915474,5.49039471 14.1563733,5.80016197 C13.3050309,6.11639646 12.5678168,6.56421935 11.9649751,7.13122411 C11.3571064,7.70245236 10.8853763,8.38665922 10.562964,9.16457496 C10.2465299,9.92863235 10.0862069,10.7701645 10.0862069,11.6660743 C10.0862069,12.6762825 10.2731598,13.6169349 10.6421745,14.4621627 C11.0221943,15.3332594 11.5710968,16.0672243 12.2733931,16.643732 C12.9766405,17.2211635 13.8222764,17.6245076 14.7865242,17.8422818 C14.9285052,17.874222 15.0730676,17.9016748 15.2198039,17.9243761 L13.5895363,20.0824521 L12.1892915,21.9310249 L14.5808216,21.9310249 L18.135237,21.9310249 L18.7758497,21.9310249 L19.1406525,21.4540335 L21.25909,18.498772 C21.5185959,18.1338352 21.7588087,17.7797212 21.9825816,17.4195359 C21.9832609,17.4199319 21.9838044,17.4225716 21.9844837,17.4228356 C21.9858424,17.4207238 21.9872011,17.4196679 21.9885597,17.4175562 C22.3771392,17.5933593 22.7915334,17.7381462 23.2320141,17.8376624 C23.3739951,17.8696026 23.5185575,17.899299 23.6651579,17.9221323 L22.0350262,20.0812643 L20.6347814,21.9310249 L23.0263115,21.9310249 L26.5805911,21.9310249 L27.2213396,21.9310249 L27.5860065,21.4540335 L29.7044441,18.498772 C30.4882605,17.3968346 31.1116181,16.3205023 31.5578052,15.2819175 C32.0342906,14.1720611 32.2758621,12.9570132 32.2758621,11.6617188 C32.2758621,9.71217802 31.6428579,8.1515951 30.3946482,7.01507788 L30.3946482,7.01507788 Z" id="Fill-1-Copy-4" fill="#2D2F45"></path>
            </g>
        </g>
    </g>
</svg>