<?xml version="1.0" encoding="UTF-8"?>
<svg width="20px" height="20px" viewBox="0 0 20 20" version="1.1" xmlns="http://www.w3.org/2000/svg" xmlns:xlink="http://www.w3.org/1999/xlink">
    <!-- Generator: Sketch 49.2 (51160) - http://www.bohemiancoding.com/sketch -->
    <title>Group 17</title>
    <desc>Created with Sketch.</desc>
    <defs>
        <polygon id="path-1" points="9.85515972 0.0119444444 19.7102778 0.0119444444 19.7102778 19.7222222 9.85515972 19.7222222 4.16666667e-05 19.7222222 4.16666667e-05 0.0119444444"></polygon>
    </defs>
    <g id="HD-Desktop-1920---1440-px" stroke="none" stroke-width="1" fill="none" fill-rule="evenodd">
        <g id="HD-Desktop_EDU-Promo_Static" transform="translate(-1239.000000, -260.000000)">
            <g id="Group-26" transform="translate(1239.000000, 260.000000)">
                <g id="Page-1">
                    <g id="Group-17" transform="translate(0.000000, 0.126944)">
                        <mask id="mask-2" fill="white">
                            <use xlink:href="#path-1"></use>
                        </mask>
                        <g id="Clip-16"></g>
                        <path d="M17.1275417,19.7222222 L2.58268056,19.7222222 C1.15851389,19.7222222 4.16666667e-05,18.5636111 4.16666667e-05,17.1394444 L4.16666667e-05,2.59444444 C4.16666667e-05,1.17041667 1.15851389,0.0119444444 2.58268056,0.0119444444 L17.1275417,0.0119444444 C18.5517083,0.0119444444 19.7103194,1.17041667 19.7103194,2.59444444 L19.7103194,7.8125 C19.7103194,8.00430556 19.5549028,8.15972222 19.3630972,8.15972222 C19.1712917,8.15972222 19.015875,8.00430556 19.015875,7.8125 L19.015875,2.59444444 C19.015875,1.55333333 18.1687917,0.706388889 17.1275417,0.706388889 L2.58268056,0.706388889 C1.54143056,0.706388889 0.694486111,1.55333333 0.694486111,2.59444444 L0.694486111,17.1394444 C0.694486111,18.1806944 1.54143056,19.0277778 2.58268056,19.0277778 L17.1275417,19.0277778 C18.1687917,19.0277778 19.015875,18.1806944 19.015875,17.1394444 L19.015875,9.86708333 C19.015875,9.67527778 19.1712917,9.51986111 19.3630972,9.51986111 C19.5549028,9.51986111 19.7103194,9.67527778 19.7103194,9.86708333 L19.7103194,17.1394444 C19.7103194,18.5636111 18.5517083,19.7222222 17.1275417,19.7222222" id="Fill-15" fill="#2D2F45" mask="url(#mask-2)"></path>
                    </g>
                </g>
            </g>
        </g>
    </g>
</svg>