<?xml version="1.0" encoding="UTF-8"?>
<svg width="20px" height="20px" viewBox="0 0 20 20" version="1.1" xmlns="http://www.w3.org/2000/svg" xmlns:xlink="http://www.w3.org/1999/xlink">
    <!-- Generator: Sketch 49.2 (51160) - http://www.bohemiancoding.com/sketch -->
    <title>Group 28</title>
    <desc>Created with Sketch.</desc>
    <defs>
        <polygon id="path-1" points="9.85515972 0.0119444444 19.7102778 0.0119444444 19.7102778 19.7222222 9.85515972 19.7222222 4.16666667e-05 19.7222222 4.16666667e-05 0.0119444444"></polygon>
    </defs>
    <g id="HD-Desktop-1920---1440-px" stroke="none" stroke-width="1" fill="none" fill-rule="evenodd">
        <g id="HD-Desktop_EDU-Promo_Static" transform="translate(-1239.000000, -260.000000)">
            <g id="Group-26" transform="translate(1239.000000, 260.000000)">
                <g id="Group-28">
                    <g id="Group-11">
                        <g id="Page-1">
                            <path d="M5.30869444,7.87679167 C5.11688889,7.87679167 4.96147222,7.721375 4.96147222,7.52956944 L4.96147222,2.81679167 C4.96147222,2.62498611 5.11688889,2.46956944 5.30869444,2.46956944 C5.5005,2.46956944 5.65591667,2.62498611 5.65591667,2.81679167 L5.65591667,7.52956944 C5.65591667,7.721375 5.5005,7.87679167 5.30869444,7.87679167" id="Fill-1" fill="#2D2F45"></path>
                            <path d="M7.66493056,5.52055556 L2.95215278,5.52055556 C2.76034722,5.52055556 2.60493056,5.36513889 2.60493056,5.17333333 C2.60493056,4.98152778 2.76034722,4.82611111 2.95215278,4.82611111 L7.66493056,4.82611111 C7.85673611,4.82611111 8.01215278,4.98152778 8.01215278,5.17333333 C8.01215278,5.36513889 7.85673611,5.52055556 7.66493056,5.52055556" id="Fill-3" fill="#2D2F45"></path>
                            <path d="M17.1549444,5.52055556 L12.4421667,5.52055556 C12.2503611,5.52055556 12.0949444,5.36513889 12.0949444,5.17333333 C12.0949444,4.98152778 12.2503611,4.82611111 12.4421667,4.82611111 L17.1549444,4.82611111 C17.34675,4.82611111 17.5021667,4.98152778 17.5021667,5.17333333 C17.5021667,5.36513889 17.34675,5.52055556 17.1549444,5.52055556" id="Fill-5" fill="#2D2F45"></path>
                            <path d="M17.1549444,14.1319444 L12.4421667,14.1319444 C12.2503611,14.1319444 12.0949444,13.9765278 12.0949444,13.7847222 C12.0949444,13.5929167 12.2503611,13.4375 12.4421667,13.4375 L17.1549444,13.4375 C17.34675,13.4375 17.5021667,13.5929167 17.5021667,13.7847222 C17.5021667,13.9765278 17.34675,14.1319444 17.1549444,14.1319444" id="Fill-7" fill="#2D2F45"></path>
                            <path d="M17.1549444,16.2613889 L12.4421667,16.2613889 C12.2503611,16.2613889 12.0949444,16.1059722 12.0949444,15.9141667 C12.0949444,15.7223611 12.2503611,15.5669444 12.4421667,15.5669444 L17.1549444,15.5669444 C17.34675,15.5669444 17.5021667,15.7223611 17.5021667,15.9141667 C17.5021667,16.1059722 17.34675,16.2613889 17.1549444,16.2613889" id="Fill-9" fill="#2D2F45"></path>
                            <path d="M6.97509722,16.7700139 C6.88620833,16.7700139 6.79745833,16.736125 6.72954167,16.6683472 L3.39690278,13.3357083 C3.26134722,13.2002917 3.26134722,12.9804306 3.39690278,12.8447361 C3.53259722,12.7091806 3.75231944,12.7091806 3.887875,12.8447361 L7.22065278,16.1772361 C7.35620833,16.3127917 7.35620833,16.5326528 7.22065278,16.6683472 C7.15273611,16.736125 7.06398611,16.7700139 6.97509722,16.7700139" id="Fill-11" fill="#2D2F45"></path>
                            <path d="M3.64243056,16.7700139 C3.55354167,16.7700139 3.46479167,16.736125 3.396875,16.6683472 C3.26131944,16.5326528 3.26131944,16.3127917 3.396875,16.1772361 L6.72965278,12.8447361 C6.86520833,12.7091806 7.08493056,12.7091806 7.220625,12.8447361 C7.35618056,12.9804306 7.35618056,13.2002917 7.220625,13.3357083 L3.88798611,16.6683472 C3.82006944,16.736125 3.73131944,16.7700139 3.64243056,16.7700139" id="Fill-13" fill="#2D2F45"></path>
                            <g id="Group-17" transform="translate(0.000000, 0.126944)">
                                <mask id="mask-2" fill="white">
                                    <use xlink:href="#path-1"></use>
                                </mask>
                                <g id="Clip-16"></g>
                                <path d="M17.1275417,19.7222222 L2.58268056,19.7222222 C1.15851389,19.7222222 4.16666667e-05,18.5636111 4.16666667e-05,17.1394444 L4.16666667e-05,2.59444444 C4.16666667e-05,1.17041667 1.15851389,0.0119444444 2.58268056,0.0119444444 L17.1275417,0.0119444444 C18.5517083,0.0119444444 19.7103194,1.17041667 19.7103194,2.59444444 L19.7103194,7.8125 C19.7103194,8.00430556 19.5549028,8.15972222 19.3630972,8.15972222 C19.1712917,8.15972222 19.015875,8.00430556 19.015875,7.8125 L19.015875,2.59444444 C19.015875,1.55333333 18.1687917,0.706388889 17.1275417,0.706388889 L2.58268056,0.706388889 C1.54143056,0.706388889 0.694486111,1.55333333 0.694486111,2.59444444 L0.694486111,17.1394444 C0.694486111,18.1806944 1.54143056,19.0277778 2.58268056,19.0277778 L17.1275417,19.0277778 C18.1687917,19.0277778 19.015875,18.1806944 19.015875,17.1394444 L19.015875,9.86708333 C19.015875,9.67527778 19.1712917,9.51986111 19.3630972,9.51986111 C19.5549028,9.51986111 19.7103194,9.67527778 19.7103194,9.86708333 L19.7103194,17.1394444 C19.7103194,18.5636111 18.5517083,19.7222222 17.1275417,19.7222222" id="Fill-15" fill="#2D2F45" mask="url(#mask-2)"></path>
                            </g>
                            <path d="M9.85513889,19.8491667 C9.66333333,19.8491667 9.50791667,19.69375 9.50791667,19.5019444 L9.50791667,0.486111111 C9.50791667,0.294305556 9.66333333,0.138888889 9.85513889,0.138888889 C10.0469444,0.138888889 10.2023611,0.294305556 10.2023611,0.486111111 L10.2023611,19.5019444 C10.2023611,19.69375 10.0469444,19.8491667 9.85513889,19.8491667" id="Fill-18" fill="#2D2F45"></path>
                            <path d="M19.3630556,10.34125 L0.347222222,10.34125 C0.155416667,10.34125 0,10.1858333 0,9.99402778 C0,9.80222222 0.155416667,9.64680556 0.347222222,9.64680556 L19.3630556,9.64680556 C19.5548611,9.64680556 19.7102778,9.80222222 19.7102778,9.99402778 C19.7102778,10.1858333 19.5548611,10.34125 19.3630556,10.34125" id="Fill-20" fill="#2D2F45"></path>
                        </g>
                    </g>
                </g>
            </g>
        </g>
    </g>
</svg>