<?xml version="1.0" encoding="UTF-8"?>
<svg width="20px" height="20px" viewBox="0 0 20 20" version="1.1" xmlns="http://www.w3.org/2000/svg" xmlns:xlink="http://www.w3.org/1999/xlink">
    <!-- Generator: Sketch 49.2 (51160) - http://www.bohemiancoding.com/sketch -->
    <title>Page 1</title>
    <desc>Created with Sketch.</desc>
    <defs>
        <polygon id="path-1" points="0 19.8901099 0 0.0563736264 19.833956 0.0563736264 19.833956 19.8901099"></polygon>
    </defs>
    <g id="HD-Desktop-1920---1440-px" stroke="none" stroke-width="1" fill="none" fill-rule="evenodd">
        <g id="HD-Desktop_EDU-Promo_Static" transform="translate(-1486.000000, -260.000000)">
            <g id="Group-27" transform="translate(1486.000000, 260.000000)">
                <g id="Page-1">
                    <g id="Group-3" transform="translate(0.000000, 0.053516)">
                        <mask id="mask-2" fill="white">
                            <use xlink:href="#path-1"></use>
                        </mask>
                        <g id="Clip-2"></g>
                        <path d="M11.410978,19.8901099 C11.349,19.8901099 11.2883407,19.8691209 11.2393297,19.8298901 L9.03867033,18.0686813 L6.51130769,19.3169231 C6.44218681,19.3510989 6.36196703,19.3547253 6.29031868,19.3268132 C6.21856044,19.2989011 6.16163736,19.2421978 6.13372527,19.1705495 L5.10856044,16.5448352 L2.2957033,16.3623077 C2.21889011,16.3573626 2.14768132,16.3203297 2.09943956,16.2603297 C2.0511978,16.2003297 2.03031868,16.1228571 2.04196703,16.0467033 L2.46691209,13.2601099 L0.122186813,11.6958242 C0.0582307692,11.652967 0.015043956,11.5853846 0.00317582418,11.5092308 C-0.00847252747,11.4331868 0.0121868132,11.3556044 0.0602087912,11.2954945 L1.82163736,9.09483516 L0.573285714,6.56769231 C0.53921978,6.49868132 0.535703297,6.41835165 0.563505495,6.3467033 C0.591417582,6.27494505 0.648010989,6.21802198 0.719769231,6.19 L3.34548352,5.16483516 L3.52801099,2.35186813 C3.53306593,2.27505495 3.56998901,2.20395604 3.62998901,2.1556044 C3.68998901,2.10747253 3.76757143,2.08692308 3.84361538,2.09813187 L6.6300989,2.52318681 L8.1946044,0.178461538 C8.23735165,0.114505495 8.30493407,0.0712087912 8.38108791,0.0594505495 C8.45713187,0.048021978 8.5346044,0.0683516484 8.59482418,0.116593407 L10.7954835,1.87791209 L13.3227363,0.62956044 C13.3916374,0.595494505 13.4718571,0.591978022 13.5437253,0.61978022 C13.6154835,0.647692308 13.6722967,0.704285714 13.7003187,0.776043956 L14.4714176,2.75098901 C14.5266923,2.89230769 14.4568022,3.05164835 14.3154835,3.10681319 C14.1743846,3.16164835 14.0148242,3.0921978 13.9596593,2.95087912 L13.2974615,1.25494505 L10.881967,2.44791209 C10.7861429,2.49538462 10.6718571,2.48274725 10.5886703,2.41615385 L8.48537363,0.732637363 L6.9900989,2.97362637 C6.93075824,3.06230769 6.82559341,3.10824176 6.7200989,3.09274725 L4.05691209,2.68648352 L3.88240659,5.37494505 C3.87548352,5.48142857 3.80757143,5.57428571 3.70812088,5.61307692 L1.19867033,6.59285714 L2.39174725,9.00824176 C2.439,9.10395604 2.42658242,9.21824176 2.35987912,9.30164835 L0.676362637,11.4049451 L2.91735165,12.9001099 C3.00614286,12.9593407 3.05251648,13.0646154 3.03647253,13.1701099 L2.63020879,15.8334066 L5.31867033,16.0078022 C5.42515385,16.0147253 5.51801099,16.0827473 5.5568022,16.1820879 L6.53658242,18.6916484 L8.95218681,17.4985714 C9.0479011,17.4513187 9.16218681,17.4638462 9.24537363,17.5303297 L11.3487802,19.2137363 L12.8440549,16.9727473 C12.9031758,16.8840659 13.0084505,16.838022 13.1139451,16.8536264 L15.7771319,17.26 L15.9517473,14.5716484 C15.9586703,14.4651648 16.0265824,14.3723077 16.1259231,14.3335165 L18.6354835,13.3537363 L17.4422967,10.9381319 C17.3951538,10.8424176 17.4074615,10.7281319 17.4741648,10.6447253 L19.1575714,8.54164835 L16.9166923,7.04615385 C16.8279011,6.98703297 16.7815275,6.88175824 16.7975714,6.77626374 L17.2038352,4.11318681 L15.4243846,3.99758242 C15.2730659,3.98769231 15.1582308,3.85703297 15.1681209,3.7056044 C15.1779011,3.55417582 15.3087802,3.44087912 15.4600989,3.44923077 L17.5384505,3.58417582 C17.6152637,3.58923077 17.6864725,3.62626374 17.7347143,3.68626374 C17.782956,3.74626374 17.8038352,3.82373626 17.7921868,3.89978022 L17.3671319,6.68626374 L19.7117473,8.25087912 C19.7758132,8.29362637 19.819,8.36120879 19.8307582,8.43725275 C19.8425165,8.51340659 19.8218571,8.59098901 19.7737253,8.6510989 L18.0124066,10.8515385 L19.2607582,13.3789011 C19.2948242,13.448022 19.2983407,13.5281319 19.2705385,13.5998901 C19.2427363,13.6716484 19.186033,13.7285714 19.1143846,13.7565934 L16.4886703,14.7817582 L16.306033,17.5946154 C16.3010879,17.6715385 16.2641648,17.7426374 16.2041648,17.7908791 C16.1440549,17.8392308 16.0666923,17.8596703 15.9905385,17.8484615 L13.2039451,17.4232967 L11.6395495,19.7679121 C11.5968022,19.831978 11.5291099,19.8750549 11.4530659,19.8869231 C11.439,19.889011 11.4249341,19.8901099 11.410978,19.8901099" id="Fill-1" fill="#2D2F45" mask="url(#mask-2)"></path>
                    </g>
                    <path d="M6.64578022,15.0035055 C6.5916044,15.0035055 6.53687912,14.9874615 6.48907692,14.9542747 C6.36457143,14.8676813 6.3338022,14.6964725 6.42050549,14.5718571 L12.9627033,5.1679011 C13.0492967,5.04328571 13.2206154,5.01273626 13.3451209,5.09932967 C13.4696264,5.18592308 13.5003956,5.35713187 13.4136923,5.48174725 L6.87149451,14.8857033 C6.81808791,14.9624066 6.7327033,15.0035055 6.64578022,15.0035055" id="Fill-4" fill="#2D2F45"></path>
                    <path d="M7.48154945,5.9336044 C7.20517582,5.9336044 6.94253846,6.04931868 6.72187912,6.26821978 C6.1577033,6.82821978 6.07154945,7.85151648 6.5299011,8.54953846 C6.76803297,8.9123956 7.11572527,9.12063736 7.48374725,9.12063736 C7.76012088,9.12063736 8.02286813,9.00481319 8.24352747,8.7858022 C8.80759341,8.22602198 8.89374725,7.20261538 8.43550549,6.50448352 C8.19715385,6.14173626 7.84946154,5.9336044 7.48154945,5.9336044 M7.48374725,9.67008791 L7.48363736,9.67008791 C6.92715385,9.67008791 6.4120989,9.37151648 6.07056044,8.85107692 C5.47638462,7.94613187 5.59495604,6.61261538 6.33484615,5.87821978 C6.65594505,5.55964835 7.06308791,5.38415385 7.48154945,5.38415385 C8.03792308,5.38415385 8.55297802,5.68261538 8.89473626,6.20294505 C9.48891209,7.10810989 9.37034066,8.44162637 8.63067033,9.1758022 C8.30946154,9.49448352 7.9020989,9.67008791 7.48374725,9.67008791" id="Fill-6" fill="#2D2F45"></path>
                    <path d="M12.3503516,10.9327363 C12.073978,10.9327363 11.8112308,11.0485604 11.5903516,11.2675714 C11.0262857,11.8272418 10.9401319,12.8506484 11.3984835,13.5488901 C11.6366154,13.9115275 11.9841978,14.1196593 12.3521099,14.1196593 L12.3522198,14.1196593 C12.6285934,14.1196593 12.8912308,14.0039451 13.112,13.7849341 C13.6762857,13.225044 13.7624396,12.2017473 13.3040879,11.5036154 C13.0658462,11.1408681 12.7182637,10.9327363 12.3503516,10.9327363 M12.3522198,14.6691099 L12.3521099,14.6691099 C11.7957363,14.6691099 11.2807912,14.3706484 10.9391429,13.8504286 C10.344967,12.9451538 10.4636484,11.6115275 11.2034286,10.8775714 C11.5246374,10.5588901 11.9318901,10.3832857 12.3503516,10.3832857 C12.9066154,10.3832857 13.4216703,10.6817473 13.7634286,11.2020769 C14.3576044,12.1072418 14.239033,13.4407582 13.499033,14.1749341 C13.1778242,14.4936154 12.7705714,14.6691099 12.3522198,14.6691099" id="Fill-8" fill="#2D2F45"></path>
                </g>
            </g>
        </g>
    </g>
</svg>