<?xml version="1.0" encoding="UTF-8"?>
<svg width="20px" height="18px" viewBox="0 0 20 18" version="1.1" xmlns="http://www.w3.org/2000/svg" xmlns:xlink="http://www.w3.org/1999/xlink">
    <!-- Generator: Sketch 49.2 (51160) - http://www.bohemiancoding.com/sketch -->
    <title>Page 1</title>
    <desc>Created with Sketch.</desc>
    <defs>
        <polygon id="path-1" points="9.96057237 17.5526316 0 17.5526316 0 0 9.96057237 0 19.9211447 0 19.9211447 17.5526316"></polygon>
    </defs>
    <g id="HD-Desktop-1920---1440-px" stroke="none" stroke-width="1" fill="none" fill-rule="evenodd">
        <g id="HD-Desktop_EDU-Promo_Static" transform="translate(-595.000000, -261.000000)">
            <g id="Group-20" transform="translate(595.000000, 259.000000)">
                <g id="Page-1" transform="translate(0.000000, 2.000000)">
                    <mask id="mask-2" fill="white">
                        <use xlink:href="#path-1"></use>
                    </mask>
                    <g id="Clip-2"></g>
                    <path d="M0.658049699,14.4473684 L16.66195,14.4473684 L16.66195,0.657763158 L0.658049699,0.657763158 L0.658049699,14.4473684 Z M16.9909748,15.1052632 L0.32902485,15.1052632 C0.147271523,15.1052632 0,14.9580263 0,14.7763158 L0,0.328947368 C0,0.147236842 0.147271523,0 0.32902485,0 L16.9909748,0 C17.1727282,0 17.3199997,0.147236842 17.3199997,0.328947368 L17.3199997,14.7763158 C17.3199997,14.9580263 17.1727282,15.1052632 16.9909748,15.1052632 Z" id="Fill-1" fill="#2D2F45" mask="url(#mask-2)"></path>
                    <path d="M19.5921974,17.5526316 L2.38167105,17.5526316 C2.19996053,17.5526316 2.05272368,17.4053947 2.05272368,17.2236842 L2.05272368,16.0788158 C2.05272368,15.8971053 2.19996053,15.7498684 2.38167105,15.7498684 C2.56338158,15.7498684 2.71061842,15.8971053 2.71061842,16.0788158 L2.71061842,16.8947368 L19.26325,16.8947368 L19.26325,2.86184211 L18.1711447,2.86184211 C17.9894342,2.86184211 17.8421974,2.71447368 17.8421974,2.53289474 C17.8421974,2.35118421 17.9894342,2.20394737 18.1711447,2.20394737 L19.5921974,2.20394737 C19.7739079,2.20394737 19.9211447,2.35118421 19.9211447,2.53289474 L19.9211447,17.2236842 C19.9211447,17.4053947 19.7739079,17.5526316 19.5921974,17.5526316" id="Fill-3" fill="#2D2F45" mask="url(#mask-2)"></path>
                    <path d="M10.9869342,12.9232105 C10.9064079,12.9232105 10.82575,12.8938684 10.7623289,12.8345263 L6.31153947,8.67492105 L0.507460526,12.4232105 C0.354565789,12.5216316 0.151144737,12.4776842 0.0525921053,12.3253158 C-0.0459605263,12.1726842 -0.00214473684,11.969 0.150486842,11.8704474 L6.17022368,7.98294737 C6.29693421,7.90136842 6.46311842,7.91597368 6.57338158,8.01913158 L11.2116711,12.354 C11.3443026,12.4779474 11.3514079,12.6861053 11.2273289,12.8188684 C11.1625921,12.8880789 11.0748289,12.9232105 10.9869342,12.9232105" id="Fill-4" fill="#2D2F45" mask="url(#mask-2)"></path>
                    <path d="M9.65926316,11.4324079 C9.54676316,11.4324079 9.43728947,11.3747763 9.37584211,11.2709605 C9.28334211,11.1146447 9.33505263,10.9129342 9.4915,10.8204342 L13.2865,8.57503947 C13.3929474,8.51214474 13.5258421,8.51398684 13.6304474,8.58043421 L17.1633421,10.8258289 C17.3167632,10.9233289 17.3620263,11.1266184 17.2645263,11.2799079 C17.1671579,11.4333289 16.9637368,11.4783289 16.8105789,11.3810921 L13.4478158,9.24398684 L9.8265,11.3864868 C9.77386842,11.4176711 9.71623684,11.4324079 9.65926316,11.4324079" id="Fill-5" fill="#2D2F45" mask="url(#mask-2)"></path>
                    <path d="M4.23690789,3.18431579 C3.37348684,3.18431579 2.67111842,3.88681579 2.67111842,4.75010526 C2.67111842,5.61339474 3.37348684,6.31576316 4.23690789,6.31576316 C5.10032895,6.31576316 5.80269737,5.61339474 5.80269737,4.75010526 C5.80269737,3.88681579 5.10032895,3.18431579 4.23690789,3.18431579 M4.23690789,6.97365789 C3.01072368,6.97365789 2.01322368,5.97615789 2.01322368,4.75010526 C2.01322368,3.52392105 3.01072368,2.52642105 4.23690789,2.52642105 C5.46309211,2.52642105 6.46059211,3.52392105 6.46059211,4.75010526 C6.46059211,5.97615789 5.46309211,6.97365789 4.23690789,6.97365789" id="Fill-6" fill="#2D2F45" mask="url(#mask-2)"></path>
                </g>
            </g>
        </g>
    </g>
</svg>