<?xml version="1.0" encoding="UTF-8"?>
<svg width="20px" height="18px" viewBox="0 0 20 18" version="1.1" xmlns="http://www.w3.org/2000/svg" xmlns:xlink="http://www.w3.org/1999/xlink">
    <!-- Generator: Sketch 49.2 (51160) - http://www.bohemiancoding.com/sketch -->
    <title>Page 1</title>
    <desc>Created with Sketch.</desc>
    <defs>
        <polygon id="path-1" points="7.97838509 0.0952298137 7.97838509 5.292 0.0666636165 5.292 0.0666636165 0.0952298137 7.97838509 0.0952298137"></polygon>
        <polygon id="path-3" points="3.96683312e-16 0.741341615 3.96683312e-16 0.120223602 19.903441 0.120223602 19.903441 0.741341615 0 0.741341615"></polygon>
    </defs>
    <g id="HD-Desktop-1920---1440-px" stroke="none" stroke-width="1" fill="none" fill-rule="evenodd">
        <g id="HD-Desktop_EDU-Promo_Static" transform="translate(-1027.000000, -261.000000)">
            <g id="Group-24" transform="translate(1027.000000, 260.000000)">
                <g id="Page-1" transform="translate(0.000000, 1.000000)">
                    <path d="M9.99879503,17.8215031 C9.98115528,17.8215031 9.9633913,17.8200124 9.94537888,17.8169068 C9.77643478,17.7877143 9.66314286,17.6269689 9.69245963,17.4579006 L10.2768075,14.0846087 L7.17308075,11.0693292 C7.0881118,10.9867205 7.0575528,10.863118 7.09419876,10.7505714 C7.1307205,10.6380248 7.2281118,10.5560373 7.34537888,10.5391429 L10.6517143,10.0646087 C10.8217764,10.0400124 10.9789193,10.1581491 11.0032671,10.3278385 C11.0276149,10.4976522 10.9097267,10.6550435 10.739913,10.6793913 L8.0591677,11.064236 L10.8272422,13.7534286 C10.9007826,13.8248571 10.934323,13.928087 10.9168075,14.029205 L10.3043851,17.5639876 C10.2782981,17.7150435 10.1469938,17.8215031 9.99879503,17.8215031" id="Fill-1" fill="#2D2F45"></path>
                    <path d="M11.530472,17.8216149 C11.4190435,17.8216149 11.3112174,17.7613665 11.2555652,17.6559006 C11.1755652,17.5042236 11.2335776,17.3163975 11.3852547,17.2362733 L13.6707205,16.0296894 C13.7612795,15.9818634 13.8698509,15.9818634 13.9605342,16.0296894 L16.2464969,17.2362733 C16.3981739,17.3163975 16.4561863,17.5042236 16.3761863,17.6559006 C16.2960621,17.8075776 16.1081118,17.8655901 15.956559,17.7855901 L13.8156894,16.655528 L11.6751925,17.7855901 C11.6289814,17.8099379 11.5794161,17.8214907 11.530472,17.8216149" id="Fill-3" fill="#2D2F45"></path>
                    <path d="M17.6327205,17.8215031 C17.4845217,17.8215031 17.3532174,17.7150435 17.3271304,17.5639876 L16.7144596,14.029205 C16.6969441,13.928087 16.7304845,13.8248571 16.8040248,13.7534286 L19.3764472,11.2541739 C19.4995528,11.1349193 19.6960745,11.1372795 19.8155776,11.2605093 C19.935205,11.3834907 19.9323478,11.5801366 19.8092422,11.6996398 L17.3544596,14.0846087 L17.9390559,17.4579006 C17.9683727,17.6269689 17.8550807,17.7877143 17.6861366,17.8169068 C17.6682484,17.8200124 17.6503602,17.8215031 17.6327205,17.8215031" id="Fill-5" fill="#2D2F45"></path>
                    <g id="Group-9" transform="translate(11.925466, 5.771925)">
                        <mask id="mask-2" fill="white">
                            <use xlink:href="#path-1"></use>
                        </mask>
                        <g id="Clip-8"></g>
                        <path d="M7.66813665,5.292 C7.65347826,5.292 7.63857143,5.29100621 7.6236646,5.28889441 L3.82701863,4.74392547 C3.72540373,4.7293913 3.63757764,4.66554037 3.59236025,4.57349068 L1.89012422,1.1098882 L0.655962733,3.62119255 C0.580310559,3.77510559 0.394099379,3.83845963 0.240310559,3.76293168 C0.0863975155,3.6872795 0.0229192547,3.50119255 0.0985714286,3.3472795 L1.61149068,0.268770186 C1.6636646,0.162559006 1.77173913,0.0952298137 1.89012422,0.0952298137 C2.00850932,0.0952298137 2.11670807,0.162559006 2.16888199,0.268770186 L4.07745342,4.15237267 L7.71186335,4.67398758 C7.88167702,4.69845963 7.99956522,4.85572671 7.97521739,5.02554037 C7.95298137,5.1804472 7.82018634,5.292 7.66813665,5.292" id="Fill-7" fill="#2D2F45" mask="url(#mask-2)"></path>
                    </g>
                    <path d="M1.46521739,0.621142857 C0.999751553,0.621142857 0.621118012,0.999900621 0.621118012,1.46524224 L0.621118012,16.3560497 C0.621118012,16.8216398 0.999751553,17.2003975 1.46521739,17.2003975 L18.4380124,17.2003975 C18.9034783,17.2003975 19.2823602,16.8216398 19.2823602,16.3560497 L19.2823602,1.46524224 C19.2823602,0.999900621 18.9034783,0.621142857 18.4380124,0.621142857 L1.46521739,0.621142857 Z M18.4380124,17.8215155 L1.46521739,17.8215155 C0.657267081,17.8215155 0,17.1641242 0,16.3560497 L0,1.46524224 C0,0.657291925 0.657267081,2.48447205e-05 1.46521739,2.48447205e-05 L18.4380124,2.48447205e-05 C19.246087,2.48447205e-05 19.9034783,0.657291925 19.9034783,1.46524224 L19.9034783,16.3560497 C19.9034783,17.1641242 19.246087,17.8215155 18.4380124,17.8215155 Z" id="Fill-10" fill="#2D2F45"></path>
                    <g id="Group-14" transform="translate(0.000000, 4.157019)">
                        <mask id="mask-4" fill="white">
                            <use xlink:href="#path-3"></use>
                        </mask>
                        <g id="Clip-13"></g>
                        <path d="M19.592882,0.741341615 L0.310521739,0.741341615 C0.138968944,0.741341615 -3.72670807e-05,0.602335404 -3.72670807e-05,0.430782609 C-3.72670807e-05,0.259229814 0.138968944,0.120223602 0.310521739,0.120223602 L19.592882,0.120223602 C19.7644348,0.120223602 19.903441,0.259229814 19.903441,0.430782609 C19.903441,0.602335404 19.7644348,0.741341615 19.592882,0.741341615" id="Fill-12" fill="#2D2F45" mask="url(#mask-4)"></path>
                    </g>
                    <path d="M2.58626087,2.45513043 C2.52924224,2.45513043 2.48278261,2.50159006 2.48278261,2.55873292 C2.48278261,2.61575155 2.52924224,2.66208696 2.58626087,2.66208696 C2.6432795,2.66208696 2.68973913,2.61575155 2.68973913,2.55873292 C2.68973913,2.50159006 2.6432795,2.45513043 2.58626087,2.45513043 M2.58626087,3.28320497 C2.18675776,3.28320497 1.8616646,2.95823602 1.8616646,2.55873292 C1.8616646,2.15910559 2.18675776,1.83401242 2.58626087,1.83401242 C2.98576398,1.83401242 3.31085714,2.15910559 3.31085714,2.55873292 C3.31085714,2.95823602 2.98576398,3.28320497 2.58626087,3.28320497" id="Fill-15" fill="#2D2F45"></path>
                    <path d="M4.73942857,2.45513043 C4.68240994,2.45513043 4.63595031,2.50159006 4.63595031,2.55873292 C4.63595031,2.61575155 4.68240994,2.66208696 4.73942857,2.66208696 C4.7964472,2.66208696 4.84290683,2.61575155 4.84290683,2.55873292 C4.84290683,2.50159006 4.7964472,2.45513043 4.73942857,2.45513043 M4.73942857,3.28320497 C4.33992547,3.28320497 4.0148323,2.95823602 4.0148323,2.55873292 C4.0148323,2.15910559 4.33992547,1.83401242 4.73942857,1.83401242 C5.13893168,1.83401242 5.46402484,2.15910559 5.46402484,2.55873292 C5.46402484,2.95823602 5.13893168,3.28320497 4.73942857,3.28320497" id="Fill-17" fill="#2D2F45"></path>
                    <path d="M6.97545342,2.45513043 C6.91843478,2.45513043 6.87197516,2.50159006 6.87197516,2.55873292 C6.87197516,2.61575155 6.91843478,2.66208696 6.97545342,2.66208696 C7.03247205,2.66208696 7.07893168,2.61575155 7.07893168,2.55873292 C7.07893168,2.50159006 7.03247205,2.45513043 6.97545342,2.45513043 M6.97545342,3.28320497 C6.57595031,3.28320497 6.25085714,2.95823602 6.25085714,2.55873292 C6.25085714,2.15910559 6.57595031,1.83401242 6.97545342,1.83401242 C7.37495652,1.83401242 7.70004969,2.15910559 7.70004969,2.55873292 C7.70004969,2.95823602 7.37495652,3.28320497 6.97545342,3.28320497" id="Fill-19" fill="#2D2F45"></path>
                </g>
            </g>
        </g>
    </g>
</svg>