<?xml version="1.0" encoding="UTF-8"?>
<svg width="18px" height="16px" viewBox="0 0 18 16" version="1.1" xmlns="http://www.w3.org/2000/svg" xmlns:xlink="http://www.w3.org/1999/xlink">
    <!-- Generator: Sketch 49.2 (51160) - http://www.bohemiancoding.com/sketch -->
    <title>Page 1</title>
    <desc>Created with Sketch.</desc>
    <defs>
        <polygon id="path-1" points="0 15.0632825 17.2676461 15.0632825 17.2676461 0 0 0"></polygon>
    </defs>
    <g id="HD-Desktop-1920---1440-px" stroke="none" stroke-width="1" fill="none" fill-rule="evenodd">
        <g id="HD-Desktop_EDU-Promo_Static" transform="translate(-350.000000, -262.000000)">
            <g id="Group-23" transform="translate(350.000000, 259.000000)">
                <g id="Page-1" transform="translate(0.000000, 3.000000)">
                    <mask id="mask-2" fill="white">
                        <use xlink:href="#path-1"></use>
                    </mask>
                    <g id="Clip-2"></g>
                    <path d="M0.656060595,14.4072219 L16.6115855,14.4072219 L16.6115855,0.656060595 L0.656060595,0.656060595 L0.656060595,14.4072219 Z M16.9396158,15.0632825 L0.328030297,15.0632825 C0.146826361,15.0632825 0,14.9164561 0,14.7352522 L0,0.328030297 C0,0.146826361 0.146826361,0 0.328030297,0 L16.9396158,0 C17.1208197,0 17.2676461,0.146826361 17.2676461,0.328030297 L17.2676461,14.7352522 C17.2676461,14.9164561 17.1208197,15.0632825 16.9396158,15.0632825 Z" id="Fill-1" fill="#2D2F45" mask="url(#mask-2)"></path>
                    <path d="M10.9563038,12.8872607 C10.876002,12.8872607 10.7955689,12.8580004 10.7323247,12.7988237 L6.29394356,8.650815 L0.506045779,12.3886546 C0.353577297,12.4868013 0.150723361,12.4429764 0.0524454839,12.2910328 C-0.0458323931,12.1388268 -0.00213875754,11.9357104 0.1500673,11.8374325 L6.15302174,7.96077047 C6.27937901,7.87941895 6.44509992,7.8939835 6.55505567,7.9968538 L11.1804141,12.3196371 C11.3126759,12.4432389 11.3197613,12.6508164 11.1960283,12.7832095 C11.131472,12.852227 11.0439535,12.8872607 10.9563038,12.8872607" id="Fill-3" fill="#2D2F45" mask="url(#mask-2)"></path>
                    <path d="M9.63233413,11.4006143 C9.52014777,11.4006143 9.41097929,11.3431433 9.34970323,11.239617 C9.25746111,11.083737 9.30902747,10.8825888 9.46503868,10.7903467 L13.2494586,8.55121188 C13.3556092,8.48849249 13.4881335,8.49032946 13.5924471,8.55659158 L17.1154925,10.7957264 C17.2684858,10.8929546 17.3136228,11.0956773 17.2163946,11.2485394 C17.1192976,11.4015327 16.9164437,11.4464073 16.7637128,11.3494415 L13.4103247,9.21829429 L9.79910474,11.3548212 C9.74661989,11.3859185 9.68914898,11.4006143 9.63233413,11.4006143" id="Fill-4" fill="#2D2F45" mask="url(#mask-2)"></path>
                    <path d="M4.22509583,3.17551697 C3.36408191,3.17551697 2.66367162,3.87605848 2.66367162,4.73694119 C2.66367162,5.5978239 3.36408191,6.29823419 4.22509583,6.29823419 C5.08610976,6.29823419 5.78652005,5.5978239 5.78652005,4.73694119 C5.78652005,3.87605848 5.08610976,3.17551697 4.22509583,3.17551697 M4.22509583,6.95429479 C3.0023301,6.95429479 2.00761103,5.95957571 2.00761103,4.73694119 C2.00761103,3.51417545 3.0023301,2.51945638 4.22509583,2.51945638 C5.44786157,2.51945638 6.44258064,3.51417545 6.44258064,4.73694119 C6.44258064,5.95957571 5.44786157,6.95429479 4.22509583,6.95429479" id="Fill-5" fill="#2D2F45" mask="url(#mask-2)"></path>
                </g>
            </g>
        </g>
    </g>
</svg>