<?xml version="1.0" encoding="UTF-8"?>
<svg width="20px" height="20px" viewBox="0 0 20 20" version="1.1" xmlns="http://www.w3.org/2000/svg" xmlns:xlink="http://www.w3.org/1999/xlink">
    <!-- Generator: Sketch 49.2 (51160) - http://www.bohemiancoding.com/sketch -->
    <title>wordpress-logo-button</title>
    <desc>Created with Sketch.</desc>
    <defs>
        <polygon id="path-1" points="0.015 20 20 20 20 0 0.015 0"></polygon>
    </defs>
    <g id="HD-Desktop-1920---1440-px" stroke="none" stroke-width="1" fill="none" fill-rule="evenodd">
        <g id="HD-Desktop_EDU-Promo_Static" transform="translate(-802.000000, -260.000000)">
            <g id="wordpress-logo-button" transform="translate(802.000000, 260.000000)">
                <mask id="mask-2" fill="white">
                    <use xlink:href="#path-1"></use>
                </mask>
                <g id="Clip-2"></g>
                <path d="M10,0 C4.48625,0 0,4.48625 0,10 C0,15.51375 4.48625,20 10,20 C15.51375,20 20,15.51375 20,10 C20,4.48625 15.51375,0 10,0 Z M10,0.456 C15.26075,0.456 19.538,4.73925 19.538,10 C19.538,15.26075 15.26075,19.538 10,19.538 C4.73925,19.538 0.462,15.26075 0.462,10 C0.462,4.73925 4.73925,0.456 10,0.456 Z M10,1.42475 C7.003,1.42475 4.36525,2.959 2.831,5.287 C3.03225,5.294 3.2265,5.29975 3.38775,5.29975 C4.28425,5.29975 5.669,5.1875 5.669,5.1875 C6.13075,5.16025 6.1865,5.83875 5.7245,5.8935 C5.7245,5.8935 5.26075,5.954 4.74325,5.9815 L7.86825,15.2685 L9.74325,9.63775 L8.40625,5.9815 C7.94325,5.954 7.50575,5.8935 7.50575,5.8935 C7.044,5.86625 7.0995,5.16025 7.5625,5.1875 C7.5625,5.1875 8.9755,5.29975 9.81825,5.29975 C10.71475,5.29975 12.1065,5.1875 12.1065,5.1875 C12.56825,5.16025 12.625,5.83875 12.162,5.8935 C12.162,5.8935 11.69725,5.954 11.18075,5.9815 L14.28125,15.20025 L15.13775,12.338 C15.50775,11.1505 15.793,10.30275 15.793,9.56825 C15.793,8.50775 15.414,7.7715 15.087,7.20025 C14.65225,6.49325 14.24325,5.8945 14.24325,5.1875 C14.24325,4.3995 14.83875,3.669 15.68075,3.669 C15.71875,3.669 15.75675,3.67275 15.793,3.67475 C14.2675,2.27625 12.2335,1.42475 10,1.42475 Z M17.5255,5.88075 C17.5615,6.15425 17.587,6.453 17.587,6.7685 C17.587,7.63875 17.421,8.61425 16.93175,9.838 L14.3125,17.412 C16.86225,15.92575 18.57525,13.165 18.57525,10 C18.57525,8.50875 18.19425,7.1025 17.5255,5.88075 Z M2.162,6.50575 C1.6865,7.57325 1.42475,8.75675 1.42475,10 C1.42475,13.3955 3.3945,16.328 6.25575,17.71875 L2.162,6.50575 Z M10.1505,10.75 L7.57525,18.2315 C8.34375,18.457 9.15825,18.57525 10,18.57525 C10.999,18.57525 11.958,18.40725 12.8495,18.09375 C12.82725,18.05675 12.80475,18.0175 12.788,17.9745 L10.1505,10.75 Z" id="Fill-1" fill="#2D2F45" mask="url(#mask-2)"></path>
            </g>
        </g>
    </g>
</svg>