<?xml version="1.0" encoding="UTF-8"?>
<svg width="15px" height="15px" viewBox="0 0 15 15" version="1.1" xmlns="http://www.w3.org/2000/svg" xmlns:xlink="http://www.w3.org/1999/xlink">
    <!-- Generator: Sketch 49.2 (51160) - http://www.bohemiancoding.com/sketch -->
    <title>Page 1</title>
    <desc>Created with Sketch.</desc>
    <defs></defs>
    <g id="HD-Desktop-1920---1440-px" stroke="none" stroke-width="1" fill="none" fill-rule="evenodd">
        <g id="HD-Desktop_EDU-Today" transform="translate(-601.000000, -812.000000)" fill="#FCB528">
            <g id="Page-1" transform="translate(601.000000, 812.000000)">
                <path d="M11.5098325,7.51615391 L7.08223797,7.51615391 C6.88054553,7.51615391 6.7171177,7.35439371 6.7171177,7.15475935 L6.7171177,2.47383248 C6.7171177,2.27434269 6.88054553,2.11243793 7.08223797,2.11243793 C7.28378436,2.11243793 7.44735825,2.27434269 7.44735825,2.47383248 L7.44735825,6.7933648 L11.5098325,6.7933648 C11.7115249,6.7933648 11.8749527,6.955125 11.8749527,7.15475935 C11.8749527,7.35439371 11.7115249,7.51615391 11.5098325,7.51615391" id="Fill-1"></path>
                <g id="Group-5" transform="translate(0.000000, 0.142577)">
                    <path d="M7.08217955,0.724769558 C3.57979983,0.724769558 0.730255155,3.5453818 0.730255155,7.01216752 C0.730255155,10.4789532 3.57979983,13.2992764 7.08217955,13.2992764 C10.5845593,13.2992764 13.434104,10.4789532 13.434104,7.01216752 C13.434104,3.5453818 10.5845593,0.724769558 7.08217955,0.724769558 M7.08217955,14.0220655 C3.17714519,14.0220655 1.4604811e-05,10.8774991 1.4604811e-05,7.01216752 C1.4604811e-05,3.14669133 3.17714519,0.00198044218 7.08217955,0.00198044218 C10.9872139,0.00198044218 14.1643445,3.14669133 14.1643445,7.01216752 C14.1643445,10.8774991 10.9872139,14.0220655 7.08217955,14.0220655" id="Fill-3"></path>
                </g>
            </g>
        </g>
    </g>
</svg>