<?xml version="1.0" encoding="UTF-8"?>
<svg width="24px" height="30px" viewBox="0 0 24 30" version="1.1" xmlns="http://www.w3.org/2000/svg" xmlns:xlink="http://www.w3.org/1999/xlink">
    <!-- Generator: Sketch 49.2 (51160) - http://www.bohemiancoding.com/sketch -->
    <title>Page 1</title>
    <desc>Created with Sketch.</desc>
    <defs>
        <polygon id="path-1" points="11.6408646 29.2258065 23.2817098 29.2258065 23.2817098 0.00870967742 11.6408646 0.00870967742 1.93223641e-05 0.00870967742 1.93223641e-05 29.2258065 11.6408646 29.2258065"></polygon>
    </defs>
    <g id="HD-Desktop-1920---1440-px" stroke="none" stroke-width="1" fill="none" fill-rule="evenodd">
        <g id="HD-Desktop_EDU-Today" transform="translate(-1120.000000, -522.000000)">
            <g id="Group-21" transform="translate(1020.000000, 522.000000)">
                <g id="Page-1" transform="translate(100.000000, 0.000000)">
                    <g id="Group-3" transform="translate(0.000000, 0.184839)">
                        <mask id="mask-2" fill="white">
                            <use xlink:href="#path-1"></use>
                        </mask>
                        <g id="Clip-2"></g>
                        <path d="M2.5915348,0.976451613 C1.69517033,0.976451613 0.96613753,1.70690323 0.96613753,2.60496774 L0.96613753,26.6299355 C0.96613753,27.5278065 1.69517033,28.2580645 2.5915348,28.2580645 L20.6900204,28.2580645 C21.5863849,28.2580645 22.3156109,27.5278065 22.3156109,26.6299355 L22.3156109,2.60496774 C22.3156109,1.70690323 21.5863849,0.976451613 20.6900204,0.976451613 L2.5915348,0.976451613 Z M20.6900204,29.2258065 L2.5915348,29.2258065 C1.16245275,29.2258065 1.93223641e-05,28.0612258 1.93223641e-05,26.6299355 L1.93223641e-05,2.60496774 C1.93223641e-05,1.17348387 1.16245275,0.00870967742 2.5915348,0.00870967742 L20.6900204,0.00870967742 C22.1191025,0.00870967742 23.2817291,1.17348387 23.2817291,2.60496774 L23.2817291,26.6299355 C23.2817291,28.0612258 22.1191025,29.2258065 20.6900204,29.2258065 Z" id="Fill-1" fill="#FEFEFE" mask="url(#mask-2)"></path>
                    </g>
                    <path d="M20.5000043,24.2629161 C20.2331624,24.2629161 20.0169452,24.0461419 20.0169452,23.7790452 L20.0169452,3.12704516 L3.26503513,3.12704516 L3.26503513,23.2951742 L18.8827224,23.2951742 C19.1495642,23.2951742 19.3657815,23.5115613 19.3657815,23.7790452 C19.3657815,24.0461419 19.1495642,24.2629161 18.8827224,24.2629161 L2.78197602,24.2629161 C2.51513417,24.2629161 2.29891692,24.0461419 2.29891692,23.7790452 L2.29891692,2.64317419 C2.29891692,2.37588387 2.51513417,2.15930323 2.78197602,2.15930323 L20.5000043,2.15930323 C20.7668461,2.15930323 20.9830634,2.37588387 20.9830634,2.64317419 L20.9830634,23.7790452 C20.9830634,24.0461419 20.7668461,24.2629161 20.5000043,24.2629161" id="Fill-4" fill="#FEFEFE"></path>
                    <path d="M14.2015512,26.3365548 C14.2015512,25.7369419 13.7163666,25.251329 13.117953,25.251329 L10.16395,25.251329 C9.56553637,25.251329 9.08035181,25.7369419 9.08035181,26.3365548 C9.08035181,26.9361677 9.56553637,27.4221677 10.16395,27.4221677 L13.117953,27.4221677 C13.7163666,27.4221677 14.2015512,26.9361677 14.2015512,26.3365548" id="Fill-6" fill="#FEFEFE"></path>
                </g>
            </g>
        </g>
    </g>
</svg>