<?xml version="1.0" encoding="UTF-8"?>
<svg width="78px" height="90px" viewBox="0 0 78 90" version="1.1" xmlns="http://www.w3.org/2000/svg" xmlns:xlink="http://www.w3.org/1999/xlink">
    <!-- Generator: Sketch 49.2 (51160) - http://www.bohemiancoding.com/sketch -->
    <title>Page 1</title>
    <desc>Created with Sketch.</desc>
    <defs>
        <polygon id="path-1" points="0 89.3738462 77.4476923 89.3738462 77.4476923 0 0 0"></polygon>
    </defs>
    <g id="HD-Desktop-1920---1440-px" stroke="none" stroke-width="1" fill="none" fill-rule="evenodd" opacity="0.05">
        <g id="HD-Desktop_EDU-Discounts-Main-02" transform="translate(-748.000000, -259.000000)">
            <g id="Page-1" transform="translate(748.000000, 259.000000)">
                <path d="M11.1223077,78.9813846 C11.5130769,78.9813846 11.9038462,79.0998462 12.2369231,79.3375385 L20.3230769,85.0898462 L28.4092308,79.3375385 C29.0761538,78.8629231 29.9715385,78.8629231 30.6384615,79.3375385 L38.7230769,85.0898462 L46.8092308,79.3375385 C47.4761538,78.8629231 48.3715385,78.8629231 49.0384615,79.3375385 L57.1246154,85.0898462 L65.2092308,79.3375385 C65.8761538,78.8629231 66.7715385,78.8629231 67.4384615,79.3375385 L73.6015385,83.7221538 L73.6015385,8.536 L66.3238462,4.16676923 L58.1146154,9.096 C57.5046154,9.46138462 56.7446154,9.46138462 56.1346154,9.096 L47.9238462,4.16676923 L39.7130769,9.096 C39.1030769,9.46138462 38.3430769,9.46138462 37.7330769,9.096 L29.5238462,4.16676923 L21.3130769,9.096 C20.7030769,9.46138462 19.9430769,9.46138462 19.3330769,9.096 L11.1223077,4.16676923 L3.84615385,8.536 L3.84615385,83.7213846 L10.0076923,79.3375385 C10.3407692,79.0998462 10.7315385,78.9813846 11.1223077,78.9813846 Z M1.92307692,89.3736923 C1.62153846,89.3736923 1.31923077,89.3029231 1.04230769,89.1590769 C0.401538462,88.8298462 0,88.1698462 0,87.4506154 L0,7.44753846 C0,6.77215385 0.353846154,6.146 0.933076923,5.79830769 L10.1323077,0.274461538 C10.7423077,-0.0909230769 11.5023077,-0.0909230769 12.1123077,0.274461538 L20.3230769,5.20446154 L28.5338462,0.274461538 C29.1438462,-0.0909230769 29.9038462,-0.0909230769 30.5138462,0.274461538 L38.7230769,5.20446154 L46.9338462,0.274461538 C47.5438462,-0.0909230769 48.3038462,-0.0909230769 48.9138462,0.274461538 L57.1246154,5.20446154 L65.3338462,0.274461538 C65.9438462,-0.0909230769 66.7038462,-0.0909230769 67.3138462,0.274461538 L76.5146154,5.79830769 C77.0930769,6.146 77.4476923,6.77215385 77.4476923,7.44753846 L77.4476923,87.4506154 C77.4476923,88.1698462 77.0453846,88.8298462 76.4061538,89.1590769 C75.7661538,89.4898462 74.9969231,89.4352308 74.4092308,89.0175385 L66.3238462,83.2644615 L58.2392308,89.0175385 C57.5723077,89.4921538 56.6769231,89.4921538 56.01,89.0175385 L47.9238462,83.2644615 L39.8376923,89.0175385 C39.1707692,89.4921538 38.2753846,89.4921538 37.6084615,89.0175385 L29.5238462,83.2644615 L21.4376923,89.0175385 C20.7707692,89.4921538 19.8753846,89.4921538 19.2084615,89.0175385 L11.1223077,83.2644615 L3.03769231,89.0175385 C2.70692308,89.2536923 2.31538462,89.3736923 1.92307692,89.3736923 Z" id="Fill-1" fill="#FEFEFE"></path>
                <mask id="mask-2" fill="white">
                    <use xlink:href="#path-1"></use>
                </mask>
                <g id="Clip-4"></g>
                <path d="M22.8677174,70.2021196 C22.5997826,70.2021196 22.3291304,70.1227717 22.0927174,69.9586413 C21.4769565,69.5303804 21.3247826,68.6836413 21.753587,68.067337 L54.1090217,21.5586413 C54.5372826,20.942337 55.3845652,20.79125 56.0003261,21.2195109 C56.616087,21.6477717 56.7682609,22.4945109 56.3394565,23.1108152 L23.9840217,69.6195109 C23.7198913,69.9988587 23.2976087,70.2021196 22.8677174,70.2021196" id="Fill-4" fill="#FFFFFF" mask="url(#mask-2)"></path>
                <path d="M27.0011413,25.3455435 C25.6342935,25.3455435 24.3353804,25.9178261 23.2440761,27.0004348 C20.4538587,29.77 20.0277717,34.8308696 22.2946196,38.2830435 C23.472337,40.0776087 25.1919022,41.1075 27.0120109,41.1075 C28.3788587,41.1075 29.6783152,40.5346739 30.7696196,39.4515217 C33.5592935,36.6830435 33.9853804,31.6216304 31.7190761,28.168913 C30.5402717,26.3748913 28.8207065,25.3455435 27.0011413,25.3455435 M27.0120109,43.8248913 L27.0114674,43.8248913 C24.2592935,43.8248913 21.7120109,42.3482609 20.0228804,39.7743478 C17.0842935,35.2988043 17.6707065,28.7036957 21.3299457,25.0716304 C22.9179891,23.496087 24.9315761,22.6281522 27.0011413,22.6281522 C29.7527717,22.6281522 32.3000543,24.1042391 33.9902717,26.6776087 C36.9288587,31.1542391 36.3424457,37.7493478 32.6842935,41.3803261 C31.0957065,42.956413 29.0810326,43.8248913 27.0120109,43.8248913" id="Fill-6" fill="#FFFFFF" mask="url(#mask-2)"></path>
                <path d="M51.0805435,50.0695109 C49.7136957,50.0695109 48.4142391,50.642337 47.3218478,51.7254891 C44.5321739,54.4934239 44.106087,59.554837 46.3729348,63.0080978 C47.5506522,64.8015761 49.2696739,65.8309239 51.0892391,65.8309239 L51.0897826,65.8309239 C52.4566304,65.8309239 53.7555435,65.2586413 54.8473913,64.1754891 C57.6381522,61.4064674 58.0642391,56.3455978 55.7973913,52.8928804 C54.6191304,51.0988587 52.9001087,50.0695109 51.0805435,50.0695109 M51.0897826,68.5483152 L51.0892391,68.5483152 C48.3376087,68.5483152 45.7908696,67.0722283 44.1011957,64.4994022 C41.1626087,60.0222283 41.7495652,53.4265761 45.4082609,49.7966848 C46.9968478,48.2205978 49.0109783,47.3521196 51.0805435,47.3521196 C53.8316304,47.3521196 56.378913,48.8282065 58.0691304,51.4015761 C61.0077174,55.8782065 60.4213043,62.4733152 56.7615217,66.1042935 C55.1729348,67.6803804 53.1588043,68.5483152 51.0897826,68.5483152" id="Fill-8" fill="#FFFFFF" mask="url(#mask-2)"></path>
            </g>
        </g>
    </g>
</svg>