<?xml version="1.0" encoding="UTF-8"?>
<svg width="91px" height="91px" viewBox="0 0 91 91" version="1.1" xmlns="http://www.w3.org/2000/svg" xmlns:xlink="http://www.w3.org/1999/xlink">
    <!-- Generator: Sketch 49.2 (51160) - http://www.bohemiancoding.com/sketch -->
    <title>Page 1</title>
    <desc>Created with Sketch.</desc>
    <defs>
        <polygon id="path-1" points="0 90.5 0 0.2565 90.2445 0.2565 90.2445 90.5"></polygon>
    </defs>
    <g id="HD-Desktop-1920---1440-px" stroke="none" stroke-width="1" fill="none" fill-rule="evenodd">
        <g id="HD-Desktop_EDU-Discounts-Main-02" transform="translate(-398.000000, -247.000000)">
            <g id="Page-1" transform="translate(398.000000, 247.000000)">
                <g id="Group-3" transform="translate(0.000000, 0.243500)">
                    <mask id="mask-2" fill="white">
                        <use xlink:href="#path-1"></use>
                    </mask>
                    <g id="Clip-2"></g>
                    <path d="M51.91995,90.5 C51.63795,90.5 51.36195,90.4045 51.13895,90.226 L41.12595,82.2125 L29.62645,87.892 C29.31195,88.0475 28.94695,88.064 28.62095,87.937 C28.29445,87.81 28.03545,87.552 27.90845,87.226 L23.24395,75.279 L10.44545,74.4485 C10.09595,74.426 9.77195,74.2575 9.55245,73.9845 C9.33295,73.7115 9.23795,73.359 9.29095,73.0125 L11.22445,60.3335 L0.55595,53.216 C0.26495,53.021 0.06845,52.7135 0.01445,52.367 C-0.03855,52.021 0.05545,51.668 0.27395,51.3945 L8.28845,41.3815 L2.60845,29.883 C2.45345,29.569 2.43745,29.2035 2.56395,28.8775 C2.69095,28.551 2.94845,28.292 3.27495,28.1645 L15.22195,23.5 L16.05245,10.701 C16.07545,10.3515 16.24345,10.028 16.51645,9.808 C16.78945,9.589 17.14245,9.4955 17.48845,9.5465 L30.16695,11.4805 L37.28545,0.812 C37.47995,0.521 37.78745,0.324 38.13395,0.2705 C38.47995,0.2185 38.83245,0.311 39.10645,0.5305 L49.11945,8.5445 L60.61845,2.8645 C60.93195,2.7095 61.29695,2.6935 61.62395,2.82 C61.95045,2.947 62.20895,3.2045 62.33645,3.531 L65.84495,12.517 C66.09645,13.16 65.77845,13.885 65.13545,14.136 C64.49345,14.3855 63.76745,14.0695 63.51645,13.4265 L60.50345,5.71 L49.51295,11.138 C49.07695,11.354 48.55695,11.2965 48.17845,10.9935 L38.60845,3.3335 L31.80495,13.53 C31.53495,13.9335 31.05645,14.1425 30.57645,14.072 L18.45895,12.2235 L17.66495,24.456 C17.63345,24.9405 17.32445,25.363 16.87195,25.5395 L5.45395,29.9975 L10.88245,40.9875 C11.09745,41.423 11.04095,41.943 10.73745,42.3225 L3.07745,51.8925 L13.27395,58.6955 C13.67795,58.965 13.88895,59.444 13.81595,59.924 L11.96745,72.042 L24.19995,72.8355 C24.68445,72.867 25.10695,73.1765 25.28345,73.6285 L29.74145,85.047 L40.73245,79.6185 C41.16795,79.4035 41.68795,79.4605 42.06645,79.763 L51.63695,87.4225 L58.44045,77.226 C58.70945,76.8225 59.18845,76.613 59.66845,76.684 L71.78595,78.533 L72.58045,66.301 C72.61195,65.8165 72.92095,65.394 73.37295,65.2175 L84.79145,60.7595 L79.36245,49.7685 C79.14795,49.333 79.20395,48.813 79.50745,48.4335 L87.16695,38.8645 L76.97095,32.06 C76.56695,31.791 76.35595,31.312 76.42895,30.832 L78.27745,18.715 L70.18095,18.189 C69.49245,18.144 68.96995,17.5495 69.01495,16.8605 C69.05945,16.1715 69.65495,15.656 70.34345,15.694 L79.79995,16.308 C80.14945,16.331 80.47345,16.4995 80.69295,16.7725 C80.91245,17.0455 81.00745,17.398 80.95445,17.744 L79.02045,30.4225 L89.68845,37.5415 C89.97995,37.736 90.17645,38.0435 90.22995,38.3895 C90.28345,38.736 90.18945,39.089 89.97045,39.3625 L81.95645,49.3745 L87.63645,60.874 C87.79145,61.1885 87.80745,61.553 87.68095,61.8795 C87.55445,62.206 87.29645,62.465 86.97045,62.5925 L75.02345,67.257 L74.19245,80.0555 C74.16995,80.4055 74.00195,80.729 73.72895,80.9485 C73.45545,81.1685 73.10345,81.2615 72.75695,81.2105 L60.07795,79.276 L52.95995,89.944 C52.76545,90.2355 52.45745,90.4315 52.11145,90.4855 C52.04745,90.495 51.98345,90.5 51.91995,90.5" id="Fill-1" fill="#FCB528" mask="url(#mask-2)"></path>
                </g>
                <path d="M30.2383,68.26595 C29.9918,68.26595 29.7428,68.19295 29.5253,68.04195 C28.9588,67.64795 28.8188,66.86895 29.2133,66.30195 L58.9803,23.51395 C59.3743,22.94695 60.1538,22.80795 60.7203,23.20195 C61.2868,23.59595 61.4268,24.37495 61.0323,24.94195 L31.2653,67.72995 C31.0223,68.07895 30.6338,68.26595 30.2383,68.26595" id="Fill-4" fill="#FCB528"></path>
                <path d="M34.04105,26.9979 C32.78355,26.9979 31.58855,27.5244 30.58455,28.5204 C28.01755,31.0684 27.62555,35.7244 29.71105,38.9004 C30.79455,40.5514 32.37655,41.4989 34.05105,41.4989 C35.30855,41.4989 36.50405,40.9719 37.50805,39.9754 C40.07455,37.4284 40.46655,32.7719 38.38155,29.5954 C37.29705,27.9449 35.71505,26.9979 34.04105,26.9979 M34.05105,43.9989 L34.05055,43.9989 C31.51855,43.9989 29.17505,42.6404 27.62105,40.2724 C24.91755,36.1549 25.45705,30.0874 28.82355,26.7459 C30.28455,25.2964 32.13705,24.4979 34.04105,24.4979 C36.57255,24.4979 38.91605,25.8559 40.47105,28.2234 C43.17455,32.3419 42.63505,38.4094 39.26955,41.7499 C37.80805,43.1999 35.95455,43.9989 34.05105,43.9989" id="Fill-6" fill="#FCB528"></path>
                <path d="M56.1941,49.74395 C54.9366,49.74395 53.7411,50.27095 52.7361,51.26745 C50.1696,53.81395 49.7776,58.47045 51.8631,61.64745 C52.9466,63.29745 54.5281,64.24445 56.2021,64.24445 L56.2026,64.24445 C57.4601,64.24445 58.6551,63.71795 59.6596,62.72145 C62.2271,60.17395 62.6191,55.51795 60.5336,52.34145 C59.4496,50.69095 57.8681,49.74395 56.1941,49.74395 M56.2026,66.74445 L56.2021,66.74445 C53.6706,66.74445 51.3276,65.38645 49.7731,63.01945 C47.0696,58.90045 47.6096,52.83245 50.9756,49.49295 C52.4371,48.04295 54.2901,47.24395 56.1941,47.24395 C58.7251,47.24395 61.0686,48.60195 62.6236,50.96945 C65.3271,55.08795 64.7876,61.15545 61.4206,64.49595 C59.9591,65.94595 58.1061,66.74445 56.2026,66.74445" id="Fill-8" fill="#FCB528"></path>
            </g>
        </g>
    </g>
</svg>