<?xml version="1.0" encoding="UTF-8"?>
<svg width="100px" height="100px" viewBox="0 0 100 100" version="1.1" xmlns="http://www.w3.org/2000/svg" xmlns:xlink="http://www.w3.org/1999/xlink">
    <!-- Generator: Sketch 49.2 (51160) - http://www.bohemiancoding.com/sketch -->
    <title>Page 1</title>
    <desc>Created with Sketch.</desc>
    <defs></defs>
    <g id="HD-Desktop-1920---1440-px" stroke="none" stroke-width="1" fill="none" fill-rule="evenodd" opacity="0.05">
        <g id="HD-Desktop_EDU-Discounts-Main-02" transform="translate(-393.000000, -746.000000)" fill="#FEFEFE">
            <path d="M474.242213,846 L474.225981,846 C471.227627,845.995362 468.417105,844.828104 466.313079,842.712352 L443.337296,819.615331 C442.131462,818.402464 440.908622,817.85594 439.976419,818.117994 C439.047308,818.379274 438.285932,819.483144 437.887852,821.147453 L433.23766,840.595054 C432.423722,843.995563 431.006867,845.773506 429.025743,845.878636 C427.039981,845.987632 425.446115,844.367385 424.27661,841.072007 L393.647644,754.754435 C392.178999,750.616467 393.537882,748.420321 394.47936,747.479558 C395.420066,746.538021 397.616076,745.179054 401.754561,746.648563 L488.066022,777.279423 C491.361969,778.449 492.979024,780.046056 492.872354,782.024984 C492.764138,784.003911 490.98476,785.416216 487.581369,786.223248 L470.675726,790.232122 C469.636853,790.477169 468.595662,789.83711 468.349084,788.798173 C468.103279,787.759236 468.745618,786.718753 469.783718,786.471387 L486.690134,782.462512 C487.679537,782.228288 488.284,781.983241 488.642658,781.795397 C488.306416,781.569676 487.732099,781.261242 486.772842,780.921113 L400.462154,750.290253 C398.648765,749.647102 397.5782,749.845767 397.211812,750.212178 C396.846197,750.578589 396.64677,751.64922 397.289882,753.461948 L427.918848,839.778747 C428.248907,840.707142 428.564279,841.301593 428.800808,841.656409 C428.998689,841.278403 429.249131,840.653804 429.47793,839.696034 L434.128895,820.248433 C434.873266,817.13626 436.57844,815.058386 438.931363,814.396682 C441.28274,813.735751 443.821176,814.620858 446.077477,816.889667 L469.05326,839.986689 C470.428375,841.369619 472.267273,842.131815 474.231391,842.134907 L474.242213,842.134907 C476.20324,842.134907 478.040591,841.377349 479.417252,839.99983 L486.996231,832.422702 C488.37521,831.042091 489.135041,829.198442 489.135041,827.229563 C489.135041,825.260685 488.37521,823.416263 486.996231,822.036425 L469.953771,804.992911 C469.198579,804.239218 469.198579,803.01553 469.953771,802.260291 C470.707418,801.505052 471.931803,801.505052 472.686223,802.260291 L489.728682,819.303804 C491.838119,821.413372 492.999894,824.228705 492.999894,827.229563 C492.999894,830.231194 491.838119,833.045755 489.728682,835.155323 L482.149704,842.733224 C480.042586,844.839699 477.235156,846 474.242213,846" id="Page-1"></path>
        </g>
    </g>
</svg>