<?xml version="1.0" encoding="UTF-8"?>
<svg width="83px" height="91px" viewBox="0 0 83 91" version="1.1" xmlns="http://www.w3.org/2000/svg" xmlns:xlink="http://www.w3.org/1999/xlink">
    <!-- Generator: Sketch 49.2 (51160) - http://www.bohemiancoding.com/sketch -->
    <title>Page 1 Copy</title>
    <desc>Created with Sketch.</desc>
    <defs>
        <polygon id="path-1" points="0.215995307 0.219090144 25.7093949 0.219090144 25.7093949 25.0219401 0.215995307 25.0219401 0.215995307 0.219090144"></polygon>
    </defs>
    <g id="UiKit" stroke="none" stroke-width="1" fill="none" fill-rule="evenodd">
        <g id="EDU-BTN_Подать-заявку-на-скидки" transform="translate(-1137.000000, -223.000000)">
            <g id="Group" transform="translate(968.000000, 223.000000)">
                <g id="Page-1-Copy" transform="translate(169.000000, 0.000000)">
                    <path d="M55.9324041,60.4506025 C55.6216295,60.4506025 55.3078781,60.3535598 55.0399689,60.1523303 L40.5383447,49.2627166 C40.1638672,48.9817097 39.9435864,48.5405526 39.9435864,48.0726047 L39.9435864,30.073873 C39.9435864,29.2516896 40.6097871,28.5854889 41.4319705,28.5854889 C42.2535585,28.5854889 42.9203546,29.2516896 42.9203546,30.073873 L42.9203546,47.329008 L56.8272206,57.7721064 C57.484491,58.2656546 57.6172549,59.1985737 57.1237067,59.8558442 C56.8313881,60.2452055 56.3848728,60.4506025 55.9324041,60.4506025" id="Fill-1" fill="#FCB528"></path>
                    <path d="M41.4317323,23.9956694 C28.1559412,23.9956694 17.356226,34.7965754 17.356226,48.0723665 C17.356226,61.348753 28.1559412,72.149659 41.4317323,72.149659 C54.7075235,72.149659 65.5078341,61.348753 65.5078341,48.0723665 C65.5078341,34.7965754 54.7075235,23.9956694 41.4317323,23.9956694 M41.4317323,75.1264272 C26.5145512,75.1264272 14.3794577,62.990143 14.3794577,48.0723665 C14.3794577,33.1551854 26.5145512,21.0189012 41.4317323,21.0189012 C56.3489135,21.0189012 68.4846023,33.1551854 68.4846023,48.0723665 C68.4846023,62.990143 56.3489135,75.1264272 41.4317323,75.1264272" id="Fill-3" fill="#FCB528"></path>
                    <path d="M68.6918449,68.6309403 C68.3965495,68.6309403 68.0988727,68.5440186 67.8381078,68.3612451 C67.1659535,67.889725 67.0022313,66.9609733 67.4743467,66.2876283 C71.2268608,60.935399 73.2105792,54.6365573 73.2105792,48.0727833 C73.2105792,30.5491439 58.954836,16.2934006 41.4317919,16.2934006 C40.6096085,16.2934006 39.9434078,15.6271999 39.9434078,14.8050165 C39.9434078,13.9828331 40.6096085,13.3166324 41.4317919,13.3166324 C60.5956306,13.3166324 76.1873474,28.9077538 76.1873474,48.0727833 C76.1873474,55.2509623 74.0172834,62.1409901 69.9117246,67.997484 C69.6217874,68.4100641 69.1603883,68.6309403 68.6918449,68.6309403" id="Fill-5" fill="#FCB528"></path>
                    <path d="M41.4317323,82.828696 C22.2678936,82.828696 6.67677215,67.2375746 6.67677215,48.0725451 C6.67677215,32.2266123 17.3770634,18.3894027 32.6978943,14.4225613 C33.4897146,14.2159736 34.3059445,14.6946379 34.5119368,15.4900304 C34.7185246,16.2854229 34.2398602,17.0980806 33.4444677,17.3034776 C19.436987,20.9303721 9.65354041,33.5834233 9.65354041,48.0725451 C9.65354041,65.5961846 23.9086883,79.8519278 41.4317323,79.8519278 C49.0451149,79.8519278 56.4090442,77.1180638 62.1679001,72.1546004 C62.79064,71.6187821 63.7307034,71.6872478 64.2665217,72.3105831 C64.8035307,72.9327276 64.7338743,73.872791 64.1111344,74.4092047 C57.8128881,79.83883 49.7583485,82.828696 41.4317323,82.828696" id="Fill-7" fill="#FCB528"></path>
                    <g id="Group-11" transform="translate(57.153951, 0.376264)">
                        <mask id="mask-2" fill="white">
                            <use xlink:href="#path-1"></use>
                        </mask>
                        <g id="Clip-10"></g>
                        <path d="M3.48662913,9.73206756 C9.09069307,12.5742859 14.0333191,16.6560305 17.8977597,21.6325917 C20.867979,19.8554611 22.7326267,16.6280489 22.7326267,13.1202252 C22.7326267,7.64832977 18.2811674,3.1956798 12.809272,3.1956798 C8.57333074,3.1956798 4.89047305,5.83071507 3.48662913,9.73206756 M17.4655329,25.0219401 C17.0017524,25.0219401 16.549879,24.8040406 16.2629185,24.4099165 C12.3365612,19.0261334 7.08375591,14.6883867 1.07187472,11.8652197 C0.436037015,11.5669475 0.0954947259,10.8638349 0.255049505,10.1797735 C1.62495826,4.31494467 6.78786514,0.218911538 12.809272,0.218911538 C19.9225574,0.218911538 25.7093949,6.0063444 25.7093949,13.1202252 C25.7093949,18.1932337 22.7123847,22.8137734 18.0739843,24.8915576 C17.8775176,24.97967 17.6703346,25.0219401 17.4655329,25.0219401" id="Fill-9" fill="#FCB528" mask="url(#mask-2)"></path>
                    </g>
                    <g id="Group-14" transform="translate(0.000000, 0.376264)">
                        <polygon id="Clip-13" points="-4.06575815e-20 25.0204517 -4.06575815e-20 0.219090144 82.8637028 0.219090144 82.8637028 90.4937553 -4.06575815e-20 90.4937553 -4.06575815e-20 25.0204517 25.4935457 25.0204517 25.4935457 0.219209215 -5.95353653e-05 0.219209215 -5.95353653e-05 25.0204517"></polygon>
                        <path d="M12.9024448,3.19597748 C7.4293587,3.19597748 2.97670873,7.64862745 2.97670873,13.1205229 C2.97670873,16.6277512 4.84135637,19.8539727 7.8121711,21.6322941 C11.6778024,16.6545422 16.6204284,12.5733929 22.2233016,9.73236524 C20.8200531,5.83101275 17.1377907,3.19597748 12.9024448,3.19597748 M8.2438025,25.0204517 C8.03900084,25.0204517 7.83181777,24.9787769 7.63535106,24.8900692 C2.99695075,22.812285 -5.95353653e-05,18.1923406 -5.95353653e-05,13.1205229 C-5.95353653e-05,6.00664208 5.78796868,0.219209215 12.9024448,0.219209215 C18.9238517,0.219209215 24.0855679,4.31524235 25.4542859,10.1794758 C25.614436,10.8641325 25.2732984,11.5672452 24.6374607,11.8655174 C18.6273656,14.6874937 13.3745603,19.0252404 9.44641688,24.4096188 C9.15945642,24.803743 8.70758299,25.0204517 8.2438025,25.0204517" id="Fill-12" fill="#FCB528"></path>
                    </g>
                    <path d="M17.5385233,90.8700188 C16.6788326,90.8700188 15.8215233,90.681887 15.019582,90.3062189 C12.0457905,88.9148774 10.7580405,85.3641882 12.1487866,82.390992 C12.1767683,82.332052 12.208322,82.2748981 12.2428525,82.2201255 L18.4696564,72.4801398 C18.9137902,71.7877435 19.8336116,71.5853232 20.5260079,72.0282664 C21.2184042,72.4712095 21.4208244,73.3916262 20.9778813,74.0840225 L14.8094221,83.7329192 C14.1735844,85.2016566 14.8207338,86.9263962 16.2811363,87.6092668 C17.0021096,87.946237 17.8105999,87.9825535 18.556578,87.7116676 C19.3037468,87.4407817 19.9008866,86.8948424 20.2372614,86.1750599 C20.2706012,86.1036174 20.3098945,86.0351518 20.354546,85.9696628 L25.6645053,78.1461205 L25.9395587,77.5596971 C26.2878405,76.8155051 27.1725361,76.4928234 27.9185142,76.842296 C28.6633016,77.1905779 28.9841972,78.0770595 28.63532,78.8212515 L28.3102569,79.5154339 C28.2769171,79.5868763 28.2382191,79.655342 28.1935676,79.7202356 L22.8794409,87.5503268 C22.1965702,88.9339287 21.026105,89.9829418 19.571656,90.5104252 C18.9090274,90.750948 18.2225846,90.8700188 17.5385233,90.8700188" id="Fill-15" fill="#FCB528"></path>
                    <path d="M65.3249414,90.8700188 C64.6408801,90.8700188 63.9544373,90.750948 63.2918087,90.5104252 C61.8373597,89.9829418 60.6668945,88.9339287 59.9840238,87.5503268 L54.6698971,79.7202356 C54.6252456,79.655342 54.5865476,79.5868763 54.5526124,79.5154339 L54.2287401,78.823633 C53.8804582,78.0794409 54.2013538,77.1929593 54.9461412,76.8440821 C55.6921193,76.4963955 56.5768149,76.8172911 56.9256921,77.5614832 L57.1989594,78.1467158 L62.509514,85.9696628 C62.5535702,86.0351518 62.5928635,86.1036174 62.6262033,86.1750599 C62.9625781,86.8948424 63.5597179,87.4407817 64.3068867,87.7116676 C65.0534602,87.9831489 65.8619504,87.9468323 66.5823284,87.6092668 C68.0409448,86.9275869 68.6880942,85.2064195 68.056424,83.7382774 L62.1999301,74.7520093 C62.1624228,74.6936647 62.1284877,74.6329386 62.09872,74.5698311 L61.7909222,73.913156 C61.4426403,73.168964 61.7641312,72.2824824 62.5089187,71.9336051 C63.2543014,71.5859186 64.138997,71.9068142 64.4878742,72.6510063 L64.7510205,73.2136155 L70.6134679,82.2088138 C70.6509752,82.2671585 70.6849104,82.3278846 70.7146781,82.390992 C72.1054242,85.3641882 70.8176742,88.9148774 67.8438827,90.3062189 C67.0419414,90.6812917 66.1846321,90.8700188 65.3249414,90.8700188" id="Fill-17" fill="#FCB528"></path>
                    <path d="M48.7992338,4.98388404 L34.0642309,4.98388404 C33.2420475,4.98388404 32.5758468,4.3176833 32.5758468,3.4954999 C32.5758468,2.67331651 33.2420475,2.00711577 34.0642309,2.00711577 L48.7992338,2.00711577 C49.6214172,2.00711577 50.2876179,2.67331651 50.2876179,3.4954999 C50.2876179,4.3176833 49.6214172,4.98388404 48.7992338,4.98388404" id="Fill-19" fill="#FCB528"></path>
                    <path d="M41.4317323,15.7002498 C40.609549,15.7002498 39.9433482,15.0340491 39.9433482,14.2118657 L39.9433482,3.4954999 C39.9433482,2.67331651 40.609549,2.00711577 41.4317323,2.00711577 C42.2539157,2.00711577 42.9201165,2.67331651 42.9201165,3.4954999 L42.9201165,14.2118657 C42.9201165,15.0340491 42.2539157,15.7002498 41.4317323,15.7002498" id="Fill-21" fill="#FCB528"></path>
                </g>
            </g>
        </g>
    </g>
</svg>