<?xml version="1.0" encoding="UTF-8"?>
<svg width="100px" height="106px" viewBox="0 0 100 106" version="1.1" xmlns="http://www.w3.org/2000/svg" xmlns:xlink="http://www.w3.org/1999/xlink">
    <!-- Generator: Sketch 49.2 (51160) - http://www.bohemiancoding.com/sketch -->
    <title>Page 1</title>
    <desc>Created with Sketch.</desc>
    <defs>
        <polygon id="path-1" points="0.0554293227 0.0148251748 54.6185185 0.0148251748 54.6185185 36.7476797 0.0554293227 36.7476797"></polygon>
        <polygon id="path-3" points="50.7318519 0.275066987 50.7318519 50.5279021 0.497793602 50.5279021 0.497793602 0.275066987 50.7318519 0.275066987"></polygon>
    </defs>
    <g id="HD-Desktop-1920---1440-px" stroke="none" stroke-width="1" fill="none" fill-rule="evenodd" opacity="0.05">
        <g id="HD-Desktop_EDU-Discounts-Main-02" transform="translate(-737.000000, -497.000000)">
            <g id="Page-1" transform="translate(737.000000, 497.000000)">
                <path d="M32.6988148,105.985175 C32.426963,105.985175 32.1551111,105.925133 31.9032593,105.80579 L1.05585185,91.1162657 C0.315851852,90.7641678 -0.104148148,89.9673147 0.0225185185,89.1571189 C0.0906666667,88.7131049 1.77807407,78.162028 6.8677037,67.7858881 C8.93807407,63.5659021 11.2980741,59.9537483 13.8832593,57.0472727 C14.5617778,56.283035 15.7328889,56.2126154 16.4973333,56.8953147 C17.261037,57.5757902 17.3291852,58.746979 16.6491852,59.5126993 C14.2877037,62.1678881 12.1151111,65.5013287 10.1921481,69.4188811 C6.38548148,77.1806014 4.54622222,85.2514266 3.92844444,88.3795385 L32.7128889,102.086154 L58.5254815,90.2267552 C59.4551111,89.8027552 60.5536296,90.208965 60.9817778,91.1385035 C61.4077037,92.0687832 61.0002963,93.1688112 60.0706667,93.5957762 L33.4714074,105.816168 C33.2262222,105.928839 32.9617778,105.985175 32.6988148,105.985175" id="Fill-1" fill="#FEFEFE"></path>
                <path d="M32.6988148,56.0841552 C20.9099259,56.0841552 12.2580741,39.567428 11.7091852,28.6427566 C11.6580741,27.6213021 12.444,26.7503231 13.4654815,26.698435 C14.4899259,26.6376517 15.3573333,27.4352462 15.4084444,28.4567007 C15.881037,37.8662392 23.5188148,52.3778615 32.6988148,52.3778615 C40.0084444,52.3778615 46.5528889,43.0402252 48.9988148,34.2563091 C49.2728889,33.2711762 50.2921481,32.6952182 51.2795556,32.9680014 C52.2647407,33.2430084 52.841037,34.2644629 52.5662222,35.2510783 C49.684,45.6027566 41.9343704,56.0841552 32.6988148,56.0841552" id="Fill-3" fill="#FEFEFE"></path>
                <g id="Group-7" transform="translate(5.925926, 0.726434)">
                    <mask id="mask-2" fill="white">
                        <use xlink:href="#path-1"></use>
                    </mask>
                    <g id="Clip-6"></g>
                    <path d="M16.4474074,17.4905189 C17.162963,17.4905189 17.8296296,17.9071063 18.1333333,18.5801692 C18.6007407,19.6120014 19.6296296,20.7972741 21.1096296,22.0077497 C27.7674074,27.4500713 41.5325926,32.1266727 49.9525926,32.9405748 C50.457037,31.090393 50.9148148,28.4737497 50.9148148,25.744435 C50.9148148,13.600393 40.3214815,3.7208965 27.3014815,3.7208965 C15.1911111,3.7208965 4.99851852,12.3817636 3.80962963,23.5510503 C5.41185185,25.5309524 10.6585185,27.0349664 15.1059259,27.7487986 C14.957037,26.7592182 14.8088889,25.5057497 14.7096296,24.0032182 C14.6111111,22.4940154 14.5718519,20.917358 14.5948148,19.3169804 C14.6081481,18.4497077 15.22,17.7062252 16.0688889,17.5298056 C16.1955556,17.5031203 16.3222222,17.4905189 16.4474074,17.4905189 M51.2822222,36.7476797 C51.2540741,36.7476797 51.2259259,36.7469385 51.197037,36.7454559 C42.2414815,36.3370224 26.4696296,31.1741552 18.7666667,24.8779035 C18.6659259,24.7956238 18.5674074,24.7140853 18.4711111,24.6325469 C18.7340741,27.7221133 19.1955556,29.3966168 19.2007407,29.414407 C19.3651852,30.0037077 19.2303704,30.6382252 18.8377778,31.107442 C18.4444444,31.5766587 17.8333333,31.8212741 17.2385185,31.7641972 C14.8977778,31.534407 3.07851852,30.1260154 0.275555556,24.9008825 C0.108148148,24.5888126 0.0340740741,24.2367147 0.0607407407,23.8838755 C1.07925926,10.4989664 13.0451852,0.0146027972 27.3014815,0.0146027972 C42.3644444,0.0146027972 54.6185185,11.5567427 54.6185185,25.744435 C54.6185185,29.6886727 53.7948148,33.3816238 53.0237037,35.522379 C52.7585185,36.2599315 52.0592593,36.7476797 51.2822222,36.7476797" id="Fill-5" fill="#FEFEFE" mask="url(#mask-2)"></path>
                </g>
                <g id="Group-10" transform="translate(48.888889, 48.908252)">
                    <mask id="mask-4" fill="white">
                        <use xlink:href="#path-3"></use>
                    </mask>
                    <g id="Clip-9"></g>
                    <path d="M25.63,50.5279021 C22.6159259,50.5279021 19.5951852,49.9778881 16.692963,48.8734126 C5.4337037,44.5889371 -1.21518519,32.8792727 0.882592593,21.0295105 C1.06111111,20.0221399 2.01444444,19.3475944 3.02925926,19.5284615 C4.03666667,19.7071049 4.70777778,20.6685175 4.53,21.6766294 C2.74185185,31.7755385 8.41074074,41.7565874 18.0092593,45.4087692 C23.3537037,47.4427832 29.1707407,47.2722937 34.387037,44.9291748 C39.6040741,42.5853147 43.5959259,38.349021 45.6285185,33.0000979 C49.8255556,21.959049 44.2625926,9.55779021 33.2292593,5.35707692 C25.0285185,2.23934266 15.5774074,4.52167832 9.71,11.0373427 C9.02481481,11.7978741 7.85518519,11.8579161 7.09444444,11.1722517 C6.33444444,10.4865874 6.2737037,9.31465734 6.95814815,8.55486713 C13.8418519,0.91248951 24.9262963,-1.76345455 34.5455556,1.89317483 C47.4885185,6.82106294 54.012963,21.3667832 49.0907407,34.3180559 C46.7062963,40.5920699 42.0233333,45.5614685 35.9048148,48.3100559 C32.6181481,49.7866434 29.1285185,50.5279021 25.63,50.5279021" id="Fill-8" fill="#FEFEFE" mask="url(#mask-4)"></path>
                </g>
                <path d="M70.3536296,86.7660406 C69.8432593,86.7660406 69.3536296,86.5547818 69.004,86.1811874 L59.0373333,75.5589497 C58.3365926,74.8132434 58.3736296,73.640572 59.1195556,72.9400825 C59.8647407,72.2403343 61.0365926,72.2751734 61.7365926,73.0223622 L70.2936296,82.1420685 L84.9602963,65.091635 C85.6277037,64.3162783 86.7980741,64.2302923 87.5714074,64.8959427 C88.346963,65.5630755 88.4343704,66.7342643 87.766963,67.5088797 L71.7573333,86.1218867 C71.4143704,86.5199427 70.9188148,86.7541804 70.3936296,86.7652993 C70.3802963,86.7660406 70.366963,86.7660406 70.3536296,86.7660406" id="Fill-11" fill="#FEFEFE"></path>
            </g>
        </g>
    </g>
</svg>