<?xml version="1.0" encoding="UTF-8"?>
<svg width="98px" height="103px" viewBox="0 0 98 103" version="1.1" xmlns="http://www.w3.org/2000/svg" xmlns:xlink="http://www.w3.org/1999/xlink">
    <!-- Generator: Sketch 49.2 (51160) - http://www.bohemiancoding.com/sketch -->
    <title>Page 1 Copy 13</title>
    <desc>Created with Sketch.</desc>
    <defs>
        <polygon id="path-1" points="0.0555796375 0.0144055944 53.3409694 0.0144055944 53.3409694 35.707651 0.0555796375 35.707651"></polygon>
    </defs>
    <g id="HD-Desktop-1920---1440-px" stroke="none" stroke-width="1" fill="none" fill-rule="evenodd" opacity="0.05">
        <g id="HD-Desktop_EDU-Discounts-Main-02" transform="translate(-737.000000, -744.000000)">
            <g id="Page-1-Copy-13" transform="translate(737.000000, 744.000000)">
                <path d="M73.229443,86.3361846 C72.2304075,86.3361846 71.4209067,85.5301916 71.4209067,84.5354853 L71.4209067,59.8421357 C71.4209067,58.8474294 72.2304075,58.0414364 73.229443,58.0414364 C74.2284784,58.0414364 75.0379793,58.8474294 75.0379793,59.8421357 L75.0379793,84.5354853 C75.0379793,85.5301916 74.2284784,86.3361846 73.229443,86.3361846" id="Fill-1" fill="#FFFFFF"></path>
                <path d="M60.8282373,73.9915266 C59.8292018,73.9915266 59.019701,73.1855336 59.019701,72.1908273 C59.019701,71.196121 59.8292018,70.390128 60.8282373,70.390128 L85.630504,70.3886874 C86.6295394,70.3886874 87.4390403,71.1946804 87.4390403,72.1893867 C87.4390403,73.184093 86.6295394,73.990086 85.630504,73.990086 L60.8282373,73.9915266 Z" id="Fill-3" fill="#FFFFFF"></path>
                <path d="M31.9354232,102.985594 C31.6699301,102.985594 31.4044369,102.927252 31.158476,102.811287 L1.03115505,88.5375035 C0.30846395,88.1953706 -0.101712081,87.4210699 0.0219918013,86.6338042 C0.0899927659,86.2016364 1.73720762,75.9498951 6.70706535,65.8674196 C8.72756209,61.7697483 11.0323607,58.2598252 13.5585242,55.4327273 C14.2226188,54.6901189 15.3656137,54.6224126 16.1121775,55.2843497 C16.8580178,55.9455664 16.924572,57.0836084 16.2612009,57.8283776 C13.9527851,60.4105804 11.830287,63.6496783 9.9537497,67.4541958 C6.22888835,75.0106503 4.4369906,82.8415315 3.83655655,85.8782308 L31.9491681,99.1969231 L57.1579937,87.6731678 C58.0666024,87.2611678 59.1387027,87.6558811 59.5568363,88.5591119 C59.9727996,89.4630629 59.5749216,90.531958 58.6670364,90.9468392 L32.6899445,102.821371 C32.4504943,102.930853 32.1922354,102.985594 31.9354232,102.985594" id="Fill-5" fill="#FFFFFF"></path>
                <path d="M31.9354232,54.4968678 C20.4222812,54.4968678 11.9720762,38.4475951 11.4353026,27.8321126 C11.385387,26.8395671 12.1529298,25.9932385 13.1505184,25.9428189 C14.1452134,25.8837559 14.9981191,26.6587769 15.0480347,27.6513224 C15.5102966,36.7945531 22.9701471,50.8954692 31.9354232,50.8954692 C39.0726308,50.8954692 45.4639981,41.8221056 47.8541596,33.2867909 C48.1225464,32.3295392 49.1179648,31.7698818 50.0815529,32.0349448 C51.0436942,32.3028888 51.6065107,33.2954343 51.3381239,34.2534063 C48.5218712,44.3128329 40.9527851,54.4968678 31.9354232,54.4968678" id="Fill-7" fill="#FFFFFF"></path>
                <g id="Group-11" transform="translate(5.787316, 0.705874)">
                    <mask id="mask-2" fill="white">
                        <use xlink:href="#path-1"></use>
                    </mask>
                    <g id="Clip-10"></g>
                    <path d="M16.0626959,16.9955042 C16.7607909,16.9955042 17.4111406,17.3995811 17.7084639,18.0528748 C18.1663853,19.0569448 19.1719315,20.2093923 20.6165903,21.3848888 C27.11864,26.6724622 40.5618519,31.216707 48.7834579,32.0082944 C49.2761032,30.2090357 49.7238968,27.665728 49.7238968,25.0158189 C49.7238968,13.2154762 39.3783458,3.61558811 26.6628888,3.61558811 C14.8357849,3.61558811 4.88160116,12.0313364 3.72196769,22.8845112 C5.28671329,24.807658 10.4099349,26.2698259 14.7533156,26.9634552 C14.6071859,26.0018818 14.4632264,24.7838888 14.3662889,23.3238818 C14.2686279,21.8537909 14.2310104,20.3217559 14.2534362,18.7695531 C14.2664577,17.9275462 14.8647215,17.2051056 15.6930311,17.033679 C15.816735,17.007749 15.9404389,16.9955042 16.0626959,16.9955042 M50.0827104,35.707651 C50.0552206,35.707651 50.0277309,35.7069308 49.9995177,35.7054902 C41.254883,35.3086161 25.8519412,30.2925881 18.3284302,24.1738119 C18.2300458,24.0938608 18.1338317,24.0146301 18.0390644,23.9353993 C18.2958765,26.9375252 18.7472872,28.5639168 18.7523511,28.5812035 C18.9129491,29.1538259 18.7812877,29.7711056 18.3986014,30.2270427 C18.0137449,30.6822594 17.4285025,30.9249937 16.836026,30.8652105 C14.5500362,30.6419238 3.00795756,29.2733923 0.270557029,24.1961406 C0.107065348,23.8929028 0.0347238968,23.5507699 0.0607668194,23.2079168 C1.05401495,10.2018259 12.7393296,0.0141895105 26.6628888,0.0141895105 C41.373523,0.0141895105 53.3409694,11.229665 53.3409694,25.0158189 C53.3409694,28.8448259 52.5365324,32.4347 51.7841813,34.5163084 C51.5251989,35.2329867 50.8422956,35.707651 50.0827104,35.707651" id="Fill-9" fill="#FFFFFF" mask="url(#mask-2)"></path>
                </g>
                <path d="M72.7765855,96.6219231 C69.8322884,96.6226434 66.8836508,96.0874755 64.0493128,95.0142587 C53.0541355,90.8517622 46.5600434,79.4735035 48.6073065,67.9591119 C48.780926,66.9802517 49.7163009,66.3240769 50.7030383,66.4998252 C51.6868821,66.6734126 52.343019,67.6076154 52.1693996,68.5864755 C50.4245238,78.401007 55.960815,88.0995734 65.3348204,91.6476713 C70.5535327,93.6241189 76.2323366,93.4584545 81.3287919,91.1816503 C86.4230769,88.9041259 90.3222812,84.7877273 92.3073306,79.5901888 C96.4054738,68.8616224 90.9733542,56.8113427 80.198095,52.7295175 C72.1891729,49.700021 62.9605739,51.9177622 57.2282373,58.249021 C56.5605257,58.988028 55.4160839,59.0470909 54.674584,58.3793916 C53.9323607,57.7138531 53.8730408,56.5750909 54.5421992,55.8368042 C61.2656137,48.41 72.0915119,45.8090699 81.4836026,49.3636503 C94.1238245,54.1520699 100.494936,68.2861189 95.6885701,80.8708462 C93.3598987,86.9672937 88.7864721,91.7953287 82.8103448,94.4668462 C79.601278,95.9016434 76.1925488,96.6219231 72.7765855,96.6219231" id="Fill-12" fill="#FFFFFF"></path>
            </g>
        </g>
    </g>
</svg>