<?xml version="1.0" encoding="UTF-8"?>
<svg width="82px" height="130px" viewBox="0 0 82 130" version="1.1" xmlns="http://www.w3.org/2000/svg" xmlns:xlink="http://www.w3.org/1999/xlink">
    <!-- Generator: Sketch 49.2 (51160) - http://www.bohemiancoding.com/sketch -->
    <title>Page 1</title>
    <desc>Created with Sketch.</desc>
    <defs>
        <polygon id="path-1" points="81.4165359 0.471518385 81.4165359 64.5751634 40.7084335 64.5751634 0.000331110961 64.5751634 0.000331110961 0.471518385 81.4165359 0.471518385"></polygon>
        <polygon id="path-3" points="0.835058824 0.26254902 63.5876525 0.26254902 63.5876525 45.052732 0.835058824 45.052732"></polygon>
    </defs>
    <g id="HD-Desktop-1920---1440-px" stroke="none" stroke-width="1" fill="none" fill-rule="evenodd" opacity="0.05">
        <g id="HD-Desktop_EDU-Profile" transform="translate(-401.000000, -238.000000)">
            <g id="Page-1" transform="translate(401.000000, 238.000000)">
                <g id="Group-3" transform="translate(0.000000, 65.162288)">
                    <mask id="mask-2" fill="white">
                        <use xlink:href="#path-1"></use>
                    </mask>
                    <g id="Clip-2"></g>
                    <path d="M40.0158693,64.5751634 C39.7040392,64.5751634 39.3922092,64.5063399 39.1033203,64.3695425 L1.21129412,46.3386275 C0.362470588,45.9350327 -0.119294118,45.021634 0.026,44.0937908 C0.110117647,43.5491503 2.17652288,30.6188235 8.4190719,17.900915 C10.9536471,12.74 13.845085,8.31745098 17.014366,4.75647059 C17.7926667,3.87960784 19.136,3.80228758 20.0128627,4.58228758 C20.8888758,5.36228758 20.9670458,6.70477124 20.1870458,7.58078431 C17.2735163,10.8545752 14.5978954,14.9567974 12.2332549,19.7727451 C7.4929281,29.4309804 5.23789542,39.4418301 4.50462745,43.2007843 L40.0320131,60.1058824 L76.8780915,43.1914379 C75.5670458,37.1137255 70.0730588,15.2116993 57.0552157,4.21862745 C56.1588105,3.46156863 56.0458039,2.12163399 56.8028627,1.22522876 C57.5590719,0.327973856 58.9007059,0.216666667 59.7962614,0.972875817 C76.115085,14.7537255 81.1774379,42.8651634 81.3847582,44.0555556 C81.5512941,45.0063399 81.0559346,45.9486275 80.1790719,46.3513725 L40.9020784,64.3814379 C40.6208366,64.5105882 40.3175033,64.5751634 40.0158693,64.5751634" id="Fill-1" fill="#FEFEFE" mask="url(#mask-2)"></path>
                </g>
                <path d="M40.0158693,68.4829804 C28.9684183,68.4829804 19.528549,55.9435033 15.9123399,43.5569673 C15.5826667,42.4303007 16.229268,41.2509542 17.3559346,40.9221307 C18.4817516,40.5924575 19.661098,41.2399085 19.9899216,42.3665752 C23.0844314,52.967098 31.1546275,64.2346144 40.0158693,64.2346144 C51.4142353,64.2346144 60.8524052,46.3014118 61.4106405,34.6719346 C61.466719,33.5002353 62.4659346,32.596183 63.6342353,32.6514118 C64.8059346,32.7083399 65.7099869,33.7033072 65.6539085,34.8750065 C65.0124052,48.2548105 54.4594641,68.4829804 40.0158693,68.4829804" id="Fill-4" fill="#FEFEFE"></path>
                <g id="Group-8" transform="translate(8.496732, 0.587124)">
                    <mask id="mask-4" fill="white">
                        <use xlink:href="#path-3"></use>
                    </mask>
                    <g id="Clip-7"></g>
                    <path d="M32.2534248,4.51057516 C17.2719869,4.51057516 5.08342484,16.7067843 5.08342484,31.696719 C5.08342484,35.1115556 5.62636601,38.3827974 6.21858824,40.6777647 C15.8946667,39.6683529 31.6832941,33.9364575 39.3244052,27.2716209 C41.0619869,25.7566536 42.2251895,24.3224052 42.7842745,23.0088105 C43.1776732,22.0860654 44.1692418,21.5635163 45.148915,21.7563922 C46.1345359,21.9501176 46.8491111,22.8082876 46.8627059,23.8126013 C46.8898954,25.7727974 46.8448627,27.7007059 46.7310065,29.541098 C46.6112026,31.4783529 46.4293725,33.0748889 46.2500915,34.3103137 C51.3965621,33.4266536 57.4836209,31.5505752 59.2891765,29.0763268 C57.9653856,15.2487451 46.2161046,4.51057516 32.2534248,4.51057516 M4.66623529,45.052732 C3.75963399,45.052732 2.94734641,44.4741046 2.65420915,43.6082876 C1.77564706,41.0014902 0.835058824,36.5041699 0.835058824,31.696719 C0.835058824,14.3642353 14.9294379,0.26220915 32.2534248,0.26220915 C48.6546667,0.26220915 62.4159739,13.075281 63.5825752,29.4314902 C63.608915,29.8129935 63.5324444,30.1953464 63.3608105,30.536915 C60.0844706,37.0590065 45.4930327,38.7617516 43.8404183,38.9342353 C43.1411373,39.0098562 42.458,38.7320131 42.0034248,38.2001176 C41.5488497,37.6673725 41.3865621,36.9468497 41.5683922,36.2705098 C41.5726405,36.251817 42.1249281,34.1233856 42.4274118,30.1987451 C42.325451,30.2905098 42.2217908,30.3814248 42.117281,30.4731895 C33.2551895,38.2026667 15.0908758,44.5446275 4.7707451,45.050183 C4.7359085,45.0518824 4.7010719,45.052732 4.66623529,45.052732" id="Fill-6" fill="#FEFEFE" mask="url(#mask-4)"></path>
                </g>
            </g>
        </g>
    </g>
</svg>