<?xml version="1.0" encoding="UTF-8"?>
<svg width="130px" height="130px" viewBox="0 0 130 130" version="1.1" xmlns="http://www.w3.org/2000/svg" xmlns:xlink="http://www.w3.org/1999/xlink">
    <!-- Generator: Sketch 49.2 (51160) - http://www.bohemiancoding.com/sketch -->
    <title>Page 1</title>
    <desc>Created with Sketch.</desc>
    <defs></defs>
    <g id="HD-Desktop-1920---1440-px" stroke="none" stroke-width="1" fill="none" fill-rule="evenodd" opacity="0.05">
        <g id="HD-Desktop_EDU-Profile" transform="translate(-1413.000000, -484.000000)" fill="#FEFEFE">
            <g id="Page-1" transform="translate(1413.000000, 484.000000)">
                <path d="M84.6592727,64.4953636 C84.2056364,64.4953636 83.7492727,64.4753636 83.292,64.4353636 C82.0410909,64.3253636 81.1165455,63.2235455 81.2265455,61.9735455 C81.3347273,60.7226364 82.4338182,59.7999091 83.6883636,59.9071818 C86.9401818,60.1926364 90.1283636,59.0308182 92.4365455,56.7253636 L121.652,27.5099091 C125.943818,23.2180909 125.943818,16.2344545 121.652,11.9417273 L117.471091,7.76354545 C113.179273,3.46990909 106.194727,3.47081818 101.903818,7.76263636 L72.6874545,36.9771818 C68.3956364,41.2699091 68.3956364,48.2535455 72.6874545,52.5453636 L74.7774545,54.6353636 C75.6647273,55.5235455 75.6647273,56.9617273 74.7774545,57.849 C73.8892727,58.7371818 72.4510909,58.7371818 71.5638182,57.849 L69.4738182,55.7599091 C63.4092727,49.6953636 63.4092727,39.8280909 69.4738182,33.7635455 L98.6901818,4.549 C104.753818,-1.51645455 114.620182,-1.51463636 120.684727,4.549 L124.866545,8.72718182 C130.930182,14.7926364 130.930182,24.6599091 124.866545,30.7244545 L95.6501818,59.939 C92.7138182,62.8744545 88.7692727,64.4953636 84.6592727,64.4953636" id="Fill-1"></path>
                <g id="Group-5" transform="translate(0.000000, 64.867273)">
                    <path d="M19.7276364,64.5454545 C15.744,64.5463636 11.7621818,63.03 8.72945455,59.9972727 L4.54854545,55.8154545 C-1.516,49.7527273 -1.516,39.8854545 4.54854545,33.8218182 L33.764,4.60636364 C39.8294545,-1.45818182 49.6958182,-1.45818182 55.7594545,4.60636364 L57.8503636,6.69545455 C58.7376364,7.58363636 58.7376364,9.02272727 57.8512727,9.91 C56.9630909,10.7981818 55.524,10.7972727 54.6358182,9.91090909 L52.5458182,7.82181818 C48.254,3.52818182 41.2694545,3.52909091 36.9785455,7.82090909 L7.76218182,37.0354545 C3.47036364,41.3272727 3.47036364,48.3109091 7.76218182,52.6018182 L11.9430909,56.7836364 C16.2349091,61.0763636 23.2194545,61.0745455 27.5112727,56.7836364 L56.7267273,27.5681818 C59.414,24.8809091 60.4285455,22.1145455 59.9176364,18.8618182 C59.7230909,17.6218182 60.5703636,16.4581818 61.8103636,16.2645455 C63.0585455,16.07 64.2149091,16.9172727 64.4076364,18.1572727 C65.1421818,22.8354545 63.6394545,27.0836364 59.9403636,30.7818182 L30.7249091,59.9972727 C27.6930909,63.0290909 23.7094545,64.5454545 19.7276364,64.5454545" id="Fill-3"></path>
                </g>
                <path d="M38.4580909,93.2275455 C37.8762727,93.2275455 37.2953636,93.0057273 36.8508182,92.5620909 C35.9635455,91.6739091 35.9635455,90.2357273 36.8508182,89.3475455 L84.8480909,41.3511818 C85.7362727,40.463 87.1744545,40.463 88.0617273,41.3511818 C88.9499091,42.2384545 88.9499091,43.6766364 88.0617273,44.5648182 L40.0653636,92.5620909 C39.6208182,93.0057273 39.0399091,93.2275455 38.4580909,93.2275455" id="Fill-6"></path>
            </g>
        </g>
    </g>
</svg>