<?xml version="1.0" encoding="UTF-8"?>
<svg width="130px" height="94px" viewBox="0 0 130 94" version="1.1" xmlns="http://www.w3.org/2000/svg" xmlns:xlink="http://www.w3.org/1999/xlink">
    <!-- Generator: Sketch 49.2 (51160) - http://www.bohemiancoding.com/sketch -->
    <title>Page 1</title>
    <desc>Created with Sketch.</desc>
    <defs>
        <polygon id="path-1" points="129.168561 47.1489424 129.168561 93.5251799 0 93.5251799 0 47.1489424 0 0.772705036 129.168561 0.772705036"></polygon>
        <polygon id="path-3" points="0 93.6877266 129.168561 93.6877266 129.168561 0.935064748 0 0.935064748"></polygon>
    </defs>
    <g id="HD-Desktop-1920---1440-px" stroke="none" stroke-width="1" fill="none" fill-rule="evenodd" opacity="0.05">
        <g id="HD-Desktop_EDU-Profile" transform="translate(-1067.000000, -256.000000)">
            <g id="Page-1" transform="translate(1067.000000, 256.000000)">
                <g id="Group-3" transform="translate(0.000000, 0.162547)">
                    <mask id="mask-2" fill="white">
                        <use xlink:href="#path-1"></use>
                    </mask>
                    <g id="Clip-2"></g>
                    <path d="M11.6906475,5.44896403 C7.82244604,5.44896403 4.67625899,8.59515108 4.67625899,12.4633525 L4.67625899,81.8347194 C4.67625899,85.7029209 7.82244604,88.8491079 11.6906475,88.8491079 L117.477914,88.8491079 C121.346115,88.8491079 124.492302,85.7029209 124.492302,81.8347194 L124.492302,12.4633525 C124.492302,8.59515108 121.346115,5.44896403 117.477914,5.44896403 L11.6906475,5.44896403 Z M117.477914,93.5253669 L11.6906475,93.5253669 C5.24395683,93.5253669 0,88.2804748 0,81.8347194 L0,12.4633525 C0,6.01666187 5.24395683,0.772705036 11.6906475,0.772705036 L117.477914,0.772705036 C123.924604,0.772705036 129.168561,6.01666187 129.168561,12.4633525 L129.168561,81.8347194 C129.168561,88.2804748 123.924604,93.5253669 117.477914,93.5253669 Z" id="Fill-1" fill="#FEFEFE" mask="url(#mask-2)"></path>
                </g>
                <path d="M45.8867266,78.8551942 C45.8867266,80.8772086 44.2472302,82.5157698 42.2280216,82.5157698 L20.0382374,82.5157698 C18.016223,82.5157698 16.3767266,80.8772086 16.3767266,78.8551942 L16.3767266,64.1782878 C16.3767266,62.1572086 18.016223,60.5195827 20.0382374,60.5195827 L42.2280216,60.5195827 C44.2472302,60.5195827 45.8867266,62.1572086 45.8867266,64.1782878 L45.8867266,78.8551942 Z" id="Fill-4" fill="#FEFEFE"></path>
                <mask id="mask-4" fill="white">
                    <use xlink:href="#path-3"></use>
                </mask>
                <g id="Clip-7"></g>
                <polygon id="Fill-6" fill="#FEFEFE" mask="url(#mask-4)" points="2.3381295 41.0377266 127.970504 41.0377266 127.970504 20.9064317 2.3381295 20.9064317"></polygon>
            </g>
        </g>
    </g>
</svg>