<?xml version="1.0" encoding="UTF-8"?>
<svg width="130px" height="127px" viewBox="0 0 130 127" version="1.1" xmlns="http://www.w3.org/2000/svg" xmlns:xlink="http://www.w3.org/1999/xlink">
    <!-- Generator: Sketch 49.2 (51160) - http://www.bohemiancoding.com/sketch -->
    <title>Page 1</title>
    <desc>Created with Sketch.</desc>
    <defs></defs>
    <g id="HD-Desktop-1920---1440-px" stroke="none" stroke-width="1" fill="none" fill-rule="evenodd" opacity="0.05">
        <g id="HD-Desktop_EDU-Profile" transform="translate(-721.000000, -239.000000)">
            <g id="Page-1" transform="translate(721.000000, 239.000000)">
                <path d="M33.1800573,116.779331 C32.876172,116.779331 32.5722866,116.712261 32.290758,116.578949 L16.2386561,108.938758 C15.4114586,108.545446 14.9419682,107.65449 15.0835605,106.750287 C15.1199936,106.512643 16.0225414,100.86551 18.7442611,95.3202229 C19.2493567,94.2951274 20.4905669,93.8720064 21.5148344,94.3737898 C22.540758,94.8780573 22.964707,96.1184395 22.4612675,97.1443631 C20.8093567,100.511943 19.8927325,103.978057 19.4687834,105.891624 L33.1957898,112.423917 L47.2680828,105.962834 C45.8687197,101.935318 42.0159172,91.8955096 37.0957898,87.7421338 C36.2222229,87.0043631 36.1120955,85.6985669 36.8498662,84.824172 C37.5859809,83.9514331 38.8917771,83.8404777 39.767,84.5782484 C46.8938153,90.5955096 51.5994841,105.820414 51.7965541,106.465446 C52.0996115,107.455764 51.6218408,108.518121 50.6803758,108.95035 L34.0436879,116.589713 C33.7696115,116.716401 33.4740064,116.779331 33.1800573,116.779331 Z" id="Fill-1" fill="#FEFEFE"></path>
                <path d="M33.1800573,90.8308344 C27.6786561,90.8308344 23.4482739,84.9203885 21.8460446,79.4280955 C21.5247707,78.3309618 22.1548981,77.1824904 23.2528599,76.8620446 C24.3483376,76.5415987 25.499293,77.1717261 25.8189108,78.2688599 C27.027828,82.4081592 30.1113949,86.690707 33.1800573,86.690707 C36.8929236,86.690707 40.838465,80.157586 41.0736242,75.282172 C41.1291019,74.1403248 42.107,73.2609618 43.2405669,73.3139554 C44.382414,73.3686051 45.2642611,74.339051 45.2087834,75.4808981 C44.9073822,81.7399427 40.0708854,90.8308344 33.1800573,90.8308344" id="Fill-3" fill="#FEFEFE"></path>
                <path d="M33.4905669,63.9797898 C27.7896115,63.9797898 23.1518408,68.6208726 23.1518408,74.3267962 C23.1518408,75.2169236 23.2454076,76.0797261 23.3754076,76.8199809 C27.643051,76.0971146 34.5827325,73.6204904 37.5818408,71.6324013 C38.2351529,71.1993439 39.0797389,71.1728471 39.7603758,71.5653312 C40.4418408,71.9586433 40.840121,72.7022102 40.7912675,73.4863503 C40.7821592,73.6478153 40.7705669,73.8034841 40.7589745,73.9541847 C42.0573185,73.6254586 43.1768089,73.1990255 43.7150255,72.8073694 C42.9772548,67.7986433 38.6276369,63.9797898 33.4905669,63.9797898 M21.8046433,81.1546943 C20.9194841,81.1546943 20.1278917,80.5908089 19.843879,79.7453949 C19.4406306,78.5505541 19.0117134,76.499535 19.0117134,74.3267962 C19.0117134,66.3388344 25.5067452,59.8396624 33.4905669,59.8396624 C41.0504395,59.8396624 47.3922866,65.7451401 47.9288471,73.2834841 C47.9545159,73.6560955 47.8799936,74.027051 47.7135605,74.3599172 C46.1220955,77.5287707 40.2737516,78.3733567 38.5191656,78.5563503 C37.8385287,78.6225924 37.1711401,78.3592803 36.7289745,77.8401083 C36.5194841,77.5941847 36.3737516,77.3085159 36.2975732,77.0038025 C31.7194204,79.098707 25.4554076,80.9766688 21.9073185,81.1522102 C21.8733694,81.1538662 21.8385924,81.1546943 21.8046433,81.1546943" id="Fill-5" fill="#FEFEFE"></path>
                <g id="Group-9" transform="translate(0.000000, 0.082803)">
                    <polygon id="Clip-8" points="64.791793 126.687898 0 126.687898 0 0.74522293 129.583503 0.74522293 129.583503 126.687898 64.791793 126.687898 129.583586 126.687898 129.583586 34.1750955 8.28025478e-05 34.1750955 8.28025478e-05 126.687898"></polygon>
                    <path d="M127.513522,126.687898 L2.0701465,126.687898 C0.926643312,126.687898 8.28025478e-05,125.761338 8.28025478e-05,124.617834 L8.28025478e-05,36.2451592 C8.28025478e-05,35.1024841 0.926643312,34.1750955 2.0701465,34.1750955 L42.9944777,34.1750955 C44.1379809,34.1750955 45.0645414,35.1024841 45.0645414,36.2451592 C45.0645414,37.3886624 44.1379809,38.3152229 42.9944777,38.3152229 L4.14021019,38.3152229 L4.14021019,122.547771 L125.443459,122.547771 L125.443459,38.3152229 L96.0079809,38.3152229 C94.8644777,38.3152229 93.9379172,37.3886624 93.9379172,36.2451592 C93.9379172,35.1024841 94.8644777,34.1750955 96.0079809,34.1750955 L127.513522,34.1750955 C128.657025,34.1750955 129.583586,35.1024841 129.583586,36.2451592 L129.583586,124.617834 C129.583586,125.761338 128.657025,126.687898 127.513522,126.687898" id="Fill-7" fill="#FEFEFE"></path>
                </g>
                <path d="M53.3938981,29.1299363 C52.2503949,29.1299363 51.3238344,28.2033758 51.3238344,27.0598726 L51.3238344,13.2210828 C51.3238344,6.38738854 56.8831975,0.828025478 63.7168917,0.828025478 L65.8672739,0.828025478 C72.7009682,0.828025478 78.2603312,6.38738854 78.2603312,13.2210828 L78.2603312,18.6678344 C78.2603312,19.8113376 77.3337707,20.7378981 76.1902675,20.7378981 C75.0467643,20.7378981 74.1202038,19.8113376 74.1202038,18.6678344 L74.1202038,13.2210828 C74.1202038,8.67025478 70.4189299,4.96815287 65.8672739,4.96815287 L63.7168917,4.96815287 C59.1660637,4.96815287 55.4639618,8.67025478 55.4639618,13.2210828 L55.4639618,27.0598726 C55.4639618,28.2033758 54.5374013,29.1299363 53.3938981,29.1299363" id="Fill-10" fill="#FEFEFE"></path>
                <path d="M64.7922484,14.0589618 C64.3815478,14.0589618 64.0470255,14.3943121 64.0470255,14.8058408 C64.0470255,15.2165414 64.3815478,15.5518917 64.7922484,15.5518917 C65.2037771,15.5518917 65.5382994,15.2165414 65.5382994,14.8058408 C65.5382994,14.3943121 65.2037771,14.0589618 64.7922484,14.0589618 M64.7922484,18.1990892 C62.9209108,18.1990892 61.398172,16.6771783 61.398172,14.8058408 C61.398172,12.9345032 62.9209108,11.4117643 64.7922484,11.4117643 C66.664414,11.4117643 68.1871529,12.9345032 68.1871529,14.8058408 C68.1871529,16.6771783 66.664414,18.1990892 64.7922484,18.1990892" id="Fill-12" fill="#FEFEFE"></path>
                <path d="M118.884752,53.885 L10.6999108,53.885 C9.55640764,53.885 8.62984713,52.9584395 8.62984713,51.8149363 C8.62984713,50.6714331 9.55640764,49.7448726 10.6999108,49.7448726 L118.884752,49.7448726 C120.028255,49.7448726 120.954815,50.6714331 120.954815,51.8149363 C120.954815,52.9584395 120.028255,53.885 118.884752,53.885" id="Fill-14" fill="#FEFEFE"></path>
                <polygon id="Clip-17" points="0 126.770701 129.583503 126.770701 129.583503 0.828025478 0 0.828025478"></polygon>
                <path d="M45.0644586,40.8779618 L84.5198726,40.8779618 L84.5198726,29.1299363 L45.0644586,29.1299363 L45.0644586,40.8779618 Z M86.5899363,45.0180892 L42.9943949,45.0180892 C41.8508917,45.0180892 40.9243312,44.0907006 40.9243312,42.9480255 L40.9243312,27.0598726 C40.9243312,25.9163694 41.8508917,24.9898089 42.9943949,24.9898089 L86.5899363,24.9898089 C87.7334395,24.9898089 88.66,25.9163694 88.66,27.0598726 L88.66,42.9480255 C88.66,44.0907006 87.7334395,45.0180892 86.5899363,45.0180892 Z" id="Fill-16" fill="#FEFEFE"></path>
                <path d="M108.751955,87.2954968 L64.7920828,87.2954968 C63.6485796,87.2954968 62.7220191,86.3689363 62.7220191,85.2254331 C62.7220191,84.0819299 63.6485796,83.1553694 64.7920828,83.1553694 L108.751955,83.1553694 C109.895459,83.1553694 110.822019,84.0819299 110.822019,85.2254331 C110.822019,86.3689363 109.895459,87.2954968 108.751955,87.2954968" id="Fill-18" fill="#FEFEFE"></path>
                <path d="M108.751955,100.421025 L64.7920828,100.421025 C63.6485796,100.421025 62.7220191,99.494465 62.7220191,98.3509618 C62.7220191,97.2074586 63.6485796,96.2808981 64.7920828,96.2808981 L108.751955,96.2808981 C109.895459,96.2808981 110.822019,97.2074586 110.822019,98.3509618 C110.822019,99.494465 109.895459,100.421025 108.751955,100.421025" id="Fill-19" fill="#FEFEFE"></path>
            </g>
        </g>
    </g>
</svg>