<?xml version="1.0" encoding="UTF-8"?>
<svg width="114px" height="130px" viewBox="0 0 114 130" version="1.1" xmlns="http://www.w3.org/2000/svg" xmlns:xlink="http://www.w3.org/1999/xlink">
    <!-- Generator: Sketch 49.2 (51160) - http://www.bohemiancoding.com/sketch -->
    <title>Page 1</title>
    <desc>Created with Sketch.</desc>
    <defs></defs>
    <g id="HD-Desktop-1920---1440-px" stroke="none" stroke-width="1" fill="none" fill-rule="evenodd" opacity="0.05">
        <g id="HD-Desktop_EDU-Profile" transform="translate(-1421.000000, -238.000000)" fill="#FEFEFE">
            <g id="Page-1" transform="translate(1421.000000, 238.000000)">
                <path d="M23.0730349,40.012186 C12.4341977,40.012186 3.77937209,48.6677674 3.77937209,59.3073605 C3.77937209,69.9454419 12.4341977,78.6002674 23.0730349,78.6002674 C33.7118721,78.6002674 42.3666977,69.9454419 42.3666977,59.3073605 C42.3666977,48.6677674 33.7118721,40.012186 23.0730349,40.012186 M23.0730349,82.3793372 C10.3504186,82.3793372 0.000302325581,72.0292209 0.000302325581,59.3073605 C0.000302325581,46.5839884 10.3504186,36.2331163 23.0730349,36.2331163 C35.7956512,36.2331163 46.1457674,46.5839884 46.1457674,59.3073605 C46.1457674,72.0292209 35.7956512,82.3793372 23.0730349,82.3793372" id="Fill-1"></path>
                <path d="M84.5146628,129.520058 C68.580593,129.520058 55.6168721,116.556337 55.6168721,100.622267 C55.6168721,94.7359884 57.3741395,89.0734302 60.6997209,84.2475581 C61.2915233,83.3881977 62.4675698,83.1712791 63.3284419,83.7638372 C64.1870465,84.3556395 64.4039651,85.5324419 63.811407,86.3918023 C60.922686,90.5843023 59.3959419,95.505407 59.3959419,100.622267 C59.3959419,114.472558 70.6643721,125.740988 84.5146628,125.740988 C98.3649535,125.740988 109.633384,114.472558 109.633384,100.622267 C109.633384,86.7704651 98.3649535,75.5012791 84.5146628,75.5012791 C80.1120465,75.5012791 75.7804767,76.6569186 71.9885581,78.8419767 C71.0853605,79.3627326 69.9289651,79.0536047 69.4082093,78.1481395 C68.8866977,77.244186 69.1973372,76.0893023 70.1020465,75.5677907 C74.4668721,73.0524419 79.4507093,71.7222093 84.5146628,71.7222093 C100.448733,71.7222093 113.412453,84.686686 113.412453,100.622267 C113.412453,116.556337 100.448733,129.520058 84.5146628,129.520058" id="Fill-3"></path>
                <path d="M78.3611279,35.982186 C72.3750814,35.982186 66.798686,33.0178837 63.4443837,28.0529419 C62.8593837,27.1882907 63.0868837,26.0137558 63.9522907,25.4295116 C64.8154302,24.8460233 65.9914767,25.0720116 66.5749651,25.9374186 C69.2263605,29.860093 73.632,32.2031163 78.3611279,32.2031163 C86.1981628,32.2031163 92.5742093,25.8278256 92.5742093,17.9915465 C92.5742093,10.1545116 86.1981628,3.77922093 78.3611279,3.77922093 C72.2246744,3.77922093 66.8024651,7.6882907 64.869093,13.5080581 C64.5418256,14.4974186 63.4723488,15.0340465 62.4807209,14.7052674 C61.4906047,14.3764884 60.9547326,13.3070116 61.2835116,12.3161395 C63.7308372,4.94922093 70.5936279,0.000151162791 78.3611279,0.000151162791 C88.2819419,0.000151162791 96.3532791,8.07073256 96.3532791,17.9915465 C96.3532791,27.9116047 88.2819419,35.982186 78.3611279,35.982186" id="Fill-5"></path>
                <path d="M37.9132151,46.0837907 C37.288157,46.0837907 36.6759477,45.773907 36.316936,45.2070465 C35.7568779,44.3257674 36.0176337,43.1580349 36.8989128,42.5994884 L63.9971105,25.400186 C64.8776337,24.8416395 66.0461221,25.1008837 66.6046686,25.9821628 C67.1639709,26.8634419 66.9032151,28.0311744 66.021936,28.5897209 L38.9244942,45.7890233 C38.6100756,45.9885581 38.2601337,46.0837907 37.9132151,46.0837907" id="Fill-7"></path>
                <path d="M62.2572267,87.2107267 C61.9443198,87.2107267 61.6276337,87.1328779 61.3351337,86.9703779 L40.4194942,75.2605523 C39.5094942,74.7511337 39.18525,73.5992733 39.6939128,72.6885174 C40.2040872,71.7770058 41.3567035,71.4557849 42.2667035,71.962936 L63.182343,83.6720058 C64.092343,84.1821802 64.4165872,85.3340407 63.9079244,86.2447965 C63.5617616,86.8630523 62.918564,87.2107267 62.2572267,87.2107267" id="Fill-9"></path>
            </g>
        </g>
    </g>
</svg>