<?xml version="1.0" encoding="UTF-8"?>
<svg width="130px" height="70px" viewBox="0 0 130 70" version="1.1" xmlns="http://www.w3.org/2000/svg" xmlns:xlink="http://www.w3.org/1999/xlink">
    <!-- Generator: Sketch 49.2 (51160) - http://www.bohemiancoding.com/sketch -->
    <title>Page 1</title>
    <desc>Created with Sketch.</desc>
    <defs></defs>
    <g id="HD-Desktop-1920---1440-px" stroke="none" stroke-width="1" fill="none" fill-rule="evenodd" opacity="0.05">
        <g id="HD-Desktop_EDU-Profile" transform="translate(-372.000000, -514.000000)" fill="#FEFEFE">
            <g id="Page-1" transform="translate(372.000000, 514.000000)">
                <path d="M127.627541,69.0819172 L32.2539108,69.0819172 C31.1104076,69.0819172 30.1838471,68.1553567 30.1838471,67.0118535 C30.1838471,65.8683503 31.1104076,64.9417898 32.2539108,64.9417898 L125.557478,64.9417898 L125.557478,4.13987898 L34.3239745,4.13987898 L34.3239745,38.2735732 C34.3239745,39.4170764 33.397414,40.3436369 32.2539108,40.3436369 C31.1104076,40.3436369 30.1838471,39.4170764 30.1838471,38.2735732 L30.1838471,2.06981529 C30.1838471,0.926312102 31.1104076,-0.000248407643 32.2539108,-0.000248407643 L127.627541,-0.000248407643 C128.771045,-0.000248407643 129.697605,0.926312102 129.697605,2.06981529 L129.697605,67.0118535 C129.697605,68.1553567 128.771045,69.0819172 127.627541,69.0819172" id="Fill-1"></path>
                <path d="M79.9416369,44.6583949 C79.4646943,44.6583949 78.9877516,44.4944459 78.6010637,44.1657197 L30.9134204,3.64794904 C30.0423376,2.90769427 29.9363503,1.60107006 30.6766051,0.729987261 C31.4160318,-0.141095541 32.7234841,-0.247082803 33.5945669,0.492343949 L79.9416369,39.8724076 L126.287051,0.492343949 C127.158962,-0.247082803 128.46393,-0.141095541 129.205013,0.729987261 C129.945268,1.60107006 129.83928,2.90769427 128.968197,3.64794904 L81.2822102,44.1657197 C80.8955223,44.4944459 80.4185796,44.6583949 79.9416369,44.6583949" id="Fill-3"></path>
                <path d="M30.3878726,34.5135096 L4.18169427,34.5135096 C3.03819108,34.5135096 2.11163057,33.586949 2.11163057,32.4434459 C2.11163057,31.2999427 3.03819108,30.3733822 4.18169427,30.3733822 L30.3878726,30.3733822 C31.5313758,30.3733822 32.4579363,31.2999427 32.4579363,32.4434459 C32.4579363,33.586949 31.5313758,34.5135096 30.3878726,34.5135096" id="Fill-5"></path>
                <path d="M30.3878726,69.0819172 L2.0702293,69.0819172 C0.926726115,69.0819172 0.000165605096,68.1553567 0.000165605096,67.0118535 C0.000165605096,65.8683503 0.926726115,64.9417898 2.0702293,64.9417898 L30.3878726,64.9417898 C31.5313758,64.9417898 32.4579363,65.8683503 32.4579363,67.0118535 C32.4579363,68.1553567 31.5313758,69.0819172 30.3878726,69.0819172" id="Fill-7"></path>
                <path d="M65.0678981,53.7052357 L17.2842038,53.7052357 C16.1407006,53.7052357 15.2141401,52.7786752 15.2141401,51.635172 C15.2141401,50.4916688 16.1407006,49.5651083 17.2842038,49.5651083 L65.0678981,49.5651083 C66.2114013,49.5651083 67.1379618,50.4916688 67.1379618,51.635172 C67.1379618,52.7786752 66.2114013,53.7052357 65.0678981,53.7052357" id="Fill-9"></path>
            </g>
        </g>
    </g>
</svg>