<?xml version="1.0" encoding="UTF-8"?>
<svg width="20px" height="20px" viewBox="0 0 20 20" version="1.1" xmlns="http://www.w3.org/2000/svg" xmlns:xlink="http://www.w3.org/1999/xlink">
    <!-- Generator: Sketch 49.2 (51160) - http://www.bohemiancoding.com/sketch -->
    <title>Page 1</title>
    <desc>Created with Sketch.</desc>
    <defs></defs>
    <g id="HD-Desktop-1920---1440-px" stroke="none" stroke-width="1" fill="none" fill-rule="evenodd">
        <g id="HD-Desktop_EDU-Stats" transform="translate(-1589.000000, -270.000000)" fill="#2D2F45">
            <g id="Page-1" transform="translate(1589.000000, 270.000000)">
                <path d="M4.74633803,5.0984507 L0.352112676,5.0984507 C0.157605634,5.0984507 0,4.94084507 0,4.74633803 L0,0.352112676 C0,0.157605634 0.157605634,0 0.352112676,0 L4.74633803,0 C4.94084507,0 5.0984507,0.157605634 5.0984507,0.352112676 L5.0984507,4.74633803 C5.0984507,4.94084507 4.94084507,5.0984507 4.74633803,5.0984507 Z" id="Path"></path>
                <path d="M12.1408451,5.0984507 L7.74647887,5.0984507 C7.55211268,5.0984507 7.3943662,4.94084507 7.3943662,4.74633803 L7.3943662,0.352112676 C7.3943662,0.157605634 7.55211268,0 7.74647887,0 L12.1408451,0 C12.3353521,0 12.4929577,0.157605634 12.4929577,0.352112676 L12.4929577,4.74633803 C12.4929577,4.94084507 12.3353521,5.0984507 12.1408451,5.0984507 Z" id="Path"></path>
                <path d="M19.5350704,5.0984507 L15.1408451,5.0984507 C14.946338,5.0984507 14.7887324,4.94084507 14.7887324,4.74633803 L14.7887324,0.352112676 C14.7887324,0.157605634 14.946338,0 15.1408451,0 L19.5350704,0 C19.7295775,0 19.8871831,0.157605634 19.8871831,0.352112676 L19.8871831,4.74633803 C19.8871831,4.94084507 19.7295775,5.0984507 19.5350704,5.0984507 Z" id="Path"></path>
                <path d="M4.74633803,12.5352113 L0.352112676,12.5352113 C0.157605634,12.5352113 0,12.3776056 0,12.1830986 L0,7.78859155 C0,7.59408451 0.157605634,7.43647887 0.352112676,7.43647887 L4.74633803,7.43647887 C4.94084507,7.43647887 5.0984507,7.59408451 5.0984507,7.78859155 L5.0984507,12.1830986 C5.0984507,12.3776056 4.94084507,12.5352113 4.74633803,12.5352113 Z" id="Path"></path>
                <path d="M12.1408451,12.5352113 L7.74647887,12.5352113 C7.55211268,12.5352113 7.3943662,12.3776056 7.3943662,12.1830986 L7.3943662,7.78859155 C7.3943662,7.59408451 7.55211268,7.43647887 7.74647887,7.43647887 L12.1408451,7.43647887 C12.3353521,7.43647887 12.4929577,7.59408451 12.4929577,7.78859155 L12.4929577,12.1830986 C12.4929577,12.3776056 12.3353521,12.5352113 12.1408451,12.5352113 Z" id="Path"></path>
                <path d="M19.5350704,12.5352113 L15.1408451,12.5352113 C14.946338,12.5352113 14.7887324,12.3776056 14.7887324,12.1830986 L14.7887324,7.78859155 C14.7887324,7.59408451 14.946338,7.43647887 15.1408451,7.43647887 L19.5350704,7.43647887 C19.7295775,7.43647887 19.8871831,7.59408451 19.8871831,7.78859155 L19.8871831,12.1830986 C19.8871831,12.3776056 19.7295775,12.5352113 19.5350704,12.5352113 Z" id="Path"></path>
                <path d="M4.74633803,19.5491549 L0.352112676,19.5491549 C0.157605634,19.5491549 0,19.3915493 0,19.1970423 L0,14.8028169 C0,14.6083099 0.157605634,14.4507042 0.352112676,14.4507042 L4.74633803,14.4507042 C4.94084507,14.4507042 5.0984507,14.6083099 5.0984507,14.8028169 L5.0984507,19.1970423 C5.0984507,19.3915493 4.94084507,19.5491549 4.74633803,19.5491549 Z" id="Path"></path>
                <path d="M12.1408451,19.5491549 L7.74647887,19.5491549 C7.55211268,19.5491549 7.3943662,19.3915493 7.3943662,19.1970423 L7.3943662,14.8028169 C7.3943662,14.6083099 7.55211268,14.4507042 7.74647887,14.4507042 L12.1408451,14.4507042 C12.3353521,14.4507042 12.4929577,14.6083099 12.4929577,14.8028169 L12.4929577,19.1970423 C12.4929577,19.3915493 12.3353521,19.5491549 12.1408451,19.5491549 Z" id="Path"></path>
                <path d="M19.5350704,19.5491549 L15.1408451,19.5491549 C14.946338,19.5491549 14.7887324,19.3915493 14.7887324,19.1970423 L14.7887324,14.8028169 C14.7887324,14.6083099 14.946338,14.4507042 15.1408451,14.4507042 L19.5350704,14.4507042 C19.7295775,14.4507042 19.8871831,14.6083099 19.8871831,14.8028169 L19.8871831,19.1970423 C19.8871831,19.3915493 19.7295775,19.5491549 19.5350704,19.5491549 Z" id="Path"></path>
            </g>
        </g>
    </g>
</svg>