<?xml version="1.0" encoding="UTF-8"?>
<svg width="11px" height="11px" viewBox="0 0 11 11" version="1.1" xmlns="http://www.w3.org/2000/svg" xmlns:xlink="http://www.w3.org/1999/xlink">
    <!-- Generator: Sketch 49.2 (51160) - http://www.bohemiancoding.com/sketch -->
    <title>Path</title>
    <desc>Created with Sketch.</desc>
    <defs></defs>
    <g id="HD-Desktop-1920---1440-px" stroke="none" stroke-width="1" fill="none" fill-rule="evenodd">
        <g id="HD-Desktop_EDU-Stats" transform="translate(-330.000000, -326.000000)" fill="#2D2F45">
            <path d="M334.354388,336.25575 C334.319115,336.25575 334.283762,336.24643 334.252426,336.227949 C334.19112,336.191873 334.153517,336.125987 334.153517,336.054879 L334.153517,331.211719 L330.182217,326.812483 C329.951537,326.556975 329.989301,326.356265 330.032367,326.259365 C330.075434,326.162464 330.19909,326 330.543303,326 L340.054705,326 C340.399078,326 340.522735,326.162545 340.565801,326.259445 C340.608788,326.356345 340.646632,326.556975 340.415791,326.812563 L336.444571,331.211638 L336.444571,335.01035 C336.444571,335.083547 336.404879,335.150799 336.340922,335.186152 L334.45161,336.230681 C334.421318,336.247474 334.387813,336.25575 334.354388,336.25575" id="Path"></path>
        </g>
    </g>
</svg>