<?xml version="1.0" encoding="UTF-8"?>
<svg width="11px" height="10px" viewBox="0 0 11 10" version="1.1" xmlns="http://www.w3.org/2000/svg" xmlns:xlink="http://www.w3.org/1999/xlink">
    <!-- Generator: Sketch 49.2 (51160) - http://www.bohemiancoding.com/sketch -->
    <title>Path</title>
    <desc>Created with Sketch.</desc>
    <defs></defs>
    <g id="UiKit" stroke="none" stroke-width="1" fill="none" fill-rule="evenodd">
        <g id="EDU-BTN_Фильтр" transform="translate(-465.000000, -585.000000)" fill="#FFFFFF">
            <path d="M469.519504,595 C469.482894,595 469.4462,594.990912 469.413676,594.972893 C469.350045,594.937716 469.311016,594.873473 469.311016,594.804138 L469.311016,590.081753 L465.189127,585.792222 C464.949699,585.543086 464.988895,585.347381 465.033595,585.252897 C465.078295,585.158413 465.20664,585 465.563905,585 L475.435975,585 C475.793406,585 475.921751,585.158491 475.966451,585.252975 C476.011068,585.347459 476.050347,585.543086 475.810752,585.7923 L471.688946,590.081674 L471.688946,593.785657 C471.688946,593.857029 471.647749,593.922603 471.581366,593.957075 L469.620412,594.975556 C469.588972,594.99193 469.554197,595 469.519504,595" id="Path"></path>
        </g>
    </g>
</svg>