<?xml version="1.0" encoding="UTF-8"?>
<svg width="19px" height="19px" viewBox="0 0 19 19" version="1.1" xmlns="http://www.w3.org/2000/svg" xmlns:xlink="http://www.w3.org/1999/xlink">
    <!-- Generator: Sketch 49.2 (51160) - http://www.bohemiancoding.com/sketch -->
    <title>Page 1 Copy 3</title>
    <desc>Created with Sketch.</desc>
    <defs>
        <polygon id="path-1" points="0 0.693502209 0 0.0591262083 18.7014547 0.0591262083 18.7014547 0.693502209 1.92720104e-16 0.693502209"></polygon>
    </defs>
    <g id="UiKit" stroke="none" stroke-width="1" fill="none" fill-rule="evenodd">
        <g id="EDU-BTN_Фильтр" transform="translate(-1256.000000, -836.000000)">
            <g id="Page-1-Copy-3" transform="translate(1256.000000, 836.000000)">
                <path d="M15.2108895,18.9729151 L4.11330627,18.9729151 C3.953564,18.9729151 3.81881715,18.8541551 3.79864319,18.6956817 L1.54220437,0.951094543 C1.5201272,0.777268566 1.64307419,0.618541342 1.81690017,0.596337294 C1.99288311,0.575655809 2.14945337,0.697333993 2.17153054,0.87103309 L4.39269663,18.3385137 L14.9247745,18.3385137 L16.5291756,2.7949187 C16.5469388,2.62058521 16.7010984,2.49142109 16.8772082,2.51210257 C17.0514148,2.52999269 17.1781682,2.68580167 17.1600243,2.86013517 L15.5263139,18.6883226 C15.5096926,18.8499681 15.3734232,18.9729151 15.2108895,18.9729151" id="Fill-1" fill="#2D2F45"></path>
                <g id="Group-5" transform="translate(0.000000, 0.067754)">
                    <mask id="mask-2" fill="white">
                        <use xlink:href="#path-1"></use>
                    </mask>
                    <g id="Clip-4"></g>
                    <path d="M18.384254,0.693502209 L0.317137248,0.693502209 C0.142042468,0.693502209 -6.34401376e-05,0.551523181 -6.34401376e-05,0.37630152 C-6.34401376e-05,0.20107986 0.142042468,0.0591008322 0.317137248,0.0591008322 L18.384254,0.0591008322 C18.5594757,0.0591008322 18.7014547,0.20107986 18.7014547,0.37630152 C18.7014547,0.551523181 18.5594757,0.693502209 18.384254,0.693502209" id="Fill-3" fill="#2D2F45" mask="url(#mask-2)"></path>
                </g>
                <path d="M6.1855403,17.4254452 C6.01031864,17.4254452 5.86833961,17.2834662 5.86833961,17.1082445 L5.86833961,2.80515794 C5.86833961,2.63006316 6.01031864,2.48795725 6.1855403,2.48795725 C6.36076196,2.48795725 6.50274099,2.63006316 6.50274099,2.80515794 L6.50274099,17.1082445 C6.50274099,17.2834662 6.36076196,17.4254452 6.1855403,17.4254452" id="Fill-6" fill="#2D2F45"></path>
                <path d="M9.33363025,14.0891283 C9.15840859,14.0891283 9.01642956,13.9471493 9.01642956,13.7719277 L9.01642956,2.71964064 C9.01642956,2.54441898 9.15840859,2.40243995 9.33363025,2.40243995 C9.50885191,2.40243995 9.65083094,2.54441898 9.65083094,2.71964064 L9.65083094,13.7719277 C9.65083094,13.9471493 9.50885191,14.0891283 9.33363025,14.0891283" id="Fill-8" fill="#2D2F45"></path>
                <path d="M12.5501214,12.754665 C12.3748997,12.754665 12.2329207,12.612686 12.2329207,12.4374644 L12.2329207,2.68531952 C12.2329207,2.51009786 12.3748997,2.36811883 12.5501214,2.36811883 C12.725343,2.36811883 12.867322,2.51009786 12.867322,2.68531952 L12.867322,12.4374644 C12.867322,12.612686 12.725343,12.754665 12.5501214,12.754665" id="Fill-10" fill="#2D2F45"></path>
                <path d="M14.8550284,4.45688537 L3.98316517,4.45688537 C3.80807039,4.45688537 3.66596448,4.31490634 3.66596448,4.13968468 C3.66596448,3.96446302 3.80807039,3.82248399 3.98316517,3.82248399 L14.8550284,3.82248399 C15.0302501,3.82248399 15.1722291,3.96446302 15.1722291,4.13968468 C15.1722291,4.31490634 15.0302501,4.45688537 14.8550284,4.45688537" id="Fill-12" fill="#2D2F45"></path>
                <path d="M14.148889,7.60486112 L4.68933003,7.60486112 C4.51410837,7.60486112 4.37212934,7.4628821 4.37212934,7.28766044 C4.37212934,7.11243877 4.51410837,6.97045975 4.68933003,6.97045975 L14.148889,6.97045975 C14.3241106,6.97045975 14.4660896,7.11243877 14.4660896,7.28766044 C14.4660896,7.4628821 14.3241106,7.60486112 14.148889,7.60486112" id="Fill-14" fill="#2D2F45"></path>
                <path d="M10.6612928,10.8213522 L4.84256334,10.8213522 C4.66734168,10.8213522 4.52536265,10.6793732 4.52536265,10.5041515 C4.52536265,10.3289299 4.66734168,10.1869509 4.84256334,10.1869509 L10.6612928,10.1869509 C10.8365144,10.1869509 10.9784935,10.3289299 10.9784935,10.5041515 C10.9784935,10.6793732 10.8365144,10.8213522 10.6612928,10.8213522" id="Fill-16" fill="#2D2F45"></path>
            </g>
        </g>
    </g>
</svg>