<?xml version="1.0" encoding="UTF-8"?>
<svg width="106px" height="100px" viewBox="0 0 106 100" version="1.1" xmlns="http://www.w3.org/2000/svg" xmlns:xlink="http://www.w3.org/1999/xlink">
    <!-- Generator: Sketch 49.2 (51160) - http://www.bohemiancoding.com/sketch -->
    <title>Page 1 Copy</title>
    <desc>Created with Sketch.</desc>
    <defs>
        <polygon id="path-1" points="71.8509677 0.143324607 71.8509677 39.3334194 0.0679980269 39.3334194 0.0679980269 0.143324607 71.8509677 0.143324607"></polygon>
    </defs>
    <g id="HD-Desktop-1920---1440-px" stroke="none" stroke-width="1" fill="none" fill-rule="evenodd" opacity="0.05">
        <g id="HD-Desktop_EDU-Balance" transform="translate(-390.000000, -253.000000)">
            <g id="Page-1-Copy" transform="translate(390.000000, 253.000000)">
                <path d="M80.9072903,99.5096774 L7.74470968,99.5096774 C3.4743871,99.5096774 0.000193548387,96.0354839 0.000193548387,91.7651613 L0.000193548387,41.6632258 C0.000193548387,37.3929032 3.4743871,33.9187097 7.74470968,33.9187097 L80.9072903,33.9187097 C85.1776129,33.9187097 88.6518065,37.3929032 88.6518065,41.6632258 L88.6518065,56.8283871 C88.6518065,57.7193548 87.929871,58.4412903 87.0389032,58.4412903 C86.1479355,58.4412903 85.426,57.7193548 85.426,56.8283871 L85.426,41.6632258 C85.426,39.1716129 83.3989032,37.1445161 80.9072903,37.1445161 L7.74470968,37.1445161 C5.25309677,37.1445161 3.226,39.1716129 3.226,41.6632258 L3.226,91.7651613 C3.226,94.2567742 5.25309677,96.283871 7.74470968,96.283871 L80.9072903,96.283871 C83.3989032,96.283871 85.426,94.2567742 85.426,91.7651613 L85.426,76.6012903 C85.426,75.7103226 86.1479355,74.9883871 87.0389032,74.9883871 C87.929871,74.9883871 88.6518065,75.7103226 88.6518065,76.6012903 L88.6518065,91.7651613 C88.6518065,96.0354839 85.1776129,99.5096774 80.9072903,99.5096774" id="Fill-1" fill="#FEFEFE"></path>
                <path d="M64.3296774,58.439871 C61.6612903,58.439871 59.4909677,60.6101935 59.4909677,63.2785806 L59.4909677,70.1495484 C59.4909677,72.8179355 61.6612903,74.9882581 64.3296774,74.9882581 L84.3129032,74.9882581 C86.9806452,74.9882581 89.1516129,72.8179355 89.1516129,70.1495484 L89.1516129,63.2785806 C89.1516129,60.6101935 86.9806452,58.439871 84.3129032,58.439871 L64.3296774,58.439871 Z M84.3129032,78.2140645 L64.3296774,78.2140645 C59.8825806,78.2140645 56.2651613,74.5966452 56.2651613,70.1495484 L56.2651613,63.2785806 C56.2651613,58.8314839 59.8825806,55.2140645 64.3296774,55.2140645 L84.3129032,55.2140645 C88.7593548,55.2140645 92.3774194,58.8314839 92.3774194,63.2785806 L92.3774194,70.1495484 C92.3774194,74.5966452 88.7593548,78.2140645 84.3129032,78.2140645 Z" id="Fill-3" fill="#FEFEFE"></path>
                <path d="M71.0294839,66.7148387 C71.0294839,64.7251613 69.4165806,63.1122581 67.4275484,63.1122581 C65.4385161,63.1122581 63.8256129,64.7251613 63.8256129,66.7148387 C63.8256129,68.7032258 65.4385161,70.316129 67.4275484,70.316129 C69.4165806,70.316129 71.0294839,68.7032258 71.0294839,66.7148387" id="Fill-5" fill="#FEFEFE"></path>
                <path d="M82.1370968,82.0852903 C81.246129,82.0852903 80.5241935,81.3633548 80.5241935,80.4723871 L80.5241935,76.6014194 C80.5241935,75.7104516 81.246129,74.9885161 82.1370968,74.9885161 C83.0280645,74.9885161 83.75,75.7104516 83.75,76.6014194 L83.75,80.4723871 C83.75,81.3633548 83.0280645,82.0852903 82.1370968,82.0852903" id="Fill-7" fill="#FEFEFE"></path>
                <path d="M20.4703226,43.5494839 L12.5522581,43.5494839 C11.6612903,43.5494839 10.9393548,42.8275484 10.9393548,41.9365806 C10.9393548,41.0456129 11.6612903,40.3236774 12.5522581,40.3236774 L20.4703226,40.3236774 C21.3612903,40.3236774 22.0832258,41.0456129 22.0832258,41.9365806 C22.0832258,42.8275484 21.3612903,43.5494839 20.4703226,43.5494839 M36.3064516,43.5494839 L28.3883871,43.5494839 C27.4974194,43.5494839 26.7754839,42.8275484 26.7754839,41.9365806 C26.7754839,41.0456129 27.4974194,40.3236774 28.3883871,40.3236774 L36.3064516,40.3236774 C37.1974194,40.3236774 37.9193548,41.0456129 37.9193548,41.9365806 C37.9193548,42.8275484 37.1974194,43.5494839 36.3064516,43.5494839 M52.1432258,43.5494839 L44.2245161,43.5494839 C43.3335484,43.5494839 42.6116129,42.8275484 42.6116129,41.9365806 C42.6116129,41.0456129 43.3335484,40.3236774 44.2245161,40.3236774 L52.1432258,40.3236774 C53.0341935,40.3236774 53.756129,41.0456129 53.756129,41.9365806 C53.756129,42.8275484 53.0341935,43.5494839 52.1432258,43.5494839 M67.9793548,43.5494839 L60.0612903,43.5494839 C59.1703226,43.5494839 58.4483871,42.8275484 58.4483871,41.9365806 C58.4483871,41.0456129 59.1703226,40.3236774 60.0612903,40.3236774 L67.9793548,40.3236774 C68.8703226,40.3236774 69.5922581,41.0456129 69.5922581,41.9365806 C69.5922581,42.8275484 68.8703226,43.5494839 67.9793548,43.5494839 M82.1316129,46.614 C81.2774194,46.614 80.5651613,45.9443226 80.5219355,45.0810968 C80.48,44.2365806 79.7574194,43.5494839 78.9109677,43.5494839 L75.8974194,43.5494839 C75.0064516,43.5494839 74.2845161,42.8275484 74.2845161,41.9365806 C74.2845161,41.0456129 75.0064516,40.3236774 75.8974194,40.3236774 L78.9109677,40.3236774 C81.4922581,40.3236774 83.6154839,42.3430323 83.743871,44.9210968 C83.7883871,45.8107742 83.1032258,46.5675484 82.2135484,46.6120645 C82.1858065,46.6133548 82.1587097,46.614 82.1316129,46.614 M8.55354839,56.7727097 C7.66258065,56.7727097 6.94064516,56.0514194 6.94064516,55.1598065 L6.94064516,47.2423871 C6.94064516,46.3514194 7.66258065,45.6294839 8.55354839,45.6294839 C9.44451613,45.6294839 10.1664516,46.3514194 10.1664516,47.2423871 L10.1664516,55.1598065 C10.1664516,56.0514194 9.44451613,56.7727097 8.55354839,56.7727097 M8.55354839,72.6094839 C7.66258065,72.6094839 6.94064516,71.8875484 6.94064516,70.9965806 L6.94064516,63.0785161 C6.94064516,62.1875484 7.66258065,61.4656129 8.55354839,61.4656129 C9.44451613,61.4656129 10.1664516,62.1875484 10.1664516,63.0785161 L10.1664516,70.9965806 C10.1664516,71.8875484 9.44451613,72.6094839 8.55354839,72.6094839 M8.55354839,88.4462581 C7.66258065,88.4462581 6.94064516,87.7243226 6.94064516,86.8333548 L6.94064516,78.9146452 C6.94064516,78.0243226 7.66258065,77.3017419 8.55354839,77.3017419 C9.44451613,77.3017419 10.1664516,78.0243226 10.1664516,78.9146452 L10.1664516,86.8333548 C10.1664516,87.7243226 9.44451613,88.4462581 8.55354839,88.4462581 M20.8116129,93.4094839 L12.8935484,93.4094839 C12.0025806,93.4094839 11.2806452,92.6875484 11.2806452,91.7965806 C11.2806452,90.9056129 12.0025806,90.1836774 12.8935484,90.1836774 L20.8116129,90.1836774 C21.7025806,90.1836774 22.4245161,90.9056129 22.4245161,91.7965806 C22.4245161,92.6875484 21.7025806,93.4094839 20.8116129,93.4094839 M36.6483871,93.4094839 L28.7296774,93.4094839 C27.8387097,93.4094839 27.1167742,92.6875484 27.1167742,91.7965806 C27.1167742,90.9056129 27.8387097,90.1836774 28.7296774,90.1836774 L36.6483871,90.1836774 C37.5393548,90.1836774 38.2612903,90.9056129 38.2612903,91.7965806 C38.2612903,92.6875484 37.5393548,93.4094839 36.6483871,93.4094839 M52.4845161,93.4094839 L44.5664516,93.4094839 C43.6754839,93.4094839 42.9535484,92.6875484 42.9535484,91.7965806 C42.9535484,90.9056129 43.6754839,90.1836774 44.5664516,90.1836774 L52.4845161,90.1836774 C53.3754839,90.1836774 54.0974194,90.9056129 54.0974194,91.7965806 C54.0974194,92.6875484 53.3754839,93.4094839 52.4845161,93.4094839 M68.3206452,93.4094839 L60.4032258,93.4094839 C59.5122581,93.4094839 58.7903226,92.6875484 58.7903226,91.7965806 C58.7903226,90.9056129 59.5122581,90.1836774 60.4032258,90.1836774 L68.3206452,90.1836774 C69.2116129,90.1836774 69.9335484,90.9056129 69.9335484,91.7965806 C69.9335484,92.6875484 69.2116129,93.4094839 68.3206452,93.4094839 M78.9109677,93.4094839 L76.2393548,93.4094839 C75.3483871,93.4094839 74.6264516,92.6875484 74.6264516,91.7965806 C74.6264516,90.9056129 75.3483871,90.1836774 76.2393548,90.1836774 L78.9109677,90.1836774 C79.8006452,90.1836774 80.523871,89.4604516 80.523871,88.5707742 L80.523871,88.3907742 C80.523871,87.4998065 81.2464516,86.777871 82.1367742,86.777871 C83.0277419,86.777871 83.7496774,87.4998065 83.7496774,88.3907742 L83.7496774,88.5707742 C83.7496774,91.2391613 81.5793548,93.4094839 78.9109677,93.4094839" id="Fill-9" fill="#FEFEFE"></path>
                <path d="M82.1370968,58.439871 C81.246129,58.439871 80.5241935,57.7185806 80.5241935,56.8269677 L80.5241935,52.956 C80.5241935,52.0650323 81.246129,51.3430968 82.1370968,51.3430968 C83.0280645,51.3430968 83.75,52.0650323 83.75,52.956 L83.75,56.8269677 C83.75,57.7185806 83.0280645,58.439871 82.1370968,58.439871" id="Fill-11" fill="#FEFEFE"></path>
                <g id="Group-15" transform="translate(34.193548, 11.767742)">
                    <mask id="mask-2" fill="white">
                        <use xlink:href="#path-1"></use>
                    </mask>
                    <g id="Clip-14"></g>
                    <path d="M53.4454194,39.3334194 C52.9176774,39.3334194 52.4009032,39.0753548 52.091871,38.599871 C51.6060645,37.8527742 51.8176774,36.8540645 52.5647742,36.3682581 L68.0067097,26.3263226 L55.9705806,7.816 L35.4789677,3.47277419 L2.56025806,24.8779355 C1.81316129,25.3630968 0.813806452,25.152129 0.328645161,24.4050323 C-0.156516129,23.6579355 0.0550967742,22.6592258 0.801548387,22.1734194 L34.2809032,0.404387097 C34.6396129,0.17083871 35.0757419,0.0889032258 35.4944516,0.179225806 L57.2925161,4.79987097 C57.7112258,4.8876129 58.0770323,5.13922581 58.3105806,5.49793548 L71.5905806,25.919871 C72.0757419,26.6669677 71.864129,27.6656774 71.1176774,28.1514839 L54.3228387,39.0727742 C54.0512258,39.2489032 53.7467097,39.3334194 53.4454194,39.3334194" id="Fill-13" fill="#FEFEFE" mask="url(#mask-2)"></path>
                </g>
                <path d="M72.8279355,15.9096129 L78.4156774,24.5044516 L87.0085806,18.9154194 L72.8279355,15.9096129 Z M77.9427742,28.3489677 C77.8311613,28.3489677 77.7195484,28.338 77.6085806,28.314129 C77.189871,28.2257419 76.8240645,27.974129 76.5905161,27.6154194 L68.0014839,14.4031613 C67.646,13.8560645 67.6543871,13.1496129 68.0240645,12.6115484 C68.3924516,12.0734839 69.0505161,11.8089677 69.6879355,11.9463871 L91.486,16.5676774 C92.1240645,16.7025161 92.6182581,17.2089677 92.7376129,17.8502581 C92.8563226,18.4915484 92.5776129,19.141871 92.0311613,19.4973548 L78.8227742,28.0883226 C78.5582581,28.2599355 78.2524516,28.3489677 77.9427742,28.3489677 Z" id="Fill-16" fill="#FEFEFE"></path>
                <path d="M48.4618065,36.9063871 C47.9340645,36.9063871 47.4172903,36.6483226 47.1082581,36.1728387 C46.6224516,35.4257419 46.8340645,34.4270323 47.5811613,33.9412258 C51.3127742,31.5147742 55.6269677,28.6302581 59.7992258,25.8412258 C63.9863226,23.041871 68.3166452,20.1470323 72.072129,17.7050968 C72.8192258,17.2199355 73.8179355,17.4309032 74.3030968,18.178 C74.7889032,18.9250968 74.5772903,19.9238065 73.8301935,20.4096129 C70.092129,22.8399355 65.7714839,25.7289677 61.592129,28.5231613 C57.4114839,31.3173548 53.0882581,34.2070323 49.3392258,36.6457419 C49.0676129,36.821871 48.7630968,36.9063871 48.4618065,36.9063871" id="Fill-18" fill="#FEFEFE"></path>
                <path d="M88.2973548,42.8022581 C87.7696129,42.8022581 87.2528387,42.5441935 86.9438065,42.0687097 C86.458,41.3216129 86.6696129,40.3229032 87.4167097,39.8370968 L93.2263871,36.0596774 L87.6767097,27.5248387 C87.1909032,26.7777419 87.4025161,25.7790323 88.1496129,25.2932258 C88.8967097,24.8074194 89.8954194,25.0203226 90.3805806,25.766129 L96.8096129,35.6525806 C97.2954194,36.3996774 97.0838065,37.3983871 96.3367097,37.8841935 L89.1747742,42.5416129 C88.9031613,42.7183871 88.5986452,42.8022581 88.2973548,42.8022581" id="Fill-20" fill="#FEFEFE"></path>
                <path d="M14.9770323,37.1451613 C14.8331613,37.1451613 14.6873548,37.1258065 14.5421935,37.0851613 C13.684129,36.8451613 13.1828387,35.9554839 13.4228387,35.0974194 C15.5860645,27.3541935 16.5809032,21.383871 17.8402581,13.8258065 L17.8776774,13.6058065 C17.9454194,13.1967742 18.1686452,12.8296774 18.5002581,12.5806452 C20.6654194,10.9567742 23.0828387,9.42451613 25.4202581,7.94258065 C28.7538065,5.83032258 32.1996129,3.64580645 35.1454194,1.07483871 C36.2512258,0 37.4550968,0 38.1776774,0 C38.2602581,0 38.3421935,0.0064516129 38.4234839,0.0187096774 C46.7738065,1.30322581 61.7215484,5.02516129 62.4009032,5.19483871 L62.4312258,5.20193548 C62.8512258,5.31483871 63.1892903,5.58451613 63.3976774,5.93225806 C63.3983226,5.93354839 63.3996129,5.93483871 63.4002581,5.93612903 C63.4009032,5.93806452 63.4021935,5.93935484 63.4028387,5.94064516 C63.6021935,6.27806452 63.6789677,6.68774194 63.5905806,7.09870968 L60.7538065,20.4767742 C60.5686452,21.3483871 59.7150968,21.903871 58.8409032,21.72 C57.9699355,21.5354839 57.4131613,20.6793548 57.5983226,19.8077419 L60.1021935,7.99741935 C60.0047742,7.96774194 59.911871,7.92967742 59.824129,7.88387097 C55.5409032,6.84258065 44.611871,4.24645161 38.0563871,3.22645161 C37.5667097,3.23032258 37.5202581,3.26064516 37.3828387,3.39806452 C37.3576774,3.42322581 37.3312258,3.4483871 37.3047742,3.47225806 C34.164129,6.21935484 30.5970323,8.48064516 27.1473548,10.6670968 C24.9550968,12.0567742 22.8738065,13.376129 20.951871,14.7793548 C19.7092903,22.2348387 18.6989677,28.2025806 16.5292903,35.9658065 C16.3305806,36.6780645 15.6821935,37.1451613 14.9770323,37.1451613" id="Fill-22" fill="#FEFEFE"></path>
                <path d="M23.6460645,13.0851613 L33.6725161,15.2109677 L35.7970323,5.18451613 L23.6460645,13.0851613 Z M34.9157419,18.736129 C34.804129,18.736129 34.691871,18.7245161 34.5809032,18.7006452 L19.168,15.4341935 C18.5292903,15.2993548 18.0357419,14.7922581 17.9163871,14.1503226 C17.7976774,13.5090323 18.0763871,12.8587097 18.6228387,12.503871 L37.3028387,0.357419355 C37.8499355,0.00322580645 38.5570323,0.0109677419 39.0950968,0.38 C39.6331613,0.749032258 39.8957419,1.40580645 39.7602581,2.04451613 L36.4938065,17.4574194 C36.4047742,17.876129 36.1531613,18.2419355 35.7950968,18.4748387 C35.5312258,18.6464516 35.2254194,18.736129 34.9157419,18.736129 Z" id="Fill-24" fill="#FEFEFE"></path>
                <path d="M21.6548387,37.1451613 C21.543871,37.1451613 21.4316129,37.1329032 21.3187097,37.1090323 C20.4477419,36.9245161 19.8909677,36.0690323 20.0754839,35.1967742 L24.3793548,14.8896774 C24.5645161,14.0187097 25.4219355,13.4612903 26.2916129,13.6464516 C27.1632258,13.8309677 27.7193548,14.6870968 27.5348387,15.5587097 L23.2309677,35.8664516 C23.0703226,36.6245161 22.4006452,37.1451613 21.6548387,37.1451613" id="Fill-26" fill="#FEFEFE"></path>
                <path d="M53.0069032,19.047871 C52.8959355,19.047871 52.7836774,19.0356129 52.6707742,19.0117419 C51.7991613,18.8272258 51.2430323,17.9710968 51.4275484,17.0994839 L52.3159355,12.9091613 L42.3572258,10.7988387 C41.4856129,10.6143226 40.9288387,9.75819355 41.1133548,8.88658065 C41.2991613,8.01496774 42.1565806,7.46077419 43.0256129,7.64335484 L54.5623871,10.087871 C54.9810968,10.1762581 55.3469032,10.427871 55.5804516,10.7859355 C55.814,11.1452903 55.8946452,11.5820645 55.8062581,12.000129 L54.5830323,17.7691613 C54.4223871,18.5272258 53.7527097,19.0472258 53.0069032,19.047871" id="Fill-28" fill="#FEFEFE"></path>
            </g>
        </g>
    </g>
</svg>