<?xml version="1.0" encoding="UTF-8"?>
<svg width="100px" height="109px" viewBox="0 0 100 109" version="1.1" xmlns="http://www.w3.org/2000/svg" xmlns:xlink="http://www.w3.org/1999/xlink">
    <!-- Generator: Sketch 49.2 (51160) - http://www.bohemiancoding.com/sketch -->
    <title>Page 1</title>
    <desc>Created with Sketch.</desc>
    <defs>
        <polygon id="path-1" points="0.259144059 0.262857143 30.8452857 0.262857143 30.8452857 30.0205 0.259144059 30.0205 0.259144059 0.262857143"></polygon>
    </defs>
    <g id="HD-Desktop-1920---1440-px" stroke="none" stroke-width="1" fill="none" fill-rule="evenodd" opacity="0.05">
        <g id="HD-Desktop_EDU-Balance" transform="translate(-393.000000, -494.000000)">
            <g id="Page-1" transform="translate(393.000000, 494.000000)">
                <path d="M67.1058571,72.5266429 C66.733,72.5266429 66.3565714,72.4102143 66.0351429,72.1687857 L48.6365714,59.1037857 C48.1872857,58.7666429 47.923,58.2373571 47.923,57.6759286 L47.923,36.0816429 C47.923,35.0952143 48.7222857,34.2959286 49.7087143,34.2959286 C50.6944286,34.2959286 51.4944286,35.0952143 51.4944286,36.0816429 L51.4944286,56.7837857 L68.1794286,69.3130714 C68.968,69.9052143 69.1272857,71.0245 68.5351429,71.8130714 C68.1844286,72.2802143 67.6487143,72.5266429 67.1058571,72.5266429" id="Fill-1" fill="#FEFEFE"></path>
                <path d="M49.7084286,28.7892143 C33.7805714,28.7892143 20.8234286,41.7477857 20.8234286,57.6756429 C20.8234286,73.6042143 33.7805714,86.5627857 49.7084286,86.5627857 C65.6362857,86.5627857 78.5941429,73.6042143 78.5941429,57.6756429 C78.5941429,41.7477857 65.6362857,28.7892143 49.7084286,28.7892143 M49.7084286,90.1342143 C31.8112857,90.1342143 17.252,75.5735 17.252,57.6756429 C17.252,39.7785 31.8112857,25.2177857 49.7084286,25.2177857 C67.6055714,25.2177857 82.1655714,39.7785 82.1655714,57.6756429 C82.1655714,75.5735 67.6055714,90.1342143 49.7084286,90.1342143" id="Fill-3" fill="#FEFEFE"></path>
                <path d="M82.4142143,82.3411429 C82.0599286,82.3411429 81.7027857,82.2368571 81.3899286,82.0175714 C80.5835,81.4518571 80.3870714,80.3375714 80.9535,79.5297143 C85.4556429,73.1082857 87.8356429,65.5511429 87.8356429,57.6761429 C87.8356429,36.6518571 70.7320714,19.5482857 49.7085,19.5482857 C48.7220714,19.5482857 47.9227857,18.749 47.9227857,17.7625714 C47.9227857,16.7761429 48.7220714,15.9768571 49.7085,15.9768571 C72.7006429,15.9768571 91.4070714,34.6825714 91.4070714,57.6761429 C91.4070714,66.2882857 88.8035,74.5547143 83.8777857,81.5811429 C83.5299286,82.0761429 82.9763571,82.3411429 82.4142143,82.3411429" id="Fill-5" fill="#FEFEFE"></path>
                <path d="M49.7084286,99.3751429 C26.7162857,99.3751429 8.01057143,80.6694286 8.01057143,57.6758571 C8.01057143,38.6644286 20.8484286,22.063 39.2298571,17.3037143 C40.1798571,17.0558571 41.1591429,17.6301429 41.4062857,18.5844286 C41.6541429,19.5387143 41.0798571,20.5137143 40.1255714,20.7601429 C23.3198571,25.1115714 11.582,40.2922857 11.582,57.6758571 C11.582,78.7001429 28.6848571,95.8037143 49.7084286,95.8037143 C58.8427143,95.8037143 67.6777143,92.5237143 74.587,86.5687143 C75.3341429,85.9258571 76.462,86.008 77.1048571,86.7558571 C77.7491429,87.5022857 77.6655714,88.6301429 76.9184286,89.2737143 C69.362,95.788 59.6984286,99.3751429 49.7084286,99.3751429" id="Fill-7" fill="#FEFEFE"></path>
                <g id="Group-11" transform="translate(68.571429, 0.451429)">
                    <mask id="mask-2" fill="white">
                        <use xlink:href="#path-1"></use>
                    </mask>
                    <g id="Clip-10"></g>
                    <path d="M4.18314286,11.6762143 C10.9067143,15.0862143 16.8367143,19.9833571 21.4731429,25.9540714 C25.0367143,23.8219286 27.2738571,19.9497857 27.2738571,15.7412143 C27.2738571,9.17621429 21.9331429,3.83407143 15.3681429,3.83407143 C10.286,3.83407143 5.86742857,6.9955 4.18314286,11.6762143 M20.9545714,30.0205 C20.3981429,30.0205 19.856,29.7590714 19.5117143,29.2862143 C14.801,22.8269286 8.49885714,17.6226429 1.286,14.2355 C0.523142857,13.8776429 0.114571429,13.0340714 0.306,12.2133571 C1.94957143,5.17692857 8.14385714,0.262642857 15.3681429,0.262642857 C23.9024286,0.262642857 30.8452857,7.20621429 30.8452857,15.7412143 C30.8452857,21.8276429 27.2495714,27.3712143 21.6845714,29.8640714 C21.4488571,29.9697857 21.2002857,30.0205 20.9545714,30.0205" id="Fill-9" fill="#FEFEFE" mask="url(#mask-2)"></path>
                </g>
                <g id="Group-14" transform="translate(0.000000, 0.451429)">
                    <polygon id="Clip-13" points="0 30.0187143 0 0.262857143 99.4171429 0.262857143 99.4171429 108.571429 0 108.571429 0 30.0187143 30.586317 30.0187143 30.586317 0.263 -7.14285714e-05 0.263 -7.14285714e-05 30.0187143"></polygon>
                    <path d="M15.4799286,3.83442857 C8.9135,3.83442857 3.57135714,9.17657143 3.57135714,15.7415714 C3.57135714,19.9494286 5.8085,23.8201429 9.37278571,25.9537143 C14.0106429,19.9815714 19.9406429,15.0851429 26.6627857,11.6765714 C24.9792143,6.99585714 20.5613571,3.83442857 15.4799286,3.83442857 M9.89064286,30.0187143 C9.64492857,30.0187143 9.39635714,29.9687143 9.16064286,29.8622857 C3.59564286,27.3694286 -7.14285714e-05,21.8265714 -7.14285714e-05,15.7415714 C-7.14285714e-05,7.20657143 6.94421429,0.263 15.4799286,0.263 C22.7042143,0.263 28.8970714,5.17728571 30.5392143,12.213 C30.7313571,13.0344286 30.3220714,13.878 29.5592143,14.2358571 C22.3485,17.6215714 16.0463571,22.8258571 11.3335,29.2858571 C10.9892143,29.7587143 10.4470714,30.0187143 9.89064286,30.0187143" id="Fill-12" fill="#FEFEFE"></path>
                </g>
                <path d="M21.0421429,109.022857 C20.0107143,109.022857 18.9821429,108.797143 18.02,108.346429 C14.4521429,106.677143 12.9071429,102.417143 14.5757143,98.85 C14.6092857,98.7792857 14.6471429,98.7107143 14.6885714,98.645 L22.1592857,86.9592857 C22.6921429,86.1285714 23.7957143,85.8857143 24.6264286,86.4171429 C25.4571429,86.9485714 25.7,88.0528571 25.1685714,88.8835714 L17.7678571,100.46 C17.005,102.222143 17.7814286,104.291429 19.5335714,105.110714 C20.3985714,105.515 21.3685714,105.558571 22.2635714,105.233571 C23.16,104.908571 23.8764286,104.253571 24.28,103.39 C24.32,103.304286 24.3671429,103.222143 24.4207143,103.143571 L30.7914286,93.7571429 L31.1214286,93.0535714 C31.5392857,92.1607143 32.6007143,91.7735714 33.4957143,92.1928571 C34.3892857,92.6107143 34.7742857,93.6742857 34.3557143,94.5671429 L33.9657143,95.4 C33.9257143,95.4857143 33.8792857,95.5678571 33.8257143,95.6457143 L27.45,105.04 C26.6307143,106.7 25.2264286,107.958571 23.4814286,108.591429 C22.6864286,108.88 21.8628571,109.022857 21.0421429,109.022857" id="Fill-15" fill="#FEFEFE"></path>
                <path d="M78.3747143,109.022857 C77.554,109.022857 76.7304286,108.88 75.9354286,108.591429 C74.1904286,107.958571 72.7861429,106.7 71.9668571,105.04 L65.5911429,95.6457143 C65.5375714,95.5678571 65.4911429,95.4857143 65.4504286,95.4 L65.0618571,94.57 C64.644,93.6771429 65.029,92.6135714 65.9225714,92.195 C66.8175714,91.7778571 67.879,92.1628571 68.2975714,93.0557143 L68.6254286,93.7578571 L74.9968571,103.143571 C75.0497143,103.222143 75.0968571,103.304286 75.1368571,103.39 C75.5404286,104.253571 76.2568571,104.908571 77.1532857,105.233571 C78.049,105.559286 79.019,105.515714 79.8832857,105.110714 C81.6332857,104.292857 82.4097143,102.227857 81.6518571,100.466429 L74.6254286,89.685 C74.5804286,89.615 74.5397143,89.5421429 74.504,89.4664286 L74.1347143,88.6785714 C73.7168571,87.7857143 74.1025714,86.7221429 74.9961429,86.3035714 C75.8904286,85.8864286 76.9518571,86.2714286 77.3704286,87.1642857 L77.6861429,87.8392857 L84.7197143,98.6314286 C84.7647143,98.7014286 84.8054286,98.7742857 84.8411429,98.85 C86.5097143,102.417143 84.9647143,106.677143 81.3968571,108.346429 C80.4347143,108.796429 79.4061429,109.022857 78.3747143,109.022857" id="Fill-17" fill="#FEFEFE"></path>
                <path d="M58.5477143,5.9795 L40.8691429,5.9795 C39.8827143,5.9795 39.0834286,5.18021429 39.0834286,4.19378571 C39.0834286,3.20735714 39.8827143,2.40807143 40.8691429,2.40807143 L58.5477143,2.40807143 C59.5341429,2.40807143 60.3334286,3.20735714 60.3334286,4.19378571 C60.3334286,5.18021429 59.5341429,5.9795 58.5477143,5.9795" id="Fill-19" fill="#FEFEFE"></path>
                <path d="M49.7084286,18.8366429 C48.722,18.8366429 47.9227143,18.0373571 47.9227143,17.0509286 L47.9227143,4.19378571 C47.9227143,3.20735714 48.722,2.40807143 49.7084286,2.40807143 C50.6948571,2.40807143 51.4941429,3.20735714 51.4941429,4.19378571 L51.4941429,17.0509286 C51.4941429,18.0373571 50.6948571,18.8366429 49.7084286,18.8366429" id="Fill-21" fill="#FEFEFE"></path>
            </g>
        </g>
    </g>
</svg>