<?xml version="1.0" encoding="UTF-8"?>
<svg width="100px" height="90px" viewBox="0 0 100 90" version="1.1" xmlns="http://www.w3.org/2000/svg" xmlns:xlink="http://www.w3.org/1999/xlink">
    <!-- Generator: Sketch 49.2 (51160) - http://www.bohemiancoding.com/sketch -->
    <title>Page 1</title>
    <desc>Created with Sketch.</desc>
    <defs>
        <polygon id="path-1" points="49.8064692 0.10797546 99.6128834 0.10797546 99.6128834 88.9570552 49.8064692 88.9570552 5.50472611e-05 88.9570552 5.50472611e-05 0.10797546"></polygon>
    </defs>
    <g id="HD-Desktop-1920---1440-px" stroke="none" stroke-width="1" fill="none" fill-rule="evenodd">
        <g id="HD-Desktop_EDU-Balance" transform="translate(-1427.000000, -246.000000)">
            <g id="Page-1" transform="translate(1427.000000, 246.000000)">
                <path d="M49.8064417,68.9200613 C47.8180982,68.9200613 46.2003067,70.5378528 46.2003067,72.5255828 C46.2003067,74.5145399 47.8180982,76.1323313 49.8064417,76.1323313 C51.7947853,76.1323313 53.4125767,74.5145399 53.4125767,72.5255828 C53.4125767,70.5378528 51.7947853,68.9200613 49.8064417,68.9200613 M49.8064417,79.199816 C46.1266871,79.199816 43.1328221,76.2059509 43.1328221,72.5255828 C43.1328221,68.8464417 46.1266871,65.8525767 49.8064417,65.8525767 C53.4861963,65.8525767 56.4800613,68.8464417 56.4800613,72.5255828 C56.4800613,76.2059509 53.4861963,79.199816 49.8064417,79.199816" id="Fill-1" fill="#FCB528"></path>
                <path d="M49.8064417,21.4027607 C47.8180982,21.4027607 46.2003067,23.0205521 46.2003067,25.0082822 C46.2003067,26.5506135 48.0266871,39.1904908 49.8064417,51.0242331 C51.5861963,39.1904908 53.4125767,26.5506135 53.4125767,25.0082822 C53.4125767,23.0205521 51.7947853,21.4027607 49.8064417,21.4027607 M49.8064417,62.752454 C49.05,62.752454 48.4058282,62.2009202 48.2904908,61.452454 C47.7628834,58.0248466 43.1328221,27.8831288 43.1328221,25.0082822 C43.1328221,21.3291411 46.1266871,18.3352761 49.8064417,18.3352761 C53.4861963,18.3352761 56.4800613,21.3291411 56.4800613,25.0082822 C56.4800613,27.8831288 51.85,58.0248466 51.3223926,61.452454 C51.2070552,62.2009202 50.5628834,62.752454 49.8064417,62.752454" id="Fill-3" fill="#FCB528"></path>
                <g id="Group-7" transform="translate(0.000000, 0.505521)">
                    <mask id="mask-2" fill="white">
                        <use xlink:href="#path-1"></use>
                    </mask>
                    <g id="Clip-6"></g>
                    <path d="M89.3045399,88.9570552 L10.3082209,88.9570552 C5.9597546,88.9570552 2.66773006,87.402454 1.03705521,84.5779141 C-0.593006135,81.7546012 -0.293619632,78.1251534 1.8806135,74.3588957 L20.2720245,42.504908 C20.6953374,41.7711656 21.6346012,41.5208589 22.3671166,41.9435583 C23.1002454,42.3674847 23.3517791,43.3055215 22.9284663,44.0386503 L4.53705521,75.892638 C2.93398773,78.6693252 2.63460123,81.209816 3.69349693,83.0441718 C4.75361963,84.8797546 7.10269939,85.8895706 10.3082209,85.8895706 L89.3045399,85.8895706 C92.5106748,85.8895706 94.8597546,84.8797546 95.9192638,83.0441718 C96.978773,81.209816 96.6793865,78.6693252 95.076319,75.892638 L55.5781595,7.4803681 C53.975092,4.70429448 51.9253988,3.17546012 49.8063804,3.17546012 C47.687362,3.17546012 45.6376687,4.70429448 44.0352147,7.4803681 L29.0757055,33.392638 C28.6523926,34.1263804 27.7119018,34.3773006 26.9806135,33.9539877 C26.2474847,33.5300613 25.9959509,32.592638 26.4192638,31.8588957 L41.378773,5.94662577 C43.5523926,2.18220859 46.5456442,0.10797546 49.8063804,0.10797546 C53.0677301,0.10797546 56.0603681,2.18159509 58.2346012,5.94662577 L97.7327607,74.3588957 C99.9069939,78.1251534 100.20638,81.7546012 98.5757055,84.5779141 C96.9450307,87.402454 93.6530061,88.9570552 89.3045399,88.9570552" id="Fill-5" fill="#FCB528" mask="url(#mask-2)"></path>
                </g>
            </g>
        </g>
    </g>
</svg>