<?xml version="1.0" encoding="UTF-8"?>
<svg width="176px" height="164px" viewBox="0 0 176 164" version="1.1" xmlns="http://www.w3.org/2000/svg" xmlns:xlink="http://www.w3.org/1999/xlink">
    <!-- Generator: Sketch 49.2 (51160) - http://www.bohemiancoding.com/sketch -->
    <title>Page 1 Copy 9</title>
    <desc>Created with Sketch.</desc>
    <defs>
        <polygon id="path-1" points="0.325461854 0.775883018 88.9821057 0.775883018 88.9821057 163.6884 0.325461854 163.6884"></polygon>
        <polygon id="path-3" points="0 0.0687491282 0 60.0190802 45.9957312 60.0190802 91.9914624 60.0190802 91.9914624 0.0687491282"></polygon>
    </defs>
    <g id="HD-Desktop-1920---1440-px" stroke="none" stroke-width="1" fill="none" fill-rule="evenodd">
        <g id="HD-Desktop_EDU-Guide" transform="translate(-411.000000, -879.000000)">
            <g id="Page-1-Copy-9" transform="translate(411.465150, 878.610172)">
                <g id="Group-3" transform="translate(86.209224, 0.315373)">
                    <mask id="mask-2" fill="white">
                        <use xlink:href="#path-1"></use>
                    </mask>
                    <g id="Clip-2"></g>
                    <path d="M68.7650605,27.5329346 L83.1838261,27.9465206 C81.9081478,18.6217381 78.5743607,7.13735989 74.1285838,6.28290644 C72.4327719,8.43704579 70.5863668,16.8200744 68.7650605,27.5329346 M3.05289779,163.688946 C2.42651685,163.688946 1.79686213,163.473969 1.2817893,163.035284 C0.135970498,162.055336 0.000654753602,160.333334 0.979511388,159.188606 C5.67627722,153.689767 6.40087121,141.804898 7.04034723,131.316837 C7.90462198,117.133782 8.72197273,103.738615 19.1161862,103.738615 C28.4376949,103.738615 30.8155418,113.196531 32.9129358,121.541365 C35.1281855,130.352166 36.8436399,135.701503 41.9856382,135.701503 C42.3250188,135.613112 45.7100949,134.155194 50.2857314,111.782263 C53.2615865,97.2412768 55.8478632,78.605898 58.349022,60.5848964 C60.075389,48.1456692 61.5202119,38.1323041 62.8220803,30.1203026 C62.8231716,30.1104813 62.8231716,30.1017512 62.8231716,30.0908386 C62.8308104,29.8300285 62.8744606,29.5801308 62.948666,29.3433283 C66.580366,7.20610901 69.1153537,0.77533739 73.6004159,0.77533739 C85.6402433,0.77533739 88.5167942,25.5501224 88.9707567,30.5153372 C89.0416883,31.2923115 88.7765131,32.0627382 88.2428889,32.6323739 C87.7070822,33.2009183 86.994492,33.5250213 86.1749588,33.4911924 L67.8735044,32.9662982 C66.4352289,42.0062629 65.0318737,52.1156586 63.7529217,61.3356805 C56.222164,115.59402 51.6203375,141.157783 41.9856382,141.157783 C32.218897,141.157783 29.669723,131.020015 27.6214354,122.872698 C25.4825737,114.360901 23.8424159,109.194895 19.1161862,109.194895 C13.855241,109.194895 13.1590196,120.609433 12.4857147,131.64967 C11.7611207,143.545451 11.0103366,155.846089 5.12955797,162.733006 C4.58829499,163.363752 3.82332453,163.688946 3.05289779,163.688946" id="Fill-1" fill="#FEFEFE" opacity="0.05" mask="url(#mask-2)"></path>
                </g>
                <path d="M56.0237737,96.3928252 C55.858994,96.3928252 55.6909406,96.3775477 55.5228872,96.3469925 C54.0420528,96.071996 53.0631961,94.6479069 53.3381927,93.1670725 C55.9331994,79.1771705 58.0076771,63.6813353 59.8398959,50.0111714 C64.7909244,13.0416005 66.9265124,1.091256 73.2787136,1.091256 L159.808767,1.091256 C161.315792,1.091256 162.536907,2.31237147 162.536907,3.81939601 C162.536907,5.32642055 161.315792,6.54753602 159.808767,6.54753602 L73.7097597,6.54753602 C70.7393609,9.73072978 67.7002129,32.4277634 65.2470694,50.7357653 C63.408303,64.4703134 61.3218216,80.0370803 58.7028072,94.162298 C58.4594571,95.4750789 57.3136383,96.3928252 56.0237737,96.3928252" id="Fill-4" fill="#FEFEFE" opacity="0.05"></path>
                <g id="Group-8" transform="translate(0.000000, 103.984693)">
                    <mask id="mask-4" fill="white">
                        <use xlink:href="#path-3"></use>
                    </mask>
                    <g id="Clip-7" opacity="0.05"></g>
                    <path d="M89.2633224,60.0190802 L2.72781263,60.0190802 C1.66383803,60.0190802 0.695893953,59.400338 0.250661504,58.4334852 C-0.195662201,57.4655411 -0.0374300809,56.3284524 0.654426225,55.5187404 C5.3501008,50.0209927 6.0768773,38.1350323 6.71635332,27.6480621 C7.58171933,13.4650078 8.40016133,0.0687491282 18.7965573,0.0687491282 C20.3035818,0.0687491282 21.5246973,1.2898646 21.5246973,2.79688914 C21.5246973,4.30282242 20.3035818,5.52502914 18.7965573,5.52502914 C13.5345208,5.52502914 12.8372082,16.9406582 12.162812,27.9808952 C11.5757163,37.6035906 10.9711605,47.4914612 7.64828595,54.5628001 L89.2633224,54.5628001 C90.7703469,54.5628001 91.9914624,55.7839156 91.9914624,57.2909401 C91.9914624,58.7979647 90.7703469,60.0190802 89.2633224,60.0190802" id="Fill-6" fill="#FEFEFE" opacity="0.05" mask="url(#mask-4)"></path>
                </g>
                <path d="M105.325301,109.510268 L18.796339,109.510268 C17.2893145,109.510268 16.068199,108.288061 16.068199,106.782128 C16.068199,105.274012 17.2893145,104.053988 18.796339,104.053988 L105.325301,104.053988 C106.832326,104.053988 108.053441,105.274012 108.053441,106.782128 C108.053441,108.288061 106.832326,109.510268 105.325301,109.510268" id="Fill-9" fill="#FEFEFE" opacity="0.05"></path>
                <path d="M125.878017,141.185392 L95.5280049,141.185392 C94.0209803,141.185392 92.7998648,139.964277 92.7998648,138.457252 C92.7998648,136.950228 94.0209803,135.729112 95.5280049,135.729112 L125.878017,135.729112 C127.385041,135.729112 128.606157,136.950228 128.606157,138.457252 C128.606157,139.964277 127.385041,141.185392 125.878017,141.185392" id="Fill-11" fill="#FEFEFE" opacity="0.05"></path>
                <path d="M110.702683,27.897305 L82.2361794,27.897305 C80.7291548,27.897305 79.5080394,26.6761895 79.5080394,25.169165 C79.5080394,23.6621404 80.7291548,22.4410249 82.2361794,22.4410249 L110.702683,22.4410249 C112.209708,22.4410249 113.430823,23.6621404 113.430823,25.169165 C113.430823,26.6761895 112.209708,27.897305 110.702683,27.897305" id="Fill-13" fill="#FEFEFE" opacity="0.05"></path>
                <path d="M134.386322,41.834281 L80.1214344,41.834281 C78.6155011,41.834281 77.3932944,40.6131655 77.3932944,39.106141 C77.3932944,37.5991165 78.6155011,36.378001 80.1214344,36.378001 L134.386322,36.378001 C135.893346,36.378001 137.114462,37.5991165 137.114462,39.106141 C137.114462,40.6131655 135.893346,41.834281 134.386322,41.834281" id="Fill-15" fill="#FEFEFE" opacity="0.05"></path>
                <path d="M132.606701,55.7711479 L78.3418141,55.7711479 C76.8358808,55.7711479 75.6136741,54.5500324 75.6136741,53.0430079 C75.6136741,51.5370746 76.8358808,50.3148679 78.3418141,50.3148679 L132.606701,50.3148679 C134.113726,50.3148679 135.334841,51.5370746 135.334841,53.0430079 C135.334841,54.5500324 134.113726,55.7711479 132.606701,55.7711479" id="Fill-17" fill="#FEFEFE" opacity="0.05"></path>
                <path d="M130.826972,69.708124 L76.5642672,69.708124 C75.0583339,69.708124 73.8361272,68.4870085 73.8361272,66.9799839 C73.8361272,65.4729594 75.0583339,64.2518439 76.5642672,64.2518439 L130.826972,64.2518439 C132.333996,64.2518439 133.555112,65.4729594 133.555112,66.9799839 C133.555112,68.4870085 132.333996,69.708124 130.826972,69.708124" id="Fill-19" fill="#FEFEFE" opacity="0.05"></path>
                <path d="M129.049425,83.6451 L74.7845377,83.6451 C73.2786045,83.6451 72.0563977,82.4239845 72.0563977,80.91696 C72.0563977,79.4099354 73.2786045,78.18882 74.7845377,78.18882 L129.049425,78.18882 C130.55645,78.18882 131.777565,79.4099354 131.777565,80.91696 C131.777565,82.4239845 130.55645,83.6451 129.049425,83.6451" id="Fill-21" fill="#FEFEFE" opacity="0.05"></path>
            </g>
        </g>
    </g>
</svg>