<?xml version="1.0" encoding="UTF-8"?>
<svg width="100px" height="157px" viewBox="0 0 100 157" version="1.1" xmlns="http://www.w3.org/2000/svg" xmlns:xlink="http://www.w3.org/1999/xlink">
    <!-- Generator: Sketch 49.2 (51160) - http://www.bohemiancoding.com/sketch -->
    <title>Page 1 Copy 13</title>
    <desc>Created with Sketch.</desc>
    <defs>
        <polygon id="path-1" points="99.1576132 0.574264639 99.1576132 78.6464199 49.5790082 78.6464199 0.000403261723 78.6464199 0.000403261723 0.574264639 99.1576132 0.574264639"></polygon>
        <polygon id="path-3" points="1.01702239 0.319759786 77.4437254 0.319759786 77.4437254 54.8699515 1.01702239 54.8699515"></polygon>
    </defs>
    <g id="HD-Desktop-1920---1440-px" stroke="none" stroke-width="1" fill="none" fill-rule="evenodd" opacity="0.05">
        <g id="HD-Desktop_EDU-Guide" transform="translate(-909.000000, -880.000000)">
            <g id="Page-1-Copy-13" transform="translate(909.000000, 879.000000)">
                <g id="Group-3" transform="translate(0.000000, 79.361481)">
                    <mask id="mask-2" fill="white">
                        <use xlink:href="#path-1"></use>
                    </mask>
                    <g id="Clip-2"></g>
                    <path d="M48.7355307,78.6464199 C48.3557513,78.6464199 47.9759719,78.5625994 47.6241326,78.3959932 L1.47524127,56.4360501 C0.441454773,55.9445099 -0.145288913,54.832077 0.0316655322,53.7020521 C0.134112842,53.0387317 2.65079828,37.2908209 10.2536305,21.8016155 C13.3405025,15.5161108 16.8619994,10.1298659 20.7218829,5.79292972 C21.6697792,4.72499412 23.3058317,4.63082538 24.3737673,5.58079135 C25.4406681,6.53075732 25.5358717,8.165775 24.5859057,9.23267577 C21.0375034,13.2198423 17.7788511,18.2159596 14.8989434,24.0813268 C9.12567525,35.8441407 6.37925948,48.0364054 5.48620868,52.6144549 L48.7551923,73.2032598 L93.6302187,52.6030719 C92.0334894,45.200995 85.3423347,18.526406 69.4878374,5.13788783 C68.3961009,4.21586204 68.2584697,2.58394882 69.1804954,1.49221234 C70.1014864,0.399441028 71.7354693,0.263879435 72.8261709,1.18487041 C92.7009491,17.9686373 98.8664145,52.2057005 99.1189109,53.6554852 C99.3217359,54.8134502 98.7184351,55.9610671 97.6504995,56.4515724 L49.8148494,78.4104807 C49.4723235,78.5677735 49.1028923,78.6464199 48.7355307,78.6464199" id="Fill-1" fill="#FEFEFE" mask="url(#mask-2)"></path>
                </g>
                <path d="M48.7355307,83.4057701 C35.280784,83.4057701 23.7839192,68.1338772 19.3797197,53.048252 C18.978209,51.676079 19.765708,50.239747 21.1378811,49.8392711 C22.5090193,49.4377605 23.9453513,50.2262943 24.3458272,51.5984674 C28.1146464,64.5088981 37.9433792,78.2316636 48.7355307,78.2316636 C62.6176587,78.2316636 74.1124538,56.3907249 74.7923314,42.2271255 C74.8606296,40.800107 76.0775795,39.6990571 77.5004588,39.7663205 C78.9274774,39.8356535 80.0285273,41.0474292 79.9602291,42.4744478 C79.178939,58.7697791 66.3264583,83.4057701 48.7355307,83.4057701" id="Fill-4" fill="#FEFEFE"></path>
                <g id="Group-8" transform="translate(10.348213, 0.715062)">
                    <mask id="mask-4" fill="white">
                        <use xlink:href="#path-3"></use>
                    </mask>
                    <g id="Clip-7"></g>
                    <path d="M39.2816102,5.49345243 C21.0356407,5.49345243 6.19112896,20.3472776 6.19112896,38.6035952 C6.19112896,42.7625421 6.85237978,46.7466042 7.57365024,49.5416565 C19.3581954,48.3122888 38.5872451,41.3313842 47.8933931,33.2142458 C50.0096027,31.3691594 51.4262731,29.622381 52.1071855,28.0225473 C52.5863078,26.8987313 53.7939443,26.2623162 54.9870933,26.4972207 C56.187486,26.7331599 57.0577707,27.7783295 57.0743278,29.0014882 C57.1074421,31.388821 57.0525966,33.7368306 56.9139305,35.9782536 C56.7680207,38.3376462 56.546569,40.2820754 56.3282217,41.7867056 C62.5961344,40.7104914 70.0095943,38.425606 72.2085896,35.4122063 C70.596338,18.5715242 56.2868288,5.49345243 39.2816102,5.49345243 M5.6830317,54.8699515 C4.57887735,54.8699515 3.58958818,54.1652382 3.23257482,53.1107552 C2.16256958,49.9359234 1.01702239,44.4586142 1.01702239,38.6035952 C1.01702239,17.4942752 18.1826384,0.319345858 39.2816102,0.319345858 C59.256766,0.319345858 76.016732,15.9244513 77.4375417,35.8447616 C77.4696211,36.3093964 77.3764872,36.775066 77.1674533,37.1910641 C73.1771823,45.1343525 55.4061959,47.2081345 53.3934684,47.4182032 C52.5418105,47.5103023 51.7098141,47.1719157 51.1561847,46.5241176 C50.6025553,45.8752846 50.4049045,44.9977561 50.6263562,44.1740384 C50.6315303,44.1512723 51.3041642,41.5590449 51.6725606,36.7792053 C51.548382,36.890966 51.4221338,37.0016918 51.2948508,37.1134525 C40.5016645,46.527222 18.3792544,54.2511283 5.81031472,54.866847 C5.76788705,54.8689167 5.72545937,54.8699515 5.6830317,54.8699515" id="Fill-6" fill="#FEFEFE" mask="url(#mask-4)"></path>
                </g>
            </g>
        </g>
    </g>
</svg>