<?xml version="1.0" encoding="UTF-8"?>
<svg width="123px" height="145px" viewBox="0 0 123 145" version="1.1" xmlns="http://www.w3.org/2000/svg" xmlns:xlink="http://www.w3.org/1999/xlink">
    <!-- Generator: Sketch 49.2 (51160) - http://www.bohemiancoding.com/sketch -->
    <title>Page 1</title>
    <desc>Created with Sketch.</desc>
    <defs>
        <polygon id="path-1" points="0 63.9354303 0 0.460109178 53.6529951 0.460109178 53.6529951 63.9354303"></polygon>
    </defs>
    <g id="HD-Desktop-1920---1440-px" stroke="none" stroke-width="1" fill="none" fill-rule="evenodd" opacity="0.05">
        <g id="HD-Desktop_EDU-Guide" transform="translate(-898.000000, -1561.000000)">
            <g id="Page-1" transform="translate(898.000000, 1561.000000)">
                <path d="M14.9108694,144.15527 C13.8968604,144.15527 12.874624,143.854975 11.9778534,143.235874 C9.64542687,141.613049 9.0715759,138.408533 10.6923449,136.076107 L103.82486,2.20223021 C105.451799,-0.128139481 108.654258,-0.695820004 110.982571,0.916721773 C113.314997,2.53954762 113.888848,5.74406304 112.268079,8.07648954 L19.1376211,141.950366 C18.135953,143.386022 16.5357521,144.15527 14.9108694,144.15527" id="Fill-1" fill="#FEFEFE"></path>
                <g id="Group-5" transform="translate(0.000000, 4.291953)">
                    <mask id="mask-2" fill="white">
                        <use xlink:href="#path-1"></use>
                    </mask>
                    <g id="Clip-4"></g>
                    <path d="M26.8099468,10.7441766 C23.2084664,10.7441766 19.7694742,12.2662186 16.8652536,15.1478143 C9.35582753,22.5996496 8.1772734,36.7628673 14.2921799,46.0802324 C17.4493886,50.893176 22.0237418,53.6513629 26.840799,53.6513629 C30.4443363,53.6513629 33.8833284,52.1272641 36.7916627,49.2456684 C44.2990319,41.7958899 45.4755292,27.6306154 39.3606227,18.3173639 C36.1993004,13.5044203 31.6249472,10.7441766 26.8099468,10.7441766 M26.840799,63.9354303 C18.4963067,63.9354303 10.7894265,59.4844859 5.69469951,51.7241286 C-3.21747334,38.1471028 -1.49180683,18.8747604 9.62321328,7.84818324 C14.423816,3.08254638 20.5263816,0.460109178 26.8099468,0.460109178 C35.1523823,0.460109178 42.8613193,4.91105357 47.9560463,12.6714109 C56.8682192,26.2463799 55.1466663,45.5187223 44.033703,56.5452995 C39.2310435,61.3109363 33.1223074,63.9354303 26.840799,63.9354303" id="Fill-3" fill="#FEFEFE" mask="url(#mask-2)"></path>
                </g>
                <g id="Group-8" transform="translate(68.874845, 75.223611)" fill="#FEFEFE">
                    <path d="M27.242106,10.9792931 C23.6406256,10.9792931 20.1995767,12.5013351 17.295356,15.3849876 C9.79004357,22.8327093 8.60943263,36.995927 14.7243391,46.3153489 C17.8815478,51.1262357 22.4579579,53.8864794 27.2729583,53.8864794 L27.2750151,53.8864794 C30.8764955,53.8864794 34.3134308,52.3623806 37.2197083,49.4787281 C44.7291343,42.0268928 45.9076885,27.8657319 39.7948388,18.5545372 C36.6314596,13.7395368 32.0591632,10.9792931 27.242106,10.9792931 M27.2750151,64.1705468 L27.2729583,64.1705468 C18.9284659,64.1705468 11.2215858,59.7175456 6.12480193,51.9571883 C-2.7832573,38.3781057 -1.05759078,19.1078201 10.0533157,8.08535655 C14.8559752,3.31766288 20.9585408,0.695225679 27.242106,0.695225679 C35.5865984,0.695225679 43.2934785,5.14617007 48.3902624,12.9085842 C57.3024352,26.4814964 55.5767687,45.7497252 44.4638054,56.7783591 C39.6611459,61.5460528 33.5565235,64.1705468 27.2750151,64.1705468" id="Fill-6"></path>
                </g>
            </g>
        </g>
    </g>
</svg>