<?xml version="1.0" encoding="UTF-8"?>
<svg width="114px" height="28px" viewBox="0 0 114 28" version="1.1" xmlns="http://www.w3.org/2000/svg" xmlns:xlink="http://www.w3.org/1999/xlink">
    <!-- Generator: Sketch 49.2 (51160) - http://www.bohemiancoding.com/sketch -->
    <title>PayPal-logo</title>
    <desc>Created with Sketch.</desc>
    <defs></defs>
    <g id="HD-Desktop-1920---1440-px" stroke="none" stroke-width="1" fill="none" fill-rule="evenodd">
        <g id="HD-Desktop_EDU-Guide" transform="translate(-1256.000000, -1972.000000)">
            <g id="Group-24" transform="translate(1238.000000, 1966.000000)">
                <g id="PayPal-logo" transform="translate(18.000000, 6.000000)">
                    <path d="M42.2852442,6.22342382 L36.0272188,6.22342382 C35.5989275,6.22342382 35.2347133,6.5345822 35.1678168,6.95749103 L32.6367715,23.0044462 C32.5865351,23.3212434 32.8318222,23.6065146 33.1529766,23.6065146 L36.1405071,23.6065146 C36.5687984,23.6065146 36.9330126,23.2956125 36.9999091,22.8719348 L37.6824583,18.5436551 C37.7483296,18.1199774 38.1133127,17.808819 38.5408351,17.808819 L40.5218426,17.808819 C44.6440503,17.808819 47.0231047,15.8139709 47.6446525,11.861183 C47.9245412,10.131614 47.6564427,8.77292329 46.8465082,7.82125027 C45.9571181,6.776281 44.37954,6.22342382 42.2852442,6.22342382 Z M43.0070086,12.0844276 C42.6648369,14.3299453 40.9491086,14.3299453 39.2902808,14.3299453 L38.3457844,14.3299453 L39.0083416,10.1362276 C39.047813,9.88273859 39.267213,9.69614609 39.5235214,9.69614609 L39.9564263,9.69614609 C41.0864899,9.69614609 42.1524765,9.69614609 42.7032832,10.340249 C43.0318705,10.7244553 43.1323434,11.2955104 43.0070086,12.0844276 Z" id="Fill-1" fill="#28356A"></path>
                    <path d="M60.9913989,12.0121486 L57.9946413,12.0121486 C57.7393581,12.0121486 57.5186766,12.1987411 57.4794614,12.4522301 L57.3466937,13.2903585 L57.1372897,12.9866331 C56.4885732,12.0449561 55.0417124,11.7302094 53.5979273,11.7302094 C50.2861667,11.7302094 47.4578037,14.2384432 46.906997,17.7567884 C46.6207005,19.5117319 47.0277182,21.1900392 48.0234763,22.3603432 C48.936703,23.4363258 50.2433632,23.8848655 51.7978735,23.8848655 C54.4663001,23.8848655 55.945712,22.1691372 55.945712,22.1691372 L55.8121754,23.0018831 C55.7619389,23.3202181 56.0072261,23.6057457 56.3265863,23.6057457 L59.0257699,23.6057457 C59.4550864,23.6057457 59.8175065,23.2945873 59.8851719,22.8709095 L61.5047845,12.614217 C61.5560462,12.2984451 61.311528,12.0121486 60.9913989,12.0121486 Z M56.8140848,17.8447022 C56.524969,19.5565858 55.1662783,20.7058726 53.433121,20.7058726 C52.562954,20.7058726 51.8675894,20.4267528 51.4208439,19.8979886 C50.977943,19.3728127 50.8098047,18.6251612 50.950518,17.7924153 C51.220667,16.0951411 52.6021692,14.908177 54.3089267,14.908177 C55.1598705,14.908177 55.8516469,15.1911415 56.3073632,15.7242629 C56.7638484,16.2632794 56.9450584,17.0155445 56.8140848,17.8447022 Z" id="Fill-2" fill="#28356A"></path>
                    <path d="M76.9517218,12.0121486 L73.9400983,12.0121486 C73.6527766,12.0121486 73.3828839,12.1549124 73.2201281,12.3937918 L69.0666507,18.5116166 L67.3060685,12.6324149 C67.1953432,12.2646124 66.8559909,12.0121486 66.4715284,12.0121486 L63.5124481,12.0121486 C63.1525911,12.0121486 62.9029468,12.3635474 63.0172603,12.7021308 L66.3344034,22.4362105 L63.2158993,26.8385633 C62.9706122,27.1853485 63.2176935,27.6620821 63.6413712,27.6620821 L66.6491501,27.6620821 C66.9346776,27.6620821 67.2017509,27.5229067 67.3637378,27.2888971 L77.3797568,12.8310539 C77.6196614,12.4852939 77.3733491,12.0121486 76.9517218,12.0121486" id="Fill-3" fill="#28356A"></path>
                    <path d="M86.9218615,6.22342382 L80.6630672,6.22342382 C80.2358011,6.22342382 79.8715869,6.5345822 79.8046904,6.95749103 L77.2736451,23.0044462 C77.2234087,23.3212434 77.4686958,23.6065146 77.788056,23.6065146 L80.9998564,23.6065146 C81.297943,23.6065146 81.5532262,23.3889088 81.5998743,23.09236 L82.3183067,18.5436551 C82.3841779,18.1199774 82.7494174,17.808819 83.1766835,17.808819 L85.156922,17.808819 C89.2798986,17.808819 91.6581841,15.8139709 92.2805009,11.861183 C92.5614149,10.131614 92.2915221,8.77292329 91.4815876,7.82125027 C90.5929665,6.776281 89.0164136,6.22342382 86.9218615,6.22342382 Z M87.6438822,12.0844276 C87.3024795,14.3299453 85.5867512,14.3299453 83.9268981,14.3299453 L82.9836832,14.3299453 L83.6470093,10.1362276 C83.6862245,9.88273859 83.9040866,9.69614609 84.161164,9.69614609 L84.5940688,9.69614609 C85.7231072,9.69614609 86.790119,9.69614609 87.3409257,10.340249 C87.6695131,10.7244553 87.769217,11.2955104 87.6438822,12.0844276 Z" id="Fill-4" fill="#298FC2"></path>
                    <path d="M105.627247,12.0121486 L102.632284,12.0121486 C102.375206,12.0121486 102.156575,12.1987411 102.118129,12.4522301 L101.985361,13.2903585 L101.774932,12.9866331 C101.126216,12.0449561 99.6803802,11.7302094 98.2363387,11.7302094 C94.9248344,11.7302094 92.0974967,14.2384432 91.54669,17.7567884 C91.2611624,19.5117319 91.666386,21.1900392 92.6618877,22.3603432 C93.577165,23.4363258 94.8817746,23.8848655 96.4365413,23.8848655 C99.1047115,23.8848655 100.58438,22.1691372 100.58438,22.1691372 L100.450843,23.0018831 C100.400607,23.3202181 100.645638,23.6057457 100.967048,23.6057457 L103.665463,23.6057457 C104.092729,23.6057457 104.456943,23.2945873 104.52384,22.8709095 L106.144221,12.614217 C106.193689,12.2984451 105.948402,12.0121486 105.627247,12.0121486 Z M101.45019,17.8447022 C101.162868,19.5565858 99.8021266,20.7058726 98.0689694,20.7058726 C97.2005966,20.7058726 96.5034378,20.4267528 96.0566923,19.8979886 C95.6140477,19.3728127 95.4474472,18.6251612 95.5863664,17.7924153 C95.8583096,16.0951411 97.2380176,14.908177 98.9447751,14.908177 C99.7957189,14.908177 100.487495,15.1911415 100.943212,15.7242629 C101.401491,16.2632794 101.582701,17.0155445 101.45019,17.8447022 Z" id="Fill-5" fill="#298FC2"></path>
                    <path d="M109.160202,6.66376162 L106.591736,23.0044462 C106.541499,23.3212434 106.78653,23.6065146 107.10589,23.6065146 L109.688197,23.6065146 C110.117514,23.6065146 110.481472,23.2956125 110.547343,22.8719348 L113.080182,6.82574852 C113.130675,6.50895136 112.885388,6.22265489 112.566028,6.22265489 L109.674613,6.22265489 C109.41933,6.22342382 109.199673,6.41027263 109.160202,6.66376162" id="Fill-6" fill="#298FC2"></path>
                    <path d="M6.64863942,26.7250187 L7.12716717,23.6854576 L6.06118061,23.6605957 L0.97089615,23.6605957 L4.50846444,1.23028023 C4.5194857,1.16235851 4.55511256,1.09930665 4.60714316,1.05445268 C4.65943007,1.00959872 4.72607025,0.984993111 4.79578613,0.984993111 L13.3787849,0.984993111 C16.2284215,0.984993111 18.1948194,1.5778344 19.2213345,2.74813847 C19.7026816,3.29715102 20.0092264,3.87102549 20.157629,4.50231304 C20.3132082,5.1648702 20.3157713,5.95635049 20.1640367,6.92186416 L20.1530154,6.99209266 L20.1530154,7.61082109 L20.6343626,7.88353321 C21.0395861,8.09857594 21.3617658,8.34463199 21.6088471,8.6263149 C22.0204783,9.09587185 22.2867827,9.69255777 22.3993021,10.3997126 C22.5156661,11.1271158 22.4772199,11.9929255 22.2867827,12.9730487 C22.0671264,14.100293 21.7121393,15.0822104 21.2325864,15.8854809 C20.7917359,16.6256995 20.229908,17.2398144 19.5627372,17.7155227 C18.9258109,18.1676507 18.1691886,18.5108476 17.3136312,18.7305039 C16.4844736,18.9463156 15.5392083,19.0552466 14.5024409,19.0552466 L13.8345012,19.0552466 C13.3569987,19.0552466 12.8930805,19.2272296 12.5288663,19.5355686 C12.1636269,19.8503152 11.9221844,20.2804007 11.8481113,20.7507266 L11.7976185,21.0244639 L10.9520572,26.3820781 L10.9138672,26.5786666 C10.9036149,26.6409495 10.8861859,26.6719628 10.8605551,26.6929801 C10.8377436,26.7122032 10.8049361,26.7250187 10.7728976,26.7250187 L6.64863942,26.7250187" id="Fill-7" fill="#28356A"></path>
                    <path d="M21.0898226,7.0636027 C21.0644481,7.22738375 21.0349726,7.39475312 21.0021651,7.56673605 C19.8703073,13.3782723 15.997744,15.3859359 11.0520174,15.3859359 L8.53378757,15.3859359 C7.92889979,15.3859359 7.41910242,15.8249921 7.32503724,16.421678 L5.67056664,26.9162247 C5.60930894,27.3081202 5.91124021,27.6610569 6.30646774,27.6610569 L10.7728976,27.6610569 C11.3016618,27.6610569 11.7509704,27.2768506 11.8342706,26.7552631 L11.8780993,26.5284301 L12.7190471,21.1918333 L12.7731282,20.8991291 C12.8554032,20.3757474 13.305737,19.9912849 13.8345012,19.9912849 L14.5024409,19.9912849 C18.8296953,19.9912849 22.2173232,18.2345472 23.2074424,13.1504141 C23.6208679,11.0266429 23.4068504,9.2532452 22.3124136,8.00604862 C21.9812631,7.63004422 21.5704008,7.31786061 21.0898226,7.0636027" id="Fill-8" fill="#298FC2"></path>
                    <g id="Group-12">
                        <path d="M19.9059342,6.59148266 C19.732926,6.5409899 19.5545354,6.49536701 19.3715312,6.45410136 C19.1875018,6.41386095 18.9991151,6.37823408 18.8050897,6.34696446 C18.1261288,6.23726447 17.3820655,6.18523387 16.5852028,6.18523387 L9.85787667,6.18523387 C9.69204515,6.18523387 9.5346718,6.22265489 9.3939585,6.29032031 C9.08356905,6.43949179 8.85314782,6.73322119 8.79727259,7.09282185 L7.36604659,16.1574241 L7.32503724,16.421678 C7.41910242,15.8249921 7.92889979,15.3859359 8.53378757,15.3859359 L11.0520174,15.3859359 C15.997744,15.3859359 19.8703073,13.3772471 21.0021651,7.56673605 C21.0359978,7.39475312 21.0644481,7.22738375 21.0898226,7.0636027 C20.8035261,6.91161182 20.493393,6.78166348 20.1594232,6.67093825 C20.0768919,6.64351326 19.9917975,6.61711349 19.9059342,6.59148266" id="Fill-9" fill="#22284F"></path>
                        <path d="M8.79727259,7.09282185 C8.85314782,6.73322119 9.08356905,6.43949179 9.3939585,6.29134554 C9.53569704,6.22342382 9.69204515,6.1860028 9.85787667,6.1860028 L16.5852028,6.1860028 C17.3820655,6.1860028 18.1261288,6.23828971 18.8050897,6.34798969 C18.9991151,6.37900301 19.1875018,6.41488618 19.3715312,6.4551266 C19.5545354,6.49613594 19.732926,6.54201514 19.9059342,6.59225158 C19.9917975,6.61788242 20.0768919,6.64453849 20.1601921,6.67093825 C20.4941619,6.78166348 20.8045514,6.91263706 21.0908478,7.0636027 C21.427637,4.91599476 21.0880284,3.45375545 19.9269515,2.12966634 C18.6466911,0.671784269 16.3363273,0.0479296674 13.3798101,0.0479296674 L4.79655506,0.0479296674 C4.19269251,0.0479296674 3.67751266,0.486985925 3.58421641,1.08469707 L0.00922710175,23.74569 C-0.0612577033,24.1939734 0.284502304,24.598428 0.736630289,24.598428 L6.03554978,24.598428 L8.79727259,7.09282185" id="Fill-11" fill="#28356A"></path>
                    </g>
                </g>
            </g>
        </g>
    </g>
</svg>