<?xml version="1.0" encoding="UTF-8"?>
<svg width="165px" height="165px" viewBox="0 0 165 165" version="1.1" xmlns="http://www.w3.org/2000/svg" xmlns:xlink="http://www.w3.org/1999/xlink">
    <!-- Generator: Sketch 49.2 (51160) - http://www.bohemiancoding.com/sketch -->
    <title>Fill 1</title>
    <desc>Created with Sketch.</desc>
    <defs></defs>
    <g id="HD-Desktop-1920---1440-px" stroke="none" stroke-width="1" fill="none" fill-rule="evenodd" opacity="0.05">
        <g id="HD-Desktop_EDU-Guide" transform="translate(-1338.000000, -873.000000)" fill="#FEFEFE">
            <path d="M1383.78233,918.937701 C1369.63227,933.088689 1364.96177,954.463972 1371.88288,973.393337 C1372.5497,975.215221 1373.32254,977.005484 1374.19209,978.744598 L1443.61898,909.318637 C1436.45142,905.70184 1428.4608,903.801835 1420.32695,903.801835 C1406.52286,903.801835 1393.54368,909.177276 1383.78233,918.937701 M1373.62758,984.922635 C1373.52714,984.922635 1373.42577,984.916125 1373.3244,984.903105 C1372.60736,984.808244 1371.97589,984.386951 1371.61411,983.760126 C1370.00334,980.971035 1368.62414,978.020122 1367.5165,974.990159 C1359.97507,954.368181 1365.06965,931.075223 1380.49475,915.650126 C1391.13403,905.009914 1405.28037,899.1518 1420.32695,899.1518 C1430.30872,899.1518 1440.09798,901.78 1448.63358,906.752748 C1449.25669,907.116381 1449.67705,907.747855 1449.76912,908.463031 C1449.86212,909.178206 1449.61753,909.896172 1449.10695,910.405816 L1375.27276,984.241869 C1374.83287,984.679903 1374.24045,984.922635 1373.62758,984.922635 M1420.34555,1011.85099 C1409.76114,1011.85099 1399.4669,1008.91775 1390.58068,1003.36747 C1389.97896,1002.99267 1389.58185,1002.36399 1389.50187,1001.65904 C1389.42096,1000.95503 1389.66648,1000.2538 1390.16775,999.751598 L1441.27257,948.643058 C1442.18119,947.735371 1443.65246,947.735371 1444.56108,948.643058 C1445.46877,949.550745 1445.46877,951.022946 1444.56108,951.931563 L1395.58505,1000.91132 C1403.1274,1005.03404 1411.62581,1007.20095 1420.34555,1007.20095 C1434.15523,1007.20095 1447.14092,1001.82272 1456.90971,992.056719 C1466.67572,982.292575 1472.05395,969.307815 1472.05395,955.49721 C1472.05395,946.775603 1469.88703,938.274408 1465.76245,930.732051 L1456.64187,939.85077 C1455.73233,940.757527 1454.26105,940.757527 1453.3543,939.84891 C1452.44661,938.941224 1452.44754,937.469022 1453.35616,936.561335 L1464.60366,925.313829 C1465.10494,924.813486 1465.80244,924.564244 1466.51111,924.649804 C1467.21605,924.729785 1467.84474,925.125968 1468.21953,925.727683 C1473.77074,934.613901 1476.70399,944.909079 1476.70399,955.49721 C1476.70399,970.550305 1470.84122,984.702223 1460.19729,995.345224 C1449.54964,1005.99009 1435.39679,1011.85099 1420.34555,1011.85099 M1420.34555,1038 C1398.30346,1038 1377.58569,1029.41789 1362.00714,1013.8347 C1361.83695,1013.66264 1361.59794,1013.41898 1361.3645,1013.17067 C1361.35055,1013.15672 1361.32916,1013.13347 1361.30963,1013.11022 C1361.73837,1013.56313 1362.33729,1013.82912 1362.98551,1013.83098 C1362.37263,1013.82912 1361.78673,1013.58545 1361.35334,1013.15393 C1361.35241,1013.153 1361.35055,1013.15207 1361.34962,1013.15021 L1361.33009,1013.13068 C1361.32079,1013.12045 1361.30963,1013.11022 1361.2994,1013.09906 C1361.29382,1013.09348 1361.28917,1013.0879 1361.28545,1013.08232 C1361.14037,1012.92608 1361.01854,1012.75031 1360.92275,1012.56059 C1361.02133,1012.75589 1361.14502,1012.93166 1361.28824,1013.08697 C1337.64002,988.840755 1331.29737,951.779042 1345.5116,920.847935 C1346.04636,919.681706 1347.42556,919.169273 1348.59458,919.705887 C1349.76174,920.241571 1350.27324,921.622631 1349.73663,922.78979 C1336.31476,951.997593 1342.3068,986.99097 1364.64464,1009.86915 C1364.67719,1009.90263 1364.70788,1009.93518 1364.73857,1009.96959 C1364.75066,1009.98261 1364.76275,1009.99563 1364.77391,1010.00865 C1364.97851,1010.22441 1365.17288,1010.4225 1365.30587,1010.55735 C1379.99627,1025.25146 1399.54595,1033.34996 1420.34555,1033.34996 C1441.14423,1033.34996 1460.69391,1025.25146 1475.3964,1010.54712 C1490.10353,995.844638 1498.20296,976.294029 1498.20296,955.49721 C1498.20296,934.701321 1490.13236,915.179542 1475.47824,900.52821 C1475.24294,900.290128 1475.01788,900.079017 1474.73144,899.809315 C1474.67936,899.766534 1474.67285,899.760024 1474.62542,899.712594 C1460.00943,885.485345 1440.72573,877.650036 1420.32695,877.650036 C1399.53758,877.650036 1379.99441,885.747607 1365.29564,900.45009 C1362.21267,903.533063 1359.37708,906.890389 1356.86885,910.431856 C1356.12577,911.478114 1354.67589,911.725496 1353.62685,910.98428 C1352.57873,910.242134 1352.33228,908.791323 1353.07349,907.743205 C1355.73331,903.988767 1358.73909,900.428699 1362.00807,897.161585 C1377.58383,881.581176 1398.29509,873 1420.32695,873 C1441.92172,873 1462.33724,881.286363 1477.81999,896.333878 C1477.85533,896.364568 1477.88881,896.395259 1477.9102,896.413859 C1478.25524,896.740291 1478.5175,896.987673 1478.7779,897.252725 C1494.29879,912.768964 1502.85299,933.458832 1502.85299,955.49721 C1502.85299,977.536518 1494.26996,998.255216 1478.68397,1013.83563 C1463.10449,1029.41789 1442.38672,1038 1420.34555,1038" id="Fill-1"></path>
        </g>
    </g>
</svg>