<?xml version="1.0" encoding="UTF-8"?>
<svg width="149px" height="39px" viewBox="0 0 149 39" version="1.1" xmlns="http://www.w3.org/2000/svg" xmlns:xlink="http://www.w3.org/1999/xlink">
    <!-- Generator: Sketch 49.2 (51160) - http://www.bohemiancoding.com/sketch -->
    <title>WebMoney</title>
    <desc>Created with Sketch.</desc>
    <defs></defs>
    <g id="HD-Desktop-1920---1440-px" stroke="none" stroke-width="1" fill="none" fill-rule="evenodd">
        <g id="HD-Desktop_EDU-Guide" transform="translate(-1410.000000, -1966.000000)" fill="#295D9B">
            <g id="Group-24" transform="translate(1238.000000, 1966.000000)">
                <g id="WebMoney" transform="translate(172.000000, 0.000000)">
                    <path d="M19.4138736,0.1111381 C22.4611602,0.1111381 25.347747,0.820018953 27.918942,2.08083564 C28.3221931,2.27232358 28.7254442,2.48333579 29.1294462,2.71462318 L27.3429763,4.31486164 L24.6576395,1.53866194 L20.1257582,5.58093485 L17.433663,2.64253361 L8.99242396,10.2532406 L14.4051498,16.2164005 L12.2777563,18.0869748 L17.6086304,24.0613986 L15.4940028,25.9267165 L23.1114682,34.4055022 L27.6328365,30.242329 L31.5414433,34.7036226 C30.7649785,35.3081238 29.917175,35.8765801 28.9845161,36.4037352 C26.1572529,38.0152376 22.889943,38.9381344 19.4138736,38.9381344 C8.72058618,38.9381344 0,30.2167973 0,19.5242608 C0,8.83172428 8.72058618,0.1111381 19.4138736,0.1111381" id="Fill-2"></path>
                    <polyline id="Fill-3" points="15.8754768 18.2972361 20.4914626 14.1408213 24.6486283 18.7568072 20.0318916 22.9139728 15.8754768 18.2972361"></polyline>
                    <polyline id="Fill-4" points="19.1585564 26.2743985 23.7752931 22.1179837 27.9317079 26.7347205 23.3149711 30.8918862 19.1585564 26.2743985"></polyline>
                    <polyline id="Fill-5" points="12.5713712 10.4139403 17.1881079 6.25752558 21.3445226 10.8735114 16.7277859 15.0306771 12.5713712 10.4139403"></polyline>
                    <polyline id="Fill-6" points="21.0433985 8.17766154 24.5052001 5.05978728 27.6230744 8.52233984 24.1605218 11.6402141 21.0433985 8.17766154"></polyline>
                    <polyline id="Fill-7" points="27.1957934 22.4551527 30.657595 19.3380294 33.7754693 22.8005819 30.3129167 25.9184562 27.1957934 22.4551527"></polyline>
                    <polyline id="Fill-8" points="30.2400762 29.4485927 33.7026288 26.3307185 36.8205031 29.793271 33.3579505 32.9103944 30.2400762 29.4485927"></polyline>
                    <polyline id="Fill-9" points="31.6360609 13.4199256 33.9444293 11.3420937 36.0230121 13.650462 33.7138928 15.7282939 31.6360609 13.4199256"></polyline>
                    <polyline id="Fill-10" points="28.6863956 6.56240443 30.9940131 4.48382158 33.0725959 6.79218996 30.7642275 8.8707728 28.6863956 6.56240443"></polyline>
                    <polyline id="Fill-11" points="34.5864771 20.2781976 36.8940945 18.1996148 38.9726773 20.5087341 36.664309 22.586566 34.5864771 20.2781976"></polyline>
                    <polyline id="Fill-12" points="24.2348642 15.1388114 27.6966658 12.0216881 30.8145401 15.4842407 27.3527384 18.601364 24.2348642 15.1388114"></polyline>
                    <path d="M92.3031957,12.067495 L92.1943104,12.1395846 L92.086176,12.067495 C91.2901869,11.3435955 90.4213573,11.0537353 89.336259,11.0537353 C86.8394064,11.0537353 85.2106325,12.7913946 85.2106325,15.5052668 C85.2106325,15.5052668 85.2106325,27.9174401 85.2106325,28.2073003 C85.4644479,28.2073003 87.4544206,28.2073003 87.7074851,28.2073003 C87.7074851,27.9174401 87.7074851,15.5052668 87.7074851,15.5052668 C87.7074851,13.695518 88.9382644,13.5505879 89.336259,13.5505879 C89.6253682,13.5505879 90.0601585,13.6234284 90.4213573,13.9125377 C90.784058,14.2744874 90.964282,14.7813673 90.964282,15.5052668 C90.964282,15.5052668 90.964282,27.9174401 90.964282,28.2073003 C91.2180974,28.2073003 93.2080701,28.2073003 93.4618855,28.2073003 C93.4618855,27.9174401 93.4618855,15.5052668 93.4618855,15.5052668 C93.4618855,13.695518 94.6926648,13.5505879 95.0899085,13.5505879 C95.3797686,13.5505879 95.813808,13.6234284 96.1757577,13.9125377 C96.5377075,14.2744874 96.7186824,14.7813673 96.7186824,15.5052668 C96.7186824,15.5052668 96.7186824,27.9174401 96.7186824,28.2073003 C96.9717468,28.2073003 98.9617196,28.2073003 99.214784,28.2073003 C99.214784,27.9174401 99.214784,15.5052668 99.214784,15.5052668 C99.214784,14.0942635 98.7814956,12.9355737 97.9847556,12.1395846 C97.2608561,11.4524808 96.2478473,11.0537353 95.0899085,11.0537353 C93.9680144,11.0537353 93.0638909,11.3796403 92.3031957,12.067495" id="Fill-13"></path>
                    <path d="M110.506565,16.9162701 C109.674531,16.0481914 108.298822,15.2882471 106.416983,15.2882471 C104.607235,15.2882471 103.232276,16.0481914 102.399491,16.9162701 C101.097373,18.3280244 100.843558,20.318748 100.843558,21.8739305 C100.843558,23.3938191 101.097373,25.3852937 102.399491,26.796297 C103.232276,27.6643757 104.607235,28.42432 106.416983,28.42432 C108.298822,28.42432 109.674531,27.6643757 110.506565,26.796297 C111.809434,25.3852937 112.061748,23.3938191 112.061748,21.8739305 C112.061748,20.318748 111.809434,18.3280244 110.506565,16.9162701 Z M109.52885,22.4176061 C109.52885,23.6108388 109.52885,24.9505034 108.623976,25.9274674 C108.262026,26.2894172 107.574922,26.7602522 106.416983,26.7602522 C105.331134,26.7602522 104.64403,26.2894172 104.28133,25.9274674 C103.376455,24.9505034 103.376455,23.6108388 103.376455,22.4176061 L103.376455,21.2949611 C103.376455,20.1017284 103.376455,18.7620637 104.28133,17.8211445 C104.64403,17.4239009 105.331134,16.9523149 106.416983,16.9523149 C107.574922,16.9523149 108.262026,17.4239009 108.623976,17.8211445 C109.52885,18.7620637 109.52885,20.1017284 109.52885,21.2949611 L109.52885,22.4176061 Z" id="Fill-14"></path>
                    <path d="M114.124561,15.5052668 L116.22417,15.5413116 L116.22417,16.6632057 C116.839184,16.2291663 117.381358,15.9032613 117.997874,15.6862417 C118.757818,15.3603367 119.299992,15.2882471 120.059936,15.2882471 C121.145785,15.2882471 122.266929,15.5052668 123.171803,16.5190265 C124.040633,17.5320353 124.221607,18.7267698 124.221607,19.7397786 L124.221607,28.1712555 L121.904979,28.1712555 L121.904979,19.5580528 C121.904979,17.4959905 120.603612,16.9523149 119.517012,16.9523149 C118.431162,16.9523149 117.310019,17.4239009 116.405896,18.2551838 L116.405896,28.1712555 L114.124561,28.1712555 L114.124561,15.5052668" id="Fill-15"></path>
                    <path d="M135.548682,25.7104477 C135.113892,25.9274674 134.643808,26.1084423 134.064839,26.2894172 C133.376984,26.5071878 132.83481,26.6145712 132.11016,26.6145712 C130.916927,26.6145712 129.831078,26.2173276 129.251357,25.5655176 C128.817318,25.1314783 128.347234,24.2633996 128.347234,22.7427601 L128.347234,22.4176061 L136.163697,22.4176061 L136.163697,21.8386366 C136.163697,19.8118682 136.091607,18.1462985 134.824783,16.8073848 C133.992749,15.9032613 132.725925,15.2882471 131.133196,15.2882471 C129.360243,15.2882471 128.057374,16.0481914 127.262136,16.9523149 C125.958516,18.4369097 125.813586,20.3900867 125.813586,21.6569108 C125.813586,23.0686651 126.031356,25.168274 127.333474,26.6145712 C128.166259,27.5915352 129.649352,28.42432 131.748961,28.42432 C132.68988,28.42432 133.70364,28.3154347 134.715898,27.9174401 C135.258822,27.7004205 135.873836,27.4113112 136.272582,27.1935406 L135.548682,25.7104477 Z M128.347234,20.4636781 C128.347234,19.0151281 128.817318,18.1830943 129.180019,17.7850997 C129.541218,17.3871052 130.120187,16.9523149 131.097151,16.9523149 C131.748961,16.9523149 132.40002,17.097245 132.870855,17.56808 C133.70364,18.3640691 133.70364,19.3410331 133.70364,20.2098627 L133.70364,20.7527874 L128.347234,20.7527874 L128.347234,20.4636781 Z" id="Fill-16"></path>
                    <path d="M148.684755,15.5413116 L143.727095,30.4510884 C143.54612,31.1028984 143.076036,32.1879967 142.533111,32.8030109 C141.881301,33.5269104 141.013223,33.8528154 140.035508,33.8528154 C139.347653,33.8528154 138.697345,33.7078853 138.045535,33.3459356 C137.648291,33.0921202 137.248795,32.8390557 136.995731,32.5499465 L138.08158,31.174237 C138.262555,31.3559628 138.515619,31.5369377 138.73339,31.6803659 C139.095339,31.8988875 139.53013,32.0070218 139.927373,32.0070218 C140.615228,32.0070218 141.049267,31.645823 141.266287,31.3559628 C141.519352,31.0300579 141.772416,30.2708645 141.954142,29.8000294 L142.244002,28.7862697 L136.924392,15.5413116 L139.420494,15.5413116 L142.60445,23.4666596 C142.931106,24.225853 143.257011,25.3852937 143.3291,25.7104477 L143.437235,25.7104477 C143.835229,24.1905591 144.016955,23.6829283 144.34286,22.7427601 L146.621942,15.5413116 L148.684755,15.5413116" id="Fill-17"></path>
                    <path d="M51.3014971,27.447356 L51.3743376,27.3384707 L51.4832229,27.447356 C52.3145059,28.1352107 53.1472907,28.4603648 54.2699357,28.4603648 C56.7660373,28.4603648 58.3948112,26.6866608 58.3948112,24.0095842 C58.3948112,24.0095842 58.3948112,11.5606152 58.3948112,11.3075507 C58.1409958,11.3075507 56.1149783,11.3075507 55.8619139,11.3075507 C55.8619139,11.5606152 55.8619139,24.0095842 55.8619139,24.0095842 C55.8619139,25.8185821 54.6311345,25.9274674 54.2699357,25.9274674 C53.9432798,25.9274674 53.5092404,25.8914226 53.1833355,25.5655176 C52.8213857,25.2396127 52.6411618,24.697439 52.6411618,24.0095842 C52.6411618,24.0095842 52.6411618,11.5606152 52.6411618,11.3075507 C52.3873464,11.3075507 50.3605779,11.3075507 50.1075135,11.3075507 C50.1075135,11.5606152 50.1075135,24.0095842 50.1075135,24.0095842 C50.1075135,25.8185821 48.877485,25.9274674 48.4794905,25.9274674 C48.1896303,25.9274674 47.755591,25.8914226 47.429686,25.5655176 C47.0677362,25.2396127 46.8867614,24.697439 46.8867614,24.0095842 C46.8867614,24.0095842 46.8867614,11.5606152 46.8867614,11.3075507 C46.6336969,11.3075507 44.6069284,11.3075507 44.353864,11.3075507 C44.353864,11.5606152 44.353864,24.0095842 44.353864,24.0095842 C44.353864,25.3852937 44.7879033,26.5424816 45.5846434,27.3384707 C46.3077919,28.0623702 47.3575964,28.4603648 48.4794905,28.4603648 C49.6013845,28.4603648 50.505508,28.0991659 51.3014971,27.447356" id="Fill-18"></path>
                    <path d="M70.0117464,25.7104477 C69.6137519,25.8914226 69.1429168,26.1084423 68.5639474,26.2894172 C67.8768436,26.5071878 67.333168,26.6145712 66.6100194,26.6145712 C65.4152849,26.6145712 64.3294356,26.2173276 63.7504662,25.5655176 C63.3524716,25.1314783 62.8823875,24.2633996 62.8823875,22.7427601 L62.8823875,22.4176061 L70.6267606,22.4176061 L70.6267606,21.8386366 C70.6267606,19.8118682 70.554671,18.1462985 69.3238917,16.8073848 C68.4918578,15.9393061 67.2242827,15.3242919 65.5962597,15.3242919 C63.8953962,15.3242919 62.5932782,16.0842362 61.7965382,16.9523149 C60.4576245,18.4729544 60.3487392,20.4261315 60.3487392,21.6569108 C60.3487392,23.0686651 60.5297141,25.168274 61.832583,26.6145712 C62.7014126,27.5562413 64.1484607,28.42432 66.2480697,28.42432 C67.1889889,28.42432 68.1652019,28.2793899 69.2150064,27.8813953 C69.757931,27.7004205 70.3369004,27.3745155 70.734895,27.1574958 L70.0117464,25.7104477 Z M62.8823875,20.4636781 C62.8823875,19.0151281 63.3164268,18.21989 63.7144214,17.7850997 C64.0403263,17.4239009 64.6192958,16.9523149 65.5962597,16.9523149 C66.2480697,16.9523149 66.8991287,17.1332898 67.3699637,17.6041248 C68.2019976,18.3640691 68.2019976,19.3410331 68.2019976,20.2459075 L68.2019976,20.7527874 L62.8823875,20.7527874 L62.8823875,20.4636781 Z" id="Fill-19"></path>
                    <path d="M81.3741153,16.5911161 C80.4692409,15.794376 79.2031676,15.3242919 77.9002987,15.3242919 C77.3213293,15.3242919 76.7063151,15.4324263 76.2715248,15.5052668 C75.910326,15.6134012 75.4394909,15.794376 75.0414964,15.9393061 L75.0414964,10.9816458 L72.7616634,10.9816458 L72.7616634,27.0846553 C74.1005772,27.8813953 75.6933063,28.42432 77.5023042,28.42432 C78.8404669,28.42432 80.6509667,28.1352107 81.9530847,26.4335963 C83.0028892,25.0218421 83.2199088,23.2496399 83.2199088,21.8018409 C83.2199088,20.4261315 83.1117745,18.074209 81.3741153,16.5911161 Z M77.4655084,16.9523149 C78.3703828,16.9523149 79.3120529,17.2421751 79.8910224,17.8579402 C80.6870115,18.7267698 80.6870115,20.0281369 80.6870115,21.1507819 L80.6870115,22.2358802 C80.6870115,24.371534 80.3250617,25.2396127 79.9991567,25.7104477 C79.637207,26.1812828 78.8780136,26.7602522 77.5751447,26.7602522 C77.1043096,26.7602522 76.5245892,26.6145712 76.0905499,26.5071878 C75.7661468,26.3975515 75.3674013,26.1812828 75.0414964,25.999557 L75.0414964,17.7122592 L77.4655084,16.9523149 Z" id="Fill-20"></path>
                </g>
            </g>
        </g>
    </g>
</svg>