<?xml version="1.0" encoding="UTF-8"?>
<svg width="105px" height="38px" viewBox="0 0 105 38" version="1.1" xmlns="http://www.w3.org/2000/svg" xmlns:xlink="http://www.w3.org/1999/xlink">
    <!-- Generator: Sketch 49.2 (51160) - http://www.bohemiancoding.com/sketch -->
    <title>wire-transfer-logo</title>
    <desc>Created with Sketch.</desc>
    <defs></defs>
    <g id="HD-Desktop-1920---1440-px" stroke="none" stroke-width="1" fill="none" fill-rule="evenodd">
        <g id="HD-Desktop_EDU-Guide" transform="translate(-1427.000000, -2033.000000)" fill="#000000">
            <g id="Group-24" transform="translate(1253.000000, 1966.000000)">
                <path d="M174.047891,91.8873318 C174.037064,91.4867527 174.026238,90.9995619 174.004585,90.4501189 C173.972105,89.8898494 174.120969,89.2754476 174.175102,88.5879672 C174.24818,87.892367 174.342912,87.1399278 174.60816,86.3793688 C174.830103,85.6079833 175.019566,84.7499861 175.441798,83.9677741 C175.633967,83.5563685 175.823431,83.144963 176.012894,82.7200243 C176.226716,82.3086187 176.510911,81.9269859 176.765333,81.5264067 C177.249817,80.6900625 177.896698,79.9619828 178.540873,79.2311966 C179.174221,78.4706376 179.948313,77.8887152 180.65474,77.2120612 C181.436952,76.6626182 182.178564,76.0292701 182.971603,75.5745587 C183.753815,75.0873679 184.5252,74.6434829 185.285759,74.283503 C186.038198,73.8720974 186.777104,73.5960226 187.453758,73.3010015 C188.501219,72.8895959 189.429588,72.5702152 190.20368,72.3482727 C189.87618,71.5660608 189.600105,70.7432496 189.399815,69.8635995 C189.188699,68.965003 189.007356,68.0474603 188.985703,67 C189.989857,67.2841947 190.837028,67.6874804 191.662546,68.1205389 C192.474531,68.5535974 193.216143,69.0407883 193.91445,69.5577519 C195.319184,70.5943857 196.526334,71.7988297 197.614394,73.079059 C198.439912,74.050734 198.502164,75.4040419 197.887762,76.4406757 L197.763258,76.6517918 C196.756397,78.3217737 195.573606,79.8780777 194.136393,81.2611584 C193.427259,81.9594653 192.645047,82.6144663 191.77893,83.2180416 C191.335045,83.5022362 190.869507,83.7891375 190.40397,84.0625057 C189.916779,84.3385805 189.399815,84.5821759 188.839546,84.7932919 C188.79624,84.1897166 188.807066,83.6186207 188.850372,83.0691777 C188.901798,82.5305612 188.974876,81.9919446 189.061488,81.4641546 C189.240125,80.4275207 189.505373,79.4423126 189.854527,78.5031169 C189.884299,78.4083854 189.927605,78.3109472 189.970911,78.2053892 C189.632584,78.2486951 189.294257,78.3028274 188.912624,78.3542531 C188.319875,78.481464 187.654048,78.5653691 186.977394,78.7575388 C186.289914,78.9145225 185.591607,79.136465 184.874354,79.3908869 C184.121914,79.6128294 183.456087,79.9944622 182.695528,80.3003098 C182.018874,80.7117154 181.247488,81.0500424 180.61414,81.5588861 C179.948313,82.0325439 179.279779,82.5197347 178.730336,83.12331 C178.446141,83.4183311 178.129467,83.6835795 177.875045,83.9894271 C177.63145,84.3061011 177.387854,84.6254818 177.155085,84.9421558 C176.627295,85.5430245 176.310621,86.2413314 175.950641,86.8855059 C175.558182,87.5323871 175.325413,88.1873881 175.125124,88.8099097 C174.924834,89.435138 174.659586,89.9954074 174.575681,90.5231975 C174.470123,91.061814 174.386218,91.5165255 174.313139,91.8981583 C174.175102,92.6803702 174.08849,93.1242552 174.08849,93.1242552 C174.08849,93.1242552 174.08037,92.6695438 174.047891,91.8873318 Z M277.155481,87.3948567 L266.805382,87.3948567 L266.805382,82.5527212 L275.907731,82.5527212 L275.907731,79.2560632 L266.805382,79.2560632 L266.805382,75.3314703 L276.711596,75.3314703 L276.711596,72.0348124 L262.978228,72.0348124 L262.978228,90.7050478 L277.155481,90.7050478 L277.155481,87.3948567 Z M227.453896,101.826532 L227.453896,102.051181 L225.391455,102.051181 C225.27507,101.637069 225.201992,101.182357 225.201992,100.262108 C225.201992,99.0468376 225.126206,98.5812996 223.751246,98.5812996 L221.826842,98.5812996 L221.826842,102.051181 L220.010703,102.051181 L220.010703,93.1680681 L224.503685,93.1680681 C226.871974,93.1680681 227.305032,94.9138353 227.305032,95.6852208 C227.305032,96.6568958 226.807015,97.5040666 225.919245,97.7990877 C226.660858,98.1157617 227.05061,98.3918365 227.05061,100.050992 C227.05061,101.352874 227.05061,101.680375 227.453896,101.826532 Z M225.442881,95.8638574 C225.442881,95.3983195 225.231765,94.7027193 224.143705,94.7027193 L221.826842,94.7027193 L221.826842,97.0818345 L224.005668,97.0818345 C224.980049,97.0818345 225.442881,96.7516274 225.442881,95.8638574 Z M195.47778,89.7467124 C194.863378,90.2745024 194.091992,90.6344823 193.436991,91.0675408 C192.684552,91.3950414 192.029551,91.7983271 191.290645,92.0419225 C190.581512,92.3152907 189.883205,92.5588861 189.195725,92.7375228 C188.529897,92.9486388 187.86407,93.0569034 187.282147,93.2030607 C186.911341,93.2680195 186.564894,93.3194452 186.226567,93.3735775 C186.25634,93.2680195 186.299646,93.1705813 186.340245,93.0758497 C186.648799,92.1258276 186.892395,91.1324996 187.038552,90.0958658 C187.114337,89.5653691 187.165763,89.0267526 187.198242,88.4773096 C187.230722,87.9278666 187.219895,87.3567707 187.165763,86.7531953 C186.605493,86.9859643 186.099356,87.2512126 185.622992,87.5354073 C185.157454,87.8223086 184.713569,88.1173297 184.269684,88.4258839 C183.422513,89.059232 182.661954,89.7250594 181.974474,90.4450192 C180.56974,91.8822322 179.438375,93.468309 178.485646,95.1599439 L178.369262,95.3710599 C177.776513,96.4293466 177.892897,97.7826545 178.750894,98.7326767 C179.871433,99.9804265 181.108357,101.144271 182.54557,102.137599 C183.254703,102.635617 184.015262,103.098448 184.851606,103.51256 C185.674417,103.913139 186.532415,104.305598 187.547396,104.549194 C187.493263,103.501734 187.282147,102.592311 187.049378,101.693714 C186.816609,100.827597 186.521588,100.012906 186.183261,99.2415204 C186.932994,98.9870985 187.853243,98.6487716 188.889877,98.2048866 C189.566531,97.8882125 190.294611,97.5904848 191.036223,97.1574263 C191.785956,96.7785001 192.538395,96.3129622 193.30978,95.7932919 C194.081166,95.327754 194.809246,94.6619266 195.572511,94.0908306 C196.259992,93.4033502 197.020551,92.7916551 197.621419,92.0094431 C198.257474,91.2570039 198.869169,90.5072714 199.334707,89.6628073 C199.567476,89.2486951 199.843551,88.8697689 200.04384,88.4448302 C200.222477,88.0225981 200.40382,87.6003661 200.582457,87.1889605 C200.985743,86.3850956 201.142726,85.5270984 201.343016,84.7448865 C201.586611,83.973501 201.662397,83.2237684 201.702996,82.5254615 C201.746302,81.8379811 201.873513,81.2235794 201.81938,80.6633099 C201.789608,80.1138669 201.767955,79.6293827 201.735475,79.2260969 C201.692169,78.443885 201.662397,78 201.662397,78 C201.662397,78 201.597438,78.443885 201.470227,79.2152705 C201.407975,79.5969033 201.334896,80.0624412 201.248284,80.6010577 C201.186032,81.1288478 200.93161,81.6999437 200.752974,82.3359984 C200.571631,82.9585201 200.349688,83.6243475 199.989708,84.2793485 C199.651381,84.9370562 199.35636,85.6434829 198.850223,86.2578847 C198.617454,86.5745587 198.384685,86.9020592 198.162743,87.2295597 C197.919147,87.5462338 197.602473,87.8223086 197.315572,88.1173297 C196.787782,88.7425579 196.132781,89.2486951 195.47778,89.7467124 Z M233.329959,93.1680681 L236.461513,102.059301 L234.442378,102.059301 L233.871282,100.221509 L230.59357,100.221509 L229.968342,102.059301 L228.014166,102.059301 L231.186319,93.1680681 L233.329959,93.1680681 Z M233.351612,98.6868577 L232.241899,95.176377 L232.231073,95.176377 L231.088881,98.6868577 L233.351612,98.6868577 Z M211.677033,94.7433185 L214.364702,94.7433185 L214.364702,102.059301 L216.213321,102.059301 L216.213321,94.7433185 L218.898284,94.7433185 L218.898284,93.1680681 L211.668913,93.1680681 L211.677033,94.7433185 Z M236.650976,90.6942213 L240.54309,90.6942213 L240.54309,72.0239859 L236.650976,72.0239859 L236.650976,90.6942213 Z M222.695666,76.1353352 C223.307361,79.7216011 223.656514,81.5485667 225.580918,90.7050478 L229.324168,90.7050478 L234.577709,72.0239859 L230.623343,72.0239859 C228.203629,82.3010059 227.897781,83.906029 227.581107,85.6842756 L227.526975,85.6842756 C227.115569,83.2618545 226.923399,82.279353 224.74728,72.0239859 L220.611571,72.0239859 C218.635742,81.835468 218.348841,83.7273924 218.010514,85.6842756 L217.959088,85.6842756 C217.620761,83.5487558 217.387992,82.2468736 214.987224,72.0239859 L210.832569,72.0239859 L216.107763,90.7050478 L219.756281,90.7050478 C221.753763,81.074909 222.070437,79.7216011 222.641533,76.1353352 L222.695666,76.1353352 Z M255.091149,86.9320255 C255.091149,84.3823934 254.931459,83.3890654 252.046207,83.3890654 L248.016056,83.3890654 L248.016056,90.7050478 L244.188901,90.7050478 L244.188901,72.0239859 L253.629577,72.0239859 C258.598923,72.0239859 259.508346,75.6914502 259.508346,77.3100065 C259.508346,79.3616212 258.474419,81.1263347 256.623094,81.7515629 C258.155039,82.4282168 258.991383,82.9966062 258.991383,86.4881405 C258.991383,89.224529 258.991383,89.9011829 259.827727,90.2097371 L259.827727,90.7050478 L255.513382,90.7050478 C255.248133,89.8172778 255.091149,88.8456028 255.091149,86.9320255 Z M255.608113,77.6916393 C255.608113,76.7064311 255.175055,75.2475653 252.879844,75.2475653 L248.016056,75.2475653 L248.016056,80.2493912 L252.59565,80.2493912 C254.625612,80.2493912 255.608113,79.5402578 255.608113,77.6916393 Z M254.869207,102.059301 L256.717826,102.059301 L256.717826,98.3187579 L260.628885,98.3187579 L260.628885,96.7516274 L256.717826,96.7516274 L256.717826,94.7433185 L261.189155,94.7433185 L261.189155,93.1680681 L254.869207,93.1680681 L254.869207,102.059301 Z M264.25575,98.191547 L268.580922,98.191547 L268.580922,96.6162966 L264.25575,96.6162966 L264.25575,94.7433185 L268.970675,94.7433185 L268.970675,93.1680681 L262.436905,93.1680681 L262.436905,102.059301 L269.184498,102.059301 L269.184498,100.484051 L264.25575,100.484051 L264.25575,98.191547 Z M243.079189,99.3635116 L243.057536,99.3635116 L239.528109,93.1680681 L237.571226,93.1680681 L237.571226,102.059301 L239.306166,102.059301 L239.306166,95.7285266 L239.325113,95.7285266 L242.951978,102.059301 L244.814129,102.059301 L244.814129,93.1680681 L243.079189,93.1680681 L243.079189,99.3635116 Z M251.115131,96.9952228 L248.957958,96.4674327 C248.576325,96.3835277 248.005229,96.2346638 248.005229,95.5363569 C248.005229,94.732492 248.8524,94.4699503 249.561533,94.4699503 C251.177383,94.4699503 251.326247,95.4199724 251.377673,95.8124317 L253.155919,95.8124317 C253.145093,94.7216656 252.414306,92.9352992 249.686038,92.9352992 C246.811612,92.9352992 246.283822,94.6918928 246.283822,95.6743943 C246.283822,97.6312775 247.656076,97.9479516 249.095996,98.2862785 L250.046018,98.508221 C250.998746,98.74099 251.664574,98.9196266 251.664574,99.607107 C251.664574,100.559836 250.682072,100.760125 249.802422,100.760125 C248.186573,100.760125 247.932151,99.818223 247.921324,99.3229124 L246.145784,99.3229124 C246.145784,100.421798 246.695227,102.29207 249.94046,102.29207 C250.722672,102.29207 253.440114,102.059301 253.440114,99.3851645 C253.440114,97.7882612 252.330401,97.2929505 251.115131,96.9952228 Z M278.137983,101.826532 L278.137983,102.051181 L276.086368,102.051181 C275.959157,101.637069 275.886078,101.182357 275.886078,100.262108 C275.886078,99.0468376 275.813,98.5812996 274.438039,98.5812996 L272.524462,98.5812996 L272.524462,102.051181 L270.694789,102.051181 L270.694789,93.1680681 L275.187771,93.1680681 C277.55606,93.1680681 277.989119,94.9138353 277.989119,95.6852208 C277.989119,96.6568958 277.493808,97.5040666 276.616865,97.7990877 C277.334118,98.1157617 277.737403,98.3918365 277.737403,100.050992 C277.737403,101.352874 277.737403,101.680375 278.137983,101.826532 Z M276.129674,95.8638574 C276.129674,95.3983195 275.918558,94.7027193 274.830498,94.7027193 L272.524462,94.7027193 L272.524462,97.0818345 L274.692461,97.0818345 C275.664136,97.0818345 276.129674,96.7516274 276.129674,95.8638574 Z" id="wire-transfer-logo"></path>
            </g>
        </g>
    </g>
</svg>