<?xml version="1.0" encoding="UTF-8"?>
<svg width="79px" height="53px" viewBox="0 0 79 53" version="1.1" xmlns="http://www.w3.org/2000/svg" xmlns:xlink="http://www.w3.org/1999/xlink">
    <!-- Generator: Sketch 49.2 (51160) - http://www.bohemiancoding.com/sketch -->
    <title>Group 21</title>
    <desc>Created with Sketch.</desc>
    <defs></defs>
    <g id="HD-Desktop-1920---1440-px" stroke="none" stroke-width="1" fill="none" fill-rule="evenodd">
        <g id="HD-Desktop_EDU-Calculator" transform="translate(-475.000000, -669.000000)">
            <g id="Group-21" transform="translate(475.000000, 669.000000)">
                <rect id="Rectangle-13" stroke="#FFFFFF" x="0.5" y="0.5" width="78" height="52" rx="2"></rect>
                <path d="M3,0 L18,0 L18,10.6 L1,10.6 L1,2 C1,0.8954305 1.8954305,2.02906125e-16 3,0 Z" id="Rectangle-14" fill="#FFFFFF"></path>
                <rect id="Rectangle-14-Copy-18" fill="#FFFFFF" x="1" y="12" width="17" height="2.86048203"></rect>
                <rect id="Rectangle-14-Copy-28" fill="#FFFFFF" x="19" y="12" width="59" height="2.86048203"></rect>
                <rect id="Rectangle-14-Copy-19" fill="#FFFFFF" x="1" y="16.2222222" width="17" height="2.86048203"></rect>
                <rect id="Rectangle-14-Copy-29" fill="#FFFFFF" x="19" y="16.2222222" width="59" height="2.86048203"></rect>
                <rect id="Rectangle-14-Copy-20" fill="#FFFFFF" x="1" y="20.4444444" width="17" height="2.86048203"></rect>
                <rect id="Rectangle-14-Copy-30" fill="#FFFFFF" x="19" y="20.4444444" width="59" height="2.86048203"></rect>
                <rect id="Rectangle-14-Copy-21" fill="#FFFFFF" x="1" y="24.6666667" width="17" height="2.86048203"></rect>
                <rect id="Rectangle-14-Copy-31" fill="#FFFFFF" x="19" y="24.6666667" width="59" height="2.86048203"></rect>
                <rect id="Rectangle-14-Copy-22" fill="#FFFFFF" x="1" y="28.8888889" width="17" height="2.86048203"></rect>
                <rect id="Rectangle-14-Copy-32" fill="#FFFFFF" x="19" y="28.8888889" width="59" height="2.86048203"></rect>
                <rect id="Rectangle-14-Copy-23" fill="#FFFFFF" x="1" y="33.1111111" width="17" height="2.86048203"></rect>
                <rect id="Rectangle-14-Copy-33" fill="#FFFFFF" x="19" y="33.1111111" width="59" height="2.86048203"></rect>
                <rect id="Rectangle-14-Copy-24" fill="#FFFFFF" x="1" y="37.3333333" width="17" height="2.86048203"></rect>
                <rect id="Rectangle-14-Copy-34" fill="#FFFFFF" x="19" y="37.3333333" width="59" height="2.86048203"></rect>
                <rect id="Rectangle-14-Copy-25" fill="#FFFFFF" x="1" y="41.5555556" width="17" height="2.86048203"></rect>
                <rect id="Rectangle-14-Copy-35" fill="#FFFFFF" x="19" y="41.5555556" width="59" height="2.86048203"></rect>
                <rect id="Rectangle-14-Copy-26" fill="#FFFFFF" x="1" y="45.7777778" width="17" height="2.86048203"></rect>
                <rect id="Rectangle-14-Copy-36" fill="#FFFFFF" x="19" y="45.7777778" width="59" height="2.86048203"></rect>
                <rect id="Rectangle-14-Copy-27" fill="#FFFFFF" x="1" y="50" width="17" height="2.86048203"></rect>
                <rect id="Rectangle-14-Copy-37" fill="#FFFFFF" x="19" y="50" width="59" height="2.86048203"></rect>
                <path d="M19,0 L76,0 C77.1045695,3.72131305e-15 78,0.8954305 78,2 L78,10.6 L19,10.6 L19,0 Z" id="Rectangle-14-Copy-6" fill="#FFFFFF"></path>
            </g>
        </g>
    </g>
</svg>