<?xml version="1.0" encoding="UTF-8"?>
<svg width="54px" height="74px" viewBox="0 0 54 74" version="1.1" xmlns="http://www.w3.org/2000/svg" xmlns:xlink="http://www.w3.org/1999/xlink">
    <!-- Generator: Sketch 49.2 (51160) - http://www.bohemiancoding.com/sketch -->
    <title>Group 28</title>
    <desc>Created with Sketch.</desc>
    <defs></defs>
    <g id="HD-Desktop-1920---1440-px" stroke="none" stroke-width="1" fill="none" fill-rule="evenodd">
        <g id="HD-Desktop_EDU-Calculator" transform="translate(-345.000000, -658.000000)">
            <g id="Group-28" transform="translate(345.000000, 658.000000)">
                <rect id="Rectangle-13" stroke="#FFFFFF" x="0.5" y="0.5" width="53" height="73"></rect>
                <rect id="Rectangle-14" stroke="#FFFFFF" x="4.5" y="13.5" width="44" height="5" rx="2.5"></rect>
                <rect id="Rectangle-14-Copy-12" stroke="#FFFFFF" x="4.5" y="24.5" width="44" height="5" rx="2.5"></rect>
                <path d="M7,13 L13.1527009,13 L13.1527009,19 L7,19 C5.34314575,19 4,17.6568542 4,16 L4,16 C4,14.3431458 5.34314575,13 7,13 Z" id="Rectangle-14-Copy-11" fill="#FFFFFF"></path>
                <path d="M7,24 L13.1527009,24 L13.1527009,30 L7,30 C5.34314575,30 4,28.6568542 4,27 L4,27 C4,25.3431458 5.34314575,24 7,24 Z" id="Rectangle-14-Copy-13" fill="#FFFFFF"></path>
                <rect id="Rectangle-14-Copy-15" fill="#FFFFFF" x="4" y="44" width="22" height="6" rx="3"></rect>
                <rect id="Rectangle-14-Copy-14" fill="#FFFFFF" x="9" y="32.6475435" width="10" height="5" rx="2.5"></rect>
                <rect id="Rectangle-14-Copy-17" stroke="#FFFFFF" x="35.5" y="44.5" width="13" height="5" rx="2.5"></rect>
                <path d="M4,40 L49,40" id="Line" stroke="#FFFFFF" stroke-linecap="square"></path>
                <rect id="Rectangle-14-Copy-9" fill="#FFFFFF" x="4" y="58" width="22" height="7" rx="2"></rect>
                <rect id="Rectangle-14-Copy-16" fill="#FFFFFF" x="27" y="58" width="22" height="7" rx="2"></rect>
                <path d="M19.5,13.5 L19.5,18.5" id="Line-2" stroke="#FFFFFF" stroke-linecap="square"></path>
                <path d="M19.5,24.5 L19.5,29.5" id="Line-2-Copy-4" stroke="#FFFFFF" stroke-linecap="square"></path>
                <path d="M26.5,13.5 L26.5,18.5" id="Line-2-Copy" stroke="#FFFFFF" stroke-linecap="square"></path>
                <path d="M26.5,24.5 L26.5,29.5" id="Line-2-Copy-5" stroke="#FFFFFF" stroke-linecap="square"></path>
                <path d="M33.5,13.5 L33.5,18.5" id="Line-2-Copy-2" stroke="#FFFFFF" stroke-linecap="square"></path>
                <path d="M33.5,24.5 L33.5,29.5" id="Line-2-Copy-6" stroke="#FFFFFF" stroke-linecap="square"></path>
                <path d="M40.5,13.5 L40.5,18.5" id="Line-2-Copy-3" stroke="#FFFFFF" stroke-linecap="square"></path>
                <path d="M40.5,24.5 L40.5,29.5" id="Line-2-Copy-7" stroke="#FFFFFF" stroke-linecap="square"></path>
            </g>
        </g>
    </g>
</svg>