<?xml version="1.0" encoding="UTF-8"?>
<svg width="20px" height="19px" viewBox="0 0 20 19" version="1.1" xmlns="http://www.w3.org/2000/svg" xmlns:xlink="http://www.w3.org/1999/xlink">
    <!-- Generator: Sketch 49.2 (51160) - http://www.bohemiancoding.com/sketch -->
    <title>Page 1 Copy 2</title>
    <desc>Created with Sketch.</desc>
    <defs>
        <polygon id="path-1" points="13.4992727 0.0269276534 13.4992727 7.38991515 0.0127753869 7.38991515 0.0127753869 0.0269276534 13.4992727 0.0269276534"></polygon>
    </defs>
    <g id="HD-Desktop-1920---1440-px" stroke="none" stroke-width="1" fill="none" fill-rule="evenodd">
        <g id="HD-Desktop_EDU-Today" transform="translate(-771.000000, -130.000000)">
            <g id="Group-12" transform="translate(771.000000, 129.000000)">
                <g id="Page-1-Copy-2" transform="translate(0.000000, 1.000000)">
                    <path d="M15.2007636,18.6957576 L1.45506667,18.6957576 C0.652763636,18.6957576 3.63636364e-05,18.0430303 3.63636364e-05,17.2407273 L3.63636364e-05,7.82763636 C3.63636364e-05,7.02533333 0.652763636,6.37260606 1.45506667,6.37260606 L15.2007636,6.37260606 C16.0030667,6.37260606 16.6557939,7.02533333 16.6557939,7.82763636 L16.6557939,10.6768485 C16.6557939,10.8442424 16.5201576,10.9798788 16.3527636,10.9798788 C16.1853697,10.9798788 16.0497333,10.8442424 16.0497333,10.6768485 L16.0497333,7.82763636 C16.0497333,7.35951515 15.6688848,6.97866667 15.2007636,6.97866667 L1.45506667,6.97866667 C0.986945455,6.97866667 0.60609697,7.35951515 0.60609697,7.82763636 L0.60609697,17.2407273 C0.60609697,17.7088485 0.986945455,18.089697 1.45506667,18.089697 L15.2007636,18.089697 C15.6688848,18.089697 16.0497333,17.7088485 16.0497333,17.2407273 L16.0497333,14.3917576 C16.0497333,14.2243636 16.1853697,14.0887273 16.3527636,14.0887273 C16.5201576,14.0887273 16.6557939,14.2243636 16.6557939,14.3917576 L16.6557939,17.2407273 C16.6557939,18.0430303 16.0030667,18.6957576 15.2007636,18.6957576" id="Fill-1" fill="#2D2F45"></path>
                    <path d="M12.0861818,10.9796121 C11.5848485,10.9796121 11.1770909,11.3873697 11.1770909,11.888703 L11.1770909,13.1796121 C11.1770909,13.6809455 11.5848485,14.088703 12.0861818,14.088703 L15.8406061,14.088703 C16.3418182,14.088703 16.749697,13.6809455 16.749697,13.1796121 L16.749697,11.888703 C16.749697,11.3873697 16.3418182,10.9796121 15.8406061,10.9796121 L12.0861818,10.9796121 Z M15.8406061,14.6947636 L12.0861818,14.6947636 C11.2506667,14.6947636 10.5710303,14.0151273 10.5710303,13.1796121 L10.5710303,11.888703 C10.5710303,11.0531879 11.2506667,10.3735515 12.0861818,10.3735515 L15.8406061,10.3735515 C16.676,10.3735515 17.3557576,11.0531879 17.3557576,11.888703 L17.3557576,13.1796121 C17.3557576,14.0151273 16.676,14.6947636 15.8406061,14.6947636 Z" id="Fill-3" fill="#2D2F45"></path>
                    <path d="M13.3449333,12.534303 C13.3449333,12.1604848 13.041903,11.8574545 12.6682061,11.8574545 C12.2945091,11.8574545 11.9914788,12.1604848 11.9914788,12.534303 C11.9914788,12.9078788 12.2945091,13.2109091 12.6682061,13.2109091 C13.041903,13.2109091 13.3449333,12.9078788 13.3449333,12.534303" id="Fill-5" fill="#2D2F45"></path>
                    <path d="M15.4318182,15.4220848 C15.2644242,15.4220848 15.1287879,15.2864485 15.1287879,15.1190545 L15.1287879,14.3917818 C15.1287879,14.2243879 15.2644242,14.0887515 15.4318182,14.0887515 C15.5992121,14.0887515 15.7348485,14.2243879 15.7348485,14.3917818 L15.7348485,15.1190545 C15.7348485,15.2864485 15.5992121,15.4220848 15.4318182,15.4220848" id="Fill-7" fill="#2D2F45"></path>
                    <path d="M3.84593939,8.18202424 L2.35830303,8.18202424 C2.19090909,8.18202424 2.05527273,8.04638788 2.05527273,7.87899394 C2.05527273,7.7116 2.19090909,7.57596364 2.35830303,7.57596364 L3.84593939,7.57596364 C4.01333333,7.57596364 4.1489697,7.7116 4.1489697,7.87899394 C4.1489697,8.04638788 4.01333333,8.18202424 3.84593939,8.18202424 M6.82121212,8.18202424 L5.33357576,8.18202424 C5.16618182,8.18202424 5.03054545,8.04638788 5.03054545,7.87899394 C5.03054545,7.7116 5.16618182,7.57596364 5.33357576,7.57596364 L6.82121212,7.57596364 C6.98860606,7.57596364 7.12424242,7.7116 7.12424242,7.87899394 C7.12424242,8.04638788 6.98860606,8.18202424 6.82121212,8.18202424 M9.79660606,8.18202424 L8.30884848,8.18202424 C8.14145455,8.18202424 8.00581818,8.04638788 8.00581818,7.87899394 C8.00581818,7.7116 8.14145455,7.57596364 8.30884848,7.57596364 L9.79660606,7.57596364 C9.964,7.57596364 10.0996364,7.7116 10.0996364,7.87899394 C10.0996364,8.04638788 9.964,8.18202424 9.79660606,8.18202424 M12.7718788,8.18202424 L11.2842424,8.18202424 C11.1168485,8.18202424 10.9812121,8.04638788 10.9812121,7.87899394 C10.9812121,7.7116 11.1168485,7.57596364 11.2842424,7.57596364 L12.7718788,7.57596364 C12.9392727,7.57596364 13.0749091,7.7116 13.0749091,7.87899394 C13.0749091,8.04638788 12.9392727,8.18202424 12.7718788,8.18202424 M15.4307879,8.75778182 C15.270303,8.75778182 15.1364848,8.63196364 15.1283636,8.46978182 C15.1204848,8.31111515 14.9847273,8.18202424 14.825697,8.18202424 L14.2595152,8.18202424 C14.0921212,8.18202424 13.9564848,8.04638788 13.9564848,7.87899394 C13.9564848,7.7116 14.0921212,7.57596364 14.2595152,7.57596364 L14.825697,7.57596364 C15.3106667,7.57596364 15.7095758,7.95535758 15.733697,8.43972121 C15.7420606,8.60687273 15.6133333,8.74905455 15.4461818,8.75741818 C15.4409697,8.75766061 15.4358788,8.75778182 15.4307879,8.75778182 M1.6070303,10.6663879 C1.43963636,10.6663879 1.304,10.5308727 1.304,10.3633576 L1.304,8.87584242 C1.304,8.70844848 1.43963636,8.57281212 1.6070303,8.57281212 C1.77442424,8.57281212 1.91006061,8.70844848 1.91006061,8.87584242 L1.91006061,10.3633576 C1.91006061,10.5308727 1.77442424,10.6663879 1.6070303,10.6663879 M1.6070303,13.6417818 C1.43963636,13.6417818 1.304,13.5061455 1.304,13.3387515 L1.304,11.8511152 C1.304,11.6837212 1.43963636,11.5480848 1.6070303,11.5480848 C1.77442424,11.5480848 1.91006061,11.6837212 1.91006061,11.8511152 L1.91006061,13.3387515 C1.91006061,13.5061455 1.77442424,13.6417818 1.6070303,13.6417818 M1.6070303,16.6171758 C1.43963636,16.6171758 1.304,16.4815394 1.304,16.3141455 L1.304,14.8263879 C1.304,14.6591152 1.43963636,14.5233576 1.6070303,14.5233576 C1.77442424,14.5233576 1.91006061,14.6591152 1.91006061,14.8263879 L1.91006061,16.3141455 C1.91006061,16.4815394 1.77442424,16.6171758 1.6070303,16.6171758 M3.91006061,17.5496606 L2.42242424,17.5496606 C2.2550303,17.5496606 2.11939394,17.4140242 2.11939394,17.2466303 C2.11939394,17.0792364 2.2550303,16.9436 2.42242424,16.9436 L3.91006061,16.9436 C4.07745455,16.9436 4.21309091,17.0792364 4.21309091,17.2466303 C4.21309091,17.4140242 4.07745455,17.5496606 3.91006061,17.5496606 M6.88545455,17.5496606 L5.39769697,17.5496606 C5.23030303,17.5496606 5.09466667,17.4140242 5.09466667,17.2466303 C5.09466667,17.0792364 5.23030303,16.9436 5.39769697,16.9436 L6.88545455,16.9436 C7.05284848,16.9436 7.18848485,17.0792364 7.18848485,17.2466303 C7.18848485,17.4140242 7.05284848,17.5496606 6.88545455,17.5496606 M9.86072727,17.5496606 L8.37309091,17.5496606 C8.20569697,17.5496606 8.07006061,17.4140242 8.07006061,17.2466303 C8.07006061,17.0792364 8.20569697,16.9436 8.37309091,16.9436 L9.86072727,16.9436 C10.0281212,16.9436 10.1637576,17.0792364 10.1637576,17.2466303 C10.1637576,17.4140242 10.0281212,17.5496606 9.86072727,17.5496606 M12.836,17.5496606 L11.3484848,17.5496606 C11.1810909,17.5496606 11.0454545,17.4140242 11.0454545,17.2466303 C11.0454545,17.0792364 11.1810909,16.9436 11.3484848,16.9436 L12.836,16.9436 C13.0033939,16.9436 13.1390303,17.0792364 13.1390303,17.2466303 C13.1390303,17.4140242 13.0033939,17.5496606 12.836,17.5496606 M14.825697,17.5496606 L14.3237576,17.5496606 C14.1563636,17.5496606 14.0207273,17.4140242 14.0207273,17.2466303 C14.0207273,17.0792364 14.1563636,16.9436 14.3237576,16.9436 L14.825697,16.9436 C14.9928485,16.9436 15.1287273,16.8077212 15.1287273,16.6405697 L15.1287273,16.6067515 C15.1287273,16.4393576 15.2644848,16.3037212 15.4317576,16.3037212 C15.5991515,16.3037212 15.7347879,16.4393576 15.7347879,16.6067515 L15.7347879,16.6405697 C15.7347879,17.141903 15.3270303,17.5496606 14.825697,17.5496606" id="Fill-9" fill="#2D2F45"></path>
                    <path d="M15.4318182,10.9796121 C15.2644242,10.9796121 15.1287879,10.844097 15.1287879,10.6765818 L15.1287879,9.94930909 C15.1287879,9.78191515 15.2644242,9.64627879 15.4318182,9.64627879 C15.5992121,9.64627879 15.7348485,9.78191515 15.7348485,9.94930909 L15.7348485,10.6765818 C15.7348485,10.844097 15.5992121,10.9796121 15.4318182,10.9796121" id="Fill-11" fill="#2D2F45"></path>
                    <g id="Group-15" transform="translate(6.424242, 2.210909)">
                        <mask id="mask-2" fill="white">
                            <use xlink:href="#path-1"></use>
                        </mask>
                        <g id="Clip-14"></g>
                        <path d="M10.0412606,7.38991515 C9.94210909,7.38991515 9.84501818,7.3414303 9.78695758,7.25209697 C9.69568485,7.11173333 9.73544242,6.92409697 9.87580606,6.83282424 L12.7770182,4.94615758 L10.5156848,1.46846061 L6.66574545,0.652460606 L0.481018182,4.67403636 C0.340654545,4.76518788 0.15289697,4.72555152 0.0617454545,4.58518788 C-0.0294060606,4.44482424 0.0103515152,4.25718788 0.150593939,4.16591515 L6.44065455,0.0759757576 C6.50804848,0.0320969697 6.58998788,0.0167030303 6.66865455,0.0336727273 L10.7640485,0.901793939 C10.8427152,0.918278788 10.9114424,0.965551515 10.9553212,1.03294545 L13.4503515,4.86979394 C13.541503,5.01015758 13.5017455,5.19779394 13.361503,5.28906667 L10.2061091,7.34094545 C10.1550788,7.37403636 10.0978667,7.38991515 10.0412606,7.38991515" id="Fill-13" fill="#2D2F45" mask="url(#mask-2)"></path>
                    </g>
                    <path d="M13.6828242,2.98907879 L14.7326424,4.60386667 L16.3470667,3.55380606 L13.6828242,2.98907879 Z M14.6437939,5.3261697 C14.6228242,5.3261697 14.6018545,5.32410909 14.5810061,5.31962424 C14.5023394,5.30301818 14.4336121,5.25574545 14.3897333,5.18835152 L12.7760364,2.70604848 C12.7092485,2.60326061 12.7108242,2.47053333 12.7802788,2.36944242 C12.8494909,2.26835152 12.9731273,2.21865455 13.0928848,2.24447273 L17.1882788,3.11271515 C17.3081576,3.13804848 17.4010061,3.2332 17.4234303,3.35368485 C17.4457333,3.4741697 17.3933697,3.59635152 17.290703,3.66313939 L14.8091273,5.2772 C14.7594303,5.30944242 14.7019758,5.3261697 14.6437939,5.3261697 Z" id="Fill-16" fill="#2D2F45"></path>
                    <path d="M9.10494545,6.93392727 C9.00579394,6.93392727 8.90870303,6.88544242 8.85064242,6.79610909 C8.7593697,6.65574545 8.79912727,6.46810909 8.93949091,6.37683636 C9.64058182,5.92095758 10.4511273,5.37901818 11.2350061,4.85501818 C12.0216727,4.32907879 12.8352485,3.7852 13.5408242,3.32641212 C13.6811879,3.23526061 13.8688242,3.27489697 13.9599758,3.41526061 C14.0512485,3.55562424 14.0114909,3.74326061 13.8711273,3.83453333 C13.1688242,4.29113939 12.3570667,4.83392727 11.5718545,5.35889697 C10.7864,5.88386667 9.97415758,6.42677576 9.26979394,6.88495758 C9.21876364,6.91804848 9.16155152,6.93392727 9.10494545,6.93392727" id="Fill-18" fill="#2D2F45"></path>
                    <path d="M16.5892,8.04163636 C16.4900485,8.04163636 16.3929576,7.99315152 16.334897,7.90381818 C16.2436242,7.76345455 16.2833818,7.57581818 16.4237455,7.48454545 L17.5152606,6.77484848 L16.4725939,5.17133333 C16.3813212,5.0309697 16.4210788,4.84333333 16.5614424,4.75206061 C16.7018061,4.66078788 16.8894424,4.70078788 16.9805939,4.84090909 L18.1884727,6.69836364 C18.2797455,6.83872727 18.2399879,7.02636364 18.0996242,7.11763636 L16.7540485,7.99266667 C16.7030182,8.02587879 16.6458061,8.04163636 16.5892,8.04163636" id="Fill-20" fill="#2D2F45"></path>
                    <path d="M2.81386667,6.97878788 C2.78683636,6.97878788 2.75944242,6.97515152 2.7321697,6.96751515 C2.57095758,6.92242424 2.47677576,6.75527273 2.52186667,6.59406061 C2.92829091,5.13927273 3.1152,4.01757576 3.35180606,2.59757576 L3.35883636,2.55624242 C3.37156364,2.47939394 3.41350303,2.41042424 3.47580606,2.36363636 C3.88259394,2.05854545 4.33677576,1.77066667 4.77592727,1.49224242 C5.4022303,1.09539394 6.04962424,0.684969697 6.60307879,0.201939394 C6.81083636,0 7.03701818,0 7.17277576,0 C7.18829091,0 7.20368485,0.00121212121 7.21895758,0.00351515152 C8.78780606,0.244848485 11.5961697,0.944121212 11.7238061,0.976 L11.729503,0.977333333 C11.8084121,0.998545455 11.8719273,1.04921212 11.9110788,1.11454545 C11.9112,1.11478788 11.9114424,1.1150303 11.9115636,1.11527273 C11.9116848,1.11563636 11.9119273,1.11587879 11.9120485,1.11612121 C11.949503,1.17951515 11.9639273,1.25648485 11.9473212,1.33369697 L11.4143515,3.84715152 C11.3795636,4.01090909 11.2192,4.11527273 11.0549576,4.08072727 C10.8913212,4.04606061 10.7867152,3.88521212 10.821503,3.72145455 L11.2919273,1.50254545 C11.2736242,1.4969697 11.2561697,1.48981818 11.2396848,1.48121212 C10.4349576,1.28557576 8.38162424,0.797818182 7.14998788,0.606181818 C7.05798788,0.606909091 7.04926061,0.612606061 7.02344242,0.638424242 C7.01871515,0.643151515 7.01374545,0.647878788 7.00877576,0.652363636 C6.41871515,1.16848485 5.74853333,1.59333333 5.10041212,2.00412121 C4.68853333,2.26521212 4.29750303,2.51309091 3.93641212,2.77672727 C3.70295758,4.17745455 3.51313939,5.29866667 3.10550303,6.75721212 C3.0681697,6.8910303 2.94635152,6.97878788 2.81386667,6.97878788" id="Fill-22" fill="#2D2F45"></path>
                    <path d="M4.44259394,2.45842424 L6.32635152,2.85781818 L6.72550303,0.974060606 L4.44259394,2.45842424 Z M6.55992727,3.52012121 C6.53895758,3.52012121 6.51786667,3.51793939 6.49701818,3.51345455 L3.60126061,2.89975758 C3.48126061,2.87442424 3.38853333,2.77915152 3.36610909,2.65854545 C3.34380606,2.53806061 3.3961697,2.41587879 3.49883636,2.34921212 L7.00841212,0.0671515152 C7.1112,0.000606060606 7.24404848,0.00206060606 7.34513939,0.0713939394 C7.4462303,0.140727273 7.49556364,0.264121212 7.47010909,0.384121212 L6.85641212,3.27987879 C6.83968485,3.35854545 6.79241212,3.42727273 6.72513939,3.4710303 C6.67556364,3.50327273 6.61810909,3.52012121 6.55992727,3.52012121 Z" id="Fill-24" fill="#2D2F45"></path>
                    <path d="M4.06848485,6.97878788 C4.04763636,6.97878788 4.02654545,6.97648485 4.00533333,6.972 C3.84169697,6.93733333 3.73709091,6.77660606 3.77175758,6.61272727 L4.58036364,2.79745455 C4.61515152,2.63381818 4.77624242,2.52909091 4.93963636,2.56387879 C5.10339394,2.59854545 5.20787879,2.75939394 5.17321212,2.92315152 L4.36460606,6.73854545 C4.33442424,6.8809697 4.20860606,6.97878788 4.06848485,6.97878788" id="Fill-26" fill="#2D2F45"></path>
                    <path d="M9.95887273,3.57869091 C9.93802424,3.57869091 9.91693333,3.57638788 9.89572121,3.57190303 C9.73196364,3.53723636 9.62747879,3.37638788 9.66214545,3.2126303 L9.82905455,2.42535758 L7.95802424,2.02887273 C7.79426667,1.99420606 7.68966061,1.83335758 7.72432727,1.6696 C7.75923636,1.50584242 7.92032727,1.40172121 8.0836,1.43602424 L10.2511152,1.89529697 C10.3297818,1.91190303 10.3985091,1.95917576 10.4423879,2.02644848 C10.4862667,2.09396364 10.5014182,2.17602424 10.4848121,2.2545697 L10.2549939,3.33844848 C10.2248121,3.48087273 10.0989939,3.5785697 9.95887273,3.57869091" id="Fill-28" fill="#2D2F45"></path>
                </g>
            </g>
        </g>
    </g>
</svg>