<?xml version="1.0" encoding="UTF-8"?>
<svg width="20px" height="19px" viewBox="0 0 20 19" version="1.1" xmlns="http://www.w3.org/2000/svg" xmlns:xlink="http://www.w3.org/1999/xlink">
    <!-- Generator: Sketch 49.2 (51160) - http://www.bohemiancoding.com/sketch -->
    <title>Page 1</title>
    <desc>Created with Sketch.</desc>
    <defs>
        <polygon id="path-1" points="11.830566 0.0260966994 11.830566 11.8238994 5.93071615 11.8238994 0.0308662574 11.8238994 0.0308662574 0.0260966994"></polygon>
        <polygon id="path-3" points="0 15.392717 0 0.0996352201 17.0681635 0.0996352201 17.0681635 15.392717"></polygon>
    </defs>
    <g id="HD-Desktop-1920---1440-px" stroke="none" stroke-width="1" fill="none" fill-rule="evenodd">
        <g id="HD-Desktop_EDU-Today" transform="translate(-1044.000000, -131.000000)">
            <g id="Group-18" transform="translate(1044.000000, 129.000000)">
                <g id="Page-1" transform="translate(0.000000, 2.000000)">
                    <g id="Group-3" transform="translate(8.050314, 6.315472)">
                        <mask id="mask-2" fill="white">
                            <use xlink:href="#path-1"></use>
                        </mask>
                        <g id="Clip-2"></g>
                        <path d="M9.68007547,11.8238994 L9.67755975,11.8238994 C9.18963522,11.8231447 8.73227673,11.6332075 8.38976101,11.288805 L6.22410063,9.11169811 C6.02774843,8.91433962 5.82837736,8.82528302 5.67718239,8.86805031 C5.52598742,8.91056604 5.40208805,9.09031447 5.33730818,9.3608805 L4.9716478,10.8899371 C4.83932075,11.4433962 4.60862893,11.7325786 4.28623899,11.7498113 C3.96271698,11.7660377 3.70384906,11.5037736 3.51353459,10.9675472 L0.136176101,1.45056604 C-0.102691824,0.777358491 0.118440252,0.419874214 0.271522013,0.266792453 C0.424603774,0.113710692 0.781962264,-0.107421384 1.45542138,0.131320755 L10.9725283,3.50867925 C11.5090063,3.69899371 11.7720252,3.95886792 11.7546667,4.28075472 C11.7371824,4.60289308 11.4476226,4.8327044 10.8937862,4.96402516 L9.27391195,5.3481761 C9.10472956,5.3881761 8.93554717,5.2836478 8.89542138,5.11471698 C8.85542138,4.94566038 8.9598239,4.77622642 9.1288805,4.73610063 L10.7487547,4.35207547 C10.9096352,4.31383648 11.008,4.27408805 11.0663648,4.24352201 C11.0116478,4.20691824 10.9180629,4.15672956 10.7622138,4.10138365 L1.24510692,0.724150943 C0.950138365,0.619496855 0.775924528,0.651949686 0.716301887,0.711446541 C0.656679245,0.771069182 0.624226415,0.945283019 0.728880503,1.24025157 L4.10623899,10.7573585 C4.1598239,10.9083019 4.21114465,11.0049057 4.24976101,11.0626415 C4.28183648,11.0012579 4.32259119,10.8996226 4.35994969,10.7437736 L4.72561006,9.21471698 C4.84674214,8.7081761 5.12422642,8.37018868 5.50699371,8.26264151 C5.88976101,8.15522013 6.30284277,8.2991195 6.67001258,8.6681761 L8.83567296,10.8454088 C9.05944654,11.0703145 9.35869182,11.1944654 9.67844025,11.1949686 L9.68007547,11.1949686 C9.99919497,11.1949686 10.2981887,11.0716981 10.5222138,10.8475472 L10.8524025,10.5171069 C11.3184403,10.051195 11.3184403,9.29308176 10.8525283,8.82716981 L9.1088805,7.0836478 C8.98611321,6.96100629 8.98611321,6.76188679 9.1088805,6.63899371 C9.23177358,6.51622642 9.4307673,6.51622642 9.55366038,6.63899371 L11.2971824,8.38251572 C12.0083774,9.09358491 12.0083774,10.2506918 11.2971824,10.961761 L10.9668679,11.2922013 C10.6241006,11.6350943 10.1671195,11.8237736 9.68007547,11.8238994" id="Fill-1" fill="#2D2F45" mask="url(#mask-2)"></path>
                    </g>
                    <g id="Group-6" transform="translate(0.000000, 0.026164)">
                        <mask id="mask-4" fill="white">
                            <use xlink:href="#path-3"></use>
                        </mask>
                        <g id="Clip-5"></g>
                        <path d="M9.83810063,15.392717 L1.29885535,15.392717 C0.582628931,15.392717 -1.25786164e-05,14.8100755 -1.25786164e-05,14.0938491 L-1.25786164e-05,1.39850314 C-1.25786164e-05,0.68227673 0.582628931,0.0996352201 1.29885535,0.0996352201 L15.769044,0.0996352201 C16.4853962,0.0996352201 17.0681635,0.68227673 17.0681635,1.39850314 L17.0681635,9.06630189 C17.0681635,9.24001258 16.927283,9.3807673 16.7536981,9.3807673 C16.5799874,9.3807673 16.4392327,9.24001258 16.4392327,9.06630189 L16.4392327,1.39850314 C16.4392327,1.02919497 16.1386038,0.728566038 15.769044,0.728566038 L1.29885535,0.728566038 C0.929421384,0.728566038 0.628918239,1.02919497 0.628918239,1.39850314 L0.628918239,14.0938491 C0.628918239,14.4631572 0.929421384,14.7637862 1.29885535,14.7637862 L9.83810063,14.7637862 C10.0118113,14.7637862 10.152566,14.9045409 10.152566,15.0782516 C10.152566,15.2519623 10.0118113,15.392717 9.83810063,15.392717" id="Fill-4" fill="#2D2F45" mask="url(#mask-4)"></path>
                    </g>
                    <path d="M16.7536352,4.4012956 L0.314515723,4.4012956 C0.140805031,4.4012956 5.03144654e-05,4.26054088 5.03144654e-05,4.08683019 C5.03144654e-05,3.9131195 0.140805031,3.77236478 0.314515723,3.77236478 L16.7536352,3.77236478 C16.9273459,3.77236478 17.0681006,3.9131195 17.0681006,4.08683019 C17.0681006,4.26054088 16.9273459,4.4012956 16.7536352,4.4012956" id="Fill-7" fill="#2D2F45"></path>
                    <path d="M2.25456604,2.31845283 C2.23343396,2.31845283 2.21607547,2.33568553 2.21607547,2.35681761 C2.21607547,2.37820126 2.23343396,2.39555975 2.25456604,2.39555975 C2.2758239,2.39555975 2.29318239,2.37820126 2.29318239,2.35681761 C2.29318239,2.33568553 2.2758239,2.31845283 2.25456604,2.31845283 M2.25456604,3.02449057 C1.88651572,3.02449057 1.58714465,2.72486792 1.58714465,2.35681761 C1.58714465,1.98889308 1.88651572,1.68952201 2.25456604,1.68952201 C2.62261635,1.68952201 2.92211321,1.98889308 2.92211321,2.35681761 C2.92211321,2.72486792 2.62261635,3.02449057 2.25456604,3.02449057" id="Fill-9" fill="#2D2F45"></path>
                    <path d="M4.09026415,2.31845283 C4.06913208,2.31845283 4.05177358,2.33568553 4.05177358,2.35681761 C4.05177358,2.37820126 4.06913208,2.39555975 4.09026415,2.39555975 C4.11152201,2.39555975 4.1288805,2.37820126 4.1288805,2.35681761 C4.1288805,2.33568553 4.11152201,2.31845283 4.09026415,2.31845283 M4.09026415,3.02449057 C3.72221384,3.02449057 3.42284277,2.72486792 3.42284277,2.35681761 C3.42284277,1.98889308 3.72221384,1.68952201 4.09026415,1.68952201 C4.45831447,1.68952201 4.75781132,1.98889308 4.75781132,2.35681761 C4.75781132,2.72486792 4.45831447,3.02449057 4.09026415,3.02449057" id="Fill-11" fill="#2D2F45"></path>
                    <path d="M5.9967044,2.31845283 C5.97544654,2.31845283 5.95808805,2.33568553 5.95808805,2.35681761 C5.95808805,2.37820126 5.97544654,2.39555975 5.9967044,2.39555975 C6.01783648,2.39555975 6.03519497,2.37820126 6.03519497,2.35681761 C6.03519497,2.33568553 6.01783648,2.31845283 5.9967044,2.31845283 M5.9967044,3.02449057 C5.62865409,3.02449057 5.32915723,2.72486792 5.32915723,2.35681761 C5.32915723,1.98889308 5.62865409,1.68952201 5.9967044,1.68952201 C6.36475472,1.68952201 6.66412579,1.98889308 6.66412579,2.35681761 C6.66412579,2.72486792 6.36475472,3.02449057 5.9967044,3.02449057" id="Fill-13" fill="#2D2F45"></path>
                </g>
            </g>
        </g>
    </g>
</svg>