<?xml version="1.0" encoding="UTF-8"?>
<svg width="20px" height="18px" viewBox="0 0 20 18" version="1.1" xmlns="http://www.w3.org/2000/svg" xmlns:xlink="http://www.w3.org/1999/xlink">
    <!-- Generator: Sketch 49.2 (51160) - http://www.bohemiancoding.com/sketch -->
    <title>Page 1</title>
    <desc>Created with Sketch.</desc>
    <defs>
        <polygon id="path-1" points="9.59889161 0.0793631353 0 0.0793631353 0 17.2688304 9.59889161 17.2688304 19.1977832 17.2688304 19.1977832 0.0793631353 9.59889161 0.0793631353"></polygon>
    </defs>
    <g id="HD-Desktop-1920---1440-px" stroke="none" stroke-width="1" fill="none" fill-rule="evenodd">
        <g id="HD-Desktop_EDU-Today" transform="translate(-345.000000, -132.000000)">
            <g id="Group" transform="translate(345.000000, 129.000000)">
                <g id="Page-1" transform="translate(0.000000, 3.000000)">
                    <g id="Group-3" transform="translate(0.000000, 0.043111)">
                        <mask id="mask-2" fill="white">
                            <use xlink:href="#path-1"></use>
                        </mask>
                        <g id="Clip-2"></g>
                        <path d="M11.855101,17.2688304 L0.320502143,17.2688304 C0.143282303,17.2688304 -1.22473974e-05,17.1252909 -1.22473974e-05,16.9481935 L-1.22473974e-05,0.399877526 C-1.22473974e-05,0.222780159 0.143282303,0.0793631353 0.320502143,0.0793631353 L2.61358236,0.0793631353 C2.7908022,0.0793631353 2.9343417,0.222780159 2.9343417,0.399877526 L2.9343417,1.54794856 C2.9343417,1.65401102 2.88192284,1.75321494 2.79423148,1.81285977 C2.58369871,1.95639927 2.45779547,2.19375383 2.45779547,2.44739743 C2.45779547,2.87042254 2.80231476,3.21469688 3.22546234,3.21469688 C3.64885487,3.21469688 3.99312921,2.87042254 3.99312921,2.44739743 C3.99312921,2.19350888 3.86722596,1.95627679 3.65681568,1.81298224 C3.56900184,1.75333742 3.51658298,1.65401102 3.51658298,1.54794856 L3.51658298,0.399877526 C3.51658298,0.222780159 3.66012247,0.0793631353 3.83709737,0.0793631353 L5.80047765,0.0793631353 C5.97757502,0.0793631353 6.12111451,0.222780159 6.12111451,0.399877526 L6.12111451,1.54794856 C6.12111451,1.6541335 6.06869565,1.75333742 5.98088181,1.81298224 C5.770594,1.95615432 5.64505818,2.19326393 5.64505818,2.44739743 C5.64505818,2.87042254 5.98908757,3.21469688 6.41223515,3.21469688 C6.83538273,3.21469688 7.1795346,2.87042254 7.1795346,2.44739743 C7.1795346,2.19338641 7.05375383,1.95627679 6.84322107,1.81310472 C6.75540723,1.75345989 6.70286589,1.6541335 6.70286589,1.54794856 L6.70286589,0.399877526 C6.70286589,0.222780159 6.84640539,0.0793631353 7.02362523,0.0793631353 L8.98725046,0.0793631353 C9.16422535,0.0793631353 9.3080098,0.222780159 9.3080098,0.399877526 L9.3080098,1.54794856 C9.3080098,1.65401102 9.25534599,1.75333742 9.16789957,1.81298224 C8.95736681,1.95627679 8.83158604,2.19350888 8.83158604,2.44739743 C8.83158604,2.87042254 9.17573791,3.21469688 9.59888549,3.21469688 C10.0217881,3.21469688 10.3660625,2.87042254 10.3660625,2.44739743 C10.3660625,2.19338641 10.2404042,1.95627679 10.0299939,1.81298224 C9.94242498,1.75333742 9.88976118,1.6541335 9.88976118,1.54794856 L9.88976118,0.399877526 C9.88976118,0.222780159 10.0333007,0.0793631353 10.2102756,0.0793631353 L12.1740233,0.0793631353 C12.3509982,0.0793631353 12.4945377,0.222780159 12.4945377,0.399877526 L12.4945377,1.54794856 C12.4945377,1.65401102 12.4418739,1.75333742 12.354305,1.81298224 C12.1437722,1.95627679 12.0182364,2.19350888 12.0182364,2.44739743 C12.0182364,2.87042254 12.3625107,3.21469688 12.7854133,3.21469688 C13.2085609,3.21469688 13.5524679,2.87042254 13.5524679,2.44739743 C13.5524679,2.19326393 13.427177,1.95615432 13.2166442,1.81298224 C13.1290753,1.75333742 13.076534,1.6541335 13.076534,1.54794856 L13.076534,0.399877526 C13.076534,0.222780159 13.2200735,0.0793631353 13.3970484,0.0793631353 L15.3604287,0.0793631353 C15.5374036,0.0793631353 15.680943,0.222780159 15.680943,0.399877526 L15.680943,1.54794856 C15.680943,1.65401102 15.6286467,1.75333742 15.5408328,1.81298224 C15.330545,1.95627679 15.2050092,2.19338641 15.2050092,2.44739743 C15.2050092,2.87042254 15.5491611,3.21469688 15.9723086,3.21469688 C16.3952113,3.21469688 16.7394856,2.87042254 16.7394856,2.44739743 C16.7394856,2.19338641 16.6140723,1.95615432 16.403662,1.81298224 C16.3158481,1.75333742 16.2634293,1.6541335 16.2634293,1.54794856 L16.2634293,0.399877526 C16.2634293,0.222780159 16.4069688,0.0793631353 16.5839437,0.0793631353 L18.8770239,0.0793631353 C19.0542437,0.0793631353 19.1977832,0.222780159 19.1977832,0.399877526 L19.1977832,10.6219228 C19.1977832,10.7990202 19.0542437,10.9425597 18.8770239,10.9425597 C18.700049,10.9425597 18.5565095,10.7990202 18.5565095,10.6219228 L18.5565095,0.720391917 L16.9045805,0.720391917 L16.9045805,1.39191672 C17.2054991,1.65744029 17.3807593,2.04066136 17.3807593,2.44739743 C17.3807593,3.2240049 16.7490386,3.85584813 15.9723086,3.85584813 C15.1955787,3.85584813 14.563613,3.2240049 14.563613,2.44739743 C14.563613,2.04066136 14.7389957,1.65756277 15.0399143,1.39191672 L15.0399143,0.720391917 L13.7178077,0.720391917 L13.7178077,1.39191672 C14.0184813,1.65731782 14.1938641,2.04066136 14.1938641,2.44739743 C14.1938641,3.2240049 13.5621433,3.85584813 12.7854133,3.85584813 C12.0089284,3.85584813 11.3769626,3.2240049 11.3769626,2.44739743 C11.3769626,2.04078383 11.5522229,1.65756277 11.8533864,1.39191672 L11.8533864,0.720391917 L10.5310349,0.720391917 L10.5310349,1.39191672 C10.8319535,1.65744029 11.0073362,2.04066136 11.0073362,2.44739743 C11.0073362,3.2240049 10.3753705,3.85584813 9.59888549,3.85584813 C8.82215554,3.85584813 8.19018983,3.2240049 8.19018983,2.44739743 C8.19018983,2.04078383 8.36581751,1.65756277 8.66673607,1.39191672 L8.66673607,0.720391917 L7.34413962,0.720391917 L7.34413962,1.39179424 C7.64530312,1.65744029 7.82068585,2.04066136 7.82068585,2.44739743 C7.82068585,3.2240049 7.18884262,3.85584813 6.41223515,3.85584813 C5.63575015,3.85584813 5.00402939,3.2240049 5.00402939,2.44739743 C5.00402939,2.04066136 5.1790447,1.65731782 5.47996326,1.39191672 L5.47996326,0.720391917 L4.15785671,0.720391917 L4.15785671,1.39191672 C4.45877526,1.65756277 4.63415799,2.04078383 4.63415799,2.44739743 C4.63415799,3.2240049 4.00219228,3.85584813 3.22546234,3.85584813 C2.44873239,3.85584813 1.81676669,3.2240049 1.81676669,2.44739743 C1.81676669,2.04090631 1.99214942,1.65780772 2.29306797,1.39203919 L2.29306797,0.720391917 L0.641016534,0.720391917 L0.641016534,16.6276791 L11.855101,16.6276791 C12.0320759,16.6276791 12.1756154,16.7712186 12.1756154,16.9481935 C12.1756154,17.1252909 12.0320759,17.2688304 11.855101,17.2688304" id="Fill-1" fill="#2D2F45" mask="url(#mask-2)"></path>
                    </g>
                    <path d="M11.855101,17.3119412 C11.6781261,17.3119412 11.5345867,17.1684017 11.5345867,16.9913043 C11.5345867,16.8143295 11.6781261,16.67079 11.855101,16.67079 C12.6686957,16.67079 13.3154807,16.4041641 13.7770851,15.8785058 C14.9703491,14.5203919 14.6421188,11.868218 14.638812,11.8413962 C14.6265646,11.7485609 14.6557134,11.6547459 14.718665,11.5851806 C14.7817391,11.5156154 14.8717575,11.4783833 14.9654501,11.4796081 C16.0423637,11.510594 17.9403429,11.3735456 18.4524066,10.8759339 C18.544752,10.7862829 18.5565095,10.7162278 18.5565095,10.6650337 C18.5565095,10.4880588 18.700049,10.3445193 18.8770239,10.3445193 C19.0542437,10.3445193 19.1977832,10.4880588 19.1977832,10.6650337 C19.1977832,10.9141457 19.0944152,11.1461115 18.8993141,11.3359461 C18.1773301,12.0372321 16.161041,12.1213717 15.3077648,12.1244336 C15.3623882,12.9637477 15.3683895,15.0373546 14.2601225,16.3001837 C13.6711451,16.9714636 12.8619596,17.3119412 11.855101,17.3119412" id="Fill-4" fill="#2D2F45"></path>
                    <path d="M14.4009798,15.8595346 C14.3218616,15.8595346 14.2426209,15.8303858 14.1806491,15.7717208 C14.051929,15.6501041 14.0464176,15.4471647 14.1682792,15.3185671 L18.188365,11.0703123 C18.3098592,10.9415922 18.512921,10.9362033 18.6413962,11.0576975 C18.7701164,11.1794366 18.7756277,11.382376 18.6538885,11.5109737 L14.6336803,15.7593509 C14.5708512,15.8258543 14.4858543,15.8595346 14.4009798,15.8595346" id="Fill-6" fill="#2D2F45"></path>
                </g>
            </g>
        </g>
    </g>
</svg>