<?xml version="1.0" encoding="UTF-8"?>
<svg width="20px" height="15px" viewBox="0 0 20 15" version="1.1" xmlns="http://www.w3.org/2000/svg" xmlns:xlink="http://www.w3.org/1999/xlink">
    <!-- Generator: Sketch 49.2 (51160) - http://www.bohemiancoding.com/sketch -->
    <title>Page 1</title>
    <desc>Created with Sketch.</desc>
    <defs>
        <polygon id="path-1" points="19.9516117 0.0404848485 4.14041759e-05 0.0404848485 4.14041759e-05 7.46686061 19.9516117 7.46686061 19.9516117 0.0404848485"></polygon>
    </defs>
    <g id="HD-Desktop-1920---1440-px" stroke="none" stroke-width="1" fill="none" fill-rule="evenodd">
        <g id="HD-Desktop_EDU-Today" transform="translate(-1167.000000, -133.000000)">
            <g id="Group-14" transform="translate(1167.000000, 129.000000)">
                <g id="Page-1" transform="translate(0.000000, 4.000000)">
                    <path d="M12.9216,11.0868848 L0.303054545,11.0868848 C0.180872727,11.0868848 0.070569697,11.0135515 0.0235393939,10.9008242 C-0.0236121212,10.788097 0.00147878788,10.6580364 0.0872969697,10.5710061 L3.57820606,7.03173333 C3.69566061,6.91246061 3.88753939,6.91112727 4.00669091,7.02882424 C4.12584242,7.14627879 4.12717576,7.33815758 4.0096,7.4574303 L1.02753939,10.4808242 L12.7949333,10.4808242 L18.9241455,4.26652121 L16.1577212,4.26652121 C15.9903273,4.26652121 15.8546909,4.13088485 15.8546909,3.96349091 C15.8546909,3.79621818 15.9903273,3.66046061 16.1577212,3.66046061 L19.6486303,3.66046061 C19.7706909,3.66046061 19.8809939,3.73391515 19.9281455,3.84664242 C19.975297,3.95924848 19.9500848,4.0894303 19.8642667,4.17633939 L13.1373576,10.996703 C13.0803879,11.0542788 13.0026909,11.0868848 12.9216,11.0868848" id="Fill-1" fill="#2D2F45"></path>
                    <path d="M12.9216,14.6261818 L0.303054545,14.6261818 C0.180266667,14.6261818 0.0697212121,14.5521212 0.0228121212,14.4386667 C-0.0238545455,14.3252121 0.00244848485,14.1946667 0.0894787879,14.1082424 L2.07602424,12.1349091 C2.19469091,12.0170909 2.3865697,12.0175758 2.5046303,12.1363636 C2.6225697,12.2550303 2.62184242,12.4469091 2.50317576,12.5648485 L1.03808485,14.0201212 L12.7949333,14.0201212 L18.9241455,7.80581818 L16.1577212,7.80581818 C15.9903273,7.80581818 15.8546909,7.67018182 15.8546909,7.50278788 C15.8546909,7.33551515 15.9903273,7.19975758 16.1577212,7.19975758 L19.6486303,7.19975758 C19.7706909,7.19975758 19.8809939,7.27321212 19.9281455,7.38593939 C19.975297,7.49854545 19.9500848,7.62872727 19.8642667,7.71563636 L13.1373576,14.536 C13.0803879,14.5935758 13.0026909,14.6261818 12.9216,14.6261818" id="Fill-3" fill="#2D2F45"></path>
                    <g id="Group-7" transform="translate(0.000000, 0.080727)">
                        <mask id="mask-2" fill="white">
                            <use xlink:href="#path-1"></use>
                        </mask>
                        <g id="Clip-6"></g>
                        <path d="M1.02753939,6.8608 L12.7949333,6.8608 L18.9240242,0.64649697 L7.1566303,0.64649697 L1.02753939,6.8608 Z M12.9216,7.46686061 L0.303054545,7.46686061 C0.180872727,7.46686061 0.070569697,7.39352727 0.0235393939,7.2808 C-0.0236121212,7.16807273 0.00147878788,7.03801212 0.0872969697,6.95098182 L6.81420606,0.130739394 C6.87105455,0.0730424242 6.94887273,0.0404363636 7.02996364,0.0404363636 L19.6486303,0.0404363636 C19.7706909,0.0404363636 19.8809939,0.113890909 19.9281455,0.226618182 C19.975297,0.339224242 19.9500848,0.469406061 19.8642667,0.556315152 L13.1373576,7.37667879 C13.0803879,7.43425455 13.0026909,7.46686061 12.9216,7.46686061 Z" id="Fill-5" fill="#2D2F45" mask="url(#mask-2)"></path>
                    </g>
                </g>
            </g>
        </g>
    </g>
</svg>