<?xml version="1.0" encoding="UTF-8"?>
<svg width="20px" height="20px" viewBox="0 0 20 20" version="1.1" xmlns="http://www.w3.org/2000/svg" xmlns:xlink="http://www.w3.org/1999/xlink">
    <!-- Generator: Sketch 49.2 (51160) - http://www.bohemiancoding.com/sketch -->
    <title>Page 1</title>
    <desc>Created with Sketch.</desc>
    <defs>
        <polygon id="path-1" points="2.84994815 0.124025015 2.84994815 7.90251267 0.0233047247 7.90251267 0.0233047247 0.124025015 2.84994815 0.124025015"></polygon>
    </defs>
    <g id="HD-Desktop-1920---1440-px" stroke="none" stroke-width="1" fill="none" fill-rule="evenodd">
        <g id="HD-Desktop_EDU-Today" transform="translate(-1465.000000, -130.000000)">
            <g id="Group-9" transform="translate(1465.000000, 129.000000)">
                <g id="Page-1" transform="translate(0.000000, 1.000000)">
                    <path d="M3.57325722,15.4918049 L3.4162659,15.4918049 C2.35966564,15.4918049 2.20204986,14.8793075 2.20204986,14.5142536 C2.20204986,14.342016 2.34180585,14.202455 2.51428398,14.202455 C2.68663721,14.202455 2.8265181,14.342016 2.8265181,14.5142536 C2.8265181,14.6720238 2.8265181,14.8682075 3.4162659,14.8682075 L3.57325722,14.8682075 C3.92096114,14.8682075 4.20397014,14.5857179 4.20397014,14.2384989 L4.20397014,7.63547581 C4.20397014,7.28813208 3.92096114,7.00551775 3.57325722,7.00551775 L3.4162659,7.00551775 C3.0684371,7.00551775 2.7853032,7.28813208 2.7853032,7.63547581 L2.7853032,9.7688024 C2.7853032,9.94103999 2.6455472,10.0806011 2.47306908,10.0806011 C2.30071584,10.0806011 2.16083496,9.94103999 2.16083496,9.7688024 L2.16083496,7.63547581 C2.16083496,6.94428049 2.72398042,6.38192039 3.4162659,6.38192039 L3.57325722,6.38192039 C4.26529292,6.38192039 4.82843838,6.94428049 4.82843838,7.63547581 L4.82843838,14.2384989 C4.82843838,14.9295695 4.26529292,15.4918049 3.57325722,15.4918049" id="Fill-1" fill="#2D2F45"></path>
                    <g id="Group-5" transform="translate(0.000000, 6.923677)" fill="#2D2F45">
                        <path d="M2.51434643,7.90251267 C2.48237365,7.90251267 2.4500262,7.8975239 2.41805342,7.8872969 C0.993016904,7.42695732 -1.24893648e-05,5.36634219 -1.24893648e-05,3.8049791 C-1.24893648e-05,2.18724282 1.06220798,0.577114418 2.41805342,0.139099628 C2.58216368,0.0864680107 2.75813883,0.176016592 2.81134352,0.339773261 C2.86442332,0.503779368 2.774375,0.679509106 2.61038964,0.732514882 C1.51532214,1.08609459 0.624455749,2.46436949 0.624455749,3.8049791 C0.624455749,5.1217673 1.49184213,6.93269405 2.61038964,7.29388165 C2.774375,7.34688742 2.86442332,7.52274188 2.81134352,7.68662327 C2.768505,7.81845175 2.64610923,7.90251267 2.51434643,7.90251267" id="Fill-3"></path>
                    </g>
                    <path d="M16.419618,15.4918049 L16.2625018,15.4918049 C15.5703412,15.4918049 15.0071957,14.9295695 15.0071957,14.2384989 L15.0071957,7.63547581 C15.0071957,6.94428049 15.5703412,6.38192039 16.2625018,6.38192039 L16.419618,6.38192039 C17.1116537,6.38192039 17.6746743,6.94428049 17.6746743,7.63547581 L17.6746743,9.89165108 C17.6746743,10.0638887 17.5349183,10.2034498 17.3624401,10.2034498 C17.189962,10.2034498 17.050206,10.0638887 17.050206,9.89165108 L17.050206,7.63547581 C17.050206,7.28813208 16.7673219,7.00551775 16.419618,7.00551775 L16.2625018,7.00551775 C15.914673,7.00551775 15.631664,7.28813208 15.631664,7.63547581 L15.631664,14.2384989 C15.631664,14.5857179 15.914673,14.8682075 16.2625018,14.8682075 L16.419618,14.8682075 C17.0089911,14.8682075 17.0089911,14.6720238 17.0089911,14.5142536 C17.0089911,14.342016 17.1487471,14.202455 17.3212252,14.202455 C17.4937034,14.202455 17.6334594,14.342016 17.6334594,14.5142536 C17.6334594,14.9601257 17.4227638,15.4918049 16.419618,15.4918049" id="Fill-6" fill="#2D2F45"></path>
                    <g id="Group-10" transform="translate(16.985536, 6.923677)">
                        <mask id="mask-2" fill="white">
                            <use xlink:href="#path-1"></use>
                        </mask>
                        <g id="Clip-9"></g>
                        <path d="M0.335539274,7.90251267 C0.203776476,7.90251267 0.0812558072,7.81845175 0.0385421797,7.68662327 C-0.0145376206,7.52261716 0.0755106994,7.34688742 0.239496059,7.29388165 C1.35804357,6.93281877 2.22555485,5.12189202 2.22555485,3.8049791 C2.22555485,2.46424477 1.33468846,1.08609459 0.239496059,0.732514882 C0.0755106994,0.679509106 -0.0145376206,0.503779368 0.0385421797,0.339773261 C0.0914970863,0.176016592 0.267097555,0.0864680107 0.431832276,0.139099628 C1.78780261,0.576989699 2.85002308,2.1871181 2.85002308,3.8049791 C2.85002308,5.36646691 1.8568688,7.42708204 0.431832276,7.8872969 C0.399859503,7.8975239 0.367387154,7.90251267 0.335539274,7.90251267" id="Fill-8" fill="#2D2F45" mask="url(#mask-2)"></path>
                    </g>
                    <path d="M16.4205922,7.00551775 C16.248114,7.00551775 16.108358,6.86595666 16.108358,6.69371907 C16.108358,5.36258813 15.6850935,4.09917987 14.8844003,3.04018682 C13.7236387,1.50439123 11.9541455,0.62362231 10.0296593,0.62362231 C6.67788849,0.62362231 3.95096059,3.34662257 3.95096059,6.69371907 C3.95096059,6.86595666 3.8112046,7.00551775 3.63872647,7.00551775 C3.46624834,7.00551775 3.32649235,6.86595666 3.32649235,6.69371907 C3.32649235,3.00277098 6.33343181,2.49438946e-05 10.0296593,2.49438946e-05 C12.1518522,2.49438946e-05 14.1029407,0.971090762 15.382726,2.66440705 C16.2659738,3.83252963 16.7328263,5.22577087 16.7328263,6.69371907 C16.7328263,6.86595666 16.5930703,7.00551775 16.4205922,7.00551775" id="Fill-11" fill="#2D2F45"></path>
                    <path d="M6.42776399,3.81469475 C5.82677575,3.81469475 4.78004209,3.38790471 4.66251717,3.3391394 C4.50340266,3.2731628 4.427842,3.09082293 4.49403564,2.9318056 C4.55985459,2.77278827 4.74232421,2.69720827 4.90193829,2.76318487 C5.18931858,2.88216725 6.02360814,3.19109738 6.42776399,3.19109738 C6.55677912,3.19109738 6.95806241,2.96535514 7.28066271,2.78401302 C8.0160365,2.37044325 9.02317888,1.80409212 10.0296968,1.80409212 C10.9261834,1.80409212 11.6772938,2.17288761 12.3401044,2.49828071 C12.8170732,2.73250388 13.2262248,2.93317751 13.5514479,2.92170332 C14.3997255,2.88703131 15.136598,2.68373857 15.1440917,2.68161834 C15.3098255,2.63434966 15.4823037,2.73188028 15.5287641,2.89775718 C15.5753494,3.06363408 15.4785569,3.23549752 15.3126981,3.28201788 C15.279976,3.29124712 14.5012641,3.50688709 13.5769262,3.54480181 C13.0957109,3.56438277 12.5948874,3.31843597 12.064589,3.05802171 C11.4628514,2.76243655 10.7808072,2.42768949 10.0296968,2.42768949 C9.18691445,2.42768949 8.26220188,2.94776969 7.58702682,3.32741577 C7.08395521,3.61027953 6.7205147,3.81469475 6.42776399,3.81469475" id="Fill-13" fill="#2D2F45"></path>
                    <path d="M9.77732419,16.9136567 C9.10427233,16.9136567 8.55686347,17.3584064 8.55686347,17.9053013 C8.55686347,18.4519467 9.10427233,18.8966964 9.77732419,18.8966964 C10.4506258,18.8966964 10.9981596,18.4519467 10.9981596,17.9053013 C10.9981596,17.3584064 10.4506258,16.9136567 9.77732419,16.9136567 M9.77732419,19.5202937 C8.75994054,19.5202937 7.93239523,18.795923 7.93239523,17.9053013 C7.93239523,17.0146795 8.75994054,16.2900594 9.77732419,16.2900594 C10.7948327,16.2900594 11.6226278,17.0146795 11.6226278,17.9053013 C11.6226278,18.795923 10.7948327,19.5202937 9.77732419,19.5202937" id="Fill-15" fill="#2D2F45"></path>
                    <path d="M13.9444257,18.6965091 C13.1296196,18.6965091 12.2156479,18.548093 11.2083806,18.2000009 C11.0453944,18.1436277 10.958968,17.9661519 11.0154199,17.803393 C11.0717469,17.6406341 11.2499702,17.5545776 11.4125817,17.6107014 C15.2771658,18.9458234 17.0364178,17.1008482 17.4836619,16.5036914 C18.0780308,15.7096025 18.2230323,14.777075 17.8361118,14.2359172 C17.7359471,14.0958572 17.7685443,13.9011701 17.9089248,13.8010204 C18.0489306,13.7011201 18.2442642,13.7334224 18.3444289,13.8737318 C18.8959593,14.6452465 18.7509578,15.8520321 17.9837361,16.8769767 C17.2433665,17.8660022 15.8710351,18.6965091 13.9444257,18.6965091" id="Fill-17" fill="#2D2F45"></path>
                </g>
            </g>
        </g>
    </g>
</svg>