<?xml version="1.0" encoding="UTF-8"?>
<svg width="20px" height="19px" viewBox="0 0 20 19" version="1.1" xmlns="http://www.w3.org/2000/svg" xmlns:xlink="http://www.w3.org/1999/xlink">
    <!-- Generator: Sketch 49.2 (51160) - http://www.bohemiancoding.com/sketch -->
    <title>Page 1</title>
    <desc>Created with Sketch.</desc>
    <defs>
        <polygon id="path-1" points="9.95197484 0.0606289308 19.9038994 0.0606289308 19.9038994 18.2389937 9.95197484 18.2389937 5.03144654e-05 18.2389937 5.03144654e-05 0.0606289308"></polygon>
    </defs>
    <g id="HD-Desktop-1920---1440-px" stroke="none" stroke-width="1" fill="none" fill-rule="evenodd">
        <g id="HD-Desktop_EDU-Today" transform="translate(-476.000000, -131.000000)">
            <g id="Group-4" transform="translate(476.000000, 129.000000)">
                <g id="Page-1" transform="translate(10.000000, 12.000000) scale(-1, 1) translate(-10.000000, -12.000000) translate(0.000000, 2.000000)">
                    <path d="M9.95700629,4.00727044 L9.95612579,4.00727044 C9.78241509,4.0067673 9.64203774,3.86563522 9.64254088,3.69192453 L9.64669182,2.21054088 C9.64719497,2.03720755 9.78794969,1.89695597 9.96115723,1.89695597 L9.96203774,1.89695597 C10.1357484,1.89745912 10.2761258,2.03871698 10.2756226,2.2121761 L10.2714717,3.69368553 C10.2709686,3.86714465 10.1302138,4.00727044 9.95700629,4.00727044" id="Fill-1" fill="#2D2F45"></path>
                    <path d="M13.0824403,4.84539623 C13.0288553,4.84539623 12.9745157,4.83168553 12.9247044,4.80275472 C12.7745157,4.71545912 12.7235723,4.52300629 12.8108679,4.37281761 L13.5552704,3.09218868 C13.6426918,2.942 13.8348931,2.8910566 13.9852075,2.97822642 C14.1353962,3.06552201 14.1863396,3.25797484 14.099044,3.40816352 L13.3546415,4.68891824 C13.2962767,4.7892956 13.1907421,4.84539623 13.0824403,4.84539623" id="Fill-3" fill="#2D2F45"></path>
                    <path d="M15.3711572,7.13411321 C15.2621006,7.13411321 15.1561887,7.07738365 15.0980755,6.976 C15.0116604,6.82530818 15.0637358,6.6332327 15.2144277,6.54681761 L16.4995849,5.80983648 C16.6500252,5.7232956 16.8423522,5.77537107 16.9287673,5.92606289 C17.0151824,6.07675472 16.9631069,6.26895597 16.8124151,6.35537107 L15.5272579,7.0923522 C15.4779497,7.12065409 15.424239,7.13411321 15.3711572,7.13411321" id="Fill-5" fill="#2D2F45"></path>
                    <path d="M17.6895472,10.2641509 L17.6886667,10.2641509 L16.2071572,10.26 C16.0334465,10.2594969 15.8930692,10.1183648 15.8935723,9.94465409 C15.8940755,9.77132075 16.0347044,9.63106918 16.2080377,9.63106918 L16.2089182,9.63106918 L17.6904277,9.63522013 C17.8641384,9.63572327 18.0045157,9.77698113 18.0040126,9.95056604 C18.0035094,10.1240252 17.8627547,10.2641509 17.6895472,10.2641509" id="Fill-7" fill="#2D2F45"></path>
                    <path d="M16.6506415,14.1302264 C16.5970566,14.1302264 16.542717,14.1165157 16.4930314,14.0875849 L15.2120252,13.343434 C15.0618365,13.2562642 15.0107673,13.0636855 15.0980629,12.9134969 C15.1852327,12.763434 15.3776855,12.7123648 15.528,12.7996604 L16.8088805,13.5438113 C16.9590692,13.6309811 17.0101384,13.8235597 16.9228428,13.9736226 C16.864478,14.0741258 16.7590692,14.1302264 16.6506415,14.1302264" id="Fill-9" fill="#2D2F45"></path>
                    <path d="M3.25674214,14.1213836 C3.14768553,14.1213836 3.04177358,14.0646541 2.98366038,13.9632704 C2.89724528,13.8125786 2.94932075,13.6205031 3.10001258,13.5339623 L4.38504403,12.7972327 C4.53573585,12.7109434 4.72781132,12.7628931 4.81422642,12.9135849 C4.90064151,13.0642767 4.84856604,13.256478 4.69787421,13.3428931 L3.41284277,14.0796226 C3.36353459,14.1079245 3.30969811,14.1213836 3.25674214,14.1213836" id="Fill-11" fill="#2D2F45"></path>
                    <path d="M3.70418868,10.2582516 L3.70330818,10.2582516 L2.2221761,10.2541006 C2.04846541,10.2535975 1.90808805,10.1124654 1.90859119,9.93875472 C1.90909434,9.76542138 2.04972327,9.62516981 2.2230566,9.62516981 L2.22381132,9.62516981 L3.70506918,9.62932075 C3.87877987,9.6298239 4.01915723,9.77108176 4.01865409,9.94466667 C4.01815094,10.1181258 3.87739623,10.2582516 3.70418868,10.2582516" id="Fill-13" fill="#2D2F45"></path>
                    <path d="M4.542,7.13264151 C4.48841509,7.13264151 4.43407547,7.11893082 4.38426415,7.09 L3.10350943,6.34559748 C2.95344654,6.25830189 2.90237736,6.06584906 2.98967296,5.91566038 C3.07709434,5.76559748 3.2692956,5.71465409 3.41961006,5.8018239 L4.70036478,6.54622642 C4.85055346,6.63339623 4.90149686,6.82597484 4.81420126,6.97616352 C4.75583648,7.07654088 4.65030189,7.13264151 4.542,7.13264151" id="Fill-15" fill="#2D2F45"></path>
                    <path d="M6.83120755,4.84465409 C6.72215094,4.84465409 6.61623899,4.78792453 6.55812579,4.68654088 L5.82127044,3.40138365 C5.73498113,3.25069182 5.7870566,3.05861635 5.93762264,2.97207547 C6.08844025,2.88578616 6.28051572,2.93786164 6.36693082,3.08855346 L7.10378616,4.37371069 C7.19007547,4.52440252 7.138,4.71647799 6.98730818,4.80289308 C6.938,4.83119497 6.88416352,4.84465409 6.83120755,4.84465409" id="Fill-17" fill="#2D2F45"></path>
                    <path d="M9.95700629,4.00727044 L9.95612579,4.00727044 C9.78241509,4.0067673 9.64203774,3.86550943 9.64254088,3.69192453 L9.6469434,2.21079245 C9.64744654,2.03733333 9.78820126,1.89720755 9.96140881,1.89720755 L9.96228931,1.89720755 C10.136,1.89771069 10.2763774,2.03896855 10.2758742,2.21255346 L10.2714717,3.69381132 C10.2709686,3.86714465 10.1302138,4.00727044 9.95700629,4.00727044" id="Fill-19" fill="#2D2F45"></path>
                    <path d="M17.5686667,16.2961132 C17.5208679,16.2961132 17.4723145,16.2851698 17.4269057,16.2620252 C16.6336981,15.8603899 15.8035094,15.5211447 14.9593585,15.2537233 C13.3450189,14.7420252 11.660239,14.4824025 9.95181132,14.4824025 C7.32350943,14.4824025 4.80879245,15.0811447 2.4774717,16.2618994 C2.32262893,16.3402642 2.13332075,16.2782516 2.05483019,16.1234088 C1.97646541,15.968566 2.0383522,15.7792579 2.19332075,15.7007673 C4.61344654,14.4749811 7.22388679,13.8534717 9.95181132,13.8534717 C11.7248931,13.8534717 13.4735723,14.1229057 15.1494214,14.6541006 C16.0257736,14.9318365 16.8875346,15.2840377 17.7109308,15.7010189 C17.8658994,15.7795094 17.9279119,15.968566 17.8494214,16.1236604 C17.7940755,16.2329686 17.6835094,16.2961132 17.5686667,16.2961132" id="Fill-21" fill="#2D2F45"></path>
                    <g id="Group-25" transform="translate(0.000000, 0.065157)">
                        <mask id="mask-2" fill="white">
                            <use xlink:href="#path-1"></use>
                        </mask>
                        <g id="Clip-24"></g>
                        <path d="M15.4542642,18.2389937 L4.44961006,18.2389937 C4.38520755,18.2389937 4.32244025,18.2193711 4.26973585,18.1825157 C3.90319497,17.927044 3.55086792,17.6446541 3.22256604,17.3432704 C2.81124528,16.9655346 2.42910692,16.5503145 2.08659119,16.1091824 C1.98005031,15.9722013 2.00483019,15.7744654 2.14206289,15.6680503 C2.2792956,15.5615094 2.47690566,15.5864151 2.58332075,15.723522 C2.90432704,16.1369811 3.26256604,16.5260377 3.64784906,16.88 C3.93162264,17.1405031 4.23438994,17.3857862 4.5492327,17.6100629 L15.3546415,17.6100629 C15.6693585,17.3857862 15.9723774,17.1403774 16.2560252,16.8798742 C16.6411824,16.5261635 16.9991698,16.1371069 17.3200503,15.7237736 C18.5989182,14.0769811 19.2750189,12.1020126 19.2750189,10.0125786 C19.2750189,4.8718239 15.0926289,0.689559748 9.95187421,0.689559748 C4.81124528,0.689559748 0.628981132,4.8718239 0.628981132,10.0125786 C0.628981132,11.2149686 0.854641509,12.3851572 1.29967296,13.490566 C1.3801761,13.6906918 1.46898113,13.8909434 1.56369811,14.0855346 C1.63967296,14.2418868 1.5747673,14.4300629 1.41854088,14.5059119 C1.26244025,14.5820126 1.07413836,14.5168553 0.998163522,14.3607547 C0.897031447,14.152956 0.802188679,13.9389937 0.716150943,13.7254088 C0.240930818,12.5450314 5.03144654e-05,11.2958491 5.03144654e-05,10.0125786 C5.03144654e-05,4.52515723 4.46432704,0.0606289308 9.95187421,0.0606289308 C15.4394214,0.0606289308 19.9039497,4.52515723 19.9039497,10.0125786 C19.9039497,12.2430189 19.1821887,14.3514465 17.8167799,16.109434 C17.4743899,16.5504403 17.0923774,16.9655346 16.681434,17.3431447 C16.3530063,17.6446541 16.0006792,17.927044 15.6341384,18.1825157 C15.5813082,18.2193711 15.5185409,18.2389937 15.4542642,18.2389937" id="Fill-23" fill="#2D2F45" mask="url(#mask-2)"></path>
                    </g>
                    <path d="M9.09486792,9.57072956 C9.26518239,9.60293082 9.37725786,9.7667044 9.34568553,9.93701887 C9.33650314,9.98645283 9.33210063,10.0361384 9.33247799,10.0850692 C9.3368805,10.4919874 9.67184906,10.8235597 10.0791447,10.8236855 L10.0791447,11.1381509 L10.0874465,10.8235597 C10.287195,10.8214214 10.4739874,10.7419245 10.6137358,10.599283 C10.7533585,10.4566415 10.8290818,10.2680881 10.8269434,10.0684654 C10.8250566,9.88909434 10.7578868,9.71588679 10.637761,9.58079245 C10.530717,9.46041509 10.5329811,9.28054088 10.6376352,9.16318239 L8.82153459,5.72028931 L9.09486792,9.57072956 Z M10.0790189,11.4526164 C9.34354717,11.4524906 8.736,10.8655723 8.70480503,10.1351321 C8.58241509,10.0971447 8.49398742,9.98745912 8.48467925,9.85727044 L8.08832704,4.2731195 C8.07776101,4.12469182 8.17260377,3.98922013 8.31562264,3.94846541 C8.45901887,3.90733333 8.61071698,3.97249057 8.68015094,4.10406289 L11.3078239,9.08569811 C11.3641761,9.19236478 11.3536101,9.31978616 11.2856855,9.4148805 C11.394239,9.61223899 11.4533585,9.83425157 11.4558742,10.0617987 C11.4637987,10.8207925 10.8529811,11.4444403 10.094239,11.4524906 C10.0931069,11.4524906 10.0801509,11.4526164 10.0790189,11.4526164 Z" id="Fill-26" fill="#2D2F45"></path>
                </g>
            </g>
        </g>
    </g>
</svg>