<?xml version="1.0" encoding="UTF-8"?>
<svg width="20px" height="20px" viewBox="0 0 20 20" version="1.1" xmlns="http://www.w3.org/2000/svg" xmlns:xlink="http://www.w3.org/1999/xlink">
    <!-- Generator: Sketch 49.2 (51160) - http://www.bohemiancoding.com/sketch -->
    <title>Page 1</title>
    <desc>Created with Sketch.</desc>
    <defs>
        <polygon id="path-1" points="2.59071231e-05 0.0477986422 15.7357534 0.0477986422 15.7357534 15.7836168 2.59071231e-05 15.7836168 2.59071231e-05 0.0477986422"></polygon>
    </defs>
    <g id="HD-Desktop-1920---1440-px" stroke="none" stroke-width="1" fill="none" fill-rule="evenodd">
        <g id="HD-Desktop_EDU-Today" transform="translate(-632.000000, -130.000000)">
            <g id="Group-19" transform="translate(632.000000, 129.000000)">
                <g id="Page-1" transform="translate(0.000000, 1.000000)">
                    <g id="Group-3" transform="translate(0.000000, 0.081737)">
                        <polygon id="Clip-2" points="13.6575374 19.8189492 0 19.8189492 0 0.0477986422 19.7711506 0.0477986422 19.7711506 19.8189492 13.6575374 19.8189492 19.7711541 19.8189492 19.7711541 7.59194576 7.54392419 7.59194576 7.54392419 19.8189492"></polygon>
                        <path d="M11.9768501,19.8189492 C11.8404491,19.8189492 11.7177788,19.7330671 11.6717937,19.6034019 L7.56253536,8.02408371 C7.52082489,7.90646537 7.55048855,7.77511626 7.63883184,7.6869025 C7.72704559,7.59830014 7.85826517,7.56889556 7.97601304,7.61060603 L19.5555903,11.7198644 C19.6904369,11.7677925 19.7778734,11.8983644 19.770749,12.0412422 C19.763495,12.18412 19.663623,12.3053653 19.5247609,12.3395627 L16.9020532,12.9849092 C16.7274392,13.0268787 16.5528252,12.9213072 16.510208,12.747859 C16.4674613,12.5741517 16.5735509,12.3987605 16.7472582,12.3560138 L18.3205978,11.9688318 L8.40050126,8.44857192 L11.9206316,18.3681503 L12.6812647,15.2757465 C12.6869643,15.2523006 12.6953841,15.2296319 12.7061356,15.208129 C12.7526389,15.1151224 12.8412412,15.049966 12.943963,15.0332559 C13.0464256,15.0165458 13.1513495,15.050225 13.2249257,15.1238013 L16.9997231,18.8987282 L18.850787,17.0477938 L16.2749713,14.4721076 C16.148415,14.3456808 16.148415,14.1406259 16.2749713,14.0140696 C16.4013981,13.8876429 16.6063234,13.8876429 16.7328797,14.0140696 L19.5377144,16.8189043 C19.5984666,16.8796565 19.632664,16.9619117 19.632664,17.0477938 C19.632664,17.1338054 19.5984666,17.2160605 19.5377144,17.2768127 L17.2287421,19.5856555 C17.1021858,19.7122118 16.8972604,19.7122118 16.7708337,19.5856555 L13.1731115,15.9879334 L12.2914921,19.5724429 C12.2572947,19.7114346 12.1360493,19.8113066 11.9931716,19.8185606 C11.9877311,19.8188197 11.9822906,19.8189492 11.9768501,19.8189492" id="Fill-1" fill="#2D2F45"></path>
                    </g>
                    <g id="Group-6" transform="translate(0.000000, 0.081737)">
                        <mask id="mask-2" fill="white">
                            <use xlink:href="#path-1"></use>
                        </mask>
                        <g id="Clip-5"></g>
                        <path d="M7.86776013,15.7836168 C3.52948283,15.7836168 2.59071231e-05,12.2541599 2.59071231e-05,7.91588261 C2.59071231e-05,3.57747577 3.52948283,0.0477597815 7.86776013,0.0477597815 C12.206167,0.0477597815 15.7357534,3.57747577 15.7357534,7.91588261 C15.7357534,8.0947713 15.5908031,8.23972165 15.4119144,8.23972165 C15.2330257,8.23972165 15.0880753,8.0947713 15.0880753,7.91588261 C15.0880753,3.93447593 11.8490373,0.69543786 7.86776013,0.69543786 C3.88661252,0.69543786 0.647703985,3.93447593 0.647703985,7.91588261 C0.647703985,11.8970302 3.88661252,15.1359388 7.86776013,15.1359388 C8.04664881,15.1359388 8.19159917,15.2808891 8.19159917,15.4597778 C8.19159917,15.6386665 8.04664881,15.7836168 7.86776013,15.7836168" id="Fill-4" fill="#2D2F45" mask="url(#mask-2)"></path>
                    </g>
                    <path d="M6.8598176,12.172954 C6.83274465,12.172954 6.80515357,12.1695861 6.77782155,12.1623321 C4.88530621,11.6684128 3.56365432,9.95582244 3.56365432,7.99763254 C3.56365432,5.62415145 5.49451221,3.69329357 7.86773422,3.69329357 C9.8225562,3.69329357 11.5344989,5.01209567 12.0308794,6.9002068 C12.0763464,7.07313685 11.972977,7.25021204 11.8000469,7.29580857 C11.6278941,7.3406279 11.4499121,7.23790615 11.4044451,7.06484657 C10.9828067,5.46119565 9.52851035,4.34097164 7.86773422,4.34097164 C5.8516419,4.34097164 4.2113324,5.98128114 4.2113324,7.99763254 C4.2113324,9.66112891 5.33401758,11.1162025 6.9412955,11.5356388 C7.11435508,11.5808467 7.21811311,11.7576629 7.17290518,11.9307224 C7.13495124,12.07645 7.00347259,12.172954 6.8598176,12.172954" id="Fill-7" fill="#2D2F45"></path>
                </g>
            </g>
        </g>
    </g>
</svg>