<?xml version="1.0" encoding="UTF-8"?>
<svg width="20px" height="20px" viewBox="0 0 20 20" version="1.1" xmlns="http://www.w3.org/2000/svg" xmlns:xlink="http://www.w3.org/1999/xlink">
    <!-- Generator: Sketch 49.2 (51160) - http://www.bohemiancoding.com/sketch -->
    <title>Page 1</title>
    <desc>Created with Sketch.</desc>
    <defs>
        <polygon id="path-1" points="0.0622035223 0.045203141 12.4 0.045203141 12.4 19.5288494 6.23110176 19.5288494 0.0622035223 19.5288494"></polygon>
    </defs>
    <g id="HD-Desktop-1920---1440-px" stroke="none" stroke-width="1" fill="none" fill-rule="evenodd">
        <g id="HD-Desktop_EDU-Today" transform="translate(-1331.000000, -130.000000)">
            <g id="Group-16" transform="translate(1331.000000, 129.000000)">
                <g id="Page-1" transform="translate(0.000000, 1.000000)">
                    <g id="Group-3" transform="translate(7.374531, 0.091362)">
                        <mask id="mask-2" fill="white">
                            <use xlink:href="#path-1"></use>
                        </mask>
                        <g id="Clip-2"></g>
                        <path d="M10.2100102,19.5288494 C9.27003073,19.5288494 8.1257494,18.9413452 6.89174462,17.8075794 C5.32424718,16.3677706 3.75920792,14.1966541 2.48491635,11.6946398 C2.01786275,10.7776033 1.60529874,9.84513486 1.25883237,8.92318197 C1.19246159,8.74660294 1.28177535,8.54967566 1.45821782,8.48344145 C1.63438716,8.41707067 1.83145101,8.5061113 1.89795835,8.6828269 C2.23554797,9.58115398 2.63786958,10.4901332 3.09331512,11.3846364 C4.33155343,13.8160464 5.84469785,15.9184705 7.35374531,17.3048822 C8.75872994,18.5956982 10.0072107,19.1100034 10.7788051,18.7175145 C11.550536,18.3244793 11.8683237,17.0119495 11.6506384,15.116422 C11.4168385,13.0806419 10.6060498,10.6205531 9.36781154,8.18927962 C8.1297098,5.75800615 6.61670195,3.65558211 5.10751792,2.26917037 C3.70253329,0.978354387 2.45377945,0.463639467 1.68259474,0.856401502 C0.761051553,1.32604985 0.496797542,3.0658928 0.976142028,5.51082281 C1.01233185,5.69573233 0.891881188,5.87504268 0.706698532,5.91136907 C0.522062137,5.94796859 0.342342096,5.82710823 0.30615227,5.64206214 C-0.243386821,2.83933083 0.145414817,0.873335609 1.37259133,0.248002731 C2.42865142,-0.289518607 3.91871629,0.249778081 5.56951861,1.76633663 C7.13701605,3.20641857 8.70205531,5.37739843 9.97621031,7.8792762 C11.2505019,10.3814271 12.0860089,12.9240014 12.3290953,15.0385797 C12.5847456,17.2658245 12.1443223,18.7883919 11.0888085,19.3259133 C10.8220963,19.4616593 10.5276613,19.5288494 10.2100102,19.5288494" id="Fill-1" fill="#2D2F45" mask="url(#mask-2)"></path>
                    </g>
                    <path d="M11.5597952,6.53593718 C11.4632434,6.53593718 11.3814408,6.55054968 11.3294094,6.57717992 C11.1679891,6.65925572 11.0170843,7.04081939 11.1227859,7.84573575 C11.2303995,8.66581086 11.5682622,9.66451349 12.0745101,10.6580266 C13.0267805,12.5284261 14.2396176,13.6860908 14.8171526,13.6860908 C14.863858,13.6860908 14.9030522,13.6777603 14.9369205,13.6605531 C15.4560055,13.3960259 15.9466849,11.2156231 14.9238102,9.20701946 C14.048153,7.48711506 12.3787777,6.53593718 11.5597952,6.53593718 M14.8171526,14.3689177 C13.698409,14.3689177 12.3279754,12.6608945 11.4659747,10.9678935 C10.925449,9.9070536 10.5632776,8.82968931 10.4458313,7.93463981 C10.2756709,6.63781495 10.6637897,6.14986685 11.0194059,5.96878115 C11.1700376,5.89203141 11.3518061,5.85311028 11.5597952,5.85311028 C12.7248344,5.85311028 14.5748856,7.01692045 15.5322089,8.89701605 C16.6987504,11.1877637 16.1941413,13.7864664 15.2467873,14.2690884 C15.1163674,14.3353226 14.9717446,14.3689177 14.8171526,14.3689177" id="Fill-4" fill="#2D2F45"></path>
                    <g id="Group-8" transform="translate(0.000000, 2.276408)" fill="#2D2F45">
                        <path d="M4.92996927,17.1742984 C4.45745306,17.1742984 2.13666098,17.024213 0.68852168,14.1805121 C-0.895909867,11.0698259 0.74055309,9.01028337 0.811020826,8.92411062 C0.853082963,8.8724889 0.909621031,8.83438716 0.973123933,8.81431205 C1.01778081,8.80024582 5.53413452,7.28532605 7.49548651,0.268050529 C7.54628884,0.0865551383 7.73502219,-0.0191464664 7.91624445,0.0311095937 C8.09787641,0.0819119153 8.20398771,0.270235575 8.15318539,0.451867532 C6.23348583,7.32015022 2.03655855,9.15135541 1.28667805,9.42803687 C1.03580744,9.78884261 0.0607306248,11.4434688 1.29692045,13.8706453 C2.52286787,16.2780198 4.44338682,16.4772687 4.88217139,16.4905155 C5.52935473,16.0465415 9.20419256,13.8800683 16.2773233,16.2702356 C16.4559508,16.3304609 16.5519563,16.5242472 16.4914578,16.7028747 C16.4312325,16.8813657 16.2371731,16.9776442 16.0588187,16.9170092 C8.73563674,14.4429908 5.23683168,17.0740594 5.20241721,17.1008262 C5.14779105,17.1434346 5.08128371,17.1684261 5.01204507,17.1723865 C5.00248549,17.1729327 4.97435302,17.1742984 4.92996927,17.1742984" id="Fill-6"></path>
                    </g>
                    <path d="M8.23287129,18.2942984 C8.20528508,18.2942984 8.17715261,18.2908843 8.14915671,18.2837829 C6.93304199,17.9774667 5.23020826,17.1146466 4.02310686,14.7448276 C3.65397064,14.0200751 3.40269034,13.2879481 3.27650393,12.5686582 C3.2438648,12.3829293 3.36800273,12.2059406 3.55373165,12.173438 C3.73850461,12.1401161 3.9164493,12.2650734 3.94895186,12.4505292 C4.06353022,13.1030386 4.29309662,13.7705702 4.63150563,14.4348242 C5.72225333,16.5763059 7.2371731,17.3498122 8.3160396,17.6217139 C8.49890065,17.6677364 8.60979174,17.8533288 8.56363264,18.0361898 C8.52471151,18.191055 8.38555138,18.2942984 8.23287129,18.2942984" id="Fill-9" fill="#2D2F45"></path>
                </g>
            </g>
        </g>
    </g>
</svg>