<?xml version="1.0" encoding="UTF-8"?>
<svg width="20px" height="20px" viewBox="0 0 20 20" version="1.1" xmlns="http://www.w3.org/2000/svg" xmlns:xlink="http://www.w3.org/1999/xlink">
    <!-- Generator: Sketch 49.2 (51160) - http://www.bohemiancoding.com/sketch -->
    <title>Page 1</title>
    <desc>Created with Sketch.</desc>
    <defs>
        <polygon id="path-1" points="0 9.19148052 0 0.0262759689 10.1487338 0.0262759689 10.1487338 9.19148052 7.65994995e-16 9.19148052"></polygon>
    </defs>
    <g id="HD-Desktop-1920---1440-px" stroke="none" stroke-width="1" fill="none" fill-rule="evenodd">
        <g id="HD-Desktop_EDU-Today" transform="translate(-894.000000, -130.000000)">
            <g id="Group-13" transform="translate(894.000000, 129.000000)">
                <g id="Page-1" transform="translate(0.000000, 1.000000)">
                    <path d="M0.876597403,14.9908831 L5.05685714,19.1711429 L19.1116623,5.11620779 L14.9314026,0.935688312 L0.876597403,14.9908831 Z M5.05685714,19.9549091 C4.97374026,19.9549091 4.89062338,19.9232208 4.82724675,19.8597143 L0.187896104,15.2204935 C0.0611428571,15.0936104 0.0611428571,14.8881558 0.187896104,14.7612727 L14.7017922,0.247116883 C14.8236104,0.125298701 15.0391948,0.125298701 15.1608831,0.247116883 L19.8003636,4.8865974 C19.9271169,5.01348052 19.9271169,5.21893506 19.8003636,5.34568831 L5.28633766,19.8597143 C5.22296104,19.9232208 5.13984416,19.9549091 5.05685714,19.9549091 Z" id="Fill-1" fill="#2D2F45"></path>
                    <path d="M14.0092078,5.75285714 C13.9260909,5.75285714 13.8431039,5.72116883 13.7795974,5.65779221 L11.7649221,3.64324675 C11.638039,3.51649351 11.638039,3.31090909 11.7649221,3.18415584 C11.8916753,3.05727273 12.0971299,3.05727273 12.224013,3.18415584 L14.2388182,5.19857143 C14.3655714,5.32532468 14.3655714,5.53090909 14.2388182,5.65779221 C14.1753117,5.72116883 14.0923247,5.75285714 14.0092078,5.75285714" id="Fill-3" fill="#2D2F45"></path>
                    <path d="M11.6478312,6.27157143 C11.5647143,6.27157143 11.4817273,6.23988312 11.4182208,6.17650649 L10.3248442,5.08325974 C10.1980909,4.95650649 10.1980909,4.75092208 10.3248442,4.62403896 C10.4517273,4.49728571 10.6571818,4.49728571 10.7840649,4.62403896 L11.8774416,5.71728571 C12.0041948,5.84403896 12.0041948,6.04962338 11.8774416,6.17650649 C11.8139351,6.23988312 11.7309481,6.27157143 11.6478312,6.27157143" id="Fill-5" fill="#2D2F45"></path>
                    <path d="M14.5279351,3.3915974 C14.4448182,3.3915974 14.3618312,3.35990909 14.2983247,3.29653247 L13.2050779,2.20328571 C13.0783247,2.0764026 13.0783247,1.87094805 13.2050779,1.74406494 C13.331961,1.61731169 13.5374156,1.61731169 13.6642987,1.74406494 L14.7575455,2.83731169 C14.8842987,2.96419481 14.8842987,3.16964935 14.7575455,3.29653247 C14.694039,3.35990909 14.6110519,3.3915974 14.5279351,3.3915974" id="Fill-7" fill="#2D2F45"></path>
                    <path d="M10.207974,7.71181818 C10.1248571,7.71181818 10.0418701,7.68012987 9.97836364,7.61675325 L8.88485714,6.52350649 C8.7581039,6.39675325 8.7581039,6.19116883 8.88485714,6.06428571 C9.01148052,5.93753247 9.21719481,5.93753247 9.34407792,6.06428571 L10.4375844,7.15753247 C10.5643377,7.28428571 10.5643377,7.48987013 10.4375844,7.61675325 C10.3742078,7.68012987 10.2910909,7.71181818 10.207974,7.71181818" id="Fill-9" fill="#2D2F45"></path>
                    <path d="M9.68925974,10.0730649 C9.60614286,10.0730649 9.52315584,10.0413766 9.45964935,9.978 L7.4451039,7.96319481 C7.31822078,7.83631169 7.31822078,7.63072727 7.4451039,7.5041039 C7.57185714,7.37722078 7.77731169,7.37722078 7.90419481,7.5041039 L9.91887013,9.51877922 C10.0456234,9.64566234 10.0456234,9.85124675 9.91887013,9.978 C9.85536364,10.0413766 9.77237662,10.0730649 9.68925974,10.0730649" id="Fill-11" fill="#2D2F45"></path>
                    <path d="M7.32775325,10.5917792 C7.24463636,10.5917792 7.16164935,10.5600909 7.09814286,10.4967143 L6.0048961,9.40346753 C5.87814286,9.27658442 5.87814286,9.07112987 6.0048961,8.94424675 C6.13177922,8.81749351 6.33723377,8.81749351 6.46411688,8.94424675 L7.55736364,10.0374935 C7.68411688,10.1643766 7.68411688,10.3698312 7.55736364,10.4967143 C7.49385714,10.5600909 7.41087013,10.5917792 7.32775325,10.5917792" id="Fill-13" fill="#2D2F45"></path>
                    <path d="M5.88776623,12.0317662 C5.80464935,12.0317662 5.72166234,12.0000779 5.65815584,11.9367013 L4.56477922,10.8434545 C4.43802597,10.7167013 4.43802597,10.5111169 4.56477922,10.3842338 C4.69166234,10.2574805 4.89711688,10.2574805 5.024,10.3842338 L6.11737662,11.4774805 C6.24412987,11.6042338 6.24412987,11.8098182 6.11737662,11.9367013 C6.05387013,12.0000779 5.97088312,12.0317662 5.88776623,12.0317662" id="Fill-15" fill="#2D2F45"></path>
                    <path d="M5.36903896,14.3932727 C5.28592208,14.3932727 5.20293506,14.3615844 5.13942857,14.2982078 L3.12488312,12.2834026 C2.998,12.1565195 2.998,11.9509351 3.12488312,11.8243117 C3.25163636,11.6974286 3.45709091,11.6974286 3.58397403,11.8243117 L5.59864935,13.838987 C5.7254026,13.9658701 5.7254026,14.1714545 5.59864935,14.2982078 C5.53514286,14.3615844 5.45215584,14.3932727 5.36903896,14.3932727" id="Fill-17" fill="#2D2F45"></path>
                    <path d="M3.00779221,14.9117403 C2.92467532,14.9117403 2.84168831,14.8800519 2.77818182,14.8166753 L1.68493506,13.7234286 C1.55818182,13.5965455 1.55818182,13.3910909 1.68493506,13.2642078 C1.81181818,13.1374545 2.01727273,13.1374545 2.14415584,13.2642078 L3.2374026,14.3574545 C3.36415584,14.4843377 3.36415584,14.6897922 3.2374026,14.8166753 C3.1738961,14.8800519 3.09090909,14.9117403 3.00779221,14.9117403" id="Fill-19" fill="#2D2F45"></path>
                    <path d="M18.7982987,14.8835844 C18.7151818,14.8835844 18.6321948,14.8518961 18.5686883,14.7885195 L15.3102468,11.5298182 C15.1833636,11.4029351 15.1833636,11.1973506 15.3102468,11.0707273 C15.437,10.9438442 15.6424545,10.9438442 15.7693377,11.0707273 L19.0279091,14.3292987 C19.1546623,14.4561818 19.1546623,14.6617662 19.0279091,14.7885195 C18.9644026,14.8518961 18.8814156,14.8835844 18.7982987,14.8835844" id="Fill-21" fill="#2D2F45"></path>
                    <g id="Group-25" transform="translate(0.000000, 0.103636)">
                        <mask id="mask-2" fill="white">
                            <use xlink:href="#path-1"></use>
                        </mask>
                        <g id="Clip-24"></g>
                        <path d="M4.47149351,9.19148052 C4.38837662,9.19148052 4.30538961,9.15979221 4.24188312,9.09641558 L3.0888961,7.94355844 C3.07097403,7.92563636 3.05525974,7.90563636 3.04188312,7.88394805 C3.03227273,7.86823377 2.0711039,6.29966234 1.24396104,4.63018182 C-0.319285714,1.4745974 -0.102012987,0.65212987 0.262012987,0.288233766 C0.625909091,-0.0755324675 1.44837662,-0.293194805 4.60396104,1.27018182 C6.27357143,2.09732468 7.84214286,3.05849351 7.85772727,3.06823377 C7.87941558,3.08148052 7.89941558,3.09719481 7.91733766,3.11524675 L10.0535714,5.25122078 C10.1804545,5.37797403 10.1804545,5.58355844 10.0535714,5.71031169 C9.92681818,5.83719481 9.72136364,5.83719481 9.59448052,5.71031169 L7.48564935,3.60174026 C7.255,3.46148052 5.82461039,2.59927273 4.31214286,1.85031169 C1.2611039,0.339402597 0.767467532,0.701220779 0.721103896,0.747324675 C0.67487013,0.793688312 0.312922078,1.28771429 1.82590909,4.34187013 C2.57487013,5.85407792 3.43538961,7.28135065 3.57551948,7.51174026 L4.7011039,8.63719481 C4.82785714,8.76394805 4.82785714,8.96953247 4.7011039,9.09641558 C4.6375974,9.15979221 4.55461039,9.19148052 4.47149351,9.19148052" id="Fill-23" fill="#2D2F45" mask="url(#mask-2)"></path>
                    </g>
                    <path d="M14.4291299,19.2527532 C14.346013,19.2527532 14.263026,19.2210649 14.1995195,19.1576883 L9.86419481,14.8222338 C9.73731169,14.6953506 9.73731169,14.4898961 9.86419481,14.3631429 C9.99094805,14.2362597 10.1964026,14.2362597 10.3232857,14.3631429 L14.6587403,18.6984675 C14.7854935,18.8253506 14.7854935,19.0308052 14.6587403,19.1576883 C14.5952338,19.2210649 14.5122468,19.2527532 14.4291299,19.2527532" id="Fill-26" fill="#2D2F45"></path>
                    <path d="M1.31490909,3.71235065 C1.17880519,3.71235065 1.05205195,3.62611688 1.00672727,3.48988312 C0.950233766,3.32001299 1.04218182,3.13624675 1.21205195,3.07962338 C1.22348052,3.07572727 1.77218182,2.88585714 2.19088312,2.46702597 C2.61607792,2.0417013 2.83594805,1.45377922 2.83815584,1.44780519 C2.9001039,1.28001299 3.08568831,1.19325974 3.25477922,1.25520779 C3.42283117,1.3168961 3.50932468,1.50274026 3.44802597,1.67092208 C3.43724675,1.7004026 3.17932468,2.39663636 2.64997403,2.92611688 C2.11724675,3.4591039 1.44555844,3.68624675 1.41724675,3.69572727 C1.38322078,3.7068961 1.34880519,3.71235065 1.31490909,3.71235065" id="Fill-28" fill="#2D2F45"></path>
                    <path d="M3.49163636,8.02457143 C3.38332468,8.02457143 3.27761039,7.97054545 3.21592208,7.87197403 C3.12098701,7.7198961 3.16722078,7.51963636 3.31916883,7.42457143 C3.32994805,7.41781818 4.4067013,6.7398961 5.4167013,5.73002597 C6.43176623,4.71509091 7.17527273,3.57119481 7.18267532,3.55976623 C7.28020779,3.40911688 7.48124675,3.36625974 7.63163636,3.4634026 C7.78215584,3.56080519 7.82527273,3.76171429 7.728,3.91236364 C7.69631169,3.96145455 6.93916883,5.12587013 5.87579221,6.18911688 C4.81124675,7.25366234 3.70968831,7.94625974 3.66319481,7.97522078 C3.60968831,8.00872727 3.55033766,8.02457143 3.49163636,8.02457143" id="Fill-30" fill="#2D2F45"></path>
                    <path d="M14.4293896,19.2527532 C14.3257532,19.2527532 14.2239351,19.2032727 14.1610779,19.1111948 C14.0599091,18.9631429 14.097961,18.7610649 14.246013,18.660026 C14.2588701,18.6511948 15.5327662,17.7771688 16.5899091,16.720026 C17.6471818,15.6623636 18.5214675,14.3885974 18.5301688,14.3757403 C18.6314675,14.2275584 18.8332857,14.190026 18.9814675,14.2908052 C19.1293896,14.391974 19.1674416,14.5939221 19.0664026,14.7421039 C19.0295195,14.796 18.1505584,16.0774286 17.049,17.1791169 C15.9477013,18.2805455 14.6661429,19.1593766 14.6121169,19.1961299 C14.5562727,19.2344416 14.4925065,19.2527532 14.4293896,19.2527532" id="Fill-32" fill="#2D2F45"></path>
                    <path d="M12.815013,17.6385065 C12.7113766,17.6385065 12.6095584,17.589026 12.5467013,17.4969481 C12.4455325,17.349026 12.4835844,17.1469481 12.6316364,17.0457792 C12.6443636,17.0370779 13.9182597,16.1626623 14.9755325,15.1052597 C16.0326753,14.047987 16.9068312,12.7740909 16.9155325,12.7612338 C17.0168312,12.6131818 17.2187792,12.5756494 17.3668312,12.6762987 C17.5147532,12.7773377 17.5528052,12.9794156 17.4517662,13.1274675 C17.4148831,13.1814935 16.5360519,14.4629221 15.4346234,15.5643506 C14.3331948,16.6659091 13.0518961,17.545 12.9978701,17.5818831 C12.9418961,17.6201948 12.8781299,17.6385065 12.815013,17.6385065" id="Fill-34" fill="#2D2F45"></path>
                    <path d="M16.6565844,19.9737662 C16.0037273,19.9737662 15.3742468,19.6627273 14.7402208,19.0285714 C14.6134675,18.9016883 14.6134675,18.6961039 14.7402208,18.5694805 C14.8671039,18.4425974 15.0725584,18.4425974 15.1993117,18.5694805 C15.7647662,19.1348052 16.2989221,19.3777922 16.8315195,19.3137662 C17.3137273,19.2555844 17.8304805,18.9448052 18.4113896,18.3638961 C19.5954156,17.1792208 19.6354156,16.2964935 18.5538571,15.2148052 C18.4271039,15.0880519 18.4271039,14.8825974 18.5538571,14.7557143 C18.6807403,14.628961 18.8861948,14.628961 19.0130779,14.7557143 C20.7716494,16.5142857 19.773987,17.9192208 18.8706104,18.8231169 C18.1829481,19.5107792 17.5413896,19.8820779 16.9093117,19.9584416 C16.8246364,19.9687013 16.7404805,19.9737662 16.6565844,19.9737662" id="Fill-36" fill="#2D2F45"></path>
                    <path d="M13.2384935,15.1232857 C13.1553766,15.1232857 13.0723896,15.0915974 13.0088831,15.0282208 L11.3336883,13.3527662 C11.2068052,13.226013 11.2068052,13.0204286 11.3336883,12.8936753 C11.4605714,12.7667922 11.666026,12.7667922 11.7927792,12.8936753 L13.4681039,14.569 C13.5948571,14.6958831 13.5948571,14.9014675 13.4681039,15.0282208 C13.4045974,15.0915974 13.3216104,15.1232857 13.2384935,15.1232857" id="Fill-38" fill="#2D2F45"></path>
                    <path d="M14.8102468,13.5514026 C14.7271299,13.5514026 14.6441429,13.5197143 14.5806364,13.4563377 L12.9058312,11.7814026 C12.7789481,11.6546494 12.7789481,11.4491948 12.9058312,11.3223117 C13.0325844,11.1954286 13.2381688,11.1954286 13.3649221,11.3223117 L15.0398571,12.9971169 C15.1666104,13.124 15.1666104,13.3294545 15.0398571,13.4563377 C14.9763506,13.5197143 14.8933636,13.5514026 14.8102468,13.5514026" id="Fill-40" fill="#2D2F45"></path>
                </g>
            </g>
        </g>
    </g>
</svg>