<?xml version="1.0" encoding="UTF-8"?>
<svg width="33px" height="33px" viewBox="0 0 33 33" version="1.1" xmlns="http://www.w3.org/2000/svg" xmlns:xlink="http://www.w3.org/1999/xlink">
    <!-- Generator: Sketch 49.2 (51160) - http://www.bohemiancoding.com/sketch -->
    <title>Page 1 Copy 24</title>
    <desc>Created with Sketch.</desc>
    <defs></defs>
    <g id="UiKit" stroke="none" stroke-width="1" fill="none" fill-rule="evenodd">
        <g id="EDU-BTN_02" transform="translate(-945.000000, -879.000000)">
            <g id="Page-1-Copy-24" transform="translate(945.000000, 879.000000)">
                <polygon id="Fill-1" fill="#ECF0F1" points="32.0789111 4.58274741e-05 0.000137482422 0.0921590503 0.09270898 32.4500219 32.1719408 32.358367"></polygon>
                <polygon id="Fill-2" fill="#2D2F45" points="32.0789111 4.58274741e-05 0.000137482422 0.0921590503 0.0193850215 6.78846956 32.0981586 6.69635634"></polygon>
                <g id="Group-25" transform="translate(1.374824, 1.287477)">
                    <path d="M3.61212151,2.13849325 C3.61487115,3.06191685 2.87429917,3.81302915 1.95912452,3.8157788 C1.04074194,3.81852845 0.295587208,3.07154062 0.292837559,2.14811702 C0.290087911,1.22194377 1.03111817,0.469914919 1.94950075,0.467623545 C2.8646754,0.464873897 3.60937186,1.21232 3.61212151,2.13849325" id="Fill-3" fill="#EEF2F3"></path>
                    <path d="M8.58935181,2.12437839 C8.59210146,3.04780199 7.85152948,3.79891429 6.93635482,3.80120566 C6.02072189,3.80395531 5.27602543,3.05696748 5.27373406,2.13400216 C5.27098441,1.20782891 6.01109812,0.455800057 6.92673105,0.453050409 C7.84190571,0.450759035 8.58660216,1.19820514 8.58935181,2.12437839" id="Fill-5" fill="#EEF2F3"></path>
                    <path d="M13.5702025,2.11008022 C13.5729521,3.03350382 12.8319219,3.78461612 11.9135393,3.78736577 C10.9983646,3.78965714 10.2536682,3.04312759 10.2509185,2.11970399 C10.2481689,1.19353073 10.9887409,0.441501885 11.9039155,0.439210511 C12.8222981,0.436460863 13.5674528,1.18390696 13.5702025,2.11008022" id="Fill-7" fill="#EEF2F3"></path>
                    <path d="M24.6692501,14.9088688 L19.3596789,14.9239919 C18.1411264,14.9276581 17.1420875,13.9281609 17.1384213,12.6999846 C17.1352133,11.4708917 18.1282947,10.4658952 19.346389,10.462229 L24.6564184,10.447106 C25.8713047,10.4434398 26.8712602,11.442937 26.8744681,12.6715715 C26.8781343,13.9006644 25.8841364,14.9056609 24.6692501,14.9088688" id="Fill-9" fill="#BDC3C7"></path>
                    <path d="M21.5647137,12.6868779 C21.5683799,13.9187204 20.5803395,14.9209673 19.3594956,14.9241752 C18.1359021,14.9278414 17.1419042,13.9315521 17.138238,12.6997096 C17.1345718,11.4683254 18.1226121,10.4656203 19.3466639,10.4624123 C20.5675078,10.4587461 21.5610475,11.4550354 21.5647137,12.6868779" id="Fill-11" fill="#2D2F45"></path>
                    <path d="M19.3899251,25.5239325 L24.6994962,25.5088094 C25.9143826,25.5051432 26.9083805,24.500605 26.9051725,23.2715121 C26.9015063,22.0451689 25.9015509,21.0433803 24.6871228,21.0465883 L19.3770934,21.0621696 C18.1585408,21.0653775 17.1654595,22.073582 17.1686674,23.2994669 C17.1723336,24.5281015 18.1713725,25.5275987 19.3899251,25.5239325" id="Fill-13" fill="#BDC3C7"></path>
                    <path d="M26.9051267,23.2714663 C26.9087929,24.5056002 25.9202943,25.5050974 24.6999087,25.5087636 C23.4758568,25.5124298 22.4818589,24.5188901 22.4781927,23.2838397 C22.4745265,22.053372 23.4630251,21.0502086 24.687077,21.0470007 C25.9070043,21.0433345 26.9014605,22.0405403 26.9051267,23.2714663" id="Fill-15" fill="#FCB528"></path>
                    <path d="M7.51419344,12.168615 L3.08725945,12.1809884 C2.78204847,12.181905 2.53595493,11.9353532 2.53503838,11.6246429 C2.53412183,11.3171405 2.77884054,11.0687556 3.08405152,11.0678391 L7.51098552,11.0545491 C7.81573822,11.0536326 8.06549795,11.3006427 8.0664145,11.608145 C8.06733105,11.9193136 7.81894614,12.1676985 7.51419344,12.168615" id="Fill-17" fill="#BDC3C7"></path>
                    <path d="M12.4994894,14.9437894 L3.09523343,14.9712858 C2.79002245,14.9722024 2.54392891,14.724734 2.54301236,14.4140238 C2.54209581,14.1065214 2.7872728,13.8581365 3.0920255,13.85722 L12.4962815,13.8301817 C12.8010342,13.8292652 13.0507939,14.075817 13.0517104,14.3837776 C13.052627,14.6949462 12.8042421,14.9428728 12.4994894,14.9437894" id="Fill-19" fill="#BDC3C7"></path>
                    <path d="M7.54301892,22.2134932 L3.11608493,22.2258666 C2.81087395,22.2267832 2.56478041,21.9765652 2.56386386,21.6690628 C2.56294731,21.3611022 2.80766603,21.1095094 3.112877,21.1090511 L7.539811,21.0962194 C7.8445637,21.0953029 8.09432343,21.3446043 8.09523998,21.6530232 C8.09615653,21.9605256 7.84777162,22.2125767 7.54301892,22.2134932" id="Fill-21" fill="#BDC3C7"></path>
                    <path d="M12.5283607,24.9886676 L3.12410473,25.0157058 C2.81889376,25.0166223 2.57280022,24.7664043 2.57188367,24.458902 C2.57096712,24.1504831 2.81614411,23.8993485 3.12089681,23.898432 L12.5251528,23.8713938 C12.8299055,23.8709355 13.0796652,24.1197787 13.0805817,24.4281976 C13.0814983,24.7356999 12.8331134,24.987751 12.5283607,24.9886676" id="Fill-23" fill="#BDC3C7"></path>
                </g>
            </g>
        </g>
    </g>
</svg>