<?xml version="1.0" encoding="UTF-8"?>
<svg width="33px" height="33px" viewBox="0 0 33 33" version="1.1" xmlns="http://www.w3.org/2000/svg" xmlns:xlink="http://www.w3.org/1999/xlink">
    <!-- Generator: Sketch 49.2 (51160) - http://www.bohemiancoding.com/sketch -->
    <title>Page 1 Copy 23</title>
    <desc>Created with Sketch.</desc>
    <defs></defs>
    <g id="UiKit" stroke="none" stroke-width="1" fill="none" fill-rule="evenodd">
        <g id="EDU-BTN_02" transform="translate(-893.000000, -879.000000)">
            <g id="Page-1-Copy-23" transform="translate(893.000000, 879.000000)">
                <polygon id="Fill-1" fill="#ECF0F1" points="32.14614 0 0.0669081121 0.0484905323 0.115485235 32.0700827 32.1947171 32.0220496"></polygon>
                <polygon id="Fill-2" fill="#2D2F45" points="32.14614 0 0.0669081121 0.0484905323 0.0769901564 6.67568243 32.156222 6.62673444"></polygon>
                <g id="Group-37" transform="translate(0.000000, 0.116194)">
                    <path d="M5.04931692,3.23816115 C5.05069174,4.15216194 4.30920321,4.89461603 3.39402856,4.8959884 C2.47564598,4.89690332 1.7314078,4.15719397 1.73003297,3.24319318 C1.72865815,2.32644765 2.47060495,1.5835361 3.38852926,1.58216373 C4.30416219,1.58079135 5.0479421,2.32187307 5.04931692,3.23816115" id="Fill-3" fill="#EEF2F3"></path>
                    <path d="M10.0265472,3.23079608 C10.027922,4.14433941 9.28643352,4.8867935 8.37125886,4.88816587 C7.45562593,4.88953825 6.7123043,4.14937144 6.71092947,3.23582811 C6.70909638,2.31908258 7.45058491,1.57617103 8.36621784,1.57479865 C9.28185077,1.57342628 10.0251724,2.31405054 10.0265472,3.23079608" id="Fill-5" fill="#EEF2F3"></path>
                    <path d="M15.0073979,3.22320228 C15.0087727,4.13720306 14.2668259,4.8791997 13.3484433,4.88057207 C12.4332687,4.88194445 11.6894888,4.14177764 11.688114,3.22823431 C11.6867391,2.31148878 12.4282277,1.56857723 13.3434023,1.56720485 C14.2617849,1.56583248 15.0060231,2.3069142 15.0073979,3.22320228" id="Fill-7" fill="#EEF2F3"></path>
                    <polygon id="Fill-9" fill="#FCB528" points="0.0769901564 6.55921366 0.0930297724 17.0487222 3.41231372 17.0436902 3.4072727 13.7303229 10.0426327 13.7207163 10.0476737 17.0340835 12.8133617 17.029509 12.8078625 13.7161417 19.4468886 13.7065351 19.4519296 17.0199024 22.2176177 17.0153278 22.2125767 13.7019606 28.8511446 13.6918965 28.8561856 17.0052637 32.1722616 17.0006891 32.156222 6.51072313"></polygon>
                    <path d="M9.50810101,24.2108653 L3.97718316,24.219557 C3.66876426,24.2200145 3.42267073,23.9725298 3.42221245,23.6674054 C3.42175418,23.3627384 3.66693116,23.117541 3.97535007,23.1170836 L9.50672618,23.1088493 C9.81147889,23.1083919 10.0571141,23.3531318 10.0575724,23.6573413 C10.0580307,23.9624657 9.81331199,24.2104078 9.50810101,24.2108653" id="Fill-11" fill="#BDC3C7"></path>
                    <path d="M9.51144641,26.4186484 L3.98052857,26.4273401 C3.67210967,26.4277975 3.42601613,26.1830576 3.42555786,25.8783907 C3.42509958,25.5732663 3.67027657,25.3253241 3.97869547,25.3248667 L9.50961332,25.3166324 C9.81482429,25.316175 10.0604596,25.5636597 10.0609178,25.8687841 C10.0613761,26.1729935 9.81619912,26.4181909 9.51144641,26.4186484" id="Fill-13" fill="#BDC3C7"></path>
                    <path d="M9.51479182,28.6299996 L3.98387398,28.6386913 C3.67545507,28.6391488 3.42936154,28.3912066 3.42890326,28.0865397 C3.42844499,27.7818728 3.67362198,27.5334732 3.98204088,27.5330157 L9.51295872,27.524324 C9.8181697,27.5238666 10.063805,27.7713513 10.0642632,28.0764756 C10.0647215,28.3806851 9.81954452,28.6295422 9.51479182,28.6299996" id="Fill-15" fill="#BDC3C7"></path>
                    <path d="M18.9089657,24.1970043 L13.3780479,24.2052386 C13.0728369,24.205696 12.8235354,23.9586688 12.8230772,23.6535444 C12.8226189,23.3488775 13.0710038,23.1032226 13.3762148,23.1027652 L18.9071326,23.0945309 C19.2128019,23.0940735 19.4616451,23.3388134 19.4621033,23.6430229 C19.4625616,23.9481473 19.214635,24.1965469 18.9089657,24.1970043" id="Fill-17" fill="#BDC3C7"></path>
                    <path d="M18.912357,26.4047874 L13.3814391,26.4130217 C13.0762281,26.4134791 12.8269267,26.1687392 12.8264684,25.8645297 C12.8260101,25.5594053 13.074395,25.3110057 13.379606,25.3105482 L18.9105239,25.302314 C19.2161931,25.3018565 19.4650363,25.5493412 19.4654946,25.8544656 C19.4659528,26.1586751 19.2180262,26.40433 18.912357,26.4047874" id="Fill-19" fill="#BDC3C7"></path>
                    <path d="M18.9157024,28.6156812 L13.3847845,28.6243729 C13.0795735,28.6248304 12.8302721,28.3768882 12.8298138,28.0726787 C12.8293555,27.7675544 13.0777404,27.5191547 13.3829514,27.5186973 L18.9138693,27.510463 C19.2195385,27.5100056 19.4683817,27.7570328 19.46884,28.0621572 C19.4692983,28.3663667 19.2213716,28.6152238 18.9157024,28.6156812" id="Fill-21" fill="#BDC3C7"></path>
                    <path d="M28.3132217,24.1827316 L22.7823038,24.1909659 C22.4766346,24.1918808 22.2277914,23.9443961 22.2273331,23.6392717 C22.2268749,23.3346048 22.4748015,23.0889499 22.7804707,23.0884925 L28.3118469,23.0807157 C28.6165996,23.0802582 28.865901,23.3245407 28.8663593,23.6287502 C28.8668176,23.9338746 28.6184327,24.1822742 28.3132217,24.1827316" id="Fill-23" fill="#BDC3C7"></path>
                    <path d="M28.3166129,26.3905147 L22.7856951,26.3992064 C22.4800258,26.3996639 22.2311826,26.1544665 22.2307244,25.850257 C22.2302661,25.5451326 22.4781927,25.296733 22.783862,25.2962755 L28.3152381,25.2884988 C28.6199908,25.2880413 28.8692923,25.5350685 28.8697505,25.8401929 C28.8702088,26.1448599 28.6218239,26.3900573 28.3166129,26.3905147" id="Fill-25" fill="#BDC3C7"></path>
                    <path d="M28.3199583,28.6018202 L22.7890405,28.6100545 C22.4833712,28.6105119 22.234528,28.3625698 22.2340698,28.0583603 C22.2336115,27.7532359 22.4815381,27.5052938 22.7872074,27.5043789 L28.3185835,27.4961446 C28.6233362,27.4956872 28.8726377,27.7427144 28.8730959,28.0478388 C28.8735542,28.3525057 28.6251693,28.6013628 28.3199583,28.6018202" id="Fill-27" fill="#BDC3C7"></path>
                    <polygon id="Fill-29" fill="#2D2F45" points="3.40731852 13.7304144 10.0431368 13.7208078 10.0532188 20.3475423 3.41740057 20.3571489"></polygon>
                    <polygon id="Fill-31" fill="#2D2F45" points="22.2124392 13.7018233 28.8510071 13.6922167 28.8610891 20.3189511 22.2225212 20.3290152"></polygon>
                    <polygon id="Fill-33" fill="#2D2F45" points="12.8079541 13.7161417 19.4469803 13.7065351 19.456604 20.3332696 12.8180362 20.3428762"></polygon>
                    <polygon id="Fill-35" fill="#2D2F45" opacity="0.2" points="0 32.0220496 32.0792318 32.0220496 32.0792318 0 0 0"></polygon>
                </g>
            </g>
        </g>
    </g>
</svg>