<?xml version="1.0" encoding="UTF-8"?>
<svg width="33px" height="33px" viewBox="0 0 33 33" version="1.1" xmlns="http://www.w3.org/2000/svg" xmlns:xlink="http://www.w3.org/1999/xlink">
    <!-- Generator: Sketch 49.2 (51160) - http://www.bohemiancoding.com/sketch -->
    <title>Page 1 Copy 5</title>
    <desc>Created with Sketch.</desc>
    <defs></defs>
    <g id="UiKit" stroke="none" stroke-width="1" fill="none" fill-rule="evenodd">
        <g id="EDU-BTN_02" transform="translate(-841.000000, -879.000000)">
            <g id="Page-1-Copy-5" transform="translate(841.000000, 879.000000)">
                <polygon id="Fill-1" fill="#ECF0F1" points="0.102699369 9.16549481e-05 4.58274741e-05 32.0788652 32.0788194 32.1815188 32.1814729 0.231062124 32.1814729 0.102745197"></polygon>
                <polygon id="Fill-2" fill="#2D2F45" points="0.102699369 9.16549481e-05 0.0811604566 6.63865955 32.1603923 6.74131309 32.1814729 0.230603849 32.1814729 0.102745197"></polygon>
                <g id="Group-17" transform="translate(1.374824, 1.477294)">
                    <path d="M3.6945193,1.85812076 C3.69176966,2.77329542 2.94661493,3.51340913 2.03144027,3.51065948 C1.11305769,3.50790983 0.372027434,2.7627551 0.375235358,1.84758044 C0.377985006,0.929197864 1.12359801,0.188167609 2.04198059,0.191375532 C2.95715525,0.19412518 3.69726895,0.939738183 3.6945193,1.85812076" id="Fill-3" fill="#EEF2F3"></path>
                    <path d="M8.67174961,1.87397707 C8.66899996,2.78961 7.92384523,3.52926543 7.00867057,3.52651578 C6.09303764,3.52376614 5.35292394,2.77861141 5.35613186,1.86343675 C5.35888151,0.94505417 6.10357796,0.204023915 7.01921089,0.207231838 C7.93484382,0.209981486 8.67495753,0.955594489 8.67174961,1.87397707" id="Fill-5" fill="#EEF2F3"></path>
                    <path d="M13.6525545,1.8898792 C13.6498048,2.80551213 12.9041918,3.54562584 11.9858092,3.54241792 C11.0706346,3.53966827 10.3300626,2.79451354 10.3332705,1.87933888 C10.3360202,0.960956304 11.0811749,0.219926048 11.9963495,0.223133971 C12.9147321,0.226341894 13.6553041,0.971954897 13.6525545,1.8898792" id="Fill-7" fill="#EEF2F3"></path>
                    <path d="M18.0017192,25.1327492 L10.8127634,25.1093771 C10.5070941,25.1084606 10.2596258,24.8623671 10.2605423,24.5576144 C10.2614589,24.2491955 10.5107603,24.0044767 10.8164296,24.0053933 L18.0053854,24.028307 C18.3101381,24.0296819 18.5580648,24.2757754 18.5571482,24.5841943 C18.5562317,24.888947 18.3069302,25.1336657 18.0017192,25.1327492" id="Fill-9" fill="#BDC3C7"></path>
                    <path d="M20.760304,27.3565732 L8.03997205,27.3157867 C7.7343028,27.3148702 7.48729271,27.0651104 7.48820926,26.7603577 C7.48912581,26.4546885 7.737969,26.2072201 8.04363825,26.2081367 L20.7639702,26.2489231 C21.0687229,26.2502979 21.3166496,26.4991411 21.315733,26.8048104 C21.3148165,27.1095631 21.0650567,27.3574897 20.760304,27.3565732" id="Fill-11" fill="#BDC3C7"></path>
                    <path d="M21.3530824,15.1885539 C21.3411673,18.8538353 18.358257,21.8179563 14.6929756,21.8060412 C11.0281525,21.794126 8.0672394,18.8112157 8.07915454,15.1459344 C8.09061141,11.4811112 11.070772,8.51653195 14.7355951,8.52890537 C18.4004182,8.54036224 21.3645393,11.5237308 21.3530824,15.1885539" id="Fill-13" fill="#FCB528"></path>
                    <path d="M14.2030341,18.4367594 C13.1641252,18.312567 12.5692846,17.8575002 12.3044018,17.6022411 L13.1590842,16.456096 C13.423967,16.732894 14.062802,17.188419 14.8478266,17.1907104 C15.3225993,17.1925435 15.5554028,16.9721134 15.5567777,16.6623196 C15.5576942,16.3195301 15.2923531,16.1756319 14.5426157,15.830551 L13.969314,15.5629185 C12.9317799,15.084938 12.5688263,14.497888 12.5711177,13.7467757 C12.5747839,12.7188655 13.3391862,12.0034986 14.3350172,11.8078153 L14.3056876,10.6025527 L15.5425711,10.6066772 L15.517366,11.8114815 C16.2790186,11.9462143 16.7643316,12.3123758 16.9403091,12.5236405 L16.0530892,13.6358733 C15.7767495,13.3590753 15.368885,13.0813608 14.8276625,13.079986 C14.341433,13.0786112 14.1196281,13.3095816 14.1182532,13.630374 C14.1173367,13.9947024 14.4702082,14.2064253 15.0659654,14.4726829 L15.5187409,14.6624087 C16.6557205,15.1408475 17.118578,15.5959143 17.11537,16.5129221 C17.1126204,17.3639383 16.5241956,18.1682104 15.3853829,18.3964313 L15.4147125,19.6896826 L14.1764541,19.6860164 L14.2030341,18.4367594 Z" id="Fill-15" fill="#2D2F45"></path>
                </g>
            </g>
        </g>
    </g>
</svg>