<?xml version="1.0" encoding="UTF-8"?>
<svg width="33px" height="33px" viewBox="0 0 33 33" version="1.1" xmlns="http://www.w3.org/2000/svg" xmlns:xlink="http://www.w3.org/1999/xlink">
    <!-- Generator: Sketch 49.2 (51160) - http://www.bohemiancoding.com/sketch -->
    <title>Page 1 Copy 25</title>
    <desc>Created with Sketch.</desc>
    <defs></defs>
    <g id="UiKit" stroke="none" stroke-width="1" fill="none" fill-rule="evenodd">
        <g id="EDU-BTN_02" transform="translate(-997.000000, -879.000000)">
            <g id="Page-1-Copy-25" transform="translate(997.000000, 879.000000)">
                <polygon id="Fill-1" fill="#EEF2F3" points="31.1917828 0.000137237355 0.0845516896 0.0134035151 0.0978416571 32.0354531 32.1770735 32.0217294 32.1637835 0.000137237355"></polygon>
                <polygon id="Fill-2" fill="#2D2F45" points="31.1917828 0.000137237355 0.0845516896 0.0134035151 0.0873013381 6.64013795 32.1665332 6.62687168 32.1637835 0.000137237355"></polygon>
                <g id="Group-41" transform="translate(0.000000, 0.098628)">
                    <path d="M5.06315682,3.22608426 C5.06361509,4.14008505 4.32121001,4.88162423 3.40603535,4.88162423 C2.48765277,4.88208168 1.74433115,4.14099996 1.74387287,3.22745663 C1.7434146,2.31116856 2.48627795,1.56871446 3.40466053,1.56825701 C4.31983519,1.56779955 5.06269854,2.30979618 5.06315682,3.22608426" id="Fill-3" fill="#EEF2F3"></path>
                    <path d="M10.0406621,3.22411719 C10.0406621,4.13811798 9.29871528,4.8791997 8.38308235,4.87965716 C7.46790769,4.88011462 6.72504434,4.1390329 6.72458606,3.22548957 C6.72412779,2.30920149 7.46653287,1.5667474 8.38170752,1.56628994 C9.29734046,1.56583248 10.0402038,2.30737166 10.0406621,3.22411719" id="Fill-5" fill="#EEF2F3"></path>
                    <path d="M15.0214669,3.22210438 C15.0219252,4.13564771 14.2786036,4.87718689 13.3606793,4.87764434 C12.4450463,4.8781018 11.7026413,4.13702008 11.702183,3.22347675 C11.7017247,2.30673122 12.4436715,1.56473458 13.3593044,1.56427712 C14.2772288,1.56381967 15.0210087,2.30535884 15.0214669,3.22210438" id="Fill-7" fill="#EEF2F3"></path>
                    <polygon id="Fill-9" fill="#FFFFFF" points="2.30122661 11.5092736 10.0442366 11.5060714 10.0488194 22.5486465 2.30580936 22.5518487"></polygon>
                    <polygon id="Fill-11" fill="#FCB528" points="2.30122661 11.5092736 10.0442366 11.5060714 10.0451532 14.2663721 2.30214316 14.2695743"></polygon>
                    <polygon id="Fill-13" fill="#FFFFFF" points="22.213814 11.5007649 29.956824 11.4975627 29.9614068 22.5401377 22.218855 22.5437974"></polygon>
                    <polygon id="Fill-15" fill="#FCB528" points="22.213814 11.5007649 29.956824 11.4975627 29.9577406 14.2583208 22.2151888 14.261523"></polygon>
                    <polygon id="Fill-17" fill="#FFFFFF" points="12.258391 9.29723614 20.0014011 9.29403393 20.0078169 24.7524497 12.2648069 24.7556519"></polygon>
                    <polygon id="Fill-19" fill="#FCB528" points="12.258391 9.29723614 20.0014011 9.29403393 20.0023176 12.0547921 12.2593076 12.0579943"></polygon>
                    <polygon id="Fill-21" fill="#2D2F45" points="3.96558881 18.6847287 8.38885661 18.6828989 8.38977316 20.8905905 3.96650536 20.8924203"></polygon>
                    <polygon id="Fill-23" fill="#2D2F45" points="13.9210118 20.8884862 18.3447379 20.8866563 18.3456544 23.0970927 13.9219283 23.0989225"></polygon>
                    <polygon id="Fill-25" fill="#2D2F45" points="23.87506 18.6766775 28.3010774 18.6743902 28.301994 20.8825392 23.8759765 20.884369"></polygon>
                    <path d="M10.0506983,27.5171419 L2.30768828,27.5203441 C2.00293558,27.5203441 1.7540924,27.2728594 1.7540924,26.967735 C1.75363412,26.6635256 2.00247731,26.4146685 2.30723001,26.4146685 L10.05024,26.4114663 C10.3586589,26.4110088 10.6042942,26.6594085 10.6042942,26.9640754 C10.6042942,27.2691998 10.3591172,27.5166845 10.0506983,27.5171419" id="Fill-27" fill="#BDC3C7"></path>
                    <path d="M10.0513857,29.1718585 L2.3083757,29.1755181 C2.00362299,29.1755181 1.75477981,28.9307782 1.75477981,28.6261113 C1.75432153,28.3182421 2.00316472,28.0735022 2.30791742,28.0730447 L10.0509274,28.0698425 C10.3593463,28.0698425 10.6049816,28.3145825 10.6049816,28.6224516 C10.6049816,28.9266611 10.3598046,29.1718585 10.0513857,29.1718585" id="Fill-29" fill="#BDC3C7"></path>
                    <path d="M20.0087793,27.5127046 L12.2657693,27.5163642 C11.9578086,27.5163642 11.7121734,27.2684221 11.7121734,26.9637552 C11.7121734,26.6590882 11.9573504,26.4106886 12.2657693,26.4106886 L20.008321,26.407029 C20.3130737,26.407029 20.5623752,26.6554286 20.5623752,26.959638 C20.5623752,27.2647624 20.313532,27.5127046 20.0087793,27.5127046" id="Fill-31" fill="#BDC3C7"></path>
                    <path d="M20.0096958,29.1678328 L12.2666858,29.171035 C11.9582669,29.1714925 11.7130899,28.9262951 11.7126316,28.6220856 C11.7126316,28.3142165 11.9578086,28.0690191 12.2662275,28.0690191 L20.0092376,28.0658169 C20.3139903,28.0653594 20.5628334,28.3105568 20.5632917,28.618426 C20.5632917,28.9226354 20.3144485,29.1678328 20.0096958,29.1678328" id="Fill-33" fill="#BDC3C7"></path>
                    <path d="M29.963744,27.508679 L22.220734,27.5118812 C21.915523,27.5123386 21.6671381,27.2643965 21.6666798,26.9592721 C21.6666798,26.6550626 21.915523,26.406663 22.2202757,26.4062055 L29.9628274,26.4030033 C30.2684967,26.4030033 30.5168816,26.6514029 30.5168816,26.9556124 C30.5173399,27.2607368 30.268955,27.508679 29.963744,27.508679" id="Fill-35" fill="#BDC3C7"></path>
                    <path d="M29.9642023,29.163853 L22.2211922,29.1670552 C21.9159813,29.1670552 21.6675964,28.9223152 21.6675964,28.6181057 C21.6675964,28.3102366 21.9159813,28.0650392 22.2211922,28.0650392 L29.963744,28.0613795 C30.2694132,28.0613795 30.5177981,28.3061195 30.5177981,28.6139886 C30.5177981,28.9186555 30.2698715,29.1633955 29.9642023,29.163853" id="Fill-37" fill="#BDC3C7"></path>
                    <polygon id="Fill-39" fill="#2D2F45" opacity="0.2" points="0 32.0220496 32.0792318 32.0220496 32.0792318 0 0 0"></polygon>
                </g>
            </g>
        </g>
    </g>
</svg>