<?xml version="1.0" encoding="UTF-8"?>
<svg width="50px" height="38px" viewBox="0 0 50 38" version="1.1" xmlns="http://www.w3.org/2000/svg" xmlns:xlink="http://www.w3.org/1999/xlink">
    <!-- Generator: Sketch 49.2 (51160) - http://www.bohemiancoding.com/sketch -->
    <title>Page 1 Copy 13</title>
    <desc>Created with Sketch.</desc>
    <defs>
        <polygon id="path-1" points="12.0880485 0.039493943 0.247167081 0.039493943 0.247167081 7.96380976 12.0880485 7.96380976 12.0880485 0.039493943"></polygon>
    </defs>
    <g id="HD-Desktop-1920---1440-px" stroke="none" stroke-width="1" fill="none" fill-rule="evenodd">
        <g id="HD-Desktop_EDU-WhiteLable" transform="translate(-343.000000, -702.000000)">
            <g id="Page-1-Copy-13" transform="translate(343.000000, 702.000000)">
                <path d="M13.0124434,17.9532665 L17.5461388,35.6509993 L48.0668488,27.8325063 L45.3459515,17.2120358 L36.4556295,11.9475716 L13.0124434,17.9532665 Z M17.0743039,37.1005054 C16.782938,37.1005054 16.5169424,36.9043435 16.4413546,36.6087928 L11.5833381,17.6443768 C11.4936267,17.2944238 11.704697,16.9384552 12.0546499,16.8487438 L36.3936423,10.6136702 C36.5607723,10.5705146 36.7394105,10.5961464 36.8887551,10.6842886 L46.2454195,16.2246872 C46.3947641,16.3130909 46.5025224,16.456943 46.5456781,16.6251192 L49.4959541,28.141396 C49.5388482,28.3095722 49.5137394,28.4874257 49.4253358,28.6370319 C49.3369321,28.786115 49.1928185,28.8941349 49.0246423,28.937029 L17.2369876,37.0801046 C17.1825853,37.0939667 17.1279215,37.1005054 17.0743039,37.1005054 Z" id="Fill-1" fill="#FFFFFF"></path>
                <path d="M37.5807099,12.6139731 L38.9350122,17.9001458 L44.2209234,16.545582 L37.5807099,12.6139731 Z M38.4637004,19.349652 C38.3475725,19.349652 38.2322292,19.3187892 38.1307481,19.2583713 C37.9811419,19.1699676 37.8733836,19.0261155 37.830228,18.8579393 L35.9222259,11.409277 C35.856577,11.1529587 35.951781,10.8825168 36.1633743,10.7237563 C36.3749677,10.5647344 36.6616257,10.5495645 36.8886505,10.6842624 L46.2453149,16.224661 C46.4728628,16.3593589 46.5970987,16.6180312 46.5594356,16.879842 C46.5222956,17.1416529 46.3305799,17.3550771 46.0745232,17.420726 L38.6258609,19.3292511 C38.5725049,19.3431132 38.5181026,19.349652 38.4637004,19.349652 Z" id="Fill-3" fill="#FFFFFF"></path>
                <path d="M19.3082487,33.2043364 C19.1921208,33.2043364 19.0767776,33.1734736 18.9752965,33.1130557 C18.8256903,33.0246521 18.717932,32.8808 18.6747763,32.7128853 L15.414826,19.9872045 C15.3251146,19.6372516 15.5361848,19.2810214 15.8861378,19.19131 L37.1924662,13.7330379 C37.5424191,13.6430649 37.8983877,13.8543967 37.9880991,14.2040881 C38.0778105,14.5540411 37.8667403,14.9102712 37.5167873,14.9997211 L16.8439313,20.2958327 L19.7795605,31.7548303 L44.235727,25.4899401 L42.9695669,20.5482278 C42.8798555,20.1982748 43.0909258,19.8420447 43.4408788,19.7523333 C43.7905702,19.6623603 44.1468003,19.8736921 44.2365117,20.2236451 L45.6648324,25.7988298 C45.7077265,25.9667444 45.6823562,26.1448595 45.5939525,26.2942041 C45.5055489,26.4432872 45.3614352,26.5513071 45.1935206,26.5944627 L19.4704093,33.1839356 C19.4170532,33.1977977 19.362651,33.2043364 19.3082487,33.2043364" id="Fill-5" fill="#FFFFFF"></path>
                <path d="M28.8412758,20.9117813 C28.7826887,20.9117813 28.7246248,20.9188431 28.6689148,20.9332283 C28.2690059,21.0357556 28.0647359,21.4696659 27.9781631,21.7191839 C27.7992634,22.2370515 27.7914169,22.9060946 27.9575007,23.5544753 C28.2744985,24.7923881 29.076147,25.5320495 29.6680331,25.5320495 C29.7268817,25.5320495 29.7846841,25.5249877 29.8406556,25.5106025 C30.2403029,25.4080751 30.4448345,24.9741649 30.5311457,24.7243853 C30.710307,24.2065177 30.7181535,23.5377362 30.5523312,22.889617 C30.2348104,21.6514427 29.4331618,20.9117813 28.8412758,20.9117813 M29.6680331,26.839796 L29.6677715,26.839796 C28.3613328,26.839796 27.1370206,25.622284 26.6905559,23.8787964 C26.4593464,22.9756667 26.4776548,22.0568441 26.7426043,21.2915508 C27.035801,20.4443927 27.6193175,19.8519835 28.3443321,19.6662836 C28.5059696,19.6249588 28.6730996,19.6040348 28.8412758,19.6040348 C30.1477145,19.6040348 31.3722883,20.8215468 31.819276,22.5647728 C32.0504856,23.4684256 32.0319156,24.3872483 31.7672277,25.1522799 C31.4737694,25.9994381 30.8899914,26.5918472 30.1652383,26.7772857 C30.0036008,26.818872 29.8362093,26.839796 29.6680331,26.839796" id="Fill-7" fill="#FFFFFF"></path>
                <path d="M34.8466829,19.3731391 C34.7878343,19.3731391 34.7297704,19.3804625 34.6737988,19.3948477 C34.0604657,19.5523004 33.6176628,20.6670234 33.9629078,22.0158331 C34.2799056,23.2540075 35.0818157,23.9939304 35.6737018,23.9939304 C35.7325503,23.9939304 35.7903527,23.9868686 35.8460627,23.9724834 C36.4596574,23.8150307 36.9029834,22.7000461 36.5577384,21.3512364 C36.2402175,20.113062 35.4383074,19.3731391 34.8466829,19.3731391 M35.6737018,25.3016769 C34.3876639,25.3016769 33.1353659,24.0561792 32.6959631,22.3401543 C32.1854189,20.3468871 32.9117412,18.4964259 34.3492161,18.1279029 C34.5111152,18.0863166 34.6782451,18.0653926 34.8466829,18.0653926 C36.1525985,18.0653926 37.3774338,19.2829046 37.8246831,21.0263922 C38.3349658,23.020444 37.6083819,24.8709052 36.1706454,25.2394282 C36.0087464,25.280753 35.8418779,25.3016769 35.6737018,25.3016769" id="Fill-9" fill="#FFFFFF"></path>
                <path d="M25.9279567,27.7475812 C25.6365908,27.7475812 25.3705951,27.5511577 25.2950074,27.2558686 L24.1915309,22.9499826 L23.9801991,23.249195 C23.7717443,23.5442226 23.3634659,23.6137947 23.0686998,23.4056015 C22.7739338,23.1971467 22.7038386,22.7891298 22.9125549,22.4941022 L23.9401821,21.0404112 C24.0874343,20.8327411 24.3416602,20.7291676 24.5927475,20.7752002 C24.8433118,20.8214945 25.0441816,21.0087638 25.1074765,21.2559278 L26.5619522,26.9312859 C26.6516636,27.2809773 26.4405933,27.6372074 26.0906403,27.7269189 C26.0362381,27.7410425 25.9818358,27.7475812 25.9279567,27.7475812" id="Fill-11" fill="#FFFFFF"></path>
                <path d="M12.5789778,32.9489335 C12.4654654,32.9489335 12.3509068,32.91964 12.2465486,32.8576528 L0.320947136,25.795822 C0.00996502818,25.6119528 -0.0925622941,25.2107362 0.0913068578,24.9002772 L12.8925754,3.28061276 C12.980979,3.13152967 13.1250927,3.02350981 13.2930073,2.98061573 L23.826382,0.282211686 C23.9940351,0.239056052 24.1724117,0.264426334 24.3214948,0.352829994 L34.5512107,6.41005004 C34.7005553,6.4984537 34.8083136,6.64256736 34.8514692,6.81022045 C34.8943633,6.97839665 34.8692546,7.15677326 34.7808509,7.30585636 L31.3791409,13.0502634 C31.1950101,13.360984 30.793532,13.4635113 30.4833345,13.2796422 C30.172614,13.095773 30.0698251,12.694818 30.2536942,12.3838359 L33.3224521,7.20228284 L23.8883691,1.61611307 L13.8801855,4.18034233 L1.54970571,25.0038507 L12.9124531,31.7324678 C13.2234352,31.9163369 13.3259626,32.3175536 13.1420934,32.6280126 C13.0202114,32.834375 12.8023409,32.9489335 12.5789778,32.9489335" id="Fill-13" fill="#FFFFFF"></path>
                <g id="Group-17" transform="translate(12.554366, 0.222055)">
                    <mask id="mask-2" fill="white">
                        <use xlink:href="#path-1"></use>
                    </mask>
                    <g id="Clip-16"></g>
                    <path d="M2.5923458,3.63359969 L7.28741713,6.41386866 L10.0674246,1.71879732 L2.5923458,3.63359969 Z M7.51705741,7.96380976 C7.40092953,7.96380976 7.28558629,7.93268539 7.18410516,7.8722675 L0.567954286,3.95452067 C0.340406403,3.81982278 0.216170489,3.56141208 0.253833587,3.29960124 C0.290973587,3.0377904 0.482689217,2.82410463 0.738745974,2.75845576 L11.2721206,0.0600517173 C11.5276542,-0.00585870413 11.7986193,0.0896067873 11.9573797,0.301200164 C12.1158786,0.512793541 12.1315716,0.798928466 11.9968737,1.02647635 L8.07964994,7.64288878 C7.99150783,7.79197187 7.84739417,7.89999173 7.67921797,7.94340891 C7.62586192,7.95674793 7.57145966,7.96380976 7.51705741,7.96380976 Z" id="Fill-15" fill="#FFFFFF" mask="url(#mask-2)"></path>
                </g>
                <path d="M15.525749,31.0554998 C15.4122366,31.0554998 15.297678,31.0259447 15.1933199,30.9639575 L4.68636174,24.7427461 C4.53675555,24.6543424 4.42899724,24.5104903 4.3858416,24.3425756 C4.34294752,24.1743994 4.3683178,23.9962844 4.45672146,23.8469397 L15.6630624,4.9217561 C15.8471931,4.61103554 16.2489328,4.50876977 16.5588687,4.69211582 C16.8698508,4.87624653 16.9723782,5.27720159 16.788509,5.5881837 L5.91512031,23.9507748 L15.8592244,29.8387725 C16.1702065,30.0229032 16.2727338,30.4238582 16.0888647,30.7345788 C15.9669827,30.9409412 15.7491121,31.0554998 15.525749,31.0554998" id="Fill-18" fill="#FFFFFF"></path>
                <path d="M28.3858661,11.1552865 C28.2723537,11.1552865 28.1577952,11.1257315 28.053437,11.0637443 C27.7424549,10.8798751 27.639666,10.4786585 27.8237967,10.1681995 L28.9570898,8.25470488 L24.5672465,5.65568957 C24.2565259,5.47182042 24.1537371,5.0706038 24.3376062,4.75988325 C24.5219985,4.44890114 24.9234766,4.34689691 25.2334125,4.53024297 L30.1858484,7.46247207 C30.335193,7.55087574 30.4429513,7.69498939 30.4861069,7.86290404 C30.529001,8.03108023 30.5038923,8.2091953 30.4154886,8.35853995 L28.9489818,10.8343655 C28.8270998,11.0407279 28.6092292,11.1552865 28.3858661,11.1552865" id="Fill-20" fill="#FFFFFF"></path>
            </g>
        </g>
    </g>
</svg>