<?xml version="1.0" encoding="UTF-8"?>
<svg width="100px" height="100px" viewBox="0 0 100 100" version="1.1" xmlns="http://www.w3.org/2000/svg" xmlns:xlink="http://www.w3.org/1999/xlink">
    <!-- Generator: Sketch 49.2 (51160) - http://www.bohemiancoding.com/sketch -->
    <title>Page 1</title>
    <desc>Created with Sketch.</desc>
    <defs>
        <polygon id="path-1" points="0 45.9239752 0 0.131284285 50.7775737 0.131284285 50.7775737 45.9239752 3.83253401e-15 45.9239752"></polygon>
    </defs>
    <g id="HD-Desktop-1920---1440-px" stroke="none" stroke-width="1" fill="none" fill-rule="evenodd" opacity="0.05">
        <g id="HD-Desktop_EDU-WhiteLable" transform="translate(-738.000000, -253.000000)">
            <g id="Group-24" transform="translate(625.000000, 190.000000)">
                <g id="Group-23">
                    <g id="Page-1" transform="translate(113.000000, 63.000000)">
                        <path d="M4.38591554,74.899897 L25.3011796,95.785993 L95.6221598,25.5624324 L74.7068957,4.67503866 L4.38591554,74.899897 Z M25.3011796,99.7019738 C24.8853175,99.7019738 24.4694555,99.5436475 24.1523606,99.226346 L0.940108242,76.0471139 C0.305918551,75.4131598 0.305918551,74.3866343 0.940108242,73.7526801 L73.5580767,1.23468571 C74.1675746,0.626037823 75.2462169,0.626037823 75.855065,1.23468571 L99.0679671,24.4152155 C99.7021568,25.0491697 99.7021568,26.0756952 99.0679671,26.7090005 L26.4493489,99.226346 C26.132254,99.5436475 25.7163919,99.7019738 25.3011796,99.7019738 Z" id="Fill-1" fill="#FEFEFE"></path>
                        <path d="M70.0928408,28.7433638 C69.6769788,28.7433638 69.2617664,28.5850375 68.9440218,28.2683849 L58.8639146,18.2029841 C58.2290751,17.5696788 58.2290751,16.5425044 58.8639146,15.9091991 C59.4981043,15.275245 60.5260634,15.275245 61.1609028,15.9091991 L71.2416599,25.9739511 C71.8758496,26.6072563 71.8758496,27.6344307 71.2416599,28.2683849 C70.9239152,28.5850375 70.5087029,28.7433638 70.0928408,28.7433638" id="Fill-3" fill="#FEFEFE"></path>
                        <path d="M58.2780689,31.3350488 C57.8622068,31.3350488 57.4469945,31.1767225 57.1292498,30.8600699 L51.658714,25.397812 C51.0245243,24.7645067 51.0245243,23.7373323 51.658714,23.1033782 C52.2935534,22.4700729 53.3215125,22.4700729 53.956352,23.1033782 L59.4268879,28.5656361 C60.0610776,29.1989413 60.0610776,30.2261157 59.4268879,30.8600699 C59.1091433,31.1767225 58.6939309,31.3350488 58.2780689,31.3350488" id="Fill-5" fill="#FEFEFE"></path>
                        <path d="M72.6882102,16.9456525 C72.2723481,16.9456525 71.8571358,16.7873262 71.5393911,16.4706736 L66.0695051,11.0084157 C65.4353154,10.3744616 65.4353154,9.34793603 66.0695051,8.71398189 C66.7043445,8.08067663 67.7323036,8.08067663 68.3671431,8.71398189 L73.8370292,14.1762398 C74.4712189,14.8101939 74.4712189,15.8367194 73.8370292,16.4706736 C73.5192846,16.7873262 73.1040723,16.9456525 72.6882102,16.9456525" id="Fill-7" fill="#FEFEFE"></path>
                        <path d="M51.0739729,38.5310447 C50.6581108,38.5310447 50.2428985,38.3727184 49.9251538,38.0560658 L44.4539682,32.5938079 C43.8197785,31.9605026 43.8197785,30.9333282 44.4539682,30.2993741 C45.0875081,29.6660688 46.1167668,29.6660688 46.7516063,30.2993741 L52.2227919,35.761632 C52.8569816,36.3949372 52.8569816,37.4221116 52.2227919,38.0560658 C51.9056971,38.3727184 51.489835,38.5310447 51.0739729,38.5310447" id="Fill-9" fill="#FEFEFE"></path>
                        <path d="M48.4786685,50.3286911 C48.0628064,50.3286911 47.6475941,50.1703648 47.3298495,49.8537122 L37.250392,39.7870136 C36.6155526,39.1530595 36.6155526,38.1258851 37.250392,37.4932287 C37.8845817,36.8592746 38.9125408,36.8592746 39.5473803,37.4932287 L49.6274876,47.5592784 C50.2616772,48.1932325 50.2616772,49.2204069 49.6274876,49.8537122 C49.3097429,50.1703648 48.8945306,50.3286911 48.4786685,50.3286911" id="Fill-11" fill="#FEFEFE"></path>
                        <path d="M36.6632468,52.9203761 C36.2473847,52.9203761 35.8321724,52.7620498 35.5144277,52.4453972 L30.0445416,46.9831393 C29.410352,46.3491852 29.410352,45.3226596 30.0445416,44.6887055 C30.6793811,44.0554002 31.7073402,44.0554002 32.3421797,44.6887055 L37.8120658,50.1509634 C38.4462555,50.7849175 38.4462555,51.811443 37.8120658,52.4453972 C37.4943212,52.7620498 37.0791088,52.9203761 36.6632468,52.9203761" id="Fill-13" fill="#FEFEFE"></path>
                        <path d="M29.458501,60.1150743 C29.0426389,60.1150743 28.6274266,59.956748 28.309682,59.6400953 L22.8391461,54.1778375 C22.2049564,53.5445322 22.2049564,52.5173578 22.8391461,51.8834036 C23.4739856,51.2500984 24.5019447,51.2500984 25.1367842,51.8834036 L30.60732,57.3456615 C31.2415097,57.9789668 31.2415097,59.0061412 30.60732,59.6400953 C30.2895754,59.956748 29.8743631,60.1150743 29.458501,60.1150743" id="Fill-15" fill="#FEFEFE"></path>
                        <path d="M26.8631317,71.9140185 C26.4472696,71.9140185 26.0320573,71.7556921 25.7143126,71.4390395 L15.6348552,61.3723409 C15.0000157,60.7383868 15.0000157,59.7112124 15.6348552,59.078556 C16.2690449,58.4446019 17.297004,58.4446019 17.9318435,59.078556 L28.0119507,69.1446057 C28.6461404,69.7785598 28.6461404,70.8057342 28.0119507,71.4390395 C27.6942061,71.7556921 27.2789938,71.9140185 26.8631317,71.9140185" id="Fill-17" fill="#FEFEFE"></path>
                        <path d="M15.0490095,74.5044706 C14.6331474,74.5044706 14.2179351,74.3461442 13.9001904,74.0294916 L8.43030435,68.5672337 C7.79611466,67.9332796 7.79611466,66.9067541 8.43030435,66.2727999 C9.06514382,65.6394947 10.0931029,65.6394947 10.7279424,66.2727999 L16.1978285,71.7350578 C16.8320182,72.3690119 16.8320182,73.3955375 16.1978285,74.0294916 C15.8800839,74.3461442 15.4648715,74.5044706 15.0490095,74.5044706" id="Fill-19" fill="#FEFEFE"></path>
                        <path d="M94.0542948,74.3637937 C93.6384327,74.3637937 93.2232204,74.2054674 92.9054757,73.8888148 L76.6023822,57.6071595 C75.9675427,56.9732053 75.9675427,55.9460309 76.6023822,55.3133746 C77.2365718,54.6794204 78.264531,54.6794204 78.8993704,55.3133746 L95.2031138,71.594381 C95.8373035,72.2283351 95.8373035,73.2555095 95.2031138,73.8888148 C94.8853692,74.2054674 94.4701569,74.3637937 94.0542948,74.3637937" id="Fill-21" fill="#FEFEFE"></path>
                        <g id="Group-25" transform="translate(0.000000, 0.517805)">
                            <mask id="mask-2" fill="white">
                                <use xlink:href="#path-1"></use>
                            </mask>
                            <g id="Clip-24"></g>
                            <path d="M22.3724059,45.9239752 C21.9565438,45.9239752 21.5413315,45.7656489 21.2235868,45.4489962 L15.4547999,39.6889032 C15.3651296,39.599358 15.2865057,39.4994307 15.2195779,39.3910681 C15.1714938,39.3125538 10.3624386,31.4754012 6.22396101,23.1340701 C-1.59749524,7.36762422 -0.510405739,3.2582777 1.31094027,1.44012059 C3.13163649,-0.377387643 7.24672185,-1.46490774 23.0351861,6.34628972 C31.3888159,10.4789959 39.2369133,15.2813445 39.3148874,15.3300103 C39.4234014,15.3961959 39.5234682,15.4747102 39.6131385,15.5649043 L50.3014441,26.2370064 C50.9362835,26.8703116 50.9362835,27.897486 50.3014441,28.5307913 C49.6672544,29.1647454 48.6392953,29.1647454 48.0044558,28.5307913 L37.4532548,17.9956026 C36.2992375,17.2948139 29.1425108,12.9869107 21.5751203,9.24482926 C6.30973257,1.69577865 3.83990161,3.50355371 3.60792854,3.73390552 C3.37660525,3.96555509 1.5656558,6.43388829 9.13564544,21.6935602 C12.8829528,29.2490996 17.188425,36.3802726 17.8895425,37.5313827 L23.5212249,43.1545624 C24.1554146,43.7878677 24.1554146,44.8150421 23.5212249,45.4489962 C23.2034803,45.7656489 22.788268,45.9239752 22.3724059,45.9239752" id="Fill-23" fill="#FEFEFE" mask="url(#mask-2)"></path>
                        </g>
                        <path d="M72.1938541,96.1937482 C71.777992,96.1937482 71.3627797,96.0354219 71.0450351,95.7187692 L49.3539283,74.0572636 C48.7190888,73.4233095 48.7190888,72.3967839 49.3539283,71.7634787 C49.988118,71.1295245 51.0160771,71.1295245 51.6509165,71.7634787 L73.3426731,93.4243354 C73.9768628,94.0582896 73.9768628,95.0848151 73.3426731,95.7187692 C73.0249285,96.0354219 72.6097162,96.1937482 72.1938541,96.1937482" id="Fill-26" fill="#FEFEFE"></path>
                        <path d="M6.5789383,18.5482522 C5.89796412,18.5482522 5.26377443,18.117397 5.03699963,17.4367236 C4.75434337,16.5879908 5.21439081,15.6698279 6.06430896,15.386917 C6.12148999,15.3674506 8.86682959,14.4187905 10.9617349,12.3261578 C13.0891294,10.2010813 14.1892146,7.26360903 14.2002609,7.23376062 C14.5102081,6.39540981 15.4387502,5.96195908 16.2847697,6.27147404 C17.1255908,6.57969126 17.5583473,7.50823616 17.251649,8.34853361 C17.1977169,8.49582899 15.9072448,11.9744658 13.2587231,14.6199428 C10.5933071,17.2829395 7.23262152,18.4178277 7.0909685,18.4651958 C6.92072495,18.5209993 6.74853205,18.5482522 6.5789383,18.5482522" id="Fill-28" fill="#FEFEFE"></path>
                        <path d="M17.4698467,40.0936735 C16.9279264,40.0936735 16.3990018,39.8237401 16.0903541,39.3312415 C15.6153616,38.5714049 15.8466849,37.5708345 16.6069328,37.0958556 C16.6608649,37.0621139 22.0482284,33.674969 27.1016026,28.629291 C32.1803184,23.5583068 35.9003347,17.8429864 35.9373725,17.7858851 C36.4253606,17.0331862 37.4312271,16.8190564 38.1836775,17.3044173 C38.9367778,17.7910761 39.1525063,18.7948909 38.6658177,19.5475898 C38.5072702,19.7928658 34.7190265,25.610709 29.3985909,30.923076 C24.0723072,36.2419317 18.5608349,39.7023999 18.328212,39.8470998 C18.0605008,40.0145104 17.7635493,40.0936735 17.4698467,40.0936735" id="Fill-30" fill="#FEFEFE"></path>
                        <path d="M72.1951537,96.1937482 C71.6766256,96.1937482 71.1671946,95.9465255 70.8526989,95.4864708 C70.3465167,94.7467495 70.5369036,93.7370948 71.2776579,93.2322674 C71.3419866,93.1881437 77.7157229,88.8211925 83.0049689,83.5393228 C88.2948647,78.2548576 92.6692141,71.8906588 92.7127496,71.8264199 C93.2195816,71.0860497 94.2293467,70.8985238 94.9707508,71.4020534 C95.7108554,71.9075297 95.9012423,72.9165355 95.3957099,73.6569057 C95.2111711,73.9261902 90.8134295,80.3286728 85.3019572,85.8331077 C79.7917845,91.3362449 73.3797109,95.7272047 73.1094005,95.9108372 C72.8299932,96.1022563 72.510949,96.1937482 72.1951537,96.1937482" id="Fill-32" fill="#FEFEFE"></path>
                        <path d="M64.1178773,88.1283851 C63.5993492,88.1283851 63.0899182,87.8811624 62.7754224,87.4211077 C62.2692403,86.6820353 62.4596272,85.6723806 63.2003815,85.1669043 C63.2640604,85.1234295 69.6377967,80.7545316 74.9276925,75.4713642 C80.2169385,70.1888456 84.5906381,63.823998 84.6341737,63.759759 C85.1410056,63.0200377 86.1514205,62.8325119 86.8921749,63.3353926 C87.6322794,63.8402199 87.8226663,64.8498746 87.3171339,65.5895959 C87.1325951,65.8595293 82.7355033,72.2620119 77.2246808,77.7651491 C71.7138583,83.2689352 65.3030842,87.6611927 65.0327739,87.8454741 C64.7527167,88.0368932 64.4336725,88.1283851 64.1178773,88.1283851" id="Fill-34" fill="#FEFEFE"></path>
                        <path d="M83.3385683,99.796191 C80.0721015,99.796191 76.922596,98.2421273 73.7503479,95.0736544 C73.1161583,94.4397003 73.1161583,93.4125258 73.7503479,92.7798695 C74.3851874,92.1459153 75.4131465,92.1459153 76.0473362,92.7798695 C78.876498,95.6044369 81.5490617,96.8184882 84.213828,96.4985912 C86.626478,96.2078937 89.2119706,94.6551279 92.1184567,91.752695 C98.0425422,85.8336268 98.2426758,81.4232008 92.8312703,76.0186931 C92.1970806,75.3853878 92.1970806,74.3588623 92.8312703,73.7249081 C93.4661098,73.0916029 94.4940689,73.0916029 95.1289084,73.7249081 C103.927641,82.5113697 98.9359959,89.5309356 94.4160948,94.0471289 C90.9754858,97.4829397 87.7655502,99.3380828 84.603049,99.7196233 C84.1793895,99.7708847 83.7583291,99.796191 83.3385683,99.796191" id="Fill-36" fill="#FEFEFE"></path>
                        <path d="M66.2366946,75.5614285 C65.8208325,75.5614285 65.4056202,75.4031022 65.0878756,75.0864495 L56.7063051,66.7152701 C56.0714656,66.0819648 56.0714656,65.0547904 56.7063051,64.4214851 C57.3411446,63.787531 58.3691037,63.787531 59.0032934,64.4214851 L67.3855136,72.7920157 C68.0197033,73.4259699 68.0197033,74.4531443 67.3855136,75.0864495 C67.067769,75.4031022 66.6525567,75.5614285 66.2366946,75.5614285" id="Fill-38" fill="#FEFEFE"></path>
                        <path d="M74.1007118,67.7077295 C73.6848497,67.7077295 73.2696374,67.5494032 72.9518927,67.2327506 L64.5722716,58.8641666 C63.9374321,58.2308613 63.9374321,57.2043358 64.5722716,56.5703817 C65.2064613,55.9364275 66.2350702,55.9364275 66.8692598,56.5703817 L75.2495308,64.9383167 C75.8837205,65.5722709 75.8837205,66.5987964 75.2495308,67.2327506 C74.9317862,67.5494032 74.5165738,67.7077295 74.1007118,67.7077295" id="Fill-40" fill="#FEFEFE"></path>
                    </g>
                </g>
            </g>
        </g>
    </g>
</svg>