<?xml version="1.0" encoding="UTF-8"?>
<svg width="47px" height="38px" viewBox="0 0 47 38" version="1.1" xmlns="http://www.w3.org/2000/svg" xmlns:xlink="http://www.w3.org/1999/xlink">
    <!-- Generator: Sketch 49.2 (51160) - http://www.bohemiancoding.com/sketch -->
    <title>Page 1</title>
    <desc>Created with Sketch.</desc>
    <defs>
        <polygon id="path-1" points="20.8114412 0.110040414 20.8114412 6.67578731 0.181761895 6.67578731 0.181761895 0.110040414 20.8114412 0.110040414"></polygon>
    </defs>
    <g id="HD-Desktop-1920---1440-px" stroke="none" stroke-width="1" fill="none" fill-rule="evenodd">
        <g id="HD-Desktop_EDU-WhiteLable" transform="translate(-422.000000, -702.000000)">
            <g id="Page-1" transform="translate(445.106183, 720.570000) scale(1, -1) rotate(90.000000) translate(-445.106183, -720.570000) translate(426.536183, 697.463817)">
                <path d="M29.4150213,14.7360461 C29.1655312,14.7360461 28.9236959,14.6042132 28.7944147,14.3705998 C28.6047456,14.028118 28.7286401,13.5966136 29.0711219,13.4072279 L35.1317461,10.0515864 L28.8922262,3.25326549 C28.6274265,2.96493435 28.6467053,2.51641924 28.9350364,2.25190306 C29.2233675,1.98738688 29.6718826,2.00666566 29.9363988,2.29471329 L36.7849013,9.75616752 C36.9317602,9.91606797 36.9972514,10.1349388 36.9623795,10.34899 C36.9275076,10.5636081 36.7959583,10.7501586 36.6060056,10.8553414 L29.7575031,14.647307 C29.6489182,14.7074114 29.5309775,14.7360461 29.4150213,14.7360461" id="Fill-1" fill="#FEFEFE"></path>
                <g id="Group-5" transform="translate(16.160152, 4.268548)">
                    <mask id="mask-2" fill="white">
                        <use xlink:href="#path-1"></use>
                    </mask>
                    <g id="Clip-4"></g>
                    <path d="M20.1028894,6.67578731 C20.0422179,6.67578731 19.9804124,6.66784899 19.919174,6.65140533 L0.707304355,1.50340449 C0.329100086,1.4019074 0.104842533,1.0132132 0.206056119,0.635292448 C0.307269705,0.257088179 0.695680386,0.0336811598 1.07416817,0.134044212 L20.2860378,5.28204504 C20.6639585,5.38325863 20.8884996,5.77195282 20.787286,6.15015709 C20.7022326,6.46712289 20.415886,6.67578731 20.1028894,6.67578731" id="Fill-3" fill="#FEFEFE" mask="url(#mask-2)"></path>
                </g>
                <path d="M1.41755723,11.8084502 L21.3430251,17.1475377 L21.3430251,13.8658927 L1.41755723,8.5270887 L1.41755723,11.8084502 Z M22.0518038,18.7802801 C21.9905653,18.7802801 21.9290433,18.7720583 21.8683719,18.7561817 L0.525346709,13.0371888 C0.215468699,12.9541199 0,12.6731601 0,12.3525086 L0,7.6031249 C0,7.3828365 0.102347632,7.17502261 0.277274194,7.0409217 C0.452200756,6.90653728 0.679293424,6.86117544 0.89221052,6.91844476 L22.2352357,12.6374376 C22.5451137,12.7205065 22.7605824,13.0011828 22.7605824,13.3221178 L22.7605824,18.0715015 C22.7605824,18.2917899 22.6582347,18.4996038 22.4833082,18.6337047 C22.3582796,18.7298151 22.2063175,18.7802801 22.0518038,18.7802801 Z" id="Fill-6" fill="#FEFEFE"></path>
                <path d="M7.96159677,18.8932027 C7.01551908,18.8932027 6.19361939,19.259216 5.58520383,19.951551 C4.95127224,20.6728041 4.60226965,21.7181108 4.60226965,22.8941163 C4.60170263,25.8811929 6.74334809,28.8852801 9.37603537,29.5903731 C9.73297628,29.6862 10.0862315,29.7346804 10.4258783,29.7346804 C12.4030871,29.7346804 13.7840713,28.089747 13.7840713,25.7346174 C13.7840713,22.7469738 11.6421424,19.7423195 9.00973858,19.0372266 C8.6533647,18.9416832 8.30095997,18.8932027 7.96159677,18.8932027 Z M10.4258783,31.1522377 C9.96233704,31.1522377 9.48547079,31.087597 9.00888805,30.9597334 C5.79698688,30.0992761 3.1841454,26.4811031 3.18471242,22.8941163 C3.18442891,21.3515305 3.64626905,20.0102378 4.52033484,19.0159632 C5.39298307,18.0228226 6.61520091,17.4756455 7.96159677,17.4756455 C8.42457096,17.4756455 8.90058668,17.5405696 9.37631888,17.6678663 C12.5885036,18.5283235 15.2016286,22.1473471 15.2016286,25.7346174 C15.2016286,28.8736562 13.1932335,31.1522377 10.4258783,31.1522377 Z M1.41758558,35.9342252 L32.6840783,44.3122719 L32.6840783,28.2456783 L21.8684002,25.3479078 C21.5585222,25.264839 21.3430535,24.9838791 21.3430535,24.6632277 L21.3430535,18.6153615 L1.41758558,13.276274 L1.41758558,31.185125 L28.0670945,38.3259278 L28.0670945,30.7609919 C28.0670945,30.3694626 28.3843438,30.0522132 28.7758731,30.0522132 C29.1674024,30.0522132 29.4846517,30.3694626 29.4846517,30.7609919 L29.4846517,39.2498916 C29.4846517,39.47018 29.3823041,39.6779939 29.2073775,39.8120948 C29.0324509,39.9461957 28.8053583,39.9909905 28.5924412,39.9345717 L1.41758558,32.6528637 L1.41758558,35.9342252 Z M33.392857,45.9447308 C33.3316185,45.9447308 33.2700965,45.937076 33.2094251,45.9206324 L0.52537506,37.1629638 C0.21549705,37.079895 2.83511446e-05,36.7989351 2.83511446e-05,36.4782837 L2.83511446e-05,12.3525937 C2.83511446e-05,12.1320218 0.102375983,11.9242079 0.277302545,11.790107 C0.452229107,11.6557226 0.679321775,11.6106442 0.892238871,11.6679135 L22.235264,17.3869064 C22.545142,17.4696918 22.7606107,17.7506516 22.7606107,18.0715866 L22.7606107,24.1194527 L33.5762889,27.0169397 C33.8861669,27.1000086 34.1016356,27.3809684 34.1016356,27.7016199 L34.1016356,45.2359522 C34.1016356,45.4562406 33.9992879,45.664338 33.8243614,45.7981554 C33.6993328,45.8942658 33.5473707,45.9447308 33.392857,45.9447308 Z" id="Fill-8" fill="#FEFEFE"></path>
                <path d="M22.7606674,24.119311 L31.5146503,26.4645177 L22.7606674,15.3653281 L22.7606674,24.119311 Z M33.3929137,28.4105402 C33.3319587,28.4105402 33.2704367,28.4026019 33.2094818,28.3864417 L21.8684569,25.3477661 C21.5585789,25.2646972 21.3431102,24.9840209 21.3431102,24.6630859 L21.3431102,13.3220611 C21.3431102,13.0201214 21.5344804,12.7513525 21.8196929,12.652407 C22.1043384,12.553178 22.4213042,12.6458863 22.6084218,12.8829018 L33.9494466,27.2628859 C34.1385488,27.5027366 34.1527243,27.8364295 33.9848856,28.0915898 C33.8516352,28.294017 33.6273776,28.4105402 33.3929137,28.4105402 Z" id="Fill-10" fill="#FEFEFE"></path>
                <path d="M0.708778614,44.5005802 C0.317249308,44.5005802 0,44.1833309 0,43.7918016 L0,0.708835317 C0,0.31730601 0.317249308,5.67022892e-05 0.708778614,5.67022892e-05 C1.10030792,5.67022892e-05 1.41755723,0.31730601 1.41755723,0.708835317 L1.41755723,43.7918016 C1.41755723,44.1833309 1.10030792,44.5005802 0.708778614,44.5005802" id="Fill-12" fill="#FEFEFE"></path>
            </g>
        </g>
    </g>
</svg>