<?xml version="1.0" encoding="UTF-8"?>
<svg width="37px" height="40px" viewBox="0 0 37 40" version="1.1" xmlns="http://www.w3.org/2000/svg" xmlns:xlink="http://www.w3.org/1999/xlink">
    <!-- Generator: Sketch 49.2 (51160) - http://www.bohemiancoding.com/sketch -->
    <title>Page 1 Copy 12</title>
    <desc>Created with Sketch.</desc>
    <defs>
        <polygon id="path-1" points="0.021063548 0.00548318667 20.2151385 0.00548318667 20.2151385 13.5913667 0.021063548 13.5913667"></polygon>
    </defs>
    <g id="HD-Desktop-1920---1440-px" stroke="none" stroke-width="1" fill="none" fill-rule="evenodd">
        <g id="HD-Desktop_EDU-WhiteLable" transform="translate(-505.000000, -701.000000)">
            <g id="Page-1-Copy-12" transform="translate(505.000000, 701.000000)">
                <path d="M27.752464,32.8620537 C27.3738499,32.8620537 27.0670656,32.5552694 27.0670656,32.1766554 L27.0670656,22.7776509 C27.0670656,22.3990369 27.3738499,22.0922526 27.752464,22.0922526 C28.131078,22.0922526 28.4378623,22.3990369 28.4378623,22.7776509 L28.4378623,32.1766554 C28.4378623,32.5552694 28.131078,32.8620537 27.752464,32.8620537" id="Fill-1" fill="#FFFFFF"></path>
                <path d="M23.0526602,28.1633191 C22.6740461,28.1633191 22.3672618,27.8565348 22.3672618,27.4779208 C22.3672618,27.0993068 22.6740461,26.7925225 23.0526602,26.7925225 L32.4522129,26.7919741 C32.830827,26.7919741 33.1376112,27.0987584 33.1376112,27.4773725 C33.1376112,27.8559865 32.830827,28.1627708 32.4522129,28.1627708 L23.0526602,28.1633191 Z" id="Fill-3" fill="#FFFFFF"></path>
                <path d="M12.1028734,39.1993015 C12.002257,39.1993015 11.9016405,39.1770946 11.8084263,39.132955 L0.390786714,33.6999395 C0.11690154,33.5697138 -0.0385468023,33.2749925 0.00833444374,32.9753363 C0.0341054211,32.8108407 0.658366224,28.9087309 2.54184085,25.0710486 C3.30756787,23.5113561 4.1810395,22.1753777 5.1384039,21.0993023 C5.39008216,20.816644 5.82325391,20.7908731 6.10618634,21.0428255 C6.38884462,21.2945038 6.41406728,21.7276755 6.16266317,22.0111563 C5.28782073,22.9940175 4.48343725,24.226912 3.77226794,25.6750216 C2.36062153,28.5512272 1.68152886,31.5318874 1.45397661,32.6877432 L12.1080825,37.7572234 L21.6617128,33.3709483 C22.0060569,33.2141291 22.412361,33.3643684 22.5708251,33.7081642 C22.7284667,34.0522342 22.5776791,34.4590867 22.2336091,34.6170024 L12.3888216,39.1367932 C12.2980749,39.1784654 12.2002,39.1993015 12.1028734,39.1993015" id="Fill-5" fill="#FFFFFF"></path>
                <path d="M12.1028734,20.7430871 C7.73962765,20.7430871 4.53717248,14.6342688 4.33374625,10.5937086 C4.31482926,10.215917 4.60571231,9.89377979 4.98377803,9.87458863 C5.36074712,9.85210757 5.68398097,10.147103 5.70289796,10.5248946 C5.87808578,14.0050732 8.70521683,19.3722904 12.1028734,19.3722904 C14.8077294,19.3722904 17.2299271,15.9187053 18.1357496,12.6699172 C18.2374627,12.3055594 18.6147059,12.0925376 18.9798862,12.1934283 C19.3445181,12.2954155 19.5578141,12.6732071 19.4561009,13.037839 C18.3887987,16.8667483 15.5202695,20.7430871 12.1028734,20.7430871" id="Fill-7" fill="#FFFFFF"></path>
                <g id="Group-11" transform="translate(2.193275, 0.268676)">
                    <mask id="mask-2" fill="white">
                        <use xlink:href="#path-1"></use>
                    </mask>
                    <g id="Clip-10"></g>
                    <path d="M6.08743385,6.46898139 C6.3519976,6.46898139 6.59846684,6.62278478 6.71114633,6.87144729 C6.88468919,7.2536254 7.26577066,7.69228034 7.81326685,8.13970837 C10.2774109,10.152312 15.3721138,11.8819833 18.4879347,12.1832844 C18.6746372,11.4984344 18.8443418,10.5303778 18.8443418,9.52174557 C18.8443418,5.03019321 14.9235892,1.37619761 10.1046906,1.37619761 C5.62245962,1.37619761 1.85002718,4.57947526 1.41054977,8.7105081 C2.00355641,9.44251352 3.94515281,9.99905697 5.59120545,10.2630724 C5.53582527,9.8970697 5.48126756,9.43346627 5.44453021,8.8777453 C5.4075187,8.3181861 5.39326241,7.73504919 5.40176135,7.14423583 C5.40669622,6.82374357 5.63342599,6.54876176 5.94733843,6.48351183 C5.99421967,6.4736421 6.04110092,6.46898139 6.08743385,6.46898139 M18.9803248,13.5913667 C18.9699068,13.5913667 18.9594887,13.5910926 18.9487965,13.5905442 C15.6347585,13.4394824 9.79735795,11.5302368 6.94610088,9.20125331 C6.90881521,9.17082162 6.87235202,9.1406641 6.83643714,9.11050657 C6.93376371,10.2532027 7.10483913,10.8722544 7.10675825,10.8788343 C7.16762162,11.0967909 7.11772462,11.3317455 6.97269433,11.5052883 C6.82684157,11.678557 6.60504667,11.7709487 6.38051017,11.7481935 C5.51416668,11.6632041 1.13995451,11.1423014 0.102535591,9.20975225 C0.0405755814,9.09433117 0.013159648,8.96410549 0.023029384,8.83360564 C0.399450149,3.88311055 4.82794587,0.00540093887 10.1046906,0.00540093887 C15.6797206,0.00540093887 20.2151385,4.27433592 20.2151385,9.52174557 C20.2151385,10.9791766 19.9102733,12.3455867 19.6251476,13.1379072 C19.5269985,13.4106957 19.2681921,13.5913667 18.9803248,13.5913667" id="Fill-9" fill="#FFFFFF" mask="url(#mask-2)"></path>
                </g>
                <path d="M27.5808402,36.7771038 C26.4650117,36.777378 25.3475383,36.5736776 24.273382,36.1651802 C20.1064343,34.5808134 17.645306,30.2499184 18.4211769,25.8672073 C18.4869751,25.4946248 18.8414631,25.2448656 19.2154165,25.3117605 C19.5882732,25.3778329 19.8369357,25.7334175 19.7711374,26.1060001 C19.1098651,29.8416952 21.2080065,33.5332506 24.7605631,34.8837595 C26.7383486,35.6360527 28.8904993,35.572996 30.8219519,34.7063784 C32.7525819,33.8394866 34.2303007,32.272666 34.9825939,30.2943322 C36.5357065,26.2107289 34.4770441,21.6240433 30.3934408,20.0703823 C27.3582228,18.9172682 23.8607722,19.7614048 21.6883336,22.1712653 C21.4352846,22.4525528 21.0015645,22.4750339 20.7205512,22.2208882 C20.4392637,21.9675649 20.4167827,21.534119 20.67038,21.2531057 C23.2184169,18.4262488 27.3212113,17.4362595 30.8806219,18.7892358 C35.671008,20.611847 38.0855292,25.9916756 36.2640146,30.7817875 C35.3814957,33.1022721 33.6482604,34.9399621 31.3834302,35.9568191 C30.1672594,36.5029445 28.8754206,36.7771038 27.5808402,36.7771038" id="Fill-12" fill="#FFFFFF"></path>
            </g>
        </g>
    </g>
</svg>