<?xml version="1.0" encoding="UTF-8"?>
<svg width="30px" height="30px" viewBox="0 0 30 30" version="1.1" xmlns="http://www.w3.org/2000/svg" xmlns:xlink="http://www.w3.org/1999/xlink">
    <!-- Generator: Sketch 49.2 (51160) - http://www.bohemiancoding.com/sketch -->
    <title>Page 1</title>
    <desc>Created with Sketch.</desc>
    <defs></defs>
    <g id="HD-Desktop-1920---1440-px" stroke="none" stroke-width="1" fill="none" fill-rule="evenodd" opacity="0.75">
        <g id="HD-Desktop_EDU-Registration" transform="translate(-755.000000, -508.000000)" fill="#2D2F45">
            <path d="M782.55522,527.640171 C782.343701,528.486771 781.835881,529.120976 781.116718,529.458879 C780.355251,529.881916 779.594136,529.966699 778.748061,529.670398 C778.240417,529.544013 777.902338,529.332494 777.605861,528.994416 L773.164498,525.314344 L773.460624,524.68014 L773.588062,524.171969 L778.367855,523.749458 L780.059652,523.707154 L780.482513,523.749458 C781.117245,523.960977 781.709497,524.34171 782.0474,524.975915 C782.470261,525.441255 782.68178,526.07546 782.68178,526.794799 L782.55522,527.640171 Z M775.279859,532.589705 C775.195076,533.351171 774.94143,533.900768 774.434136,534.112287 C774.138186,534.323806 773.799581,534.323806 773.461502,534.280975 C772.657732,534.07051 772.023176,533.435252 771.558362,532.419963 L771.050542,531.024643 L770.415986,527.344571 L771.135149,527.090749 L771.684746,526.794799 L773.460975,528.613331 L774.560696,529.966699 L774.772215,530.389736 C775.152948,531.109075 775.364467,531.785759 775.279859,532.589705 Z M767.455077,525.187433 C766.904954,524.679789 766.609354,523.960626 766.609354,523.19951 C766.609354,522.438394 766.904954,521.803839 767.455077,521.211587 C767.962195,520.746246 768.63923,520.450471 769.443001,520.450471 C770.204468,520.450471 770.923279,520.746772 771.38862,521.211587 C771.980872,521.803839 772.234694,522.438394 772.234694,523.19951 C772.234694,523.960626 771.980872,524.679789 771.38862,525.187433 C770.838672,525.73703 770.204468,526.033156 769.443001,526.033156 C768.63923,526.033156 767.962195,525.73703 767.455077,525.187433 Z M768.850749,533.647473 L768.808445,534.07051 C768.512144,534.830923 768.004499,535.465479 767.243559,535.804084 C766.482443,536.227121 765.678497,536.311553 764.917206,536.100035 C764.071307,535.889569 763.436752,535.381925 763.098322,534.70489 C762.886804,534.282028 762.717589,533.774208 762.717589,533.266564 L762.929107,532.294456 C763.013715,531.871244 763.225233,531.44768 763.563663,531.109777 L767.116472,526.879757 C767.539509,527.090749 767.962195,527.302268 768.427712,527.344571 C768.512144,528.782897 768.63923,530.305655 768.850749,531.955149 L768.850749,533.647473 Z M757.0926,521.16981 C756.75417,520.535078 756.75417,519.900874 757.008168,519.266318 C757.304118,518.462548 757.853715,517.827992 758.657486,517.489913 C759.418602,517.066525 760.179717,516.939614 761.025967,517.150957 L762.167992,517.616473 L765.890191,520.32356 C765.551762,520.746246 765.340594,521.169283 765.213683,521.59232 L759.122827,522.353787 L758.69979,522.269179 C757.938323,522.142268 757.431205,521.803839 757.0926,521.16981 Z M763.309841,512.202652 C763.35232,511.44101 763.64827,510.933716 764.155739,510.637766 C764.409386,510.426247 764.790295,510.426247 765.128198,510.595287 C765.88984,510.806981 766.523869,511.356753 767.031514,512.41417 C767.243032,512.837208 767.454551,513.259718 767.539158,513.767538 L768.384881,518.758674 L767.750326,518.970192 L763.985998,514.867435 L763.774479,514.444749 C763.436752,513.682755 763.225233,512.964119 763.309841,512.202652 Z M770.542722,512.076092 C770.75424,511.230544 771.346317,510.595813 772.107783,510.172776 C772.868899,509.75009 773.715149,509.665132 774.518393,509.961257 C775.406595,510.172249 776.041326,510.637766 776.422235,511.356402 C776.633754,511.779088 776.760489,512.286733 776.760489,512.836681 L776.633754,513.767011 C776.464363,514.232352 776.252845,514.655389 775.999022,515.035772 L772.192391,519.689004 C771.811657,519.392878 771.38862,519.18136 770.965583,518.969666 L770.542722,514.190575 L770.500593,512.498602 L770.542722,512.076092 Z M777.733123,517.404428 L778.240417,517.193261 C779.002059,516.855007 779.720696,516.770224 780.482162,516.855007 C781.201325,516.939614 781.709145,517.277517 781.962441,517.785162 L782.131832,518.334759 L782.047049,518.757796 C781.750923,519.519263 781.116367,520.111164 780.059125,520.576504 C779.636615,520.788023 779.171098,520.87263 778.663454,520.956887 L773.460975,521.591442 L773.376544,521.295316 L773.292112,521.168932 L773.460975,520.957413 L777.733123,517.404428 Z M783.865406,524.466866 L783.653887,524.128436 C783.315282,523.620967 782.977204,523.113147 782.469735,522.775069 C782.047049,522.479118 781.539404,522.2676 781.074063,522.056081 C782.385478,521.42135 783.315809,520.533499 783.738846,519.391123 C784.034972,518.460441 783.950364,517.699326 783.527327,516.937683 L783.527327,516.853251 C783.020034,516.007177 782.343175,515.457229 781.286108,515.161279 C780.651377,515.034543 779.932214,515.034543 779.29801,515.076847 L777.902338,515.372797 L778.367855,514.315731 C778.790892,512.962363 778.663981,511.650773 777.944642,510.424492 L777.817906,510.212973 C777.183175,509.155205 776.252845,508.521001 774.984084,508.182571 C773.673021,507.844317 772.446564,507.971052 771.26206,508.605608 C770.077907,509.239988 769.231833,510.212973 768.851626,511.482085 L768.851626,511.566692 L768.809147,511.862818 L768.640108,511.566692 L768.216895,510.805225 C767.539509,509.749212 766.693435,509.114657 765.636194,508.818531 C764.705863,508.607012 763.944572,508.69162 763.141152,509.114657 C762.252599,509.66478 761.744954,510.510679 761.533436,511.694832 C761.321917,512.921288 761.533436,514.105792 762.167992,515.290121 L762.464117,515.712631 L761.449004,515.374201 C760.180068,515.078075 758.995564,515.24729 757.811412,515.882021 C756.585131,516.516577 755.823488,517.404428 755.315844,518.631411 C754.850503,519.815915 754.893158,520.957764 755.485059,522.015006 C755.738881,522.480171 756.119439,522.860554 756.457517,523.114551 C756.965337,523.62202 757.599893,523.918322 758.361009,524.044882 L758.657135,524.129314 L758.022579,524.679438 C757.430152,525.186907 757.092249,525.821111 756.880555,526.455667 C756.669036,527.217133 756.753819,527.978249 757.176856,528.697412 C757.388375,529.035491 757.599542,529.331792 757.937972,529.543311 C758.276401,529.839261 758.699438,530.05078 759.206556,530.092908 C760.137238,530.304427 761.109872,530.304427 762.167289,529.965295 L761.405823,531.234231 L761.194304,531.784354 C760.771443,533.137897 760.898003,534.322401 761.532558,535.548507 C761.82886,536.013672 762.167289,536.437411 762.505544,536.817267 C763.013364,537.282608 763.647568,537.578734 764.409035,537.790252 C765.677795,538.128331 766.946906,538.086554 768.173363,537.452174 C769.357867,536.817267 770.118982,535.802153 770.499716,534.533218 L770.542195,534.27922 C771.345439,535.1683 772.106906,535.760025 772.95298,535.971544 C773.798703,536.225191 774.644953,536.183062 775.406244,535.675242 C776.125583,535.252205 776.632876,534.533218 776.886698,533.645015 C777.098217,532.714334 777.098217,531.784003 776.886698,530.726762 C777.309209,531.022887 777.732246,531.233879 778.23989,531.360966 C779.593433,531.784003 780.777586,531.741348 781.96209,531.107319 C783.10429,530.473115 783.865406,529.457299 784.246139,528.146235 C784.584569,526.8773 784.499962,525.65137 783.865406,524.466866 Z" id="Page-1"></path>
        </g>
    </g>
</svg>