<?xml version="1.0" encoding="UTF-8"?>
<svg width="30px" height="30px" viewBox="0 0 30 30" version="1.1" xmlns="http://www.w3.org/2000/svg" xmlns:xlink="http://www.w3.org/1999/xlink">
    <!-- Generator: Sketch 49.2 (51160) - http://www.bohemiancoding.com/sketch -->
    <title>Page 1</title>
    <desc>Created with Sketch.</desc>
    <defs>
        <polygon id="path-1" points="14.6908664 29.3109986 29.3816983 29.3109986 29.3816983 -2.84217094e-14 14.6908664 -2.84217094e-14 3.44316777e-05 -2.84217094e-14 3.44316777e-05 29.3109986"></polygon>
    </defs>
    <g id="HD-Desktop-1920---1440-px" stroke="none" stroke-width="1" fill="none" fill-rule="evenodd" opacity="0.75">
        <g id="HD-Desktop_EDU-Registration" transform="translate(-755.000000, -568.000000)">
            <g id="Page-1" transform="translate(755.000000, 568.000000)">
                <mask id="mask-2" fill="white">
                    <use xlink:href="#path-1"></use>
                </mask>
                <g id="Clip-2"></g>
                <path d="M12.2100812,1.03765599 C12.1625655,1.0111436 12.1137873,0.988303921 12.0653534,0.962709707 C12.0164604,0.972580122 11.9672231,0.98268008 11.9183301,0.992091406 L12.2100812,1.03765599 Z M1.05811989,12.0448895 C1.04836424,12.0951597 1.04228131,12.1458891 1.03344385,12.1961593 C1.05949715,12.2426421 1.08233683,12.2901578 1.10839014,12.3357224 L1.05811989,12.0448895 Z M28.316187,17.2577307 C28.3259427,17.2060832 28.3324847,17.1539766 28.3417813,17.1023291 C28.316187,17.0557315 28.2933474,17.0078715 28.2659168,16.9618478 L28.316187,17.2577307 Z M16.9873617,28.1692441 C17.0348774,28.1965599 17.0822784,28.2203178 17.1287611,28.2463711 C17.1809825,28.2370745 17.23263,28.2311064 17.2838184,28.2213507 L16.9873617,28.1692441 Z M14.7543526,23.0842592 C9.8253432,23.0842592 7.62033856,20.6610725 7.62033856,18.8448015 C7.62033856,17.9133098 8.30805393,17.2604852 9.25584325,17.2604852 C11.3651278,17.2604852 10.8188119,20.2892104 14.7543526,20.2892104 C16.7691796,20.2892104 17.8816671,19.1952012 17.8816671,18.0757126 C17.8816671,17.4024585 17.5494014,16.6560945 16.2228637,16.3289936 L11.8387929,15.2345253 C8.30805393,14.3490573 7.66728041,12.4403947 7.66728041,10.64616 C7.66728041,6.92099675 11.1747206,5.52226724 14.4686845,5.52226724 C17.5029187,5.52226724 21.0796814,7.19920471 21.0796814,9.43405013 C21.0796814,10.3917099 20.2505666,10.9486996 19.3032363,10.9486996 C17.5029187,10.9486996 17.8341514,8.45699389 14.2081514,8.45699389 C12.408752,8.45699389 11.4120697,9.27176216 11.4120697,10.4377335 C11.4120697,11.6015242 12.8331798,11.9732716 14.0670963,12.2542341 L17.3121672,12.9745448 C20.866664,13.7665881 21.7678558,15.8417853 21.7678558,17.7965865 C21.7678558,20.8239343 19.4441767,23.0842592 14.7543526,23.0842592 Z M28.3417813,17.1023291 C28.3324847,17.1539766 28.3259427,17.2060832 28.316187,17.2577307 L28.2659168,16.9618478 C28.2933474,17.0078715 28.316187,17.0557315 28.3417813,17.1023291 C28.4933954,16.276887 28.5730474,15.4319336 28.5730474,14.5873246 C28.5730474,12.7144708 28.20635,10.8975112 27.4819075,9.18694546 C26.7829444,7.53468402 25.7830485,6.05090826 24.5080435,4.77682141 C23.2349896,3.50284934 21.7502957,2.50295342 20.0988376,1.80399036 C18.3888457,1.08046604 16.5718861,0.713768678 14.6990324,0.713768678 C13.816319,0.713768678 12.9322282,0.796634249 12.0718954,0.961791529 C12.070059,0.962250618 12.0676488,0.962250618 12.0653534,0.962709707 C12.1137873,0.988303921 12.1625655,1.0111436 12.2100812,1.03765599 L11.9183301,0.992091406 C11.9672231,0.98268008 12.0164604,0.972580122 12.0653534,0.962709707 C10.8849207,0.335020224 9.55734997,-2.84217094e-14 8.21359636,-2.84217094e-14 C6.01960986,-2.84217094e-14 3.95692283,0.854364695 2.40566098,2.40608563 C0.854743443,3.95746226 3.44316777e-05,6.02014929 3.44316777e-05,8.21402102 C3.44316777e-05,9.6104551 0.359271602,10.9831313 1.03344385,12.1961593 C1.04228131,12.1458891 1.04836424,12.0951597 1.05811989,12.0448895 L1.10839014,12.3357224 C1.08233683,12.2901578 1.05949715,12.2426421 1.03344385,12.1961593 C0.896635318,12.982005 0.824558339,13.7851812 0.824558339,14.5873246 C0.824558339,16.4606374 1.19114093,18.2772527 1.9156982,19.9881627 C2.61362831,21.640998 3.61409809,23.1238556 4.88761108,24.3978277 C6.16250133,25.6719145 7.64547368,26.6731877 9.2986533,27.3701997 C11.0086452,28.0951012 12.8261787,28.4622577 14.6990324,28.4622577 C15.5142598,28.4622577 16.3313235,28.3878853 17.1287611,28.2463711 C17.0822784,28.2203178 17.0348774,28.1965599 16.9873617,28.1692441 L17.2838184,28.2213507 C17.23263,28.2311064 17.1809825,28.2370745 17.1287611,28.2463711 C18.3576277,28.9415467 19.7490118,29.3109986 21.169548,29.3109986 C23.3629607,29.3109986 25.4247295,28.4581259 26.9761062,26.9058311 C28.5278271,25.3554874 29.3817327,23.2922265 29.3817327,21.0983548 C29.3817327,19.6973298 29.0206592,18.3200627 28.3417813,17.1023291 Z" id="Fill-1" fill="#2D2F45" mask="url(#mask-2)"></path>
            </g>
        </g>
    </g>
</svg>