<?xml version="1.0" encoding="UTF-8"?>
<svg width="130px" height="84px" viewBox="0 0 130 84" version="1.1" xmlns="http://www.w3.org/2000/svg" xmlns:xlink="http://www.w3.org/1999/xlink">
    <!-- Generator: Sketch 49.2 (51160) - http://www.bohemiancoding.com/sketch -->
    <title>Page 1</title>
    <desc>Created with Sketch.</desc>
    <defs>
        <polygon id="path-1" points="0 83.9325882 129.312529 83.9325882 129.312529 0 0 0"></polygon>
    </defs>
    <g id="HD-Desktop-1920---1440-px" stroke="none" stroke-width="1" fill="none" fill-rule="evenodd" opacity="0.05">
        <g id="HD-Desktop_EDU-Today" transform="translate(-378.000000, -507.000000)">
            <g id="Page-1" transform="translate(378.000000, 507.000000)">
                <path d="M3.82352941,70.9968235 L3.82352941,73.7612353 C3.82352941,77.2612941 6.67052941,80.1090588 10.1705882,80.1090588 L119.141941,80.1090588 C122.641235,80.1090588 125.489,77.2612941 125.489,73.7612353 L125.489,70.9968235 L3.82352941,70.9968235 Z M119.141941,83.9325882 L10.1705882,83.9325882 C4.56223529,83.9325882 0,79.3695882 0,73.7612353 L0,69.0850588 C0,68.029 0.855705882,67.1732941 1.91176471,67.1732941 L127.400765,67.1732941 C128.456059,67.1732941 129.312529,68.029 129.312529,69.0850588 L129.312529,73.7612353 C129.312529,79.3695882 124.749529,83.9325882 119.141941,83.9325882 Z" id="Fill-1" fill="#FEFEFE"></path>
                <path d="M54.1313118,70.9968235 L54.1313118,71.4403529 C54.1313118,72.6784118 55.1384294,73.6855294 56.3764882,73.6855294 L72.9354294,73.6855294 C74.1734882,73.6855294 75.1806059,72.6784118 75.1806059,71.4403529 L75.1806059,70.9968235 L54.1313118,70.9968235 Z M72.9354294,77.5090588 L56.3764882,77.5090588 C53.0301353,77.5090588 50.3077824,74.7867059 50.3077824,71.4403529 L50.3077824,69.0850588 C50.3077824,68.029 51.1634882,67.1732941 52.2195471,67.1732941 L77.0923706,67.1732941 C78.1484294,67.1732941 79.0041353,68.029 79.0041353,69.0850588 L79.0041353,71.4403529 C79.0041353,74.7867059 76.2817824,77.5090588 72.9354294,77.5090588 Z" id="Fill-3" fill="#FEFEFE"></path>
                <path d="M117.191176,70.9968235 C116.135118,70.9968235 115.279412,70.1411176 115.279412,69.0850588 L115.279412,10.1698235 C115.279412,6.67052941 112.432412,3.82352941 108.932353,3.82352941 L20.3794118,3.82352941 C16.8801176,3.82352941 14.0323529,6.67052941 14.0323529,10.1698235 L14.0323529,69.0850588 C14.0323529,70.1411176 13.1766471,70.9968235 12.1205882,70.9968235 C11.0645294,70.9968235 10.2088235,70.1411176 10.2088235,69.0850588 L10.2088235,10.1698235 C10.2088235,4.56223529 14.7710588,0 20.3794118,0 L108.932353,0 C114.540706,0 119.102941,4.56223529 119.102941,10.1698235 L119.102941,69.0850588 C119.102941,70.1411176 118.247235,70.9968235 117.191176,70.9968235" id="Fill-5" fill="#FEFEFE"></path>
                <mask id="mask-2" fill="white">
                    <use xlink:href="#path-1"></use>
                </mask>
                <g id="Clip-8"></g>
                <path d="M20.3419412,67.1732941 L108.970588,67.1732941 L108.970588,10.4757059 L20.3419412,10.4757059 L20.3419412,67.1732941 Z M110.882353,70.9968235 L18.4301765,70.9968235 C17.3741176,70.9968235 16.5184118,70.1411176 16.5184118,69.0850588 L16.5184118,8.56394118 C16.5184118,7.50864706 17.3741176,6.65217647 18.4301765,6.65217647 L110.882353,6.65217647 C111.938412,6.65217647 112.794118,7.50864706 112.794118,8.56394118 L112.794118,69.0850588 C112.794118,70.1411176 111.938412,70.9968235 110.882353,70.9968235 Z" id="Fill-7" fill="#FEFEFE" mask="url(#mask-2)"></path>
            </g>
        </g>
    </g>
</svg>