<?xml version="1.0" encoding="UTF-8"?>
<svg width="100px" height="101px" viewBox="0 0 100 101" version="1.1" xmlns="http://www.w3.org/2000/svg" xmlns:xlink="http://www.w3.org/1999/xlink">
    <!-- Generator: Sketch 49.2 (51160) - http://www.bohemiancoding.com/sketch -->
    <title>Page 1</title>
    <desc>Created with Sketch.</desc>
    <defs>
        <polygon id="path-1" points="49.7065185 0.585925926 0 0.585925926 0 100 49.7065185 100 99.413037 100 99.413037 0.585925926 49.7065185 0.585925926"></polygon>
    </defs>
    <g id="HD-Desktop-1920---1440-px" stroke="none" stroke-width="1" fill="none" fill-rule="evenodd" opacity="0.05">
        <g id="HD-Desktop_EDU-Today" transform="translate(-737.000000, -499.000000)">
            <g id="Page-1" transform="translate(737.000000, 499.000000)">
                <g id="Group-3" transform="translate(0.000000, 0.154815)">
                    <mask id="mask-2" fill="white">
                        <use xlink:href="#path-1"></use>
                    </mask>
                    <g id="Clip-2"></g>
                    <path d="M49.7063704,4.28962963 C24.3404444,4.28962963 3.70340741,24.9266667 3.70340741,50.2925926 C3.70340741,75.6592593 24.3404444,96.2962963 49.7063704,96.2962963 C75.0722963,96.2962963 95.7093333,75.6592593 95.7093333,50.2925926 C95.7093333,24.9266667 75.0722963,4.28962963 49.7063704,4.28962963 M49.7063704,100 C22.2982222,100 -0.000296296296,77.7014815 -0.000296296296,50.2925926 C-0.000296296296,22.8844444 22.2982222,0.585925926 49.7063704,0.585925926 C77.1152593,0.585925926 99.413037,22.8844444 99.413037,50.2925926 C99.413037,77.7014815 77.1152593,100 49.7063704,100" id="Fill-1" fill="#FEFEFE" mask="url(#mask-2)"></path>
                </g>
                <path d="M49.7063704,4.44444444 C33.8419259,4.44444444 20.9352593,25.0814815 20.9352593,50.4474074 C20.9352593,75.8140741 33.8419259,96.4511111 49.7063704,96.4511111 C65.5708148,96.4511111 78.4782222,75.8140741 78.4782222,50.4474074 C78.4782222,25.0814815 65.5708148,4.44444444 49.7063704,4.44444444 M49.7063704,100.154815 C31.7997037,100.154815 17.2315556,77.8562963 17.2315556,50.4474074 C17.2315556,23.0392593 31.7997037,0.740740741 49.7063704,0.740740741 C67.6137778,0.740740741 82.1819259,23.0392593 82.1819259,50.4474074 C82.1819259,77.8562963 67.6137778,100.154815 49.7063704,100.154815" id="Fill-4" fill="#FEFEFE"></path>
                <path d="M49.7063704,100.154815 C48.6834074,100.154815 47.8545185,99.3259259 47.8545185,98.302963 L47.8545185,2.59259259 C47.8545185,1.56962963 48.6834074,0.740740741 49.7063704,0.740740741 C50.7293333,0.740740741 51.5582222,1.56962963 51.5582222,2.59259259 L51.5582222,98.302963 C51.5582222,99.3259259 50.7293333,100.154815 49.7063704,100.154815" id="Fill-6" fill="#FEFEFE"></path>
                <path d="M49.7071111,30.6445185 C27.933037,30.6445185 10.4885926,25.0371111 9.756,24.7978519 C8.78414815,24.4815556 8.25303704,23.4363704 8.57007407,22.4637778 C8.88711111,21.4919259 9.93525926,20.9615556 10.9041481,21.2771111 C11.078963,21.3334074 28.5493333,26.9408148 49.7071111,26.9408148 C70.8967407,26.9408148 88.3352593,21.3334074 88.5093333,21.2771111 C89.4841481,20.9585926 90.5263704,21.4919259 90.8441481,22.463037 C91.1611852,23.4356296 90.6300741,24.4808148 89.6582222,24.7978519 C88.9256296,25.0371111 71.4811852,30.6445185 49.7071111,30.6445185" id="Fill-8" fill="#FEFEFE"></path>
                <path d="M89.0820741,79.3656296 C88.8013333,79.3656296 88.5161481,79.3011852 88.2487407,79.1656296 C88.1776296,79.1322963 79.4413333,75.0663704 49.7065185,75.0663704 C19.970963,75.0663704 11.2361481,79.1322963 11.1517037,79.173037 C10.2354074,79.6137778 9.128,79.2419259 8.67762963,78.3315556 C8.22725926,77.4197037 8.588,76.318963 9.49614815,75.8604444 C9.85911111,75.6767407 18.7554074,71.3626667 49.7065185,71.3626667 C80.6576296,71.3626667 89.5546667,75.6767407 89.9183704,75.8604444 C90.830963,76.3211852 91.1968889,77.4352593 90.7361481,78.3478519 C90.410963,78.993037 89.7583704,79.3656296 89.0820741,79.3656296" id="Fill-10" fill="#FEFEFE"></path>
                <g id="Group-14" transform="translate(0.000000, 46.821481)" fill="#FEFEFE">
                    <path d="M97.5615556,4.14207407 L1.85192593,4.14207407 C0.828962963,4.14207407 7.40740741e-05,3.31318519 7.40740741e-05,2.29022222 C7.40740741e-05,1.26725926 0.828962963,0.43837037 1.85192593,0.43837037 L97.5615556,0.43837037 C98.5845185,0.43837037 99.4134074,1.26725926 99.4134074,2.29022222 C99.4134074,3.31318519 98.5845185,4.14207407 97.5615556,4.14207407" id="Fill-12"></path>
                </g>
            </g>
        </g>
    </g>
</svg>