<?xml version="1.0" encoding="UTF-8"?>
<svg width="98px" height="106px" viewBox="0 0 98 106" version="1.1" xmlns="http://www.w3.org/2000/svg" xmlns:xlink="http://www.w3.org/1999/xlink">
    <!-- Generator: Sketch 49.2 (51160) - http://www.bohemiancoding.com/sketch -->
    <title>Page 1</title>
    <desc>Created with Sketch.</desc>
    <defs>
        <polygon id="path-1" points="0.314127788 0.228275862 62.62 0.228275862 62.62 98.6206897 31.4670639 98.6206897 0.314127788 98.6206897"></polygon>
    </defs>
    <g id="HD-Desktop-1920---1440-px" stroke="none" stroke-width="1" fill="none" fill-rule="evenodd" opacity="0.1">
        <g id="HD-Desktop_EDU-Today" transform="translate(-1432.000000, -499.000000)">
            <g id="Page-1" transform="translate(1476.862918, 548.583208) scale(-1, 1) rotate(10.000000) translate(-1476.862918, -548.583208) translate(1426.862918, 498.928035)">
                <g id="Group-3" transform="translate(37.241379, 0.461379)">
                    <mask id="mask-2" fill="white">
                        <use xlink:href="#path-1"></use>
                    </mask>
                    <g id="Clip-2"></g>
                    <path d="M51.5605517,98.6206897 C46.8136552,98.6206897 41.0350345,95.6537931 34.8033103,89.9282759 C26.8874483,82.6572414 18.984,71.6931034 12.5488276,59.057931 C10.1902069,54.4268966 8.10675862,49.717931 6.35710345,45.062069 C6.02193103,44.1703448 6.47296552,43.1758621 7.364,42.8413793 C8.25365517,42.5062069 9.24882759,42.9558621 9.58468966,43.8482759 C11.2895172,48.3848276 13.3212414,52.9751724 15.6212414,57.4924138 C21.8743448,69.7710345 29.5157241,80.3882759 37.1364138,87.3896552 C44.2315862,93.9082759 50.5364138,96.5055172 54.4329655,94.5234483 C58.3302069,92.5386207 59.9350345,85.9103448 58.8357241,76.337931 C57.6550345,66.0572414 53.5605517,53.6337931 47.3074483,41.3558621 C41.0550345,29.077931 33.4143448,18.4606897 25.7929655,11.4593103 C18.6977931,4.94068966 12.3915862,2.34137931 8.49710345,4.32482759 C3.84331034,6.69655172 2.50882759,15.4827586 4.92951724,27.8296552 C5.11227586,28.7634483 4.504,29.6689655 3.56882759,29.8524138 C2.63641379,30.0372414 1.72882759,29.4268966 1.54606897,28.4924138 C-1.22910345,14.3386207 0.734344828,4.41034483 6.93158621,1.25241379 C12.2646897,-1.46206897 19.7895172,1.26137931 28.126069,8.92 C36.041931,16.1924138 43.9453793,27.1558621 50.3798621,39.7903448 C56.8150345,52.4262069 61.0343448,65.2662069 62.261931,75.9448276 C63.5529655,87.1924138 61.3288276,94.8813793 55.9984828,97.5958621 C54.6515862,98.2813793 53.1646897,98.6206897 51.5605517,98.6206897" id="Fill-1" fill="#FEFEFE" mask="url(#mask-2)"></path>
                </g>
                <path d="M58.3769655,33.0064828 C57.8893793,33.0064828 57.4762759,33.0802759 57.2135172,33.2147586 C56.3983448,33.6292414 55.6362759,35.5561379 56.170069,39.6209655 C56.7135172,43.7623448 58.4197241,48.8057931 60.9762759,53.8230345 C65.7852414,63.2685517 71.910069,69.1147586 74.8266207,69.1147586 C75.0624828,69.1147586 75.2604138,69.0726897 75.4314483,68.9857931 C78.0528276,67.649931 80.5307586,56.6388966 75.3652414,46.4954483 C70.9431724,37.809931 62.5128276,33.0064828 58.3769655,33.0064828 M74.8266207,72.5630345 C69.1769655,72.5630345 62.2562759,63.9375172 57.9031724,55.3878621 C55.1735172,50.0306207 53.3445517,44.589931 52.7514483,40.069931 C51.8921379,33.5209655 53.8521379,31.0568276 55.648,30.1423448 C56.4086897,29.7547586 57.3266207,29.5582069 58.3769655,29.5582069 C64.2604138,29.5582069 73.6031724,35.4354483 78.4376552,44.929931 C84.3286897,56.4982069 81.7804138,69.6216552 76.9962759,72.0588966 C76.3376552,72.3933793 75.6073103,72.5630345 74.8266207,72.5630345" id="Fill-4" fill="#FEFEFE"></path>
                <g id="Group-8" transform="translate(0.000000, 11.495862)" fill="#FEFEFE">
                    <path d="M24.8963448,86.7302069 C22.5101379,86.7302069 10.7901379,85.9722759 3.47703448,71.6115862 C-4.52434483,55.9026207 3.7397931,45.501931 4.09565517,45.0667586 C4.30806897,44.806069 4.59358621,44.6136552 4.91427586,44.5122759 C5.1397931,44.4412414 27.9473793,36.7908966 37.8522069,1.35365517 C38.1087586,0.437103448 39.0618621,-0.0966896552 39.9770345,0.157103448 C40.8942759,0.413655172 41.4301379,1.36468966 41.1735862,2.28193103 C31.4791034,36.9667586 10.2846207,46.2143448 6.49772414,47.6115862 C5.23082759,49.4336552 0.306689655,57.7895172 6.54944828,70.0467586 C12.7404828,82.204 22.4391034,83.2102069 24.6549655,83.2771034 C27.9232414,81.0350345 46.4811724,70.0943448 82.2004828,82.1646897 C83.1025517,82.4688276 83.5873793,83.4474483 83.2818621,84.3495172 C82.9777241,85.2508966 81.9977241,85.7371034 81.0970345,85.4308966 C44.1149655,72.9371034 26.446,86.224 26.2722069,86.3591724 C25.9963448,86.5743448 25.6604828,86.7005517 25.3108276,86.7205517 C25.2625517,86.7233103 25.1204828,86.7302069 24.8963448,86.7302069" id="Fill-6"></path>
                </g>
                <path d="M41.576,92.3862069 C41.4366897,92.3862069 41.2946207,92.3689655 41.1532414,92.3331034 C35.0118621,90.7862069 26.4125517,86.4289655 20.3166897,74.4613793 C18.4525517,70.8013793 17.1835862,67.1041379 16.5463448,63.4717241 C16.3815172,62.5337931 17.0084138,61.64 17.9463448,61.4758621 C18.8794483,61.3075862 19.778069,61.9386207 19.9422069,62.8751724 C20.5208276,66.1703448 21.6801379,69.5413793 23.3891034,72.8958621 C28.8973793,83.7103448 36.5477241,87.6165517 41.996,88.9896552 C42.9194483,89.222069 43.4794483,90.1593103 43.2463448,91.0827586 C43.0497931,91.8648276 42.3470345,92.3862069 41.576,92.3862069" id="Fill-9" fill="#FEFEFE"></path>
            </g>
        </g>
    </g>
</svg>