<?xml version="1.0" encoding="UTF-8"?>
<svg width="100px" height="100px" viewBox="0 0 100 100" version="1.1" xmlns="http://www.w3.org/2000/svg" xmlns:xlink="http://www.w3.org/1999/xlink">
    <!-- Generator: Sketch 49.2 (51160) - http://www.bohemiancoding.com/sketch -->
    <title>Page 1</title>
    <desc>Created with Sketch.</desc>
    <defs></defs>
    <g id="HD-Desktop-1920---1440-px" stroke="none" stroke-width="1" fill="none" fill-rule="evenodd" opacity="0.05">
        <g id="HD-Desktop_EDU-Today" transform="translate(-1427.000000, -253.000000)" fill="#FEFEFE">
            <path d="M1508.2423,352.993816 L1508.22607,352.993816 C1505.22771,352.989178 1502.41719,351.821988 1500.31316,349.70636 L1477.33735,326.610686 C1476.13151,325.39789 1474.90867,324.851398 1473.97647,325.113436 C1473.04736,325.374701 1472.28598,326.478507 1471.8879,328.142719 L1467.2377,347.589186 C1466.42376,350.989496 1465.00691,352.767335 1463.02578,352.872459 C1461.04002,352.981449 1459.44615,351.361296 1458.27664,348.06611 L1427.64764,261.753573 C1426.179,257.615846 1427.53788,255.419829 1428.47936,254.47912 C1429.42007,253.537638 1431.61608,252.178751 1435.75457,253.648174 L1522.06612,284.277247 C1525.36207,285.446756 1526.97913,287.043719 1526.87246,289.022532 C1526.76424,291.001344 1524.98486,292.413566 1521.58147,293.220551 L1504.67581,297.229191 C1503.63693,297.474224 1502.59574,296.834201 1502.34916,295.795325 C1502.10336,294.756449 1502.7457,293.716027 1503.7838,293.468675 L1520.69023,289.460035 C1521.67964,289.225824 1522.2841,288.980791 1522.64276,288.792958 C1522.30652,288.56725 1521.7322,288.258834 1520.77294,287.918725 L1434.46216,257.289652 C1432.64877,256.646538 1431.57821,256.845192 1431.21182,257.211581 C1430.8462,257.577971 1430.64677,258.648539 1431.28989,260.461162 L1461.91889,346.772926 C1462.24894,347.701267 1462.56432,348.295683 1462.80085,348.650478 C1462.99873,348.272494 1463.24917,347.647932 1463.47797,346.690218 L1468.12894,327.243751 C1468.87331,324.13176 1470.57849,322.054007 1472.93141,321.392342 C1475.28279,320.731449 1477.82123,321.616504 1480.07753,323.885181 L1503.05334,346.980856 C1504.42846,348.363705 1506.26736,349.125857 1508.23148,349.128949 L1508.2423,349.128949 C1510.20333,349.128949 1512.04068,348.371435 1513.41734,346.993996 L1520.99633,339.41731 C1522.37531,338.03678 1523.13514,336.193238 1523.13514,334.224474 C1523.13514,332.255711 1522.37531,330.411396 1520.99633,329.031639 L1503.95385,311.989119 C1503.19866,311.23547 1503.19866,310.011853 1503.95385,309.256658 C1504.7075,308.501463 1505.93189,308.501463 1506.68631,309.256658 L1523.72878,326.299177 C1525.83822,328.408622 1527,331.223791 1527,334.224474 C1527,337.22593 1525.83822,340.040327 1523.72878,342.149771 L1516.1498,349.72723 C1514.04268,351.833583 1511.23524,352.993816 1508.2423,352.993816" id="Page-1"></path>
        </g>
    </g>
</svg>