<?xml version="1.0" encoding="UTF-8"?>
<svg width="98px" height="104px" viewBox="0 0 98 104" version="1.1" xmlns="http://www.w3.org/2000/svg" xmlns:xlink="http://www.w3.org/1999/xlink">
    <!-- Generator: Sketch 49.2 (51160) - http://www.bohemiancoding.com/sketch -->
    <title>Page 1 Copy 12</title>
    <desc>Created with Sketch.</desc>
    <defs>
        <polygon id="path-1" points="0.0555796375 0.0144682903 53.3409694 0.0144682903 53.3409694 35.8630576 0.0555796375 35.8630576"></polygon>
    </defs>
    <g id="HD-Desktop-1920---1440-px" stroke="none" stroke-width="1" fill="none" fill-rule="evenodd" opacity="0.05">
        <g id="HD-Desktop_EDU-Today" transform="translate(-1099.000000, -251.000000)">
            <g id="Page-1-Copy-12" transform="translate(1099.000000, 251.000000)">
                <path d="M73.229443,86.7119363 C72.2304075,86.7119363 71.4209067,85.9024355 71.4209067,84.9034 L71.4209067,60.1025802 C71.4209067,59.1035447 72.2304075,58.2940439 73.229443,58.2940439 C74.2284784,58.2940439 75.0379793,59.1035447 75.0379793,60.1025802 L75.0379793,84.9034 C75.0379793,85.9024355 74.2284784,86.7119363 73.229443,86.7119363" id="Fill-1" fill="#FFFFFF"></path>
                <path d="M60.8282373,74.313552 C59.8292018,74.313552 59.019701,73.5040511 59.019701,72.5050157 C59.019701,71.5059802 59.8292018,70.6964794 60.8282373,70.6964794 L85.630504,70.6950326 C86.6295394,70.6950326 87.4390403,71.5045334 87.4390403,72.5035688 C87.4390403,73.5026043 86.6295394,74.3121051 85.630504,74.3121051 L60.8282373,74.313552 Z" id="Fill-3" fill="#FFFFFF"></path>
                <path d="M31.9354232,103.433808 C31.6699301,103.433808 31.4044369,103.375211 31.158476,103.258741 L1.03115505,88.9228358 C0.30846395,88.5792139 -0.101712081,87.8015433 0.0219918013,87.0108512 C0.0899927659,86.5768025 1.73720762,76.2804437 6.70706535,66.1540873 C8.72756209,62.0385821 11.0323607,58.5133832 13.5585242,55.6739812 C14.2226188,54.9281408 15.3656137,54.8601399 16.1121775,55.5249578 C16.8580178,56.1890523 16.924572,57.3320473 16.2612009,58.0800579 C13.9527851,60.6734989 11.830287,63.926694 9.9537497,67.7477695 C6.22888835,75.3371112 4.4369906,83.2020738 3.83655655,86.2519894 L31.9491681,99.6286472 L57.1579937,88.0547384 C58.0666024,87.6409453 59.1387027,88.0373764 59.5568363,88.9445382 C59.9727996,89.8524234 59.5749216,90.9259706 58.6670364,91.3426573 L32.6899445,103.268869 C32.4504943,103.378828 32.1922354,103.433808 31.9354232,103.433808" id="Fill-5" fill="#FFFFFF"></path>
                <path d="M31.9354232,54.7340487 C20.4222812,54.7340487 11.9720762,38.6149265 11.4353026,27.9532433 C11.385387,26.9563781 12.1529298,26.106366 13.1505184,26.055727 C14.1452134,25.996407 14.9981191,26.7748011 15.0480347,27.7716663 C15.5102966,36.9546901 22.9701471,51.1169761 31.9354232,51.1169761 C39.0726308,51.1169761 45.4639981,42.0041235 47.8541596,33.4316614 C48.1225464,32.4702435 49.1179648,31.9081505 50.0815529,32.174367 C51.0436942,32.4434772 51.6065107,33.4403424 51.3381239,34.4024837 C48.5218712,44.5056909 40.9527851,54.7340487 31.9354232,54.7340487" id="Fill-7" fill="#FFFFFF"></path>
                <g id="Group-11" transform="translate(5.787316, 0.708946)">
                    <mask id="mask-2" fill="white">
                        <use xlink:href="#path-1"></use>
                    </mask>
                    <g id="Clip-10"></g>
                    <path d="M16.0626959,17.0694719 C16.7607909,17.0694719 17.4111406,17.4753075 17.7084639,18.1314444 C18.1663853,19.1398843 19.1719315,20.2973475 20.6165903,21.47796 C27.11864,26.7885459 40.5618519,31.3525681 48.7834579,32.1476007 C49.2761032,30.3405112 49.7238968,27.7861346 49.7238968,25.1246925 C49.7238968,13.2729925 39.3783458,3.63132385 26.6628888,3.63132385 C14.8357849,3.63132385 4.88160116,12.0836991 3.72196769,22.984109 C5.28671329,24.9156258 10.4099349,26.3841572 14.7533156,27.0808054 C14.6071859,26.115047 14.4632264,24.8917531 14.3662889,23.4253918 C14.2686279,21.9489028 14.2310104,20.4102001 14.2534362,18.8512419 C14.2664577,18.0055703 14.8647215,17.2799855 15.6930311,17.1078129 C15.816735,17.08177 15.9404389,17.0694719 16.0626959,17.0694719 M50.0827104,35.8630576 C50.0552206,35.8630576 50.0277309,35.8623342 49.9995177,35.8608874 C41.254883,35.462286 25.8519412,30.4244273 18.3284302,24.279021 C18.2300458,24.198722 18.1338317,24.1191464 18.0390644,24.0395708 C18.2958765,27.0547625 18.7472872,28.6882325 18.7523511,28.7055944 C18.9129491,29.2807089 18.7812877,29.9006752 18.3986014,30.3585966 C18.0137449,30.8157946 17.4285025,31.0595852 16.836026,30.9995418 C14.5500362,30.7752833 3.00795756,29.4007958 0.270557029,24.3014468 C0.107065348,23.9968893 0.0347238968,23.6532674 0.0607668194,23.3089221 C1.05401495,10.2462262 12.7393296,0.014251266 26.6628888,0.014251266 C41.373523,0.014251266 53.3409694,11.2785387 53.3409694,25.1246925 C53.3409694,28.9703641 52.5365324,32.5758621 51.7841813,34.66653 C51.5251989,35.3863275 50.8422956,35.8630576 50.0827104,35.8630576" id="Fill-9" fill="#FFFFFF" mask="url(#mask-2)"></path>
                </g>
                <path d="M72.7765855,97.0424403 C69.8322884,97.0431637 66.8836508,96.5056667 64.0493128,95.4277791 C53.0541355,91.2471666 46.5600434,79.8193875 48.6073065,68.254883 C48.780926,67.2717627 49.7163009,66.6127321 50.7030383,66.7892452 C51.6868821,66.9635881 52.343019,67.9018568 52.1693996,68.8849771 C50.4245238,78.7422233 55.960815,88.4829998 65.3348204,92.0465397 C70.5535327,94.0315891 76.2323366,93.8652038 81.3287919,91.5784905 C86.4230769,89.2910538 90.3222812,85.1567398 92.3073306,79.9365807 C96.4054738,69.1613214 90.9733542,57.0585966 80.198095,52.9590065 C72.1891729,49.9163251 62.9605739,52.1437184 57.2282373,58.502532 C56.5605257,59.2447552 55.4160839,59.3040752 54.674584,58.63347 C53.9323607,57.965035 53.8730408,56.8213166 54.5421992,56.0798167 C61.2656137,48.6206897 72.0915119,46.0084398 81.4836026,49.5784905 C94.1238245,54.3877502 100.494936,68.5833132 95.6885701,81.2228117 C93.3598987,87.3457921 88.7864721,92.1948396 82.8103448,94.8779841 C79.601278,96.3190258 76.1925488,97.0424403 72.7765855,97.0424403" id="Fill-12" fill="#FFFFFF"></path>
            </g>
        </g>
    </g>
</svg>