<?xml version="1.0" encoding="UTF-8"?>
<svg width="44px" height="34px" viewBox="0 0 44 34" version="1.1" xmlns="http://www.w3.org/2000/svg" xmlns:xlink="http://www.w3.org/1999/xlink">
    <!-- Generator: Sketch 49.2 (51160) - http://www.bohemiancoding.com/sketch -->
    <title>Group 21</title>
    <desc>Created with Sketch.</desc>
    <defs>
        <polygon id="path-1" points="1.60430331e-15 23.4862714 1.60430331e-15 0.0855 32.3032374 0.0855 32.3032374 23.4862714"></polygon>
        <polygon id="path-3" points="0 29.4859286 32.3032802 29.4859286 32.3032802 0.214285714 0 0.214285714"></polygon>
        <polygon id="path-5" points="27.1213203 22.6230258 25 24.7443461 30.5345678 30.278914 40.6921614 20.1213203 38.5708411 18 30.5345678 26.0362733"></polygon>
    </defs>
    <g id="HD-Desktop-1920---1440-px" stroke="none" stroke-width="1" fill="none" fill-rule="evenodd">
        <g id="HD-Desktop_EDU-Promo" transform="translate(-1520.000000, -219.000000)">
            <g id="Group-21" transform="translate(1520.000000, 219.000000)">
                <g id="Page-1">
                    <path d="M24.2973284,29.4859286 L8.34442576,29.4859286 C7.60552475,29.4859286 7.0043922,28.8837857 7.0043922,28.1436429 C7.0043922,27.4035 7.60552475,26.8015714 8.34442576,26.8015714 C8.35383851,26.8015714 8.36346518,26.8017857 8.37287794,26.8026429 C8.39983263,26.8035 11.1383016,26.9288571 12.4708477,25.6607143 C12.9457638,25.2087857 13.177018,24.6392143 13.177018,23.9198571 C13.177018,23.5909286 13.214883,23.2660714 13.2899711,22.9538571 C13.3588553,22.6662857 13.6478695,22.4890714 13.9351724,22.5582857 C14.2222613,22.6275 14.3989643,22.9167857 14.3298662,23.2045714 C14.2738175,23.4377143 14.2466489,23.6719286 14.2466489,23.9198571 C14.2466489,24.936 13.8960239,25.7839286 13.2048284,26.4400714 C11.5851934,27.9786429 8.62680831,27.8858571 8.335013,27.8732143 C8.19018498,27.8781429 8.07402307,27.9977143 8.07402307,28.1436429 C8.07402307,28.2932143 8.19510529,28.4145 8.34442576,28.4145 L24.2973284,28.4145 C24.4460071,28.4145 24.5673033,28.2932143 24.5673033,28.1436429 C24.5673033,27.9998571 24.455206,27.8822143 24.3140147,27.8734286 C23.945206,27.9045 20.9157974,28.0969286 19.2339098,26.5615714 C18.4995013,25.8912857 18.1272697,25.0024286 18.1272697,23.9198571 C18.1272697,23.6682857 18.1024543,23.43 18.0513259,23.1921429 C17.9888595,22.9028571 18.1724081,22.6178571 18.4612085,22.5555 C18.7500088,22.4918571 19.0345306,22.677 19.0965692,22.9660714 C19.1633142,23.2750714 19.1969006,23.5958571 19.1969006,23.9198571 C19.1969006,24.6992143 19.4446271,25.3041429 19.9541992,25.7693571 C21.3639727,27.0563571 24.2190315,26.8067143 24.2479115,26.8037143 C24.2643838,26.8026429 24.2808561,26.8015714 24.2973284,26.8015714 C25.0360155,26.8015714 25.6369341,27.4035 25.6369341,28.1436429 C25.6369341,28.8837857 25.0360155,29.4859286 24.2973284,29.4859286 Z" id="Fill-1" fill="#FEFEFE"></path>
                    <g id="Group-5" transform="translate(0.000000, 0.128786)">
                        <mask id="mask-2" fill="white">
                            <use xlink:href="#path-1"></use>
                        </mask>
                        <g id="Clip-4"></g>
                        <path d="M30.192,23.4862714 L18.2410143,23.4862714 C17.9455822,23.4862714 17.7061988,23.2462714 17.7061988,22.9505571 C17.7061988,22.6544143 17.9455822,22.4148429 18.2410143,22.4148429 L30.192,22.4148429 C30.7663918,22.4148429 31.2336065,21.9464143 31.2336065,21.3712714 L31.2336065,2.19977143 C31.2336065,1.62462857 30.7663918,1.15684286 30.192,1.15684286 L2.11119463,1.15684286 C1.53701678,1.15684286 1.06958809,1.62462857 1.06958809,2.19977143 L1.06958809,21.3712714 C1.06958809,21.9464143 1.53701678,22.4148429 2.11119463,22.4148429 L15.5254354,22.4148429 C15.8208674,22.4148429 16.0602508,22.6544143 16.0602508,22.9505571 C16.0602508,23.2462714 15.8208674,23.4862714 15.5254354,23.4862714 L2.11119463,23.4862714 C0.947222315,23.4862714 -4.27852349e-05,22.5372 -4.27852349e-05,21.3712714 L-4.27852349e-05,2.19977143 C-4.27852349e-05,1.03405714 0.947222315,0.0854142857 2.11119463,0.0854142857 L30.192,0.0854142857 C31.3559723,0.0854142857 32.3032374,1.03405714 32.3032374,2.19977143 L32.3032374,21.3712714 C32.3032374,22.5372 31.3559723,23.4862714 30.192,23.4862714" id="Fill-3" fill="#FEFEFE" mask="url(#mask-2)"></path>
                    </g>
                    <mask id="mask-4" fill="white">
                        <use xlink:href="#path-3"></use>
                    </mask>
                    <g id="Clip-7"></g>
                    <path d="M3.39736158,18.3777857 L28.9059186,18.3777857 L28.9059186,3.49885714 L3.39736158,3.49885714 L3.39736158,18.3777857 Z M29.4407341,19.4492143 L2.86254614,19.4492143 C2.56711409,19.4492143 2.3277307,19.2094286 2.3277307,18.9135 L2.3277307,2.96335714 C2.3277307,2.66721429 2.56711409,2.42764286 2.86254614,2.42764286 L29.4407341,2.42764286 C29.7361661,2.42764286 29.9755495,2.66721429 29.9755495,2.96335714 L29.9755495,18.9135 C29.9755495,19.2094286 29.7361661,19.4492143 29.4407341,19.4492143 Z" id="Fill-6" fill="#FEFEFE" mask="url(#mask-4)"></path>
                    <path d="M19.099607,21.6000643 L13.2035877,21.6000643 C12.9083695,21.6000643 12.6687722,21.3602786 12.6687722,21.06435 C12.6687722,20.7684214 12.9083695,20.5286357 13.2035877,20.5286357 L19.099607,20.5286357 C19.395039,20.5286357 19.6344224,20.7684214 19.6344224,21.06435 C19.6344224,21.3602786 19.395039,21.6000643 19.099607,21.6000643" id="Fill-8" fill="#FEFEFE" mask="url(#mask-4)"></path>
                </g>
                <g id="Path-3" fill-rule="nonzero">
                    <use fill="#7ED321" fill-rule="evenodd" xlink:href="#path-5"></use>
                    <path stroke="#2D2F45" stroke-width="2" d="M30.5345678,24.6220597 L38.5708411,16.5857864 L42.106375,20.1213203 L30.5345678,31.6931275 L23.5857864,24.7443461 L27.1213203,21.2088122 L30.5345678,24.6220597 Z"></path>
                </g>
            </g>
        </g>
    </g>
</svg>