<?xml version="1.0" encoding="UTF-8"?>
<svg width="28px" height="34px" viewBox="0 0 28 34" version="1.1" xmlns="http://www.w3.org/2000/svg" xmlns:xlink="http://www.w3.org/1999/xlink">
    <!-- Generator: Sketch 49.2 (51160) - http://www.bohemiancoding.com/sketch -->
    <title>Group 29</title>
    <desc>Created with Sketch.</desc>
    <defs>
        <polygon id="path-1" points="18.9509303 0.0598064516 0 0.0598064516 0 29.4192774 18.9509303 29.4192774"></polygon>
        <path d="M20.4852814,24.363961 L24.7279221,28.6066017 L22.6066017,30.7279221 L18.363961,26.4852814 L14.1213203,30.7279221 L12,28.6066017 L16.2426407,24.363961 L12,20.1213203 L14.1213203,18 L18.363961,22.2426407 L22.6066017,18 L24.7279221,20.1213203 L20.4852814,24.363961 Z" id="path-3"></path>
    </defs>
    <g id="HD-Desktop-1920---1440-px" stroke="none" stroke-width="1" fill="none" fill-rule="evenodd">
        <g id="HD-Desktop_EDU-Promo" transform="translate(-889.000000, -957.000000)">
            <g id="Group-29" transform="translate(889.000000, 957.000000)">
                <g id="Page-1">
                    <path d="M13.0595802,3.21992903 L5.89117628,3.21992903 C5.62452766,3.21992903 5.40811718,3.00334839 5.40811718,2.73605806 C5.40811718,2.46876774 5.62452766,2.2521871 5.89117628,2.2521871 L13.0595802,2.2521871 C13.326422,2.2521871 13.5426393,2.46876774 13.5426393,2.73605806 C13.5426393,3.00334839 13.326422,3.21992903 13.0595802,3.21992903" id="Fill-1" fill="#FEFEFE"></path>
                    <g id="Group-5" transform="translate(0.000000, 0.133742)">
                        <mask id="mask-2" fill="white">
                            <use xlink:href="#path-1"></use>
                        </mask>
                        <g id="Clip-4"></g>
                        <path d="M1.9750741,1.02747097 C1.41878323,1.02747097 0.96606024,1.48076129 0.96606024,2.0379871 L0.96606024,27.4412129 C0.96606024,27.9986323 1.41878323,28.4515355 1.9750741,28.4515355 L16.9757983,28.4515355 C17.5322824,28.4515355 17.9848121,27.9986323 17.9848121,27.4412129 L17.9848121,2.0379871 C17.9848121,1.48076129 17.5322824,1.02747097 16.9757983,1.02747097 L1.9750741,1.02747097 Z M16.9757983,29.4192774 L1.9750741,29.4192774 C0.886065653,29.4192774 -5.79670924e-05,28.5318581 -5.79670924e-05,27.4412129 L-5.79670924e-05,2.0379871 C-5.79670924e-05,0.947148387 0.886065653,0.0597290323 1.9750741,0.0597290323 L16.9757983,0.0597290323 C18.0649999,0.0597290323 18.9509303,0.947148387 18.9509303,2.0379871 L18.9509303,27.4412129 C18.9509303,28.5318581 18.0649999,29.4192774 16.9757983,29.4192774 Z" id="Fill-3" fill="#FEFEFE" mask="url(#mask-2)"></path>
                    </g>
                    <path d="M14.1611675,22.9335097 L3.10375135,22.9335097 C2.83710273,22.9335097 2.62069225,22.716929 2.62069225,22.4496387 L2.62069225,5.10402581 C2.62069225,4.83673548 2.83710273,4.62015484 3.10375135,4.62015484 L15.8470437,4.62015484 C16.1136924,4.62015484 16.3301028,4.83673548 16.3301028,5.10402581 L16.3301028,20.5708645 C16.3301028,20.8381548 16.1136924,21.0547355 15.8470437,21.0547355 C15.5802019,21.0547355 15.3639846,20.8381548 15.3639846,20.5708645 L15.3639846,5.58789677 L3.58681046,5.58789677 L3.58681046,21.9657677 L14.1611675,21.9657677 C14.4280093,21.9657677 14.6442266,22.1823484 14.6442266,22.4496387 C14.6442266,22.716929 14.4280093,22.9335097 14.1611675,22.9335097" id="Fill-6" fill="#FEFEFE"></path>
                    <path d="M12.2621462,25.8322065 C12.2621462,25.1019484 11.6710751,24.5094968 10.9416558,24.5094968 L8.55843543,24.5094968 C7.82940263,24.5094968 7.23833151,25.1019484 7.23833151,25.8322065 C7.23833151,26.5624645 7.82940263,27.154529 8.55843543,27.154529 L10.9416558,27.154529 C11.6710751,27.154529 12.2621462,26.5624645 12.2621462,25.8322065" id="Fill-8" fill="#FEFEFE"></path>
                </g>
                <g id="Combined-Shape" fill-rule="nonzero">
                    <use fill="#D0021B" fill-rule="evenodd" xlink:href="#path-3"></use>
                    <path stroke="#2D2F45" stroke-width="2" d="M21.8994949,24.363961 L26.1421356,28.6066017 L22.6066017,32.1421356 L18.363961,27.8994949 L14.1213203,32.1421356 L10.5857864,28.6066017 L14.8284271,24.363961 L10.5857864,20.1213203 L14.1213203,16.5857864 L18.363961,20.8284271 L22.6066017,16.5857864 L26.1421356,20.1213203 L21.8994949,24.363961 Z"></path>
                </g>
            </g>
        </g>
    </g>
</svg>