<?xml version="1.0" encoding="UTF-8"?>
<svg width="27px" height="20px" viewBox="0 0 27 20" version="1.1" xmlns="http://www.w3.org/2000/svg" xmlns:xlink="http://www.w3.org/1999/xlink">
    <!-- Generator: Sketch 49.3 (51167) - http://www.bohemiancoding.com/sketch -->
    <title>i01</title>
    <desc>Created with Sketch.</desc>
    <defs></defs>
    <g id="UiKit" stroke="none" stroke-width="1" fill="none" fill-rule="evenodd">
        <g id="i01">
            <path d="M4.81729285,3.11111111 C4.81729285,1.50860606 6.49559007,0.158949495 8.83170355,-2.22044605e-15 L12.8461143,-2.22044605e-15 L9.23314462,-2.22044605e-15 L26.4951107,-2.22044605e-15 C26.7337354,-2.22044605e-15 26.8153823,0.0016969697 26.8965517,-2.22044605e-15 C24.6816769,0.0938989899 23.1387383,1.47014141 23.2835821,3.11111111 L23.2835821,15.8884952 C23.2835821,18.1436682 21.3385297,19.4664896 19.2691714,19.5555556 C16.6837874,19.4714303 14.9299659,18.1718951 14.8533196,16.496124 L11.24035,16.496124 L4.81729285,16.496124 L4.81729285,3.11111111 Z" id="Combined-Shape" fill="#FFFFFF" transform="translate(15.856922, 9.777778) scale(-1, -1) rotate(180.000000) translate(-15.856922, -9.777778) "></path>
            <path d="M14.4518785,16.8888889 L10.4374678,16.8888889 L4.41585178,16.8888889 L0.401441071,16.8888889 C0.401441071,18.4913939 2.09147464,19.8410505 4.41585178,20 L4.41585178,20 L4.81729285,20 L18.0648482,20 C18.3023344,20 18.3845522,19.998303 18.4662892,20 C16.2359257,19.906101 14.464059,18.5298586 14.4518785,16.8888889" id="Fill-5" fill="#FFFFFF" transform="translate(9.433865, 18.444444) scale(-1, -1) rotate(180.000000) translate(-9.433865, -18.444444) "></path>
            <path d="M15.8837445,7.62216927 C15.8960632,7.55943271 15.9153563,7.49704811 15.9431637,7.4338716 C15.9966047,7.31279796 16.068433,7.20932223 16.1627247,7.11772509 C16.2573787,7.02586399 16.3696048,6.9532726 16.5059246,6.89607938 C16.6340019,6.84240575 16.7746695,6.81627284 16.9358077,6.81627284 C17.0968553,6.81627284 17.2376135,6.84240575 17.3661436,6.89625536 C17.5017388,6.9532726 17.6142367,7.02595198 17.7093435,7.11816504 C17.8031823,7.20949821 17.8750106,7.31288595 17.9282705,7.43369562 C17.9790847,7.54878597 18.0037219,7.66106066 18.0037219,7.77738286 C18.0037219,7.90162413 17.9800811,8.01425077 17.9313501,8.12177402 C17.8776374,8.2408239 17.8049939,8.3436837 17.7089812,8.43686465 C17.6141461,8.52907771 17.50192,8.60158111 17.3658719,8.65868634 C17.2377946,8.71244796 17.0972176,8.73858087 16.9358077,8.73858087 C16.7743071,8.73858087 16.6338207,8.71253595 16.5063775,8.65895031 C16.3695142,8.60158111 16.2574693,8.5291657 16.163087,8.4373046 C16.0666215,8.34377169 15.9940685,8.24099988 15.9404464,8.12230195 C15.9135447,8.062909 15.8950668,8.00193223 15.8831105,7.93857974 C15.8843786,7.88490611 15.8869148,7.83158443 15.8869148,7.77738286 C15.8869148,7.72502907 15.8851032,7.67373115 15.8837445,7.62216927 L15.8837445,7.62216927 Z M12.3581782,7.93866773 C12.3463125,8.00184424 12.3278346,8.06273302 12.3011141,8.12177402 C12.2473108,8.2408239 12.1746673,8.3436837 12.0786546,8.43686465 C11.9838195,8.52907771 11.8715934,8.60158111 11.7355453,8.65868634 C11.607468,8.71244796 11.466891,8.73858087 11.3054811,8.73858087 C11.1439805,8.73858087 11.0034941,8.71253595 10.8760509,8.65895031 C10.7391876,8.60158111 10.6271426,8.5291657 10.5327604,8.4373046 C10.4362949,8.34377169 10.3637419,8.24099988 10.3101198,8.12230195 C10.2612982,8.01425077 10.2375668,7.90153614 10.2375668,7.77738286 C10.2375668,7.66114865 10.262204,7.54878597 10.3129277,7.4338716 C10.3663687,7.31279796 10.438197,7.20932223 10.5324887,7.11772509 C10.6270521,7.02586399 10.7393688,6.9532726 10.8756886,6.89607938 C11.0036753,6.84240575 11.1443429,6.81627284 11.3054811,6.81627284 C11.4665287,6.81627284 11.6072869,6.84240575 11.735817,6.89625536 C11.8714122,6.9532726 11.9839101,7.02595198 12.0790169,7.11816504 C12.1728557,7.20949821 12.2447746,7.31288595 12.2980345,7.43369562 C12.3262042,7.49757604 12.3454973,7.56066456 12.3578159,7.62401705 C12.3562761,7.675051 12.354374,7.72590896 12.354374,7.77738286 C12.354374,7.83158443 12.3565478,7.8849941 12.3581782,7.93866773 L12.3581782,7.93866773 Z M20.7020397,7.77738286 C20.7020397,8.53954847 20.5632742,9.24346499 20.2861962,9.88869247 C20.008937,10.5341839 19.624343,11.1789714 19.1327763,11.8702175 L17.720394,13.8287772 L15.3508744,13.8287772 L17.3908714,11.1079639 C17.0840838,11.1625174 16.7903394,11.2014088 16.5098195,11.2014088 C16.2163469,11.2014088 15.9372761,11.1773876 15.6726073,11.1177307 C15.4539521,11.0683686 15.2491553,11.0041362 15.0565865,10.92125 C15.0564054,10.921162 15.0562242,10.9218659 15.0560431,10.9217779 C15.0558619,10.9221299 15.0556807,10.9229218 15.055409,10.9232738 C14.9297774,10.8690722 14.809671,10.8080074 14.6951804,10.7396395 C14.5776102,10.6694239 14.4656559,10.592345 14.3598608,10.5070831 C14.3528863,10.5015398 14.3455495,10.4965244 14.3386655,10.4908051 C13.9672053,10.1859212 13.6796202,9.79982301 13.4755481,9.33224646 C13.2966566,8.92247906 13.1962962,8.47346831 13.1742857,7.98521421 C13.1712061,7.91675833 13.1695757,7.84751054 13.1695757,7.77738286 C13.1695757,7.71024682 13.1714778,7.64407867 13.1745575,7.57843845 C13.1549021,7.42384079 13.1134173,7.27153085 13.047386,7.12194859 C12.9987456,7.01178566 12.9399605,6.90866189 12.8718459,6.81213734 C12.8079884,6.72150808 12.7359789,6.63659815 12.6550928,6.55784749 C12.6204015,6.52423548 12.5836268,6.49291119 12.5463087,6.46220284 C12.4031955,6.34412084 12.2412421,6.2458365 12.058818,6.16919759 C11.8285688,6.07267303 11.5774867,6.02436676 11.3054811,6.02436676 C11.0333848,6.02436676 10.7823027,6.07267303 10.5522347,6.16919759 C10.3219855,6.26581013 10.1231668,6.39541876 9.95595989,6.55784749 C9.78848123,6.7205402 9.65777722,6.90848591 9.56366671,7.12194859 C9.46946562,7.33532329 9.42236507,7.55397736 9.42236507,7.77738286 C9.42236507,8.01134711 9.46946562,8.2323769 9.56366671,8.44047222 C9.65777722,8.6489195 9.78848123,8.83448949 9.95595989,8.99691823 C10.1231668,9.15961093 10.3219855,9.28913157 10.5522347,9.38565612 C10.7823027,9.48235666 11.0333848,9.53048695 11.3054811,9.53048695 C11.5774867,9.53048695 11.8285688,9.48235666 12.058818,9.38565612 C12.235898,9.31139293 12.3940471,9.21698013 12.5340806,9.10347359 C12.5867064,9.28825168 12.6493864,9.46819034 12.725019,9.64144179 C12.9784562,10.2221729 13.3443006,10.7114829 13.8125887,11.0958213 C13.8592363,11.1340968 13.9075144,11.1704365 13.9560642,11.2064242 C13.9564265,11.2066882 13.9568794,11.2070401 13.9572417,11.2073041 C13.8172082,11.4325574 13.6663053,11.6397728 13.5024497,11.8702175 L12.090158,13.8287772 L9.72054775,13.8287772 L11.7606354,11.0959973 C11.4537572,11.1506388 11.1600128,11.1890902 10.8794929,11.1890902 L10.8786777,11.1890902 C11.1590165,11.1890902 11.4533043,11.1627814 11.7598202,11.1082278 C11.4530326,11.1628694 11.1596505,11.2015848 10.8791306,11.2015848 C10.5856579,11.2015848 10.3068589,11.1774756 10.0420995,11.1178187 C9.52426529,11.0008806 9.07952746,10.7928732 8.70824836,10.4879894 C8.33678811,10.1831055 8.01840654,9.79841517 7.81442495,9.33083863 C7.61044337,8.86361404 7.47765606,8.34641138 7.47765606,7.77720688 L7.47765606,7.7770309 C7.47765606,7.27927393 7.59477338,6.82208016 7.76741499,6.40527359 C7.93996602,5.988643 8.20381965,5.62788578 8.52817936,5.32300194 C8.85235791,5.0181181 9.25506756,4.7794904 9.72063833,4.60659091 C10.1861185,4.43386739 10.7156373,4.34746164 11.3016768,4.34746164 C12.1800114,4.34746164 12.9170443,4.51481779 13.5095148,4.8486502 C13.5411265,4.81688597 13.5423946,4.81688597 13.5108735,4.8486502 C13.6314328,4.91657814 13.7461045,4.99180922 13.854798,5.07355153 C13.9308835,5.13074474 14.0048857,5.19057765 14.0751742,5.25445807 C14.1044309,5.2812069 14.1323289,5.30883562 14.1603175,5.33646435 C14.7265204,5.89431819 15.0295037,6.63967779 15.0674559,7.57315908 C15.0586698,7.64082306 15.0526917,7.70883899 15.0526917,7.77738286 C15.0526917,7.84795049 15.0583981,7.91693431 15.0669124,7.98512622 C15.086749,8.14306749 15.1281431,8.29511346 15.1939027,8.44047222 C15.2487024,8.56172184 15.3173605,8.67426049 15.3967974,8.77993596 C15.4540427,8.85595894 15.5161791,8.92899028 15.5861959,8.99691823 C15.6358326,9.04513651 15.6890925,9.08957124 15.7442545,9.13198221 C15.8750491,9.23255428 16.0206079,9.31781617 16.1825613,9.38565612 C16.4125387,9.48235666 16.6636209,9.53048695 16.9358077,9.53048695 C17.2077227,9.53048695 17.4588049,9.48235666 17.6890541,9.38565612 C17.9190315,9.28913157 18.1179408,9.15961093 18.2853288,8.99691823 C18.4526263,8.83448949 18.5835115,8.6489195 18.677622,8.44047222 C18.7718231,8.2323769 18.8189237,8.01134711 18.8189237,7.77738286 C18.8189237,7.55397736 18.7718231,7.33532329 18.677622,7.12194859 C18.5835115,6.90848591 18.4526263,6.7205402 18.2853288,6.55784749 C18.1179408,6.39541876 17.9190315,6.26581013 17.6890541,6.16919759 C17.4588049,6.07267303 17.2077227,6.02436676 16.9358077,6.02436676 C16.6636209,6.02436676 16.4125387,6.07267303 16.1825613,6.16919759 C16.008561,6.24222892 15.8526763,6.33417802 15.7146355,6.4447809 C15.5438054,5.83474925 15.245351,5.3064599 14.8226236,4.8637844 C14.9896494,4.77069144 15.1678163,4.6825259 15.3586641,4.6116943 C15.8240537,4.43905877 16.3497682,4.3494854 16.9358077,4.3494854 C18.1115097,4.3494854 19.0497163,4.64697812 19.7135623,5.2449552 C19.7171854,5.24821081 19.7019683,5.25120246 19.7055914,5.25445807 C20.3695279,5.85894638 20.7020397,6.69951069 20.7020397,7.77597503 L20.7020397,7.77738286 Z M20.2630988,4.67671859 C19.4452703,3.93267883 18.3259078,3.55555556 16.9358077,3.55555556 C16.2530309,3.55555556 15.6245104,3.66026314 15.0678182,3.86677465 C14.7420092,3.98784829 14.4421962,4.1386624 14.1691036,4.31596137 C13.4091544,3.81125323 12.4491185,3.55555556 11.3056622,3.55555556 C10.6228855,3.55555556 9.99436495,3.66026314 9.43758217,3.86677465 C8.87002061,4.07759764 8.37854455,4.37614624 7.9766501,4.75414941 C7.57140426,5.13496824 7.25691755,5.59110615 7.04197603,6.10971664 C6.83101994,6.61908823 6.72413793,7.18010969 6.72413793,7.77738286 C6.72413793,8.45085499 6.84877322,9.07795662 7.09478298,9.64144179 C7.34812956,10.2221729 7.71406456,10.7114829 8.18226209,11.0958213 C8.65109366,11.4807756 9.21485094,11.7496718 9.8576828,11.8948545 C9.95233677,11.916148 10.0487117,11.9344498 10.1465359,11.9495841 L9.05969088,13.3883014 L8.12619433,14.6206833 L9.72054775,14.6206833 L12.090158,14.6206833 L12.5172331,14.6206833 L12.760435,14.302689 L14.1727267,12.3325146 C14.3457306,12.0892235 14.5058725,11.8531475 14.6550544,11.613024 C14.6555073,11.6132879 14.6558696,11.6150477 14.6563225,11.6152237 C14.6572283,11.6138159 14.658134,11.613112 14.6590398,11.6117041 C14.9180928,11.7289062 15.1943556,11.8254308 15.4880094,11.8917749 C15.5826634,11.9130684 15.6790383,11.932866 15.776772,11.9480882 L14.6900175,13.3875095 L13.7565209,14.6206833 L15.3508744,14.6206833 L17.720394,14.6206833 L18.1475597,14.6206833 L18.390671,14.302689 L19.8029627,12.3325146 C20.325507,11.5978898 20.7410788,10.8803349 21.0385368,10.187945 C21.3561937,9.44804073 21.5172414,8.63800879 21.5172414,7.7744792 C21.5172414,6.47478534 21.0952386,5.43439673 20.2630988,4.67671859 L20.2630988,4.67671859 Z" id="Fill-1-Copy-4" fill="#2D2F45"></path>
        </g>
    </g>
</svg>