<?xml version="1.0" encoding="UTF-8"?>
<svg width="16px" height="20px" viewBox="0 0 16 20" version="1.1" xmlns="http://www.w3.org/2000/svg" xmlns:xlink="http://www.w3.org/1999/xlink">
    <!-- Generator: Sketch 49.3 (51167) - http://www.bohemiancoding.com/sketch -->
    <title>i02</title>
    <desc>Created with Sketch.</desc>
    <defs></defs>
    <g id="UiKit" stroke="none" stroke-width="1" fill="none" fill-rule="evenodd">
        <g id="i02" fill="#FFFFFF">
            <path d="M9.83199739,7.03806185 L10.4290974,7.03806185 C10.6920495,7.03806185 10.8619746,7.20275633 10.8619746,7.45748808 C10.8619746,7.71910879 10.6962854,7.88172057 10.4290974,7.88172057 L9.83199739,7.88172057 L9.83199739,7.03806185 Z M9.83199739,5.73780849 L10.3587162,5.73780849 C10.5952753,5.73780849 10.7309873,5.86725708 10.7309873,6.09299106 C10.7309873,6.31712295 10.5885956,6.46211177 10.3681655,6.46211177 L9.83199739,6.46211177 L9.83199739,5.73780849 Z M9.17689801,8.48971237 L10.3821766,8.48971237 C10.7168133,8.48971237 11.0055067,8.40720492 11.2171391,8.25132191 C11.4553275,8.07589344 11.5811013,7.81411252 11.5811013,7.49433607 C11.5811013,7.13578912 11.3939068,6.83860209 11.0965787,6.71219747 C11.3163571,6.56096051 11.4450635,6.30847168 11.4450635,6.0196155 C11.4450635,5.78202608 11.3634409,5.58128465 11.2161616,5.43116915 C11.0286413,5.23955961 10.7347344,5.1299769 10.3681655,5.1299769 L9.17689801,5.1299769 C9.14936461,5.1299769 9.12688172,5.15192548 9.12688172,5.17900075 L9.12688172,5.69951863 L9.12688172,8.44068852 C9.12688172,8.46776379 9.14936461,8.48971237 9.17689801,8.48971237 Z" id="Fill-1"></path>
            <path d="M8.60215054,7.88175261 L7.18898664,7.88175261 L7.18898664,7.10217735 L8.25969371,7.10217735 C8.28739003,7.10217735 8.30971,7.08038897 8.30971,7.05331371 L8.30971,6.5433696 C8.30971,6.51629434 8.28739003,6.49434575 8.25969371,6.49434575 L7.18898664,6.49434575 L7.18898664,5.73784054 L8.52704464,5.73784054 C8.55474096,5.73784054 8.57706093,5.71589195 8.57706093,5.68881669 L8.57706093,5.17887258 C8.57706093,5.16653651 8.57217335,5.1551617 8.56435321,5.14667064 C8.55522972,5.13641729 8.54203324,5.13000894 8.52704464,5.13000894 L6.53405018,5.13000894 C6.50651678,5.13000894 6.48403389,5.15179732 6.48403389,5.17887258 L6.48403389,8.44072057 C6.48403389,8.46779583 6.50651678,8.48974441 6.53405018,8.48974441 L8.60215054,8.48974441 C8.62968394,8.48974441 8.65216683,8.46779583 8.65216683,8.44072057 L8.65216683,7.93077645 C8.65216683,7.90370119 8.62968394,7.88175261 8.60215054,7.88175261" id="Fill-3"></path>
            <g id="Group-7" transform="translate(0.000000, 0.095965)">
                <path d="M4.97575758,4.20706297 L8.95311176,2.81773361 L12.9008146,4.20706297 L12.9008146,6.99084836 L12.9008146,9.33293852 L8.95311176,10.6109229 L4.97575758,9.33293852 L4.97575758,4.20706297 Z M2.33450635,15.4814259 L4.24115347,15.4814259 L4.23382209,16.465908 L2.33450635,16.465908 C2.01567286,16.465908 1.75744542,16.2454609 1.75744542,15.9735868 C1.75744542,15.701873 2.01567286,15.4814259 2.33450635,15.4814259 Z M15.031639,13.6105093 L15.031639,0.0642276453 L2.2163897,0.108445231 C0.986836103,0.112770864 -0.00387748452,1.09629173 3.25839036e-05,2.3042649 L0.0700879765,15.5125063 C0.0744868035,16.7203193 1.07285761,17.6961501 2.30241121,17.6921449 L4.22486152,17.6854162 L4.21459759,19.0627299 C4.21280547,19.1832068 4.28725969,19.2919885 4.40407299,19.33925 C4.4417074,19.3549504 4.4817856,19.3619996 4.52251548,19.3629609 C4.60218312,19.3636017 4.68233952,19.3330019 4.74196807,19.276288 L6.07839687,18.0053528 L7.39771913,19.2956732 C7.45718475,19.3535086 7.53554904,19.384589 7.61586836,19.3852299 C7.65513196,19.3853901 7.69602476,19.3780205 7.73463669,19.3632813 C7.8516129,19.3173014 7.9259042,19.2099616 7.928348,19.0886837 L7.91612903,17.6727597 L15.031639,17.6480876 L15.031639,16.465908 L7.90570218,16.465908 L7.89723037,15.4814259 L15.031639,15.4814259 L15.031639,14.1167686 L2.62987944,14.1167686 C1.428348,14.1167686 0.730074943,14.9186129 0.730074943,14.9186129 L0.669794721,2.79770753 C0.669794721,1.22878428 1.41384816,0.725568927 2.28611926,0.725568927 L2.28611926,13.6105093 L15.031639,13.6105093 Z" id="Fill-5"></path>
            </g>
        </g>
    </g>
</svg>