<?xml version="1.0" encoding="UTF-8"?>
<svg width="20px" height="21px" viewBox="0 0 20 21" version="1.1" xmlns="http://www.w3.org/2000/svg" xmlns:xlink="http://www.w3.org/1999/xlink">
    <!-- Generator: Sketch 49.2 (51160) - http://www.bohemiancoding.com/sketch -->
    <title>Page 1 Copy 10</title>
    <desc>Created with Sketch.</desc>
    <defs>
        <polygon id="path-1" points="9.9413037 0.117185185 0 0.117185185 0 20 9.9413037 20 19.8826074 20 19.8826074 0.117185185 9.9413037 0.117185185"></polygon>
    </defs>
    <g id="UiKit" stroke="none" stroke-width="1" fill="none" fill-rule="evenodd">
        <g id="EDU-BTN_02" transform="translate(-294.000000, -217.000000)">
            <g id="Page-1-Copy-10" transform="translate(294.000000, 217.000000)">
                <g id="Group-3" transform="translate(0.000000, 0.030963)">
                    <mask id="mask-2" fill="white">
                        <use xlink:href="#path-1"></use>
                    </mask>
                    <g id="Clip-2"></g>
                    <path d="M9.94127407,0.857925926 C4.86808889,0.857925926 0.740681481,4.98533333 0.740681481,10.0585185 C0.740681481,15.1318519 4.86808889,19.2592593 9.94127407,19.2592593 C15.0144593,19.2592593 19.1418667,15.1318519 19.1418667,10.0585185 C19.1418667,4.98533333 15.0144593,0.857925926 9.94127407,0.857925926 M9.94127407,20 C4.45964444,20 -5.92592593e-05,15.5402963 -5.92592593e-05,10.0585185 C-5.92592593e-05,4.57688889 4.45964444,0.117185185 9.94127407,0.117185185 C15.4230519,0.117185185 19.8826074,4.57688889 19.8826074,10.0585185 C19.8826074,15.5402963 15.4230519,20 9.94127407,20" id="Fill-1" fill="#FFFFFF" mask="url(#mask-2)"></path>
                </g>
                <path d="M9.94127407,0.888888889 C6.76838519,0.888888889 4.18705185,5.0162963 4.18705185,10.0894815 C4.18705185,15.1628148 6.76838519,19.2902222 9.94127407,19.2902222 C13.114163,19.2902222 15.6956444,15.1628148 15.6956444,10.0894815 C15.6956444,5.0162963 13.114163,0.888888889 9.94127407,0.888888889 M9.94127407,20.030963 C6.35994074,20.030963 3.44631111,15.5712593 3.44631111,10.0894815 C3.44631111,4.60785185 6.35994074,0.148148148 9.94127407,0.148148148 C13.5227556,0.148148148 16.4363852,4.60785185 16.4363852,10.0894815 C16.4363852,15.5712593 13.5227556,20.030963 9.94127407,20.030963" id="Fill-4" fill="#FFFFFF"></path>
                <path d="M9.94127407,20.030963 C9.73668148,20.030963 9.5709037,19.8651852 9.5709037,19.6605926 L9.5709037,0.518518519 C9.5709037,0.313925926 9.73668148,0.148148148 9.94127407,0.148148148 C10.1458667,0.148148148 10.3116444,0.313925926 10.3116444,0.518518519 L10.3116444,19.6605926 C10.3116444,19.8651852 10.1458667,20.030963 9.94127407,20.030963" id="Fill-6" fill="#FFFFFF"></path>
                <path d="M9.94142222,6.1289037 C5.58660741,6.1289037 2.09771852,5.00742222 1.9512,4.95957037 C1.75682963,4.89631111 1.65060741,4.68727407 1.71401481,4.49275556 C1.77742222,4.29838519 1.98705185,4.19231111 2.18082963,4.25542222 C2.21579259,4.26668148 5.70986667,5.38816296 9.94142222,5.38816296 C14.1793481,5.38816296 17.6670519,4.26668148 17.7018667,4.25542222 C17.8968296,4.19171852 18.1052741,4.29838519 18.1688296,4.49260741 C18.232237,4.68712593 18.1260148,4.89616296 17.9316444,4.95957037 C17.7851259,5.00742222 14.296237,6.1289037 9.94142222,6.1289037" id="Fill-8" fill="#FFFFFF"></path>
                <path d="M17.8164148,15.8731259 C17.7602667,15.8731259 17.7032296,15.860237 17.6497481,15.8331259 C17.6355259,15.8264593 15.8882667,15.0132741 9.9413037,15.0132741 C3.99419259,15.0132741 2.24722963,15.8264593 2.23034074,15.8346074 C2.04708148,15.9227556 1.8256,15.8483852 1.73552593,15.6663111 C1.64545185,15.4839407 1.7176,15.2637926 1.89922963,15.1720889 C1.97182222,15.1353481 3.75108148,14.2725333 9.9413037,14.2725333 C16.1315259,14.2725333 17.9109333,15.1353481 17.9836741,15.1720889 C18.1661926,15.264237 18.2393778,15.4870519 18.1472296,15.6695704 C18.0821926,15.7986074 17.9516741,15.8731259 17.8164148,15.8731259" id="Fill-10" fill="#FFFFFF"></path>
                <g id="Group-14" transform="translate(0.000000, 0.030963)">
                    <polygon id="Clip-13" points="19.8826667 10.1617481 19.8826667 20 0 20 0 0.117185185 19.8826667 0.117185185 19.8826667 10.1617481 19.8826815 9.42100741 1.48148148e-05 9.42100741 1.48148148e-05 10.1617481 19.8826667 10.1617481"></polygon>
                    <path d="M19.5123111,10.1617481 L0.370385185,10.1617481 C0.165792593,10.1617481 1.48148148e-05,9.99597037 1.48148148e-05,9.79137778 C1.48148148e-05,9.58678519 0.165792593,9.42100741 0.370385185,9.42100741 L19.5123111,9.42100741 C19.7169037,9.42100741 19.8826815,9.58678519 19.8826815,9.79137778 C19.8826815,9.99597037 19.7169037,10.1617481 19.5123111,10.1617481" id="Fill-12" fill="#FFFFFF"></path>
                </g>
            </g>
        </g>
    </g>
</svg>