<?xml version="1.0" encoding="UTF-8"?>
<svg width="20px" height="20px" viewBox="0 0 20 20" version="1.1" xmlns="http://www.w3.org/2000/svg" xmlns:xlink="http://www.w3.org/1999/xlink">
    <!-- Generator: Sketch 49.3 (51167) - http://www.bohemiancoding.com/sketch -->
    <title>i03</title>
    <desc>Created with Sketch.</desc>
    <defs>
        <polygon id="path-1" points="0 0.0650908226 0 17.8313191 15.2233781 17.8313191 15.2233781 0.0650908226"></polygon>
    </defs>
    <g id="UiKit" stroke="none" stroke-width="1" fill="none" fill-rule="evenodd">
        <g id="i03">
            <g id="Group-3" transform="translate(0.000000, 1.343727)">
                <mask id="mask-2" fill="white">
                    <use xlink:href="#path-1"></use>
                </mask>
                <g id="Clip-2"></g>
                <path d="M15.2233781,16.872736 C14.9409404,17.299256 14.2684263,17.2693202 14.1019573,17.8313321 L12.4428637,17.8313321 C11.7902634,17.1404661 11.7544706,15.932622 10.5527439,15.6913135 C8.77494833,15.3342967 8.72262577,16.9542135 8.01874421,17.8313321 L6.63610112,17.8313321 C6.13500201,17.5215618 5.64431534,17.193049 5.13059113,16.9055353 C2.96310969,15.6922246 2.96050658,15.6966499 3.95372407,13.4707286 C4.39625316,12.4789428 3.7480782,11.3472398 2.66088836,11.4241617 C1.55118159,11.5026456 0.720788775,11.1361274 -1.30155614e-05,10.3656061 L-1.30155614e-05,6.77096837 C0.54585963,5.80911838 1.40683902,5.62859255 2.4417063,5.65592522 C3.68365117,5.68859428 4.36722846,4.52487294 3.81328616,3.45980955 C2.714122,1.34634269 2.78401557,1.13848417 4.95318903,0.0650908226 C5.86518942,1.18664175 6.48746341,2.48780742 7.22154107,3.71960015 C5.84774857,4.80275517 4.81314159,6.09103544 4.71982002,7.93195645 C4.49972687,12.2744684 8.55316316,14.8527209 12.890599,13.1328446 C13.6681486,14.3794751 14.4456983,15.6261056 15.2233781,16.872736" id="Fill-1" fill="#FFFFFF" mask="url(#mask-2)"></path>
            </g>
            <g id="Group-6" transform="translate(4.945913, 0.042170)" fill="#FFFFFF">
                <path d="M2.27531537,5.02145565 C1.54149802,3.78940261 0.919224024,2.48823694 0.00722363658,1.36655585 C0.2219804,1.19696309 0.419947089,0.999386867 0.65344626,0.86220285 C2.51688419,-0.231885242 2.52104917,-0.227980574 3.69895747,1.64092389 C4.50839524,2.92503918 5.5925915,2.88599249 6.3981246,1.59354725 C7.51082494,-0.19218778 7.56614108,-0.268198658 9.231352,0.731526613 C9.50728191,0.89721471 9.7899799,1.05209989 10.0665606,1.2168769 C12.2016333,2.48875756 12.201373,2.48914803 11.2300216,4.76088411 C10.8659764,5.61223198 11.5729817,6.70033292 12.5452441,6.78545469 C14.9926903,6.99969083 14.9926903,6.99969083 14.9928204,9.44544497 C14.9928204,9.85973029 14.9584593,10.2773997 14.9990679,10.6877803 C15.1300044,12.0114629 14.4935435,12.5035813 13.2262183,12.5185492 C11.453629,12.5393741 10.8702715,13.6067803 11.7164131,15.1609685 C12.5865034,16.7591492 12.3488393,17.2568643 10.2774127,18.1743312 C9.49986304,16.9277008 8.72218324,15.6809401 7.94502407,14.4343097 C8.83854236,13.7241806 9.90894213,13.1889807 10.455856,12.1274316 C10.6779015,11.6963562 11.5489029,11.2307895 10.6361215,10.6765869 C9.99458453,10.2870312 9.36788524,9.47954574 8.55233017,10.5682975 C8.03873611,11.2536969 7.38327244,11.8762312 6.47023081,12.0728964 C6.23438884,11.489669 5.94908773,10.9363775 5.50746973,10.4771885 C6.71219009,9.72749219 7.88502233,8.9187052 9.13230358,8.24840379 C9.99549561,7.78452918 9.92117676,7.39432265 9.40953504,6.69551716 C7.57408057,4.18832957 5.62421932,3.70636333 2.27531537,5.02145565" id="Fill-4"></path>
            </g>
            <path d="M11.4161962,12.1151058 C11.2490764,12.1870819 11.0867723,12.2750671 10.9137955,12.3284309 C10.0999325,12.5796312 9.11296246,12.5198898 8.81529657,11.8137956 C8.52700188,11.129958 9.65506059,11.0979397 10.0770251,10.6819624 C10.1676134,10.5925454 10.3260128,10.5719809 10.453305,10.5195281 C10.894923,10.978587 11.1803542,11.5318785 11.4161962,12.1151058" id="Fill-7" fill="#FFFFFF"></path>
            <path d="M9.41353082,8.53785686 C9.31057773,8.62362941 9.22090051,8.74818833 9.10232874,8.78827626 C8.56309404,8.97088459 7.96424805,9.86674568 7.55347694,9.30798763 C7.05406985,8.62896579 7.68896893,7.8908533 8.33206782,7.40029679 C8.43098609,7.32493669 8.58222691,7.31829876 8.70925879,7.2797727 C8.83342725,7.76108816 9.06952953,8.17966861 9.41353082,8.53785686" id="Fill-9" fill="#FFFFFF"></path>
            <path d="M9.41353082,8.53785686 C9.06952953,8.17966861 8.83342725,7.76108816 8.70925879,7.2797727 C8.8370716,7.16146124 8.94627216,7.00501419 9.09621143,6.93095565 C9.81050544,6.57771331 10.5892265,6.73025569 10.8910573,7.35890731 C11.2213923,8.04704004 10.2497806,8.01007585 9.91684258,8.35993414 C9.80738171,8.47486154 9.58442514,8.48162964 9.41353082,8.53785686" id="Fill-11" fill="#FFFFFF"></path>
        </g>
    </g>
</svg>