<?xml version="1.0" encoding="UTF-8"?>
<svg width="184px" height="29px" viewBox="0 0 184 29" version="1.1" xmlns="http://www.w3.org/2000/svg" xmlns:xlink="http://www.w3.org/1999/xlink">
    <!-- Generator: Sketch 49.1 (51147) - http://www.bohemiancoding.com/sketch -->
    <title>Group 7</title>
    <desc>Created with Sketch.</desc>
    <defs></defs>
    <g id="HD-Desktop-1920---1440-px" stroke="none" stroke-width="1" fill="none" fill-rule="evenodd">
        <g id="HD-Desktop_EDU-Plans" transform="translate(-715.000000, -1005.000000)">
            <g id="Group-7" transform="translate(715.000000, 1005.000000)">
                <polygon id="Fill-1" fill="#FCB528" points="0 28.36055 52.938 28.36055 52.938 0.50105 0 0.50105"></polygon>
                <polygon id="Fill-2" fill="#2D2F45" points="15.27045 15.55175 9.59145 15.55175 9.59145 19.21775 15.93495 19.21775 15.93495 22.08125 6.08445 22.08125 6.08445 6.64325 15.61395 6.64325 15.61395 9.50675 9.59145 9.50675 9.59145 12.71075 15.27045 12.71075"></polygon>
                <path d="M21.81825,19.4468 C22.11675,19.5173 22.59975,19.5173 23.03175,19.5173 C26.19225,19.5368 28.25475,17.7968 28.25475,14.1098 C28.27875,10.9043 26.40075,9.2078 23.40225,9.2078 C22.62075,9.2078 22.11675,9.2783 21.81825,9.3488 L21.81825,19.4468 Z M18.31725,6.8483 C19.59975,6.6428 21.26925,6.5303 23.03175,6.5303 C25.96725,6.5303 27.86625,7.0568 29.35275,8.1788 C30.95775,9.3668 31.96725,11.2703 31.96725,13.9943 C31.96725,16.9493 30.89025,18.9893 29.40075,20.2478 C27.77625,21.6008 25.30125,22.2398 22.27875,22.2398 C20.46825,22.2398 19.18425,22.1228 18.31725,22.0118 L18.31725,6.8483 Z" id="Fill-3" fill="#2D2F45"></path>
                <path d="M37.7367,6.6425 L37.7367,15.53 C37.7367,18.185 38.7447,19.5365 40.5297,19.5365 C42.3627,19.5365 43.3722,18.2555 43.3722,15.53 L43.3722,6.6425 L46.8552,6.6425 L46.8552,15.299 C46.8552,20.063 44.4477,22.331 40.4157,22.331 C36.5217,22.331 34.2312,20.177 34.2312,15.254 L34.2312,6.6425 L37.7367,6.6425 Z" id="Fill-5" fill="#2D2F45"></path>
                <path d="M75.50475,15.62495 L74.51175,12.24245 C74.22525,11.29445 73.94325,10.11245 73.70475,9.16445 L73.65825,9.16445 C73.41975,10.11245 73.18575,11.31995 72.92175,12.24245 L71.97675,15.62495 L75.50475,15.62495 Z M71.45775,18.32195 L70.32075,22.41845 L66.57975,22.41845 L71.45775,6.46745 L76.19175,6.46745 L81.13575,22.41845 L77.25525,22.41845 L76.02525,18.32195 L71.45775,18.32195 Z" id="Fill-7" fill="#F3F6F7"></path>
                <polygon id="Fill-9" fill="#F3F6F7" points="83.2626 6.46685 93.0141 6.46685 93.0141 9.42635 86.8836 9.42635 86.8836 13.06985 92.6106 13.06985 92.6106 16.00235 86.8836 16.00235 86.8836 22.41935 83.2626 22.41935"></polygon>
                <polygon id="Fill-11" fill="#F3F6F7" points="95.73285 6.46685 105.48435 6.46685 105.48435 9.42635 99.35385 9.42635 99.35385 13.06985 105.08235 13.06985 105.08235 16.00235 99.35385 16.00235 99.35385 22.41935 95.73285 22.41935"></polygon>
                <polygon id="Fill-13" fill="#F3F6F7" points="108.204 22.41905 111.8235 22.41905 111.8235 6.46655 108.204 6.46655"></polygon>
                <polygon id="Fill-15" fill="#F3F6F7" points="114.9471 6.46685 118.5666 6.46685 118.5666 19.38785 124.9101 19.38785 124.9101 22.41935 114.9471 22.41935"></polygon>
                <polygon id="Fill-16" fill="#F3F6F7" points="127.0365 22.41905 130.659 22.41905 130.659 6.46655 127.0365 6.46655"></polygon>
                <path d="M141.54135,15.62495 L140.55135,12.24245 C140.26485,11.29445 139.98135,10.11245 139.74435,9.16445 L139.69785,9.16445 C139.46085,10.11245 139.22385,11.31995 138.96285,12.24245 L138.01785,15.62495 L141.54135,15.62495 Z M137.49735,18.32195 L136.36335,22.41845 L132.62385,22.41845 L137.49735,6.46745 L142.22985,6.46745 L147.17685,22.41845 L143.29485,22.41845 L142.06635,18.32195 L137.49735,18.32195 Z" id="Fill-17" fill="#F3F6F7"></path>
                <polygon id="Fill-18" fill="#F3F6F7" points="150.41535 9.4976 146.13135 9.4976 146.13135 6.4661 158.39085 6.4661 158.39085 9.4976 154.03785 9.4976 154.03785 22.4186 150.41535 22.4186"></polygon>
                <polygon id="Fill-19" fill="#F3F6F7" points="169.7967 15.6734 163.9287 15.6734 163.9287 19.4609 170.4837 19.4609 170.4837 22.4189 160.3077 22.4189 160.3077 6.4664 170.1522 6.4664 170.1522 9.4259 163.9287 9.4259 163.9287 12.7394 169.7967 12.7394"></polygon>
                <path d="M173.05905,18.7055 C174.02955,19.1975 175.52205,19.6985 177.05955,19.6985 C178.71555,19.6985 179.59005,19.01 179.59005,17.9705 C179.59005,16.976 178.83555,16.4075 176.91705,15.722 C174.26655,14.798 172.53555,13.331 172.53555,11.0105 C172.53555,8.2895 174.80955,6.206 178.57605,6.206 C180.37305,6.206 181.69905,6.587 182.64555,7.0115 L181.84005,9.923 C181.20105,9.614 180.06555,9.1655 178.50405,9.1655 C176.93955,9.1655 176.18055,9.875 176.18055,10.703 C176.18055,11.7215 177.08355,12.1715 179.14155,12.953 C181.95855,13.9925 183.28155,15.4595 183.28155,17.708 C183.28155,20.3855 181.22355,22.6535 176.84655,22.6535 C175.02405,22.6535 173.22555,22.1825 172.32705,21.6845 L173.05905,18.7055 Z" id="Fill-20" fill="#F3F6F7"></path>
                <polygon id="Fill-21" fill="#F3F6F7" points="56.649 15.91505 62.8845 15.91505 62.8845 12.94505 56.649 12.94505"></polygon>
            </g>
        </g>
    </g>
</svg>