<?xml version="1.0" encoding="UTF-8"?>
<svg width="99px" height="100px" viewBox="0 0 99 100" version="1.1" xmlns="http://www.w3.org/2000/svg" xmlns:xlink="http://www.w3.org/1999/xlink">
    <!-- Generator: Sketch 49.2 (51160) - http://www.bohemiancoding.com/sketch -->
    <title>Page 1</title>
    <desc>Created with Sketch.</desc>
    <defs></defs>
    <g id="HD-Desktop-1920---1440-px" stroke="none" stroke-width="1" fill="none" fill-rule="evenodd" opacity="0.05">
        <g id="HD-Desktop_EDU-Support-02" transform="translate(-738.000000, -409.000000)" fill="#FFFFFF">
            <path d="M829.850732,474.467235 C829.14567,477.289238 827.452937,479.403253 825.055727,480.529597 C822.517504,481.93972 819.980452,482.22233 817.160205,481.234658 C815.468056,480.813377 814.341128,480.108315 813.352871,478.981386 L798.548328,466.714481 L799.535415,464.600466 L799.960207,462.906562 L815.892849,461.498194 L821.532173,461.357181 L822.941712,461.498194 C825.057482,462.203255 827.031655,463.472367 828.157999,465.586382 C829.567537,467.137518 830.272599,469.251533 830.272599,471.649328 L829.850732,474.467235 Z M805.599531,490.965682 C805.316921,493.503904 804.471432,495.335895 802.780454,496.040957 C801.793953,496.746018 800.665269,496.746018 799.53834,496.603251 C796.859105,495.9017 794.74392,493.784174 793.194539,490.399877 L791.501806,485.748809 L789.38662,473.481904 L791.78383,472.63583 L793.615821,471.649328 L799.536585,477.711105 L803.202321,482.22233 L803.907383,483.632454 C805.176494,486.030249 805.881556,488.285862 805.599531,490.965682 Z M779.516925,466.291444 C777.683179,464.599295 776.697848,462.202085 776.697848,459.665033 C776.697848,457.127981 777.683179,455.012795 779.516925,453.038622 C781.207318,451.487486 783.464101,450.50157 786.143336,450.50157 C788.681558,450.50157 791.077598,451.489241 792.628734,453.038622 C794.602907,455.012795 795.448982,457.127981 795.448982,459.665033 C795.448982,462.202085 794.602907,464.599295 792.628734,466.291444 C790.795574,468.123434 788.681558,469.110521 786.143336,469.110521 C783.464101,469.110521 781.207318,468.123434 779.516925,466.291444 Z M784.169163,494.491576 L784.02815,495.9017 C783.040479,498.436411 781.34833,500.551597 778.811863,501.680281 C776.274811,503.090405 773.594991,503.371844 771.057353,502.666782 C768.237691,501.965231 766.122506,500.273083 764.994407,498.0163 C764.289345,496.606761 763.725296,494.914028 763.725296,493.22188 L764.430357,489.981521 C764.712382,488.570812 765.417444,487.158933 766.545543,486.03259 L778.388241,471.932523 C779.798365,472.63583 781.207318,473.340892 782.759039,473.481904 C783.040479,478.276324 783.464101,483.352184 784.169163,488.850496 L784.169163,494.491576 Z M744.975332,452.899365 C743.847233,450.783594 743.847233,448.669579 744.693893,446.554394 C745.680394,443.875159 747.512385,441.759973 750.191619,440.633045 C752.728672,439.221751 755.265724,438.798714 758.086556,439.50319 L761.893305,441.054912 L774.300638,450.078533 C773.172539,451.487486 772.468647,452.89761 772.04561,454.307733 L751.742755,456.845956 L750.332632,456.563931 C747.794409,456.140894 746.104016,455.012795 744.975332,452.899365 Z M765.699469,423.00884 C765.841066,420.470032 766.827568,418.779054 768.519131,417.792553 C769.36462,417.087491 770.634316,417.087491 771.76066,417.650955 C774.299468,418.356602 776.412898,420.189178 778.105046,423.713902 C778.810108,425.124025 779.51517,426.532394 779.797194,428.225127 L782.616271,444.862245 L780.501086,445.567307 L767.953326,431.891448 L767.248264,430.482495 C766.122506,427.942517 765.417444,425.547062 765.699469,423.00884 Z M789.809072,422.586973 C790.514134,419.768481 792.487722,417.65271 795.025945,416.242587 C797.562997,414.833633 800.383829,414.550438 803.061309,415.537525 C806.021983,416.240831 808.137754,417.792553 809.40745,420.188007 C810.112512,421.596961 810.534964,423.289109 810.534964,425.12227 L810.112512,428.223372 C809.547877,429.774508 808.842816,431.184631 807.996741,432.452572 L795.307969,447.963347 C794.038858,446.976261 792.628734,446.271199 791.218611,445.565552 L789.809072,429.635251 L789.668645,423.995341 L789.809072,422.586973 Z M813.777078,440.348094 L815.468056,439.644203 C818.006864,438.516689 820.402319,438.234079 822.940541,438.516689 C825.337752,438.798714 827.030485,439.925057 827.874804,441.617206 L828.439438,443.449196 L828.156829,444.85932 C827.169742,447.397542 825.054557,449.370545 821.530418,450.921681 C820.122049,451.626743 818.570328,451.908768 816.87818,452.189622 L799.536585,454.304808 L799.255145,453.317721 L798.973706,452.896439 L799.536585,452.191378 L813.777078,440.348094 Z M834.218258,463.889499 L833.513195,462.761399 C832.384508,461.069833 831.257576,459.377098 829.566009,458.250168 C828.157052,457.263665 826.464899,456.558602 824.91376,455.85354 C829.285154,453.737767 832.386263,450.778259 833.79639,446.970335 C834.783479,443.86806 834.501454,441.331004 833.091327,438.792194 L833.091327,438.510754 C831.400344,435.690503 829.144141,433.85734 825.620578,432.870838 C823.504803,432.448385 821.107587,432.448385 818.993566,432.589398 L814.341317,433.5759 L815.893042,430.052342 C817.303169,425.541111 816.880131,421.169138 814.482329,417.08153 L814.059876,416.376467 C811.944101,412.850569 808.842991,410.736551 804.61378,409.608451 C800.243556,408.480936 796.155358,408.903388 792.207002,411.018576 C788.259816,413.133179 785.439562,416.376467 784.172203,420.606843 L784.172203,420.888868 L784.030605,421.875956 L783.467139,420.888868 L782.056427,418.350643 C779.798468,414.830595 776.978214,412.715407 773.454066,411.72832 C770.352957,411.023257 767.815313,411.305282 765.137242,412.715407 C762.17539,414.549155 760.483237,417.368821 759.778174,421.316002 C759.07311,425.404195 759.778174,429.352546 761.893364,433.300311 L762.880453,434.708681 L759.496733,433.580581 C755.266937,432.593493 751.318581,433.157544 747.371395,435.273317 C743.283782,437.388505 740.744968,440.348012 739.052816,444.437961 C737.501676,448.386312 737.643859,452.19248 739.616866,455.716623 C740.462943,457.267176 741.731472,458.535118 742.858403,459.381779 C744.551141,461.073344 746.666332,462.061017 749.20339,462.482884 L750.190479,462.764324 L748.075289,464.598072 C746.100526,466.289637 744.974179,468.403655 744.268531,470.518843 C743.563467,473.057069 743.846078,475.594124 745.256205,477.991337 C745.961268,479.118267 746.665162,480.10594 747.793263,480.811003 C748.921365,481.797505 750.331492,482.502568 752.021889,482.642995 C755.124169,483.348058 758.366291,483.348058 761.891024,482.217617 L759.352795,486.447408 L758.647731,488.281156 C757.238189,492.792972 757.660057,496.741323 759.775248,500.828346 C760.762922,502.378899 761.891024,503.791364 763.01854,505.057552 C764.711278,506.608689 766.825299,507.595777 769.363527,508.30084 C773.592739,509.42777 777.82312,509.288513 781.911318,507.17391 C785.859674,505.057552 788.396733,501.673836 789.665847,497.444045 L789.807445,496.597385 C792.484931,499.560988 795.02316,501.533409 797.843414,502.238471 C800.662499,503.083961 803.483338,502.943534 806.020982,501.250798 C808.418783,499.840673 810.109765,497.444045 810.955841,494.483367 C811.660905,491.381091 811.660905,488.279986 810.955841,484.755843 C812.364213,485.742931 813.77434,486.446238 815.466493,486.869861 C819.978315,488.279986 823.9255,488.137803 827.873856,486.02437 C831.6812,483.910353 834.218258,480.524297 835.487373,476.154078 C836.615474,471.924288 836.333449,467.83785 834.218258,463.889499 Z" id="Page-1"></path>
        </g>
    </g>
</svg>