<?xml version="1.0" encoding="UTF-8"?>
<svg width="89px" height="90px" viewBox="0 0 89 90" version="1.1" xmlns="http://www.w3.org/2000/svg" xmlns:xlink="http://www.w3.org/1999/xlink">
    <!-- Generator: Sketch 49.2 (51160) - http://www.bohemiancoding.com/sketch -->
    <title>Page 1</title>
    <desc>Created with Sketch.</desc>
    <defs>
        <polygon id="path-1" points="88.8191866 89.0778568 0.000196857142 89.0778568 0.000196857142 0.259556142 88.8191866 0.259556142"></polygon>
    </defs>
    <g id="HD-Desktop-1920---1440-px" stroke="none" stroke-width="1" fill="none" fill-rule="evenodd">
        <g id="HD-Desktop_EDU-Support-02" transform="translate(-399.000000, -156.000000)">
            <g id="Page-1" transform="translate(399.000000, 156.000000)">
                <path d="M26.1052256,61.2421585 C25.7681078,61.2421585 25.4329585,61.1048506 25.1898399,60.8341721 C10.7360964,44.7543886 13.5880642,24.6882479 15.6339021,22.6409336 L21.9815606,16.2952437 C22.9584642,15.3178479 24.2626428,14.7789515 25.6529463,14.7789515 C27.0432499,14.7789515 28.3479206,15.3178479 29.3253163,16.2957358 C29.3696092,16.3400287 29.4099649,16.3872744 29.4468756,16.4379651 L37.1011734,26.8733622 C39.0544884,28.9034515 39.0313577,32.1451965 37.0312892,34.1462493 L32.0832849,39.0913007 C31.2008728,39.9761736 30.0349863,40.4958764 28.8154563,40.5893836 C29.307107,42.9861193 30.6806778,47.8681764 34.2073735,52.0587728 C34.6448885,52.5784757 34.577957,53.354585 34.057762,53.7921 C33.5385513,54.229615 32.762442,54.1631757 32.3244349,53.6429807 C26.9522035,47.2593957 26.1500106,39.6690764 26.1180213,39.3491836 C26.0786499,38.9451343 26.2400728,38.547975 26.5506149,38.2866472 C26.8611571,38.0253193 27.2829235,37.9362414 27.6717163,38.0425443 C28.6299185,38.3087936 29.6525913,38.0440207 30.3420835,37.3520679 L35.291072,32.4060322 C36.355577,31.341035 36.355577,29.6072158 35.2905799,28.5417265 C35.246287,28.4974336 35.2059313,28.4496958 35.1690206,28.3994972 L27.5235813,17.9759115 C27.0176585,17.5005015 26.3572028,17.2396658 25.6529463,17.2396658 C24.9201456,17.2396658 24.2345906,17.5221558 23.7217778,18.0349687 L17.4066007,24.3476851 C16.1088199,26.3241308 13.7435814,44.4187471 27.0196271,59.1894307 C27.4738749,59.6943692 27.4325349,60.4729392 26.9271042,60.9266949 C26.6918599,61.1383164 26.3980506,61.2421585 26.1052256,61.2421585" id="Fill-1" fill="#FCB528"></path>
                <path d="M55.4751793,75.7450179 C48.4409815,75.7450179 38.8510858,73.4088157 29.2188658,64.8243679 C28.7114665,64.3720886 28.6666815,63.5945029 29.1189608,63.0871036 C29.570748,62.5792122 30.3478415,62.5349194 30.8562251,62.9871986 C47.5664436,77.8799336 63.2293821,72.5377229 64.4799171,71.4618986 L70.5332743,65.4070651 C71.0460871,64.8942522 71.3285771,64.2082051 71.3285771,63.4749122 C71.3285771,62.7652422 71.0633121,62.0988808 70.58052,61.5919736 L60.4182622,53.6571544 C60.3788907,53.6266415 60.3414879,53.5926837 60.3055614,53.5577415 C59.2405643,52.4927444 57.5077293,52.4927444 56.4427322,53.5577415 L51.4971886,58.5037772 C50.7850579,59.2154158 50.7348593,60.6564101 50.7737386,61.1047522 C50.8032672,61.4462994 50.6885979,61.7848936 50.458275,62.0378551 C50.22746,62.2918008 49.9016615,62.4374751 49.55913,62.4409201 C49.2736872,62.4300929 42.6386172,62.4458415 36.2934194,57.3762779 C35.7623972,56.9520508 35.6762722,56.1779101 36.1004994,55.646888 C36.5237422,55.1158658 37.2978829,55.0287565 37.8298894,55.453968 C41.9998158,58.7852829 46.3380551,59.6647422 48.363715,59.8970337 C48.4837979,58.9388315 48.82879,57.6912494 49.7574636,56.7635601 L54.7030072,51.8175244 C56.7084893,49.8130265 59.959585,49.7943251 61.9881979,51.760928 L72.1602985,59.7031294 C72.19967,59.7346265 72.237565,59.7676001 72.2729993,59.8030344 C73.250395,60.7809222 73.7892914,62.0846086 73.7892914,63.4749122 C73.7892914,64.8657079 73.250395,66.1693943 72.2729993,67.1467901 L66.2078307,73.2129429 C65.2196078,74.2016579 61.1909264,75.7450179 55.4751793,75.7450179" id="Fill-3" fill="#FCB528"></path>
                <path d="M54.1030358,66.9969818 C53.7880644,66.9969818 53.4735851,66.8768989 53.2329272,66.6367332 L48.6781451,62.0804746 C48.1973216,61.5996511 48.1973216,60.8205889 48.6781451,60.3407497 C49.1584765,59.8599261 49.9370465,59.8599261 50.4178701,60.3407497 L54.9731444,64.8965161 C55.4534758,65.3773396 55.4534758,66.1564018 54.9731444,66.6367332 C54.7324865,66.8768989 54.4180072,66.9969818 54.1030358,66.9969818" id="Fill-5" fill="#FCB528"></path>
                <path d="M27.4547798,40.3481844 C27.1398083,40.3481844 26.8253291,40.2281015 26.5846712,39.9879358 L22.0293969,35.4316772 C21.5485734,34.9508537 21.5485734,34.1717915 22.0293969,33.6919522 C22.5097284,33.2111287 23.2882983,33.2111287 23.7691219,33.6919522 L28.3248883,38.2477187 C28.8052198,38.7285422 28.8052198,39.5076044 28.3248883,39.9879358 C28.0842305,40.2281015 27.7697512,40.3481844 27.4547798,40.3481844" id="Fill-7" fill="#FCB528"></path>
                <g id="Group-11" transform="translate(0.000000, 0.232784)">
                    <mask id="mask-2" fill="white">
                        <use xlink:href="#path-1"></use>
                    </mask>
                    <g id="Clip-10"></g>
                    <path d="M44.4091996,2.72027042 C21.2789775,2.72027042 2.46091113,21.5383368 2.46091113,44.6685588 C2.46091113,67.7987809 21.2789775,86.6173394 44.4091996,86.6173394 C67.5404059,86.6173394 86.3584723,67.7987809 86.3584723,44.6685588 C86.3584723,21.5383368 67.5404059,2.72027042 44.4091996,2.72027042 M44.4091996,89.0780537 C19.9216475,89.0780537 0.000196857142,69.1561109 0.000196857142,44.6685588 C0.000196857142,20.1810068 19.9216475,0.259556142 44.4091996,0.259556142 C68.8972438,0.259556142 88.8191866,20.1810068 88.8191866,44.6685588 C88.8191866,69.1561109 68.8972438,89.0780537 44.4091996,89.0780537" id="Fill-9" fill="#FCB528" mask="url(#mask-2)"></path>
                </g>
            </g>
        </g>
    </g>
</svg>