<?xml version="1.0" encoding="UTF-8"?>
<svg width="100px" height="100px" viewBox="0 0 100 100" version="1.1" xmlns="http://www.w3.org/2000/svg" xmlns:xlink="http://www.w3.org/1999/xlink">
    <!-- Generator: Sketch 49.2 (51160) - http://www.bohemiancoding.com/sketch -->
    <title>Page 1</title>
    <desc>Created with Sketch.</desc>
    <defs>
        <polygon id="path-1" points="50.0000586 99.759375 100 99.759375 100 -2.84217094e-14 50.0000586 -2.84217094e-14 0.0001171875 -2.84217094e-14 0.0001171875 99.759375"></polygon>
    </defs>
    <g id="HD-Desktop-1920---1440-px" stroke="none" stroke-width="1" fill="none" fill-rule="evenodd">
        <g id="HD-Desktop_EDU-Support-02" transform="translate(-737.000000, -163.000000)">
            <g id="Page-1" transform="translate(737.000000, 163.000000)">
                <mask id="mask-2" fill="white">
                    <use xlink:href="#path-1"></use>
                </mask>
                <g id="Clip-2"></g>
                <path d="M41.5567578,3.53164062 C41.3950391,3.44140625 41.2290234,3.36367187 41.0641797,3.2765625 C40.8977734,3.31015625 40.7301953,3.34453125 40.5637891,3.3765625 L41.5567578,3.53164062 Z M3.60128906,40.9945312 C3.56808594,41.165625 3.54738281,41.3382812 3.51730469,41.509375 C3.60597656,41.6675781 3.68371094,41.8292969 3.77238281,41.984375 L3.60128906,40.9945312 Z M96.3735547,58.7363281 C96.4067578,58.5605469 96.4290234,58.3832031 96.4606641,58.2074219 C96.3735547,58.0488281 96.2958203,57.8859375 96.2024609,57.7292969 L96.3735547,58.7363281 Z M57.8161328,95.8734375 C57.9778516,95.9664062 58.1391797,96.0472656 58.2973828,96.1359375 C58.4751172,96.1042969 58.6508984,96.0839844 58.8251172,96.0507812 L57.8161328,95.8734375 Z M50.2161328,78.5667969 C33.4403516,78.5667969 25.9356641,70.3195312 25.9356641,64.1378906 C25.9356641,60.9675781 28.2762891,58.7457031 31.5020703,58.7457031 C38.6809766,58.7457031 36.8216016,69.0539062 50.2161328,69.0539062 C57.0735547,69.0539062 60.8598828,65.3304687 60.8598828,61.5203125 C60.8598828,59.2289062 59.7290234,56.6886719 55.2141797,55.5753906 L40.2930859,51.8503906 C28.2762891,48.8367187 26.0954297,42.340625 26.0954297,36.2339844 C26.0954297,23.5554687 38.0329297,18.7949219 49.2438672,18.7949219 C59.5708203,18.7949219 71.7442578,24.5023437 71.7442578,32.1085937 C71.7442578,35.3679687 68.9223828,37.2636719 65.6981641,37.2636719 C59.5708203,37.2636719 60.6981641,28.7832031 48.3571484,28.7832031 C42.2329297,28.7832031 38.8407422,31.55625 38.8407422,35.5246094 C38.8407422,39.4855469 43.6774609,40.7507812 47.8770703,41.7070312 L58.9216016,44.1585937 C71.0192578,46.8542969 74.0864453,53.9171875 74.0864453,60.5703125 C74.0864453,70.8738281 66.1778516,78.5667969 50.2161328,78.5667969 Z M96.4606641,58.2074219 C96.4290234,58.3832031 96.4067578,58.5605469 96.3735547,58.7363281 L96.2024609,57.7292969 C96.2958203,57.8859375 96.3735547,58.0488281 96.4606641,58.2074219 C96.9766797,55.3980469 97.2477734,52.5222656 97.2477734,49.6476562 C97.2477734,43.2734375 95.9997266,37.0894531 93.5341016,31.2675781 C91.1551953,25.6441406 87.7520703,20.5941406 83.4126172,16.2578125 C79.0798047,11.921875 74.0266797,8.51875 68.4059766,6.13984375 C62.5860547,3.67734375 56.4020703,2.42929687 50.0278516,2.42929687 C47.0235547,2.42929687 44.0145703,2.71132812 41.0864453,3.2734375 C41.0801953,3.275 41.0719922,3.275 41.0641797,3.2765625 C41.2290234,3.36367187 41.3950391,3.44140625 41.5567578,3.53164062 L40.5637891,3.3765625 C40.7301953,3.34453125 40.8977734,3.31015625 41.0641797,3.2765625 C37.0466016,1.14023437 32.5282422,-2.84217094e-14 27.9548047,-2.84217094e-14 C20.4876172,-2.84217094e-14 13.4673047,2.9078125 8.18761719,8.1890625 C2.90910156,13.4691406 0.0001171875,20.4894531 0.0001171875,27.95625 C0.0001171875,32.7089844 1.22277344,37.3808594 3.51730469,41.509375 C3.54738281,41.3382812 3.56808594,41.165625 3.60128906,40.9945312 L3.77238281,41.984375 C3.68371094,41.8292969 3.60597656,41.6675781 3.51730469,41.509375 C3.05167969,44.1839844 2.80636719,46.9175781 2.80636719,49.6476562 C2.80636719,56.0234375 4.05402344,62.20625 6.52003906,68.0292969 C8.89542969,73.6546875 12.3005078,78.7015625 16.6348828,83.0375 C20.9739453,87.3738281 26.0212109,90.7816406 31.6477734,93.1539062 C37.4676953,95.6210937 43.6536328,96.8707031 50.0278516,96.8707031 C52.8024609,96.8707031 55.5833203,96.6175781 58.2973828,96.1359375 C58.1391797,96.0472656 57.9778516,95.9664062 57.8161328,95.8734375 L58.8251172,96.0507812 C58.6508984,96.0839844 58.4751172,96.1042969 58.2973828,96.1359375 C62.4798047,98.5019531 67.2153516,99.759375 72.0501172,99.759375 C79.5153516,99.759375 86.5325391,96.8566406 91.8126172,91.5734375 C97.0938672,86.296875 100.000117,79.2746094 100.000117,71.8078125 C100.000117,67.0394531 98.7712109,62.3519531 96.4606641,58.2074219 Z" id="Fill-1" fill="#FFFFFF" opacity="0.05" mask="url(#mask-2)"></path>
            </g>
        </g>
    </g>
</svg>