<?xml version="1.0" encoding="UTF-8"?>
<svg width="99px" height="100px" viewBox="0 0 99 100" version="1.1" xmlns="http://www.w3.org/2000/svg" xmlns:xlink="http://www.w3.org/1999/xlink">
    <!-- Generator: Sketch 49.2 (51160) - http://www.bohemiancoding.com/sketch -->
    <title>Page 1</title>
    <desc>Created with Sketch.</desc>
    <defs>
        <polygon id="path-1" points="0.000129535616 0.238993211 78.6787671 0.238993211 78.6787671 78.9180842 0.000129535616 78.9180842 0.000129535616 0.238993211"></polygon>
    </defs>
    <g id="HD-Desktop-1920---1440-px" stroke="none" stroke-width="1" fill="none" fill-rule="evenodd" opacity="0.05">
        <g id="HD-Desktop_EDU-Post-Back" transform="translate(-738.000000, -252.000000)">
            <g id="Group-5" transform="translate(625.000000, 190.000000)">
                <g id="Page-1" transform="translate(113.000000, 62.000000)">
                    <g id="Group-3" transform="translate(0.000000, 0.408685)">
                        <polygon id="Clip-2" points="68.2876869 99.094746 0 99.094746 0 0.238993211 98.8557528 0.238993211 98.8557528 99.094746 68.2876869 99.094746 98.8557706 99.094746 98.8557706 37.9597288 37.719621 37.9597288 37.719621 99.094746"></polygon>
                        <path d="M59.8842503,99.094746 C59.2022453,99.094746 58.5888942,98.6653354 58.3589685,98.0170096 L37.8126768,40.1204186 C37.6041245,39.5323269 37.7524427,38.8755813 38.1941592,38.4345125 C38.635228,37.9915007 39.2913258,37.8444778 39.8800652,38.0530301 L97.7779517,58.5993218 C98.4521845,58.8389627 98.8893672,59.4918222 98.8537449,60.2062111 C98.817475,60.9206 98.3181152,61.5268267 97.6238043,61.6978137 L84.5102662,64.9245459 C83.6371962,65.1343936 82.7641261,64.606536 82.55104,63.739295 C82.3373063,62.8707587 82.8677546,61.9938026 83.7362909,61.7800688 L91.6029889,59.8441591 L42.0025063,42.2428596 L59.6031581,91.8407515 L63.4063237,76.3787327 C63.4348216,76.261503 63.4769206,76.1481593 63.5306779,76.0406448 C63.7631944,75.5756119 64.2062062,75.2498298 64.7198149,75.1662794 C65.2321282,75.0827289 65.7567475,75.2511252 66.1246286,75.6190063 L84.9986155,94.4936409 L94.2539352,85.2389688 L81.3748567,72.3605379 C80.7420752,71.7284041 80.7420752,70.7031297 81.3748567,70.0703482 C82.0069905,69.4382144 83.0316172,69.4382144 83.6643987,70.0703482 L97.6885721,84.0945217 C97.9923331,84.3982827 98.1633201,84.8095583 98.1633201,85.2389688 C98.1633201,85.6690271 97.9923331,86.0803027 97.6885721,86.3840637 L86.1437103,97.9282777 C85.5109289,98.5610592 84.4863021,98.5610592 83.8541683,97.9282777 L65.8655574,79.9396668 L61.4574604,97.8622146 C61.2864734,98.5571732 60.6802467,99.056533 59.9658578,99.0928029 C59.9386553,99.0940983 59.9114528,99.094746 59.8842503,99.094746" id="Fill-1" fill="#FFFFFF"></path>
                    </g>
                    <g id="Group-6" transform="translate(0.000000, 0.408685)">
                        <mask id="mask-2" fill="white">
                            <use xlink:href="#path-1"></use>
                        </mask>
                        <g id="Clip-5"></g>
                        <path d="M39.3388006,78.9180842 C17.6474141,78.9180842 0.000129535616,61.2707996 0.000129535616,39.5794131 C0.000129535616,17.8873789 17.6474141,0.238798907 39.3388006,0.238798907 C61.0308348,0.238798907 78.6787671,17.8873789 78.6787671,39.5794131 C78.6787671,40.4738565 77.9540153,41.1986082 77.0595719,41.1986082 C76.1651285,41.1986082 75.4403767,40.4738565 75.4403767,39.5794131 C75.4403767,19.6723796 59.2451864,3.4771893 39.3388006,3.4771893 C19.4330626,3.4771893 3.23851993,19.6723796 3.23851993,39.5794131 C3.23851993,59.4851511 19.4330626,75.6796938 39.3388006,75.6796938 C40.2332441,75.6796938 40.9579958,76.4044455 40.9579958,77.298889 C40.9579958,78.1933324 40.2332441,78.9180842 39.3388006,78.9180842" id="Fill-4" fill="#FFFFFF" mask="url(#mask-2)"></path>
                    </g>
                    <path d="M34.299088,60.8647702 C34.1637233,60.8647702 34.0257678,60.8479306 33.8891078,60.8116606 C24.426531,58.3420641 17.8182716,49.7791122 17.8182716,39.9881627 C17.8182716,28.1207573 27.472561,18.4664678 39.3386711,18.4664678 C49.112781,18.4664678 57.6724945,25.0604783 60.1543969,34.501034 C60.3817319,35.3656842 59.8648848,36.2510602 59.0002345,36.4790429 C58.1394704,36.7031395 57.2495607,36.1895308 57.0222257,35.3242328 C54.9140335,27.3059782 47.6425518,21.7048582 39.3386711,21.7048582 C29.2582095,21.7048582 21.056662,29.9064057 21.056662,39.9881627 C21.056662,48.3056446 26.6700879,55.5810124 34.7064775,57.678194 C35.5717754,57.9042337 36.0905656,58.7883143 35.8645259,59.6536122 C35.6747562,60.38225 35.017363,60.8647702 34.299088,60.8647702" id="Fill-7" fill="#FFFFFF"></path>
                </g>
            </g>
        </g>
    </g>
</svg>