<?xml version="1.0" encoding="UTF-8"?>
<svg width="100px" height="92px" viewBox="0 0 100 92" version="1.1" xmlns="http://www.w3.org/2000/svg" xmlns:xlink="http://www.w3.org/1999/xlink">
    <!-- Generator: Sketch 49.2 (51160) - http://www.bohemiancoding.com/sketch -->
    <title>Page 1</title>
    <desc>Created with Sketch.</desc>
    <defs>
        <polygon id="path-1" points="49.824793 0.303540149 99.649334 0.303540149 99.649334 91.3139452 49.824793 91.3139452 0.000251900539 91.3139452 0.000251900539 0.303540149"></polygon>
    </defs>
    <g id="HD-Desktop-1920---1440-px" stroke="none" stroke-width="1" fill="none" fill-rule="evenodd" opacity="0.05">
        <g id="HD-Desktop_EDU-Post-Back" transform="translate(-393.000000, -257.000000)">
            <g id="Page-1" transform="translate(443.000000, 303.500000) scale(-1, 1) translate(-443.000000, -303.500000) translate(393.000000, 257.000000)">
                <path d="M49.849983,20.0624924 L49.8455748,20.0624924 C48.9758882,20.0599734 48.2730857,19.3533924 48.2756047,18.4837058 L48.2963865,11.0671242 C48.2989055,10.1993269 49.0035972,9.4971541 49.8707648,9.4971541 L49.8751731,9.4971541 C50.7448597,9.49967311 51.4476622,10.2068839 51.4451432,11.075311 L51.4243614,18.4925223 C51.4218424,19.3609494 50.7171506,20.0624924 49.849983,20.0624924" id="Fill-1" fill="#FFFFFF"></path>
                <path d="M65.4975407,24.2585886 C65.2292666,24.2585886 64.957214,24.1899457 64.7078325,24.0451029 C63.9559094,23.6080555 63.7008601,22.6445359 64.1379075,21.8926128 L67.864776,15.4811144 C68.3024532,14.7291913 69.2647132,14.474142 70.0172661,14.9105597 C70.7691892,15.3476071 71.0242385,16.3111266 70.5871911,17.0630498 L66.8603226,23.475178 C66.568118,23.9777195 66.0397566,24.2585886 65.4975407,24.2585886" id="Fill-3" fill="#FFFFFF"></path>
                <path d="M76.9560553,35.7171033 C76.4100609,35.7171033 75.8798103,35.4330855 75.5888652,34.9255059 C75.156226,34.1710638 75.4169431,33.2094334 76.1713852,32.7767943 L82.6055547,29.0870811 C83.3587373,28.6538122 84.3216271,28.9145293 84.7542663,29.6689714 C85.1869054,30.4234135 84.9261884,31.3856735 84.1717463,31.8183127 L77.7375768,35.5080259 C77.4907142,35.6497199 77.2218104,35.7171033 76.9560553,35.7171033" id="Fill-5" fill="#FFFFFF"></path>
                <path d="M88.5631284,51.3877099 L88.5587201,51.3877099 L81.1415087,51.3669281 C80.2718221,51.3644091 79.5690196,50.6578281 79.5715386,49.7881414 C79.5740576,48.9203441 80.2781197,48.2181713 81.145917,48.2181713 L81.1503253,48.2181713 L88.5675366,48.2389531 C89.4372232,48.2414721 90.1400257,48.9486829 90.1375067,49.8177398 C90.1349877,50.6861669 89.430296,51.3877099 88.5631284,51.3877099" id="Fill-7" fill="#FFFFFF"></path>
                <path d="M83.3618231,70.7433064 C83.093549,70.7433064 82.8214964,70.6746635 82.5727446,70.5298207 L76.1593569,66.8042117 C75.4074338,66.3677941 75.1517548,65.4036448 75.5888022,64.6517216 C76.0252199,63.9004283 76.9887394,63.6447492 77.7412923,64.0817967 L84.1540503,67.8074056 C84.9059734,68.2438233 85.1616524,69.2079726 84.724605,69.959266 C84.4324004,70.4624373 83.9046687,70.7433064 83.3618231,70.7433064" id="Fill-9" fill="#FFFFFF"></path>
                <path d="M16.3049551,70.6990349 C15.7589607,70.6990349 15.22871,70.415017 14.9377649,69.9074375 C14.5051257,69.1529953 14.7658428,68.191365 15.5202849,67.7580961 L21.9538247,64.0696425 C22.7082668,63.6376331 23.6698971,63.8977204 24.1025363,64.6521625 C24.5351754,65.4066046 24.2744584,66.3688646 23.5200163,66.8015038 L17.0864765,70.4899574 C16.839614,70.6316515 16.5700804,70.6990349 16.3049551,70.6990349" id="Fill-11" fill="#FFFFFF"></path>
                <path d="M18.5451066,51.3581745 L18.5406983,51.3581745 L11.1253762,51.3373927 C10.2556896,51.3348737 9.5528871,50.6282927 9.5554061,49.7586061 C9.55792511,48.8908087 10.2619871,48.188636 11.1297845,48.188636 L11.133563,48.188636 L18.5495148,48.2094178 C19.4192014,48.2119368 20.1220039,48.9191476 20.1194849,49.7882044 C20.1169659,50.6566315 19.4122742,51.3581745 18.5451066,51.3581745" id="Fill-13" fill="#FFFFFF"></path>
                <path d="M22.7396284,35.7097352 C22.4713543,35.7097352 22.1993017,35.6410923 21.9499202,35.4962495 L15.537792,31.769381 C14.7864986,31.3323336 14.5308196,30.3688141 14.967867,29.6168909 C15.4055442,28.8655976 16.3678043,28.6105483 17.1203571,29.046966 L23.5324853,32.7738344 C24.2844084,33.2102521 24.5394577,34.1744014 24.1024103,34.9263245 C23.8102057,35.4288661 23.2818443,35.7097352 22.7396284,35.7097352" id="Fill-15" fill="#FFFFFF"></path>
                <path d="M34.2005991,24.2548731 C33.6546047,24.2548731 33.124354,23.9708552 32.8334089,23.4632757 L29.1443255,17.0291062 C28.7123161,16.274664 28.9730332,15.3130337 29.7268455,14.8797648 C30.4819174,14.4477554 31.4435477,14.7084724 31.8761869,15.4629146 L35.5652703,21.8970841 C35.9972797,22.6515262 35.7365626,23.6131565 34.9821205,24.0457957 C34.735258,24.1874897 34.4657244,24.2548731 34.2005991,24.2548731" id="Fill-17" fill="#FFFFFF"></path>
                <path d="M49.849983,20.0624924 L49.8455748,20.0624924 C48.9758882,20.0599734 48.2730857,19.3527627 48.2756047,18.4837058 L48.297646,11.0683837 C48.300165,10.1999566 49.0048567,9.49841361 49.8720243,9.49841361 L49.8764326,9.49841361 C50.7461192,9.50093261 51.4489217,10.2081434 51.4464027,11.0772002 L51.4243614,18.4931521 C51.4218424,19.3609494 50.7171506,20.0624924 49.849983,20.0624924" id="Fill-19" fill="#FFFFFF"></path>
                <path d="M87.9579373,81.5868689 C87.7186318,81.5868689 87.4755478,81.5320805 87.2482076,81.4162063 C83.2769956,79.4054102 79.1206367,77.7069709 74.8943754,76.3681195 C66.8121466,73.806291 58.3772571,72.5064842 49.8239743,72.5064842 C36.6653199,72.5064842 24.075331,75.5041006 12.4035195,81.4155765 C11.6282956,81.8079116 10.6805199,81.4974442 10.287555,80.7222203 C9.89521993,79.9469964 10.2050576,78.9992206 10.9809113,78.6062558 C23.0973272,72.4693289 36.1665568,69.3577275 49.8239743,69.3577275 C58.7009493,69.3577275 67.4557525,70.7066549 75.8459297,73.3660948 C80.2334073,74.7565858 84.5478338,76.5198896 88.6701861,78.6075153 C89.4460398,79.0004801 89.7565072,79.9469964 89.3635423,80.7234798 C89.0864517,81.2707337 88.5329003,81.5868689 87.9579373,81.5868689" id="Fill-21" fill="#FFFFFF"></path>
                <g id="Group-25" transform="translate(0.000000, 0.326211)">
                    <mask id="mask-2" fill="white">
                        <use xlink:href="#path-1"></use>
                    </mask>
                    <g id="Clip-24"></g>
                    <path d="M77.3721321,91.3139452 L22.277076,91.3139452 C21.9546433,91.3139452 21.6403974,91.215704 21.3765316,91.0311869 C19.5414362,89.7521619 17.7775027,88.3383701 16.1338516,86.8294859 C14.0745647,84.9383426 12.1613801,82.8595334 10.4465672,80.6509954 C9.91316784,79.9651962 10.0372289,78.9752271 10.7242876,78.4424575 C11.4113463,77.9090581 12.4006857,78.0337488 12.9334553,78.7201778 C14.5405807,80.7901705 16.3341126,82.7379914 18.2630409,84.5101117 C19.68376,85.8143267 21.1995715,87.0423418 22.7758391,88.1651885 L76.873369,88.1651885 C78.4490069,87.0423418 79.9660779,85.813697 81.3861671,84.5094819 C83.3144658,82.7386211 85.1067381,80.7908002 86.7132338,78.7214373 C93.1159157,70.4767327 96.5008292,60.5890068 96.5008292,50.1282072 C96.5008292,24.3908994 75.5615969,3.45229688 49.8242892,3.45229688 C24.0876111,3.45229688 3.14900863,24.3908994 3.14900863,50.1282072 C3.14900863,56.1480003 4.27878255,62.0065771 6.50684281,67.5408319 C6.90988367,68.5427663 7.35448812,69.5453304 7.82869089,70.5195558 C8.2090607,71.3023367 7.88410901,72.2444447 7.10195783,72.6241848 C6.32043641,73.0051843 5.37769865,72.6789731 4.99732883,71.8974517 C4.49100875,70.8571025 4.01617624,69.7858954 3.58542632,68.7165777 C1.20622573,62.806991 0.000251900539,56.5529304 0.000251900539,50.1282072 C0.000251900539,22.6553047 22.3507569,0.303540149 49.8242892,0.303540149 C77.2978214,0.303540149 99.6495859,22.6553047 99.6495859,50.1282072 C99.6495859,61.294958 96.0360727,71.8508501 89.2001218,80.6522549 C87.4859387,82.8601631 85.5733838,84.9383426 83.5159862,86.8288561 C81.8717054,88.3383701 80.1077719,89.7521619 78.2726765,91.0311869 C78.0081809,91.215704 77.693935,91.3139452 77.3721321,91.3139452" id="Fill-23" fill="#FFFFFF" mask="url(#mask-2)"></path>
                </g>
                <path d="M45.5336673,47.9160796 C46.3863506,48.077296 46.9474591,48.8972322 46.7893915,49.7499155 C46.7434196,49.9974078 46.7213783,50.2461596 46.7232676,50.4911329 C46.7453089,52.5283785 48.4223367,54.188403 50.4614716,54.1890328 L50.4614716,55.7634111 L50.5030352,54.188403 C51.5030803,54.1776973 52.4382611,53.7796944 53.1379148,53.0655564 C53.8369388,52.3514183 54.2160491,51.4074211 54.2053433,50.4080057 C54.1958971,49.5099803 53.8596098,48.6428127 53.2581973,47.9664597 C52.7222789,47.3637877 52.7336144,46.4632433 53.2575676,45.8756853 L44.1652176,28.6387612 L45.5336673,47.9160796 Z M50.4608418,57.3377895 C46.7786857,57.3371598 43.7369867,54.39874 43.5808084,50.7417739 C42.9680603,50.551589 42.5253451,50.0024458 42.4787435,49.3506532 L40.494397,21.3934719 C40.4414979,20.6503653 40.9163304,19.9721231 41.6323577,19.7680837 C42.3502742,19.562155 43.1097544,19.8883662 43.4573771,20.5470861 L56.6128827,45.4877584 C56.8950113,46.0217876 56.8421122,46.6597257 56.5020465,47.1358177 C57.0455219,48.1238976 57.341505,49.2354087 57.3541001,50.3746289 C57.3937744,54.1745485 54.3357019,57.2968557 50.5370417,57.3371598 C50.531374,57.3371598 50.4665096,57.3377895 50.4608418,57.3377895 Z" id="Fill-26" fill="#FFFFFF"></path>
            </g>
        </g>
    </g>
</svg>