<?xml version="1.0" encoding="UTF-8"?>
<svg width="40px" height="40px" viewBox="0 0 40 40" version="1.1" xmlns="http://www.w3.org/2000/svg" xmlns:xlink="http://www.w3.org/1999/xlink">
    <!-- Generator: Sketch 49.2 (51160) - http://www.bohemiancoding.com/sketch -->
    <title>Page 1</title>
    <desc>Created with Sketch.</desc>
    <defs>
        <polygon id="path-1" points="5.18142463e-05 0.0955972843 31.4715068 0.0955972843 31.4715068 31.5672337 5.18142463e-05 31.5672337 5.18142463e-05 0.0955972843"></polygon>
    </defs>
    <g id="HD-Desktop-1920---1440-px" stroke="none" stroke-width="1" fill="none" fill-rule="evenodd">
        <g id="HD-Desktop_EDU-Post-Back" transform="translate(-1024.000000, -275.000000)">
            <g id="Page-1" transform="translate(1024.000000, 275.000000)">
                <g id="Group-3" transform="translate(0.000000, 0.163474)">
                    <polygon id="Clip-2" points="27.3150747 39.6378984 0 39.6378984 0 0.0955972843 39.5423011 0.0955972843 39.5423011 39.6378984 27.3150747 39.6378984 39.5423083 39.6378984 39.5423083 15.1838915 15.0878484 15.1838915 15.0878484 39.6378984"></polygon>
                    <path d="M23.9537001,39.6378984 C23.6808981,39.6378984 23.4355577,39.4661342 23.3435874,39.2068039 L15.1250707,16.0481674 C15.0416498,15.8129307 15.1009771,15.5502325 15.2776637,15.373805 C15.4540912,15.1966003 15.7165303,15.1377911 15.9520261,15.2212121 L39.1111807,23.4397287 C39.3808738,23.5355851 39.5557469,23.7967289 39.541498,24.0824844 C39.52699,24.36824 39.3272461,24.6107307 39.0495217,24.6791255 L33.8041065,25.9698184 C33.4548785,26.0537574 33.1056505,25.8426144 33.020416,25.495718 C32.9349225,25.1483035 33.1471018,24.797521 33.4945164,24.7120275 L36.6411955,23.9376636 L16.8010025,16.8971438 L23.8412632,36.7363006 L25.3625295,30.5514931 C25.3739286,30.5046012 25.3907683,30.4592637 25.4122712,30.4162579 C25.5052777,30.2302448 25.6824825,30.0999319 25.8879259,30.0665117 C26.0928513,30.0330916 26.302699,30.1004501 26.4498514,30.2476025 L33.9994462,37.7974564 L37.7015741,34.0955875 L32.5499427,28.9442152 C32.2968301,28.6913616 32.2968301,28.2812519 32.5499427,28.0281393 C32.8027962,27.7752858 33.2126469,27.7752858 33.4657595,28.0281393 L39.0754288,33.6378087 C39.1969332,33.7593131 39.265328,33.9238233 39.265328,34.0955875 C39.265328,34.2676108 39.1969332,34.4321211 39.0754288,34.5536255 L34.4574841,39.1713111 C34.2043715,39.4244237 33.7945209,39.4244237 33.5416673,39.1713111 L26.346223,31.9758667 L24.5829842,39.1448858 C24.5145894,39.4228693 24.2720987,39.6226132 23.9863431,39.6371212 C23.9754621,39.6376393 23.9645811,39.6378984 23.9537001,39.6378984" id="Fill-1" fill="#FFFFFF"></path>
                </g>
                <g id="Group-6" transform="translate(0.000000, 0.163474)">
                    <mask id="mask-2" fill="white">
                        <use xlink:href="#path-1"></use>
                    </mask>
                    <g id="Clip-5"></g>
                    <path d="M15.7355203,31.5672337 C7.05896565,31.5672337 5.18142463e-05,24.5083198 5.18142463e-05,15.8317652 C5.18142463e-05,7.15495154 7.05896565,0.095519563 15.7355203,0.095519563 C24.4123339,0.095519563 31.4715068,7.15495154 31.4715068,15.8317652 C31.4715068,16.1895426 31.1816061,16.4794433 30.8238288,16.4794433 C30.4660514,16.4794433 30.1761507,16.1895426 30.1761507,15.8317652 C30.1761507,7.86895186 23.6980746,1.39087572 15.7355203,1.39087572 C7.77322504,1.39087572 1.29540797,7.86895186 1.29540797,15.8317652 C1.29540797,23.7940604 7.77322504,30.2718775 15.7355203,30.2718775 C16.0932976,30.2718775 16.3831983,30.5617782 16.3831983,30.9195556 C16.3831983,31.277333 16.0932976,31.5672337 15.7355203,31.5672337" id="Fill-4" fill="#FFFFFF" mask="url(#mask-2)"></path>
                </g>
                <path d="M13.7196352,24.3459081 C13.6654893,24.3459081 13.6103071,24.3391722 13.5556431,24.3246642 C9.77061242,23.3368256 7.12730864,19.9116449 7.12730864,15.9952651 C7.12730864,11.2483029 10.9890244,7.38658713 15.7354684,7.38658713 C19.6451124,7.38658713 23.0689978,10.0241913 24.0617587,13.8004136 C24.1526927,14.1462737 23.9459539,14.5004241 23.6000938,14.5916171 C23.2557881,14.6812558 22.8998243,14.4758123 22.8088903,14.1296931 C21.9656134,10.9223913 19.0570207,8.68194329 15.7354684,8.68194329 C11.7032838,8.68194329 8.4226648,11.9625623 8.4226648,15.9952651 C8.4226648,19.3222578 10.6680352,22.232405 13.882591,23.0712776 C14.2287102,23.1616935 14.4362262,23.5153257 14.3458104,23.8614449 C14.2699025,24.1529 14.0069452,24.3459081 13.7196352,24.3459081" id="Fill-7" fill="#FFFFFF"></path>
            </g>
        </g>
    </g>
</svg>