<?xml version="1.0" encoding="UTF-8"?>
<svg width="25px" height="33px" viewBox="0 0 25 33" version="1.1" xmlns="http://www.w3.org/2000/svg" xmlns:xlink="http://www.w3.org/1999/xlink">
    <!-- Generator: Sketch 49.2 (51160) - http://www.bohemiancoding.com/sketch -->
    <title>Page 1</title>
    <desc>Created with Sketch.</desc>
    <defs></defs>
    <g id="HD-Desktop-1920---1440-px" stroke="none" stroke-width="1" fill="none" fill-rule="evenodd">
        <g id="HD-Desktop_EDU-Today" transform="translate(-509.000000, -522.000000)" fill="#FFFFFF">
            <g id="Page-1" transform="translate(509.000000, 522.000000)">
                <path d="M16.2227957,11.612802 L17.2080108,11.612802 C17.6418817,11.612802 17.9222581,11.884548 17.9222581,12.3048553 C17.9222581,12.7365295 17.648871,13.0048389 17.2080108,13.0048389 L16.2227957,13.0048389 L16.2227957,11.612802 Z M16.2227957,9.46738402 L17.0918817,9.46738402 C17.4822043,9.46738402 17.706129,9.68097418 17.706129,10.0534352 C17.706129,10.4232529 17.4711828,10.6624844 17.1074731,10.6624844 L16.2227957,10.6624844 L16.2227957,9.46738402 Z M15.1418817,14.0080254 L17.1305914,14.0080254 C17.6827419,14.0080254 18.159086,13.8718881 18.5082796,13.6146811 C18.9012903,13.3252242 19.1088172,12.8932857 19.1088172,12.3656545 C19.1088172,11.774052 18.7999462,11.2836934 18.3093548,11.0751258 C18.6719892,10.8255848 18.8843548,10.4089783 18.8843548,9.93236557 C18.8843548,9.54034303 18.7496774,9.20911967 18.5066667,8.9614291 C18.1972581,8.64527336 17.7123118,8.46446189 17.1074731,8.46446189 L15.1418817,8.46446189 C15.0964516,8.46446189 15.0593548,8.50067705 15.0593548,8.54535123 L15.0593548,9.40420574 L15.0593548,13.9271361 C15.0593548,13.9718102 15.0964516,14.0080254 15.1418817,14.0080254 Z" id="Fill-1"></path>
                <path d="M14.1935484,13.0048918 L11.861828,13.0048918 L11.861828,11.7185926 L13.6284946,11.7185926 C13.6741935,11.7185926 13.7110215,11.6826418 13.7110215,11.6379676 L13.7110215,10.7965598 C13.7110215,10.7518857 13.6741935,10.7156705 13.6284946,10.7156705 L11.861828,10.7156705 L11.861828,9.46743689 L14.0696237,9.46743689 C14.1153226,9.46743689 14.1521505,9.43122172 14.1521505,9.38654754 L14.1521505,8.54513975 C14.1521505,8.52478525 14.144086,8.5060168 14.1311828,8.49200656 C14.116129,8.47508852 14.0943548,8.46451475 14.0696237,8.46451475 L10.7811828,8.46451475 C10.7357527,8.46451475 10.6986559,8.50046557 10.6986559,8.54513975 L10.6986559,13.9271889 C10.6986559,13.9718631 10.7357527,14.0080783 10.7811828,14.0080783 L14.1935484,14.0080783 C14.2389785,14.0080783 14.2760753,13.9718631 14.2760753,13.9271889 L14.2760753,13.0857811 C14.2760753,13.041107 14.2389785,13.0048918 14.1935484,13.0048918" id="Fill-3"></path>
                <g id="Group-7" transform="translate(0.000000, 0.158342)">
                    <path d="M8.21,6.94165389 L14.7726344,4.64926045 L21.2863441,6.94165389 L21.2863441,11.5348998 L21.2863441,15.3993486 L14.7726344,17.5080227 L8.21,15.3993486 L8.21,6.94165389 Z M3.85193548,25.5443527 L6.99790323,25.5443527 L6.98580645,27.1687482 L3.85193548,27.1687482 C3.32586022,27.1687482 2.89978495,26.8050105 2.89978495,26.3564182 C2.89978495,25.9080904 3.32586022,25.5443527 3.85193548,25.5443527 Z M24.8022043,22.4573404 L24.8022043,0.105975615 L3.65704301,0.178934631 C1.62827957,0.186071926 -0.00639784946,1.80888135 5.37634409e-05,3.80203709 L0.115645161,25.5956355 C0.122903226,27.5885268 1.77021505,29.1986477 3.79897849,29.1920391 L6.97102151,29.1809367 L6.95408602,31.4535043 C6.95112903,31.6522912 7.07397849,31.8317809 7.26672043,31.9097625 C7.3288172,31.9356682 7.39494624,31.9472994 7.46215054,31.9488855 C7.59360215,31.9499428 7.72586022,31.8994531 7.82424731,31.8058752 L10.0293548,29.7088322 L12.2062366,31.8378609 C12.3043548,31.9332891 12.4336559,31.9845719 12.5661828,31.9856293 C12.6309677,31.9858936 12.6984409,31.9737338 12.7621505,31.9494141 C12.9551613,31.8735473 13.0777419,31.6964367 13.0817742,31.4963281 L13.0616129,29.1600535 L24.8022043,29.1193445 L24.8022043,27.1687482 L13.0444086,27.1687482 L13.0304301,25.5443527 L24.8022043,25.5443527 L24.8022043,23.2926682 L4.33930108,23.2926682 C2.35677419,23.2926682 1.20462366,24.6157113 1.20462366,24.6157113 L1.10516129,4.61621742 C1.10516129,2.02749406 2.33284946,1.19718873 3.77209677,1.19718873 L3.77209677,22.4573404 L24.8022043,22.4573404 Z" id="Fill-5"></path>
                </g>
            </g>
        </g>
    </g>
</svg>