<?xml version="1.0" encoding="UTF-8"?>
<svg width="99px" height="100px" viewBox="0 0 99 100" version="1.1" xmlns="http://www.w3.org/2000/svg" xmlns:xlink="http://www.w3.org/1999/xlink">
    <!-- Generator: Sketch 49.2 (51160) - http://www.bohemiancoding.com/sketch -->
    <title>Page 1</title>
    <desc>Created with Sketch.</desc>
    <defs></defs>
    <g id="HD-Desktop-1920---1440-px" stroke="none" stroke-width="1" fill="none" fill-rule="evenodd" opacity="0.05">
        <g id="HD-Desktop_EDU-Promo" transform="translate(-737.000000, -253.000000)" fill="#FEFEFE">
            <g id="Page-1" transform="translate(737.000000, 253.000000)">
                <path d="M25.5631868,53.5221429 C25.2115385,53.5221429 24.8604396,53.3880769 24.5917582,53.1199451 C24.0554945,52.5831319 24.0554945,51.7133516 24.5917582,51.1770879 L71.0763736,4.69521978 C71.6131868,4.15840659 72.4824176,4.15840659 73.0186813,4.69521978 C73.5554945,5.23148352 73.5554945,6.10126374 73.0186813,6.63752747 L26.5346154,53.1199451 C26.2659341,53.3880769 25.9148352,53.5221429 25.5631868,53.5221429" id="Fill-1"></path>
                <path d="M4.77741758,99.6142857 C2.8493956,99.6142857 1.85159341,99.0351648 1.21587912,98.3989011 C-0.411043956,96.771978 -1.66653846,92.7763736 6.18565934,76.9263736 C10.3263187,68.5675824 15.1378571,60.7153846 15.1862088,60.6373626 C15.2428022,60.5456044 15.3092857,60.460989 15.3856593,60.3851648 L26.0917033,49.6769231 C26.6285165,49.1406593 27.4977473,49.1406593 28.034011,49.6769231 C28.5708242,50.2131868 28.5708242,51.082967 28.034011,51.6192308 L17.4439011,62.2115385 C16.7900549,63.2862637 12.4274176,70.5131868 8.64005495,78.1604396 C1.14445055,93.2961538 2.75818681,96.0565934 3.15818681,96.4565934 C3.55873626,96.8554945 6.31917582,98.4703297 21.466978,90.967033 C29.1136813,87.1791209 36.3285165,82.8236264 37.4021429,82.1708791 L43.0636813,76.5065934 C43.5999451,75.9703297 44.4697253,75.9708791 45.0065385,76.506044 C45.5428022,77.0428571 45.5428022,77.9126374 45.0070879,78.4489011 L39.2290659,84.2291209 C39.1526923,84.3054945 39.0680769,84.371978 38.9763187,84.428022 C38.8982967,84.4763736 31.0455495,89.2879121 22.6867582,93.4285714 C13.0351099,98.2093407 7.77906593,99.6142857 4.77741758,99.6142857" id="Fill-3"></path>
                <path d="M45.0268132,77.86 C44.6751648,77.86 44.3240659,77.7259341 44.0553846,77.4578022 C43.5191209,76.920989 43.5191209,76.0517582 44.0553846,75.5149451 L92.9751648,26.5957143 C93.5114286,26.0594505 94.3806593,26.0594505 94.9174725,26.5957143 C95.4537363,27.1325275 95.4537363,28.0017582 94.9174725,28.538022 L45.9982418,77.4578022 C45.7295604,77.7259341 45.3784615,77.86 45.0268132,77.86" id="Fill-5"></path>
                <path d="M16.0518681,94.6746154 C15.4765934,94.6746154 14.9414286,94.3108791 14.7491209,93.7361538 C14.730989,93.6817582 13.7623077,90.8762637 11.6172527,88.7301099 C9.42714286,86.5416484 6.44802198,85.4378022 6.4178022,85.4273626 C5.70516484,85.1669231 5.33813187,84.3784615 5.59857143,83.6658242 C5.85846154,82.9531868 6.64802198,82.5861538 7.36010989,82.8465934 C7.50461538,82.8993407 10.9441758,84.1740659 13.5595604,86.7872527 C16.1875824,89.4169231 17.309011,92.7273626 17.3551648,92.8669231 C17.5947253,93.5872527 17.2057143,94.3647253 16.4853846,94.6037363 C16.3414286,94.6515385 16.1952747,94.6746154 16.0518681,94.6746154" id="Fill-7"></path>
                <path d="M37.6677473,83.7655495 C37.2100549,83.7655495 36.7628022,83.5364286 36.5018132,83.1199451 C36.4677473,83.0660989 33.0562088,77.6452198 27.9715934,72.5606044 C22.8737912,67.4633516 17.1095055,63.7122527 17.0518132,63.6754396 C16.415,63.2633516 16.2325824,62.4128022 16.6446703,61.775989 C17.0573077,61.1386264 17.9056593,60.9556593 18.5435714,61.3677473 C18.7886264,61.525989 24.6034615,65.3073077 29.9139011,70.6182967 C35.2298352,75.9336813 38.686978,81.4331319 38.8314835,81.6644505 C39.2336813,82.3078571 39.0375275,83.1545604 38.3946703,83.5567582 C38.1682967,83.697967 37.9166484,83.7655495 37.6677473,83.7655495" id="Fill-9"></path>
                <path d="M93.9472527,28.9406593 C93.5087912,28.9406593 93.078022,28.7313187 92.8120879,28.3417582 C92.7681319,28.2774725 88.3741758,21.8736264 83.0582418,16.5565934 C77.7324176,11.2318681 71.3368132,6.84395604 71.2725275,6.80054945 C70.6467033,6.37307692 70.4857143,5.51813187 70.9131868,4.89120879 C71.3412088,4.26483516 72.1961538,4.1043956 72.8225275,4.53186813 C73.0923077,4.71593407 79.4950549,9.10934066 85.0005495,14.6142857 C90.5032967,20.1175824 94.8967033,26.5225275 95.0807692,26.7928571 C95.5082418,27.4186813 95.3472527,28.2736264 94.7208791,28.7010989 C94.4840659,28.8631868 94.2142857,28.9406593 93.9472527,28.9406593" id="Fill-11"></path>
                <path d="M85.8557143,37.0310989 C85.4172527,37.0310989 84.9864835,36.8217582 84.7205495,36.4321978 C84.6765934,36.3684615 80.2820879,29.9651648 74.9650549,24.6481319 C69.6397802,19.323956 63.2436264,14.9382418 63.1793407,14.8942857 C62.552967,14.4668132 62.391978,13.6118681 62.8194505,12.9854945 C63.2469231,12.3596703 64.1024176,12.1975824 64.7282418,12.6256044 C64.998022,12.8096703 71.4024176,17.2014286 76.9073626,22.7058242 C82.4112088,28.2091209 86.8051648,34.612967 86.9892308,34.8827473 C87.4167033,35.5091209 87.2557143,36.3635165 86.6293407,36.7915385 C86.3925275,36.9530769 86.1227473,37.0310989 85.8557143,37.0310989" id="Fill-13"></path>
                <path d="M93.3001099,26.2298901 C92.9484615,26.2298901 92.5973626,26.0958242 92.3286813,25.8276923 C91.7924176,25.2908791 91.7924176,24.4210989 92.3286813,23.8848352 C95.220989,20.9930769 96.4649451,18.2485714 96.131978,15.4941758 C95.8325275,13.0183516 94.2512088,10.3793407 91.2984615,7.42604396 C85.231978,1.36120879 80.7056044,1.16120879 75.1545055,6.71285714 C74.6176923,7.24912088 73.7484615,7.24912088 73.2116484,6.71285714 C72.6753846,6.17604396 72.6753846,5.30626374 73.2116484,4.77 C81.8676923,-3.88604396 88.7885714,1.03373626 93.2413187,5.48318681 C96.6457143,8.88813187 98.4836264,12.0546154 98.8594505,15.163956 C99.3006593,18.8117582 97.7995604,22.2996703 94.2715385,25.8276923 C94.0028571,26.0958242 93.6517582,26.2298901 93.3001099,26.2298901" id="Fill-15"></path>
                <path d="M37.6612637,70.493956 C37.3096154,70.493956 36.9585165,70.3598901 36.6898352,70.0917582 C36.1535714,69.5549451 36.1535714,68.6851648 36.6898352,68.1489011 L72.2771978,32.5637363 C72.814011,32.0269231 73.6832418,32.0269231 74.2195055,32.5637363 C74.7563187,33.1 74.7563187,33.9697802 74.2195055,34.506044 L38.6326923,70.0917582 C38.364011,70.3598901 38.0129121,70.493956 37.6612637,70.493956" id="Fill-17"></path>
                <path d="M29.7843956,62.6138462 C29.4327473,62.6138462 29.0816484,62.4797802 28.812967,62.2116484 C28.2767033,61.6748352 28.2767033,60.8056044 28.812967,60.2687912 L64.3975824,24.6847253 C64.9343956,24.1479121 65.8036264,24.1479121 66.3398901,24.6847253 C66.8767033,25.220989 66.8767033,26.0902198 66.3398901,26.627033 L30.7558242,62.2116484 C30.4871429,62.4797802 30.136044,62.6138462 29.7843956,62.6138462" id="Fill-19"></path>
            </g>
        </g>
    </g>
</svg>