<?xml version="1.0" encoding="UTF-8"?>
<svg width="245px" height="38px" viewBox="0 0 245 38" version="1.1" xmlns="http://www.w3.org/2000/svg" xmlns:xlink="http://www.w3.org/1999/xlink">
    <!-- Generator: Sketch 49.1 (51147) - http://www.bohemiancoding.com/sketch -->
    <title>Page 1 Copy 4</title>
    <desc>Created with Sketch.</desc>
    <defs>
        <polygon id="path-1" points="0 38 244.376 38 244.376 0.852 0 0.852"></polygon>
    </defs>
    <g id="HD-Desktop-1920---1440-px" stroke="none" stroke-width="1" fill="none" fill-rule="evenodd">
        <g id="HD-Desktop_EDU-Plans" transform="translate(-40.000000, -32.000000)">
            <g id="Page-1-Copy-4" transform="translate(40.000000, 30.000000)">
                <polygon id="Fill-1" fill="#2D2F45" points="0 39.1474 70.584 39.1474 70.584 2.0014 0 2.0014"></polygon>
                <polygon id="Fill-2" fill="#FCB528" points="20.3606 22.069 12.7886 22.069 12.7886 26.957 21.2466 26.957 21.2466 30.775 8.1126 30.775 8.1126 10.191 20.8186 10.191 20.8186 14.009 12.7886 14.009 12.7886 18.281 20.3606 18.281"></polygon>
                <g id="Group-22" transform="translate(0.000000, 1.147400)">
                    <path d="M29.091,26.115 C29.489,26.209 30.133,26.209 30.709,26.209 C34.923,26.235 37.673,23.915 37.673,18.999 C37.705,14.725 35.201,12.463 31.203,12.463 C30.161,12.463 29.489,12.557 29.091,12.651 L29.091,26.115 Z M24.423,9.317 C26.133,9.043 28.359,8.893 30.709,8.893 C34.623,8.893 37.155,9.595 39.137,11.091 C41.277,12.675 42.623,15.213 42.623,18.845 C42.623,22.785 41.187,25.505 39.201,27.183 C37.035,28.987 33.735,29.839 29.705,29.839 C27.291,29.839 25.579,29.683 24.423,29.535 L24.423,9.317 Z" id="Fill-3" fill="#FCB528"></path>
                    <path d="M50.3156,9.0426 L50.3156,20.8926 C50.3156,24.4326 51.6596,26.2346 54.0396,26.2346 C56.4836,26.2346 57.8296,24.5266 57.8296,20.8926 L57.8296,9.0426 L62.4736,9.0426 L62.4736,20.5846 C62.4736,26.9366 59.2636,29.9606 53.8876,29.9606 C48.6956,29.9606 45.6416,27.0886 45.6416,20.5246 L45.6416,9.0426 L50.3156,9.0426 Z" id="Fill-5" fill="#FCB528"></path>
                    <path d="M100.673,21.0192 L99.349,16.5092 C98.967,15.2452 98.591,13.6692 98.273,12.4052 L98.211,12.4052 C97.893,13.6692 97.581,15.2792 97.229,16.5092 L95.969,21.0192 L100.673,21.0192 Z M95.277,24.6152 L93.761,30.0772 L88.773,30.0772 L95.277,8.8092 L101.589,8.8092 L108.181,30.0772 L103.007,30.0772 L101.367,24.6152 L95.277,24.6152 Z" id="Fill-7" fill="#2D2F45"></path>
                    <polygon id="Fill-9" fill="#2D2F45" points="111.0168 8.8084 124.0188 8.8084 124.0188 12.7544 115.8448 12.7544 115.8448 17.6124 123.4808 17.6124 123.4808 21.5224 115.8448 21.5224 115.8448 30.0784 111.0168 30.0784"></polygon>
                    <polygon id="Fill-11" fill="#2D2F45" points="127.6438 8.8084 140.6458 8.8084 140.6458 12.7544 132.4718 12.7544 132.4718 17.6124 140.1098 17.6124 140.1098 21.5224 132.4718 21.5224 132.4718 30.0784 127.6438 30.0784"></polygon>
                    <mask id="mask-2" fill="white">
                        <use xlink:href="#path-1"></use>
                    </mask>
                    <g id="Clip-14"></g>
                    <polygon id="Fill-13" fill="#2D2F45" mask="url(#mask-2)" points="144.272 30.078 149.098 30.078 149.098 8.808 144.272 8.808"></polygon>
                    <polygon id="Fill-15" fill="#2D2F45" mask="url(#mask-2)" points="153.2628 8.8084 158.0888 8.8084 158.0888 26.0364 166.5468 26.0364 166.5468 30.0784 153.2628 30.0784"></polygon>
                    <polygon id="Fill-16" fill="#2D2F45" mask="url(#mask-2)" points="169.382 30.078 174.212 30.078 174.212 8.808 169.382 8.808"></polygon>
                    <path d="M188.7218,21.0192 L187.4018,16.5092 C187.0198,15.2452 186.6418,13.6692 186.3258,12.4052 L186.2638,12.4052 C185.9478,13.6692 185.6318,15.2792 185.2838,16.5092 L184.0238,21.0192 L188.7218,21.0192 Z M183.3298,24.6152 L181.8178,30.0772 L176.8318,30.0772 L183.3298,8.8092 L189.6398,8.8092 L196.2358,30.0772 L191.0598,30.0772 L189.4218,24.6152 L183.3298,24.6152 Z" id="Fill-17" fill="#2D2F45" mask="url(#mask-2)"></path>
                    <polygon id="Fill-18" fill="#2D2F45" mask="url(#mask-2)" points="200.5538 12.8494 194.8418 12.8494 194.8418 8.8074 211.1878 8.8074 211.1878 12.8494 205.3838 12.8494 205.3838 30.0774 200.5538 30.0774"></polygon>
                    <polygon id="Fill-19" fill="#2D2F45" mask="url(#mask-2)" points="226.3956 21.0838 218.5716 21.0838 218.5716 26.1338 227.3116 26.1338 227.3116 30.0778 213.7436 30.0778 213.7436 8.8078 226.8696 8.8078 226.8696 12.7538 218.5716 12.7538 218.5716 17.1718 226.3956 17.1718"></polygon>
                    <path d="M230.7454,25.1266 C232.0394,25.7826 234.0294,26.4506 236.0794,26.4506 C238.2874,26.4506 239.4534,25.5326 239.4534,24.1466 C239.4534,22.8206 238.4474,22.0626 235.8894,21.1486 C232.3554,19.9166 230.0474,17.9606 230.0474,14.8666 C230.0474,11.2386 233.0794,8.4606 238.1014,8.4606 C240.4974,8.4606 242.2654,8.9686 243.5274,9.5346 L242.4534,13.4166 C241.6014,13.0046 240.0874,12.4066 238.0054,12.4066 C235.9194,12.4066 234.9074,13.3526 234.9074,14.4566 C234.9074,15.8146 236.1114,16.4146 238.8554,17.4566 C242.6114,18.8426 244.3754,20.7986 244.3754,23.7966 C244.3754,27.3666 241.6314,30.3906 235.7954,30.3906 C233.3654,30.3906 230.9674,29.7626 229.7694,29.0986 L230.7454,25.1266 Z" id="Fill-20" fill="#2D2F45" mask="url(#mask-2)"></path>
                    <polygon id="Fill-21" fill="#262631" mask="url(#mask-2)" points="75.532 21.406 83.846 21.406 83.846 17.446 75.532 17.446"></polygon>
                </g>
            </g>
        </g>
    </g>
</svg>