<?xml version="1.0" encoding="UTF-8"?>
<svg width="257px" height="40px" viewBox="0 0 257 40" version="1.1" xmlns="http://www.w3.org/2000/svg" xmlns:xlink="http://www.w3.org/1999/xlink">
    <!-- Generator: Sketch 49.1 (51147) - http://www.bohemiancoding.com/sketch -->
    <title>Page 1 Copy 5</title>
    <desc>Created with Sketch.</desc>
    <defs>
        <polygon id="path-1" points="0 39.1097434 256.657459 39.1097434 256.657459 0.0948184566 0 0.0948184566"></polygon>
    </defs>
    <g id="UiKit" stroke="none" stroke-width="1" fill="none" fill-rule="evenodd">
        <g id="EDU-BTN_Адаптация-меню" transform="translate(-570.000000, -389.000000)">
            <g id="Group-7" transform="translate(570.000000, 213.000000)">
                <g id="Page-1-Copy-5" transform="translate(0.000000, 176.000000)">
                    <polygon id="Fill-1" fill="#2D2F45" points="0 39.5148076 74.131298 39.5148076 74.131298 0.501983168 0 0.501983168"></polygon>
                    <polygon id="Fill-2" fill="#FCB528" points="21.3838505 21.5781086 13.4313091 21.5781086 13.4313091 26.7117619 22.3143777 26.7117619 22.3143777 30.7216408 8.52031011 30.7216408 8.52031011 9.10316302 21.864868 9.10316302 21.864868 13.113042 13.4313091 13.113042 13.4313091 17.5997373 21.3838505 17.5997373"></polygon>
                    <g id="Group-22" transform="translate(0.000000, 0.405064)">
                        <path d="M30.5530091,26.627446 C30.9710111,26.7261701 31.6473762,26.7261701 32.2523239,26.7261701 C36.6781044,26.7534768 39.5663095,24.3168819 39.5663095,19.1538214 C39.5999177,14.6650256 36.9700757,12.2893456 32.7711506,12.2893456 C31.6767834,12.2893456 30.9710111,12.3880697 30.5530091,12.4867938 L30.5530091,26.627446 Z M25.6504122,8.98523892 C27.4463506,8.69746867 29.7842214,8.5399302 32.2523239,8.5399302 C36.3630275,8.5399302 39.0222767,9.2772102 41.1038849,10.8483938 C43.3514336,12.5119999 44.7650787,15.1775507 44.7650787,18.9920819 C44.7650787,23.1300922 43.2569105,25.9867896 41.1711013,27.7491198 C38.8962459,29.6437824 35.4303998,30.5386009 31.1978665,30.5386009 C28.6625475,30.5386009 26.8645086,30.3747609 25.6504122,30.2193229 L25.6504122,8.98523892 Z" id="Fill-3" fill="#FCB528"></path>
                        <path d="M52.8442811,8.69704856 L52.8442811,21.142587 C52.8442811,24.8604946 54.2558257,26.7530567 56.755436,26.7530567 C59.3222626,26.7530567 60.7359078,24.9592187 60.7359078,21.142587 L60.7359078,8.69704856 L65.6132985,8.69704856 L65.6132985,20.819108 C65.6132985,27.4903367 62.2419754,30.666312 56.595797,30.666312 C51.1428658,30.666312 47.9353827,27.6499756 47.9353827,20.7560926 L47.9353827,8.69704856 L52.8442811,8.69704856 Z" id="Fill-5" fill="#FCB528"></path>
                        <path d="M105.732463,21.2755494 L104.341924,16.538893 C103.940726,15.2113689 103.545829,13.5561648 103.211848,12.2286407 L103.146732,12.2286407 C102.81275,13.5561648 102.48507,15.2470777 102.11538,16.538893 L100.792057,21.2755494 L105.732463,21.2755494 Z M100.065279,25.0522714 L98.4730907,30.7887719 L93.2344118,30.7887719 L100.065279,8.45191872 L106.694498,8.45191872 L113.617788,30.7887719 L108.183761,30.7887719 L106.461341,25.0522714 L100.065279,25.0522714 Z" id="Fill-7" fill="#2D2F45"></path>
                        <polygon id="Fill-9" fill="#2D2F45" points="116.596105 8.45107851 130.251539 8.45107851 130.251539 12.5953903 121.666743 12.5953903 121.666743 17.6975359 129.686501 17.6975359 129.686501 21.8040384 121.666743 21.8040384 121.666743 30.7900322 116.596105 30.7900322"></polygon>
                        <polygon id="Fill-11" fill="#2D2F45" points="134.058718 8.45107851 147.714152 8.45107851 147.714152 12.5953903 139.129356 12.5953903 139.129356 17.6975359 147.151215 17.6975359 147.151215 21.8040384 139.129356 21.8040384 139.129356 30.7900322 134.058718 30.7900322"></polygon>
                        <mask id="mask-2" fill="white">
                            <use xlink:href="#path-1"></use>
                        </mask>
                        <g id="Clip-14"></g>
                        <polygon id="Fill-13" fill="#2D2F45" mask="url(#mask-2)" points="151.522592 30.7896121 156.591129 30.7896121 156.591129 8.45065841 151.522592 8.45065841"></polygon>
                        <polygon id="Fill-15" fill="#2D2F45" mask="url(#mask-2)" points="160.965237 8.45107851 166.033775 8.45107851 166.033775 26.5448958 174.916843 26.5448958 174.916843 30.7900322 160.965237 30.7900322"></polygon>
                        <polygon id="Fill-16" fill="#2D2F45" mask="url(#mask-2)" points="177.89453 30.7896121 182.967269 30.7896121 182.967269 8.45065841 177.89453 8.45065841"></polygon>
                        <path d="M198.206279,21.2755494 L196.819941,16.538893 C196.418743,15.2113689 196.021746,13.5561648 195.689865,12.2286407 L195.624749,12.2286407 C195.292868,13.5561648 194.960987,15.2470777 194.595498,16.538893 L193.272175,21.2755494 L198.206279,21.2755494 Z M192.543297,25.0522714 L190.955309,30.7887719 L185.71873,30.7887719 L192.543297,8.45191872 L199.170414,8.45191872 L206.097906,30.7887719 L200.661779,30.7887719 L198.941459,25.0522714 L192.543297,25.0522714 Z" id="Fill-17" fill="#2D2F45" mask="url(#mask-2)"></path>
                        <polygon id="Fill-18" fill="#2D2F45" mask="url(#mask-2)" points="210.632913 12.6951646 204.633848 12.6951646 204.633848 8.45002826 221.801339 8.45002826 221.801339 12.6951646 215.705651 12.6951646 215.705651 30.788982 210.632913 30.788982"></polygon>
                        <polygon id="Fill-19" fill="#2D2F45" mask="url(#mask-2)" points="237.773429 21.343396 229.556223 21.343396 229.556223 26.6471908 238.735464 26.6471908 238.735464 30.7894021 224.485585 30.7894021 224.485585 8.45044836 238.27125 8.45044836 238.27125 12.5947601 229.556223 12.5947601 229.556223 17.2347929 237.773429 17.2347929"></polygon>
                        <path d="M242.341834,25.5893726 C243.700866,26.2783408 245.790876,26.9799121 247.943902,26.9799121 C250.262868,26.9799121 251.487467,26.0157767 251.487467,24.5601213 C251.487467,23.1674813 250.430909,22.3713869 247.744353,21.4114526 C244.032747,20.1175367 241.608755,18.0632352 241.608755,14.8137419 C241.608755,11.0034116 244.793133,8.08579934 250.06752,8.08579934 C252.583935,8.08579934 254.440788,8.61932959 255.766211,9.21377471 L254.638236,13.2908701 C253.743418,12.8581644 252.153329,12.2301111 249.966696,12.2301111 C247.775861,12.2301111 246.713001,13.2236537 246.713001,14.3831367 C246.713001,15.8093849 247.97751,16.4395388 250.859414,17.5339059 C254.804177,18.9895613 256.656829,21.0438629 256.656829,24.1925316 C256.656829,27.9419469 253.774925,31.1179223 247.645629,31.1179223 C245.093506,31.1179223 242.574991,30.4583613 241.316784,29.760991 L242.341834,25.5893726 Z" id="Fill-20" fill="#2D2F45" mask="url(#mask-2)"></path>
                        <polygon id="Fill-21" fill="#262631" mask="url(#mask-2)" points="79.3279667 21.6817886 88.0597985 21.6817886 88.0597985 17.5227732 79.3279667 17.5227732"></polygon>
                    </g>
                </g>
            </g>
        </g>
    </g>
</svg>