<?xml version="1.0" encoding="UTF-8"?>
<svg width="34px" height="20px" viewBox="0 0 34 20" version="1.1" xmlns="http://www.w3.org/2000/svg" xmlns:xlink="http://www.w3.org/1999/xlink">
    <!-- Generator: Sketch 49.1 (51147) - http://www.bohemiancoding.com/sketch -->
    <title>Page 1</title>
    <desc>Created with Sketch.</desc>
    <defs></defs>
    <g id="HD-Desktop-1920---1440-px" stroke="none" stroke-width="1" fill="none" fill-rule="evenodd">
        <g id="HD-Desktop_EDU-Main" transform="translate(-499.000000, -1341.000000)">
            <g id="Group-3" transform="translate(396.000000, 1321.000000)">
                <g id="Page-1" transform="translate(103.000000, 20.000000)">
                    <polygon id="Fill-1" fill="#EA0020" points="0 19.5781 7.896 19.5781 7.896 0.0001 0 0.0001"></polygon>
                    <polygon id="Fill-2" fill="#EA0020" points="25.667 19.5781 33.563 19.5781 33.563 0.0001 25.667 0.0001"></polygon>
                    <polygon id="Fill-3" fill="#FFFFFF" points="7.896 19.5781 25.667 19.5781 25.667 0.0001 7.896 0.0001"></polygon>
                    <path d="M16.7813,2.5381 L15.6163,4.8001 C15.4843,5.0461 15.2483,5.0201 15.0103,4.8851 L14.1673,4.4291 L14.7963,7.9051 C14.9283,8.5411 14.5043,8.5411 14.2953,8.2671 L12.8243,6.5511 L12.5853,7.4211 C12.5583,7.5341 12.4373,7.6561 12.2553,7.6271 L10.3953,7.2181 L10.8843,9.0681 C10.9903,9.4811 11.0693,9.6521 10.7783,9.7611 L10.1153,10.0851 L13.3183,12.7951 C13.4433,12.8981 13.5103,13.0801 13.4623,13.2481 L13.1823,14.2071 C14.2843,14.0751 15.2743,13.9541 16.3743,13.8211 C16.4713,13.8211 16.6353,13.9081 16.6353,14.0251 L16.4883,17.5351 L17.0253,17.5351 L16.9393,14.0331 C16.9393,13.9191 17.0883,13.8211 17.1833,13.8211 C18.2873,13.9541 19.2753,14.0751 20.3783,14.2071 L20.0953,13.2481 C20.0523,13.0801 20.1173,12.8981 20.2423,12.7951 L23.4443,10.0851 L22.7813,9.7611 C22.4893,9.6521 22.5713,9.4811 22.6763,9.0681 L23.1653,7.2181 L21.3043,7.6271 C21.1223,7.6561 21.0023,7.5341 20.9743,7.4211 L20.7363,6.5511 L19.2643,8.2671 C19.0553,8.5411 18.6323,8.5411 18.7643,7.9051 L19.3913,4.4291 L18.5513,4.8851 C18.3123,5.0201 18.0753,5.0461 17.9453,4.8001 L16.7813,2.5381 Z" id="Fill-4" fill="#EA0020"></path>
                </g>
            </g>
        </g>
    </g>
</svg>