<?xml version="1.0" encoding="UTF-8"?>
<svg width="34px" height="21px" viewBox="0 0 34 21" version="1.1" xmlns="http://www.w3.org/2000/svg" xmlns:xlink="http://www.w3.org/1999/xlink">
    <!-- Generator: Sketch 49.1 (51147) - http://www.bohemiancoding.com/sketch -->
    <title>Untitled-1</title>
    <desc>Created with Sketch.</desc>
    <defs>
        <polygon id="path-1" points="0.00397660819 0.0344375 33.9337895 0.0344375 33.9337895 20.99625 0.00397660819 20.99625"></polygon>
    </defs>
    <g id="UiKit" stroke="none" stroke-width="1" fill="none" fill-rule="evenodd">
        <g id="EDU-BTN_01" transform="translate(-518.000000, -669.000000)">
            <g id="Untitled-1" transform="translate(518.000000, 669.000000)">
                <g id="Group-11">
                    <mask id="mask-2" fill="white">
                        <use xlink:href="#path-1"></use>
                    </mask>
                    <g id="Clip-2"></g>
                    <path d="M33.3486316,21 L0.585091618,21 C0.261992203,21 0,20.7529375 0,20.44825 L0,0.5861875 C0,0.2815 0.261992203,0.0344375 0.585091618,0.0344375 L33.3486979,0.0344375 C33.6717973,0.0344375 33.9337895,0.2815 33.9337895,0.5861875 L33.9337895,20.44825 C33.9337232,20.753 33.671731,21 33.3486316,21" id="Fill-1" fill="#F8F7F5" mask="url(#mask-2)"></path>
                    <path d="M33.9337895,1.64725 L0,1.64725 L0,0.5861875 C0,0.2815 0.261992203,0.0344375 0.585091618,0.0344375 L33.3486979,0.0344375 C33.6717973,0.0344375 33.9337895,0.2815 33.9337895,0.5861875 L33.9337895,1.64725" id="Fill-3" fill="#DE4A53" mask="url(#mask-2)"></path>
                    <polygon id="Fill-4" fill="#DE4A53" mask="url(#mask-2)" points="0.00397660819 8.098125 33.9337232 8.098125 33.9337232 6.485375 0.00397660819 6.485375"></polygon>
                    <polygon id="Fill-5" fill="#DE4A53" mask="url(#mask-2)" points="0.00397660819 4.8725 33.9337232 4.8725 33.9337232 3.25975 0.00397660819 3.25975"></polygon>
                    <path d="M33.9337232,11.323625 L0.585091618,11.323625 C0.261992203,11.323625 0,11.0765625 0,10.771875 L0,9.7108125 L33.9337232,9.7108125 L33.9337232,11.323625" id="Fill-6" fill="#DE4A53" mask="url(#mask-2)"></path>
                    <polygon id="Fill-7" fill="#DE4A53" mask="url(#mask-2)" points="0.00397660819 17.775 33.9337232 17.775 33.9337232 16.16225 0.00397660819 16.16225"></polygon>
                    <path d="M33.3486316,21 L0.585091618,21 C0.261992203,21 0,20.7529375 0,20.44825 L0,19.38725 L33.9337232,19.38725 L33.9337232,20.4483125 C33.9337232,20.753 33.671731,21 33.3486316,21" id="Fill-8" fill="#DE4A53" mask="url(#mask-2)"></path>
                    <polygon id="Fill-9" fill="#DE4A53" mask="url(#mask-2)" points="0.00397660819 14.549375 33.9337232 14.549375 33.9337232 12.936625 0.00397660819 12.936625"></polygon>
                    <path d="M15.211653,0.0345 L0.585091618,0.0345 C0.261992203,0.0345 0,0.2815 0,0.5861875 L0,10.7718125 C0,11.0765 0.261992203,11.3235625 0.585091618,11.3235625 L15.2117193,11.3235625 C15.5348187,11.3235625 15.7968109,11.0765 15.7968109,10.7718125 L15.7968109,0.5861875 C15.7967446,0.2815 15.5347524,0.0345 15.211653,0.0345" id="Fill-10" fill="#394084" mask="url(#mask-2)"></path>
                </g>
                <path d="M1.64293567,1.3008125 L1.77244055,1.6670625 L2.18183236,1.67 C2.2348538,1.6704375 2.25679142,1.7341875 2.21417544,1.763875 L1.884846,1.99325 L2.00838596,2.3613125 C2.02442495,2.4089375 1.96683041,2.4484375 1.92368421,2.4193125 L1.59064327,2.194875 L1.25760234,2.419375 C1.21445614,2.4484375 1.15699415,2.409 1.17290058,2.361375 L1.29644055,1.9933125 L0.967111111,1.7639375 C0.924495127,1.7341875 0.946432749,1.6705 0.999454191,1.6700625 L1.408846,1.667125 L1.53835088,1.300875 C1.55505263,1.253375 1.62610136,1.253375 1.64293567,1.3008125" id="Fill-12" fill="#F8F7F5"></path>
                <path d="M1.64293567,3.2166875 L1.77244055,3.5829375 L2.18183236,3.585875 C2.2348538,3.5863125 2.25679142,3.6500625 2.21417544,3.67975 L1.884846,3.909125 L2.00838596,4.2771875 C2.02442495,4.3248125 1.96683041,4.3643125 1.92368421,4.3351875 L1.59064327,4.11075 L1.25760234,4.33525 C1.21445614,4.3643125 1.15699415,4.324875 1.17290058,4.27725 L1.29644055,3.9091875 L0.967111111,3.6798125 C0.924495127,3.6500625 0.946432749,3.586375 0.999454191,3.5859375 L1.408846,3.583 L1.53835088,3.21675 C1.55505263,3.1693125 1.62610136,3.1693125 1.64293567,3.2166875" id="Fill-13" fill="#F8F7F5"></path>
                <path d="M1.64293567,5.1325625 L1.77244055,5.4988125 L2.18183236,5.50175 C2.2348538,5.5021875 2.25679142,5.5659375 2.21417544,5.595625 L1.884846,5.825 L2.00838596,6.1930625 C2.02442495,6.2406875 1.96683041,6.2801875 1.92368421,6.2510625 L1.59064327,6.026625 L1.25760234,6.251125 C1.21445614,6.2801875 1.15699415,6.24075 1.17290058,6.193125 L1.29644055,5.8250625 L0.967111111,5.5956875 C0.924495127,5.5659375 0.946432749,5.50225 0.999454191,5.5018125 L1.408846,5.498875 L1.53835088,5.132625 C1.55505263,5.0851875 1.62610136,5.0851875 1.64293567,5.1325625" id="Fill-14" fill="#F8F7F5"></path>
                <path d="M1.64293567,7.0485 L1.77244055,7.41475 L2.18183236,7.4176875 C2.2348538,7.418125 2.25679142,7.481875 2.21417544,7.5115625 L1.884846,7.7409375 L2.00838596,8.109 C2.02442495,8.156625 1.96683041,8.196125 1.92368421,8.167 L1.59064327,7.9425625 L1.25760234,8.1670625 C1.21445614,8.196125 1.15699415,8.1566875 1.17290058,8.1090625 L1.29644055,7.741 L0.967111111,7.511625 C0.924495127,7.481875 0.946432749,7.4181875 0.999454191,7.41775 L1.408846,7.4148125 L1.53835088,7.0485625 C1.55505263,7.0010625 1.62610136,7.0010625 1.64293567,7.0485" id="Fill-15" fill="#F8F7F5"></path>
                <path d="M1.64293567,8.964375 L1.77244055,9.330625 L2.18183236,9.3335625 C2.2348538,9.334 2.25679142,9.39775 2.21417544,9.4274375 L1.884846,9.6568125 L2.00838596,10.024875 C2.02442495,10.0725 1.96683041,10.112 1.92368421,10.082875 L1.59064327,9.8584375 L1.25760234,10.0829375 C1.21445614,10.112 1.15699415,10.0725625 1.17290058,10.0249375 L1.29644055,9.656875 L0.967111111,9.4275 C0.924495127,9.39775 0.946432749,9.3340625 0.999454191,9.333625 L1.408846,9.3306875 L1.53835088,8.9644375 C1.55505263,8.916875 1.62610136,8.916875 1.64293567,8.964375" id="Fill-16" fill="#F8F7F5"></path>
                <path d="M3.21985965,2.240125 L3.34936452,2.606375 L3.75875634,2.6093125 C3.81177778,2.60975 3.8337154,2.6735 3.79109942,2.7031875 L3.46176998,2.9325625 L3.58530994,3.300625 C3.60134893,3.34825 3.54375439,3.38775 3.50060819,3.358625 L3.16756725,3.134125 L2.83452632,3.358625 C2.79138012,3.3876875 2.73391813,3.34825 2.74982456,3.300625 L2.87336452,2.9325625 L2.54403509,2.7031875 C2.5014191,2.6734375 2.52335673,2.60975 2.57637817,2.6093125 L2.98576998,2.606375 L3.11527485,2.240125 C3.13191033,2.19275 3.20309162,2.19275 3.21985965,2.240125" id="Fill-17" fill="#F8F7F5"></path>
                <path d="M3.21985965,4.1560625 L3.34936452,4.5223125 L3.75875634,4.52525 C3.81177778,4.5256875 3.8337154,4.5894375 3.79109942,4.619125 L3.46176998,4.8485 L3.58530994,5.2165625 C3.60134893,5.2641875 3.54375439,5.3036875 3.50060819,5.2745625 L3.16756725,5.0500625 L2.83452632,5.2745625 C2.79138012,5.303625 2.73391813,5.26425 2.74982456,5.2165625 L2.87336452,4.8485 L2.54403509,4.619125 C2.5014191,4.589375 2.52335673,4.5256875 2.57637817,4.52525 L2.98576998,4.5223125 L3.11527485,4.1560625 C3.13191033,4.108625 3.20309162,4.108625 3.21985965,4.1560625" id="Fill-18" fill="#F8F7F5"></path>
                <path d="M3.21985965,6.0719375 L3.34936452,6.4381875 L3.75875634,6.441125 C3.81177778,6.4415625 3.8337154,6.5053125 3.79109942,6.535 L3.46176998,6.764375 L3.58530994,7.1324375 C3.60134893,7.1800625 3.54375439,7.2195625 3.50060819,7.1904375 L3.16756725,6.9659375 L2.83452632,7.1904375 C2.79138012,7.2195 2.73391813,7.1800625 2.74982456,7.1324375 L2.87336452,6.764375 L2.54403509,6.535 C2.5014191,6.50525 2.52335673,6.4415625 2.57637817,6.441125 L2.98576998,6.4381875 L3.11527485,6.0719375 C3.13191033,6.0245 3.20309162,6.0245 3.21985965,6.0719375" id="Fill-19" fill="#F8F7F5"></path>
                <path d="M3.21985965,7.9878125 L3.34936452,8.3540625 L3.75875634,8.357 C3.81177778,8.3574375 3.8337154,8.4211875 3.79109942,8.450875 L3.46176998,8.68025 L3.58530994,9.0483125 C3.60134893,9.0959375 3.54375439,9.1354375 3.50060819,9.1063125 L3.16756725,8.8818125 L2.83452632,9.1063125 C2.79138012,9.135375 2.73391813,9.0959375 2.74982456,9.0483125 L2.87336452,8.68025 L2.54403509,8.450875 C2.5014191,8.421125 2.52335673,8.3574375 2.57637817,8.357 L2.98576998,8.3540625 L3.11527485,7.9878125 C3.13191033,7.9404375 3.20309162,7.9404375 3.21985965,7.9878125" id="Fill-20" fill="#F8F7F5"></path>
                <path d="M4.79678363,1.3008125 L4.9262885,1.6670625 L5.33568031,1.67 C5.38870175,1.6704375 5.41063938,1.7341875 5.36802339,1.763875 L5.03869396,1.99325 L5.16223392,2.3613125 C5.1782729,2.4089375 5.12067836,2.4484375 5.07753216,2.4193125 L4.74449123,2.1948125 L4.41145029,2.4193125 C4.36830409,2.448375 4.31084211,2.4089375 4.32674854,2.3613125 L4.4502885,1.99325 L4.12095906,1.763875 C4.07834308,1.734125 4.1002807,1.6704375 4.15330214,1.67 L4.56269396,1.6670625 L4.69219883,1.3008125 C4.70890058,1.253375 4.78001559,1.253375 4.79678363,1.3008125" id="Fill-21" fill="#F8F7F5"></path>
                <path d="M4.79678363,3.2166875 L4.9262885,3.5829375 L5.33568031,3.585875 C5.38870175,3.5863125 5.41063938,3.6500625 5.36802339,3.67975 L5.03869396,3.909125 L5.16223392,4.2771875 C5.1782729,4.3248125 5.12067836,4.3643125 5.07753216,4.3351875 L4.74449123,4.1106875 L4.41145029,4.3351875 C4.36830409,4.36425 4.31084211,4.3248125 4.32674854,4.2771875 L4.4502885,3.909125 L4.12095906,3.67975 C4.07834308,3.65 4.1002807,3.5863125 4.15330214,3.585875 L4.56269396,3.5829375 L4.69219883,3.2166875 C4.70890058,3.1693125 4.78001559,3.1693125 4.79678363,3.2166875" id="Fill-22" fill="#F8F7F5"></path>
                <path d="M4.79678363,5.1325625 L4.9262885,5.4988125 L5.33568031,5.50175 C5.38870175,5.5021875 5.41063938,5.5659375 5.36802339,5.595625 L5.03869396,5.825 L5.16223392,6.1930625 C5.1782729,6.2406875 5.12067836,6.2801875 5.07753216,6.2510625 L4.74449123,6.0265625 L4.41145029,6.2510625 C4.36830409,6.280125 4.31084211,6.2406875 4.32674854,6.1930625 L4.4502885,5.825 L4.12095906,5.595625 C4.07834308,5.565875 4.1002807,5.5021875 4.15330214,5.50175 L4.56269396,5.4988125 L4.69219883,5.1325625 C4.70890058,5.0851875 4.78001559,5.0851875 4.79678363,5.1325625" id="Fill-23" fill="#F8F7F5"></path>
                <path d="M4.79678363,7.0485 L4.9262885,7.41475 L5.33568031,7.4176875 C5.38870175,7.418125 5.41063938,7.481875 5.36802339,7.5115625 L5.03869396,7.7409375 L5.16223392,8.109 C5.1782729,8.156625 5.12067836,8.196125 5.07753216,8.167 L4.74449123,7.9425 L4.41145029,8.167 C4.36830409,8.1960625 4.31084211,8.156625 4.32674854,8.109 L4.4502885,7.7409375 L4.12095906,7.5115625 C4.07834308,7.4818125 4.1002807,7.418125 4.15330214,7.4176875 L4.56269396,7.41475 L4.69219883,7.0485 C4.70890058,7.0010625 4.78001559,7.0010625 4.79678363,7.0485" id="Fill-24" fill="#F8F7F5"></path>
                <path d="M4.79678363,8.964375 L4.9262885,9.330625 L5.33568031,9.3335625 C5.38870175,9.334 5.41063938,9.39775 5.36802339,9.4274375 L5.03869396,9.6568125 L5.16223392,10.024875 C5.1782729,10.0725 5.12067836,10.112 5.07753216,10.082875 L4.74449123,9.858375 L4.41145029,10.082875 C4.36830409,10.1119375 4.31084211,10.0725 4.32674854,10.024875 L4.4502885,9.6568125 L4.12095906,9.4274375 C4.07834308,9.3976875 4.1002807,9.334 4.15330214,9.3335625 L4.56269396,9.330625 L4.69219883,8.964375 C4.70890058,8.916875 4.78001559,8.916875 4.79678363,8.964375" id="Fill-25" fill="#F8F7F5"></path>
                <path d="M6.37377388,2.240125 L6.50327875,2.606375 L6.91267057,2.6093125 C6.96569201,2.60975 6.98762963,2.6735 6.94501365,2.7031875 L6.61568421,2.9325625 L6.73922417,3.300625 C6.75526316,3.34825 6.69766862,3.38775 6.65452242,3.358625 L6.32148148,3.134125 L5.98844055,3.358625 C5.94529435,3.3876875 5.88783236,3.34825 5.90373879,3.300625 L6.02727875,2.9325625 L5.69794932,2.7031875 C5.65533333,2.6734375 5.67727096,2.60975 5.7302924,2.6093125 L6.13968421,2.606375 L6.26918908,2.240125 C6.28582456,2.19275 6.35700585,2.19275 6.37377388,2.240125" id="Fill-26" fill="#F8F7F5"></path>
                <path d="M6.37377388,4.1560625 L6.50327875,4.5223125 L6.91267057,4.52525 C6.96569201,4.5256875 6.98762963,4.5894375 6.94501365,4.619125 L6.61568421,4.8485 L6.73922417,5.2165625 C6.75526316,5.2641875 6.69766862,5.3036875 6.65452242,5.2745625 L6.32148148,5.0500625 L5.98844055,5.2745625 C5.94529435,5.303625 5.88783236,5.26425 5.90373879,5.2165625 L6.02727875,4.8485 L5.69794932,4.619125 C5.65533333,4.589375 5.67727096,4.5256875 5.7302924,4.52525 L6.13968421,4.5223125 L6.26918908,4.1560625 C6.28582456,4.108625 6.35700585,4.108625 6.37377388,4.1560625" id="Fill-27" fill="#F8F7F5"></path>
                <path d="M6.37377388,6.0719375 L6.50327875,6.4381875 L6.91267057,6.441125 C6.96569201,6.4415625 6.98762963,6.5053125 6.94501365,6.535 L6.61568421,6.764375 L6.73922417,7.1324375 C6.75526316,7.1800625 6.69766862,7.2195625 6.65452242,7.1904375 L6.32148148,6.9659375 L5.98844055,7.1904375 C5.94529435,7.2195 5.88783236,7.1800625 5.90373879,7.1324375 L6.02727875,6.764375 L5.69794932,6.535 C5.65533333,6.50525 5.67727096,6.4415625 5.7302924,6.441125 L6.13968421,6.4381875 L6.26918908,6.0719375 C6.28582456,6.0245 6.35700585,6.0245 6.37377388,6.0719375" id="Fill-28" fill="#F8F7F5"></path>
                <path d="M6.37377388,7.9878125 L6.50327875,8.3540625 L6.91267057,8.357 C6.96569201,8.3574375 6.98762963,8.4211875 6.94501365,8.450875 L6.61568421,8.68025 L6.73922417,9.0483125 C6.75526316,9.0959375 6.69766862,9.1354375 6.65452242,9.1063125 L6.32148148,8.8818125 L5.98844055,9.1063125 C5.94529435,9.135375 5.88783236,9.0959375 5.90373879,9.0483125 L6.02727875,8.68025 L5.69794932,8.450875 C5.65533333,8.421125 5.67727096,8.3574375 5.7302924,8.357 L6.13968421,8.3540625 L6.26918908,7.9878125 C6.28582456,7.9404375 6.35700585,7.9404375 6.37377388,7.9878125" id="Fill-29" fill="#F8F7F5"></path>
                <path d="M7.95069786,1.3008125 L8.08020273,1.6670625 L8.48959454,1.67 C8.54261598,1.6704375 8.56455361,1.7341875 8.52193762,1.763875 L8.19260819,1.99325 L8.31614815,2.3613125 C8.33218713,2.4089375 8.27459259,2.4484375 8.23144639,2.4193125 L7.89833918,2.1948125 L7.56529825,2.4193125 C7.52215205,2.448375 7.46469006,2.4089375 7.48059649,2.3613125 L7.60413645,1.99325 L7.27480702,1.763875 C7.23219103,1.734125 7.25412865,1.6704375 7.3071501,1.67 L7.71654191,1.6670625 L7.84604678,1.3008125 C7.86281481,1.253375 7.93392982,1.253375 7.95069786,1.3008125" id="Fill-30" fill="#F8F7F5"></path>
                <path d="M7.95069786,3.2166875 L8.08020273,3.5829375 L8.48959454,3.585875 C8.54261598,3.5863125 8.56455361,3.6500625 8.52193762,3.67975 L8.19260819,3.909125 L8.31614815,4.2771875 C8.33218713,4.3248125 8.27459259,4.3643125 8.23144639,4.3351875 L7.89833918,4.1106875 L7.56529825,4.3351875 C7.52215205,4.36425 7.46469006,4.3248125 7.48059649,4.2771875 L7.60413645,3.909125 L7.27480702,3.67975 C7.23219103,3.65 7.25412865,3.5863125 7.3071501,3.585875 L7.71654191,3.5829375 L7.84604678,3.2166875 C7.86281481,3.1693125 7.93392982,3.1693125 7.95069786,3.2166875" id="Fill-31" fill="#F8F7F5"></path>
                <path d="M7.95069786,5.1325625 L8.08020273,5.4988125 L8.48959454,5.50175 C8.54261598,5.5021875 8.56455361,5.5659375 8.52193762,5.595625 L8.19260819,5.825 L8.31614815,6.1930625 C8.33218713,6.2406875 8.27459259,6.2801875 8.23144639,6.2510625 L7.89833918,6.0265625 L7.56529825,6.2510625 C7.52215205,6.280125 7.46469006,6.2406875 7.48059649,6.1930625 L7.60413645,5.825 L7.27480702,5.595625 C7.23219103,5.565875 7.25412865,5.5021875 7.3071501,5.50175 L7.71654191,5.4988125 L7.84604678,5.1325625 C7.86281481,5.0851875 7.93392982,5.0851875 7.95069786,5.1325625" id="Fill-32" fill="#F8F7F5"></path>
                <path d="M7.95069786,7.0485 L8.08020273,7.41475 L8.48959454,7.4176875 C8.54261598,7.418125 8.56455361,7.481875 8.52193762,7.5115625 L8.19260819,7.7409375 L8.31614815,8.109 C8.33218713,8.156625 8.27459259,8.196125 8.23144639,8.167 L7.89833918,7.9425 L7.56529825,8.167 C7.52215205,8.1960625 7.46469006,8.156625 7.48059649,8.109 L7.60413645,7.7409375 L7.27480702,7.5115625 C7.23219103,7.4818125 7.25412865,7.418125 7.3071501,7.4176875 L7.71654191,7.41475 L7.84604678,7.0485 C7.86281481,7.0010625 7.93392982,7.0010625 7.95069786,7.0485" id="Fill-33" fill="#F8F7F5"></path>
                <path d="M7.95069786,8.964375 L8.08020273,9.330625 L8.48959454,9.3335625 C8.54261598,9.334 8.56455361,9.39775 8.52193762,9.4274375 L8.19260819,9.6568125 L8.31614815,10.024875 C8.33218713,10.0725 8.27459259,10.112 8.23144639,10.082875 L7.89833918,9.858375 L7.56529825,10.082875 C7.52215205,10.1119375 7.46469006,10.0725 7.48059649,10.024875 L7.60413645,9.6568125 L7.27480702,9.4274375 C7.23219103,9.3976875 7.25412865,9.334 7.3071501,9.3335625 L7.71654191,9.330625 L7.84604678,8.964375 C7.86281481,8.916875 7.93392982,8.916875 7.95069786,8.964375" id="Fill-34" fill="#F8F7F5"></path>
                <path d="M9.52762183,2.240125 L9.65712671,2.606375 L10.0665185,2.6093125 C10.11954,2.60975 10.1414776,2.6735 10.0988616,2.7031875 L9.76953216,2.9325625 L9.89307212,3.300625 C9.90911111,3.34825 9.85151657,3.38775 9.80837037,3.358625 L9.47532943,3.134125 L9.1422885,3.358625 C9.0991423,3.3876875 9.04168031,3.34825 9.05758674,3.300625 L9.18112671,2.9325625 L8.85179727,2.7031875 C8.80918129,2.6734375 8.83111891,2.60975 8.88414035,2.6093125 L9.29353216,2.606375 L9.42303704,2.240125 C9.43980507,2.19275 9.5108538,2.19275 9.52762183,2.240125" id="Fill-35" fill="#F8F7F5"></path>
                <path d="M9.52762183,4.1560625 L9.65712671,4.5223125 L10.0665185,4.52525 C10.11954,4.5256875 10.1414776,4.5894375 10.0988616,4.619125 L9.76953216,4.8485 L9.89307212,5.2165625 C9.90911111,5.2641875 9.85151657,5.3036875 9.80837037,5.2745625 L9.47532943,5.0500625 L9.1422885,5.2745625 C9.0991423,5.303625 9.04168031,5.26425 9.05758674,5.2165625 L9.18112671,4.8485 L8.85179727,4.619125 C8.80918129,4.589375 8.83111891,4.5256875 8.88414035,4.52525 L9.29353216,4.5223125 L9.42303704,4.1560625 C9.43980507,4.108625 9.5108538,4.108625 9.52762183,4.1560625" id="Fill-36" fill="#F8F7F5"></path>
                <path d="M9.52762183,6.0719375 L9.65712671,6.4381875 L10.0665185,6.441125 C10.11954,6.4415625 10.1414776,6.5053125 10.0988616,6.535 L9.76953216,6.764375 L9.89307212,7.1324375 C9.90911111,7.1800625 9.85151657,7.2195625 9.80837037,7.1904375 L9.47532943,6.9659375 L9.1422885,7.1904375 C9.0991423,7.2195 9.04168031,7.1800625 9.05758674,7.1324375 L9.18112671,6.764375 L8.85179727,6.535 C8.80918129,6.50525 8.83111891,6.4415625 8.88414035,6.441125 L9.29353216,6.4381875 L9.42303704,6.0719375 C9.43980507,6.0245 9.5108538,6.0245 9.52762183,6.0719375" id="Fill-37" fill="#F8F7F5"></path>
                <path d="M9.52762183,7.9878125 L9.65712671,8.3540625 L10.0665185,8.357 C10.11954,8.3574375 10.1414776,8.4211875 10.0988616,8.450875 L9.76953216,8.68025 L9.89307212,9.0483125 C9.90911111,9.0959375 9.85151657,9.1354375 9.80837037,9.1063125 L9.47532943,8.8818125 L9.1422885,9.1063125 C9.0991423,9.135375 9.04168031,9.0959375 9.05758674,9.0483125 L9.18112671,8.68025 L8.85179727,8.450875 C8.80918129,8.421125 8.83111891,8.3574375 8.88414035,8.357 L9.29353216,8.3540625 L9.42303704,7.9878125 C9.43980507,7.9404375 9.5108538,7.9404375 9.52762183,7.9878125" id="Fill-38" fill="#F8F7F5"></path>
                <path d="M11.1046121,1.3008125 L11.234117,1.6670625 L11.6435088,1.67 C11.6965302,1.6704375 11.7184678,1.7341875 11.6758519,1.763875 L11.3465224,1.99325 L11.4700624,2.3613125 C11.4861014,2.4089375 11.4285068,2.4484375 11.3853606,2.4193125 L11.0523197,2.1948125 L10.7192788,2.4193125 C10.6761326,2.448375 10.6186706,2.4089375 10.634577,2.3613125 L10.758117,1.99325 L10.4287875,1.763875 C10.3861715,1.734125 10.4081092,1.6704375 10.4611306,1.67 L10.8705224,1.6670625 L11.0000273,1.3008125 C11.0166628,1.253375 11.0878441,1.253375 11.1046121,1.3008125" id="Fill-39" fill="#F8F7F5"></path>
                <path d="M11.1046121,3.2166875 L11.234117,3.5829375 L11.6435088,3.585875 C11.6965302,3.5863125 11.7184678,3.6500625 11.6758519,3.67975 L11.3465224,3.909125 L11.4700624,4.2771875 C11.4861014,4.3248125 11.4285068,4.3643125 11.3853606,4.3351875 L11.0523197,4.1106875 L10.7192788,4.3351875 C10.6761326,4.36425 10.6186706,4.3248125 10.634577,4.2771875 L10.758117,3.909125 L10.4287875,3.67975 C10.3861715,3.65 10.4081092,3.5863125 10.4611306,3.585875 L10.8705224,3.5829375 L11.0000273,3.2166875 C11.0166628,3.1693125 11.0878441,3.1693125 11.1046121,3.2166875" id="Fill-40" fill="#F8F7F5"></path>
                <path d="M11.1046121,5.1325625 L11.234117,5.4988125 L11.6435088,5.50175 C11.6965302,5.5021875 11.7184678,5.5659375 11.6758519,5.595625 L11.3465224,5.825 L11.4700624,6.1930625 C11.4861014,6.2406875 11.4285068,6.2801875 11.3853606,6.2510625 L11.0523197,6.0265625 L10.7192788,6.2510625 C10.6761326,6.280125 10.6186706,6.2406875 10.634577,6.1930625 L10.758117,5.825 L10.4287875,5.595625 C10.3861715,5.565875 10.4081092,5.5021875 10.4611306,5.50175 L10.8705224,5.4988125 L11.0000273,5.1325625 C11.0166628,5.0851875 11.0878441,5.0851875 11.1046121,5.1325625" id="Fill-41" fill="#F8F7F5"></path>
                <path d="M11.1046121,7.0485 L11.234117,7.41475 L11.6435088,7.4176875 C11.6965302,7.418125 11.7184678,7.481875 11.6758519,7.5115625 L11.3465224,7.7409375 L11.4700624,8.109 C11.4861014,8.156625 11.4285068,8.196125 11.3853606,8.167 L11.0523197,7.9425 L10.7192788,8.167 C10.6761326,8.1960625 10.6186706,8.156625 10.634577,8.109 L10.758117,7.7409375 L10.4287875,7.5115625 C10.3861715,7.4818125 10.4081092,7.418125 10.4611306,7.4176875 L10.8705224,7.41475 L11.0000273,7.0485 C11.0166628,7.0010625 11.0878441,7.0010625 11.1046121,7.0485" id="Fill-42" fill="#F8F7F5"></path>
                <path d="M11.1046121,8.964375 L11.234117,9.330625 L11.6435088,9.3335625 C11.6965302,9.334 11.7184678,9.39775 11.6758519,9.4274375 L11.3465224,9.6568125 L11.4700624,10.024875 C11.4861014,10.0725 11.4285068,10.112 11.3853606,10.082875 L11.0523197,9.858375 L10.7192788,10.082875 C10.6761326,10.1119375 10.6186706,10.0725 10.634577,10.024875 L10.758117,9.6568125 L10.4287875,9.4274375 C10.3861715,9.3976875 10.4081092,9.334 10.4611306,9.3335625 L10.8705224,9.330625 L11.0000273,8.964375 C11.0166628,8.916875 11.0878441,8.916875 11.1046121,8.964375" id="Fill-43" fill="#F8F7F5"></path>
                <path d="M12.6815361,2.240125 L12.8110409,2.606375 L13.2204327,2.6093125 C13.2734542,2.60975 13.2953918,2.6735 13.2527758,2.7031875 L12.9234464,2.9325625 L13.0469864,3.300625 C13.0630253,3.34825 13.0054308,3.38775 12.9622846,3.358625 L12.6292437,3.134125 L12.2962027,3.358625 C12.2530565,3.3876875 12.1955945,3.34825 12.211501,3.300625 L12.3350409,2.9325625 L12.0057115,2.7031875 C11.9630955,2.6734375 11.9850331,2.60975 12.0380546,2.6093125 L12.4474464,2.606375 L12.5769513,2.240125 C12.593653,2.19275 12.6648343,2.19275 12.6815361,2.240125" id="Fill-44" fill="#F8F7F5"></path>
                <path d="M12.6815361,4.1560625 L12.8110409,4.5223125 L13.2204327,4.52525 C13.2734542,4.5256875 13.2953918,4.5894375 13.2527758,4.619125 L12.9234464,4.8485 L13.0469864,5.2165625 C13.0630253,5.2641875 13.0054308,5.3036875 12.9622846,5.2745625 L12.6292437,5.0500625 L12.2962027,5.2745625 C12.2530565,5.303625 12.1955945,5.26425 12.211501,5.2165625 L12.3350409,4.8485 L12.0057115,4.619125 C11.9630955,4.589375 11.9850331,4.5256875 12.0380546,4.52525 L12.4474464,4.5223125 L12.5769513,4.1560625 C12.593653,4.108625 12.6648343,4.108625 12.6815361,4.1560625" id="Fill-45" fill="#F8F7F5"></path>
                <path d="M12.6815361,6.0719375 L12.8110409,6.4381875 L13.2204327,6.441125 C13.2734542,6.4415625 13.2953918,6.5053125 13.2527758,6.535 L12.9234464,6.764375 L13.0469864,7.1324375 C13.0630253,7.1800625 13.0054308,7.2195625 12.9622846,7.1904375 L12.6292437,6.9659375 L12.2962027,7.1904375 C12.2530565,7.2195 12.1955945,7.1800625 12.211501,7.1324375 L12.3350409,6.764375 L12.0057115,6.535 C11.9630955,6.50525 11.9850331,6.4415625 12.0380546,6.441125 L12.4474464,6.4381875 L12.5769513,6.0719375 C12.593653,6.0245 12.6648343,6.0245 12.6815361,6.0719375" id="Fill-46" fill="#F8F7F5"></path>
                <path d="M12.6815361,7.9878125 L12.8110409,8.3540625 L13.2204327,8.357 C13.2734542,8.3574375 13.2953918,8.4211875 13.2527758,8.450875 L12.9234464,8.68025 L13.0469864,9.0483125 C13.0630253,9.0959375 13.0054308,9.1354375 12.9622846,9.1063125 L12.6292437,8.8818125 L12.2962027,9.1063125 C12.2530565,9.135375 12.1955945,9.0959375 12.211501,9.0483125 L12.3350409,8.68025 L12.0057115,8.450875 C11.9630955,8.421125 11.9850331,8.3574375 12.0380546,8.357 L12.4474464,8.3540625 L12.5769513,7.9878125 C12.593653,7.9404375 12.6648343,7.9404375 12.6815361,7.9878125" id="Fill-47" fill="#F8F7F5"></path>
                <path d="M14.2585263,1.3008125 L14.3880312,1.6670625 L14.797423,1.67 C14.8504444,1.6704375 14.8723821,1.7341875 14.8297661,1.763875 L14.5004366,1.99325 L14.6239766,2.3613125 C14.6400156,2.4089375 14.5824211,2.4484375 14.5392749,2.4193125 L14.2062339,2.1948125 L13.873193,2.4193125 C13.8300468,2.448375 13.7725848,2.4089375 13.7884912,2.3613125 L13.9120312,1.99325 L13.5827018,1.763875 C13.5400858,1.734125 13.5620234,1.6704375 13.6150448,1.67 L14.0244366,1.6670625 L14.1539415,1.3008125 C14.1706433,1.253375 14.241692,1.253375 14.2585263,1.3008125" id="Fill-48" fill="#F8F7F5"></path>
                <path d="M14.2585263,3.2166875 L14.3880312,3.5829375 L14.797423,3.585875 C14.8504444,3.5863125 14.8723821,3.6500625 14.8297661,3.67975 L14.5004366,3.909125 L14.6239766,4.2771875 C14.6400156,4.3248125 14.5824211,4.3643125 14.5392749,4.3351875 L14.2062339,4.1106875 L13.873193,4.3351875 C13.8300468,4.36425 13.7725848,4.3248125 13.7884912,4.2771875 L13.9120312,3.909125 L13.5827018,3.67975 C13.5400858,3.65 13.5620234,3.5863125 13.6150448,3.585875 L14.0244366,3.5829375 L14.1539415,3.2166875 C14.1706433,3.1693125 14.241692,3.1693125 14.2585263,3.2166875" id="Fill-49" fill="#F8F7F5"></path>
                <path d="M14.2585263,5.1325625 L14.3880312,5.4988125 L14.797423,5.50175 C14.8504444,5.5021875 14.8723821,5.5659375 14.8297661,5.595625 L14.5004366,5.825 L14.6239766,6.1930625 C14.6400156,6.2406875 14.5824211,6.2801875 14.5392749,6.2510625 L14.2062339,6.0265625 L13.873193,6.2510625 C13.8300468,6.280125 13.7725848,6.2406875 13.7884912,6.1930625 L13.9120312,5.825 L13.5827018,5.595625 C13.5400858,5.565875 13.5620234,5.5021875 13.6150448,5.50175 L14.0244366,5.4988125 L14.1539415,5.1325625 C14.1706433,5.0851875 14.241692,5.0851875 14.2585263,5.1325625" id="Fill-50" fill="#F8F7F5"></path>
                <path d="M14.2585263,7.0485 L14.3880312,7.41475 L14.797423,7.4176875 C14.8504444,7.418125 14.8723821,7.481875 14.8297661,7.5115625 L14.5004366,7.7409375 L14.6239766,8.109 C14.6400156,8.156625 14.5824211,8.196125 14.5392749,8.167 L14.2062339,7.9425 L13.873193,8.167 C13.8300468,8.1960625 13.7725848,8.156625 13.7884912,8.109 L13.9120312,7.7409375 L13.5827018,7.5115625 C13.5400858,7.4818125 13.5620234,7.418125 13.6150448,7.4176875 L14.0244366,7.41475 L14.1539415,7.0485 C14.1706433,7.0010625 14.241692,7.0010625 14.2585263,7.0485" id="Fill-51" fill="#F8F7F5"></path>
                <path d="M14.2585263,8.964375 L14.3880312,9.330625 L14.797423,9.3335625 C14.8504444,9.334 14.8723821,9.39775 14.8297661,9.4274375 L14.5004366,9.6568125 L14.6239766,10.024875 C14.6400156,10.0725 14.5824211,10.112 14.5392749,10.082875 L14.2062339,9.858375 L13.873193,10.082875 C13.8300468,10.1119375 13.7725848,10.0725 13.7884912,10.024875 L13.9120312,9.6568125 L13.5827018,9.4274375 C13.5400858,9.3976875 13.5620234,9.334 13.6150448,9.3335625 L14.0244366,9.330625 L14.1539415,8.964375 C14.1706433,8.916875 14.241692,8.916875 14.2585263,8.964375" id="Fill-52" fill="#F8F7F5"></path>
            </g>
        </g>
    </g>
</svg>