<?xml version="1.0" encoding="UTF-8"?>
<svg width="20px" height="20px" viewBox="0 0 20 20" version="1.1" xmlns="http://www.w3.org/2000/svg" xmlns:xlink="http://www.w3.org/1999/xlink">
    <!-- Generator: Sketch 49.1 (51147) - http://www.bohemiancoding.com/sketch -->
    <title>message_three_points [#1560]</title>
    <desc>Created with Sketch.</desc>
    <defs></defs>
    <g id="Desktop-1399---1024-px" stroke="none" stroke-width="1" fill="none" fill-rule="evenodd">
        <g id="Desktop_EDU-Main" transform="translate(-1029.000000, -849.000000)" fill="#FCB528">
            <path d="M1045.87273,858.94 C1045.87273,860.045 1044.97773,860.94 1043.87273,860.94 C1042.76773,860.94 1041.87273,860.045 1041.87273,858.94 C1041.87273,857.835 1042.76773,856.94 1043.87273,856.94 C1044.97773,856.94 1045.87273,857.835 1045.87273,858.94 M1040.87273,858.94 C1040.87273,860.045 1039.97773,860.94 1038.87273,860.94 C1037.76773,860.94 1036.87273,860.045 1036.87273,858.94 C1036.87273,857.835 1037.76773,856.94 1038.87273,856.94 C1039.97773,856.94 1040.87273,857.835 1040.87273,858.94 M1035.87273,858.94 C1035.87273,860.045 1034.97773,860.94 1033.87273,860.94 C1032.76773,860.94 1031.87273,860.045 1031.87273,858.94 C1031.87273,857.835 1032.76773,856.94 1033.87273,856.94 C1034.97773,856.94 1035.87273,857.835 1035.87273,858.94 M1046.44173,867 C1046.44173,867 1043.82573,866.257 1042.01873,866.257 C1040.54473,866.257 1040.20873,866.518 1038.95773,866.518 C1034.87773,866.518 1031.58173,863.508 1031.07573,859.851 C1030.40373,854.997 1034.26873,850.999 1038.95773,851 C1042.90073,851 1046.00273,853.703 1046.73273,857.083 C1047.00073,858.318 1046.97373,859.544 1046.65473,860.726 C1046.27473,862.131 1046.29173,863.711 1046.70373,865.294 C1046.91473,866.103 1047.30273,867 1046.44173,867 M1048.91773,865.859 C1048.91773,865.859 1048.64073,864.794 1048.63973,864.79 C1048.33673,863.63 1048.27173,862.405 1048.58473,861.248 C1048.97073,859.822 1049.03573,858.268 1048.68773,856.66 C1047.76773,852.405 1043.86173,849 1038.95773,849 C1032.99973,848.999 1028.26473,854.127 1029.09473,860.125 C1029.73673,864.766 1033.87073,868.518 1038.95773,868.518 C1040.42673,868.518 1040.72273,868.257 1042.01973,868.257 C1043.58373,868.257 1045.79573,868.919 1045.79573,868.919 C1047.68373,869.392 1049.39973,867.71 1048.91773,865.859" id="message_three_points-[#1560]"></path>
        </g>
    </g>
</svg>