<?xml version="1.0" encoding="UTF-8"?>
<svg width="60px" height="60px" viewBox="0 0 60 60" version="1.1" xmlns="http://www.w3.org/2000/svg" xmlns:xlink="http://www.w3.org/1999/xlink">
    <!-- Generator: Sketch 49.1 (51147) - http://www.bohemiancoding.com/sketch -->
    <title>Group 2 Copy 6</title>
    <desc>Created with Sketch.</desc>
    <defs></defs>
    <g id="HD-Desktop-1920---1440-px" stroke="none" stroke-width="1" fill="none" fill-rule="evenodd">
        <g id="HD-Desktop_EDU-Main" transform="translate(-280.000000, -3569.000000)">
            <g id="Group-2-Copy-6" transform="translate(280.000000, 3569.000000)">
                <g id="Page-1-Copy-7" fill="#FCB528">
                    <g id="Group-3" transform="translate(0.000000, 0.016279)">
                        <path d="M43.1863594,2.88404651 L5.15104687,2.91381395 C4.43432812,2.91427907 3.75839062,3.19474419 3.24651562,3.70311628 C2.73464062,4.21148837 2.45339062,4.88311628 2.45385937,5.59427907 L2.49276562,54.4231163 C2.49323437,55.8989302 3.70448437,57.0998605 5.19323437,57.0998605 L5.19323437,58.3175349 L5.19417187,57.0998605 L54.4040156,57.0607907 C55.8918281,57.0593953 57.1021406,55.8575349 57.1012031,54.3803256 L57.0716719,16.6403256 L43.1863594,2.88404651 Z M5.19557812,59.5347442 L5.19276562,59.5347442 C2.35307812,59.5347442 0.040734375,57.2426512 0.038390625,54.4245116 L-4.6875e-05,5.59660465 C-0.000984375,4.2352093 0.535265625,2.95195349 1.50979688,1.98311628 C2.48432812,1.01427907 3.77667187,0.479860465 5.14917187,0.478930233 L43.6926094,0.448697674 L43.6940156,0.448697674 C44.0188594,0.448697674 44.3305781,0.576604651 44.5612031,0.804976744 L59.1646406,15.2733488 C59.3952656,15.5017209 59.5246406,15.8110233 59.5246406,16.1342791 L59.5551094,54.3784651 C59.5569844,57.198 57.2469844,59.4928837 54.4058906,59.4961395 L5.19557812,59.5347442 Z" id="Fill-1"></path>
                    </g>
                    <path d="M44.923125,4.62088372 L44.92875,12.2655349 C44.930625,13.7408837 46.1409375,14.941814 47.6282812,14.941814 L47.6282812,16.1594884 L47.6301562,14.941814 L55.3345312,14.9362326 L44.923125,4.62088372 Z M47.6329687,17.3771628 L47.6282812,17.3771628 C44.7890625,17.3771628 42.4776562,15.0850698 42.4748437,12.2673953 L42.466875,1.68367442 C42.4664062,1.19111628 42.765,0.746930233 43.2234375,0.558093023 C43.6823437,0.36972093 44.2096875,0.472976744 44.56125,0.821348837 L59.1646875,15.2897209 C59.51625,15.638093 59.62125,16.1613488 59.431875,16.6166977 C59.2420312,17.0715814 58.7953125,17.3683256 58.2989062,17.3687907 L47.6329687,17.3771628 Z" id="Fill-4"></path>
                </g>
                <path d="M27.3747687,41 L27.3738062,41 C27.1505067,40.9996106 26.9368322,40.8921361 26.7793033,40.6997722 L17.2441574,29.0609801 C16.9172289,28.6618446 16.9188331,28.0166079 17.2476866,27.6198088 C17.57654,27.2222309 18.1081597,27.2249567 18.435409,27.6233134 L27.3763729,38.5370417 L41.5661587,21.2982808 C41.8943705,20.9003135 42.4259902,20.9010923 42.7538811,21.297502 C43.0817721,21.6954693 43.0820929,22.3410954 42.7545228,22.7386733 L27.9689508,40.7009404 C27.8114219,40.8929149 27.5977474,41 27.3747687,41" id="Fill-1" stroke="#2D2F45" stroke-width="3"></path>
            </g>
        </g>
    </g>
</svg>