<?xml version="1.0" encoding="UTF-8"?>
<svg width="111px" height="93px" viewBox="0 0 111 93" version="1.1" xmlns="http://www.w3.org/2000/svg" xmlns:xlink="http://www.w3.org/1999/xlink">
    <!-- Generator: Sketch 49.1 (51147) - http://www.bohemiancoding.com/sketch -->
    <title>Page 1</title>
    <desc>Created with Sketch.</desc>
    <defs>
        <polygon id="path-1" points="53.4905059 0.431302597 53.4905059 12.2966532 0.152904092 12.2966532 0.152904092 0.431302597 53.4905059 0.431302597"></polygon>
        <polygon id="path-3" points="98.7105645 0.596830519 98.7105645 71.2001357 0.3138875 71.2001357 0.3138875 0.596830519 98.7105645 0.596830519"></polygon>
        <polygon id="path-5" points="98.7105645 0.367048052 98.7105645 2.89556104 0.3138875 2.89556104 0.3138875 0.367048052 98.7105645 0.367048052"></polygon>
    </defs>
    <g id="Desktop-1399---1024-px" stroke="none" stroke-width="1" fill="none" fill-rule="evenodd">
        <g id="Desktop_EDU-Main" transform="translate(-234.000000, -2020.000000)">
            <g id="Page-1" transform="translate(234.000000, 2020.000000)">
                <g id="Group-3" transform="translate(56.675807, 68.247506)">
                    <mask id="mask-2" fill="white">
                        <use xlink:href="#path-1"></use>
                    </mask>
                    <g id="Clip-2"></g>
                    <path d="M47.0394726,12.2966532 L1.41544813,12.2966532 C0.717853357,12.2966532 0.152904092,11.7308026 0.152904092,11.0320948 C0.152904092,10.333387 0.717853357,9.76753636 1.41544813,9.76753636 L47.0394726,9.76753636 C49.2040061,9.76753636 50.9651766,8.00355584 50.9651766,5.83496494 L50.9651766,1.69525714 C50.9651766,0.997757143 51.5307288,0.431302597 52.2277207,0.431302597 C52.9247125,0.431302597 53.4908676,0.997757143 53.4908676,1.69525714 L53.4908676,5.83496494 C53.4908676,9.39734805 50.5967839,12.2966532 47.0394726,12.2966532" id="Fill-1" fill="#808184" mask="url(#mask-2)"></path>
                </g>
                <g id="Group-6" transform="translate(11.455748, 0.007247)">
                    <mask id="mask-4" fill="white">
                        <use xlink:href="#path-3"></use>
                    </mask>
                    <g id="Clip-5"></g>
                    <path d="M97.4477793,71.2001357 C96.7507875,71.2001357 96.1852353,70.6342851 96.1852353,69.9355773 L96.1852353,7.05791494 C96.1852353,4.88992792 94.4240647,3.1259474 92.2595312,3.1259474 L6.76709133,3.1259474 C4.60135199,3.1259474 2.83957851,4.88992792 2.83957851,7.05791494 L2.83957851,25.8282136 C2.83957851,26.5263175 2.27402631,27.0927721 1.57703447,27.0927721 C0.8794397,27.0927721 0.3138875,26.5263175 0.3138875,25.8282136 L0.3138875,7.05791494 C0.3138875,3.49553182 3.20917712,0.596830519 6.76709133,0.596830519 L92.2595312,0.596830519 C95.8168425,0.596830519 98.7109263,3.49553182 98.7109263,7.05791494 L98.7109263,69.9355773 C98.7109263,70.6342851 98.1447711,71.2001357 97.4477793,71.2001357" id="Fill-4" fill="#808184" mask="url(#mask-4)"></path>
                </g>
                <g id="Group-9" transform="translate(11.455748, 13.896857)">
                    <mask id="mask-6" fill="white">
                        <use xlink:href="#path-5"></use>
                    </mask>
                    <g id="Clip-8"></g>
                    <path d="M97.4477793,2.89556104 L1.57703447,2.89556104 C0.8794397,2.89556104 0.3138875,2.32971039 0.3138875,1.6303987 C0.3138875,0.932294805 0.8794397,0.367048052 1.57703447,0.367048052 L97.4477793,0.367048052 C98.1447711,0.367048052 98.7109263,0.932294805 98.7109263,1.6303987 C98.7109263,2.32971039 98.1447711,2.89556104 97.4477793,2.89556104" id="Fill-7" fill="#808184" mask="url(#mask-6)"></path>
                </g>
                <path d="M27.7058476,7.10181818 C26.8635486,7.10181818 26.1774096,7.78905195 26.1774096,8.63148701 C26.1774096,9.47633766 26.8635486,10.1629675 27.7058476,10.1629675 C28.5487495,10.1629675 29.2336826,9.47633766 29.2336826,8.63148701 C29.2336826,7.78905195 28.5487495,7.10181818 27.7058476,7.10181818 M27.7058476,12.6920844 C25.4707708,12.6920844 23.6523215,10.8701299 23.6523215,8.63148701 C23.6523215,6.39344805 25.4707708,4.5727013 27.7058476,4.5727013 C29.9409243,4.5727013 31.7593736,6.39344805 31.7593736,8.63148701 C31.7593736,10.8701299 29.9409243,12.6920844 27.7058476,12.6920844" id="Fill-10" fill="#FFB200"></path>
                <path d="M37.3804681,7.10181818 C36.5375662,7.10181818 35.8520301,7.78905195 35.8520301,8.63148701 C35.8520301,9.47633766 36.5375662,10.1629675 37.3804681,10.1629675 C38.222767,10.1629675 38.9089061,9.47633766 38.9089061,8.63148701 C38.9089061,7.78905195 38.222767,7.10181818 37.3804681,7.10181818 M37.3804681,12.6920844 C35.1453913,12.6920844 33.326942,10.8701299 33.326942,8.63148701 C33.326942,6.39344805 35.1453913,4.5727013 37.3804681,4.5727013 C39.6155449,4.5727013 41.4339941,6.39344805 41.4339941,8.63148701 C41.4339941,10.8701299 39.6155449,12.6920844 37.3804681,12.6920844" id="Fill-12" fill="#FFB200"></path>
                <path d="M47.4280636,7.10181818 C46.5851618,7.10181818 45.8996257,7.78905195 45.8996257,8.63148701 C45.8996257,9.47633766 46.5851618,10.1629675 47.4280636,10.1629675 C48.2703626,10.1629675 48.9558987,9.47633766 48.9558987,8.63148701 C48.9558987,7.78905195 48.2703626,7.10181818 47.4280636,7.10181818 M47.4280636,12.6920844 C45.1929869,12.6920844 43.3745376,10.8701299 43.3745376,8.63148701 C43.3745376,6.39344805 45.1929869,4.5727013 47.4280636,4.5727013 C49.6631404,4.5727013 51.4809868,6.39344805 51.4809868,8.63148701 C51.4809868,10.8701299 49.6631404,12.6920844 47.4280636,12.6920844" id="Fill-14" fill="#FFB200"></path>
                <path d="M73.0495077,51.6768994 L99.5134919,51.6768994 L99.640108,25.1628409 L73.0495077,25.1628409 L73.0495077,51.6768994 Z M100.769404,54.2054123 L71.7869637,54.2054123 C71.0899718,54.2054123 70.5244196,53.6389578 70.5244196,52.9408539 L70.5244196,23.8976786 C70.5244196,23.1995747 71.0899718,22.633724 71.7869637,22.633724 L100.908681,22.633724 C101.245119,22.633724 101.567085,22.7671851 101.803436,23.0051201 C102.040389,23.2448669 102.173034,23.5673474 102.171225,23.9043214 L102.031948,52.9468929 C102.02833,53.6431851 101.464587,54.2054123 100.769404,54.2054123 Z" id="Fill-16" fill="#FFB200"></path>
                <path d="M100.769464,60.9753292 L85.0509715,60.9753292 C84.3539797,60.9753292 83.7890304,60.4088747 83.7890304,59.7101669 C83.7890304,59.012063 84.3539797,58.4456084 85.0509715,58.4456084 L100.769464,58.4456084 C101.467059,58.4456084 102.032008,59.012063 102.032008,59.7101669 C102.032008,60.4088747 101.467059,60.9753292 100.769464,60.9753292" id="Fill-18" fill="#FFB200"></path>
                <path d="M100.769464,67.2024643 L85.0509715,67.2024643 C84.3539797,67.2024643 83.7890304,66.6360097 83.7890304,65.9379058 C83.7890304,65.2391981 84.3539797,64.6733474 85.0509715,64.6733474 L100.769464,64.6733474 C101.467059,64.6733474 102.032008,65.2391981 102.032008,65.9379058 C102.032008,66.6360097 101.467059,67.2024643 100.769464,67.2024643" id="Fill-20" fill="#FFB200"></path>
                <path d="M100.908742,73.429539 L85.1908523,73.429539 C84.4932575,73.429539 83.9283082,72.8636883 83.9283082,72.1643766 C83.9283082,71.4668766 84.4932575,70.9004221 85.1908523,70.9004221 L100.908742,70.9004221 C101.606336,70.9004221 102.171286,71.4668766 102.171286,72.1643766 C102.171286,72.8636883 101.606336,73.429539 100.908742,73.429539" id="Fill-22" fill="#FFB200"></path>
                <path d="M32.650872,28.9765052 C29.2684116,28.9765052 26.5166203,31.7320831 26.5166203,35.1211481 C26.5166203,38.8212195 29.4914972,43.5950182 32.650872,43.5950182 C35.8114526,43.5950182 38.7863296,38.8212195 38.7863296,35.1211481 C38.7863296,31.7320831 36.0345383,28.9765052 32.650872,28.9765052 M32.650872,46.1241351 C27.627225,46.1241351 23.9915323,39.5513299 23.9915323,35.1211481 C23.9915323,30.3382909 27.8762368,26.4473883 32.650872,26.4473883 C37.4267131,26.4473883 41.3120206,30.3382909 41.3120206,35.1211481 C41.3120206,39.5513299 37.675122,46.1241351 32.650872,46.1241351" id="Fill-24" fill="#FFB200"></path>
                <path d="M42.9016564,70.7284929 L39.0308193,70.7284929 C38.3338275,70.7284929 37.7682753,70.1626422 37.7682753,69.4639344 C37.7682753,68.7652266 38.3338275,68.1999799 39.0308193,68.1999799 L41.7313612,68.1999799 L42.9914935,51.5107071 C41.7355818,50.8132071 38.3362392,49.2871617 32.6511735,49.2871617 C26.9124466,49.2871617 23.5547065,50.8053565 22.3108534,51.5052721 L23.5727945,68.1999799 L26.2727335,68.1999799 C26.9697253,68.1999799 27.5352775,68.7652266 27.5352775,69.4639344 C27.5352775,70.1626422 26.9697253,70.7284929 26.2727335,70.7284929 L22.4018965,70.7284929 C21.7416836,70.7284929 21.1930136,70.2188045 21.14297,69.5599539 L19.7357218,50.9382136 C19.7025604,50.5088435 19.8912788,50.0927591 20.2337454,49.8324799 C20.3995523,49.7062656 24.3933878,46.7586487 32.6511735,46.7586487 C40.9119738,46.7586487 44.9040006,49.7080773 45.0704104,49.8324799 C45.412274,50.0927591 45.6003895,50.5088435 45.567831,50.9382136 L44.1605828,69.5599539 C44.1111422,70.2188045 43.5618692,70.7284929 42.9016564,70.7284929" id="Fill-26" fill="#FFB200"></path>
                <path d="M36.6850439,92.4032903 L28.6183884,92.4032903 C27.9738518,92.4032903 27.432417,91.91655 27.3630795,91.2752123 L25.0170629,69.6007773 C24.9416961,68.9062968 25.4433373,68.2824721 26.1361086,68.2069851 C26.8294828,68.1339136 27.4523138,68.6345435 27.5276805,69.3272123 L29.7513016,89.8741734 L35.5521307,89.8741734 L37.7757517,69.3272123 C37.8505155,68.6345435 38.4721406,68.1357253 39.1667207,68.2069851 C39.8600949,68.2824721 40.3611332,68.9062968 40.2857664,69.6007773 L37.9403527,91.2752123 C37.8710153,91.91655 37.3295804,92.4032903 36.6850439,92.4032903" id="Fill-28" fill="#FFB200"></path>
                <path d="M53.3935541,35.1711506 C50.4084273,35.1711506 47.9804116,37.6024364 47.9804116,40.592326 C47.9804116,43.8074688 50.6568361,48.1156636 53.3935541,48.1156636 C56.130272,48.1156636 58.8060936,43.8074688 58.8060936,40.592326 C58.8060936,37.6024364 56.3780779,35.1711506 53.3935541,35.1711506 M53.3935541,50.6441766 C48.9963556,50.6441766 45.4553235,45.1444948 45.4553235,40.592326 C45.4553235,36.2086442 49.0162524,32.6420338 53.3935541,32.6420338 C57.7702528,32.6420338 61.3317846,36.2086442 61.3317846,40.592326 C61.3317846,45.1444948 57.7907526,50.6441766 53.3935541,50.6441766" id="Fill-30" fill="#FFB200"></path>
                <path d="M62.6418399,72.8456922 L59.1490425,72.8456922 C58.4514478,72.8456922 57.8858956,72.2798416 57.8858956,71.5805299 C57.8858956,70.882426 58.4514478,70.3159714 59.1490425,70.3159714 L61.4715448,70.3159714 L62.5809435,55.6340494 C60.719083,54.9673481 56.2887231,53.4986727 53.3934335,53.4986727 C49.6504185,53.4986727 44.5471842,55.3955104 44.4959348,55.415439 C43.8423542,55.6612247 43.1146127,55.3284779 42.8710273,54.6744584 C42.6262361,54.0198351 42.9578498,53.2915364 43.6108275,53.0469584 C43.8375307,52.9618091 49.1982179,50.9689519 53.3934335,50.9689519 C57.5976931,50.9689519 64.0967199,53.4926338 64.3710549,53.6001273 C64.8883724,53.8024325 65.2127509,54.3187636 65.1705456,54.8737442 L63.9007663,71.6765494 C63.8513257,72.3360039 63.3026557,72.8456922 62.6418399,72.8456922" id="Fill-32" fill="#FFB200"></path>
                <path d="M57.0340703,90.0060039 C56.9828209,90.0060039 56.9297627,90.0023805 56.8779103,89.9963416 C56.185742,89.9105883 55.6937477,89.278913 55.7793644,88.5856403 L57.8956631,71.4253286 C57.9812798,70.7326597 58.610743,70.2416922 59.3041172,70.3256338 C59.9956826,70.411387 60.4876769,71.0430623 60.4020602,71.7357312 L58.2851585,88.8960429 C58.2067771,89.5367766 57.6623276,90.0060039 57.0340703,90.0060039" id="Fill-34" fill="#FFB200"></path>
                <path d="M11.7810914,35.1711506 C8.79656756,35.1711506 6.36855188,37.6024364 6.36855188,40.592326 C6.36855188,43.8074688 9.04497642,48.1156636 11.7810914,48.1156636 C14.5178094,48.1156636 17.1942339,43.8074688 17.1942339,40.592326 C17.1942339,37.6024364 14.7656153,35.1711506 11.7810914,35.1711506 M11.7810914,50.6441766 C7.38449587,50.6441766 3.84406674,45.1444948 3.84406674,40.592326 C3.84406674,36.2086442 7.40439269,32.6420338 11.7810914,32.6420338 C16.1583931,32.6420338 19.719322,36.2086442 19.719322,40.592326 C19.719322,45.1444948 16.1782899,50.6441766 11.7810914,50.6441766" id="Fill-36" fill="#FFB200"></path>
                <path d="M6.02578384,72.8456922 L2.53358944,72.8456922 C1.87277365,72.8456922 1.32410361,72.3360039 1.27406008,71.6765494 L0.0036778981,54.8737442 C-0.0379245558,54.3187636 0.286453998,53.8024325 0.803168535,53.6001273 C1.07750356,53.4926338 7.57713332,50.9689519 11.78079,50.9689519 C15.990476,50.9689519 21.5012938,53.1574714 21.7340263,53.2504714 C22.3809746,53.5095429 22.6963092,54.2456922 22.4376504,54.8942766 C22.1789917,55.542861 21.4428092,55.856887 20.7970667,55.5990234 C20.7446115,55.577887 15.5008935,53.4986727 11.78079,53.4986727 C8.88067687,53.4986727 4.45453754,54.9667442 2.59388286,55.6334455 L3.70388456,70.3159714 L6.02578384,70.3159714 C6.72337861,70.3159714 7.28772494,70.882426 7.28772494,71.5805299 C7.28772494,72.2798416 6.72337861,72.8456922 6.02578384,72.8456922" id="Fill-38" fill="#FFB200"></path>
                <path d="M8.13991202,90.0060039 C7.51165467,90.0060039 6.9678081,89.5367766 6.8882208,88.8960429 L4.77252499,71.7357312 C4.68690834,71.0424584 5.17890258,70.411387 5.87107094,70.3256338 C6.56384224,70.2410883 7.19330546,70.7326597 7.27831917,71.4253286 L9.39461791,88.5856403 C9.48023456,89.2795169 8.98824032,89.9105883 8.29607196,89.9963416 C8.24361669,90.0023805 8.19116142,90.0060039 8.13991202,90.0060039" id="Fill-40" fill="#FFB200"></path>
            </g>
        </g>
    </g>
</svg>