<?xml version="1.0" encoding="UTF-8"?>
<svg width="107px" height="100px" viewBox="0 0 107 100" version="1.1" xmlns="http://www.w3.org/2000/svg" xmlns:xlink="http://www.w3.org/1999/xlink">
    <!-- Generator: Sketch 49.1 (51147) - http://www.bohemiancoding.com/sketch -->
    <title>Page 1 Copy 9</title>
    <desc>Created with Sketch.</desc>
    <defs>
        <polygon id="path-1" points="0.197513371 0.470860927 54.0006623 0.470860927 54.0006623 99.3377483 0.197513371 99.3377483"></polygon>
        <polygon id="path-3" points="0 0.0417218543 0 36.4238411 27.9134768 36.4238411 55.8269536 36.4238411 55.8269536 0.0417218543"></polygon>
    </defs>
    <g id="Desktop-1399---1024-px" stroke="none" stroke-width="1" fill="none" fill-rule="evenodd">
        <g id="Desktop_EDU-Main" transform="translate(-537.000000, -873.000000)">
            <g id="Page-1-Copy-9" transform="translate(537.000000, 873.000000)">
                <g id="Group-3" transform="translate(52.317881, 0.191391)">
                    <mask id="mask-2" fill="white">
                        <use xlink:href="#path-1"></use>
                    </mask>
                    <g id="Clip-2"></g>
                    <path d="M41.7315232,16.7089404 L50.4818543,16.9599338 C49.7076821,11.3009934 47.6845033,4.33145695 44.9864901,3.81291391 C43.957351,5.12019868 42.8368212,10.2076159 41.7315232,16.7089404 M1.85271523,99.3380795 C1.47258278,99.3380795 1.09046358,99.2076159 0.777880795,98.9413907 C0.0825165563,98.3466887 0.000397350993,97.3016556 0.594437086,96.6069536 C3.44476821,93.2698675 3.88450331,86.0572848 4.27258278,79.6923841 C4.79708609,71.0850993 5.29311258,62.9559603 11.6010596,62.9559603 C17.2580132,62.9559603 18.7010596,68.6956954 19.9739073,73.7599338 C21.3182781,79.1069536 22.3593377,82.3533113 25.4798675,82.3533113 C25.6858278,82.2996689 27.7401325,81.4149007 30.5169536,67.8374172 C32.3229139,59.0129139 33.8924503,47.7036424 35.4103311,36.7672185 C36.4580132,29.2182119 37.3348344,23.1413907 38.1249007,18.2791391 C38.1255629,18.2731788 38.1255629,18.2678808 38.1255629,18.2612583 C38.1301987,18.1029801 38.1566887,17.9513245 38.2017219,17.8076159 C40.4056954,4.37317881 41.944106,0.470529801 44.6659603,0.470529801 C51.9725828,0.470529801 53.7182781,15.5056291 53.9937748,18.5188742 C54.0368212,18.9903974 53.875894,19.457947 53.552053,19.8036424 C53.2268874,20.1486755 52.7944371,20.3453642 52.2970861,20.3248344 L41.1904636,20.0062914 C40.3176159,25.4923841 39.4659603,31.6274834 38.6898013,37.2228477 C34.1196026,70.1506623 31.3268874,85.6645695 25.4798675,85.6645695 C19.5527152,85.6645695 18.0056954,79.5122517 16.762649,74.5678808 C15.4646358,69.4023179 14.4692715,66.2672185 11.6010596,66.2672185 C8.40834437,66.2672185 7.98582781,73.1943709 7.57721854,79.8943709 C7.13748344,87.1135762 6.6818543,94.5784768 3.11298013,98.757947 C2.78450331,99.1407285 2.3202649,99.3380795 1.85271523,99.3380795" id="Fill-1" fill="#FEFEFE" opacity="0.05" mask="url(#mask-2)"></path>
                </g>
                <path d="M33.9992053,58.4980132 C33.8992053,58.4980132 33.7972185,58.4887417 33.6952318,58.4701987 C32.7965563,58.3033113 32.2025166,57.4390728 32.369404,56.5403974 C33.9442384,48.0503311 35.2031788,38.6463576 36.3150993,30.3503311 C39.3197351,7.91456954 40.6157616,0.662251656 44.4707285,0.662251656 L96.9833113,0.662251656 C97.8978808,0.662251656 98.6389404,1.40331126 98.6389404,2.31788079 C98.6389404,3.23245033 97.8978808,3.97350993 96.9833113,3.97350993 L44.7323179,3.97350993 C42.9296689,5.90529801 41.085298,19.6794702 39.5965563,30.7900662 C38.4806623,39.1251656 37.2144371,48.5721854 35.6250331,57.1443709 C35.477351,57.9410596 34.7819868,58.4980132 33.9992053,58.4980132" id="Fill-4" fill="#FEFEFE" opacity="0.05"></path>
                <g id="Group-8" transform="translate(0.000000, 63.105298)">
                    <mask id="mask-4" fill="white">
                        <use xlink:href="#path-3"></use>
                    </mask>
                    <g id="Clip-7" opacity="0.05"></g>
                    <path d="M54.1713245,36.4238411 L1.65543046,36.4238411 C1.0097351,36.4238411 0.422317881,36.0483444 0.152119205,35.4615894 C-0.118741722,34.8741722 -0.0227152318,34.184106 0.397152318,33.6927152 C3.24682119,30.3562914 3.68788079,23.1430464 4.07596026,16.7788079 C4.60112583,8.17152318 5.09781457,0.0417218543 11.4070861,0.0417218543 C12.3216556,0.0417218543 13.0627152,0.782781457 13.0627152,1.69735099 C13.0627152,2.61125828 12.3216556,3.35298013 11.4070861,3.35298013 C8.21370861,3.35298013 7.7905298,10.2807947 7.38125828,16.9807947 C7.02496689,22.8205298 6.65807947,28.8211921 4.64152318,33.1125828 L54.1713245,33.1125828 C55.085894,33.1125828 55.8269536,33.8536424 55.8269536,34.7682119 C55.8269536,35.6827815 55.085894,36.4238411 54.1713245,36.4238411" id="Fill-6" fill="#FEFEFE" opacity="0.05" mask="url(#mask-4)"></path>
                </g>
                <path d="M63.9188742,66.4586093 L11.4069536,66.4586093 C10.4923841,66.4586093 9.7513245,65.7168874 9.7513245,64.8029801 C9.7513245,63.8877483 10.4923841,63.147351 11.4069536,63.147351 L63.9188742,63.147351 C64.8334437,63.147351 65.5745033,63.8877483 65.5745033,64.8029801 C65.5745033,65.7168874 64.8334437,66.4586093 63.9188742,66.4586093" id="Fill-9" fill="#FEFEFE" opacity="0.05"></path>
                <path d="M76.3917219,85.6813245 L57.9731788,85.6813245 C57.0586093,85.6813245 56.3175497,84.9402649 56.3175497,84.0256954 C56.3175497,83.1111258 57.0586093,82.3700662 57.9731788,82.3700662 L76.3917219,82.3700662 C77.3062914,82.3700662 78.047351,83.1111258 78.047351,84.0256954 C78.047351,84.9402649 77.3062914,85.6813245 76.3917219,85.6813245" id="Fill-11" fill="#FEFEFE" opacity="0.05"></path>
                <path d="M67.1822517,16.9300662 L49.906755,16.9300662 C48.9921854,16.9300662 48.2511258,16.1890066 48.2511258,15.2744371 C48.2511258,14.3598675 48.9921854,13.6188079 49.906755,13.6188079 L67.1822517,13.6188079 C68.0968212,13.6188079 68.8378808,14.3598675 68.8378808,15.2744371 C68.8378808,16.1890066 68.0968212,16.9300662 67.1822517,16.9300662" id="Fill-13" fill="#FEFEFE" opacity="0.05"></path>
                <path d="M81.5551656,25.3880132 L48.6233775,25.3880132 C47.7094702,25.3880132 46.9677483,24.6469536 46.9677483,23.7323841 C46.9677483,22.8178146 47.7094702,22.076755 48.6233775,22.076755 L81.5551656,22.076755 C82.4697351,22.076755 83.2107947,22.8178146 83.2107947,23.7323841 C83.2107947,24.6469536 82.4697351,25.3880132 81.5551656,25.3880132" id="Fill-15" fill="#FEFEFE" opacity="0.05"></path>
                <path d="M80.4751656,33.845894 L47.5433775,33.845894 C46.6294702,33.845894 45.8877483,33.1048344 45.8877483,32.1902649 C45.8877483,31.2763576 46.6294702,30.5346358 47.5433775,30.5346358 L80.4751656,30.5346358 C81.3897351,30.5346358 82.1307947,31.2763576 82.1307947,32.1902649 C82.1307947,33.1048344 81.3897351,33.845894 80.4751656,33.845894" id="Fill-17" fill="#FEFEFE" opacity="0.05"></path>
                <path d="M79.3950993,42.3038411 L46.4646358,42.3038411 C45.5507285,42.3038411 44.8090066,41.5627815 44.8090066,40.6482119 C44.8090066,39.7336424 45.5507285,38.9925828 46.4646358,38.9925828 L79.3950993,38.9925828 C80.3096689,38.9925828 81.0507285,39.7336424 81.0507285,40.6482119 C81.0507285,41.5627815 80.3096689,42.3038411 79.3950993,42.3038411" id="Fill-19" fill="#FEFEFE" opacity="0.05"></path>
                <path d="M78.3163576,50.7617881 L45.3845695,50.7617881 C44.4706623,50.7617881 43.7289404,50.0207285 43.7289404,49.1061589 C43.7289404,48.1915894 44.4706623,47.4505298 45.3845695,47.4505298 L78.3163576,47.4505298 C79.2309272,47.4505298 79.9719868,48.1915894 79.9719868,49.1061589 C79.9719868,50.0207285 79.2309272,50.7617881 78.3163576,50.7617881" id="Fill-21" fill="#FEFEFE" opacity="0.05"></path>
            </g>
        </g>
    </g>
</svg>