<?xml version="1.0" encoding="UTF-8"?>
<svg width="113px" height="114px" viewBox="0 0 113 114" version="1.1" xmlns="http://www.w3.org/2000/svg" xmlns:xlink="http://www.w3.org/1999/xlink">
    <!-- Generator: Sketch 49.1 (51147) - http://www.bohemiancoding.com/sketch -->
    <title>Page 1</title>
    <desc>Created with Sketch.</desc>
    <defs>
        <polygon id="path-1" points="99.1184602 36.129637 99.1184602 71.66716 0 71.66716 0 36.129637 0 0.592114076 99.1184602 0.592114076"></polygon>
        <polygon id="path-3" points="0 71.7917175 99.1184602 71.7917175 99.1184602 0.716528265 0 0.716528265"></polygon>
    </defs>
    <g id="HD-Desktop-1920---1440-px" stroke="none" stroke-width="1" fill="none" fill-rule="evenodd" opacity="0.05">
        <g id="HD-Desktop_EDU-Main" transform="translate(-444.000000, -4640.000000)">
            <g id="Page-1" transform="translate(500.000000, 4698.313433) rotate(45.000000) translate(-500.000000, -4698.313433) translate(450.000000, 4661.000000)">
                <g id="Group-3" transform="translate(0.000000, 0.124558)">
                    <mask id="mask-2" fill="white">
                        <use xlink:href="#path-1"></use>
                    </mask>
                    <g id="Clip-2"></g>
                    <path d="M8.97090567,4.17547207 C6.0026124,4.17547207 3.58836227,6.58635533 3.58836227,9.55050907 L3.58836227,62.7089083 C3.58836227,65.673062 6.0026124,68.0839453 8.97090567,68.0839453 L90.1475546,68.0839453 C93.1158478,68.0839453 95.530098,65.673062 95.530098,62.7089083 L95.530098,9.55050907 C95.530098,6.58635533 93.1158478,4.17547207 90.1475546,4.17547207 L8.97090567,4.17547207 Z M90.1475546,71.6673033 L8.97090567,71.6673033 C4.02398945,71.6673033 0,67.648209 0,62.7089083 L0,9.55050907 C0,4.61049173 4.02398945,0.592114076 8.97090567,0.592114076 L90.1475546,0.592114076 C95.0944708,0.592114076 99.1184602,4.61049173 99.1184602,9.55050907 L99.1184602,62.7089083 C99.1184602,67.648209 95.0944708,71.6673033 90.1475546,71.6673033 Z" id="Fill-1" fill="#FEFEFE" mask="url(#mask-2)"></path>
                </g>
                <path d="M35.2115224,60.4257359 C35.2115224,61.9751799 33.9534426,63.2307886 32.4039878,63.2307886 L15.3764912,63.2307886 C13.8248833,63.2307886 12.5668035,61.9751799 12.5668035,60.4257359 L12.5668035,49.1790085 C12.5668035,47.6302812 13.8248833,46.3753892 15.3764912,46.3753892 L32.4039878,46.3753892 C33.9534426,46.3753892 35.2115224,47.6302812 35.2115224,49.1790085 L35.2115224,60.4257359 Z" id="Fill-4" fill="#FEFEFE"></path>
                <mask id="mask-4" fill="white">
                    <use xlink:href="#path-3"></use>
                </mask>
                <g id="Clip-7"></g>
                <polygon id="Fill-6" fill="#FEFEFE" mask="url(#mask-4)" points="1.79418113 31.4466898 98.1991218 31.4466898 98.1991218 16.0203336 1.79418113 16.0203336"></polygon>
            </g>
        </g>
    </g>
</svg>