<?xml version="1.0" encoding="UTF-8"?>
<svg width="110px" height="100px" viewBox="0 0 110 100" version="1.1" xmlns="http://www.w3.org/2000/svg" xmlns:xlink="http://www.w3.org/1999/xlink">
    <!-- Generator: Sketch 49.1 (51147) - http://www.bohemiancoding.com/sketch -->
    <title>Page 1</title>
    <desc>Created with Sketch.</desc>
    <defs>
        <polygon id="path-1" points="109.29323 0.395198121 109.29323 79.1613078 -6.08658916e-05 79.1613078 -6.08658916e-05 0.395198121"></polygon>
        <polygon id="path-3" points="0 99.2857783 109.29323 99.2857783 109.29323 0.607810091 0 0.607810091"></polygon>
    </defs>
    <g id="HD-Desktop-1920---1440-px" stroke="none" stroke-width="1" fill="none" fill-rule="evenodd" opacity="0.05">
        <g id="HD-Desktop_EDU-Main" transform="translate(-905.000000, -4648.000000)">
            <g id="Page-1" transform="translate(905.000000, 4648.000000)">
                <path d="M82.3561772,99.2857783 L28.0875395,99.2857783 C25.7381161,99.2857783 23.8269271,97.3766468 23.8269271,95.0311077 C23.8269271,92.6855685 25.7381161,90.776437 28.0875395,90.776437 C28.1143205,90.776437 28.1417102,90.7770449 28.1684912,90.7788683 C28.2628333,90.783123 37.7006985,91.2164916 42.3295495,86.8274949 C44.0094481,85.2344246 44.8256597,83.2322982 44.8256597,80.7062395 C44.8256597,79.616436 44.9516521,78.5375731 45.2005936,77.500649 C45.3959732,76.6837523 46.2176627,76.1798777 47.034483,76.3768082 C47.8519119,76.572523 48.3558815,77.391851 48.1598933,78.20814 C47.9669484,79.0134884 47.8689543,79.8540897 47.8689543,80.7062395 C47.8689543,84.0668215 46.7076331,86.8694338 44.4178583,89.0381002 C38.9727956,94.1929376 28.9621824,93.8549952 28.0577153,93.8160953 C27.399755,93.8312906 26.8702217,94.3710259 26.8702217,95.0311077 C26.8702217,95.7015222 27.4161888,96.2467279 28.0875395,96.2467279 L82.3561772,96.2467279 C83.027528,96.2467279 83.573495,95.7015222 83.573495,95.0311077 C83.573495,94.3783196 83.0555263,93.8446624 82.4091305,93.8167031 C81.2709383,93.9109137 70.9967758,94.5995625 65.332596,89.4447251 C62.8991776,87.230473 61.665426,84.2898878 61.665426,80.7062395 C61.665426,79.8309929 61.5783878,79.0031556 61.399442,78.1753182 C61.2223223,77.3547746 61.7445516,76.5463872 62.5656325,76.3695145 C63.3885394,76.1896027 64.1974471,76.713535 64.3745668,77.5340786 C64.5961187,78.560062 64.7087206,79.6279844 64.7087206,80.7062395 C64.7087206,83.437738 65.5833634,85.5608187 67.3819505,87.1976512 C72.2749596,91.6498601 82.1163656,90.7910245 82.2149683,90.783123 C82.2618351,90.7788683 82.3093104,90.776437 82.3561772,90.776437 C84.7056006,90.776437 86.6167896,92.6855685 86.6167896,95.0311077 C86.6167896,97.3766468 84.7056006,99.2857783 82.3561772,99.2857783 Z" id="Fill-1" fill="#FEFEFE"></path>
                <g id="Group-5" transform="translate(0.000000, 0.212734)">
                    <mask id="mask-2" fill="white">
                        <use xlink:href="#path-1"></use>
                    </mask>
                    <g id="Clip-4"></g>
                    <path d="M102.409236,79.1613078 L61.7538641,79.1613078 C60.9133062,79.1613078 60.2322168,78.4811683 60.2322168,77.6417826 C60.2322168,76.8023968 60.9133062,76.1222573 61.7538641,76.1222573 L102.409236,76.1222573 C104.526761,76.1222573 106.250483,74.401547 106.250483,72.2863678 L106.250483,7.27013806 C106.250483,5.15495894 104.526761,3.43424857 102.409236,3.43424857 L6.88448014,3.43424857 C4.76634711,3.43424857 3.04323372,5.15495894 3.04323372,7.27013806 L3.04323372,72.2863678 C3.04323372,74.401547 4.76634711,76.1222573 6.88448014,76.1222573 L52.5168564,76.1222573 C53.3574144,76.1222573 54.0385037,76.8023968 54.0385037,77.6417826 C54.0385037,78.4811683 53.3574144,79.1613078 52.5168564,79.1613078 L6.88448014,79.1613078 C3.08827448,79.1613078 -6.08658916e-05,76.0772794 -6.08658916e-05,72.2863678 L-6.08658916e-05,7.27013806 C-6.08658916e-05,3.47922652 3.08827448,0.395198121 6.88448014,0.395198121 L102.409236,0.395198121 C106.205442,0.395198121 109.293777,3.47922652 109.293777,7.27013806 L109.293777,72.2863678 C109.293777,76.0772794 106.205442,79.1613078 102.409236,79.1613078" id="Fill-3" fill="#FEFEFE" mask="url(#mask-2)"></path>
                </g>
                <mask id="mask-4" fill="white">
                    <use xlink:href="#path-3"></use>
                </mask>
                <g id="Clip-7"></g>
                <path d="M10.9619471,62.2093628 L98.3318912,62.2093628 L98.3318912,11.1533152 L10.9619471,11.1533152 L10.9619471,62.2093628 Z M99.8535385,65.2484132 L9.44029979,65.2484132 C8.59974183,65.2484132 7.9186525,64.5682737 7.9186525,63.728888 L7.9186525,9.63378994 C7.9186525,8.7944042 8.59974183,8.11426471 9.44029979,8.11426471 L99.8535385,8.11426471 C100.694096,8.11426471 101.375186,8.7944042 101.375186,9.63378994 L101.375186,63.728888 C101.375186,64.5682737 100.694096,65.2484132 99.8535385,65.2484132 Z" id="Fill-6" fill="#FEFEFE" mask="url(#mask-4)"></path>
                <path d="M83.4819527,19.0714396 C80.7971582,19.0714396 78.6126814,21.25287 78.6126814,23.9339203 C78.6126814,26.6149706 80.7971582,28.796401 83.4819527,28.796401 C86.1667472,28.796401 88.351224,26.6149706 88.351224,23.9339203 C88.351224,21.25287 86.1667472,19.0714396 83.4819527,19.0714396 M83.4819527,31.8354515 C79.1190856,31.8354515 75.5693868,28.290703 75.5693868,23.9339203 C75.5693868,19.5771376 79.1190856,16.0323891 83.4819527,16.0323891 C87.8448198,16.0323891 91.3945186,19.5771376 91.3945186,23.9339203 C91.3945186,28.290703 87.8448198,31.8354515 83.4819527,31.8354515" id="Fill-8" fill="#FEFEFE" mask="url(#mask-4)"></path>
                <path d="M64.6753661,39.6206478 C61.1098421,39.6206478 58.2083651,42.3813212 58.2083651,45.774725 C58.2083651,49.1681287 61.1098421,51.9288021 64.6753661,51.9288021 C68.24089,51.9288021 71.142367,49.1681287 71.142367,45.774725 C71.142367,42.3813212 68.24089,39.6206478 64.6753661,39.6206478 M64.6753661,54.9678526 C59.4311608,54.9678526 55.1650705,50.8438611 55.1650705,45.774725 C55.1650705,40.7055888 59.4311608,36.5815973 64.6753661,36.5815973 C69.9195713,36.5815973 74.1856616,40.7055888 74.1856616,45.774725 C74.1856616,50.8438611 69.9195713,54.9678526 64.6753661,54.9678526" id="Fill-9" fill="#FEFEFE" mask="url(#mask-4)"></path>
                <path d="M39.8832276,27.6176141 C37.1984331,27.6176141 35.0139563,29.7990445 35.0139563,32.4800948 C35.0139563,35.1611452 37.1984331,37.3425756 39.8832276,37.3425756 C42.5680221,37.3425756 44.7524989,35.1611452 44.7524989,32.4800948 C44.7524989,29.7990445 42.5680221,27.6176141 39.8832276,27.6176141 M39.8832276,40.381626 C35.5203605,40.381626 31.9706617,36.8368776 31.9706617,32.4800948 C31.9706617,28.1233121 35.5203605,24.5785637 39.8832276,24.5785637 C44.2460947,24.5785637 47.7957935,28.1233121 47.7957935,32.4800948 C47.7957935,36.8368776 44.2460947,40.381626 39.8832276,40.381626" id="Fill-10" fill="#FEFEFE" mask="url(#mask-4)"></path>
                <path d="M23.7572966,48.6689951 C22.2052163,48.6689951 20.9422491,49.930201 20.9422491,51.4801167 C20.9422491,53.0300325 22.2052163,54.2912384 23.7572966,54.2912384 C25.3093768,54.2912384 26.572344,53.0300325 26.572344,51.4801167 C26.572344,49.930201 25.3093768,48.6689951 23.7572966,48.6689951 M23.7572966,57.3302888 C20.5271437,57.3302888 17.8989545,54.7063727 17.8989545,51.4801167 C17.8989545,48.2538608 20.5271437,45.6299446 23.7572966,45.6299446 C26.9874494,45.6299446 29.6156386,48.2538608 29.6156386,51.4801167 C29.6156386,54.7063727 26.9874494,57.3302888 23.7572966,57.3302888" id="Fill-11" fill="#FEFEFE" mask="url(#mask-4)"></path>
                <path d="M70.4609125,42.0091591 C70.1194549,42.0091591 69.7761712,41.8954986 69.4925362,41.6608839 C68.8449231,41.1266189 68.7536243,40.1687102 69.2886354,39.5213924 L78.6583308,28.1997138 C79.1945593,27.5536117 80.1531971,27.4618324 80.8008102,27.9967053 C81.4484233,28.5309703 81.5397221,29.488879 81.0041023,30.1361968 L71.6350156,41.4578754 C71.3337294,41.820738 70.8991469,42.0091591 70.4609125,42.0091591" id="Fill-12" fill="#FEFEFE" mask="url(#mask-4)"></path>
                <path d="M57.7592965,43.4503376 C57.5133983,43.4503376 57.2638482,43.3907722 57.0319491,43.2643477 L45.545338,37.0069428 C44.8076434,36.6051804 44.5355729,35.6825247 44.9385051,34.9458588 C45.3408287,34.209193 46.2641642,33.9368941 47.0030762,34.3398722 L58.4896872,40.597277 C59.2273818,40.9990395 59.4988437,41.9216952 59.0965202,42.6583611 C58.820189,43.1640591 58.2985683,43.4503376 57.7592965,43.4503376" id="Fill-13" fill="#FEFEFE" mask="url(#mask-4)"></path>
                <path d="M26.6018031,49.736188 C26.2633888,49.736188 25.9237571,49.624351 25.6407307,49.3945987 C24.9900743,48.8633727 24.8920802,47.9066796 25.4234395,47.2563228 L34.416375,36.2434118 C34.9471255,35.593055 35.9057633,35.4951976 36.557637,36.0258158 C37.2089021,36.556434 37.3062875,37.5137349 36.7749283,38.1640917 L27.7819928,49.1770027 C27.4813153,49.5453356 27.0430808,49.736188 26.6018031,49.736188" id="Fill-14" fill="#FEFEFE" mask="url(#mask-4)"></path>
                <path d="M64.6753661,72.5421343 L44.6182288,72.5421343 C43.7776708,72.5421343 43.0965815,71.8619948 43.0965815,71.0226091 C43.0965815,70.1832234 43.7776708,69.5030839 44.6182288,69.5030839 L64.6753661,69.5030839 C65.515924,69.5030839 66.1970133,70.1832234 66.1970133,71.0226091 C66.1970133,71.8619948 65.515924,72.5421343 64.6753661,72.5421343" id="Fill-15" fill="#FEFEFE" mask="url(#mask-4)"></path>
            </g>
        </g>
    </g>
</svg>