<?xml version="1.0" encoding="UTF-8"?>
<svg width="30px" height="30px" viewBox="0 0 30 30" version="1.1" xmlns="http://www.w3.org/2000/svg" xmlns:xlink="http://www.w3.org/1999/xlink">
    <!-- Generator: Sketch 49.1 (51147) - http://www.bohemiancoding.com/sketch -->
    <title>Group 4</title>
    <desc>Created with Sketch.</desc>
    <defs></defs>
    <g id="Desktop-1399---1024-px" stroke="none" stroke-width="1" fill="none" fill-rule="evenodd">
        <g id="Desktop_EDU-Main" transform="translate(-651.000000, -2286.000000)" fill="#FFB200" fill-rule="nonzero">
            <g id="Group-4" transform="translate(651.000000, 2286.000000)">
                <path d="M7.59493671,15.1898734 C3.40036899,15.1898734 0,11.7895044 0,7.59493671 C0,3.40036899 3.40036899,0 7.59493671,0 C11.7895044,0 15.1898734,3.40036899 15.1898734,7.59493671 C15.1898734,11.7895044 11.7895044,15.1898734 7.59493671,15.1898734 Z M7.59493671,13.6708861 C10.9505909,13.6708861 13.6708861,10.9505909 13.6708861,7.59493671 C13.6708861,4.23928253 10.9505909,1.51898734 7.59493671,1.51898734 C4.23928253,1.51898734 1.51898734,4.23928253 1.51898734,7.59493671 C1.51898734,10.9505909 4.23928253,13.6708861 7.59493671,13.6708861 Z" id="Oval-3"></path>
                <path d="M22.4050633,29.2405063 C18.2104956,29.2405063 14.8101266,25.8401373 14.8101266,21.6455696 C14.8101266,17.4510019 18.2104956,14.0506329 22.4050633,14.0506329 C26.599631,14.0506329 30,17.4510019 30,21.6455696 C30,25.8401373 26.599631,29.2405063 22.4050633,29.2405063 Z M22.4050633,27.721519 C25.7607175,27.721519 28.4810127,25.0012238 28.4810127,21.6455696 C28.4810127,18.2899154 25.7607175,15.5696203 22.4050633,15.5696203 C19.0494091,15.5696203 16.3291139,18.2899154 16.3291139,21.6455696 C16.3291139,25.0012238 19.0494091,27.721519 22.4050633,27.721519 Z" id="Oval-3-Copy"></path>
                <path d="M4.14463806,26.1699545 L25.6011744,4.71341818 C25.8977751,4.41681746 25.8977751,3.93593266 25.6011744,3.63933193 C25.3045737,3.34273121 24.8236889,3.34273121 24.5270881,3.63933193 L3.07055181,25.0958683 C2.77395108,25.392469 2.77395108,25.8733538 3.07055181,26.1699545 C3.36715254,26.4665552 3.84803733,26.4665552 4.14463806,26.1699545 Z" id="Line"></path>
            </g>
        </g>
    </g>
</svg>