<?xml version="1.0" encoding="UTF-8"?>
<svg width="125px" height="101px" viewBox="0 0 125 101" version="1.1" xmlns="http://www.w3.org/2000/svg" xmlns:xlink="http://www.w3.org/1999/xlink">
    <!-- Generator: Sketch 49.1 (51147) - http://www.bohemiancoding.com/sketch -->
    <title>Page 1</title>
    <desc>Created with Sketch.</desc>
    <defs>
        <polygon id="path-1" points="56.0351145 0.296285448 56.0351145 17.9746565 0.489396603 17.9746565 0.489396603 0.296285448 56.0351145 0.296285448"></polygon>
    </defs>
    <g id="Desktop-1399---1024-px" stroke="none" stroke-width="1" fill="none" fill-rule="evenodd" opacity="0.05">
        <g id="Desktop_EDU-Main" transform="translate(-1047.000000, -873.000000)">
            <g id="Page-1" transform="translate(1109.000000, 923.213740) scale(1, -1) rotate(90.000000) translate(-1109.000000, -923.213740) translate(1059.000000, 861.000000)">
                <path d="M79.2003817,39.6770229 C78.528626,39.6770229 77.8774809,39.3220611 77.5293893,38.6930534 C77.0187023,37.770916 77.3522901,36.609084 78.2744275,36.0991603 L94.5927481,27.0640458 L77.7927481,8.75946565 C77.079771,7.98312977 77.1316794,6.77549618 77.9080153,6.06328244 C78.6843511,5.3510687 79.8919847,5.4029771 80.6041985,6.17854962 L99.0438931,26.268626 C99.439313,26.6991603 99.6156489,27.2884733 99.5217557,27.8648092 C99.4278626,28.4426718 99.0736641,28.9449618 98.5622137,29.2281679 L80.1225191,39.4380916 C79.8301527,39.5999237 79.5125954,39.6770229 79.2003817,39.6770229" id="Fill-1" fill="#FEFEFE"></path>
                <g id="Group-5" transform="translate(43.511450, 11.493130)">
                    <mask id="mask-2" fill="white">
                        <use xlink:href="#path-1"></use>
                    </mask>
                    <g id="Clip-4"></g>
                    <path d="M54.1273282,17.9746565 C53.9639695,17.9746565 53.7975573,17.9532824 53.6326718,17.9090076 L1.90442748,4.04793893 C0.88610687,3.77465649 0.282290076,2.7280916 0.55480916,1.71053435 C0.827328244,0.69221374 1.87312977,0.0906870229 2.89221374,0.360916031 L54.620458,14.2219847 C55.6380153,14.4945038 56.2425954,15.5410687 55.9700763,16.5593893 C55.7410687,17.4128244 54.9700763,17.9746565 54.1273282,17.9746565" id="Fill-3" fill="#FEFEFE" mask="url(#mask-2)"></path>
                </g>
                <path d="M3.81679389,31.7944275 L57.4664122,46.17 L57.4664122,37.3341221 L3.81679389,22.959313 L3.81679389,31.7944275 Z M59.3748092,50.5661832 C59.2099237,50.5661832 59.0442748,50.5440458 58.880916,50.5012977 L1.41450382,35.1028244 C0.580152672,34.8791603 0,34.1226718 0,33.259313 L0,20.4715267 C0,19.8783969 0.275572519,19.318855 0.746564885,18.9577863 C1.21755725,18.5959542 1.82900763,18.4738168 2.40229008,18.6280153 L59.8687023,34.0264885 C60.7030534,34.2501527 61.2832061,35.0058779 61.2832061,35.87 L61.2832061,48.6577863 C61.2832061,49.250916 61.0076336,49.810458 60.5366412,50.1715267 C60.2,50.4303053 59.7908397,50.5661832 59.3748092,50.5661832 Z" id="Fill-6" fill="#FEFEFE"></path>
                <path d="M21.4367176,50.870229 C18.8893893,50.870229 16.6764122,51.8557252 15.0382443,53.7198473 C13.331374,55.6618321 12.3916794,58.4763359 12.3916794,61.6427481 C12.3901527,69.6854962 18.1565649,77.7740458 25.2451145,79.6725191 C26.2061832,79.9305344 27.1573282,80.0610687 28.0718321,80.0610687 C33.3954962,80.0610687 37.1138168,75.6320611 37.1138168,69.2908397 C37.1138168,61.2465649 31.3466412,53.1564885 24.258855,51.2580153 C23.299313,51.0007634 22.350458,50.870229 21.4367176,50.870229 Z M28.0718321,83.8778626 C26.8237405,83.8778626 25.539771,83.7038168 24.2565649,83.359542 C15.6084733,81.0427481 8.57335878,71.3007634 8.5748855,61.6427481 C8.57412214,57.489313 9.81763359,53.8778626 12.1710687,51.2007634 C14.520687,48.5267176 17.8115267,47.0534351 21.4367176,47.0534351 C22.6832824,47.0534351 23.9649618,47.2282443 25.2458779,47.5709924 C33.8947328,49.8877863 40.9306107,59.6320611 40.9306107,69.2908397 C40.9306107,77.7427481 35.5229771,83.8778626 28.0718321,83.8778626 Z M3.81687023,96.7534351 L88.0023664,119.31145 L88.0023664,76.0519084 L58.8809924,68.2496183 C58.0466412,68.0259542 57.4664885,67.2694656 57.4664885,66.4061069 L57.4664885,50.1221374 L3.81687023,35.7465649 L3.81687023,83.9664122 L75.5710687,103.19313 L75.5710687,82.8244275 C75.5710687,81.770229 76.4252672,80.9160305 77.4794656,80.9160305 C78.5336641,80.9160305 79.3878626,81.770229 79.3878626,82.8244275 L79.3878626,105.680916 C79.3878626,106.274046 79.1122901,106.833588 78.6412977,107.194656 C78.1703053,107.555725 77.558855,107.676336 76.9855725,107.524427 L3.81687023,87.9183206 L3.81687023,96.7534351 Z M89.9107634,123.70687 C89.7458779,123.70687 89.580229,123.68626 89.4168702,123.641985 L1.41458015,100.061832 C0.580229008,99.8381679 7.63358779e-05,99.0816794 7.63358779e-05,98.2183206 L7.63358779e-05,33.259542 C7.63358779e-05,32.6656489 0.275648855,32.1061069 0.746641221,31.7450382 C1.21763359,31.3832061 1.82908397,31.2618321 2.40236641,31.4160305 L59.8687786,46.8145038 C60.7031298,47.0374046 61.2832824,47.7938931 61.2832824,48.6580153 L61.2832824,64.9419847 L90.4046565,72.7435115 C91.2390076,72.9671756 91.8191603,73.7236641 91.8191603,74.5870229 L91.8191603,121.798473 C91.8191603,122.391603 91.5435878,122.951908 91.0725954,123.312214 C90.7359542,123.570992 90.3267939,123.70687 89.9107634,123.70687 Z" id="Fill-8" fill="#FEFEFE"></path>
                <path d="M61.2834351,64.9416031 L84.8536641,71.2561069 L61.2834351,41.371374 L61.2834351,64.9416031 Z M89.910916,76.4958015 C89.7467939,76.4958015 89.581145,76.4744275 89.4170229,76.430916 L58.881145,68.2492366 C58.0467939,68.0255725 57.4666412,67.2698473 57.4666412,66.4057252 L57.4666412,35.8698473 C57.4666412,35.0568702 57.9819084,34.3332061 58.7498473,34.0667939 C59.5162595,33.7996183 60.3696947,34.0492366 60.8735115,34.6874046 L91.4093893,73.4057252 C91.9185496,74.0515267 91.9567176,74.95 91.5048092,75.6370229 C91.1460305,76.1820611 90.5422137,76.4958015 89.910916,76.4958015 Z" id="Fill-10" fill="#FEFEFE"></path>
                <path d="M1.90839695,119.818473 C0.854198473,119.818473 0,118.964275 0,117.910076 L0,1.90854962 C0,0.854351145 0.854198473,0.000152671756 1.90839695,0.000152671756 C2.96259542,0.000152671756 3.81679389,0.854351145 3.81679389,1.90854962 L3.81679389,117.910076 C3.81679389,118.964275 2.96259542,119.818473 1.90839695,119.818473" id="Fill-12" fill="#FEFEFE"></path>
            </g>
        </g>
    </g>
</svg>