<?xml version="1.0" encoding="UTF-8"?>
<svg width="110px" height="81px" viewBox="0 0 110 81" version="1.1" xmlns="http://www.w3.org/2000/svg" xmlns:xlink="http://www.w3.org/1999/xlink">
    <!-- Generator: Sketch 49.1 (51147) - http://www.bohemiancoding.com/sketch -->
    <title>Page 1</title>
    <desc>Created with Sketch.</desc>
    <defs>
        <polygon id="path-1" points="0 40.3480802 0 0.378038961 98.3958329 0.378038961 98.3958329 80.3181214 0 80.3181214"></polygon>
    </defs>
    <g id="Desktop-1399---1024-px" stroke="none" stroke-width="1" fill="none" fill-rule="evenodd">
        <g id="Desktop_EDU-Main" transform="translate(-730.000000, -2020.000000)">
            <g id="Page-1" transform="translate(730.000000, 2020.000000)">
                <g id="Group-3" transform="translate(0.000000, 0.225857)">
                    <mask id="mask-2" fill="white">
                        <use xlink:href="#path-1"></use>
                    </mask>
                    <g id="Clip-2"></g>
                    <path d="M91.9450408,80.3181214 L6.45199796,80.3181214 C2.89468669,80.3181214 0,77.4182123 0,73.8558292 L0,6.83906299 C0,3.27667987 2.89468669,0.377978571 6.45199796,0.377978571 L91.9450408,0.377978571 C95.5023521,0.377978571 98.3958329,3.27667987 98.3958329,6.83906299 L98.3958329,25.898024 C98.3958329,26.5967318 97.8308836,27.1625825 97.1332889,27.1625825 C96.4356941,27.1625825 95.8707448,26.5967318 95.8707448,25.898024 L95.8707448,6.83906299 C95.8707448,4.67107597 94.1095743,2.90709545 91.9450408,2.90709545 L6.45199796,2.90709545 C4.28686156,2.90709545 2.52508807,4.67107597 2.52508807,6.83906299 L2.52508807,73.8558292 C2.52508807,76.025024 4.28686156,77.7890045 6.45199796,77.7890045 L91.9450408,77.7890045 C94.1095743,77.7890045 95.8707448,76.025024 95.8707448,73.8558292 L95.8707448,69.7173292 C95.8707448,69.0186214 96.4356941,68.4527708 97.1332889,68.4527708 C97.8308836,68.4527708 98.3958329,69.0186214 98.3958329,69.7173292 L98.3958329,73.8558292 C98.3958329,77.4182123 95.5023521,80.3181214 91.9450408,80.3181214" id="Fill-1" fill="#808184" mask="url(#mask-2)"></path>
                </g>
                <path d="M97.1332889,16.7922974 L1.26314697,16.7922974 C0.5655522,16.7922974 0,16.2264468 0,15.5271351 C0,14.8290312 0.5655522,14.2631805 1.26314697,14.2631805 L97.1332889,14.2631805 C97.8308836,14.2631805 98.3958329,14.8290312 98.3958329,15.5271351 C98.3958329,16.2264468 97.8308836,16.7922974 97.1332889,16.7922974" id="Fill-4" fill="#808184"></path>
                <path d="M15.9353075,7.10224091 C15.0930085,7.10224091 14.4074724,7.78826688 14.4074724,8.63190974 C14.4074724,9.47615649 15.0930085,10.1627864 15.9353075,10.1627864 C16.7776064,10.1627864 17.4631425,9.47615649 17.4631425,8.63190974 C17.4631425,7.78826688 16.7776064,7.10224091 15.9353075,7.10224091 M15.9353075,12.6919032 C13.7002307,12.6919032 11.8817814,10.8699487 11.8817814,8.63190974 C11.8817814,6.39326688 13.7002307,4.57252013 15.9353075,4.57252013 C18.1703843,4.57252013 19.9888335,6.39326688 19.9888335,8.63190974 C19.9888335,10.8699487 18.1703843,12.6919032 15.9353075,12.6919032" id="Fill-6" fill="#FFB200"></path>
                <path d="M25.6111339,7.10224091 C24.768232,7.10224091 24.0826959,7.78826688 24.0826959,8.63190974 C24.0826959,9.47615649 24.768232,10.1627864 25.6111339,10.1627864 C26.4534328,10.1627864 27.138366,9.47615649 27.138366,8.63190974 C27.138366,7.78826688 26.4534328,7.10224091 25.6111339,7.10224091 M25.6111339,12.6919032 C23.3760571,12.6919032 21.5570049,10.8699487 21.5570049,8.63190974 C21.5570049,6.39326688 23.3760571,4.57252013 25.6111339,4.57252013 C27.8456077,4.57252013 29.6634541,6.39326688 29.6634541,8.63190974 C29.6634541,10.8699487 27.8456077,12.6919032 25.6111339,12.6919032" id="Fill-8" fill="#FFB200"></path>
                <path d="M35.6572824,7.10224091 C34.8149834,7.10224091 34.1294473,7.78826688 34.1294473,8.63190974 C34.1294473,9.47615649 34.8149834,10.1627864 35.6572824,10.1627864 C36.5001843,10.1627864 37.1863233,9.47615649 37.1863233,8.63190974 C37.1863233,7.78826688 36.5001843,7.10224091 35.6572824,7.10224091 M35.6572824,12.6919032 C33.4222056,12.6919032 31.6043593,10.8699487 31.6043593,8.63190974 C31.6043593,6.39326688 33.4222056,4.57252013 35.6572824,4.57252013 C37.8923592,4.57252013 39.7114114,6.39326688 39.7114114,8.63190974 C39.7114114,10.8699487 37.8923592,12.6919032 35.6572824,12.6919032" id="Fill-10" fill="#FFB200"></path>
                <path d="M12.00273,54.2055331 C11.9159075,54.2055331 11.8278791,54.1964747 11.7392478,54.1777539 C11.0573293,54.0322149 10.621408,53.3612864 10.7667151,52.677676 C11.069388,51.2512734 11.7778356,48.4491955 13.1247904,45.7032799 C13.8995607,44.1204682 14.7882856,42.7604942 15.7662448,41.6601955 C16.2292982,41.1378253 17.0275829,41.0919292 17.548518,41.5557214 C18.070056,42.0201175 18.1164819,42.819676 17.6522227,43.3414422 C16.8268059,44.2708383 16.065903,45.4405851 15.3918227,46.8174682 C14.1648518,49.3182019 13.5148888,51.8920071 13.2369361,53.2036695 C13.1109229,53.7979032 12.5863702,54.2055331 12.00273,54.2055331" id="Fill-12" fill="#FFB200"></path>
                <path d="M34.3660387,53.6529078 C33.8010894,53.6529078 33.2867866,53.2700377 33.1426854,52.6957325 C32.5982359,50.5271416 30.977549,45.1838688 27.6945727,42.4071545 C27.1615789,41.9566481 27.0940503,41.1589013 27.5444421,40.6250571 C27.9948339,40.0906091 28.7907069,40.0247844 29.3237007,40.474687 C33.0293338,43.6089078 34.8417537,49.0904727 35.5912008,52.0803623 C35.7612282,52.7579338 35.3506301,53.4439597 34.674741,53.6142584 C34.5716392,53.640226 34.4679346,53.6529078 34.3660387,53.6529078" id="Fill-14" fill="#FFB200"></path>
                <path d="M23.0533668,42.2909649 C19.3019107,42.2909649 16.407224,38.2194974 15.3044575,34.4366922 C15.1091069,33.7669714 15.4937788,33.0646403 16.1630357,32.868374 C16.8341014,32.6733156 17.5341079,33.0586013 17.7288556,33.7283221 C18.5928602,36.6934519 20.8207017,39.7612442 23.0533668,39.7612442 C25.7906876,39.7612442 28.5895078,35.1583481 28.7607411,31.5911338 C28.7939025,30.8942377 29.3902043,30.3791143 30.0823727,30.3893805 C30.7793645,30.4238026 31.3165788,31.0156208 31.2828145,31.7131208 C31.0802286,35.9240883 27.6941507,42.2909649 23.0533668,42.2909649" id="Fill-16" fill="#FFB200"></path>
                <path d="M23.2718098,23.4799636 C19.1821077,23.4799636 15.8545143,26.8146779 15.8545143,30.9145286 C15.8545143,31.6235026 15.9383222,32.3101325 16.0486591,32.876587 C18.8269795,32.4514442 22.9106523,30.9042623 24.9503784,29.1227688 C25.5291951,28.6179117 25.7366045,28.2567818 25.8089566,28.087087 C26.042895,27.5381455 26.628344,27.2241195 27.2149989,27.3418792 C27.799845,27.4566195 28.2249136,27.9675156 28.2333546,28.5653727 C28.2417957,29.1632299 28.2285312,29.7514247 28.193561,30.3130481 C28.1802964,30.5201844 28.1652231,30.7158468 28.1483409,30.8982234 C29.2601514,30.6385481 30.2139932,30.2713792 30.6203708,29.9265545 C30.1356118,26.2766065 26.9913104,23.4799636 23.2718098,23.4799636 M15.097832,35.5113857 C14.5588089,35.5113857 14.0758587,35.166561 13.9016107,34.6502299 C13.6254669,33.8277234 13.3294262,32.4146065 13.3294262,30.9145286 C13.3294262,25.4202818 17.7893299,20.9514506 23.2718098,20.9514506 C28.4612637,20.9514506 32.8156539,25.0120481 33.1846496,30.1958922 C33.2009288,30.423561 33.1563117,30.6500221 33.0538129,30.854139 C31.981796,32.9895156 27.97349,33.5662364 26.7706365,33.6918468 C26.3522002,33.7323078 25.9476314,33.5722753 25.6787228,33.2552299 C25.4086083,32.9381844 25.3115359,32.5082104 25.420064,32.1060156 C25.420064,32.1060156 25.4375491,32.0371714 25.4634753,31.9037104 C22.4952307,33.9116649 17.9376517,35.3730935 15.1599342,35.5101779 C15.1394345,35.5101779 15.1189347,35.5113857 15.097832,35.5113857" id="Fill-18" fill="#FFB200"></path>
                <path d="M40.1230345,54.2055331 L8.20852592,54.2055331 C7.51153408,54.2055331 6.94598189,53.6390786 6.94598189,52.9403708 C6.94598189,52.2422669 7.51153408,51.6764162 8.20852592,51.6764162 L38.8604905,51.6764162 L38.8604905,23.8984032 C38.8604905,23.1996955 39.4254397,22.6338448 40.1230345,22.6338448 C40.8206293,22.6338448 41.3855785,23.1996955 41.3855785,23.8984032 L41.3855785,52.9403708 C41.3855785,53.6390786 40.8206293,54.2055331 40.1230345,54.2055331" id="Fill-20" fill="#FFB200"></path>
                <path d="M25.5174982,60.9751481 L8.20846563,60.9751481 C7.51147379,60.9751481 6.94592159,60.4086935 6.94592159,59.7099857 C6.94592159,59.0118818 7.51147379,58.4454273 8.20846563,58.4454273 L25.5174982,58.4454273 C26.21449,58.4454273 26.7800422,59.0118818 26.7800422,59.7099857 C26.7800422,60.4086935 26.21449,60.9751481 25.5174982,60.9751481" id="Fill-22" fill="#FFB200"></path>
                <path d="M25.5174982,67.2016792 L8.20846563,67.2016792 C7.51147379,67.2016792 6.94592159,66.6358286 6.94592159,65.9371208 C6.94592159,65.2390169 7.51147379,64.6731662 8.20846563,64.6731662 L25.5174982,64.6731662 C26.21449,64.6731662 26.7800422,65.2390169 26.7800422,65.9371208 C26.7800422,66.6358286 26.21449,67.2016792 25.5174982,67.2016792" id="Fill-24" fill="#FFB200"></path>
                <path d="M25.3638103,73.4293578 L8.05538066,73.4293578 C7.35838882,73.4293578 6.79283662,72.8635071 6.79283662,72.1641955 C6.79283662,71.4660916 7.35838882,70.9008448 8.05538066,70.9008448 L25.3638103,70.9008448 C26.0608021,70.9008448 26.6263543,71.4660916 26.6263543,72.1641955 C26.6263543,72.8635071 26.0608021,73.4293578 25.3638103,73.4293578" id="Fill-26" fill="#FFB200"></path>
                <path d="M83.9367493,51.2992831 C85.1769848,51.2992831 86.1193708,51.9593416 86.712658,52.3748221 C86.9001705,52.5070753 87.1570204,52.6864325 87.2559016,52.7196468 L87.4801931,52.7462182 C93.4221088,53.5457766 94.2053202,52.5571987 94.2354669,52.514926 C94.8456362,51.6670558 95.1356476,50.9731792 95.6632149,49.7146597 C95.8465069,49.2750234 96.0533133,48.7828481 96.3041339,48.2097506 C97.6450593,45.1534325 98.1044951,43.3230234 97.6691767,42.7680429 C96.6267036,41.4400753 91.9159794,41.9902247 89.0616893,42.7819325 C88.5998417,42.9087506 88.1042299,42.7638156 87.7840719,42.4051013 C87.4639139,42.0475948 87.3740767,41.5379065 87.5525452,41.0916273 C88.1572881,39.5806792 88.7680604,36.9984195 88.231449,35.9881013 C87.9559081,35.4687506 87.5374718,35.2338351 87.1594321,35.1323805 C86.9875959,36.4186792 86.6553792,38.5105753 86.1531351,40.0499065 C85.7063609,41.4231662 84.9743989,42.4618675 84.4389934,43.0917312 C83.9867928,43.6231597 83.1909198,43.6877766 82.6591319,43.2354584 C82.5843681,43.1714455 82.5180453,43.1013935 82.4619725,43.0246987 C82.4649871,43.0567052 82.466193,43.0881078 82.466193,43.1207182 C82.466193,43.8182182 81.9006408,44.3846727 81.203046,44.3846727 L77.7355719,44.3846727 C77.3255767,45.1171987 76.6744079,46.5019325 76.6744079,47.9102182 C76.6744079,49.3480948 77.3460765,50.8590429 77.7657186,51.6628286 L82.3359592,51.6628286 C82.9135701,51.4019455 83.4477697,51.2992831 83.9367493,51.2992831 M91.3872062,55.5863416 C90.1970142,55.5863416 88.789766,55.4740169 87.1437559,55.252387 L86.8947441,55.2197766 C86.2526192,55.1388545 85.7509781,54.787387 85.2656161,54.4479974 C84.4251259,53.8585948 84.0205571,53.6164325 83.2234782,54.0421792 C83.0407892,54.1406143 82.8363945,54.1919455 82.6283823,54.1919455 L77.030139,54.1919455 C76.6008499,54.1919455 76.1998987,53.9727312 75.9671662,53.6103935 C75.8930053,53.4944455 74.1493198,50.7412831 74.1493198,47.9102182 C74.1493198,45.0471468 75.923152,42.4981013 75.9985187,42.3912117 C76.2354718,42.0548416 76.6201438,41.8555558 77.030139,41.8555558 L81.203046,41.8555558 C81.6196735,41.8555558 81.9886692,42.0572571 82.2183871,42.3682636 C82.1942697,42.0481987 82.2913421,41.7178675 82.5156336,41.4527571 C82.9033202,40.9962117 83.4332993,40.2455688 83.7522515,39.2654455 C84.4287435,37.1898545 84.7832688,33.7506662 84.7862835,33.7162442 C84.8429593,33.1630753 85.2535574,32.7107571 85.7986098,32.6032636 C86.8929353,32.385861 89.2769368,32.5682377 90.4610994,34.8014455 C91.2220022,36.2363026 90.9814315,38.2678091 90.5979654,39.8349195 C93.411256,39.3065104 97.8578951,38.9151857 99.6552417,41.2057636 C101.12218,43.0766338 99.9464589,46.1939455 98.6163862,49.2273156 C98.3715949,49.7847117 98.170215,50.265413 97.9917465,50.6923675 C97.4521204,51.9810818 97.0632279,52.9116857 96.284237,53.9938675 C95.5130843,55.0651792 93.9526908,55.5863416 91.3872062,55.5863416" id="Fill-28" fill="#FFB200"></path>
                <path d="M82.0195997,54.1919455 C81.3256225,54.1919455 80.7606733,53.6303221 80.7564527,52.9340299 L80.7311295,48.2912766 C80.726909,47.5931727 81.2894465,47.0243026 81.9864383,47.0200753 L81.9936735,47.0200753 C82.6876507,47.0200753 83.251997,47.5823026 83.2562176,48.2779909 L83.2821437,52.9201403 C83.2863643,53.6188481 82.7238267,54.1877182 82.0268349,54.1919455 L82.0195997,54.1919455 Z" id="Fill-30" fill="#FFB200"></path>
                <path d="M87.2431797,26.5383351 C76.5766723,26.5383351 67.8992445,35.2296078 67.8992445,45.9125299 C67.8992445,56.5948481 76.5766723,65.2861208 87.2431797,65.2861208 C97.9084813,65.2861208 106.585909,56.5948481 106.585909,45.9125299 C106.585909,35.2296078 97.9084813,26.5383351 87.2431797,26.5383351 M87.2431797,67.8152377 C75.1844974,67.8152377 65.3741564,57.9898481 65.3741564,45.9125299 C65.3741564,33.8352117 75.1844974,24.0098221 87.2431797,24.0098221 C99.3012591,24.0098221 109.110394,33.8352117 109.110394,45.9125299 C109.110394,57.9898481 99.3012591,67.8152377 87.2431797,67.8152377" id="Fill-32" fill="#808184"></path>
                <path d="M50.6879475,37.593076 C49.9903528,37.593076 49.4254035,37.0272253 49.4254035,36.3285175 L49.4254035,23.898524 C49.4254035,23.1998162 49.9903528,22.6339656 50.6879475,22.6339656 C51.3855423,22.6339656 51.9504916,23.1998162 51.9504916,23.898524 L51.9504916,36.3285175 C51.9504916,37.0272253 51.3855423,37.593076 50.6879475,37.593076" id="Fill-34" fill="#FFB200"></path>
                <path d="M56.7049285,31.3783812 L44.6715695,31.3783812 C43.9739747,31.3783812 43.4084225,30.8119266 43.4084225,30.1132188 C43.4084225,29.4151149 43.9739747,28.8486604 44.6715695,28.8486604 L56.7049285,28.8486604 C57.4025233,28.8486604 57.9674726,29.4151149 57.9674726,30.1132188 C57.9674726,30.8119266 57.4025233,31.3783812 56.7049285,31.3783812" id="Fill-36" fill="#FFB200"></path>
            </g>
        </g>
    </g>
</svg>