<?xml version="1.0" encoding="UTF-8"?>
<svg width="99px" height="100px" viewBox="0 0 99 100" version="1.1" xmlns="http://www.w3.org/2000/svg" xmlns:xlink="http://www.w3.org/1999/xlink">
    <!-- Generator: Sketch 49.1 (51147) - http://www.bohemiancoding.com/sketch -->
    <title>Page 1</title>
    <desc>Created with Sketch.</desc>
    <defs>
        <polygon id="path-1" points="98.8399309 30.8319945 98.8399309 0.0258169309 -5.42520041e-06 0.0258169309 -5.42520041e-06 30.8319945 98.8399309 30.8319945"></polygon>
    </defs>
    <g id="HD-Desktop-1920---1440-px" stroke="none" stroke-width="1" fill="none" fill-rule="evenodd" opacity="0.05">
        <g id="HD-Desktop_EDU-Main" transform="translate(-451.000000, -4156.000000)">
            <g id="Page-1" transform="translate(451.000000, 4156.000000)">
                <g id="Group-3" transform="translate(0.000000, 0.598030)">
                    <mask id="mask-2" fill="white">
                        <use xlink:href="#path-1"></use>
                    </mask>
                    <g id="Clip-2"></g>
                    <path d="M4.40354782,27.71354 L94.4957618,27.71354 L79.6842724,3.14380376 L19.9560189,3.14380376 L4.40354782,27.71354 Z M97.2742862,30.8315268 C97.2711545,30.8321504 97.2667699,30.8321504 97.2617591,30.8315268 L1.56614574,30.8315268 C0.996159885,30.8315268 0.470645459,30.5228461 0.195047905,30.025839 C-0.0805496487,29.5288319 -0.0630116225,28.9214481 0.240772045,28.4412781 L17.7668974,0.753555057 C18.0537694,0.300199772 18.5542295,0.0258169309 19.0916447,0.0258169309 L80.5711954,0.0258169309 C81.1205114,0.0258169309 81.6303669,0.313295317 81.9134808,0.782240536 L98.5132225,28.319053 C98.7180416,28.5828347 98.8401814,28.9133413 98.8401814,29.2725334 C98.8401814,30.1337213 98.1386604,30.8315268 97.2742862,30.8315268 Z" id="Fill-1" fill="#FEFEFE" mask="url(#mask-2)"></path>
                </g>
                <path d="M4.59991108,31.4295567 L49.4145788,94.2114687 L94.2279937,31.4295567 L4.59991108,31.4295567 Z M49.4145788,98.4612847 C48.9072287,98.4612847 48.4318229,98.2174582 48.138061,97.8052603 L0.289314796,30.7735322 C-0.050171282,30.2983511 -0.0940163473,29.6741301 0.174691268,29.1559207 C0.442772525,28.6370877 0.980187755,28.3115698 1.56583256,28.3115698 L97.2614459,28.3115698 C97.8477171,28.3115698 98.3845059,28.6370877 98.6532135,29.1559207 C98.9219212,29.6741301 98.8780761,30.2983511 98.53859,30.7735322 L50.6910965,97.8052603 C50.3973346,98.2174582 49.9213025,98.4612847 49.4145788,98.4612847 Z" id="Fill-4" fill="#FEFEFE"></path>
                <path d="M27.9397042,31.3802301 C27.276391,31.3802301 26.660681,30.9568075 26.4483456,30.2939235 L17.5997851,2.65546466 C17.337341,1.83543413 17.792077,0.95865623 18.6163642,0.697368934 C19.4375197,0.438576027 20.3206845,0.888813325 20.5837549,1.70946746 L29.4323155,29.3473027 C29.6947595,30.1679568 29.2400236,31.0447347 28.4157363,31.306022 C28.2578941,31.3559098 28.0975464,31.3802301 27.9397042,31.3802301" id="Fill-6" fill="#FEFEFE"></path>
                <path d="M49.8267224,99.750011 L49.8204588,99.750011 C49.1408603,99.7475166 48.5408092,99.3091277 48.3347374,98.664328 L29.3291543,39.2947408 C29.0667103,38.4740867 29.5220726,37.5973088 30.3457335,37.3360215 C31.1668889,37.076605 32.0500538,37.5274659 32.3131242,38.34812 L49.8467658,93.1199238 L76.1989029,13.0057467 C76.4682368,12.1882105 77.3514017,11.7404676 78.1750626,12.0098617 C78.996218,12.2773849 79.4446904,13.158528 79.1753564,13.9766878 L51.3149492,98.6761764 C51.1038665,99.3172345 50.5031891,99.750011 49.8267224,99.750011" id="Fill-8" fill="#FEFEFE"></path>
                <path d="M28.0937883,31.3345828 C27.757434,31.3345828 27.4185743,31.227324 27.1323286,31.0053234 C26.4502247,30.4758892 26.3287112,29.4968414 26.8598629,28.8171202 L48.4566894,1.22418399 C48.7504513,0.848154777 49.2020555,0.626777712 49.6812194,0.623659726 L49.6912411,0.623659726 C50.1666469,0.623659726 50.616372,0.838800817 50.9138921,1.20797046 L73.1038797,28.8015303 C73.6450531,29.4737683 73.5360668,30.4546869 72.8608528,30.9922278 C72.1850124,31.5303924 71.1991248,31.42251 70.6598305,30.7502721 L49.7081528,4.69762132 L29.3302191,30.7340585 C29.0214246,31.1281721 28.5597987,31.3345828 28.0937883,31.3345828" id="Fill-10" fill="#FEFEFE"></path>
            </g>
        </g>
    </g>
</svg>