<?xml version="1.0" encoding="UTF-8"?>
<svg width="106px" height="99px" viewBox="0 0 106 99" version="1.1" xmlns="http://www.w3.org/2000/svg" xmlns:xlink="http://www.w3.org/1999/xlink">
    <!-- Generator: Sketch 49.1 (51147) - http://www.bohemiancoding.com/sketch -->
    <title>Page 1</title>
    <desc>Created with Sketch.</desc>
    <defs>
        <polygon id="path-1" points="71.400974 0.142228356 71.400974 39.0325688 0.0675721637 39.0325688 0.0675721637 0.142228356 71.400974 0.142228356"></polygon>
    </defs>
    <g id="HD-Desktop-1920---1440-px" stroke="none" stroke-width="1" fill="none" fill-rule="evenodd" opacity="0.05">
        <g id="HD-Desktop_EDU-Main" transform="translate(-1367.000000, -4402.000000)">
            <g id="Page-1" transform="translate(1367.000000, 4402.000000)">
                <path d="M80.400578,98.7485552 L7.69620552,98.7485552 C3.45262744,98.7485552 0.000192336218,95.3009348 0.000192336218,91.0632748 L0.000192336218,41.3445552 C0.000192336218,37.1068952 3.45262744,33.6592748 7.69620552,33.6592748 L80.400578,33.6592748 C84.6441561,33.6592748 88.0965912,37.1068952 88.0965912,41.3445552 L88.0965912,56.3937224 C88.0965912,57.2778754 87.3791771,57.994289 86.4937894,57.994289 C85.6084016,57.994289 84.8909876,57.2778754 84.8909876,56.3937224 L84.8909876,41.3445552 C84.8909876,38.872 82.8765862,36.8604079 80.400578,36.8604079 L7.69620552,36.8604079 C5.22019728,36.8604079 3.20579596,38.872 3.20579596,41.3445552 L3.20579596,91.0632748 C3.20579596,93.53583 5.22019728,95.5474221 7.69620552,95.5474221 L80.400578,95.5474221 C82.8765862,95.5474221 84.8909876,93.53583 84.8909876,91.0632748 L84.8909876,76.0153881 C84.8909876,75.1312351 85.6084016,74.4148215 86.4937894,74.4148215 C87.3791771,74.4148215 88.0965912,75.1312351 88.0965912,76.0153881 L88.0965912,91.0632748 C88.0965912,95.3009348 84.6441561,98.7485552 80.400578,98.7485552" id="Fill-1" fill="#FEFEFE"></path>
                <path d="M63.9267886,57.9928805 C61.2751133,57.9928805 59.1183832,60.1466028 59.1183832,62.7945802 L59.1183832,69.6129938 C59.1183832,72.2609711 61.2751133,74.4146935 63.9267886,74.4146935 L83.784862,74.4146935 C86.4358962,74.4146935 88.5932674,72.2609711 88.5932674,69.6129938 L88.5932674,62.7945802 C88.5932674,60.1466028 86.4358962,57.9928805 83.784862,57.9928805 L63.9267886,57.9928805 Z M83.784862,77.6158266 L63.9267886,77.6158266 C59.5075435,77.6158266 55.9127796,74.0260759 55.9127796,69.6129938 L55.9127796,62.7945802 C55.9127796,58.381498 59.5075435,54.7917473 63.9267886,54.7917473 L83.784862,54.7917473 C88.203466,54.7917473 91.798871,58.381498 91.798871,62.7945802 L91.798871,69.6129938 C91.798871,74.0260759 88.203466,77.6158266 83.784862,77.6158266 Z" id="Fill-3" fill="#FEFEFE"></path>
                <path d="M70.584635,66.2045552 C70.584635,64.2300963 68.9818332,62.6295297 67.005258,62.6295297 C65.0286828,62.6295297 63.425881,64.2300963 63.425881,66.2045552 C63.425881,68.1777337 65.0286828,69.7783003 67.005258,69.7783003 C68.9818332,69.7783003 70.584635,68.1777337 70.584635,66.2045552" id="Fill-5" fill="#FEFEFE"></path>
                <path d="M81.6226823,81.4574425 C80.7372946,81.4574425 80.0198805,80.7410289 80.0198805,79.8568759 L80.0198805,76.0155161 C80.0198805,75.1313632 80.7372946,74.4149496 81.6226823,74.4149496 C82.50807,74.4149496 83.2254841,75.1313632 83.2254841,76.0155161 L83.2254841,79.8568759 C83.2254841,80.7410289 82.50807,81.4574425 81.6226823,81.4574425" id="Fill-7" fill="#FEFEFE"></path>
                <path d="M20.3421195,43.2163858 L12.4736448,43.2163858 C11.5882571,43.2163858 10.870843,42.4999722 10.870843,41.6158193 C10.870843,40.7316663 11.5882571,40.0152527 12.4736448,40.0152527 L20.3421195,40.0152527 C21.2275072,40.0152527 21.9449213,40.7316663 21.9449213,41.6158193 C21.9449213,42.4999722 21.2275072,43.2163858 20.3421195,43.2163858 M36.0790688,43.2163858 L28.2105941,43.2163858 C27.3252064,43.2163858 26.6077923,42.4999722 26.6077923,41.6158193 C26.6077923,40.7316663 27.3252064,40.0152527 28.2105941,40.0152527 L36.0790688,40.0152527 C36.9644565,40.0152527 37.6818706,40.7316663 37.6818706,41.6158193 C37.6818706,42.4999722 36.9644565,43.2163858 36.0790688,43.2163858 M51.8166593,43.2163858 L43.9475435,43.2163858 C43.0621557,43.2163858 42.3447417,42.4999722 42.3447417,41.6158193 C42.3447417,40.7316663 43.0621557,40.0152527 43.9475435,40.0152527 L51.8166593,40.0152527 C52.702047,40.0152527 53.4194611,40.7316663 53.4194611,41.6158193 C53.4194611,42.4999722 52.702047,43.2163858 51.8166593,43.2163858 M67.5536086,43.2163858 L59.6851339,43.2163858 C58.7997462,43.2163858 58.0823321,42.4999722 58.0823321,41.6158193 C58.0823321,40.7316663 58.7997462,40.0152527 59.6851339,40.0152527 L67.5536086,40.0152527 C68.4389963,40.0152527 69.1564104,40.7316663 69.1564104,41.6158193 C69.1564104,42.4999722 68.4389963,43.2163858 67.5536086,43.2163858 M81.6172328,46.2574623 C80.768389,46.2574623 80.0605917,45.5929071 80.0176366,44.7362839 C79.9759637,43.8982272 79.2579085,43.2163858 78.4167581,43.2163858 L75.4220832,43.2163858 C74.5366955,43.2163858 73.8192814,42.4999722 73.8192814,41.6158193 C73.8192814,40.7316663 74.5366955,40.0152527 75.4220832,40.0152527 L78.4167581,40.0152527 C80.9818822,40.0152527 83.0918105,42.019162 83.2193935,44.5775076 C83.2636308,45.4603802 82.5827606,46.211366 81.6986551,46.2555416 C81.6710869,46.2568221 81.6441599,46.2574623 81.6172328,46.2574623 M8.49997857,56.3384708 C7.61459085,56.3384708 6.89717676,55.6226975 6.89717676,54.7379042 L6.89717676,46.8810431 C6.89717676,45.9968901 7.61459085,45.2804765 8.49997857,45.2804765 C9.3853663,45.2804765 10.1027804,45.9968901 10.1027804,46.8810431 L10.1027804,54.7379042 C10.1027804,55.6226975 9.3853663,56.3384708 8.49997857,56.3384708 M8.49997857,72.0541139 C7.61459085,72.0541139 6.89717676,71.3377003 6.89717676,70.4535473 L6.89717676,62.5960459 C6.89717676,61.7118929 7.61459085,60.9954793 8.49997857,60.9954793 C9.3853663,60.9954793 10.1027804,61.7118929 10.1027804,62.5960459 L10.1027804,70.4535473 C10.1027804,71.3377003 9.3853663,72.0541139 8.49997857,72.0541139 M8.49997857,87.7697569 C7.61459085,87.7697569 6.89717676,87.0533433 6.89717676,86.1691904 L6.89717676,78.3110487 C6.89717676,77.427536 7.61459085,76.7104822 8.49997857,76.7104822 C9.3853663,76.7104822 10.1027804,77.427536 10.1027804,78.3110487 L10.1027804,86.1691904 C10.1027804,87.0533433 9.3853663,87.7697569 8.49997857,87.7697569 M20.6812724,92.6950204 L12.8127977,92.6950204 C11.92741,92.6950204 11.2099959,91.9786068 11.2099959,91.0944538 C11.2099959,90.2103008 11.92741,89.4938873 12.8127977,89.4938873 L20.6812724,89.4938873 C21.5666601,89.4938873 22.2840742,90.2103008 22.2840742,91.0944538 C22.2840742,91.9786068 21.5666601,92.6950204 20.6812724,92.6950204 M36.4188628,92.6950204 L28.549747,92.6950204 C27.6643593,92.6950204 26.9469452,91.9786068 26.9469452,91.0944538 C26.9469452,90.2103008 27.6643593,89.4938873 28.549747,89.4938873 L36.4188628,89.4938873 C37.3042505,89.4938873 38.0216646,90.2103008 38.0216646,91.0944538 C38.0216646,91.9786068 37.3042505,92.6950204 36.4188628,92.6950204 M52.1558121,92.6950204 L44.2873375,92.6950204 C43.4019497,92.6950204 42.6845356,91.9786068 42.6845356,91.0944538 C42.6845356,90.2103008 43.4019497,89.4938873 44.2873375,89.4938873 L52.1558121,89.4938873 C53.0411998,89.4938873 53.7586139,90.2103008 53.7586139,91.0944538 C53.7586139,91.9786068 53.0411998,92.6950204 52.1558121,92.6950204 M67.8927614,92.6950204 L60.0249279,92.6950204 C59.1395402,92.6950204 58.4221261,91.9786068 58.4221261,91.0944538 C58.4221261,90.2103008 59.1395402,89.4938873 60.0249279,89.4938873 L67.8927614,89.4938873 C68.7781492,89.4938873 69.4955632,90.2103008 69.4955632,91.0944538 C69.4955632,91.9786068 68.7781492,92.6950204 67.8927614,92.6950204 M78.4167581,92.6950204 L75.7618772,92.6950204 C74.8764895,92.6950204 74.1590754,91.9786068 74.1590754,91.0944538 C74.1590754,90.2103008 74.8764895,89.4938873 75.7618772,89.4938873 L78.4167581,89.4938873 C79.3008636,89.4938873 80.01956,88.7761932 80.01956,87.8933207 L80.01956,87.7146975 C80.01956,86.8305445 80.7376152,86.1141309 81.6223618,86.1141309 C82.5077495,86.1141309 83.2251636,86.8305445 83.2251636,87.7146975 L83.2251636,87.8933207 C83.2251636,90.541298 81.0684335,92.6950204 78.4167581,92.6950204" id="Fill-9" fill="#FEFEFE"></path>
                <path d="M81.6226823,57.9928805 C80.7372946,57.9928805 80.0198805,57.2771071 80.0198805,56.3923139 L80.0198805,52.5509541 C80.0198805,51.6668011 80.7372946,50.9503875 81.6226823,50.9503875 C82.50807,50.9503875 83.2254841,51.6668011 83.2254841,52.5509541 L83.2254841,56.3923139 C83.2254841,57.2771071 82.50807,57.9928805 81.6226823,57.9928805" id="Fill-11" fill="#FEFEFE"></path>
                <g id="Group-15" transform="translate(33.979398, 11.677734)">
                    <mask id="mask-2" fill="white">
                        <use xlink:href="#path-1"></use>
                    </mask>
                    <g id="Clip-14"></g>
                    <path d="M53.1106973,39.0325688 C52.5862606,39.0325688 52.0727229,38.7764782 51.765626,38.3046312 C51.2828621,37.5632487 51.4931497,36.5721779 52.2355675,36.0900873 L67.5807921,26.1249598 L55.6200438,7.75621756 L35.2567674,3.4462119 L2.54422349,24.687651 C1.80180569,25.1691014 0.808709683,24.9597473 0.326586897,24.2183649 C-0.155535888,23.4769824 0.0547517099,22.4859116 0.796528389,22.003821 L34.0662062,0.401294051 C34.4226693,0.169532011 34.8560669,0.0882232295 35.2721543,0.177854958 L56.9337002,4.76315807 C57.3497876,4.8502289 57.713303,5.09991728 57.9453887,5.45588329 L71.1422177,25.721617 C71.6243405,26.4629994 71.4140529,27.4540703 70.6722762,27.9361609 L53.9826215,38.7739173 C53.7127097,38.9486992 53.4101007,39.0325688 53.1106973,39.0325688" id="Fill-13" fill="#FEFEFE" mask="url(#mask-2)"></path>
                </g>
                <path d="M72.3718232,15.7879246 L77.9245698,24.3170238 L86.4636567,18.7707405 L72.3718232,15.7879246 Z M77.4546283,28.1321343 C77.3437144,28.1321343 77.2328005,28.1212504 77.1225277,28.097562 C76.7064404,28.009851 76.3429249,27.7601626 76.1108392,27.4041966 L67.575599,14.2929955 C67.2223415,13.7500833 67.2306761,13.0490351 67.5980382,12.5150861 C67.9641182,11.9811371 68.6180613,11.7186442 69.2514886,11.8550125 L90.9130345,16.4409558 C91.5471029,16.5747632 92.0382014,17.0773411 92.1568087,17.7137263 C92.2747749,18.3501116 91.9978108,18.9954601 91.4547815,19.3482249 L78.3291169,27.8734827 C78.0662574,28.043783 77.7623662,28.1321343 77.4546283,28.1321343 Z" id="Fill-16" fill="#FEFEFE"></path>
                <path d="M48.1582962,36.6241003 C47.6338594,36.6241003 47.1203217,36.3680096 46.8132249,35.8961626 C46.330461,35.1547802 46.5407486,34.1637093 47.2831664,33.6816187 C50.9914087,31.2737263 55.2785829,28.4112731 59.4247107,25.6435734 C63.5855842,22.86563 67.8887865,19.9929331 71.6207502,17.5696754 C72.363168,17.0882249 73.3556229,17.297579 73.8377457,18.0389615 C74.3205096,18.7803439 74.110222,19.7714147 73.3678042,20.2535054 C69.6531507,22.6652391 65.3595652,25.5321739 61.2063852,28.3049955 C57.0519229,31.077817 52.7557729,33.9453921 49.0302204,36.3654487 C48.7603085,36.5402306 48.4576995,36.6241003 48.1582962,36.6241003" id="Fill-18" fill="#FEFEFE"></path>
                <path d="M87.7443595,42.4748754 C87.2199227,42.4748754 86.706385,42.2187847 86.3992882,41.7469377 C85.9165243,41.0055552 86.1268119,40.0144844 86.8692297,39.5323938 L92.6425218,35.7838669 L87.1276013,27.3143088 C86.6448374,26.5729263 86.855125,25.5818555 87.5975428,25.0997649 C88.3399606,24.6176742 89.3324155,24.828949 89.8145383,25.569051 L96.2033063,35.3798839 C96.6860702,36.1212663 96.4757826,37.1123371 95.7333648,37.5944278 L88.6162836,42.2162238 C88.3463718,42.3916459 88.0437628,42.4748754 87.7443595,42.4748754" id="Fill-20" fill="#FEFEFE"></path>
                <path d="M14.883233,36.8610482 C14.740263,36.8610482 14.5953698,36.8418414 14.4511176,36.8015071 C13.598427,36.5633428 13.1002762,35.6804703 13.3387731,34.8289688 C15.4884509,27.1449688 16.4770591,21.2203116 17.7285267,13.7200567 L17.7657117,13.5017394 C17.8330294,13.0958357 18.0548572,12.7315467 18.3843932,12.4844193 C20.5359944,10.8729688 22.9382738,9.35243059 25.2610541,7.88183003 C28.5737249,5.78572805 31.9979507,3.61792068 34.925308,1.06661756 C36.0241889,0 37.2205201,0 37.9385754,0 C38.0206388,0 38.1020611,0.00640226629 38.1828424,0.0185665722 C46.4808679,1.29325779 61.334994,4.98672521 62.0100941,5.15510482 L62.0402268,5.16214731 C62.4575964,5.27418697 62.7935436,5.5418017 63.0006256,5.88688385 C63.0012667,5.88816431 63.002549,5.88944476 63.0031901,5.89072521 C63.0038312,5.89264589 63.0051135,5.89392635 63.0057546,5.8952068 C63.2038609,6.23004533 63.2801543,6.63658924 63.1923207,7.0444136 L60.3733129,20.320153 C60.1893112,21.1850992 59.3411085,21.7363343 58.4723899,21.5538697 C57.606877,21.3707649 57.0535898,20.5211841 57.2375914,19.656238 L59.725781,7.93624929 C59.6289717,7.90679887 59.5366504,7.8690255 59.4494579,7.82356941 C55.1930574,6.79024363 44.3324724,4.21397167 37.8180447,3.20177337 C37.331434,3.20561473 37.2852733,3.23570538 37.1487146,3.37207365 C37.1237109,3.39704249 37.097425,3.42201133 37.071139,3.44569972 C33.9501633,6.1717847 30.4054068,8.41577904 26.9773343,10.5855071 C24.7988061,11.9645552 22.7305506,13.2738187 20.820652,14.6663116 C19.5858535,22.0647705 18.5818584,27.9868669 16.4257694,35.6907139 C16.2283042,36.3975241 15.5839779,36.8610482 14.883233,36.8610482" id="Fill-22" fill="#FEFEFE"></path>
                <path d="M23.4979721,12.9850765 L33.4616293,15.0946232 L35.5728399,5.14486119 L23.4979721,12.9850765 Z M34.697069,18.5928215 C34.5861551,18.5928215 34.4746001,18.5812975 34.3643273,18.5576091 L19.0479532,15.3161416 C18.4132437,15.1823343 17.9227863,14.6791161 17.804179,14.0420907 C17.6862128,13.4057054 17.9631769,12.7603569 18.5062062,12.4082323 L37.0692157,0.354685552 C37.612886,0.00320113314 38.3155543,0.0108838527 38.850249,0.377093484 C39.3849437,0.743303116 39.6458799,1.39505382 39.5112445,2.02887819 L36.2652503,17.3238924 C36.1767756,17.7393994 35.9267385,18.1024079 35.5709165,18.3335297 C35.3086981,18.50383 35.0048069,18.5928215 34.697069,18.5928215 Z" id="Fill-24" fill="#FEFEFE"></path>
                <path d="M21.5192171,36.8610482 C21.4089444,36.8610482 21.2973894,36.8488839 21.1851932,36.8251955 C20.3196803,36.6420907 19.7663931,35.7931501 19.9497536,34.9275637 L24.22667,14.7757904 C24.4106716,13.9114844 25.2627211,13.3583286 26.1269518,13.5420737 C26.9931059,13.7251785 27.545752,14.5747592 27.3623914,15.4397054 L23.0854751,35.592119 C22.925836,36.3443853 22.2603527,36.8610482 21.5192171,36.8610482" id="Fill-26" fill="#FEFEFE"></path>
                <path d="M52.6749276,18.902179 C52.5646548,18.902179 52.4530998,18.8900147 52.3409037,18.8663263 C51.4747496,18.6832215 50.9221035,17.8336408 51.105464,16.9686946 L51.9882873,12.8104227 L42.0919478,10.7162414 C41.2257937,10.5331365 40.6725065,9.68355581 40.855867,8.81860963 C41.0405098,7.95366346 41.8925592,7.40370878 42.7561488,7.58489292 L54.2206696,10.0107116 C54.636757,10.0984227 55.0002724,10.348111 55.2323581,10.7034368 C55.4644438,11.0600431 55.5445839,11.4934765 55.4567504,11.9083433 L54.2411855,17.6332499 C54.0815464,18.3855161 53.4160631,18.9015388 52.6749276,18.902179" id="Fill-28" fill="#FEFEFE"></path>
            </g>
        </g>
    </g>
</svg>