<?xml version="1.0" encoding="UTF-8"?>
<svg width="30px" height="30px" viewBox="0 0 30 30" version="1.1" xmlns="http://www.w3.org/2000/svg" xmlns:xlink="http://www.w3.org/1999/xlink">
    <!-- Generator: Sketch 49.1 (51147) - http://www.bohemiancoding.com/sketch -->
    <title>Group</title>
    <desc>Created with Sketch.</desc>
    <defs></defs>
    <g id="Desktop-1399---1024-px" stroke="none" stroke-width="1" fill="none" fill-rule="evenodd">
        <g id="Desktop_EDU-Main" transform="translate(-281.000000, -2285.000000)" fill="#FFB200">
            <g id="Group" transform="translate(281.000000, 2285.000000)">
                <path d="M14.7129581,1.14584853 C13.1792347,1.14584853 11.9314783,2.39429812 11.9314783,3.92975704 C11.9314783,5.60612141 13.2803894,7.76895155 14.7129581,7.76895155 C16.1460736,7.76895155 17.4949847,5.60612141 17.4949847,3.92975704 C17.4949847,2.39429812 16.2472283,1.14584853 14.7129581,1.14584853 M14.7129581,8.91480009 C12.4350645,8.91480009 10.7865169,5.93690719 10.7865169,3.92975704 C10.7865169,1.76282285 12.5479749,0 14.7129581,0 C16.8784881,0 18.6402195,1.76282285 18.6402195,3.92975704 C18.6402195,5.93690719 16.9911251,8.91480009 14.7129581,8.91480009" id="Fill-24"></path>
                <path d="M19.2699718,19.960966 L17.5148017,19.960966 C17.1987617,19.960966 16.942321,19.7046002 16.942321,19.3880417 C16.942321,19.0714833 17.1987617,18.8153911 17.5148017,18.8153911 L18.7393199,18.8153911 L19.310707,11.254104 C18.7412336,10.9380928 17.1998553,10.2466985 14.6220517,10.2466985 C12.0199164,10.2466985 10.497402,10.934536 9.93339642,11.2516416 L10.5056037,18.8153911 L11.7298485,18.8153911 C12.0458885,18.8153911 12.3023293,19.0714833 12.3023293,19.3880417 C12.3023293,19.7046002 12.0458885,19.960966 11.7298485,19.960966 L9.97467845,19.960966 C9.67531533,19.960966 9.42652954,19.7300452 9.40383809,19.4315446 L8.76574354,10.9947286 C8.75070704,10.800197 8.83627841,10.6116847 8.99156449,10.4937619 C9.06674701,10.4365789 10.8776889,9.1011236 14.6220517,9.1011236 C18.3677815,9.1011236 20.1779032,10.4373997 20.2533591,10.4937619 C20.4083718,10.6116847 20.4936698,10.800197 20.4789067,10.9947286 L19.8408121,19.4315446 C19.8183941,19.7300452 19.5693349,19.960966 19.2699718,19.960966" id="Fill-26"></path>
                <path d="M16.4176559,29.8420566 L12.759958,29.8420566 C12.467703,29.8420566 12.2221979,29.6215327 12.190758,29.3309665 L11.1269937,19.5110884 C11.0928198,19.1964452 11.3202811,18.9138135 11.6344073,18.8796131 C11.948807,18.8465072 12.2312198,19.0733239 12.2653937,19.3871463 L13.2736596,28.696208 L15.9039543,28.696208 L16.9122202,19.3871463 C16.9461207,19.0733239 17.2279868,18.847328 17.5429332,18.8796131 C17.8573328,18.9138135 18.0845207,19.1964452 18.0503468,19.5110884 L16.9868559,29.3309665 C16.955416,29.6215327 16.7099109,29.8420566 16.4176559,29.8420566" id="Fill-28"></path>
                <path d="M24.1612634,3.84247775 C22.8077047,3.84247775 21.7067592,4.94400263 21.7067592,6.2986101 C21.7067592,7.75527141 22.9203417,9.7071538 24.1612634,9.7071538 C25.4021851,9.7071538 26.6154942,7.75527141 26.6154942,6.2986101 C26.6154942,4.94400263 25.5145487,3.84247775 24.1612634,3.84247775 M24.1612634,10.8527287 C22.167423,10.8527287 20.5617978,8.36102802 20.5617978,6.2986101 C20.5617978,4.31252736 22.1764449,2.69662921 24.1612634,2.69662921 C26.1458085,2.69662921 27.760729,4.31252736 27.760729,6.2986101 C27.760729,8.36102802 26.1551038,10.8527287 24.1612634,10.8527287" id="Fill-30"></path>
                <path d="M28.2147944,21.0351306 L26.6310404,21.0351306 C26.3147271,21.0351306 26.0582863,20.7787648 26.0582863,20.4619327 C26.0582863,20.1456479 26.3147271,19.8890085 26.6310404,19.8890085 L27.6841425,19.8890085 L28.1871819,13.2371771 C27.3429505,12.9351197 25.3340736,12.2697176 24.0212501,12.2697176 C22.3240389,12.2697176 20.0100577,13.129104 19.9868194,13.1381329 C19.6904636,13.2494893 19.3604807,13.0987341 19.2500307,12.8024223 C19.139034,12.5058369 19.289399,12.1758719 19.5854815,12.0650627 C19.6882765,12.0264848 22.1189957,11.1235955 24.0212501,11.1235955 C25.9276054,11.1235955 28.8744868,12.2669816 28.9988797,12.3156829 C29.2334492,12.4073399 29.3805335,12.6412702 29.3613961,12.8927112 L28.7856347,20.5054356 C28.7632167,20.8042098 28.5144309,21.0351306 28.2147944,21.0351306" id="Fill-32"></path>
                <path d="M25.8542136,28.808315 C25.8309754,28.808315 25.8069169,28.8066734 25.7834053,28.8039374 C25.4695525,28.7650858 25.2464654,28.4788972 25.285287,28.1648012 L26.2448893,20.390104 C26.2837108,20.0762816 26.569131,19.8538425 26.8835306,19.8918733 C27.1971101,19.9307249 27.4201971,20.2169134 27.3813756,20.5307358 L26.4214999,28.3054331 C26.385959,28.5957256 26.139087,28.808315 25.8542136,28.808315" id="Fill-34"></path>
                <path d="M5.28431212,3.84247775 C3.93102677,3.84247775 2.83008129,4.94400263 2.83008129,6.2986101 C2.83008129,7.75527141 4.04366385,9.7071538 5.28431212,9.7071538 C6.52523378,9.7071538 7.73881634,7.75527141 7.73881634,6.2986101 C7.73881634,4.94400263 6.63759747,3.84247775 5.28431212,3.84247775 M5.28431212,10.8527287 C3.29074509,10.8527287 1.68539326,8.36102802 1.68539326,6.2986101 C1.68539326,4.31252736 3.299767,2.69662921 5.28431212,2.69662921 C7.26913064,2.69662921 8.88377777,4.31252736 8.88377777,6.2986101 C8.88377777,8.36102802 7.27815254,10.8527287 5.28431212,10.8527287" id="Fill-36"></path>
                <path d="M2.73225212,21.0351306 L1.14877157,21.0351306 C0.849135051,21.0351306 0.600349259,20.8042098 0.577657807,20.5054356 L0.00162301228,12.8927112 C-0.0172409653,12.6412702 0.129843382,12.4073399 0.364139452,12.3156829 C0.488532348,12.2669816 3.43568711,11.1235955 5.34176903,11.1235955 C7.25058485,11.1235955 9.74937841,12.1151321 9.85490733,12.1572669 C10.1482559,12.2746425 10.2912393,12.6081643 10.1739546,12.9020137 C10.0566699,13.1958631 9.72285949,13.3381366 9.43005775,13.2213082 C9.40627273,13.2117321 7.02859138,12.2697176 5.34176903,12.2697176 C4.02675841,12.2697176 2.01979523,12.9348461 1.17611066,13.2369035 L1.67942346,19.8890085 L2.73225212,19.8890085 C3.04856549,19.8890085 3.30445944,20.1456479 3.30445944,20.4619327 C3.30445944,20.7787648 3.04856549,21.0351306 2.73225212,21.0351306" id="Fill-38"></path>
                <path d="M3.55374862,28.8083677 C3.26887522,28.8083677 3.02227655,28.5957783 2.98618894,28.3054857 L2.02685999,20.5307885 C1.98803847,20.2166925 2.21112551,19.9307776 2.52497836,19.891926 C2.83910459,19.8536216 3.12452478,20.0763343 3.16307291,20.3901567 L4.12267525,28.1648539 C4.16149677,28.4792235 3.93840973,28.7651385 3.62455688,28.80399 C3.60077187,28.8067261 3.57698685,28.8083677 3.55374862,28.8083677" id="Fill-40"></path>
            </g>
        </g>
    </g>
</svg>