<?xml version="1.0" encoding="UTF-8"?>
<svg width="100px" height="97px" viewBox="0 0 100 97" version="1.1" xmlns="http://www.w3.org/2000/svg" xmlns:xlink="http://www.w3.org/1999/xlink">
    <!-- Generator: Sketch 49.1 (51147) - http://www.bohemiancoding.com/sketch -->
    <title>Fill 1</title>
    <desc>Created with Sketch.</desc>
    <defs></defs>
    <g id="Desktop-1399---1024-px" stroke="none" stroke-width="1" fill="none" fill-rule="evenodd" opacity="0.05">
        <g id="Desktop_EDU-Main" transform="translate(-800.000000, -875.000000)" fill="#FEFEFE">
            <path d="M803.812553,879.006001 C803.859557,879.176582 804.014976,879.55186 804.532784,880.127287 L842.493506,922.176647 C842.808134,922.524632 842.981747,922.97724 842.981747,923.446528 L842.981747,966.660388 L857.017912,958.900847 L857.017912,923.44577 C857.017912,922.976482 857.191526,922.523874 857.506153,922.175889 L895.466876,880.127287 C895.985442,879.552618 896.14086,879.176582 896.187865,879.006001 C896.030172,878.927154 895.647312,878.790689 894.872496,878.790689 L805.126406,878.790689 C804.353105,878.790689 803.969487,878.927154 803.812553,879.006001 M841.086403,971.769479 C840.75358,971.769479 840.419999,971.681535 840.124326,971.507163 C839.545866,971.16676 839.191058,970.545086 839.191058,969.874134 L839.191058,924.175856 L801.719334,882.66629 C799.54272,880.255412 799.899045,878.361583 800.305407,877.447269 C800.711769,876.532955 801.878543,875 805.126406,875 L894.872496,875 C898.121875,875 899.288649,876.533713 899.695011,877.448027 C900.100614,878.362342 900.457697,880.255412 898.279567,882.667049 L860.808602,924.175098 L860.808602,960.018342 C860.808602,960.709005 860.434082,961.343567 859.830604,961.677147 L842.003749,971.53294 C841.717931,971.691391 841.401788,971.769479 841.086403,971.769479" id="Fill-1"></path>
        </g>
    </g>
</svg>