<?xml version="1.0" encoding="UTF-8"?>
<svg width="100px" height="100px" viewBox="0 0 100 100" version="1.1" xmlns="http://www.w3.org/2000/svg" xmlns:xlink="http://www.w3.org/1999/xlink">
    <!-- Generator: Sketch 49.1 (51147) - http://www.bohemiancoding.com/sketch -->
    <title>Page 1</title>
    <desc>Created with Sketch.</desc>
    <defs></defs>
    <g id="HD-Desktop-1920---1440-px" stroke="none" stroke-width="1" fill="none" fill-rule="evenodd" opacity="0.05">
        <g id="HD-Desktop_EDU-Main" transform="translate(-910.000000, -4401.000000)" fill="#FEFEFE">
            <g id="Page-1" transform="translate(910.000000, 4401.000000)">
                <g id="Group-3" transform="translate(0.000000, 0.369934)">
                    <path d="M57.0510533,99.415473 C56.6690898,99.415473 56.2952532,99.2863005 55.9932041,99.0448629 L45.2156035,90.4315605 L32.839716,96.5364821 C32.4144092,96.7474863 31.9207011,96.7698041 31.477786,96.5973487 C31.0355481,96.4262459 30.6847377,96.076601 30.5120415,95.6356561 L25.4916598,82.7955053 L11.7172714,81.9021187 C11.2432032,81.8716854 10.8050288,81.6437737 10.5070431,81.2745162 C10.2097347,80.9052587 10.0817363,80.4284703 10.1528465,79.9597973 L12.2346829,66.3344671 L0.753429725,58.6835335 C0.358598687,58.4211308 0.0924432877,58.0052089 0.019978586,57.5365359 C-0.0524861157,57.0685393 0.0748350424,56.5917508 0.371466251,56.2211407 L8.99679747,45.4592467 L2.88335016,33.1006184 C2.67272846,32.6752284 2.65105677,32.1815325 2.82239854,31.7405877 C2.99441756,31.2982903 3.34319626,30.9486454 3.78543411,30.77619 L16.6435166,25.7641623 L17.5374737,12.0069545 C17.5686267,11.5342238 17.7968567,11.0959841 18.1666298,10.7990903 C18.5357257,10.5021965 19.0152118,10.377758 19.4825075,10.4447113 L33.1288976,12.5256733 L40.7891615,1.05840282 C41.0532852,0.664122412 41.4697879,0.399014484 41.9391154,0.325974544 C42.4104746,0.254287196 42.8858972,0.380754499 43.2563476,0.67697203 L54.0319165,9.29027451 L66.4078039,3.18535291 C66.833788,2.97570123 67.3281734,2.95338347 67.769734,3.12448629 C68.2119718,3.29558912 68.5627823,3.64523401 68.7354785,4.08617883 L72.5686581,13.8911144 C72.9086326,14.7608307 72.4779079,15.7414595 71.606977,16.08096 C70.7326599,16.4191078 69.7540478,15.9910126 69.4140732,15.12062 L66.2527159,7.03347564 L54.5655817,12.7988968 C53.9757055,13.0890277 53.2706985,13.0126062 52.7573504,12.6034473 L42.5818164,4.46896222 L35.3475365,15.2978095 C34.9818268,15.8449328 34.3289673,16.1255955 33.6835573,16.0309141 L20.797708,14.066275 L19.9531895,27.0572398 C19.9098461,27.7125703 19.4913117,28.2833639 18.8790865,28.5227726 L6.73684692,33.2554902 L12.5096424,44.9263257 C12.8015329,45.5153792 12.7250048,46.2187268 12.31392,46.7320353 L4.16875207,56.8947313 L15.0113677,64.1195986 C15.5579006,64.4834457 15.8443732,65.131337 15.7454961,65.7805809 L13.7787905,78.6471073 L26.7865431,79.4904481 C27.4427889,79.533731 28.0150568,79.9516818 28.2541226,80.5630531 L32.9948041,92.6883593 L44.6819382,86.9229382 C45.2711372,86.6314547 45.975467,86.7078762 46.4901696,87.1183877 L56.6677353,95.2528728 L63.9020152,84.425378 C64.2663704,83.8796074 64.9144893,83.5962395 65.5653171,83.6922735 L78.4518437,85.65556 L79.2950077,72.6659478 C79.3376739,72.0112935 79.7562083,71.4398236 80.3691107,71.200415 L92.5099958,66.4663448 L86.7378776,54.7955093 C86.445987,54.207132 86.5231924,53.5031082 86.9336,52.990476 L95.0787679,42.8284563 L84.2368295,35.6042653 C83.6896194,35.2397419 83.4031468,34.5918505 83.5027011,33.9426066 L85.4687294,21.0747277 L76.9795235,20.5248993 C76.0462865,20.4640326 75.3392477,19.6592407 75.3995221,18.7273052 C75.4604737,17.796046 76.256231,17.0920221 77.1989493,17.1495072 L87.5309259,17.8197163 C88.0043168,17.8508259 88.4431684,18.0780613 88.7404769,18.4479951 C89.0377853,18.8165762 89.1664609,19.2933647 89.0946735,19.7620377 L87.0128371,33.3887204 L98.4940903,41.0396541 C98.8889213,41.3020568 99.1550767,41.718655 99.2275414,42.1866516 C99.3006833,42.6546483 99.1726849,43.1327894 98.876731,43.5020468 L90.2507225,54.2625883 L96.3634926,66.6218928 C96.573437,67.0472828 96.595786,67.5403024 96.4244442,67.9819236 C96.2531024,68.4235447 95.9029692,68.7731896 95.4614086,68.945645 L82.6040034,73.9590253 L81.7114008,87.7148805 C81.6802477,88.1876112 81.4520178,88.6258509 81.0822446,88.9227447 C80.713826,89.2203148 80.2384033,89.3467821 79.7663669,89.2771236 L66.1206541,87.1981906 L58.4590357,98.6634322 C58.1955892,99.0577126 57.7790865,99.3228205 57.3104363,99.3958604 C57.2237495,99.4087101 57.1370628,99.415473 57.0510533,99.415473" id="Fill-1"></path>
                </g>
                <path d="M33.3621391,75.2631263 C33.0282597,75.2631263 32.6916713,75.1643871 32.3963946,74.9601458 C31.6284042,74.4272248 31.4394542,73.373556 31.9737967,72.6066367 L64.4948713,25.9253236 C65.0292138,25.1584042 66.0836768,24.9710703 66.8509899,25.503315 C67.6189803,26.0362361 67.8079303,27.0899048 67.2735878,27.8561479 L34.7531905,74.5381373 C34.4240518,75.0101917 33.8971589,75.2631263 33.3621391,75.2631263" id="Fill-4"></path>
                <path d="M37.5182268,30.2398875 C36.2328249,30.2398875 35.0070201,30.7816004 33.9735516,31.8061884 C31.31877,34.4363025 30.9009128,39.434128 33.0606318,42.7195727 C34.1828188,44.4272194 35.8109043,45.4064956 37.5277082,45.4064956 C38.8137873,45.4064956 40.0402693,44.8647827 41.0744151,43.8395184 C43.7285195,41.2100806 44.1456994,36.2122551 41.9853032,32.9268104 C40.8624389,31.2191637 39.2343535,30.2398875 37.5182268,30.2398875 M37.5277082,48.7879743 C34.6494373,48.7879743 31.9892378,47.2521067 30.2297678,44.5753282 C27.1442614,39.8811595 27.7402328,33.2176176 31.5876344,29.4066911 C33.2448411,27.7632925 35.3510582,26.8584088 37.5182268,26.8584088 C40.3958204,26.8584088 43.05602,28.3942764 44.81549,31.0710549 C47.9023508,35.7645473 47.3063795,42.4274129 43.4589779,46.239692 C41.8010939,47.8830906 39.6948768,48.7879743 37.5277082,48.7879743" id="Fill-6"></path>
                <path d="M61.7209631,55.0567624 C60.434884,55.0567624 59.208402,55.5984752 58.1735789,56.6230633 C55.5194746,59.2511485 55.1022946,64.2482977 57.2613364,67.5357713 C58.3835234,69.2427417 60.0122861,70.2220179 61.72909,70.2220179 C63.0144919,70.2220179 64.2409739,69.680305 65.2751197,68.6550407 C67.929224,66.0256029 68.346404,61.0277774 66.1873622,57.7423327 C65.064498,56.0353623 63.4370898,55.0567624 61.7209631,55.0567624 M61.72909,73.6034966 C58.8508191,73.6034966 56.1906196,72.067629 54.4304723,69.3908505 C51.344966,64.6939766 51.9422918,58.031111 55.7890162,54.2228897 C57.4462229,52.5801674 59.5537945,51.6752837 61.7209631,51.6752837 C64.5985567,51.6752837 67.258079,53.210475 69.0175491,55.8865772 C72.1037327,60.5807459 71.507084,67.2442878 67.6603597,71.0552143 C66.0017984,72.6986129 63.8955814,73.6034966 61.72909,73.6034966" id="Fill-8"></path>
            </g>
        </g>
    </g>
</svg>