<?xml version="1.0" encoding="UTF-8"?>
<svg width="208px" height="159px" viewBox="0 0 208 159" version="1.1" xmlns="http://www.w3.org/2000/svg" xmlns:xlink="http://www.w3.org/1999/xlink">
    <!-- Generator: Sketch 49.1 (51147) - http://www.bohemiancoding.com/sketch -->
    <title>Group 19</title>
    <desc>Created with Sketch.</desc>
    <defs>
        <polygon id="path-1" points="0 23.3173 0 0.6593 124.518803 0.6593 124.518803 23.3173 1.25466586e-15 23.3173"></polygon>
        <polygon id="path-3" points="0 158.762 207.925 158.762 207.925 0 0 0"></polygon>
        <polygon id="path-5" points="0 44.5701886 59.7557654 44.5701886 59.7557654 0.0128407514 0 0.0128407514"></polygon>
    </defs>
    <g id="HD-Desktop-1920---1440-px" stroke="none" stroke-width="1" fill="none" fill-rule="evenodd">
        <g id="HD-Desktop_EDU-Main" transform="translate(-741.000000, -3381.000000)">
            <g id="Group-19" transform="translate(741.000000, 3381.000000)">
                <g id="Page-1">
                    <path d="M114.6601,106.6106 C113.7501,106.6106 112.9121,106.0116 112.6481,105.0936 C102.3361,69.2056 94.2321,56.4246 90.0721,56.4246 L90.0441,56.4246 C83.3881,56.5196 74.2061,74.1776 65.4851,103.6626 C65.1571,104.7716 63.9911,105.4006 62.8841,105.0766 C61.7741,104.7476 61.1411,103.5826 61.4691,102.4726 C71.2921,69.2676 80.8861,52.3666 89.9851,52.2366 C92.9091,52.1956 101.7711,52.0726 116.6741,103.9366 C116.9931,105.0486 116.3501,106.2086 115.2391,106.5276 C115.0461,106.5846 114.8511,106.6106 114.6601,106.6106" id="Fill-20" fill="#FCB528"></path>
                    <path d="M197.5117,79.6604 L181.0327,79.6604 C180.4767,79.6604 179.9437,79.4394 179.5507,79.0454 C179.1577,78.6524 178.9377,78.1194 178.9387,77.5624 L178.9897,54.0104 C178.9917,52.8544 179.9287,51.9204 181.0827,51.9204 L181.0877,51.9204 C182.2437,51.9234 183.1797,52.8624 183.1777,54.0174 L183.1317,75.4734 L197.5117,75.4734 C198.6687,75.4734 199.6067,76.4094 199.6067,77.5664 C199.6067,78.7234 198.6687,79.6604 197.5117,79.6604 Z" id="Fill-1" fill="#FCB528"></path>
                    <g id="Group-5" transform="translate(0.000000, 101.762000)">
                        <mask id="mask-2" fill="white">
                            <use xlink:href="#path-1"></use>
                        </mask>
                        <g id="Clip-4"></g>
                        <path d="M122.4238,23.3173 L13.7178,23.3173 C6.1538,23.3173 -0.0002,17.1643 -0.0002,9.5993 L-0.0002,3.0193 C-0.0002,1.8653 0.9348,0.9273 2.0898,0.9243 L122.4188,0.6593 L122.4238,0.6593 C123.5788,0.6593 124.5158,1.5933 124.5188,2.7483 C124.5208,3.9063 123.5848,4.8443 122.4288,4.8463 L4.1888,5.1073 L4.1888,9.5993 C4.1888,14.8553 8.4638,19.1303 13.7178,19.1303 L122.4238,19.1303 C123.5808,19.1303 124.5188,20.0663 124.5188,21.2243 C124.5188,22.3803 123.5808,23.3173 122.4238,23.3173" id="Fill-3" fill="#2D2F45" mask="url(#mask-2)"></path>
                    </g>
                    <path d="M74.9883,106.8752 L74.9883,108.0952 C74.9883,110.1652 76.6733,111.8502 78.7443,111.8502 L102.0493,111.8502 C104.1203,111.8502 105.8043,110.1652 105.8043,108.0952 L105.8043,106.8752 L74.9883,106.8752 Z M102.0493,116.0372 L78.7443,116.0372 C74.3643,116.0372 70.8003,112.4752 70.8003,108.0952 L70.8003,104.7812 C70.8003,103.6252 71.7383,102.6872 72.8943,102.6872 L107.8983,102.6872 C109.0543,102.6872 109.9923,103.6252 109.9923,104.7812 L109.9923,108.0952 C109.9923,112.4752 106.4283,116.0372 102.0493,116.0372 Z" id="Fill-6" fill="#2D2F45"></path>
                    <path d="M16.4629,106.8752 C15.3059,106.8752 14.3679,105.9382 14.3679,104.7812 L14.3679,21.8672 C14.3679,14.3052 20.5219,8.1512 28.0859,8.1512 L59.5469,8.1512 C60.7029,8.1512 61.6409,9.0902 61.6409,10.2462 C61.6409,11.4012 60.7029,12.3392 59.5469,12.3392 L28.0859,12.3392 C22.8309,12.3392 18.5569,16.6132 18.5569,21.8672 L18.5569,104.7812 C18.5569,105.9382 17.6189,106.8752 16.4629,106.8752" id="Fill-8" fill="#2D2F45"></path>
                    <path d="M164.3301,56.1086 C163.1741,56.1086 162.2361,55.1706 162.2361,54.0136 L162.2361,21.8666 C162.2361,16.6136 157.9621,12.3396 152.7081,12.3396 L100.7551,12.3396 C99.5991,12.3396 98.6611,11.4036 98.6611,10.2476 C98.6611,9.0896 99.5991,8.1526 100.7551,8.1526 L152.7081,8.1526 C160.2711,8.1526 166.4251,14.3046 166.4251,21.8666 L166.4251,54.0136 C166.4251,55.1706 165.4861,56.1086 164.3301,56.1086" id="Fill-10" fill="#2D2F45"></path>
                    <path d="M25.3403,106.8752 C24.1833,106.8752 23.2463,105.9382 23.2463,104.7812 L23.2463,19.6072 C23.2463,18.4512 24.1833,17.5142 25.3403,17.5142 L58.9133,17.5142 C60.0693,17.5142 61.0073,18.4512 61.0073,19.6072 C61.0073,20.7642 60.0693,21.7012 58.9133,21.7012 L27.4343,21.7012 L27.4343,104.7812 C27.4343,105.9382 26.4973,106.8752 25.3403,106.8752" id="Fill-12" fill="#2D2F45"></path>
                    <path d="M155.4526,56.1096 C154.2956,56.1096 153.3586,55.1726 153.3586,54.0146 L153.3586,21.7016 L100.0336,21.7016 C98.8766,21.7016 97.9396,20.7636 97.9396,19.6076 C97.9396,18.4516 98.8766,17.5136 100.0336,17.5136 L155.4526,17.5136 C156.6096,17.5136 157.5466,18.4516 157.5466,19.6076 L157.5466,54.0146 C157.5466,55.1726 156.6096,56.1096 155.4526,56.1096" id="Fill-14" fill="#2D2F45"></path>
                    <path d="M205.8306,158.762 L122.4236,158.762 C121.2676,158.762 120.3306,157.825 120.3306,156.668 L120.3306,54.014 C120.3306,52.859 121.2676,51.92 122.4236,51.92 L130.3356,51.92 C131.4926,51.92 132.4306,52.859 132.4306,54.014 C132.4306,55.17 131.4926,56.109 130.3356,56.109 L124.5186,56.109 L124.5186,154.575 L203.7366,154.575 L203.7366,78.464 L180.2466,56.109 L150.3926,56.109 C149.2356,56.109 148.2976,55.17 148.2976,54.014 C148.2976,52.859 149.2356,51.92 150.3926,51.92 L181.0826,51.92 C181.6206,51.92 182.1376,52.126 182.5266,52.497 L207.2746,76.049 C207.6896,76.445 207.9246,76.993 207.9246,77.567 L207.9246,156.668 C207.9246,157.825 206.9876,158.762 205.8306,158.762" id="Fill-16" fill="#FCB528"></path>
                    <path d="M88.1953,4.1887 C85.8903,4.1887 83.4673,4.4907 80.9933,5.0837 C71.9753,7.2497 68.7943,10.2077 68.7623,10.2367 C67.3423,11.6567 66.9323,14.4827 67.9033,16.2717 C75.3973,30.0537 85.8973,44.9327 89.7903,44.9337 C89.8363,44.9337 89.8743,44.9307 89.9073,44.9217 C94.2453,43.8867 97.8443,26.5467 98.6913,11.0767 C98.8053,8.9577 97.2303,6.2907 95.3173,5.3697 C95.3043,5.3647 92.7233,4.1887 88.1953,4.1887 M89.7903,49.1217 L89.7883,49.1217 C81.6273,49.1197 68.1573,25.5067 64.2233,18.2697 C62.3643,14.8457 63.0653,10.0077 65.8193,7.2567 C66.2003,6.8767 69.8443,3.4537 80.0163,1.0107 C82.8093,0.3407 85.5623,0.0007 88.1953,0.0007 C93.7573,0.0007 96.9993,1.5307 97.1343,1.5957 C100.5583,3.2457 103.0783,7.5087 102.8733,11.3047 C102.5503,17.1977 100.4633,46.7097 90.8803,48.9967 C90.5283,49.0807 90.1623,49.1217 89.7903,49.1217" id="Fill-18" fill="#FCB528"></path>
                    <path d="M112.2212,70.6594 C103.9772,70.6594 97.3922,63.9354 97.1162,63.6484 C96.3122,62.8164 96.3362,61.4904 97.1682,60.6874 C97.9992,59.8874 99.3232,59.9064 100.1272,60.7374 C100.1812,60.7954 105.7782,66.4724 112.2212,66.4724 L112.3022,66.4724 C115.4232,66.4474 118.3172,65.0494 120.9012,62.3124 C121.6952,61.4714 123.0202,61.4324 123.8612,62.2274 C124.7032,63.0214 124.7402,64.3474 123.9462,65.1874 C120.5402,68.7954 116.6222,70.6364 112.3042,70.6594 L112.2212,70.6594 Z" id="Fill-22" fill="#FCB528"></path>
                    <path d="M60.5644,78.0403 C60.0404,78.0403 59.5114,78.0143 58.9804,77.9553 C53.4574,77.3423 48.8184,73.5813 45.1924,66.7763 C44.6484,65.7563 45.0354,64.4863 46.0564,63.9433 C47.0784,63.3963 48.3444,63.7863 48.8894,64.8073 C51.8224,70.3123 55.3704,73.3353 59.4314,73.7913 C67.6264,74.7153 75.8094,65.3443 75.8914,65.2483 C76.6464,64.3743 77.9684,64.2753 78.8434,65.0313 C79.7194,65.7853 79.8184,67.1053 79.0644,67.9823 C78.6934,68.4133 70.2934,78.0403 60.5644,78.0403" id="Fill-24" fill="#FCB528"></path>
                    <path d="M44.605,40.8 C44.73,43.483 45.339,47.907 46.062,51.696 C46.166,52.242 46.049,52.809 45.736,53.268 C45.422,53.729 44.939,54.044 44.393,54.148 C44.113,54.201 37.427,55.553 38.266,60.146 C38.925,63.754 39.933,63.754 40.999,63.754 C41.976,63.754 43.249,63.515 44.724,63.236 L45.926,63.013 C47.473,62.734 48.473,62.26 48.899,61.603 C49.783,60.24 49.022,57.147 48.142,53.563 C47.79,52.13 47.392,50.508 47.052,48.807 C46.178,44.429 45.278,42.067 44.605,40.8 M40.999,67.944 C36.011,67.944 34.698,63.922 34.146,60.898 C33.079,55.059 37.79,51.867 41.595,50.571 C39.06,36.352 41.167,35.754 42.582,35.354 C42.923,35.256 43.274,35.207 43.625,35.207 C47.024,35.207 49.419,39.268 51.159,47.987 C51.48,49.597 51.852,51.106 52.209,52.564 C53.368,57.277 54.282,61.001 52.412,63.884 C51.317,65.571 49.439,66.634 46.671,67.134 L45.499,67.352 C43.819,67.669 42.367,67.944 40.999,67.944" id="Fill-26" fill="#FCB528"></path>
                    <path d="M136.8027,51.6116 C134.1497,51.6116 131.9907,53.7706 131.9907,56.4236 C131.9907,59.0756 134.1497,61.2326 136.8027,61.2326 L143.9227,61.2326 C146.5757,61.2326 148.7337,59.0756 148.7337,56.4236 C148.7337,53.7706 146.5757,51.6116 143.9227,51.6116 L136.8027,51.6116 Z M143.9227,65.4226 L136.8027,65.4226 C131.8397,65.4226 127.8027,61.3836 127.8027,56.4236 C127.8027,51.4616 131.8397,47.4236 136.8027,47.4236 L143.9227,47.4236 C148.8847,47.4236 152.9217,51.4616 152.9217,56.4236 C152.9217,61.3836 148.8847,65.4226 143.9227,65.4226 Z" id="Fill-28" fill="#FCB528"></path>
                    <mask id="mask-4" fill="white">
                        <use xlink:href="#path-3"></use>
                    </mask>
                    <g id="Clip-31"></g>
                </g>
                <g id="Group-18" transform="translate(134.000000, 93.000000)">
                    <g id="Page-1-Copy-2">
                        <polygon id="Fill-1" fill="#FCB528" points="0.00104249416 30.8487556 59.7557654 30.8487556 59.7557654 0.109852663 0.00104249416 0.109852663"></polygon>
                        <polygon id="Fill-2" fill="#2D2F45" points="16.869015 16.719922 10.2710695 16.719922 10.2710695 20.9965149 17.6415032 20.9965149 17.6415032 24.3334503 6.1980448 24.3334503 6.1980448 6.33241572 17.2682903 6.33241572 17.2682903 9.67039749 10.2710695 9.67039749 10.2710695 13.4081 16.869015 13.4081"></polygon>
                        <g id="Group-21" transform="translate(0.000000, 0.097012)">
                            <path d="M24.4758865,21.1651812 C24.8219945,21.2467996 25.3828564,21.2467996 25.8863811,21.2467996 C29.5580455,21.2698202 31.9536971,19.2419178 31.9536971,14.9423043 C31.9797594,11.2035554 29.7978192,9.2258797 26.3158887,9.2258797 C25.4089187,9.2258797 24.8219945,9.30749806 24.4758865,9.38911642 L24.4758865,21.1651812 Z M20.4101592,6.47282954 C21.8977984,6.23529917 23.83788,6.10240773 25.8863811,6.10240773 C29.2942945,6.10240773 31.5022971,6.71663823 33.2297099,8.0267176 C35.0936895,9.41213699 36.2654529,11.6304822 36.2654529,14.8073201 C36.2654529,18.2520335 35.01446,20.6315227 33.2828771,22.0996069 C31.3970052,23.6744227 28.5218063,24.422591 25.0096435,24.422591 C22.9079752,24.422591 21.4161661,24.285514 20.4101592,24.1557618 L20.4101592,6.47282954 Z" id="Fill-3" fill="#2D2F45"></path>
                            <path d="M42.9679607,6.23519453 L42.9679607,16.5965411 C42.9679607,19.6938533 44.1397241,21.2697155 46.2142875,21.2697155 C48.3420181,21.2697155 49.514824,19.776518 49.514824,16.5965411 L49.514824,6.23519453 L53.5607439,6.23519453 L53.5607439,16.3297118 C53.5607439,21.8849924 50.763732,24.5281717 46.0798057,24.5281717 C41.5574661,24.5281717 38.897021,22.0178839 38.897021,16.2763459 L38.897021,6.23519453 L42.9679607,6.23519453 Z" id="Fill-5" fill="#2D2F45"></path>
                            <path d="M4.54225132,40.9790852 L4.03768414,39.2525429 C3.89173496,38.7670183 3.74682827,38.1632517 3.62589895,37.6798199 L3.60296408,37.6798199 C3.48099226,38.1632517 3.36214793,38.779575 3.22766618,39.2525429 L2.74707637,40.9790852 L4.54225132,40.9790852 Z M2.48124036,42.3571799 L1.90369859,44.4499584 L0.000104249416,44.4499584 L2.48124036,36.3006788 L4.89252936,36.3006788 L7.40806777,44.4499584 L5.43358383,44.4499584 L4.80704484,42.3571799 L2.48124036,42.3571799 Z" id="Fill-7" fill="#2D2F45"></path>
                            <polygon id="Fill-9" fill="#2D2F45" points="8.49132346 36.3004695 13.4546382 36.3004695 13.4546382 37.812502 10.3344531 37.812502 10.3344531 39.6740285 13.2492668 39.6740285 13.2492668 41.172458 10.3344531 41.172458 10.3344531 44.4497492 8.49132346 44.4497492"></polygon>
                            <polygon id="Fill-11" fill="#2D2F45" points="14.8379237 36.3004695 19.8012384 36.3004695 19.8012384 37.812502 16.6820958 37.812502 16.6820958 39.6740285 19.595867 39.6740285 19.595867 41.172458 16.6820958 41.172458 16.6820958 44.4497492 14.8379237 44.4497492"></polygon>
                            <mask id="mask-6" fill="white">
                                <use xlink:href="#path-5"></use>
                            </mask>
                            <g id="Clip-14"></g>
                            <polygon id="Fill-13" fill="#2D2F45" mask="url(#mask-6)" points="21.1855664 44.4498538 23.0286961 44.4498538 23.0286961 36.3005742 21.1855664 36.3005742"></polygon>
                            <polygon id="Fill-15" fill="#2D2F45" mask="url(#mask-6)" points="24.6174572 36.3004695 26.4605868 36.3004695 26.4605868 42.9021394 29.6871063 42.9021394 29.6871063 44.4497492 24.6174572 44.4497492"></polygon>
                            <polygon id="Fill-16" fill="#2D2F45" mask="url(#mask-6)" points="30.7713002 44.4498538 32.6154724 44.4498538 32.6154724 36.3005742 30.7713002 36.3005742"></polygon>
                            <path d="M38.1536184,40.9790852 L37.6490512,39.2525429 C37.5041445,38.7670183 37.3592378,38.1632517 37.2383085,37.6798199 L37.2153736,37.6798199 C37.0944443,38.1632517 36.973515,38.779575 36.8411182,39.2525429 L36.3594859,40.9790852 L38.1536184,40.9790852 Z M36.0946924,42.3571799 L35.5181931,44.4499584 L33.6145988,44.4499584 L36.0946924,36.3006788 L38.5038964,36.3006788 L41.0215198,44.4499584 L39.0449509,44.4499584 L38.4204969,42.3571799 L36.0946924,42.3571799 Z" id="Fill-17" fill="#2D2F45" mask="url(#mask-6)"></path>
                            <polygon id="Fill-18" fill="#2D2F45" mask="url(#mask-6)" points="42.6697031 37.8491256 40.4888053 37.8491256 40.4888053 36.3004695 46.7302179 36.3004695 46.7302179 37.8491256 44.5138753 37.8491256 44.5138753 44.4497492 42.6697031 44.4497492"></polygon>
                            <polygon id="Fill-19" fill="#2D2F45" mask="url(#mask-6)" points="52.5347211 41.0040939 49.5479753 41.0040939 49.5479753 42.9399141 52.8839566 42.9399141 52.8839566 44.4498538 47.7048456 44.4498538 47.7048456 36.3005742 52.7161151 36.3005742 52.7161151 37.8126067 49.5479753 37.8126067 49.5479753 39.5046181 52.5347211 39.5046181"></polygon>
                            <path d="M54.1941633,42.5532732 C54.689348,42.8044067 55.4482838,43.060772 56.2301544,43.060772 C57.0745747,43.060772 57.5186772,42.7081389 57.5186772,42.1776195 C57.5186772,41.6690743 57.1339969,41.3781781 56.1592648,41.0276377 C54.8092349,40.5567625 53.9283273,39.8075478 53.9283273,38.6219888 C53.9283273,37.2313374 55.0854958,36.1671595 57.0016001,36.1671595 C57.91691,36.1671595 58.5914037,36.3617879 59.0740785,36.5794369 L58.6633358,38.0653097 C58.3391201,37.9093977 57.7605358,37.679192 56.9651128,37.679192 C56.1696898,37.679192 55.7839669,38.0422891 55.7839669,38.4650304 C55.7839669,38.9850858 56.2426643,39.2152915 57.290371,39.6139658 C58.7248429,40.1455315 59.3972517,40.8947463 59.3972517,42.0436817 C59.3972517,43.4113124 58.3505875,44.5707117 56.1227775,44.5707117 C55.1949577,44.5707117 54.2796478,44.3300422 53.8219929,44.0757696 L54.1941633,42.5532732 Z" id="Fill-20" fill="#2D2F45" mask="url(#mask-6)"></path>
                        </g>
                    </g>
                </g>
            </g>
        </g>
    </g>
</svg>