<?xml version="1.0" encoding="UTF-8"?>
<svg width="134px" height="100px" viewBox="0 0 134 100" version="1.1" xmlns="http://www.w3.org/2000/svg" xmlns:xlink="http://www.w3.org/1999/xlink">
    <!-- Generator: Sketch 49.1 (51147) - http://www.bohemiancoding.com/sketch -->
    <title>Page 1 Copy 13</title>
    <desc>Created with Sketch.</desc>
    <defs>
        <polygon id="path-1" points="32.5472502 0.106338028 0.665501037 0.106338028 0.665501037 21.4426761 32.5472502 21.4426761 32.5472502 0.106338028"></polygon>
    </defs>
    <g id="Desktop-1399---1024-px" stroke="none" stroke-width="1" fill="none" fill-rule="evenodd" opacity="0.05">
        <g id="Desktop_EDU-Main" transform="translate(-262.000000, -873.000000)">
            <g id="Page-1-Copy-13" transform="translate(262.000000, 873.000000)">
                <path d="M35.0361972,48.3394366 L47.2432394,95.9908451 L129.420704,74.9394366 L122.094648,46.343662 L98.1573239,32.1690141 L35.0361972,48.3394366 Z M45.9728169,99.893662 C45.1883099,99.893662 44.4721127,99.365493 44.2685915,98.5697183 L31.1883099,47.5077465 C30.9467606,46.565493 31.5150704,45.6070423 32.4573239,45.365493 L97.9904225,28.5774648 C98.4404225,28.4612676 98.9214085,28.5302817 99.3235211,28.7676056 L124.516479,43.6852113 C124.918592,43.9232394 125.208732,44.3105634 125.32493,44.7633803 L133.268592,75.7711268 C133.384085,76.2239437 133.316479,76.7028169 133.078451,77.1056338 C132.840423,77.5070423 132.452394,77.7978873 131.999577,77.9133803 L46.4108451,99.8387324 C46.2643662,99.8760563 46.1171831,99.893662 45.9728169,99.893662 Z" id="Fill-1" fill="#FFFFFF"></path>
                <path d="M101.18662,33.9633099 L104.833099,48.1964085 L119.065493,44.5492254 L101.18662,33.9633099 Z M103.564085,52.0992254 C103.251408,52.0992254 102.940845,52.0161268 102.667606,51.8534507 C102.264789,51.6154225 101.974648,51.2280986 101.858451,50.7752817 L96.7211268,30.7196479 C96.5443662,30.029507 96.8007042,29.301338 97.3704225,28.8738732 C97.9401408,28.4457042 98.7119718,28.4048592 99.3232394,28.7675352 L124.516197,43.6851408 C125.128873,44.0478169 125.46338,44.7442958 125.361972,45.4492254 C125.261972,46.1541549 124.745775,46.7288028 124.056338,46.9055634 L104.000704,52.0442958 C103.857042,52.0816197 103.710563,52.0992254 103.564085,52.0992254 Z" id="Fill-3" fill="#FFFFFF"></path>
                <path d="M51.9877465,89.403169 C51.6750704,89.403169 51.364507,89.3200704 51.0912676,89.1573944 C50.6884507,88.9193662 50.3983099,88.5320423 50.2821127,88.0799296 L41.5046479,53.8158451 C41.2630986,52.8735915 41.8314085,51.9144366 42.773662,51.6728873 L100.141268,36.9764085 C101.083521,36.7341549 102.041972,37.303169 102.283521,38.2447183 C102.52507,39.1869718 101.956761,40.1461268 101.014507,40.3869718 L45.3525352,54.646831 L53.2567606,85.5003521 L119.105352,68.6320423 L115.696197,55.3264085 C115.454648,54.3841549 116.022958,53.425 116.965211,53.1834507 C117.906761,52.9411972 118.865915,53.5102113 119.107465,54.4524648 L122.953239,69.4637324 C123.068732,69.9158451 123.000423,70.3954225 122.762394,70.7975352 C122.524366,71.1989437 122.136338,71.4897887 121.684225,71.6059859 L52.4243662,89.3482394 C52.2807042,89.3855634 52.1342254,89.403169 51.9877465,89.403169" id="Fill-5" fill="#FFFFFF"></path>
                <path d="M77.6555634,56.3052817 C77.4978169,56.3052817 77.3414789,56.3242958 77.1914789,56.3630282 C76.1147183,56.6390845 75.5647183,57.8073944 75.3316197,58.4792254 C74.8499296,59.8735915 74.8288028,61.675 75.2759859,63.4207746 C76.129507,66.7538732 78.2879577,68.7454225 79.8816197,68.7454225 C80.0400704,68.7454225 80.1957042,68.7264085 80.3464085,68.6876761 C81.4224648,68.4116197 81.973169,67.2433099 82.2055634,66.5707746 C82.6879577,65.1764085 82.7090845,63.3757042 82.2626056,61.6306338 C81.4076761,58.296831 79.2492254,56.3052817 77.6555634,56.3052817 M79.8816197,72.2665493 L79.8809155,72.2665493 C76.3633099,72.2665493 73.066831,68.9883803 71.8647183,64.2940141 C71.2421831,61.8623239 71.2914789,59.3883803 72.0048592,57.3278169 C72.7942958,55.046831 74.3654225,53.4517606 76.3175352,52.9517606 C76.7527465,52.840493 77.2027465,52.7841549 77.6555634,52.7841549 C81.173169,52.7841549 84.4703521,56.0623239 85.6738732,60.7559859 C86.2964085,63.1890845 86.2464085,65.6630282 85.5337324,67.7228873 C84.7435915,70.0038732 83.1717606,71.5989437 81.2203521,72.0982394 C80.7851408,72.2102113 80.3344366,72.2665493 79.8816197,72.2665493" id="Fill-7" fill="#FFFFFF"></path>
                <path d="M93.8252113,52.1624648 C93.6667606,52.1624648 93.5104225,52.1821831 93.3597183,52.2209155 C91.7083099,52.6448592 90.5160563,55.6462676 91.4456338,59.2779577 C92.2991549,62.6117606 94.4583099,64.6040141 96.0519718,64.6040141 C96.2104225,64.6040141 96.3660563,64.585 96.5160563,64.5462676 C98.168169,64.1223239 99.361831,61.1202113 98.4322535,57.4885211 C97.5773239,54.1547183 95.418169,52.1624648 93.8252113,52.1624648 M96.0519718,68.1251408 C92.5892958,68.1251408 89.2174648,64.7716197 88.0343662,60.1511972 C86.6597183,54.7842958 88.6153521,49.8019014 92.4857746,48.8096479 C92.9216901,48.6976761 93.3716901,48.641338 93.8252113,48.641338 C97.3414085,48.641338 100.639296,51.919507 101.843521,56.6138732 C103.217465,61.9828873 101.261127,66.9652817 97.39,67.9575352 C96.9540845,68.0688028 96.5047887,68.1251408 96.0519718,68.1251408" id="Fill-9" fill="#FFFFFF"></path>
                <path d="M69.8114085,74.7107746 C69.0269014,74.7107746 68.3107042,74.1819014 68.1071831,73.386831 L65.1360563,61.793169 L64.5670423,62.5988028 C64.0057746,63.393169 62.9064789,63.580493 62.1128169,63.0199296 C61.3191549,62.458662 61.1304225,61.3600704 61.6923944,60.5657042 L64.4592958,56.6516197 C64.8557746,56.0924648 65.5402817,55.8135915 66.216338,55.9375352 C66.8909859,56.0621831 67.431831,56.5664085 67.6022535,57.2319014 L71.5184507,72.5128873 C71.76,73.4544366 71.1916901,74.4135915 70.2494366,74.6551408 C70.1029577,74.693169 69.9564789,74.7107746 69.8114085,74.7107746" id="Fill-11" fill="#FFFFFF"></path>
                <path d="M33.8690845,88.715493 C33.5634507,88.715493 33.255,88.6366197 32.9740141,88.4697183 L0.864154928,69.4556338 C0.0268309845,68.9605634 -0.249225354,67.8802817 0.245845069,67.0443662 L34.7134507,8.83309859 C34.9514789,8.43169014 35.339507,8.14084507 35.7916197,8.02535211 L64.1528873,0.759859155 C64.6042958,0.643661972 65.0845775,0.711971831 65.4859859,0.95 L93.0296479,17.2591549 C93.4317606,17.4971831 93.7219014,17.8852113 93.8380986,18.3366197 C93.9535915,18.7894366 93.8859859,19.2697183 93.6479577,19.6711268 L84.4888028,35.1380282 C83.9930282,35.9746479 82.9120423,36.2507042 82.076831,35.7556338 C81.2402113,35.2605634 80.9634507,34.1809859 81.4585211,33.343662 L89.7211972,19.3922535 L64.3197887,4.35140845 L37.3726056,11.2556338 L4.17260563,67.3232394 L34.7669718,85.4401408 C35.6042958,85.9352113 35.8803521,87.015493 35.3852817,87.8514085 C35.0571127,88.4070423 34.470493,88.715493 33.8690845,88.715493" id="Fill-13" fill="#FFFFFF"></path>
                <g id="Group-17" transform="translate(33.802817, 0.597887)">
                    <mask id="mask-2" fill="white">
                        <use xlink:href="#path-1"></use>
                    </mask>
                    <g id="Clip-16"></g>
                    <path d="M6.97992958,9.78352113 L19.6214789,17.2694366 L27.1066901,4.62788732 L6.97992958,9.78352113 Z M20.2397887,21.4426761 C19.9271127,21.4426761 19.6165493,21.3588732 19.3433099,21.1961972 L1.52922535,10.6476056 C0.916549296,10.2849296 0.582042254,9.58915493 0.683450704,8.88422535 C0.783450704,8.17929577 1.29964789,7.60394366 1.98908451,7.4271831 L30.3503521,0.161690141 C31.0383803,-0.0157746479 31.7679577,0.241267606 32.1954225,0.810985915 C32.6221831,1.38070423 32.6644366,2.15112676 32.3017606,2.76380282 L21.7545775,20.5785915 C21.5172535,20.98 21.1292254,21.2708451 20.6764085,21.3877465 C20.5327465,21.423662 20.3862676,21.4426761 20.2397887,21.4426761 Z" id="Fill-15" fill="#FFFFFF" mask="url(#mask-2)"></path>
                </g>
                <path d="M41.8033099,83.6173944 C41.4976761,83.6173944 41.1892254,83.5378169 40.9082394,83.3709155 L12.6180986,66.6202113 C12.2152817,66.3821831 11.9251408,65.9948592 11.8089437,65.5427465 C11.6934507,65.0899296 11.7617606,64.6103521 11.9997887,64.2082394 L42.1730282,13.2519014 C42.6688028,12.4152817 43.750493,12.1399296 44.585,12.6335915 C45.4223239,13.1293662 45.6983803,14.2089437 45.2033099,15.0462676 L15.9265493,64.4878169 L42.7011972,80.341338 C43.5385211,80.8371127 43.8145775,81.9166901 43.319507,82.7533099 C42.991338,83.3089437 42.4047183,83.6173944 41.8033099,83.6173944" id="Fill-18" fill="#FFFFFF"></path>
                <path d="M76.4293662,30.0357746 C76.1237324,30.0357746 75.8152817,29.9561972 75.5342958,29.7892958 C74.6969718,29.2942254 74.4202113,28.2139437 74.9159859,27.3780282 L77.9673944,22.2259155 L66.1476761,15.2280282 C65.3110563,14.7329577 65.0342958,13.6526761 65.5293662,12.8160563 C66.0258451,11.9787324 67.106831,11.7040845 67.941338,12.1977465 L81.2758451,20.0928169 C81.6779577,20.3308451 81.9680986,20.7188732 82.0842958,21.1709859 C82.1997887,21.6238028 82.1321831,22.1033803 81.8941549,22.505493 L77.9455634,29.1716901 C77.6173944,29.7273239 77.0307746,30.0357746 76.4293662,30.0357746" id="Fill-20" fill="#FFFFFF"></path>
            </g>
        </g>
    </g>
</svg>