<?xml version="1.0" encoding="UTF-8"?>
<svg width="1109px" height="138px" viewBox="0 0 1109 138" version="1.1" xmlns="http://www.w3.org/2000/svg" xmlns:xlink="http://www.w3.org/1999/xlink">
    <!-- Generator: Sketch 49.1 (51147) - http://www.bohemiancoding.com/sketch -->
    <title>Group 16</title>
    <desc>Created with Sketch.</desc>
    <defs>
        <polygon id="path-1" points="0 137.67236 184.246943 137.67236 184.246943 0.0396636542 0 0.0396636542"></polygon>
        <ellipse id="path-3" cx="30" cy="29.5802381" rx="30" ry="29.5084409"></ellipse>
        <ellipse id="path-5" cx="29.815901" cy="29.8244323" rx="29.815901" ry="29.8244323"></ellipse>
        <ellipse id="path-7" cx="19.4150009" cy="19.143345" rx="19.4150009" ry="19.0968802"></ellipse>
        <ellipse id="path-9" cx="19.3008266" cy="19.3063492" rx="19.3008266" ry="19.3063492"></ellipse>
        <ellipse id="path-11" cx="19.3008266" cy="19.3063492" rx="19.3008266" ry="19.3063492"></ellipse>
        <ellipse id="path-13" cx="19.4150009" cy="19.143345" rx="19.4150009" ry="19.0968802"></ellipse>
        <ellipse id="path-15" cx="12.6499996" cy="12.473" rx="12.6499996" ry="12.4427255"></ellipse>
        <ellipse id="path-17" cx="12.6499996" cy="12.473" rx="12.6499996" ry="12.4427255"></ellipse>
        <ellipse id="path-19" cx="12.5773406" cy="12.5809394" rx="12.5773406" ry="12.5809394"></ellipse>
        <ellipse id="path-21" cx="12.5773406" cy="12.5809394" rx="12.5773406" ry="12.5809394"></ellipse>
        <ellipse id="path-23" cx="8.86499977" cy="8.74096014" rx="8.86499977" ry="8.71974406"></ellipse>
        <ellipse id="path-25" cx="8.67642743" cy="8.67891004" rx="8.67642743" ry="8.67891004"></ellipse>
    </defs>
    <g id="Desktop-1399---1024-px" stroke="none" stroke-width="1" fill="none" fill-rule="evenodd">
        <g id="Desktop_EDU-Main" transform="translate(-167.000000, -372.000000)">
            <g id="Group-16" transform="translate(167.000000, 372.000000)">
                <g id="Page-1-Copy-2" transform="translate(461.000000, 0.000000)">
                    <polygon id="Fill-1" fill="#FCB528" points="0.003214357 95.2883785 184.246943 95.2883785 184.246943 0.33932267 0.003214357 0.33932267"></polygon>
                    <polygon id="Fill-2" fill="#2D2F45" points="52.0127964 51.6459812 31.6691309 51.6459812 31.6691309 64.8559016 54.3946349 64.8559016 54.3946349 75.1633243 19.1106381 75.1633243 19.1106381 19.5601286 53.2438951 19.5601286 53.2438951 29.8707833 31.6691309 29.8707833 31.6691309 41.416131 52.0127964 41.416131"></polygon>
                    <g id="Group-21" transform="translate(0.000000, 0.299659)">
                        <path d="M75.4673166,65.3768932 C76.5344831,65.6290032 78.2638072,65.6290032 79.8163416,65.6290032 C91.137307,65.7001112 98.5238994,59.436146 98.5238994,46.1551176 C98.6042583,34.6065378 91.8766091,28.4977173 81.1406567,28.4977173 C78.3441661,28.4977173 76.5344831,28.7498273 75.4673166,29.0019374 L75.4673166,65.3768932 Z M62.9313243,19.9938512 C67.5182117,19.2601463 73.5001301,18.8496594 79.8163416,18.8496594 C90.3240746,18.8496594 97.1320828,20.7469492 102.458272,24.7936388 C108.205543,29.0730454 111.81848,35.9252674 111.81848,45.7381664 C111.81848,56.3785036 107.961252,63.7284813 102.622205,68.2632301 C96.8074327,73.1276613 87.9422361,75.4386701 77.1130674,75.4386701 C70.6329236,75.4386701 66.0331788,75.0152545 62.9313243,74.6144641 L62.9313243,19.9938512 Z" id="Fill-3" fill="#2D2F45"></path>
                        <path d="M132.484545,19.2598231 L132.484545,51.2648713 C132.484545,60.8321246 136.097483,65.699788 142.494053,65.699788 C149.054556,65.699788 152.670707,61.0874669 152.670707,51.2648713 L152.670707,19.2598231 L165.145627,19.2598231 L165.145627,50.4406653 C165.145627,67.6003099 156.521507,75.7647971 142.079401,75.7647971 C128.13552,75.7647971 119.932481,68.0107968 119.932481,50.2758241 L119.932481,19.2598231 L132.484545,19.2598231 Z" id="Fill-5" fill="#2D2F45"></path>
                        <path d="M14.0052749,126.579841 L12.4495261,121.246744 C11.9995161,119.747012 11.5527205,117.882044 11.1798551,116.388777 L11.1091392,116.388777 C10.7330595,117.882044 10.3666228,119.785798 9.95197072,121.246744 L8.47015214,126.579841 L14.0052749,126.579841 Z M7.6504911,130.836622 L5.86973732,137.300983 L0.0003214357,137.300983 L7.6504911,112.128763 L15.0852988,112.128763 L22.8415423,137.300983 L16.7535501,137.300983 L14.8217216,130.836622 L7.6504911,130.836622 Z" id="Fill-7" fill="#2D2F45"></path>
                        <polygon id="Fill-9" fill="#2D2F45" points="26.1815807 112.128117 41.4851343 112.128117 41.4851343 116.798617 31.8645638 116.798617 31.8645638 122.548666 40.851906 122.548666 40.851906 127.177148 31.8645638 127.177148 31.8645638 137.300336 26.1815807 137.300336"></polygon>
                        <polygon id="Fill-11" fill="#2D2F45" points="45.7502647 112.128117 61.0538183 112.128117 61.0538183 116.798617 51.4364622 116.798617 51.4364622 122.548666 60.42059 122.548666 60.42059 127.177148 51.4364622 127.177148 51.4364622 137.300336 45.7502647 137.300336"></polygon>
                        <mask id="mask-2" fill="white">
                            <use xlink:href="#path-1"></use>
                        </mask>
                        <g id="Clip-14"></g>
                        <polygon id="Fill-13" fill="#2D2F45" mask="url(#mask-2)" points="65.322163 137.300659 71.0051462 137.300659 71.0051462 112.12844 65.322163 112.12844"></polygon>
                        <polygon id="Fill-15" fill="#2D2F45" mask="url(#mask-2)" points="75.9038263 112.128117 81.5868094 112.128117 81.5868094 132.519942 91.5352444 132.519942 91.5352444 137.300336 75.9038263 137.300336"></polygon>
                        <polygon id="Fill-16" fill="#2D2F45" mask="url(#mask-2)" points="94.8781756 137.300659 100.564373 137.300659 100.564373 112.12844 94.8781756 112.12844"></polygon>
                        <path d="M117.640323,126.579841 L116.084575,121.246744 C115.637779,119.747012 115.190983,117.882044 114.818118,116.388777 L114.747402,116.388777 C114.374537,117.882044 114.001671,119.785798 113.593448,121.246744 L112.108415,126.579841 L117.640323,126.579841 Z M111.291968,130.836622 L109.514429,137.300983 L103.645013,137.300983 L111.291968,112.128763 L118.720347,112.128763 L126.483019,137.300983 L120.388599,137.300983 L118.463199,130.836622 L111.291968,130.836622 Z" id="Fill-17" fill="#2D2F45" mask="url(#mask-2)"></path>
                        <polygon id="Fill-18" fill="#2D2F45" mask="url(#mask-2)" points="131.564918 116.911744 124.840483 116.911744 124.840483 112.128117 144.084838 112.128117 144.084838 116.911744 137.251115 116.911744 137.251115 137.300336 131.564918 137.300336"></polygon>
                        <polygon id="Fill-19" fill="#2D2F45" mask="url(#mask-2)" points="161.982057 126.65709 152.772924 126.65709 152.772924 132.636623 163.058866 132.636623 163.058866 137.300659 147.089941 137.300659 147.089941 112.12844 162.541355 112.12844 162.541355 116.798941 152.772924 116.798941 152.772924 122.025376 161.982057 122.025376"></polygon>
                        <path d="M167.09867,131.442333 C168.62549,132.218056 170.965542,133.00994 173.376309,133.00994 C175.979939,133.00994 177.349255,131.920696 177.349255,130.28198 C177.349255,128.711141 176.163157,127.812595 173.157733,126.729814 C168.995141,125.275333 166.279009,122.961092 166.279009,119.299032 C166.279009,115.003464 169.846945,111.716337 175.754934,111.716337 C178.577139,111.716337 180.656828,112.317523 182.145075,112.989816 L180.878619,117.579512 C179.878954,117.097917 178.094986,116.386838 175.642431,116.386838 C173.189877,116.386838 172.000565,117.508404 172.000565,118.814205 C172.000565,120.420598 173.414882,121.131678 176.645311,122.363139 C181.068266,124.005086 183.141526,126.319327 183.141526,129.868261 C183.141526,134.092721 179.914312,137.673976 173.045231,137.673976 C170.184453,137.673976 167.362247,136.930575 165.951145,136.145155 L167.09867,131.442333 Z" id="Fill-20" fill="#2D2F45" mask="url(#mask-2)"></path>
                    </g>
                </g>
                <g id="$-copy-8" transform="translate(814.000000, 62.000000)">
                    <mask id="mask-4" fill="white">
                        <use xlink:href="#path-3"></use>
                    </mask>
                    <use id="Mask" fill="#2D2F45" xlink:href="#path-3"></use>
                    <path d="M28.0347305,44.3614209 C24.6981109,44.2115603 21.4834251,43.4772542 18.3905768,42.1584805 L18.3905768,34.6954577 C20.1579187,35.5796355 22.0775888,36.3176881 24.1496449,36.9096377 C26.2217009,37.5015872 28.0423405,37.7975575 29.6116182,37.7975575 C30.9066532,37.7975575 31.8550617,37.6439527 32.4568721,37.3367384 C33.0586825,37.029524 33.3595832,36.516259 33.3595832,35.7969279 C33.3595832,35.3023878 33.1424776,34.8827843 32.70826,34.5381048 C32.2740424,34.1934253 31.5503572,33.8037935 30.5371827,33.3691976 C29.5240083,32.9346018 28.1566242,32.4100974 26.4349894,31.7956687 C24.5000547,31.0913237 22.9384182,30.3008207 21.7500332,29.4241359 C20.5616481,28.5474511 19.6970347,27.5658786 19.1561672,26.4793889 C18.6152996,25.3928993 18.3448699,24.0404272 18.3448699,22.4219323 C18.3448699,19.9492317 19.1523502,18.0160583 20.767335,16.6223543 C22.3823199,15.2286503 24.8047608,14.3669646 28.0347305,14.0372711 L28.0347305,10.9576503 L32.7653936,10.9576503 L32.7653936,13.9923132 C35.7972991,14.1571599 38.8520124,14.891466 41.929625,16.1952536 L39.2100651,22.6017642 C36.0258025,21.1930741 33.153915,20.4887396 30.5943163,20.4887396 C29.3754599,20.4887396 28.5184642,20.6348516 28.0233038,20.9270798 C27.5281433,21.2193081 27.2805668,21.650151 27.2805668,22.2196214 C27.2805668,22.7141616 27.4595837,23.1225257 27.8176228,23.4447261 C28.1756619,23.7669265 28.7965076,24.1265866 29.6801785,24.5237173 C30.5638495,24.920848 31.7903054,25.3816626 33.3595832,25.9061748 C36.5438457,27.0151436 38.8291674,28.2777006 40.2156166,29.6938837 C41.6020659,31.1100668 42.2952801,32.9345928 42.2952801,35.1675164 C42.2952801,37.6851752 41.4839909,39.7307423 39.8613882,41.3042791 C38.2387855,42.8778158 35.8734777,43.8518954 32.7653936,44.226547 L32.7653936,48.564991 L28.0347305,48.564991 L28.0347305,44.3614209 Z" fill="#FFFFFF" mask="url(#mask-4)"></path>
                </g>
                <g id="Fill-1" transform="translate(234.000000, 16.000000)">
                    <mask id="mask-6" fill="white">
                        <use xlink:href="#path-5"></use>
                    </mask>
                    <use id="Mask" fill="#2D2F45" xlink:href="#path-5"></use>
                    <path d="M52.1884017,57.1525932 C47.7210966,55.1867797 45.146105,53.552339 40.4607915,52.0100847 C40.1144695,51.8979661 39.6958932,51.6737288 39.555122,51.4009068 C39.1751644,50.6808559 38.9085711,49.9122203 38.6357491,49.1485678 C38.4650796,48.6614746 38.3143423,48.2042797 37.691461,47.9700763 C37.5257745,47.9077881 37.3700542,47.6299831 37.3750373,47.4493475 C37.4086728,45.6828559 36.7808084,44.3984746 37.5556728,43.703339 C38.9658762,42.4376441 38.6457152,40.8804407 39.3508169,40.1118051 C40.0559186,39.3381864 41.8037237,33.8780085 41.4723508,33.1766441 C41.1372406,32.4765254 39.9537661,32.8029153 40.2315711,32.4615763 C41.3166305,31.1236271 41.6529864,28.4178305 41.5944356,26.1991271 C41.7887745,26.6027542 41.8959101,27.0412627 41.8959101,27.5171441 L41.8959101,27.9755847 L48.8061559,23.4833644 L29.8904949,11.1864407 L10.9760796,23.4783814 L12.6890034,24.593339 L12.6890034,27.0798814 C12.3576305,27.1621017 12.1097237,27.4448898 12.1097237,27.7999322 C12.1097237,28.0727542 12.265444,28.3057119 12.4884356,28.4377627 L10.9760796,37.0559492 L14.7619525,37.0559492 L13.2483508,28.4377627 C13.4725881,28.3057119 13.6233254,28.0727542 13.6233254,27.7999322 C13.6233254,27.4448898 13.3741728,27.1621017 13.0490288,27.0798814 L13.0490288,24.8262966 L17.8900627,27.9755847 L17.8900627,27.6728644 C17.924944,28.121339 17.9922152,28.5835169 18.0993508,29.0656271 C18.4743254,30.7050508 19.1943762,30.6028983 19.7786389,32.4615763 C19.788605,32.4864915 19.7786389,32.5251102 19.7786389,32.5587458 L19.7786389,32.6559153 C19.7350373,32.8701864 19.5643678,33.1093729 19.4235966,33.1479915 C18.7272152,33.3373475 18.7135118,33.7222881 18.8056983,34.2181017 C18.8692322,34.5594407 19.3986813,37.0895847 19.7051389,37.9989915 C19.9393423,38.6704576 20.3865711,39.3082881 20.5086559,39.9947034 C20.7565627,41.3675339 21.3507915,42.5597288 22.4258847,43.5912203 C22.6065203,43.7656271 22.7373254,44.0533983 22.7173932,44.2763898 C22.6351728,45.3327966 22.508105,46.3892034 22.3436644,47.4356441 C22.308783,47.6449322 22.0608762,47.9464068 21.8565711,47.9850254 C21.0393508,48.1307797 20.912283,48.6714407 20.717944,49.215839 C20.4600711,49.9358898 20.1822661,50.6571864 19.8608593,51.352322 C19.7587067,51.5715763 19.5058169,51.8007966 19.2579101,51.8929831 C17.8028593,52.4373814 16.3241389,52.9344407 14.864105,53.4651356 C13.3069017,54.0294661 9.18467284,56.5546271 7.65736776,57.2597288 C6.75668132,57.6783051 7.25747793,61.0169492 7.25747793,61.0169492 L52.4512576,61.0169492 C52.4512576,61.0169492 53.0828593,57.5524831 52.1884017,57.1525932 Z" fill="#FFFFFF" mask="url(#mask-6)"></path>
                    <circle id="Oval-2" stroke="#33333F" stroke-width="4" mask="url(#mask-6)" cx="30" cy="30" r="28"></circle>
                </g>
                <g id="$-copy-9" transform="translate(751.000000, 9.000000)">
                    <mask id="mask-8" fill="white">
                        <use xlink:href="#path-7"></use>
                    </mask>
                    <use id="Mask" fill="#57596B" xlink:href="#path-7"></use>
                    <path d="M18.143144,28.7092343 C15.9837948,28.6122495 13.9033573,28.137031 11.9017688,27.2835646 L11.9017688,22.4537448 C13.0455336,23.0259552 14.2878803,23.5035983 15.6288459,23.8866883 C16.9698116,24.2697783 18.1480689,24.4613205 19.1636532,24.4613205 C20.0017567,24.4613205 20.6155351,24.3619125 21.0050067,24.1630936 C21.3944784,23.9642748 21.5892113,23.6321067 21.5892113,23.1665796 C21.5892113,22.8465297 21.4487078,22.5749763 21.1676966,22.3519112 C20.8866854,22.1288461 20.4183405,21.8766894 19.7626477,21.5954334 C19.1069549,21.3141774 18.2220295,20.9747357 17.1078448,20.5770979 C15.8556195,20.1212693 14.8449804,19.609682 14.0758971,19.0423208 C13.3068139,18.4749597 12.7472649,17.8397186 12.3972334,17.1365787 C12.047202,16.4334388 11.8721888,15.5581639 11.8721888,14.5107279 C11.8721888,12.9104784 12.3947632,11.659393 13.4399276,10.7574342 C14.485092,9.85547535 16.0528151,9.29782101 18.143144,9.08445441 L18.143144,7.09142636 L21.2046716,7.09142636 L21.2046716,9.05535911 C23.1668198,9.16204241 25.1437285,9.63726089 27.1354569,10.4810288 L25.3754483,14.6271091 C23.3146996,13.7154518 21.4561096,13.25963 19.7996227,13.25963 C19.0108193,13.25963 18.4562003,13.3541887 18.135749,13.5433091 C17.8152976,13.7324295 17.6550743,14.0112567 17.6550743,14.379799 C17.6550743,14.6998489 17.7709281,14.9641286 18.0026391,15.1726459 C18.23435,15.3811633 18.6361407,15.6139234 19.2080231,15.8709331 C19.7799055,16.1279429 20.573627,16.4261667 21.5892113,16.7656136 C23.64996,17.4833013 25.128944,18.3003861 26.0262078,19.2168926 C26.9234716,20.1333992 27.3720967,21.3141716 27.3720967,22.7592454 C27.3720967,24.3885904 26.8470574,25.7124133 25.796963,26.7307539 C24.7468685,27.7490945 23.21612,28.3794863 21.2046716,28.6219484 L21.2046716,31.4296448 L18.143144,31.4296448 L18.143144,28.7092343 Z" id="$-copy-8" fill="#FFFFFF" mask="url(#mask-8)"></path>
                </g>
                <g id="Fill-1" transform="translate(318.000000, 91.000000)">
                    <mask id="mask-10" fill="white">
                        <use xlink:href="#path-9"></use>
                    </mask>
                    <use id="Mask" fill="#57596B" xlink:href="#path-9"></use>
                    <path d="M33.7832921,36.9967788 C30.8914566,35.7242422 29.2245788,34.6662142 26.1916191,33.6678617 C25.9674333,33.5952835 25.696475,33.4501273 25.6053491,33.2735205 C25.3593898,32.8074075 25.1868152,32.3098441 25.0102084,31.8155063 C24.8997283,31.5001947 24.802151,31.2042372 24.3989392,31.0526295 C24.2916848,31.0123083 24.1908818,30.8324758 24.1941075,30.7155444 C24.215881,29.5720355 23.8094434,28.7406127 24.311039,28.2906282 C25.2239106,27.4713017 25.0166597,26.463272 25.4730956,25.9657086 C25.9295314,25.4649195 27.0609439,21.9303642 26.8464352,21.4763477 C26.6295072,21.0231375 25.8634047,21.2344206 26.0432372,21.0134605 C26.7456322,20.1473614 26.9633666,18.395809 26.9254647,16.9595684 C27.0512668,17.2208496 27.1206193,17.5047108 27.1206193,17.8127647 L27.1206193,18.1095286 L31.5938517,15.2015646 L19.3491138,7.24135596 L7.10518224,15.1983389 L8.21401487,15.9200882 L8.21401487,17.5297099 C7.99950616,17.5829339 7.83902783,17.7659921 7.83902783,17.9958229 C7.83902783,18.1724296 7.9398308,18.3232309 8.08418065,18.4087118 L7.10518224,23.9875512 L9.55590396,23.9875512 L8.57609913,18.4087118 C8.7212554,18.3232309 8.81883267,18.1724296 8.81883267,17.9958229 C8.81883267,17.7659921 8.65754792,17.5829339 8.44707133,17.5297099 L8.44707133,16.0708894 L11.580834,18.1095286 L11.580834,17.9135676 C11.6034138,18.2038802 11.6469607,18.5030634 11.7163131,18.8151494 C11.9590467,19.876403 12.4251596,19.8102762 12.8033723,21.0134605 C12.8098237,21.0295889 12.8033723,21.0545881 12.8033723,21.0763615 L12.8033723,21.1392626 C12.7751475,21.2779674 12.6646674,21.4328008 12.5735416,21.4577999 C12.1227507,21.5803763 12.11388,21.8295613 12.1735554,22.1505179 C12.214683,22.371478 12.5574131,24.0093246 12.7557933,24.5980139 C12.907401,25.0326763 13.1969071,25.4455653 13.2759366,25.8899048 C13.436415,26.7785837 13.8210791,27.5503312 14.5170228,28.2180501 C14.6339542,28.3309494 14.7186287,28.5172333 14.7057259,28.6615831 C14.6525019,29.3454305 14.5702467,30.0292778 14.4637988,30.7066737 C14.4412189,30.8421529 14.2807406,31.0373074 14.1484871,31.0623066 C13.6194731,31.1566582 13.5372179,31.5066461 13.4114158,31.8590532 C13.2444861,32.3251661 13.0646536,32.7920855 12.8565963,33.2420699 C12.7904695,33.3840005 12.6267655,33.5323825 12.4662872,33.5920578 C11.5243843,33.944465 10.5671593,34.2662281 9.62203071,34.6097646 C8.61400104,34.9750745 5.94554491,36.6096954 4.95686942,37.0661313 C4.37382506,37.3370896 4.6980074,39.4983052 4.6980074,39.4983052 L33.9534475,39.4983052 C33.9534475,39.4983052 34.3623044,37.2556408 33.7832921,36.9967788 Z" fill="#FFFFFF" mask="url(#mask-10)"></path>
                    <circle id="Oval-2" stroke="#57596B" stroke-width="3" mask="url(#mask-10)" cx="19.5" cy="19.5" r="18"></circle>
                </g>
                <g id="Fill-1" transform="translate(140.000000, 73.000000)">
                    <mask id="mask-12" fill="white">
                        <use xlink:href="#path-11"></use>
                    </mask>
                    <use id="Mask" fill="#57596B" xlink:href="#path-11"></use>
                    <path d="M33.7832921,36.9967788 C30.8914566,35.7242422 29.2245788,34.6662142 26.1916191,33.6678617 C25.9674333,33.5952835 25.696475,33.4501273 25.6053491,33.2735205 C25.3593898,32.8074075 25.1868152,32.3098441 25.0102084,31.8155063 C24.8997283,31.5001947 24.802151,31.2042372 24.3989392,31.0526295 C24.2916848,31.0123083 24.1908818,30.8324758 24.1941075,30.7155444 C24.215881,29.5720355 23.8094434,28.7406127 24.311039,28.2906282 C25.2239106,27.4713017 25.0166597,26.463272 25.4730956,25.9657086 C25.9295314,25.4649195 27.0609439,21.9303642 26.8464352,21.4763477 C26.6295072,21.0231375 25.8634047,21.2344206 26.0432372,21.0134605 C26.7456322,20.1473614 26.9633666,18.395809 26.9254647,16.9595684 C27.0512668,17.2208496 27.1206193,17.5047108 27.1206193,17.8127647 L27.1206193,18.1095286 L31.5938517,15.2015646 L19.3491138,7.24135596 L7.10518224,15.1983389 L8.21401487,15.9200882 L8.21401487,17.5297099 C7.99950616,17.5829339 7.83902783,17.7659921 7.83902783,17.9958229 C7.83902783,18.1724296 7.9398308,18.3232309 8.08418065,18.4087118 L7.10518224,23.9875512 L9.55590396,23.9875512 L8.57609913,18.4087118 C8.7212554,18.3232309 8.81883267,18.1724296 8.81883267,17.9958229 C8.81883267,17.7659921 8.65754792,17.5829339 8.44707133,17.5297099 L8.44707133,16.0708894 L11.580834,18.1095286 L11.580834,17.9135676 C11.6034138,18.2038802 11.6469607,18.5030634 11.7163131,18.8151494 C11.9590467,19.876403 12.4251596,19.8102762 12.8033723,21.0134605 C12.8098237,21.0295889 12.8033723,21.0545881 12.8033723,21.0763615 L12.8033723,21.1392626 C12.7751475,21.2779674 12.6646674,21.4328008 12.5735416,21.4577999 C12.1227507,21.5803763 12.11388,21.8295613 12.1735554,22.1505179 C12.214683,22.371478 12.5574131,24.0093246 12.7557933,24.5980139 C12.907401,25.0326763 13.1969071,25.4455653 13.2759366,25.8899048 C13.436415,26.7785837 13.8210791,27.5503312 14.5170228,28.2180501 C14.6339542,28.3309494 14.7186287,28.5172333 14.7057259,28.6615831 C14.6525019,29.3454305 14.5702467,30.0292778 14.4637988,30.7066737 C14.4412189,30.8421529 14.2807406,31.0373074 14.1484871,31.0623066 C13.6194731,31.1566582 13.5372179,31.5066461 13.4114158,31.8590532 C13.2444861,32.3251661 13.0646536,32.7920855 12.8565963,33.2420699 C12.7904695,33.3840005 12.6267655,33.5323825 12.4662872,33.5920578 C11.5243843,33.944465 10.5671593,34.2662281 9.62203071,34.6097646 C8.61400104,34.9750745 5.94554491,36.6096954 4.95686942,37.0661313 C4.37382506,37.3370896 4.6980074,39.4983052 4.6980074,39.4983052 L33.9534475,39.4983052 C33.9534475,39.4983052 34.3623044,37.2556408 33.7832921,36.9967788 Z" fill="#FFFFFF" mask="url(#mask-12)"></path>
                    <circle id="Oval-2" stroke="#57596B" stroke-width="3" mask="url(#mask-12)" cx="19.5" cy="19.5" r="18"></circle>
                </g>
                <g id="$-copy-9" transform="translate(927.000000, 27.000000)">
                    <mask id="mask-14" fill="white">
                        <use xlink:href="#path-13"></use>
                    </mask>
                    <use id="Mask" fill="#57596B" xlink:href="#path-13"></use>
                    <path d="M18.143144,28.7092343 C15.9837948,28.6122495 13.9033573,28.137031 11.9017688,27.2835646 L11.9017688,22.4537448 C13.0455336,23.0259552 14.2878803,23.5035983 15.6288459,23.8866883 C16.9698116,24.2697783 18.1480689,24.4613205 19.1636532,24.4613205 C20.0017567,24.4613205 20.6155351,24.3619125 21.0050067,24.1630936 C21.3944784,23.9642748 21.5892113,23.6321067 21.5892113,23.1665796 C21.5892113,22.8465297 21.4487078,22.5749763 21.1676966,22.3519112 C20.8866854,22.1288461 20.4183405,21.8766894 19.7626477,21.5954334 C19.1069549,21.3141774 18.2220295,20.9747357 17.1078448,20.5770979 C15.8556195,20.1212693 14.8449804,19.609682 14.0758971,19.0423208 C13.3068139,18.4749597 12.7472649,17.8397186 12.3972334,17.1365787 C12.047202,16.4334388 11.8721888,15.5581639 11.8721888,14.5107279 C11.8721888,12.9104784 12.3947632,11.659393 13.4399276,10.7574342 C14.485092,9.85547535 16.0528151,9.29782101 18.143144,9.08445441 L18.143144,7.09142636 L21.2046716,7.09142636 L21.2046716,9.05535911 C23.1668198,9.16204241 25.1437285,9.63726089 27.1354569,10.4810288 L25.3754483,14.6271091 C23.3146996,13.7154518 21.4561096,13.25963 19.7996227,13.25963 C19.0108193,13.25963 18.4562003,13.3541887 18.135749,13.5433091 C17.8152976,13.7324295 17.6550743,14.0112567 17.6550743,14.379799 C17.6550743,14.6998489 17.7709281,14.9641286 18.0026391,15.1726459 C18.23435,15.3811633 18.6361407,15.6139234 19.2080231,15.8709331 C19.7799055,16.1279429 20.573627,16.4261667 21.5892113,16.7656136 C23.64996,17.4833013 25.128944,18.3003861 26.0262078,19.2168926 C26.9234716,20.1333992 27.3720967,21.3141716 27.3720967,22.7592454 C27.3720967,24.3885904 26.8470574,25.7124133 25.796963,26.7307539 C24.7468685,27.7490945 23.21612,28.3794863 21.2046716,28.6219484 L21.2046716,31.4296448 L18.143144,31.4296448 L18.143144,28.7092343 Z" id="$-copy-8" fill="#FFFFFF" mask="url(#mask-14)"></path>
                </g>
                <g id="$-copy-9" transform="translate(705.000000, 85.000000)">
                    <mask id="mask-16" fill="white">
                        <use xlink:href="#path-15"></use>
                    </mask>
                    <use id="Mask" fill="#818390" xlink:href="#path-15"></use>
                    <path d="M11.821311,18.7057319 C10.4143698,18.6425407 9.05884398,18.3329083 7.75469297,17.7768254 L7.75469297,14.6299176 C8.49992212,15.0027459 9.30938302,15.313958 10.1831,15.5635634 C11.0568169,15.8131688 11.8245199,15.9379696 12.486232,15.9379696 C13.0323051,15.9379696 13.4322173,15.8731996 13.6859807,15.7436575 C13.939744,15.6141155 14.0666238,15.3976888 14.0666238,15.0943708 C14.0666238,14.8858397 13.9750776,14.7089069 13.7919825,14.5635671 C13.6088875,14.4182272 13.3037335,14.2539325 12.8765117,14.0706779 C12.4492898,13.8874233 11.8727095,13.6662573 11.1467535,13.4071732 C10.3308561,13.1101744 9.67236607,12.7768457 9.17126371,12.4071769 C8.67016135,12.0375082 8.30558273,11.6236118 8.07751691,11.1654753 C7.8494511,10.7073389 7.7354199,10.1370465 7.7354199,9.45458116 C7.7354199,8.41192576 8.07590742,7.59677104 8.75689268,7.00909254 C9.43787793,6.42141404 10.4593405,6.05806988 11.821311,5.91904916 L11.821311,4.62047574 L13.8160739,4.62047574 L13.8160739,5.90009188 C15.0945273,5.96960224 16.3825981,6.27923465 17.6803247,6.82899841 L16.5335769,9.53041027 C15.1908796,8.93641264 13.9799004,8.63941829 12.900603,8.63941829 C12.3866519,8.63941829 12.0252854,8.70102882 11.8164927,8.82425173 C11.6077001,8.94747464 11.5033053,9.12914672 11.5033053,9.36927342 C11.5033053,9.5778045 11.5787908,9.74999804 11.7297639,9.8858592 C11.8807371,10.0217204 12.142527,10.173377 12.5151416,10.3408338 C12.8877561,10.5082906 13.4049117,10.7026007 14.0666238,10.9237701 C15.4093212,11.3913852 16.3729651,11.9237634 16.9575845,12.5209206 C17.5422039,13.1180778 17.8345092,13.8874195 17.8345092,14.828969 C17.8345092,15.8905817 17.4924157,16.7531292 16.8082182,17.4166372 C16.1240208,18.0801451 15.1266493,18.490882 13.8160739,18.6488601 L13.8160739,20.4782373 L11.821311,20.4782373 L11.821311,18.7057319 Z" id="$-copy-8" fill="#FFFFFF" mask="url(#mask-16)"></path>
                </g>
                <g id="$-copy-9" transform="translate(1010.000000, 80.000000)">
                    <mask id="mask-18" fill="white">
                        <use xlink:href="#path-17"></use>
                    </mask>
                    <use id="Mask" fill="#818390" xlink:href="#path-17"></use>
                    <path d="M11.821311,18.7057319 C10.4143698,18.6425407 9.05884398,18.3329083 7.75469297,17.7768254 L7.75469297,14.6299176 C8.49992212,15.0027459 9.30938302,15.313958 10.1831,15.5635634 C11.0568169,15.8131688 11.8245199,15.9379696 12.486232,15.9379696 C13.0323051,15.9379696 13.4322173,15.8731996 13.6859807,15.7436575 C13.939744,15.6141155 14.0666238,15.3976888 14.0666238,15.0943708 C14.0666238,14.8858397 13.9750776,14.7089069 13.7919825,14.5635671 C13.6088875,14.4182272 13.3037335,14.2539325 12.8765117,14.0706779 C12.4492898,13.8874233 11.8727095,13.6662573 11.1467535,13.4071732 C10.3308561,13.1101744 9.67236607,12.7768457 9.17126371,12.4071769 C8.67016135,12.0375082 8.30558273,11.6236118 8.07751691,11.1654753 C7.8494511,10.7073389 7.7354199,10.1370465 7.7354199,9.45458116 C7.7354199,8.41192576 8.07590742,7.59677104 8.75689268,7.00909254 C9.43787793,6.42141404 10.4593405,6.05806988 11.821311,5.91904916 L11.821311,4.62047574 L13.8160739,4.62047574 L13.8160739,5.90009188 C15.0945273,5.96960224 16.3825981,6.27923465 17.6803247,6.82899841 L16.5335769,9.53041027 C15.1908796,8.93641264 13.9799004,8.63941829 12.900603,8.63941829 C12.3866519,8.63941829 12.0252854,8.70102882 11.8164927,8.82425173 C11.6077001,8.94747464 11.5033053,9.12914672 11.5033053,9.36927342 C11.5033053,9.5778045 11.5787908,9.74999804 11.7297639,9.8858592 C11.8807371,10.0217204 12.142527,10.173377 12.5151416,10.3408338 C12.8877561,10.5082906 13.4049117,10.7026007 14.0666238,10.9237701 C15.4093212,11.3913852 16.3729651,11.9237634 16.9575845,12.5209206 C17.5422039,13.1180778 17.8345092,13.8874195 17.8345092,14.828969 C17.8345092,15.8905817 17.4924157,16.7531292 16.8082182,17.4166372 C16.1240208,18.0801451 15.1266493,18.490882 13.8160739,18.6488601 L13.8160739,20.4782373 L11.821311,20.4782373 L11.821311,18.7057319 Z" id="$-copy-8" fill="#FFFFFF" mask="url(#mask-18)"></path>
                </g>
                <g id="Fill-1-Copy" transform="translate(376.000000, 29.000000)">
                    <mask id="mask-20" fill="white">
                        <use xlink:href="#path-19"></use>
                    </mask>
                    <use id="Mask" fill="#818390" xlink:href="#path-19"></use>
                    <path d="M22.014807,24.1088684 C20.1303488,23.2796227 19.0441316,22.5901612 17.0677102,21.939587 C16.92162,21.8922916 16.7450506,21.7977008 16.6856686,21.6826154 C16.5253898,21.3788739 16.4129319,21.0546378 16.2978465,20.7325037 C16.2258524,20.5270316 16.1622664,20.3341715 15.8995143,20.2353767 C15.8296222,20.2091015 15.7639342,20.0919141 15.7660362,20.015716 C15.7802248,19.270551 15.5153707,18.7287561 15.8422343,18.4355248 C16.4371051,17.9016125 16.3020505,17.2447322 16.5994859,16.9204961 C16.8969213,16.594158 17.6342037,14.2908729 17.4944196,13.9950141 C17.353059,13.6996807 16.85383,13.8373628 16.9710174,13.6933746 C17.4287316,13.1289831 17.5706177,11.9875879 17.545919,11.0516649 C17.6278977,11.2219283 17.6730911,11.4069057 17.6730911,11.6076484 L17.6730911,11.8010339 L20.588063,9.90606568 L12.6088068,4.71881346 L4.63007616,9.90396366 L5.35264447,10.3742899 L5.35264447,11.4231964 C5.21286034,11.4578797 5.108285,11.5771691 5.108285,11.7269378 C5.108285,11.8420232 5.17397303,11.9402925 5.26803829,11.995996 L4.63007616,15.6314342 L6.2270835,15.6314342 L5.58859587,11.995996 C5.68318663,11.9402925 5.74677264,11.8420232 5.74677264,11.7269378 C5.74677264,11.5771691 5.64167179,11.4578797 5.50451519,11.4231964 L5.50451519,10.4725592 L7.54662461,11.8010339 L7.54662461,11.6733364 C7.56133873,11.8625179 7.58971596,12.05748 7.63490932,12.2608501 C7.79308609,12.9524137 8.09682754,12.9093223 8.34328902,13.6933746 C8.34749305,13.7038847 8.34328902,13.7201754 8.34328902,13.734364 L8.34328902,13.7753533 C8.32489637,13.86574 8.25290229,13.9666368 8.19352032,13.9829275 C7.89976345,14.0628041 7.89398291,14.2251849 7.93287022,14.4343356 C7.95967093,14.5783238 8.18301023,15.6456228 8.31228427,16.0292409 C8.41107906,16.3124877 8.59973508,16.5815459 8.6512345,16.8710987 C8.75580984,17.4502043 9.00647535,17.9531119 9.4599855,18.3882294 C9.53618361,18.4618 9.59136156,18.5831915 9.58295349,18.6772567 C9.54827021,19.1228843 9.49466878,19.5685119 9.42530222,20.0099354 C9.4105881,20.0982201 9.30601276,20.2253922 9.21983007,20.2416828 C8.8750993,20.3031668 8.82149787,20.5312356 8.73951921,20.760881 C8.63073983,21.0646224 8.51355239,21.3688894 8.3779723,21.6621207 C8.33488095,21.7546095 8.22820359,21.8513022 8.12362825,21.8901896 C7.50983932,22.1198349 6.8860658,22.3295111 6.27017485,22.5533759 C5.61329456,22.7914293 3.87440108,23.8566264 3.2301329,24.1540618 C2.85019334,24.3306312 3.06144604,25.7389825 3.06144604,25.7389825 L22.1256884,25.7389825 C22.1256884,25.7389825 22.392119,24.2775553 22.014807,24.1088684 Z" id="Fill-1" fill="#FFFFFF" mask="url(#mask-20)"></path>
                    <circle id="Oval-2" stroke="#818390" stroke-width="2" mask="url(#mask-20)" cx="13" cy="13" r="12"></circle>
                </g>
                <g id="Fill-1-Copy" transform="translate(72.000000, 35.000000)">
                    <mask id="mask-22" fill="white">
                        <use xlink:href="#path-21"></use>
                    </mask>
                    <use id="Mask" fill="#818390" xlink:href="#path-21"></use>
                    <path d="M22.014807,24.1088684 C20.1303488,23.2796227 19.0441316,22.5901612 17.0677102,21.939587 C16.92162,21.8922916 16.7450506,21.7977008 16.6856686,21.6826154 C16.5253898,21.3788739 16.4129319,21.0546378 16.2978465,20.7325037 C16.2258524,20.5270316 16.1622664,20.3341715 15.8995143,20.2353767 C15.8296222,20.2091015 15.7639342,20.0919141 15.7660362,20.015716 C15.7802248,19.270551 15.5153707,18.7287561 15.8422343,18.4355248 C16.4371051,17.9016125 16.3020505,17.2447322 16.5994859,16.9204961 C16.8969213,16.594158 17.6342037,14.2908729 17.4944196,13.9950141 C17.353059,13.6996807 16.85383,13.8373628 16.9710174,13.6933746 C17.4287316,13.1289831 17.5706177,11.9875879 17.545919,11.0516649 C17.6278977,11.2219283 17.6730911,11.4069057 17.6730911,11.6076484 L17.6730911,11.8010339 L20.588063,9.90606568 L12.6088068,4.71881346 L4.63007616,9.90396366 L5.35264447,10.3742899 L5.35264447,11.4231964 C5.21286034,11.4578797 5.108285,11.5771691 5.108285,11.7269378 C5.108285,11.8420232 5.17397303,11.9402925 5.26803829,11.995996 L4.63007616,15.6314342 L6.2270835,15.6314342 L5.58859587,11.995996 C5.68318663,11.9402925 5.74677264,11.8420232 5.74677264,11.7269378 C5.74677264,11.5771691 5.64167179,11.4578797 5.50451519,11.4231964 L5.50451519,10.4725592 L7.54662461,11.8010339 L7.54662461,11.6733364 C7.56133873,11.8625179 7.58971596,12.05748 7.63490932,12.2608501 C7.79308609,12.9524137 8.09682754,12.9093223 8.34328902,13.6933746 C8.34749305,13.7038847 8.34328902,13.7201754 8.34328902,13.734364 L8.34328902,13.7753533 C8.32489637,13.86574 8.25290229,13.9666368 8.19352032,13.9829275 C7.89976345,14.0628041 7.89398291,14.2251849 7.93287022,14.4343356 C7.95967093,14.5783238 8.18301023,15.6456228 8.31228427,16.0292409 C8.41107906,16.3124877 8.59973508,16.5815459 8.6512345,16.8710987 C8.75580984,17.4502043 9.00647535,17.9531119 9.4599855,18.3882294 C9.53618361,18.4618 9.59136156,18.5831915 9.58295349,18.6772567 C9.54827021,19.1228843 9.49466878,19.5685119 9.42530222,20.0099354 C9.4105881,20.0982201 9.30601276,20.2253922 9.21983007,20.2416828 C8.8750993,20.3031668 8.82149787,20.5312356 8.73951921,20.760881 C8.63073983,21.0646224 8.51355239,21.3688894 8.3779723,21.6621207 C8.33488095,21.7546095 8.22820359,21.8513022 8.12362825,21.8901896 C7.50983932,22.1198349 6.8860658,22.3295111 6.27017485,22.5533759 C5.61329456,22.7914293 3.87440108,23.8566264 3.2301329,24.1540618 C2.85019334,24.3306312 3.06144604,25.7389825 3.06144604,25.7389825 L22.1256884,25.7389825 C22.1256884,25.7389825 22.392119,24.2775553 22.014807,24.1088684 Z" id="Fill-1" fill="#FFFFFF" mask="url(#mask-22)"></path>
                    <circle id="Oval-2" stroke="#818390" stroke-width="2" mask="url(#mask-22)" cx="13" cy="13" r="12"></circle>
                </g>
                <g id="$-copy-9" transform="translate(1091.000000, 54.000000)">
                    <mask id="mask-24" fill="white">
                        <use xlink:href="#path-23"></use>
                    </mask>
                    <use id="Mask" fill="#C0C1C7" xlink:href="#path-23"></use>
                    <path d="M8.28426265,13.1087996 C7.29829157,13.0645157 6.34835195,12.8475283 5.43441529,12.4578307 L5.43441529,10.2525075 C5.95666481,10.513782 6.52392734,10.7318766 7.13621988,10.9067976 C7.74851242,11.0817187 8.2865114,11.169178 8.75023295,11.169178 C9.13291579,11.169178 9.41317049,11.1237877 9.59100546,11.0330059 C9.76884042,10.9422241 9.85775657,10.7905543 9.85775657,10.5779919 C9.85775657,10.4318553 9.79360188,10.3078625 9.66529058,10.2060097 C9.53697927,10.1041569 9.32313031,9.98902072 9.02373726,9.86059765 C8.72434422,9.73217457 8.32028222,9.57718353 7.81153916,9.39561987 C7.23976597,9.18748592 6.77830242,8.95389227 6.42713463,8.69483193 C6.07596685,8.43577159 5.82047361,8.14571692 5.66064725,7.82465923 C5.50082089,7.50360154 5.42090891,7.10394607 5.42090891,6.62568082 C5.42090891,5.8949978 5.65951933,5.3237451 6.13674734,4.91190558 C6.61397535,4.50006606 7.32980663,4.24543792 8.28426265,4.14801352 L8.28426265,3.23798558 L9.68217356,3.23798558 L9.68217356,4.13472844 C10.5781016,4.18344064 11.4807694,4.4004281 12.3902039,4.78569733 L11.5865739,6.67882114 C10.6456244,6.26255324 9.79698162,6.05442241 9.04062025,6.05442241 C8.68044816,6.05442241 8.42720596,6.09759848 8.28088606,6.18395193 C8.13456615,6.27030538 8.06140729,6.39761945 8.06140729,6.56589796 C8.06140729,6.71203457 8.11430677,6.83270616 8.22010732,6.92791638 C8.32590787,7.02312659 8.50936777,7.12940616 8.77049253,7.24675828 C9.03161729,7.3641104 9.39403502,7.5002811 9.85775657,7.65527447 C10.7987061,7.98297473 11.4740187,8.35606031 11.8837144,8.77454241 C12.2934102,9.1930245 12.498255,9.73217191 12.498255,10.3920008 C12.498255,11.135969 12.258519,11.7404341 11.7790399,12.2054142 C11.2995608,12.6703943 10.6006124,12.9582348 9.68217356,13.0689443 L9.68217356,14.3509545 L8.28426265,14.3509545 L8.28426265,13.1087996 Z" id="$-copy-8" fill="#FFFFFF" mask="url(#mask-24)"></path>
                </g>
                <g id="Fill-1" transform="translate(0.000000, 68.000000)">
                    <mask id="mask-26" fill="white">
                        <use xlink:href="#path-25"></use>
                    </mask>
                    <use id="Mask" fill="#C0C1C7" xlink:href="#path-25"></use>
                    <path d="M15.1868253,16.6314051 C13.8868395,16.0593534 13.137517,15.5837311 11.7740907,15.1349351 C11.673311,15.1023086 11.5515053,15.0370555 11.5105408,14.9576643 C11.3999732,14.7481295 11.3223945,14.5244565 11.2430033,14.3022337 C11.1933385,14.1604895 11.1494739,14.0274458 10.9682155,13.9592926 C10.9200007,13.9411668 10.8746861,13.8603255 10.8761362,13.8077605 C10.8859241,13.2937115 10.7032156,12.9199565 10.9287011,12.717672 C11.3390703,12.3493548 11.2459035,11.8962086 11.4510881,11.6725356 C11.6562727,11.4474126 12.164884,9.85850076 12.0684544,9.65440371 C11.9709374,9.45066918 11.6265463,9.54564862 11.7073875,9.44631897 C12.0231398,9.05697576 12.1210194,8.26958892 12.1039811,7.62394622 C12.1605337,7.74140171 12.1917102,7.86900768 12.1917102,8.00748916 L12.1917102,8.1408954 L14.2025918,6.83365924 L8.69813427,3.25525433 L3.19403926,6.83220918 L3.69250008,7.15666186 L3.69250008,7.88024571 C3.59607057,7.90417183 3.5239297,7.98646318 3.5239297,8.08978051 C3.5239297,8.16917172 3.56924432,8.2369624 3.63413485,8.27538919 L3.19403926,10.7832815 L4.29572831,10.7832815 L3.8552702,8.27538919 C3.92052325,8.2369624 3.9643878,8.16917172 3.9643878,8.08978051 C3.9643878,7.98646318 3.89188441,7.90417183 3.79726749,7.88024571 L3.79726749,7.22445253 L5.20600839,8.1408954 L5.20600839,8.05280378 C5.21615887,8.18330989 5.23573478,8.31780368 5.26691124,8.45809774 C5.37602885,8.93517006 5.58556365,8.90544367 5.7555841,9.44631897 C5.75848424,9.45356931 5.7555841,9.46480734 5.7555841,9.4745953 L5.7555841,9.50287162 C5.74289601,9.56522454 5.69323119,9.63482779 5.65226677,9.64606582 C5.44961979,9.7011684 5.4456321,9.81318614 5.47245836,9.95746789 C5.49094672,10.0567975 5.64501643,10.7930695 5.7341956,11.0577069 C5.80234879,11.2531035 5.93249238,11.4387122 5.96801904,11.638459 C6.04015992,12.0379527 6.21308051,12.3848815 6.52593264,12.6850455 C6.5784976,12.7357979 6.61656188,12.8195393 6.61076161,12.8844298 C6.58683549,13.1918442 6.54985876,13.4992586 6.50200652,13.8037728 C6.49185605,13.8646757 6.41971517,13.9524048 6.36026239,13.9636428 C6.12245127,14.0060573 6.08547454,14.1633897 6.02892189,14.3218096 C5.95388088,14.5313444 5.8730396,14.7412417 5.77951022,14.9435262 C5.74978383,15.0073291 5.67619289,15.0740323 5.60405201,15.1008585 C5.1806322,15.2592784 4.75032457,15.4039227 4.3254547,15.5583549 C3.8723085,15.7225751 2.67273988,16.457397 2.22829408,16.6625816 C1.96619432,16.7843873 2.11192614,17.7559327 2.11192614,17.7559327 L15.2633164,17.7559327 C15.2633164,17.7559327 15.4471125,16.7477731 15.1868253,16.6314051 Z" fill="#FFFFFF" mask="url(#mask-26)"></path>
                    <circle id="Oval-2-Copy" stroke="#C0C1C7" mask="url(#mask-26)" cx="9" cy="9" r="8.5"></circle>
                </g>
                <circle id="Oval-2" stroke="#2D2F45" stroke-width="4" cx="264" cy="46" r="28"></circle>
            </g>
        </g>
    </g>
</svg>