<?xml version="1.0" encoding="UTF-8"?>
<svg width="20px" height="18px" viewBox="0 0 20 18" version="1.1" xmlns="http://www.w3.org/2000/svg" xmlns:xlink="http://www.w3.org/1999/xlink">
    <!-- Generator: Sketch 49.1 (51147) - http://www.bohemiancoding.com/sketch -->
    <title>money [#1183]</title>
    <desc>Created with Sketch.</desc>
    <defs></defs>
    <g id="Desktop-1399---1024-px" stroke="none" stroke-width="1" fill="none" fill-rule="evenodd">
        <g id="Desktop_EDU-Main" transform="translate(-249.000000, -849.000000)" fill="#FCB528">
            <path d="M253,853 L251,853 L251,849 L267,849 L267,853 L265,853 L265,851 L253,851 L253,853 Z M261,861 C261,862.105 260.105,863 259,863 C257.895,863 257,862.105 257,861 C257,859.895 257.895,859 259,859 C260.105,859 261,859.895 261,861 L261,861 Z M267,858.657 L265.343,857 L267,857 L267,858.657 Z M267,865 L265.343,865 L267,863.343 L267,865 Z M255.485,865 L251.485,861 L255.485,857 L262.515,857 L266.515,861 L262.515,865 L255.485,865 Z M251,865 L251,863.343 L252.657,865 L251,865 Z M251,857 L252.657,857 L251,858.657 L251,857 Z M249,867 L269,867 L269,855 L249,855 L249,867 Z" id="money-[#1183]"></path>
        </g>
    </g>
</svg>