<?xml version="1.0" encoding="UTF-8"?>
<svg width="101px" height="99px" viewBox="0 0 101 99" version="1.1" xmlns="http://www.w3.org/2000/svg" xmlns:xlink="http://www.w3.org/1999/xlink">
    <!-- Generator: Sketch 49.1 (51147) - http://www.bohemiancoding.com/sketch -->
    <title>Page 1</title>
    <desc>Created with Sketch.</desc>
    <defs>
        <polygon id="path-1" points="14.4372373 0.628284616 14.4372373 40.0324655 0.118056829 40.0324655 0.118056829 0.628284616 14.4372373 0.628284616"></polygon>
    </defs>
    <g id="HD-Desktop-1920---1440-px" stroke="none" stroke-width="1" fill="none" fill-rule="evenodd" opacity="0.05">
        <g id="HD-Desktop_EDU-Main" transform="translate(-1370.000000, -4648.000000)">
            <g id="Page-1" transform="translate(1370.000000, 4648.000000)">
                <path d="M18.1013688,78.478222 L17.3060839,78.478222 C11.9535694,78.478222 11.155121,75.3754395 11.155121,73.5261533 C11.155121,72.6536339 11.8630954,71.9466468 12.7368333,71.9466468 C13.6099385,71.9466468 14.3185456,72.6536339 14.3185456,73.5261533 C14.3185456,74.3253836 14.3185456,75.319209 17.3060839,75.319209 L18.1013688,75.319209 C19.8627636,75.319209 21.2964277,73.8881762 21.2964277,72.1292377 L21.2964277,38.679713 C21.2964277,36.9201428 19.8627636,35.4884781 18.1013688,35.4884781 L17.3060839,35.4884781 C15.5440563,35.4884781 14.1097596,36.9201428 14.1097596,38.679713 L14.1097596,49.4866964 C14.1097596,50.3592157 13.4017852,51.0662028 12.5280473,51.0662028 C11.6549421,51.0662028 10.946335,50.3592157 10.946335,49.4866964 L10.946335,38.679713 C10.946335,35.178263 13.7991113,32.3294651 17.3060839,32.3294651 L18.1013688,32.3294651 C21.607076,32.3294651 24.4598523,35.178263 24.4598523,38.679713 L24.4598523,72.1292377 C24.4598523,75.6300559 21.607076,78.478222 18.1013688,78.478222" id="Fill-1" fill="#FEFEFE"></path>
                <g id="Group-5" transform="translate(0.000000, 35.073889)" fill="#FEFEFE">
                    <path d="M12.7371497,40.0324655 C12.5751823,40.0324655 12.4113169,40.0071934 12.2493496,39.9553856 C5.03041458,37.6234022 -6.32684926e-05,27.1847598 -6.32684926e-05,19.2752231 C-6.32684926e-05,11.0801116 5.38092203,2.92354014 12.2493496,0.704649433 C13.0806976,0.438028739 13.9721506,0.891663001 14.2416744,1.72121981 C14.5105655,2.55204022 14.0543997,3.44225007 13.2236844,3.71076618 C7.67630294,5.50192653 3.16336136,12.483977 3.16336136,19.2752231 C3.16336136,25.9457949 7.55735817,35.1195685 13.2236844,36.9492689 C14.0543997,37.217785 14.5105655,38.1086266 14.2416744,38.9388152 C14.0246635,39.6066306 13.4046323,40.0324655 12.7371497,40.0324655" id="Fill-3"></path>
                </g>
                <path d="M83.178328,78.478222 L82.3824104,78.478222 C78.8760705,78.478222 76.0232942,75.6300559 76.0232942,72.1292377 L76.0232942,38.679713 C76.0232942,35.178263 78.8760705,32.3294651 82.3824104,32.3294651 L83.178328,32.3294651 C86.6840352,32.3294651 89.5361788,35.178263 89.5361788,38.679713 L89.5361788,50.1090219 C89.5361788,50.9815413 88.8282044,51.6885284 87.9544665,51.6885284 C87.0807286,51.6885284 86.3727542,50.9815413 86.3727542,50.1090219 L86.3727542,38.679713 C86.3727542,36.9201428 84.9397229,35.4884781 83.178328,35.4884781 L82.3824104,35.4884781 C80.6203829,35.4884781 79.1867188,36.9201428 79.1867188,38.679713 L79.1867188,72.1292377 C79.1867188,73.8881762 80.6203829,75.319209 82.3824104,75.319209 L83.178328,75.319209 C86.1639682,75.319209 86.1639682,74.3253836 86.1639682,73.5261533 C86.1639682,72.6536339 86.8719426,71.9466468 87.7456805,71.9466468 C88.6194184,71.9466468 89.3273928,72.6536339 89.3273928,73.5261533 C89.3273928,75.7848475 88.2600533,78.478222 83.178328,78.478222" id="Fill-6" fill="#FEFEFE"></path>
                <g id="Group-10" transform="translate(86.045150, 35.073889)">
                    <mask id="mask-2" fill="white">
                        <use xlink:href="#path-1"></use>
                    </mask>
                    <g id="Clip-9"></g>
                    <path d="M1.69977132,40.0324655 C1.03228873,40.0324655 0.411624813,39.6066306 0.195246568,38.9388152 C-0.0736445254,38.1079948 0.382521306,37.217785 1.21323661,36.9492689 C6.87956281,35.1202004 11.2741923,25.9464267 11.2741923,19.2752231 C11.2741923,12.4833452 6.76125073,5.50192653 1.21323661,3.71076618 C0.382521306,3.44225007 -0.0736445254,2.55204022 0.195246568,1.72121981 C0.463504977,0.891663001 1.35305998,0.438028739 2.1875714,0.704649433 C9.05663164,2.92290834 14.4376169,11.0794798 14.4376169,19.2752231 C14.4376169,27.1853916 9.40650641,37.624034 2.1875714,39.9553856 C2.02560406,40.0071934 1.86110598,40.0324655 1.69977132,40.0324655" id="Fill-8" fill="#FEFEFE" mask="url(#mask-2)"></path>
                </g>
                <path d="M83.183263,35.4884781 C82.3095251,35.4884781 81.6015506,34.781491 81.6015506,33.9089716 C81.6015506,27.1657425 79.4573814,20.7655822 75.4012384,15.4009464 C69.5210647,7.62092925 60.5571846,3.15913933 50.8081426,3.15913933 C33.8287772,3.15913933 20.0147346,16.9532854 20.0147346,33.9089716 C20.0147346,34.781491 19.3067601,35.4884781 18.4330222,35.4884781 C17.5592844,35.4884781 16.8513099,34.781491 16.8513099,33.9089716 C16.8513099,15.2114056 32.0838322,0.000126360519 50.8081426,0.000126360519 C61.5587249,0.000126360519 71.4425288,4.91934136 77.9256512,13.4973252 C82.399999,19.4147883 84.7649753,26.4726551 84.7649753,33.9089716 C84.7649753,34.781491 84.0570008,35.4884781 83.183263,35.4884781" id="Fill-11" fill="#FEFEFE"></path>
                <path d="M32.5616991,19.3244405 C29.5172193,19.3244405 24.2146869,17.162412 23.6193304,16.9153772 C22.8132898,16.5811536 22.4305154,15.6574583 22.7658384,14.8519099 C23.0992634,14.0463616 24.0236161,13.6634893 24.8321874,13.9977128 C26.2879954,14.6004525 30.5143307,16.1654275 32.5616991,16.1654275 C33.2152627,16.1654275 35.2480793,15.0218648 36.8823045,14.1032239 C40.6075533,12.0081665 45.7095246,9.13915089 50.8083324,9.13915089 C55.3497448,9.13915089 59.154712,11.0073912 62.5123709,12.6557641 C64.9285946,13.8422894 67.0012704,14.8588598 68.648782,14.8007339 C72.945978,14.6250928 76.678819,13.5952546 76.7167801,13.5845139 C77.556353,13.3450608 78.4300909,13.8391304 78.6654497,14.6794278 C78.9014412,15.5197253 78.4111104,16.3903493 77.5709048,16.6260116 C77.4051413,16.672765 73.4603508,17.7651517 68.7778497,17.9572197 C66.3401147,18.0564127 63.8030481,16.810498 61.1166679,15.4912942 C58.0683919,13.993922 54.6132996,12.2981639 50.8083324,12.2981639 C46.5389745,12.2981639 41.8545753,14.9327807 38.4342806,16.8559878 C35.8858257,18.2889161 34.0447126,19.3244405 32.5616991,19.3244405" id="Fill-13" fill="#FEFEFE"></path>
                <path d="M49.529866,85.6810243 C46.1203269,85.6810243 43.3472689,87.9340324 43.3472689,90.7044867 C43.3472689,93.4736775 46.1203269,95.7266856 49.529866,95.7266856 C52.9406704,95.7266856 55.7143611,93.4736775 55.7143611,90.7044867 C55.7143611,87.9340324 52.9406704,85.6810243 49.529866,85.6810243 M49.529866,98.8856985 C44.3760146,98.8856985 40.1838443,95.2161891 40.1838443,90.7044867 C40.1838443,86.1927844 44.3760146,82.5220113 49.529866,82.5220113 C54.6843501,82.5220113 58.8777858,86.1927844 58.8777858,90.7044867 C58.8777858,95.2161891 54.6843501,98.8856985 49.529866,98.8856985" id="Fill-15" fill="#FEFEFE"></path>
                <path d="M70.6395251,94.7125792 C66.5118886,94.7125792 61.8819003,93.9607341 56.7792964,92.1973731 C55.9536426,91.9117983 55.5158246,91.0127432 55.8017982,90.1882408 C56.0871391,89.3637384 56.9899805,88.9277947 57.8137363,89.2121058 C77.3909059,95.9755526 86.3029058,86.6292968 88.5685505,83.604226 C91.5794981,79.5815389 92.3140453,74.8575509 90.3539874,72.1161594 C89.8465741,71.4066451 90.0117048,70.4204013 90.7228427,69.9130638 C91.4320825,69.4069899 92.4216017,69.5706268 92.929015,70.2814047 C95.7229517,74.1897355 94.9884045,80.3030574 91.101821,85.4952112 C87.3512647,90.5054057 80.3993228,94.7125792 70.6395251,94.7125792" id="Fill-17" fill="#FEFEFE"></path>
            </g>
        </g>
    </g>
</svg>