<?xml version="1.0" encoding="UTF-8"?>
<svg width="98px" height="81px" viewBox="0 0 98 81" version="1.1" xmlns="http://www.w3.org/2000/svg" xmlns:xlink="http://www.w3.org/1999/xlink">
    <!-- Generator: Sketch 49.1 (51147) - http://www.bohemiancoding.com/sketch -->
    <title>Group 5</title>
    <desc>Created with Sketch.</desc>
    <defs>
        <polygon id="path-1" points="0.000116666667 0.420986842 97.86 0.420986842 97.86 80.467052 0.000116666667 80.467052"></polygon>
        <polygon id="path-3" points="7.61022802e-17 3.23792171 7.61022802e-17 0.447684868 89.8712143 0.447684868 89.8712143 3.23792171"></polygon>
    </defs>
    <g id="Desktop-1399---1024-px" stroke="none" stroke-width="1" fill="none" fill-rule="evenodd">
        <g id="Desktop_EDU-Main" transform="translate(-247.000000, -2738.000000)">
            <g id="Group-5" transform="translate(247.000000, 2738.000000)">
                <g id="Group-3">
                    <mask id="mask-2" fill="white">
                        <use xlink:href="#path-1"></use>
                    </mask>
                    <g id="Clip-2"></g>
                    <path d="M90.6547833,80.467052 L7.2037,80.467052 C3.23236667,80.467052 0.000116666667,77.5148151 0.000116666667,73.885802 L0.000116666667,7.00165066 C0.000116666667,3.37317039 3.23236667,0.420933553 7.2037,0.420933553 L90.6547833,0.420933553 C94.6278667,0.420933553 97.8601167,3.37317039 97.8601167,7.00165066 L97.8601167,21.0269072 C97.8601167,21.797473 97.17645,22.4220257 96.3317833,22.4220257 C95.4888667,22.4220257 94.8052,21.797473 94.8052,21.0269072 L94.8052,7.00165066 C94.8052,4.9116375 92.9437833,3.2106375 90.6547833,3.2106375 L7.2037,3.2106375 C4.91645,3.2106375 3.05445,4.9116375 3.05445,7.00165066 L3.05445,73.885802 C3.05445,75.976348 4.91645,77.677348 7.2037,77.677348 L90.6547833,77.677348 C92.9437833,77.677348 94.8052,75.976348 94.8052,73.885802 L94.8052,25.8602625 C94.8052,25.0896967 95.4888667,24.4651441 96.3317833,24.4651441 C97.17645,24.4651441 97.8601167,25.0896967 97.8601167,25.8602625 L97.8601167,73.885802 C97.8601167,77.5148151 94.6278667,80.467052 90.6547833,80.467052" id="Fill-1" fill="#808184" mask="url(#mask-2)"></path>
                </g>
                <g id="Group-6" transform="translate(0.000000, 19.000000)">
                    <mask id="mask-4" fill="white">
                        <use xlink:href="#path-3"></use>
                    </mask>
                    <g id="Clip-5"></g>
                    <path d="M88.4681786,3.23792171 L1.40335714,3.23792171 C0.627642857,3.23792171 -0.000214285714,2.61336908 -0.000214285714,1.84280329 C-0.000214285714,1.07277039 0.627642857,0.447684868 1.40335714,0.447684868 L88.4681786,0.447684868 C89.2433571,0.447684868 89.8712143,1.07277039 89.8712143,1.84280329 C89.8712143,2.61336908 89.2433571,3.23792171 88.4681786,3.23792171" id="Fill-4" fill="#808184" mask="url(#mask-4)"></path>
                </g>
                <path d="M16.4889107,12.0255158 C16.4889107,9.38295976 14.3349474,7.24012105 11.6781964,7.24012105 C9.02187458,7.24012105 6.86801786,9.38306579 6.86801786,12.0255158 C6.86801786,14.6679114 9.02181991,16.8103776 11.6781964,16.8103776 C14.3350021,16.8103776 16.4889107,14.6680174 16.4889107,12.0255158 L14.3460536,12.0255158 C14.3460536,13.4907316 13.1515822,14.6787987 11.6781964,14.6787987 C10.2052872,14.6787987 9.010875,13.4906728 9.010875,12.0255158 C9.010875,10.5602099 10.2054369,9.3717 11.6781964,9.3717 C13.1514326,9.3717 14.3460536,10.5601511 14.3460536,12.0255158 L16.4889107,12.0255158 Z" id="Fill-7" fill="#FFB200" fill-rule="nonzero"></path>
                <path d="M28.8898393,12.0255158 C28.8898393,9.38295976 26.735876,7.24012105 24.079125,7.24012105 C21.4228032,7.24012105 19.2689464,9.38306579 19.2689464,12.0255158 C19.2689464,14.6679114 21.4227485,16.8103776 24.079125,16.8103776 C26.7359307,16.8103776 28.8898393,14.6680174 28.8898393,12.0255158 L26.7469821,12.0255158 C26.7469821,13.4907316 25.5525108,14.6787987 24.079125,14.6787987 C22.6062158,14.6787987 21.4118036,13.4906728 21.4118036,12.0255158 C21.4118036,10.5602099 22.6063654,9.3717 24.079125,9.3717 C25.5523612,9.3717 26.7469821,10.5601511 26.7469821,12.0255158 L28.8898393,12.0255158 Z" id="Fill-9" fill="#FFB200" fill-rule="nonzero"></path>
                <path d="M41.6643214,12.0255158 C41.6643214,9.38306579 39.5104647,7.24012105 36.8541429,7.24012105 C34.1973919,7.24012105 32.0434286,9.38295976 32.0434286,12.0255158 C32.0434286,14.6680174 34.1973372,16.8103776 36.8541429,16.8103776 C39.5105194,16.8103776 41.6643214,14.6679114 41.6643214,12.0255158 L39.5214643,12.0255158 C39.5214643,13.4906728 38.3270521,14.6787987 36.8541429,14.6787987 C35.3807571,14.6787987 34.1862857,13.4907316 34.1862857,12.0255158 C34.1862857,10.5601511 35.3809067,9.3717 36.8541429,9.3717 C38.3269024,9.3717 39.5214643,10.5602099 39.5214643,12.0255158 L41.6643214,12.0255158 Z" id="Fill-11" fill="#FFB200" fill-rule="nonzero"></path>
                <g id="Page-1" transform="translate(28.000000, 25.000000)" fill="#FFB200">
                    <path d="M36.8609738,21.8332132 C35.5646881,21.8332132 34.5095214,22.8862452 34.5095214,24.1809769 C34.5095214,25.5773956 35.6943786,27.5205749 36.8609738,27.5205749 C38.027569,27.5205749 39.2121167,25.5773956 39.2121167,24.1809769 C39.2121167,22.8862452 38.1572595,21.8332132 36.8609738,21.8332132 M36.8609738,29.1389123 C34.6608786,29.1389123 32.8891643,26.4261264 32.8891643,24.1809769 C32.8891643,21.9942433 34.6710929,20.215494 36.8609738,20.215494 C39.0508548,20.215494 40.8321643,21.9942433 40.8321643,24.1809769 C40.8321643,26.4261264 39.0607595,29.1389123 36.8609738,29.1389123" id="Fill-1"></path>
                    <path d="M40.3352548,38.7320428 L39.0234929,38.7320428 C38.5759214,38.7320428 38.2131595,38.3701114 38.2131595,37.9231832 C38.2131595,37.4762551 38.5759214,37.1140146 39.0234929,37.1140146 L39.58435,37.1140146 L39.9663024,32.0800457 C39.4670405,31.846073 38.4415881,31.4863051 36.86085,31.4863051 C35.2828976,31.4863051 34.2580643,31.8451457 33.7560167,32.0803548 L34.13735,37.1140146 L34.6982071,37.1140146 C35.145469,37.1140146 35.508231,37.4762551 35.508231,37.9231832 C35.508231,38.3701114 35.145469,38.7320428 34.6982071,38.7320428 L33.3861357,38.7320428 C32.9623976,38.7320428 32.60985,38.4059646 32.577969,37.9840718 L32.1013024,31.6909153 C32.0808738,31.4164532 32.2012786,31.1500272 32.42135,30.9843609 C32.5723976,30.8700017 33.9835167,29.8679677 36.86085,29.8679677 C39.7384929,29.8679677 41.1499214,30.8700017 41.300969,30.9843609 C41.5210405,31.1500272 41.6414452,31.4167623 41.6207071,31.6909153 L41.1434214,37.9840718 C41.1115405,38.4059646 40.7593024,38.7320428 40.3352548,38.7320428" id="Fill-3"></path>
                    <path d="M38.2281405,46.0580175 L35.4931881,46.0580175 C35.0796643,46.0580175 34.7323786,45.746775 34.6878071,45.3363182 L33.8926405,38.0102199 C33.8446643,37.5657643 34.1662595,37.1667434 34.6104262,37.1188362 C35.0579976,37.0690745 35.4551167,37.3917529 35.5037119,37.8358993 L36.220569,44.4399892 L37.5007595,44.4399892 L38.2179262,37.8358993 C38.2655929,37.3917529 38.6614738,37.0690745 39.1109024,37.1188362 C39.5553786,37.1667434 39.8769738,37.5657643 39.8286881,38.0102199 L39.033831,45.3363182 C38.98895,45.746775 38.6419738,46.0580175 38.2281405,46.0580175" id="Fill-5"></path>
                    <path d="M4.76193095,21.8332132 C3.46564524,21.8332132 2.41109762,22.8862452 2.41109762,24.1809769 C2.41109762,25.5773956 3.59564524,27.5205749 4.76193095,27.5205749 C5.92852619,27.5205749 7.11338333,25.5773956 7.11338333,24.1809769 C7.11338333,22.8862452 6.05852619,21.8332132 4.76193095,21.8332132 M4.76193095,29.1389123 C2.56214524,29.1389123 0.790740476,26.4261264 0.790740476,24.1809769 C0.790740476,21.9942433 2.57205,20.215494 4.76193095,20.215494 C6.9518119,20.215494 8.73374048,21.9942433 8.73374048,24.1809769 C8.73374048,26.4261264 6.96202619,29.1389123 4.76193095,29.1389123" id="Fill-7"></path>
                    <path d="M8.23698571,38.7320428 L6.92491429,38.7320428 C6.47703333,38.7320428 6.11458095,38.3701114 6.11458095,37.9231832 C6.11458095,37.4762551 6.47703333,37.1140146 6.92491429,37.1140146 L7.48577143,37.1140146 L7.86772381,32.0800457 C7.36815238,31.846073 6.3427,31.4863051 4.7619619,31.4863051 C3.1837,31.4863051 2.15948571,31.8451457 1.65681905,32.0803548 L2.0384619,37.1140146 L2.5999381,37.1140146 C3.0472,37.1140146 3.4099619,37.4762551 3.4099619,37.9231832 C3.4099619,38.3701114 3.0472,38.7320428 2.5999381,38.7320428 L1.2869381,38.7320428 C0.8632,38.7320428 0.510961905,38.4059646 0.478771429,37.9840718 L0.00241428571,31.6909153 C-0.0183238095,31.4164532 0.102080952,31.1500272 0.321842857,30.9843609 C0.473509524,30.8700017 1.88524762,29.8679677 4.7619619,29.8679677 C7.63929524,29.8679677 9.05103333,30.8700017 9.20239048,30.9843609 C9.4224619,31.1500272 9.54255714,31.4164532 9.52212857,31.6909153 L9.04484286,37.9840718 C9.0129619,38.4059646 8.66072381,38.7320428 8.23698571,38.7320428" id="Fill-9"></path>
                    <path d="M6.12909762,46.0580175 L3.39476429,46.0580175 C2.98093095,46.0580175 2.63395476,45.746775 2.58907381,45.3363182 L1.79421667,38.0102199 C1.74593095,37.5657643 2.06752619,37.1667434 2.5123119,37.1188362 C2.95771667,37.0690745 3.35700238,37.3917529 3.40497857,37.8358993 L4.12183571,44.4399892 L5.40202619,44.4399892 L6.11919286,37.8358993 C6.16747857,37.3914438 6.56150238,37.0690745 7.01216905,37.1188362 C7.45695476,37.1667434 7.77885952,37.5657643 7.73026429,38.0102199 L6.93447857,45.3363182 C6.88990714,45.746775 6.54262143,46.0580175 6.12909762,46.0580175" id="Fill-11"></path>
                    <path d="M20.811669,1.61812101 C19.5150738,1.61812101 18.4605262,2.67146207 18.4605262,3.96619378 C18.4605262,5.36292154 19.6450738,7.30610088 20.811669,7.30610088 C21.9779548,7.30610088 23.1621929,5.36292154 23.1621929,3.96619378 C23.1621929,2.67146207 22.1076452,1.61812101 20.811669,1.61812101 M20.811669,8.92412917 C18.6115738,8.92412917 16.840169,6.21165233 16.840169,3.96619378 C16.840169,1.77915114 18.6214786,9.27236842e-05 20.811669,9.27236842e-05 C23.0012405,9.27236842e-05 24.7828595,1.77915114 24.7828595,3.96619378 C24.7828595,6.21165233 23.0111452,8.92412917 20.811669,8.92412917" id="Fill-13"></path>
                    <path d="M24.285981,18.5175379 L22.9745286,18.5175379 C22.5266476,18.5175379 22.1645048,18.1552974 22.1645048,17.7086783 C22.1645048,17.2617501 22.5266476,16.8995096 22.9745286,16.8995096 L23.5347667,16.8995096 L23.916719,11.8655408 C23.4174571,11.6318771 22.3923143,11.2718001 20.8115762,11.2718001 C19.2336238,11.2718001 18.2091,11.6309499 17.7064333,11.8661589 L18.0877667,16.8995096 L18.6486238,16.8995096 C19.0961952,16.8995096 19.4586476,17.2617501 19.4586476,17.7086783 C19.4586476,18.1552974 19.0961952,18.5175379 18.6486238,18.5175379 L17.3365524,18.5175379 C16.9128143,18.5175379 16.5605762,18.1911505 16.5286952,17.7695668 L16.051719,11.4767195 C16.0312905,11.2019483 16.1516952,10.9361404 16.3717667,10.770165 C16.5231238,10.6558058 17.9345524,9.65346276 20.8115762,9.65346276 C23.6889095,9.65346276 25.1003381,10.6558058 25.2520048,10.7704741 C25.4714571,10.9364495 25.5915524,11.2025664 25.5708143,11.4767195 L25.0935286,17.7695668 C25.0619571,18.1911505 24.7094095,18.5175379 24.285981,18.5175379" id="Fill-15"></path>
                    <path d="M22.1788357,25.8433889 L19.4441929,25.8433889 C19.030669,25.8433889 18.6833833,25.5321464 18.6388119,25.1216896 L17.8430262,17.7955913 C17.7947405,17.3514448 18.1163357,16.9521148 18.5611214,16.9042076 C19.0080738,16.8572276 19.4058119,17.1768152 19.4540976,17.6212708 L20.1712643,24.2253606 L21.4514548,24.2253606 L22.168931,17.6212708 C22.2169071,17.1768152 22.61155,16.8544459 23.0615976,16.9042076 C23.5066929,16.9521148 23.8282881,17.3514448 23.7796929,17.7955913 L22.9842167,25.1216896 C22.9396452,25.5321464 22.59205,25.8433889 22.1788357,25.8433889" id="Fill-17"></path>
                    <path d="M20.811669,44.8366611 C17.3428357,44.8366611 14.0262881,43.7703388 11.2207643,41.7526714 C10.8576929,41.4918088 10.77505,40.9858465 11.0365976,40.623606 C11.2981452,40.2610564 11.8045262,40.1788414 12.1675976,40.439704 C14.6957881,42.2573973 17.68455,43.2186328 20.811669,43.2186328 C24.2260262,43.2186328 27.4342405,42.0911128 30.0887167,39.9587772 C30.4372405,39.6784426 30.9473357,39.7334586 31.2277643,40.0817906 C31.5085024,40.4301226 31.4530976,40.9394847 31.1045738,41.2195102 C28.2006214,43.5518199 24.5454548,44.8366611 20.811669,44.8366611" id="Fill-19"></path>
                    <path d="M8.61661667,19.4834096 C8.43895,19.4834096 8.26004524,19.4253028 8.11023571,19.3053801 C7.76140238,19.0259728 7.70537857,18.5166107 7.9851881,18.1679696 C9.43840238,16.3586214 11.3159738,14.8874057 13.4142357,13.9131888 C13.8206405,13.7249597 14.30195,13.9008257 14.49045,14.3057191 C14.67895,14.7112307 14.502831,15.1918484 14.0973548,15.3803866 C12.2241167,16.2498257 10.5474262,17.5640293 9.24928333,19.1802032 C9.08895,19.3795591 8.85402143,19.4834096 8.61661667,19.4834096" id="Fill-21"></path>
                    <path d="M33.3489,19.9252998 C33.101281,19.9252998 32.8573762,19.812795 32.698281,19.5995306 C31.3317333,17.7682378 29.5349476,16.2565327 27.5013762,15.2266816 C27.1020905,15.0248531 26.9429952,14.5377446 27.1454238,14.1393419 C27.3469238,13.7409391 27.8344238,13.5817635 28.2343286,13.7832829 C30.4898286,14.9256387 32.4822333,16.602392 33.9976619,18.6330407 C34.2650905,18.9915723 34.1911143,19.4981527 33.8323762,19.7651969 C33.6869,19.8733745 33.5169714,19.9252998 33.3489,19.9252998" id="Fill-23"></path>
                </g>
            </g>
        </g>
    </g>
</svg>