<?xml version="1.0" encoding="UTF-8"?>
<svg width="107px" height="100px" viewBox="0 0 107 100" version="1.1" xmlns="http://www.w3.org/2000/svg" xmlns:xlink="http://www.w3.org/1999/xlink">
    <!-- Generator: Sketch 49.1 (51147) - http://www.bohemiancoding.com/sketch -->
    <title>Page 1</title>
    <desc>Created with Sketch.</desc>
    <defs></defs>
    <g id="HD-Desktop-1920---1440-px" stroke="none" stroke-width="1" fill="none" fill-rule="evenodd" opacity="0.05">
        <g id="HD-Desktop_EDU-Main" transform="translate(-907.000000, -4156.000000)" fill="#FEFEFE">
            <g id="Page-1" transform="translate(960.333333, 4206.000000) scale(-1, 1) translate(-960.333333, -4206.000000) translate(907.000000, 4156.000000)">
                <path d="M35.6586218,99.2383286 C33.0954212,99.2383286 30.6854484,98.2408555 28.8730001,96.4302946 L2.81080148,70.4038017 C0.997712073,68.5945212 0.000128224145,66.1885496 0.000128224145,63.6282833 C0.000128224145,61.068017 0.997712073,58.6614051 2.81080148,56.8521246 L42.610935,17.1087762 C47.995708,11.7302323 55.0364958,7.97594334 61.9272613,6.80816997 C70.5920079,5.33628895 78.568832,7.9509745 84.9909383,14.3654051 C89.8846128,19.2509745 92.5503927,24.947711 92.9151904,31.2955581 C92.965839,32.1784306 92.2900977,32.9345382 91.4066334,32.9857564 C90.5109877,33.0446572 89.7653643,32.3615354 89.7140747,31.4793031 C89.3960788,25.9394221 87.044448,20.9424533 82.7245765,16.6286062 C77.0686095,10.9798867 70.0592366,8.67571105 62.4638794,9.96384703 C56.2135934,11.0240623 49.8030273,14.4524759 44.8772967,19.3719773 L5.07716325,59.115966 C3.86993292,60.3208725 3.20573185,61.9233598 3.20573185,63.6282833 C3.20573185,65.3332068 3.86993292,66.9356941 5.07716325,68.1399603 L31.140003,94.1670935 C32.3472333,95.3732805 33.9519585,96.0371955 35.6586218,96.0371955 C37.3659263,96.0371955 38.9706515,95.3732805 40.1772407,94.1670935 L79.9773742,54.4231048 C84.0715712,50.3339773 87.2714047,44.9669575 88.7562403,39.6991728 C88.9953783,38.8483116 89.8769193,38.3482946 90.7334566,38.592221 C91.5855061,38.8316657 92.0817335,39.7158187 91.8419543,40.5666799 C90.188504,46.431796 86.7796651,52.1560623 82.243736,56.6863059 L42.4442436,96.4302946 C40.6324364,98.2408555 38.2224636,99.2383286 35.6586218,99.2383286" id="Fill-1"></path>
                <path d="M68.787766,22.5024295 C66.6368059,22.5024295 64.6134289,23.3398459 63.0914083,24.8591037 C61.5693877,26.3783615 60.7314429,28.3976363 60.7314429,30.5462368 C60.7314429,32.6954776 61.5693877,34.7160329 63.0914083,36.2352907 C64.6127878,37.7545484 66.6355237,38.5913246 68.7871248,38.5913246 C70.938726,38.5913246 72.962103,37.7545484 74.4834825,36.2352907 C76.004862,34.7160329 76.8428068,32.6961178 76.8428068,30.5462368 C76.8428068,28.3976363 76.004862,26.3783615 74.4834825,24.8597439 C72.962103,23.3398459 70.9393671,22.5024295 68.787766,22.5024295 M68.7871248,41.7924578 C65.7796275,41.7924578 62.9510029,40.6227637 60.8250466,38.4984918 C58.697808,36.3748601 57.5258393,33.5508204 57.5258393,30.5462368 C57.5258393,27.5422935 58.697808,24.7182538 60.8250466,22.5952623 C62.951644,20.4709904 65.7802686,19.3012963 68.787766,19.3012963 C71.7959044,19.3012963 74.6238879,20.4709904 76.7498443,22.5959025 C78.8770828,24.7182538 80.0484104,27.5422935 80.0484104,30.5462368 C80.0484104,33.5508204 78.8770828,36.3748601 76.7498443,38.4984918 C74.6232468,40.6227637 71.7952633,41.7924578 68.7871248,41.7924578" id="Fill-3"></path>
                <g id="Group-7" transform="translate(67.958797, 0.003201)">
                    <path d="M23.3539764,32.9835156 C22.8660836,32.9835156 22.385243,32.7619972 22.0704527,32.343289 C21.5396048,31.6358385 21.6832158,30.6326034 22.3910131,30.1024958 C23.7213386,29.1063031 25.0164025,27.9827054 26.2390197,26.7630737 C30.0735628,22.933238 32.8387164,18.5259178 34.0222253,14.3542011 C35.1140539,10.5077195 34.7133534,7.38789518 32.8938528,5.57157224 C31.0743522,3.75588952 27.9514532,3.35446742 24.0983176,4.4454136 C19.9214161,5.62727195 15.507941,8.38792918 11.6714746,12.2184051 C5.7885508,18.0931246 2.48613795,25.3673796 3.45487136,30.3195326 C3.62412724,31.1870397 3.05737651,32.0282975 2.18865793,32.1973173 C1.31673375,32.3637762 0.478147837,31.801017 0.308250845,30.9335099 C-0.873334652,24.8872096 2.69706667,16.653255 9.40511281,9.95520397 C18.492358,0.879351275 29.8049332,-2.04008215 35.1602146,3.30773088 C37.8375347,5.98067705 38.5286629,10.2144958 37.106016,15.2274703 C35.7763316,19.9158499 32.7213913,24.8167847 28.5047403,29.026915 C27.175056,30.3541048 25.7652315,31.5775779 24.3143753,32.6634023 C24.025871,32.8791586 23.6880003,32.9835156 23.3539764,32.9835156" id="Fill-5"></path>
                </g>
            </g>
        </g>
    </g>
</svg>