<?xml version="1.0" encoding="UTF-8"?>
<svg width="28px" height="30px" viewBox="0 0 28 30" version="1.1" xmlns="http://www.w3.org/2000/svg" xmlns:xlink="http://www.w3.org/1999/xlink">
    <!-- Generator: Sketch 49.1 (51147) - http://www.bohemiancoding.com/sketch -->
    <title>Page 1</title>
    <desc>Created with Sketch.</desc>
    <defs></defs>
    <g id="Desktop-1399---1024-px" stroke="none" stroke-width="1" fill="none" fill-rule="evenodd">
        <g id="Desktop_EDU-Main" transform="translate(-481.000000, -2285.000000)" fill="#FFB200">
            <g id="Page-1" transform="translate(481.000000, 2285.000000)">
                <g id="Group-3" transform="translate(0.000000, 0.079195)">
                    <path d="M1.49327986,26.5510187 C1.64212061,26.5510187 1.79096136,26.6072074 1.90487237,26.7204696 L3.21729625,28.023428 L4.52794028,26.7182575 C4.75509485,26.4923966 5.12374824,26.4912905 5.35157026,26.717815 L6.66443911,28.0212159 L7.97508314,26.7156029 C8.2022377,26.4892996 8.57066862,26.4888571 8.79871311,26.7149392 L10.111137,28.0181189 L11.4220035,26.7127271 C11.6489356,26.4864238 12.018034,26.4862026 12.245411,26.7122846 L13.5585023,28.0154643 L14.8693689,26.7100725 C15.0965234,26.4837692 15.4649543,26.483548 15.6927763,26.7096301 L17.0054227,28.0128097 L18.3160667,26.7074179 C18.5432213,26.481557 18.9120972,26.4811146 19.1396967,26.7067543 L20.4525656,28.0101551 L21.7632096,26.7047633 C21.9903642,26.4786812 22.35924,26.4780176 22.5868396,26.7040997 L23.8997084,28.0075005 L25.2103525,26.7018875 C25.3193689,26.5932708 25.4675422,26.5322154 25.621945,26.5322154 L25.6223899,26.5322154 C25.7322963,26.5322154 25.8390878,26.5634067 25.9307506,26.6202591 L25.9120621,2.57260181 C25.9113946,1.87090672 25.336945,1.29994989 24.6314532,1.29994989 L2.44505972,1.31698348 C1.7384555,1.31808955 1.16422834,1.88993124 1.1646733,2.59206876 L1.18358431,26.6392836 C1.27791686,26.5804403 1.38559836,26.5510187 1.49327986,26.5510187 Z M3.2179637,29.4217303 C3.06378337,29.4217303 2.91561007,29.3606748 2.80637119,29.2520581 L1.49372482,27.9488785 L1.01449766,28.42604 C0.848080796,28.5919515 0.597788056,28.6417249 0.379977752,28.5519115 C0.162167447,28.4625405 0.0202236534,28.2515011 0.020001171,28.017234 L-2.22482436e-05,2.59295362 C-0.000912177986,1.25216738 1.09525878,0.160027186 2.44394731,0.158921109 L24.6292283,0.141887527 C25.9788068,0.141887527 27.0756452,1.23181557 27.0767576,2.57193817 L27.0965585,27.9229963 C27.0998958,27.94733 27.1014532,27.9718849 27.1014532,27.9971034 C27.1014532,28.3167596 26.8407037,28.5758028 26.5189941,28.5758028 C26.3741581,28.5797846 26.2153056,28.5182868 26.102952,28.4067942 L25.6230574,27.9300752 L24.3124133,29.235467 C24.0852588,29.4613278 23.7163829,29.4619915 23.4890059,29.2361306 L22.176137,27.9327297 L20.8652705,29.2379003 C20.6378934,29.4639824 20.26924,29.4648673 20.041863,29.238564 L18.7287717,27.9353843 L17.4183501,29.2407761 C17.1909731,29.4673006 16.8223197,29.4675219 16.5944977,29.2414398 L15.2820738,27.9382601 L13.9714297,29.2434307 C13.7440527,29.4699552 13.3753993,29.4701764 13.1477998,29.2443156 L11.8347084,27.9409147 L10.5240644,29.2463065 C10.2966874,29.4726098 9.92803396,29.472831 9.70043443,29.2469701 L8.38778806,27.9435693 L7.07736651,29.2489611 C6.84976698,29.474822 6.48111358,29.4754856 6.25373653,29.2496247 L4.94086768,27.9462239 L3.63022365,29.2516157 C3.52098478,29.3600112 3.37281148,29.4215091 3.21840867,29.4217303 L3.2179637,29.4217303 Z" id="Fill-1"></path>
                </g>
                <path d="M4.36392623,8.06562233 C4.04266159,8.06562233 3.7816897,7.80635794 3.78146721,7.48692297 C3.78124473,7.16704558 4.04177166,6.90755997 4.36348126,6.90755997 L21.3395585,6.89428705 L21.3400035,6.89428705 C21.6617131,6.89428705 21.92224,7.15333022 21.9224625,7.47298641 C21.922685,7.79286381 21.6621581,8.0521282 21.3404485,8.05234941 L4.36437119,8.06562233 L4.36392623,8.06562233 Z" id="Fill-4"></path>
                <path d="M4.36784192,12.8831175 C4.0463548,12.8831175 3.78560539,12.6242956 3.7853829,12.3046394 C3.78516042,11.984762 4.04568735,11.7254976 4.36739696,11.7252764 L16.1700902,11.7159853 L16.1705351,11.7159853 C16.4920222,11.7159853 16.7525492,11.9748073 16.7527717,12.2942423 C16.7529941,12.6141197 16.4926897,12.8736053 16.1709801,12.8738265 L4.36828689,12.8831175 L4.36784192,12.8831175 Z" id="Fill-6"></path>
                <path d="M4.37164637,17.7811794 C4.05015925,17.7811794 3.78940984,17.5223574 3.78918735,17.2029224 C3.78896487,16.8828238 4.0494918,16.6235594 4.37120141,16.6233382 L16.1736721,16.6140472 L16.1741171,16.6140472 C16.4958267,16.6140472 16.7563536,16.8730904 16.7565761,17.1927465 C16.7567986,17.5124027 16.4964941,17.7716671 16.1747845,17.7721095 L4.37209133,17.7811794 L4.37164637,17.7811794 Z" id="Fill-8"></path>
                <path d="M4.37556206,22.6794624 C4.05407494,22.6794624 3.79332553,22.4204192 3.79310304,22.1009843 C3.79288056,21.7811069 4.05318501,21.5216213 4.3751171,21.5214001 L16.1775878,21.512109 L16.1780328,21.512109 C16.4995199,21.512109 16.7602693,21.7713734 16.7604918,22.0908084 C16.7607143,22.4104646 16.5001874,22.6699502 16.1784778,22.6703926 L4.37600703,22.6794624 L4.37556206,22.6794624 Z" id="Fill-10"></path>
                <path d="M20.0487377,12.8710171 C19.7272506,12.8710171 19.4665012,12.6119739 19.4662787,12.2923177 C19.4660562,11.9724403 19.7265831,11.7131759 20.0482927,11.7129547 L22.6391007,11.7107425 L22.6395457,11.7107425 C22.9610328,11.7107425 23.2215597,11.9700069 23.2217822,12.2894419 C23.2220047,12.6093193 22.9617002,12.8685837 22.6399906,12.8690261 L20.0491827,12.8710171 L20.0487377,12.8710171 Z" id="Fill-12"></path>
                <path d="M20.0524309,17.7690789 C19.7311663,17.7690789 19.4701944,17.5100357 19.4699719,17.1906007 C19.4697494,16.8705021 19.7302763,16.611459 20.0519859,16.6112377 L22.6427939,16.6090256 L22.6432389,16.6090256 C22.964726,16.6090256 23.2254754,16.8680688 23.2256979,17.1875037 C23.2259204,17.5073811 22.9653934,17.7668667 22.6436838,17.767088 L20.0528759,17.7690789 L20.0524309,17.7690789 Z" id="Fill-14"></path>
                <path d="M20.0563244,22.6673619 C19.7348372,22.6673619 19.4740878,22.4080975 19.4738653,22.0888838 C19.4736429,21.7687852 19.7341698,21.5095208 20.0558794,21.5092996 L22.6466874,21.5073086 L22.6471323,21.5073086 C22.9686194,21.5073086 23.2291464,21.7661306 23.2293689,22.0857868 C23.2295913,22.405443 22.9692869,22.6649286 22.6475773,22.6651498 L20.0567693,22.6673619 L20.0563244,22.6673619 Z" id="Fill-16"></path>
            </g>
        </g>
    </g>
</svg>