<?xml version="1.0" encoding="UTF-8"?>
<svg width="30px" height="27px" viewBox="0 0 30 27" version="1.1" xmlns="http://www.w3.org/2000/svg" xmlns:xlink="http://www.w3.org/1999/xlink">
    <!-- Generator: Sketch 49.1 (51147) - http://www.bohemiancoding.com/sketch -->
    <title>Page 1</title>
    <desc>Created with Sketch.</desc>
    <defs>
        <polygon id="path-1" points="14.9761051 0.123821656 0 0.123821656 0 26.9426752 14.9761051 26.9426752 29.9522102 26.9426752 29.9522102 0.123821656 14.9761051 0.123821656"></polygon>
    </defs>
    <g id="Desktop-1399---1024-px" stroke="none" stroke-width="1" fill="none" fill-rule="evenodd">
        <g id="Desktop_EDU-Main" transform="translate(-835.000000, -2865.000000)">
            <g id="Page-1" transform="translate(835.000000, 2865.000000)">
                <g id="Group-3" transform="translate(0.000000, 0.067261)">
                    <mask id="mask-2" fill="white">
                        <use xlink:href="#path-1"></use>
                    </mask>
                    <g id="Clip-2"></g>
                    <path d="M18.4962229,26.9426752 L0.500044586,26.9426752 C0.223547771,26.9426752 -1.91082803e-05,26.7187261 -1.91082803e-05,26.4424204 L-1.91082803e-05,0.62388535 C-1.91082803e-05,0.347579618 0.223547771,0.123821656 0.500044586,0.123821656 L4.0776879,0.123821656 C4.35418471,0.123821656 4.57813376,0.347579618 4.57813376,0.62388535 L4.57813376,2.41509554 C4.57813376,2.58057325 4.49635032,2.73535032 4.35953503,2.82840764 C4.03106369,3.05235669 3.83463057,3.42267516 3.83463057,3.81840764 C3.83463057,4.47840764 4.3721465,5.0155414 5.03233758,5.0155414 C5.69291083,5.0155414 6.23004459,4.47840764 6.23004459,3.81840764 C6.23004459,3.42229299 6.03361146,3.05216561 5.70533121,2.82859873 C5.56832484,2.7355414 5.4865414,2.58057325 5.4865414,2.41509554 L5.4865414,0.62388535 C5.4865414,0.347579618 5.71049045,0.123821656 5.9866051,0.123821656 L9.0498535,0.123821656 C9.32615924,0.123821656 9.55010828,0.347579618 9.55010828,0.62388535 L9.55010828,2.41509554 C9.55010828,2.58076433 9.46832484,2.7355414 9.33131847,2.82859873 C9.0032293,3.05197452 8.80736943,3.42191083 8.80736943,3.81840764 C8.80736943,4.47840764 9.34412102,5.0155414 10.0043121,5.0155414 C10.6645032,5.0155414 11.2014459,4.47840764 11.2014459,3.81840764 C11.2014459,3.42210191 11.0052038,3.05216561 10.6767325,2.82878981 C10.5397261,2.73573248 10.4577516,2.58076433 10.4577516,2.41509554 L10.4577516,0.62388535 C10.4577516,0.347579618 10.6817006,0.123821656 10.9581975,0.123821656 L14.021828,0.123821656 C14.2979427,0.123821656 14.5222739,0.347579618 14.5222739,0.62388535 L14.5222739,2.41509554 C14.5222739,2.58057325 14.4401083,2.7355414 14.3036752,2.82859873 C13.9752038,3.05216561 13.7789618,3.42229299 13.7789618,3.81840764 C13.7789618,4.47840764 14.3159045,5.0155414 14.9760955,5.0155414 C15.6359045,5.0155414 16.1730382,4.47840764 16.1730382,3.81840764 C16.1730382,3.42210191 15.9769873,3.05216561 15.648707,2.82859873 C15.5120828,2.7355414 15.4299172,2.58076433 15.4299172,2.41509554 L15.4299172,0.62388535 C15.4299172,0.347579618 15.6538662,0.123821656 15.9299809,0.123821656 L18.9938025,0.123821656 C19.2699172,0.123821656 19.4938662,0.347579618 19.4938662,0.62388535 L19.4938662,2.41509554 C19.4938662,2.58057325 19.4117006,2.7355414 19.2750764,2.82859873 C18.9466051,3.05216561 18.7507452,3.42229299 18.7507452,3.81840764 C18.7507452,4.47840764 19.287879,5.0155414 19.9476879,5.0155414 C20.607879,5.0155414 21.1444395,4.47840764 21.1444395,3.81840764 C21.1444395,3.42191083 20.9489618,3.05197452 20.6204904,2.82859873 C20.4838662,2.7355414 20.4018917,2.58076433 20.4018917,2.41509554 L20.4018917,0.62388535 C20.4018917,0.347579618 20.6258408,0.123821656 20.9019554,0.123821656 L23.9652038,0.123821656 C24.2413185,0.123821656 24.4652675,0.347579618 24.4652675,0.62388535 L24.4652675,2.41509554 C24.4652675,2.58057325 24.3836752,2.7355414 24.2466688,2.82859873 C23.9185796,3.05216561 23.7227197,3.42210191 23.7227197,3.81840764 C23.7227197,4.47840764 24.2596624,5.0155414 24.9198535,5.0155414 C25.5796624,5.0155414 26.1167962,4.47840764 26.1167962,3.81840764 C26.1167962,3.42210191 25.9211274,3.05197452 25.5928471,2.82859873 C25.4558408,2.7355414 25.3740573,2.58076433 25.3740573,2.41509554 L25.3740573,0.62388535 C25.3740573,0.347579618 25.5980064,0.123821656 25.874121,0.123821656 L29.4517643,0.123821656 C29.7282611,0.123821656 29.9522102,0.347579618 29.9522102,0.62388535 L29.9522102,16.5722293 C29.9522102,16.848535 29.7282611,17.0724841 29.4517643,17.0724841 C29.1756497,17.0724841 28.9517006,16.848535 28.9517006,16.5722293 L28.9517006,1.12394904 L26.3743758,1.12394904 L26.3743758,2.17165605 C26.8438662,2.58592357 27.1173057,3.18382166 27.1173057,3.81840764 C27.1173057,5.03006369 26.1317006,6.01585987 24.9198535,6.01585987 C23.7080064,6.01585987 22.7220191,5.03006369 22.7220191,3.81840764 C22.7220191,3.18382166 22.9956497,2.58611465 23.4651401,2.17165605 L23.4651401,1.12394904 L21.4024013,1.12394904 L21.4024013,2.17165605 C21.8715096,2.58573248 22.1451401,3.18382166 22.1451401,3.81840764 C22.1451401,5.03006369 21.159535,6.01585987 19.9476879,6.01585987 C18.7362229,6.01585987 17.7502357,5.03006369 17.7502357,3.81840764 C17.7502357,3.18401274 18.0236752,2.58611465 18.4935478,2.17165605 L18.4935478,1.12394904 L16.4304268,1.12394904 L16.4304268,2.17165605 C16.8999172,2.58592357 17.1735478,3.18382166 17.1735478,3.81840764 C17.1735478,5.03006369 16.1875605,6.01585987 14.9760955,6.01585987 C13.7642484,6.01585987 12.7782611,5.03006369 12.7782611,3.81840764 C12.7782611,3.18401274 13.0522739,2.58611465 13.5217643,2.17165605 L13.5217643,1.12394904 L11.4582611,1.12394904 L11.4582611,2.17146497 C11.9281338,2.58592357 12.2017643,3.18382166 12.2017643,3.81840764 C12.2017643,5.03006369 11.2159682,6.01585987 10.0043121,6.01585987 C8.79284713,6.01585987 7.80724204,5.03006369 7.80724204,3.81840764 C7.80724204,3.18382166 8.08029936,2.58573248 8.54978981,2.17165605 L8.54978981,1.12394904 L6.48705096,1.12394904 L6.48705096,2.17165605 C6.9565414,2.58611465 7.23017197,3.18401274 7.23017197,3.81840764 C7.23017197,5.03006369 6.24418471,6.01585987 5.03233758,6.01585987 C3.82049045,6.01585987 2.83450318,5.03006369 2.83450318,3.81840764 C2.83450318,3.18420382 3.10813376,2.58649682 3.5776242,2.17184713 L3.5776242,1.12394904 L1.00010828,1.12394904 L1.00010828,25.9423567 L18.4962229,25.9423567 C18.7723376,25.9423567 18.9962866,26.1663057 18.9962866,26.4424204 C18.9962866,26.7187261 18.7723376,26.9426752 18.4962229,26.9426752" id="Fill-1" fill="#FFB200" mask="url(#mask-2)"></path>
                </g>
                <path d="M18.4962229,27.0099363 C18.2201083,27.0099363 17.9961592,26.7859873 17.9961592,26.5096815 C17.9961592,26.2335669 18.2201083,26.0096178 18.4962229,26.0096178 C19.765586,26.0096178 20.7746943,25.5936306 21.4948854,24.7735032 C23.3566051,22.654586 22.8445032,18.5166879 22.8393439,18.4748408 C22.8202357,18.33 22.8657134,18.1836306 22.9639299,18.0750955 C23.0623376,17.9665605 23.2027834,17.9084713 23.3489618,17.9103822 C25.0291529,17.9587261 27.9903631,17.7449045 28.7892803,16.968535 C28.9333567,16.8286624 28.9517006,16.7193631 28.9517006,16.6394904 C28.9517006,16.3633758 29.1756497,16.1394268 29.4517643,16.1394268 C29.7282611,16.1394268 29.9522102,16.3633758 29.9522102,16.6394904 C29.9522102,17.0281529 29.7909363,17.3900637 29.4865414,17.686242 C28.3601083,18.7803822 25.2143121,18.9116561 23.8830382,18.9164331 C23.9682611,20.2259236 23.9776242,23.4611465 22.2485159,25.4314013 C21.3295987,26.4787261 20.0671146,27.0099363 18.4962229,27.0099363" id="Fill-4" fill="#FFB200"></path>
                <path d="M22.4682803,24.7439045 C22.3448408,24.7439045 22.2212102,24.6984268 22.1245223,24.6068981 C21.9236943,24.4171529 21.9150955,24.1005287 22.1052229,23.8998917 L28.3773248,17.2718025 C28.566879,17.0709745 28.8836943,17.0625669 29.0841401,17.252121 C29.2849682,17.4420573 29.2935669,17.7586815 29.1036306,17.9593185 L22.8313376,24.5875987 C22.7333121,24.6913567 22.6007006,24.7439045 22.4682803,24.7439045" id="Fill-6" fill="#FFB200"></path>
                <path d="M15.052242,21.4294395 C14.7761274,21.4294395 14.5521783,21.2054904 14.5521783,20.9293758 L14.5521783,10.4003312 L11.6150446,13.3378471 C11.4193758,13.5331338 11.1029427,13.5331338 10.907465,13.3378471 C10.7121783,13.1425605 10.7121783,12.8259363 10.907465,12.6304586 L14.6987389,8.83918471 C14.8416688,8.69625478 15.0566369,8.65307006 15.243707,8.73064968 C15.430586,8.8082293 15.5526879,8.99052229 15.5526879,9.19287898 L15.5526879,20.9293758 C15.5526879,21.2054904 15.3287389,21.4294395 15.052242,21.4294395" id="Fill-8" fill="#FFB200"></path>
            </g>
        </g>
    </g>
</svg>