<?xml version="1.0" encoding="UTF-8"?>
<svg width="18px" height="30px" viewBox="0 0 18 30" version="1.1" xmlns="http://www.w3.org/2000/svg" xmlns:xlink="http://www.w3.org/1999/xlink">
    <!-- Generator: Sketch 49.1 (51147) - http://www.bohemiancoding.com/sketch -->
    <title>mouse [#216]</title>
    <desc>Created with Sketch.</desc>
    <defs></defs>
    <g id="Desktop-1399---1024-px" stroke="none" stroke-width="1" fill="none" fill-rule="evenodd">
        <g id="Desktop_EDU-Main" transform="translate(-711.000000, -715.000000)" fill="#FCB528">
            <path d="M726,736 C726,739.5055 722.9775,742.3195 719.4,741.97 C716.283,741.667 714,738.865 714,735.733 L714,724 C714,721.213 715.5,718.8835 718.5,718.213 L718.5,724 C718.5,724.828 719.172,725.5 720,725.5 C720.828,725.5 721.5,724.828 721.5,724 L721.5,718.213 C724.5,718.8835 726,721.213 726,724 L726,736 Z M720,715 C715.029,715 711,719.029 711,724 L711,736 C711,740.971 715.029,745 720,745 C724.971,745 729,740.971 729,736 L729,724 C729,719.029 724.971,715 720,715 L720,715 Z" id="mouse-[#216]"></path>
        </g>
    </g>
</svg>