<?xml version="1.0" encoding="UTF-8"?>
<svg width="302px" height="38px" viewBox="0 0 302 38" version="1.1" xmlns="http://www.w3.org/2000/svg" xmlns:xlink="http://www.w3.org/1999/xlink">
    <!-- Generator: Sketch 49.1 (51147) - http://www.bohemiancoding.com/sketch -->
    <title>Page 1</title>
    <desc>Created with Sketch.</desc>
    <defs>
        <polygon id="path-1" points="0 37.9536585 301.835325 37.9536585 301.835325 0.850960976 0 0.850960976"></polygon>
    </defs>
    <g id="HD-Desktop-1920---1440-px" stroke="none" stroke-width="1" fill="none" fill-rule="evenodd">
        <g id="HD-Desktop_EDU-Main" transform="translate(-396.000000, -1188.000000)">
            <g id="Page-1" transform="translate(396.000000, 1188.000000)">
                <polygon id="Fill-1" fill="#FCB528" points="0 37.9581959 70.384234 37.9581959 70.384234 0.857495854 0 0.857495854"></polygon>
                <polygon id="Fill-2" fill="#2D2F45" points="20.3017791 20.9010227 12.7512092 20.9010227 12.7512092 25.7830617 21.1872658 25.7830617 21.1872658 29.5964056 8.08844321 29.5964056 8.08844321 9.03750805 20.7584828 9.03750805 20.7584828 12.8488544 12.7512092 12.8488544 12.7512092 17.1176422 20.3017791 17.1176422"></polygon>
                <g id="Group-26" transform="translate(0.000000, 0.004537)">
                    <path d="M29.0094647,26.083552 C29.404344,26.1754398 30.0485157,26.1754398 30.6228855,26.1754398 C34.8249591,26.2034056 37.567176,23.8862349 37.567176,18.97623 C37.5970911,14.7074422 35.1021723,12.4482007 31.1154874,12.4482007 C30.0764364,12.4482007 29.404344,12.5420861 29.0094647,12.6339739 L29.0094647,26.083552 Z M24.354676,9.30403976 C26.0598364,9.03237146 28.2775421,8.88255439 30.6228855,8.88255439 C34.5258081,8.88255439 37.0506421,9.58170073 39.0270326,11.0778739 C41.160976,12.6599422 42.5031666,15.1948471 42.5031666,18.8224178 C42.5031666,22.7556154 41.0712308,25.4722983 39.0888572,27.1502495 C36.9309817,28.950052 33.638327,29.8030105 29.6197326,29.8030105 C27.2145591,29.8030105 25.5074043,29.6472007 24.354676,29.4993812 L24.354676,9.30403976 Z" id="Fill-3" fill="#2D2F45"></path>
                    <path d="M50.1720008,9.03197195 L50.1720008,20.8675207 C50.1720008,24.4012061 51.5141913,26.2030061 53.8874555,26.2030061 C56.3245385,26.2030061 57.6667291,24.497089 57.6667291,20.8675207 L57.6667291,9.03197195 L62.2955913,9.03197195 L62.2955913,20.5598963 C62.2955913,26.90415 59.0946762,29.9244622 53.7338913,29.9244622 C48.55858,29.9244622 45.5132234,27.0559646 45.5132234,20.4999695 L45.5132234,9.03197195 L50.1720008,9.03197195 Z" id="Fill-5" fill="#2D2F45"></path>
                    <path d="M100.38688,20.9939663 L99.066627,16.4894663 C98.6857081,15.2270078 98.3127666,13.6529298 97.9936723,12.3904712 L97.9338421,12.3904712 C97.6147477,13.6529298 97.3056251,15.2589688 96.9546213,16.4894663 L95.6981874,20.9939663 L100.38688,20.9939663 Z M95.0061515,24.585581 L93.4944421,30.0389224 L88.5205591,30.0389224 L95.0061515,8.79885659 L101.300287,8.79885659 L107.873631,30.0389224 L102.716268,30.0389224 L101.078916,24.585581 L95.0061515,24.585581 Z" id="Fill-7" fill="#2D2F45"></path>
                    <polygon id="Fill-9" fill="#2D2F45" points="110.701405 8.79805756 123.668601 8.79805756 123.668601 12.7392454 115.517735 12.7392454 115.517735 17.591321 123.132124 17.591321 123.132124 21.4965527 115.517735 21.4965527 115.517735 30.040121 110.701405 30.040121"></polygon>
                    <polygon id="Fill-11" fill="#2D2F45" points="127.283342 8.79805756 140.246549 8.79805756 140.246549 12.7392454 132.097678 12.7392454 132.097678 17.591321 139.714061 17.591321 139.714061 21.4965527 132.097678 21.4965527 132.097678 30.040121 127.283342 30.040121"></polygon>
                    <mask id="mask-2" fill="white">
                        <use xlink:href="#path-1"></use>
                    </mask>
                    <g id="Clip-14"></g>
                    <polygon id="Fill-13" fill="#2D2F45" mask="url(#mask-2)" points="143.863683 30.039322 148.678019 30.039322 148.678019 8.79725854 143.863683 8.79725854"></polygon>
                    <polygon id="Fill-15" fill="#2D2F45" mask="url(#mask-2)" points="152.829835 8.79805756 157.642177 8.79805756 157.642177 26.0050478 166.074245 26.0050478 166.074245 30.040121 152.829835 30.040121"></polygon>
                    <polygon id="Fill-16" fill="#2D2F45" mask="url(#mask-2)" points="168.902617 30.039322 173.718947 30.039322 173.718947 8.79725854 168.902617 8.79725854"></polygon>
                    <path d="M188.186685,20.9939663 L186.87042,16.4894663 C186.491496,15.2270078 186.112571,13.6529298 185.79946,12.3904712 L185.737635,12.3904712 C185.420535,13.6529298 185.107424,15.2589688 184.758415,16.4894663 L183.501981,20.9939663 L188.186685,20.9939663 Z M182.811939,24.585581 L181.304218,30.0389224 L176.330335,30.0389224 L182.811939,8.79885659 L189.104081,8.79885659 L195.681413,30.0389224 L190.520062,30.0389224 L188.886698,24.585581 L182.811939,24.585581 Z" id="Fill-17" fill="#2D2F45" mask="url(#mask-2)"></path>
                    <polygon id="Fill-18" fill="#2D2F45" mask="url(#mask-2)" points="199.986993 12.8341295 194.291159 12.8341295 194.291159 8.79705878 210.588902 8.79705878 210.588902 12.8341295 204.803323 12.8341295 204.803323 30.0391222 199.986993 30.0391222"></polygon>
                    <polygon id="Fill-19" fill="#2D2F45" mask="url(#mask-2)" points="225.755655 21.0584876 217.953799 21.0584876 217.953799 26.102329 226.667069 26.102329 226.667069 30.0395217 213.139463 30.0395217 213.139463 8.79745829 226.22632 8.79745829 226.22632 12.7386461 217.953799 12.7386461 217.953799 17.1512583 225.755655 17.1512583"></polygon>
                    <path d="M230.09115,25.0963573 C231.381488,25.7515573 233.365856,26.4187427 235.410054,26.4187427 C237.613799,26.4187427 238.776499,25.5018622 238.776499,24.1155549 C238.776499,22.7931695 237.771352,22.0340963 235.222586,21.121211 C231.698588,19.892711 229.39712,17.9390963 229.39712,14.8488695 C229.39712,11.2232963 232.420539,8.45068171 237.428326,8.45068171 C239.817545,8.45068171 241.578547,8.9580622 242.836975,9.52337195 L241.766015,13.4006378 C240.91842,12.9891402 239.406711,12.3918695 237.330603,12.3918695 C235.252501,12.3918695 234.243365,13.3367159 234.243365,14.4393695 C234.243365,15.7957134 235.443958,16.3949817 238.178198,17.435711 C241.925562,18.8200207 243.684569,20.7736354 243.684569,23.7679793 C243.684569,27.331628 240.948335,30.3539378 235.126858,30.3539378 C232.70573,30.3539378 230.314516,29.7267037 229.117913,29.0635134 L230.09115,25.0963573 Z" id="Fill-20" fill="#2D2F45" mask="url(#mask-2)"></path>
                    <polygon id="Fill-21" fill="#2D2F45" mask="url(#mask-2)" points="75.3202245 21.3798951 83.6106943 21.3798951 83.6106943 17.4247244 75.3202245 17.4247244"></polygon>
                    <path d="M245.580388,27.7982583 C245.580388,26.2960924 246.607473,25.2114168 248.079296,25.2114168 C249.549124,25.2114168 250.550283,26.2681266 250.550283,27.7982583 C250.550283,29.2704607 249.549124,30.3531388 248.051375,30.3531388 C246.607473,30.3531388 245.580388,29.2704607 245.580388,27.7982583" id="Fill-22" fill="#2D2F45" mask="url(#mask-2)"></path>
                    <path d="M263.287931,29.7177146 C262.538059,30.0513073 261.124072,30.3289683 259.512646,30.3289683 C255.127093,30.3289683 252.325046,27.6602268 252.325046,23.3754585 C252.325046,19.4023098 255.047319,16.1502805 260.096987,16.1502805 C261.207834,16.1502805 262.426376,16.3440439 263.31984,16.6796341 L262.651736,19.8217976 C262.151157,19.5960732 261.401285,19.4023098 260.292432,19.4023098 C258.070738,19.4023098 256.628831,20.9883732 256.656751,23.209661 C256.656751,25.7126049 258.320031,27.0190098 260.3742,27.0190098 C261.37137,27.0190098 262.151157,26.8512146 262.787351,26.599522 L263.287931,29.7177146 Z" id="Fill-23" fill="#2D2F45" mask="url(#mask-2)"></path>
                    <path d="M268.893022,23.2394246 C268.893022,25.5725759 269.86626,27.3244368 271.669143,27.3244368 C273.30849,27.3244368 274.363496,25.6844393 274.363496,23.2394246 C274.363496,21.2079051 273.585703,19.1524149 271.669143,19.1524149 C269.642894,19.1524149 268.893022,21.2378685 268.893022,23.2394246 M278.721128,23.0995954 C278.721128,28.0775173 275.195135,30.3547368 271.559454,30.3547368 C267.588724,30.3547368 264.537384,27.7419271 264.537384,23.3532856 C264.537384,18.9586515 267.421199,16.1500807 271.778832,16.1500807 C275.943013,16.1500807 278.721128,19.0125856 278.721128,23.0995954" id="Fill-24" fill="#2D2F45" mask="url(#mask-2)"></path>
                    <path d="M281.324539,20.7912139 C281.324539,19.0972822 281.268697,17.6490505 281.210861,16.454509 L284.768763,16.454509 L284.962214,18.2902676 L285.041988,18.2902676 C285.628324,17.4273212 286.820939,16.1508798 289.152322,16.1508798 C290.899363,16.1508798 292.287424,17.0377968 292.873759,18.4560651 L292.925612,18.4560651 C293.428186,17.7609139 294.036459,17.2095871 294.674648,16.8160676 C295.42452,16.3706115 296.254165,16.1508798 297.251335,16.1508798 C299.867908,16.1508798 301.836322,17.9846407 301.836322,22.0456822 L301.836322,30.0519066 L297.727982,30.0519066 L297.727982,22.6549383 C297.727982,20.681348 297.089793,19.5387432 295.731648,19.5387432 C294.760405,19.5387432 294.068369,20.2059285 293.789161,21.0129432 C293.675484,21.31857 293.619642,21.7660237 293.619642,22.0956212 L293.619642,30.0519066 L289.511303,30.0519066 L289.511303,22.433209 C289.511303,20.7093139 288.903029,19.5387432 287.57081,19.5387432 C286.487884,19.5387432 285.849695,20.3777188 285.602397,21.0708724 C285.458805,21.4044651 285.432878,21.7939895 285.432878,22.1255846 L285.432878,30.0519066 L281.324539,30.0519066 L281.324539,20.7912139 Z" id="Fill-25" fill="#2D2F45" mask="url(#mask-2)"></path>
                </g>
            </g>
        </g>
    </g>
</svg>