<?xml version="1.0" encoding="UTF-8"?>
<svg width="130px" height="76px" viewBox="0 0 130 76" version="1.1" xmlns="http://www.w3.org/2000/svg" xmlns:xlink="http://www.w3.org/1999/xlink">
    <!-- Generator: Sketch 49.2 (51160) - http://www.bohemiancoding.com/sketch -->
    <title>Page 1</title>
    <desc>Created with Sketch.</desc>
    <defs>
        <polygon id="path-1" points="0.000164619281 0.298461538 129.748385 0.298461538 129.748385 75.3843077 0.000164619281 75.3843077 0.000164619281 0.298461538"></polygon>
    </defs>
    <g id="HD-Desktop-1920---1440-px" stroke="none" stroke-width="1" fill="none" fill-rule="evenodd" opacity="0.05">
        <g id="HD-Desktop_EDU-Stats" transform="translate(-383.000000, -832.000000)">
            <g id="Page-1" transform="translate(383.000000, 832.000000)">
                <g id="Group-3" transform="translate(0.000000, 0.471000)">
                    <mask id="mask-2" fill="white">
                        <use xlink:href="#path-1"></use>
                    </mask>
                    <g id="Clip-2"></g>
                    <path d="M4.43084615,38.2504615 C9.63623077,44.2573846 34.4162308,70.9327692 64.2362308,71.5289231 C64.5800769,71.5358462 64.9277692,71.5381538 65.2700769,71.5381538 C94.6485385,71.5404615 119.940077,46.3935385 125.320077,40.6635385 C120.244692,34.2081538 95.4577692,4.75046154 65.5808462,4.15353846 C65.2693077,4.14738462 64.9577692,4.14430769 64.6462308,4.14430769 C35.137,4.14430769 9.69930769,32.0673846 4.43084615,38.2504615 M65.2739231,75.3843077 L65.2693077,75.3843077 C64.9016154,75.3843077 64.5285385,75.3812308 64.1593077,75.3735385 C28.897,74.6696923 1.56546154,40.8966154 0.419307692,39.4589231 C-0.136846154,38.7612308 -0.139923077,37.7712308 0.412384615,37.0704615 C1.59546154,35.5689231 29.7831538,0.298153846 64.6462308,0.298153846 C64.9831538,0.298153846 65.3200769,0.302 65.6577692,0.308923077 C100.973923,1.01353846 128.239308,38.0666154 129.382385,39.6435385 C129.906231,40.3666154 129.863923,41.3543077 129.280077,42.0296923 C128.102385,43.392 100.037769,75.3843077 65.2739231,75.3843077" id="Fill-1" fill="#FEFEFE" mask="url(#mask-2)"></path>
                </g>
                <path d="M64.9086923,14.5800769 C51.8217692,14.5800769 41.1748462,25.2262308 41.1748462,38.3123846 C41.1748462,51.3985385 51.8217692,62.0454615 64.9086923,62.0454615 C77.9948462,62.0454615 88.641,51.3985385 88.641,38.3123846 C88.641,25.2262308 77.9948462,14.5800769 64.9086923,14.5800769 M64.9086923,65.8916154 C49.701,65.8916154 37.3286923,53.5193077 37.3286923,38.3123846 C37.3286923,23.1054615 49.701,10.7339231 64.9086923,10.7339231 C80.1156154,10.7339231 92.4871538,23.1054615 92.4871538,38.3123846 C92.4871538,53.5193077 80.1156154,65.8916154 64.9086923,65.8916154" id="Fill-4" fill="#FEFEFE"></path>
                <path d="M64.9206923,29.0993077 C59.8460769,29.0993077 55.7183846,33.2262308 55.7183846,38.3000769 C55.7183846,43.3746923 59.8460769,47.5023846 64.9206923,47.5023846 C69.9945385,47.5023846 74.1214615,43.3746923 74.1214615,38.3000769 C74.1214615,33.2262308 69.9945385,29.0993077 64.9206923,29.0993077 M64.9206923,51.3485385 C57.7253077,51.3485385 51.8722308,45.4946923 51.8722308,38.3000769 C51.8722308,31.1054615 57.7253077,25.2531538 64.9206923,25.2531538 C72.1153077,25.2531538 77.9676154,31.1054615 77.9676154,38.3000769 C77.9676154,45.4946923 72.1153077,51.3485385 64.9206923,51.3485385" id="Fill-6" fill="#FEFEFE"></path>
            </g>
        </g>
    </g>
</svg>