<?xml version="1.0" encoding="UTF-8"?>
<svg width="100px" height="94px" viewBox="0 0 100 94" version="1.1" xmlns="http://www.w3.org/2000/svg" xmlns:xlink="http://www.w3.org/1999/xlink">
    <!-- Generator: Sketch 49.2 (51160) - http://www.bohemiancoding.com/sketch -->
    <title>Page 1</title>
    <desc>Created with Sketch.</desc>
    <defs></defs>
    <g id="HD-Desktop-1920---1440-px" stroke="none" stroke-width="1" fill="none" fill-rule="evenodd" opacity="0.05">
        <g id="HD-Desktop_EDU-Stats" transform="translate(-737.000000, -823.000000)" fill="#FEFEFE">
            <g id="Page-1" transform="translate(737.000000, 823.000000)">
                <path d="M67.4581081,74.1605946 C66.9127027,74.1605946 66.4040541,73.8287027 66.1981081,73.2973514 L62.842973,64.6351892 C62.5732432,63.938973 62.9191892,63.1562703 63.6154054,62.8870811 C64.3110811,62.6173514 65.0937838,62.9632973 65.3635135,63.6584324 L68.2754054,71.1768108 L75.1424324,69.2551892 L73.7197297,61.2551892 C73.6175676,60.6795135 73.8975676,60.1027568 74.4132432,59.8265405 C76.4440541,58.7422162 78.3197297,57.3795135 79.9889189,55.7784324 C80.4154054,55.3697838 81.0575676,55.2854595 81.5748649,55.5687027 L88.7451351,59.5087027 L92.7710811,53.6238378 L86.4045946,48.3000541 C85.9586486,47.9270811 85.8013514,47.3108649 86.0137838,46.7697838 C86.41,45.7605946 86.7235135,44.7962703 86.9727027,43.8216757 L87.1251351,43.2216757 C87.3754054,42.2454595 87.5645946,41.2497838 87.7040541,40.1757297 C87.7786486,39.5995135 88.2127027,39.1357297 88.7824324,39.0232973 L96.9224324,37.4162703 L96.2240541,30.3151892 L88.0445946,30.3249189 L88.0435135,30.3249189 C87.4532432,30.3249189 86.9316216,29.9422162 86.7543243,29.3795135 C86.0602703,27.1762703 85.0694595,25.0795135 83.8105405,23.1481622 C83.4910811,22.6584324 83.522973,22.0184324 83.89,21.5627568 L88.9867568,15.2314054 L83.8889189,10.2432973 L77.717027,15.4351892 C77.2662162,15.8141081 76.622973,15.8578919 76.1256757,15.5438378 C74.1683784,14.3076216 72.0337838,13.3427568 69.7813514,12.6757297 C69.2175676,12.5081622 68.8262162,11.9957297 68.8143243,11.4076216 L68.6478378,3.33410811 L61.5364865,2.79194595 L60.1786486,10.5535676 C60.0764865,11.1405946 59.6013514,11.5908649 59.01,11.6627568 C56.6251351,11.9503243 54.3002703,12.5741081 52.0991892,13.5173514 C51.5613514,13.7481622 50.9364865,13.606 50.5505405,13.1649189 L45.4202703,7.30437838 L39.6245946,11.4584324 L43.4948649,18.1422162 C43.7905405,18.653027 43.7208108,19.2962703 43.3224324,19.7319459 C41.6705405,21.5373514 40.3024324,23.5487027 39.2548649,25.7092432 C38.9959459,26.2443784 38.4191892,26.5438378 37.8316216,26.4557297 L30.1759459,25.2681622 L28.4072973,32.1751892 L35.6889189,34.8146486 C36.39,35.0692432 36.7527027,35.8438378 36.4986486,36.5454595 C36.2440541,37.2476216 35.4678378,37.6087027 34.7672973,37.3557297 L26.3337838,34.2984324 C25.6797297,34.0611351 25.3127027,33.3665405 25.4851351,32.6924865 L27.8618919,23.4092432 C28.0343243,22.7357297 28.6878378,22.3076216 29.3781081,22.4092432 L37.2781081,23.6346486 C38.217027,21.8670811 39.3532432,20.1978919 40.6683784,18.6546486 L36.6710811,11.7519459 C36.3224324,11.1497838 36.4878378,10.3816757 37.0532432,9.97627027 L44.8424324,4.39356757 C45.4083784,3.9887027 46.1889189,4.07897297 46.6467568,4.60167568 L51.95,10.6600541 C53.8002703,9.94383784 55.7224324,9.42762162 57.6862162,9.11843243 L59.0856757,1.11843243 C59.2051351,0.433027027 59.822973,-0.0453513514 60.5191892,0.00383783784 L70.0764865,0.731945946 C70.77,0.785459459 71.3105405,1.35627027 71.3245946,2.05194595 L71.4964865,10.3827568 C73.3218919,10.9935676 75.0716216,11.7843784 76.7186486,12.7432973 L83.0878378,7.38545946 C83.6202703,6.93789189 84.4056757,6.96654054 84.9024324,7.45356757 L91.7532432,14.1573514 C92.2505405,14.6443784 92.297027,15.4292432 91.8608108,15.9708649 L86.5986486,22.5076216 C87.5737838,24.1254595 88.3835135,25.8384324 89.0154054,27.6211351 L97.4472973,27.6108649 L97.4489189,27.6108649 C98.1440541,27.6108649 98.7256757,28.1378919 98.7937838,28.8297838 L99.7321622,38.3724865 C99.8002703,39.0649189 99.3316216,39.6957297 98.6494595,39.8308649 L90.2435135,41.4903243 C90.1094595,42.3168108 89.9445946,43.1087027 89.7440541,43.8903243 L89.5916216,44.4892432 C89.3910811,45.2741081 89.1537838,46.0497838 88.8727027,46.8405946 L95.4462162,52.3373514 C95.9802703,52.7838378 96.0878378,53.5627568 95.6948649,54.1373514 L90.2840541,62.046 C89.8910811,62.6195135 89.1272973,62.8022162 88.5181081,62.4670811 L81.1272973,58.4065405 C79.7154054,59.6681622 78.1813514,60.7816757 76.5494595,61.7297838 L78.0181081,69.9892432 C78.1397297,70.6741081 77.7218919,71.3395135 77.0521622,71.5270811 L67.8224324,74.1103243 C67.7013514,74.1449189 67.5786486,74.1605946 67.4581081,74.1605946" id="Fill-1"></path>
                <path d="M62.256973,49.737027 C61.2099459,49.737027 60.1553514,49.6051351 59.1148108,49.3381081 C58.3915676,49.1521622 57.9558919,48.4159459 58.1418378,47.6932432 C58.3272432,46.9705405 59.0645405,46.5348649 59.7867027,46.7197297 C62.3380541,47.3748649 64.9921081,46.9959459 67.2602162,45.6521622 C69.5288649,44.3094595 71.1385946,42.162973 71.7931892,39.6094595 C73.1418378,34.3397297 69.9526486,28.9532432 64.6829189,27.6024324 C62.1294054,26.9472973 59.4753514,27.3272973 57.2067027,28.6694595 C54.9385946,30.0127027 53.3294054,32.1581081 52.6758919,34.7110811 C52.2796757,36.2510811 52.2575135,37.8127027 52.6099459,39.3559459 C52.7764324,40.0835135 52.3212973,40.8078378 51.5937297,40.9743243 C50.8656216,41.1381081 50.1418378,40.6856757 49.9753514,39.9575676 C49.5321081,38.0181081 49.5607568,35.9716216 50.0580541,34.0391892 C50.8904865,30.7878378 52.9402162,28.0548649 55.8294054,26.3445946 C58.7196757,24.6337838 62.1018378,24.1516216 65.3537297,24.9840541 C72.0667027,26.7051351 76.1299459,33.5667568 74.4115676,40.2802703 C73.576973,43.5332432 71.5267027,46.2672973 68.6375135,47.9781081 C66.6726486,49.1408108 64.4807568,49.737027 62.256973,49.737027" id="Fill-3"></path>
                <path d="M16.5689189,91.1221622 L43.8835135,91.1221622 L57.5413514,67.4659459 L43.8835135,43.8113514 L16.5689189,43.8113514 L2.91162162,67.4659459 L16.5689189,91.1221622 Z M44.6640541,93.8248649 L15.7889189,93.8248649 C15.3062162,93.8248649 14.8597297,93.567027 14.6186486,93.1491892 L0.181351351,68.1416216 C-0.0602702703,67.7237838 -0.0602702703,67.2086486 0.181351351,66.7902703 L14.6186486,41.7843243 C14.8597297,41.3659459 15.3062162,41.1086486 15.7889189,41.1086486 L44.6640541,41.1086486 C45.1467568,41.1086486 45.5927027,41.3659459 45.8343243,41.7843243 L60.2721622,66.7902703 C60.5132432,67.2086486 60.5132432,67.7237838 60.2721622,68.1416216 L45.8343243,93.1491892 C45.5927027,93.567027 45.1467568,93.8248649 44.6640541,93.8248649 Z" id="Fill-5"></path>
                <path d="M30.2265405,55.5478378 C23.6541081,55.5478378 18.3070811,60.8943243 18.3070811,67.4662162 C18.3070811,74.0391892 23.6541081,79.3867568 30.2265405,79.3867568 C36.798973,79.3867568 42.146,74.0391892 42.146,67.4662162 C42.146,60.8943243 36.798973,55.5478378 30.2265405,55.5478378 M30.2265405,82.0894595 C22.1638378,82.0894595 15.6043784,75.5294595 15.6043784,67.4662162 C15.6043784,59.4040541 22.1638378,52.8451351 30.2265405,52.8451351 C38.2892432,52.8451351 44.8487027,59.4040541 44.8487027,67.4662162 C44.8487027,75.5294595 38.2892432,82.0894595 30.2265405,82.0894595" id="Fill-7"></path>
            </g>
        </g>
    </g>
</svg>