<?xml version="1.0" encoding="UTF-8"?>
<svg width="100px" height="90px" viewBox="0 0 100 90" version="1.1" xmlns="http://www.w3.org/2000/svg" xmlns:xlink="http://www.w3.org/1999/xlink">
    <!-- Generator: Sketch 49.2 (51160) - http://www.bohemiancoding.com/sketch -->
    <title>Page 1</title>
    <desc>Created with Sketch.</desc>
    <defs>
        <polygon id="path-1" points="39.8919255 0.476149068 39.8919255 26.46 0.333318083 26.46 0.333318083 0.476149068 39.8919255 0.476149068"></polygon>
        <polygon id="path-3" points="1.98341656e-15 3.70670807 1.98341656e-15 0.601118012 99.517205 0.601118012 99.517205 3.70670807 0 3.70670807"></polygon>
    </defs>
    <g id="HD-Desktop-1920---1440-px" stroke="none" stroke-width="1" fill="none" fill-rule="evenodd" opacity="0.05">
        <g id="HD-Desktop_EDU-Stats" transform="translate(-1082.000000, -825.000000)">
            <g id="Page-1" transform="translate(1082.000000, 825.000000)">
                <path d="M49.9939752,89.1075155 C49.9057764,89.1075155 49.8169565,89.1000621 49.7268944,89.0845342 C48.8821739,88.9385714 48.3157143,88.1348447 48.4622981,87.2895031 L51.3840373,70.4230435 L35.8654037,55.346646 C35.440559,54.9336025 35.287764,54.3155901 35.4709938,53.7528571 C35.6536025,53.1901242 36.140559,52.7801863 36.7268944,52.6957143 L53.2585714,50.3230435 C54.108882,50.2000621 54.8945963,50.7907453 55.0163354,51.6391925 C55.1380745,52.4882609 54.5486335,53.2752174 53.6995652,53.3969565 L40.2958385,55.3211801 L54.1362112,68.7671429 C54.503913,69.1242857 54.6716149,69.6404348 54.5840373,70.1460248 L51.5219255,87.8199379 C51.3914907,88.5752174 50.7349689,89.1075155 49.9939752,89.1075155" id="Fill-1" fill="#FEFEFE"></path>
                <path d="M57.6523602,89.1080745 C57.0952174,89.1080745 56.556087,88.8068323 56.2778261,88.2795031 C55.8778261,87.521118 56.1678882,86.5819876 56.9262733,86.1813665 L68.3536025,80.1484472 C68.8063975,79.9093168 69.3492547,79.9093168 69.8026708,80.1484472 L81.2324845,86.1813665 C81.9908696,86.5819876 82.2809317,87.521118 81.8809317,88.2795031 C81.4803106,89.0378882 80.540559,89.3279503 79.782795,88.9279503 L69.0784472,83.2776398 L58.3759627,88.9279503 C58.1449068,89.0496894 57.8970807,89.1074534 57.6523602,89.1080745" id="Fill-3" fill="#FEFEFE"></path>
                <path d="M88.1636025,89.1075155 C87.4226087,89.1075155 86.766087,88.5752174 86.6356522,87.8199379 L83.5722981,70.1460248 C83.4847205,69.6404348 83.6524224,69.1242857 84.0201242,68.7671429 L96.882236,56.2708696 C97.497764,55.6745963 98.4803727,55.6863975 99.0778882,56.3025466 C99.6760248,56.9174534 99.6617391,57.9006832 99.0462112,58.4981988 L86.7722981,70.4230435 L89.6952795,87.2895031 C89.8418634,88.1348447 89.2754037,88.9385714 88.4306832,89.0845342 C88.3412422,89.1000621 88.2518012,89.1075155 88.1636025,89.1075155" id="Fill-5" fill="#FEFEFE"></path>
                <g id="Group-9" transform="translate(59.627329, 28.859627)">
                    <mask id="mask-2" fill="white">
                        <use xlink:href="#path-1"></use>
                    </mask>
                    <g id="Clip-8"></g>
                    <path d="M38.3406832,26.46 C38.2673913,26.46 38.1928571,26.4550311 38.118323,26.444472 L19.1350932,23.7196273 C18.6270186,23.6469565 18.1878882,23.3277019 17.9618012,22.8674534 L9.45062112,5.54944099 L3.27981366,18.1059627 C2.9015528,18.875528 1.97049689,19.1922981 1.2015528,18.8146584 C0.431987578,18.4363975 0.114596273,17.5059627 0.492857143,16.7363975 L8.05745342,1.34385093 C8.31832298,0.812795031 8.85869565,0.476149068 9.45062112,0.476149068 C10.0425466,0.476149068 10.5835404,0.812795031 10.8444099,1.34385093 L20.3872671,20.7618634 L38.5593168,23.3699379 C39.4083851,23.4922981 39.9978261,24.2786335 39.876087,25.1277019 C39.7649068,25.902236 39.1009317,26.46 38.3406832,26.46" id="Fill-7" fill="#FEFEFE" mask="url(#mask-2)"></path>
                </g>
                <path d="M7.32608696,3.10571429 C4.99875776,3.10571429 3.10559006,4.99950311 3.10559006,7.32621118 L3.10559006,81.7802484 C3.10559006,84.1081988 4.99875776,86.0019876 7.32608696,86.0019876 L92.1900621,86.0019876 C94.5173913,86.0019876 96.4118012,84.1081988 96.4118012,81.7802484 L96.4118012,7.32621118 C96.4118012,4.99950311 94.5173913,3.10571429 92.1900621,3.10571429 L7.32608696,3.10571429 Z M92.1900621,89.1075776 L7.32608696,89.1075776 C3.2863354,89.1075776 0,85.8206211 0,81.7802484 L0,7.32621118 C0,3.28645963 3.2863354,0.000124223602 7.32608696,0.000124223602 L92.1900621,0.000124223602 C96.2304348,0.000124223602 99.5173913,3.28645963 99.5173913,7.32621118 L99.5173913,81.7802484 C99.5173913,85.8206211 96.2304348,89.1075776 92.1900621,89.1075776 Z" id="Fill-10" fill="#FEFEFE"></path>
                <g id="Group-14" transform="translate(0.000000, 20.785093)">
                    <mask id="mask-4" fill="white">
                        <use xlink:href="#path-3"></use>
                    </mask>
                    <g id="Clip-13"></g>
                    <path d="M97.9644099,3.70670807 L1.5526087,3.70670807 C0.69484472,3.70670807 -0.000186335404,3.01167702 -0.000186335404,2.15391304 C-0.000186335404,1.29614907 0.69484472,0.601118012 1.5526087,0.601118012 L97.9644099,0.601118012 C98.8221739,0.601118012 99.517205,1.29614907 99.517205,2.15391304 C99.517205,3.01167702 98.8221739,3.70670807 97.9644099,3.70670807" id="Fill-12" fill="#FEFEFE" mask="url(#mask-4)"></path>
                </g>
                <path d="M12.9313043,12.2756522 C12.6462112,12.2756522 12.413913,12.5079503 12.413913,12.7936646 C12.413913,13.0787578 12.6462112,13.3104348 12.9313043,13.3104348 C13.2163975,13.3104348 13.4486957,13.0787578 13.4486957,12.7936646 C13.4486957,12.5079503 13.2163975,12.2756522 12.9313043,12.2756522 M12.9313043,16.4160248 C10.9337888,16.4160248 9.30832298,14.7911801 9.30832298,12.7936646 C9.30832298,10.795528 10.9337888,9.17006211 12.9313043,9.17006211 C14.9288199,9.17006211 16.5542857,10.795528 16.5542857,12.7936646 C16.5542857,14.7911801 14.9288199,16.4160248 12.9313043,16.4160248" id="Fill-15" fill="#FEFEFE"></path>
                <path d="M23.6971429,12.2756522 C23.4120497,12.2756522 23.1797516,12.5079503 23.1797516,12.7936646 C23.1797516,13.0787578 23.4120497,13.3104348 23.6971429,13.3104348 C23.982236,13.3104348 24.2145342,13.0787578 24.2145342,12.7936646 C24.2145342,12.5079503 23.982236,12.2756522 23.6971429,12.2756522 M23.6971429,16.4160248 C21.6996273,16.4160248 20.0741615,14.7911801 20.0741615,12.7936646 C20.0741615,10.795528 21.6996273,9.17006211 23.6971429,9.17006211 C25.6946584,9.17006211 27.3201242,10.795528 27.3201242,12.7936646 C27.3201242,14.7911801 25.6946584,16.4160248 23.6971429,16.4160248" id="Fill-17" fill="#FEFEFE"></path>
                <path d="M34.8772671,12.2756522 C34.5921739,12.2756522 34.3598758,12.5079503 34.3598758,12.7936646 C34.3598758,13.0787578 34.5921739,13.3104348 34.8772671,13.3104348 C35.1623602,13.3104348 35.3946584,13.0787578 35.3946584,12.7936646 C35.3946584,12.5079503 35.1623602,12.2756522 34.8772671,12.2756522 M34.8772671,16.4160248 C32.8797516,16.4160248 31.2542857,14.7911801 31.2542857,12.7936646 C31.2542857,10.795528 32.8797516,9.17006211 34.8772671,9.17006211 C36.8747826,9.17006211 38.5002484,10.795528 38.5002484,12.7936646 C38.5002484,14.7911801 36.8747826,16.4160248 34.8772671,16.4160248" id="Fill-19" fill="#FEFEFE"></path>
            </g>
        </g>
    </g>
</svg>