<?xml version="1.0" encoding="UTF-8"?>
<svg width="41px" height="44px" viewBox="0 0 41 44" version="1.1" xmlns="http://www.w3.org/2000/svg" xmlns:xlink="http://www.w3.org/1999/xlink">
    <!-- Generator: Sketch 49.2 (51160) - http://www.bohemiancoding.com/sketch -->
    <title>Page 1</title>
    <desc>Created with Sketch.</desc>
    <defs></defs>
    <g id="HD-Desktop-1920---1440-px" stroke="none" stroke-width="1" fill="none" fill-rule="evenodd">
        <g id="HD-Desktop_EDU-Today" transform="translate(-843.000000, -515.000000)">
            <g id="Page-1" transform="translate(834.000000, 507.000000)">
                <polygon id="Fill-1" points="0 59.3085283 59.3071698 59.3085283 59.3071698 0.000226415094 0 0.000226415094"></polygon>
                <polygon id="Fill-2" fill="#FFFFFF" points="49.6310943 28.4500755 49.0582642 27.7934717 48.4333585 27.4696981 47.5639245 25.6900755 47.9386415 24.9519623 47.5310943 24.0349811 47.5310943 23.3783774 46.8371321 22.5712075 47.0126038 21.7029057 45.5227925 20.267434 45.5227925 19.6696981 46.8767547 19.0459245 47.0126038 17.6081887 46.4929811 15.6678113 45.6314717 15.7063019 45.0416604 15.2546038 44.2627925 15.3463019 43.3888302 14.732717 43.5767547 13.9006415 43.0276981 13.1512075 42.0495849 13.3119623 40.8473208 12.2364906 40.0141132 12.1096981 39.6880755 11.6466792 39.2578868 11.8561132 38.2095849 11.9489434 37.2246792 12.5625283 36.8646792 12.2364906 37.3650566 11.7881887 37.5280755 11.8991321 37.8914717 11.5549811 38.870717 11.1995094 37.6288302 11.0829057 37.2190189 11.2787547 37.1035472 11.7157358 36.1503396 12.1583774 36.1061887 12.5478113 34.3435472 12.8047925 33.6778868 13.623283 33.5193962 14.2470566 32.5186415 14.3296981 32.2084528 13.8429057 31.3514717 13.7749811 30.9099623 13.9493208 29.7009057 13.623283 30.5510943 13.1036604 31.130717 13.1851698 31.7544906 12.5047925 31.7386415 11.7734717 31.3661887 11.568566 30.6076981 12.1096981 30.3427925 12.4119623 29.1393962 11.6376226 28.7850566 11.1598868 28.3186415 11.4191321 28.0797736 11.8912075 27.3348679 12.378 27.0439245 11.6466792 26.286566 11.4530943 26.0352453 10.9549811 26.4993962 10.5372453 27.0224151 9.55460377 26.0646792 9.45158491 25.1499623 8.56177358 24.306566 8.68856604 23.7801509 8.4689434 22.0231698 8.03083019 20.7586415 8.08856604 20.8163774 8.27422642 20.7393962 8.98856604 21.4005283 9.3825283 21.9043019 9.41875472 21.8363774 10.0549811 22.8858113 10.9312075 22.0095849 11.2198868 21.2205283 11.2198868 21.2375094 11.9738491 22.0876981 11.6466792 22.0876981 12.6655472 22.9526038 13.1512075 22.1929811 13.6719623 22.1929811 14.3036604 22.8461887 14.6647925 24.0043019 14.732717 25.4986415 16.1444151 27.485434 16.8949811 25.4058113 16.5236604 23.8933585 15.0213962 22.8858113 15.3802642 22.1216604 15.0213962 21.3575094 15.1515849 20.7835472 16.0017736 20.9714717 16.7195094 20.9873208 17.9715849 21.4243019 18.7889434 20.3816604 17.703283 20.4563774 16.7195094 19.7680755 16.1795094 19.3322264 16.3312075 19.3322264 16.9629057 19.7680755 17.703283 19.2914717 18.1651698 18.5001509 17.312717 18.5001509 16.3312075 17.4382642 15.648566 16.821283 15.9100755 14.6929811 16.4229057 14.5084528 17.2742264 14.946566 18.0383774 15.9993962 18.1991321 16.2178868 19.023283 16.1295849 18.9870566 16.0990189 19.1715849 15.8239245 19.4930943 15.7537358 19.9708302 15.3710943 20.7293208 15.3484528 21.5783774 14.7382642 22.0402642 13.7295849 21.6338491 13.3209057 22.4761132 13.4522264 23.0421509 14.6295849 23.0070566 15.1118491 23.4123396 14.8458113 23.9444151 14.7020377 24.8829057 14.0703396 25.2859245 14.5967547 26.0930943 13.9095849 26.4304528 12.6982642 26.1961132 11.4280755 26.4746038 10.8326038 27.3406415 10.2167547 28.0368679 10.4929811 29.2821509 10.1850566 30.7289434 9.79222642 31.6787547 9.89864151 31.7115849 9.59750943 32.3353585 10.3197736 33.6768679 10.2937358 34.2078113 10.8722264 35.0263019 10.3197736 36.2036604 10.6401509 36.2036604 11.7676981 37.4795094 11.9850566 38.4236604 12.4876981 38.8266792 12.4152453 40.1964906 12.4197736 40.1964906 13.3209057 40.8191321 13.3209057 41.3489434 14.1484528 41.972717 14.946566 41.7281887 15.770717 41.7281887 16.4001509 41.9489434 17.2673208 41.6930943 18.3937358 42.1561132 19.2914717 42.1561132 20.2322264 42.7255472 19.1556226 43.7444151 18.6303396 45.0338491 18.6303396 45.6938491 17.9884528 46.2496981 17.4937358 47.7496981 17.5605283 49.0006415 18.3937358 49.4715849 18.8443019 50.312717 18.8103396 50.312717 19.6005283 50.5244151 20.465434 50.0953585 21.6473208 50.4644151 21.9903396 49.9346038 21.8737358 49.4059245 22.8563774 49.0923396 23.181283 49.9346038 23.7801509 50.0953585 24.2635472 49.6730943 24.905434 49.7138491 26.2276981 50.6070566 26.7009057 50.8821509 26.9692075 50.8821509 27.5137358 50.6398868 28.3729811 50.3512075 29.030717 51.0010189 30.2375094 51.2783774 30.5420377 50.928566 30.4333585 50.3512075 31.716 50.1881887 33.0258113 50.372717 33.7310943 50.7768679 34.5473208 50.6070566 35.301283 50.8006415 36.141283 50.6500755 37.6526038 49.7500755 38.4178868 49.6595094 39.5318491 49.9346038 40.5892075 49.6595094 41.6601509 50.2210189 42.1401509 49.9108302 42.0167547 49.0923396 40.8280755 48.5625283 40.8280755 48.0089434 42.110717 46.5383774 43.2167547 46.0413962 43.7726038 45.1866792 44.5424151 45.1866792 44.4756226 44.3172453 44.6544906 43.5100755 42.7243019 41.5006415 41.7993962 40.9346038 40.1544906 39.918 39.2205283 39.4561132 38.9714717 38.8063019 39.0269434 37.7647925 38.0329811 36.3542264 36.7673208 35.6636604 36.7095849 35.0263019 37.1386415 34.7387547 37.5846792 35.0749811 38.3793962 35.4304528 40.070717 34.0221509 40.9050566 33.9530943 41.8243019 32.9908302 42.8669434 32.9568679 43.3888302 32.2515849 44.9737358 32.2176226 45.6643019 32.3693208 46.4522264 31.9402642 46.4522264 31.1557358 47.9386415 31.458 48.5522264 31.098 49.2416604 31.3991321 49.7103396 30.7617736"></polygon>
            </g>
        </g>
    </g>
</svg>