<?xml version="1.0" encoding="UTF-8"?>
<svg width="44px" height="31px" viewBox="0 0 44 31" version="1.1" xmlns="http://www.w3.org/2000/svg" xmlns:xlink="http://www.w3.org/1999/xlink">
    <!-- Generator: Sketch 49.2 (51160) - http://www.bohemiancoding.com/sketch -->
    <title>Page 1</title>
    <desc>Created with Sketch.</desc>
    <defs></defs>
    <g id="HD-Desktop-1920---1440-px" stroke="none" stroke-width="1" fill="none" fill-rule="evenodd">
        <g id="HD-Desktop_EDU-Today" transform="translate(-764.000000, -521.000000)">
            <g id="Page-1" transform="translate(756.000000, 507.000000)">
                <polygon id="Fill-1" points="0 59.3078491 59.3083019 59.3078491 59.3083019 -0.000452830189 0 -0.000452830189"></polygon>
                <path d="M50.5677736,29.6025283 L49.5647547,29.7915849 L49.4085283,30.2206415 L50.5406038,30.303283 L51.0998491,30.5715849 L51.2775849,30.2636604 L50.5677736,29.6025283 Z M46.9598491,30.7176226 L46.2851321,31.1229057 L46.134566,31.6776226 L46.8432453,31.8791321 L47.4036226,32.3376226 L47.6956981,31.518 L48.4689057,30.8772453 L47.7658868,30.8364906 L46.9598491,30.7176226 Z M42.7202264,33.4334717 L42.6285283,33.9972453 L43.133434,34.4376226 L43.5341887,33.9304528 L43.9156981,33.5863019 L43.6372075,33.1810189 L42.7202264,33.4334717 Z M47.2473962,22.923283 L47.3368302,22.1308302 L47.1511698,21.1255472 L47.7104151,20.7972453 L47.6617358,20.448566 L47.2190943,20.312717 L46.0677736,19.6810189 L44.4307925,19.8281887 L43.4221132,19.3198868 L42.4689057,19.4047925 L41.8564528,19.1161132 L40.2749434,19.1591321 L39.6647547,19.7308302 L39.1824906,19.503283 L38.2258868,19.5213962 L37.4436226,18.7968679 L36.7473962,19.0923396 L36.0862642,18.4595094 L34.7051321,17.9512075 L33.6670189,18.0621509 L33.7655094,17.5640377 L33.638717,16.907434 L33.2073962,16.8383774 L33.1406038,16.6787547 L32.5326792,16.3844151 L32.2315472,16.5440377 L31.7266415,16.5859245 L31.3904151,17.0342264 L29.5258868,16.0640377 L28.9224906,16.0640377 L28.2907925,16.6289434 L27.0500377,16.4161132 L26.8043774,15.9191321 L25.5432453,15.8263019 L23.8462642,16.4772453 L22.7119245,16.2315849 L20.2247547,15.8693208 L19.3213585,15.4130943 L19.0881509,15.1266792 L17.9719245,15.4130943 L17.078717,15.7515849 L16.2624906,15.4391321 L15.5481509,15.4391321 L14.9119245,15.9191321 L14.1658868,15.0757358 L13.2953208,14.9161132 L12.7700377,15.2421509 L12.5809811,15.0338491 L11.3062642,15.6836604 L11.394566,16.1138491 L11.8111698,16.3764906 L11.2881509,16.7398868 L10.1685283,16.8451698 L9.72815094,16.6617736 L8.40701887,17.0908302 L8.03116981,17.7847925 L8.34701887,18.4595094 L8.79418868,18.3066792 L8.76928302,18.6621509 L9.06362264,18.7889434 L8.88249057,19.6640377 L9.14286792,19.7670566 L9.70777358,19.2881887 L9.53569811,19.9629057 L9.80286792,20.1961132 L9.41230189,20.583283 L9.984,20.6772453 L9.17003774,21.3191321 L9.18475472,21.5059245 L10.733434,21.2761132 L11.3266415,21.4187547 L11.2236226,22.1047925 L11.5224906,22.5666792 L12.6919245,22.0108302 L14.6062642,22.3878113 L15.264,21.7821509 L16.9236226,21.9768679 L17.0300377,22.7455472 L17.7375849,23.6647925 L17.5349434,24.2964906 L17.0300377,24.2964906 L15.7156981,25.4455472 L15.8685283,26.2561132 L15.758717,28.2712075 L15.0115472,28.9549811 L15.6160755,29.5040377 L14.7104151,30.6406415 L14.1024906,30.5478113 L13.2466415,30.7323396 L14.1489057,32.2787547 L14.9583396,32.7429057 L15.0115472,34.0153585 L13.9077736,35.0206415 L14.409283,35.9308302 L15.1655094,35.9806415 L15.0579623,36.5636604 L14.2021132,37.2078113 L13.3915472,38.5810189 L13.9077736,39.3066792 L13.9281509,40.0391321 L14.4964528,40.1919623 L15.5300377,40.2949811 L16.9519245,41.5357358 L16.8104151,41.7372453 L17.4851321,43.187434 L18.6398491,44.2244151 L19.7809811,44.3908302 L20.8077736,43.8938491 L20.8247547,43.3821509 L21.3194717,42.9847925 L22.6089057,42.8489434 L23.7070189,41.8549811 L24.954566,41.7259245 L25.5364528,41.4247925 L26.964,41.7870566 L27.9285283,41.8787547 L28.1549434,41.6172453 L28.7685283,41.6410189 L29.3436226,42.0451698 L29.9051321,41.6172453 L30.2515472,41.0693208 L30.9070189,41.6025283 L31.6485283,41.9115849 L32.4738113,40.7070566 L32.4738113,40.0572453 L34.5953208,39.1538491 L35.7783396,39.1108302 L36.0658868,38.6987547 L35.7783396,38.4361132 L35.9085283,37.5010189 L37.0236226,36.1017736 L36.9930566,35.3591321 L38.1602264,35.0964906 L38.918717,34.4195094 L38.0526792,33.3519623 L37.5160755,33.0881887 L37.3689057,32.4644151 L36.7824906,31.5519623 L37.1798491,31.1047925 L38.5247547,29.0613962 L39.2379623,28.7523396 L40.2523019,27.2070566 L40.6156981,27.3247925 L40.4968302,27.4164906 L40.5738113,27.4946038 L41.0606038,27.2251698 L41.2326792,26.4813962 L40.8613585,26.1881887 L41.6583396,25.8134717 L42.5198491,25.2496981 L43.8647547,25.3096981 C43.8647547,25.3096981 44.9119245,24.9225283 44.9730566,24.9055472 C45.0443774,24.887434 45.5741887,24.2296981 45.5741887,24.2296981 L46.8941887,23.5119623 L47.2473962,22.923283 Z" id="Fill-2" fill="#FFFFFF"></path>
            </g>
        </g>
    </g>
</svg>