<?xml version="1.0" encoding="UTF-8"?>
<svg width="27px" height="44px" viewBox="0 0 27 44" version="1.1" xmlns="http://www.w3.org/2000/svg" xmlns:xlink="http://www.w3.org/1999/xlink">
    <!-- Generator: Sketch 49.2 (51160) - http://www.bohemiancoding.com/sketch -->
    <title>Page 1</title>
    <desc>Created with Sketch.</desc>
    <defs></defs>
    <g id="HD-Desktop-1920---1440-px" stroke="none" stroke-width="1" fill="none" fill-rule="evenodd">
        <g id="HD-Desktop_EDU-Today" transform="translate(-694.000000, -511.000000)">
            <g id="Page-1" transform="translate(678.000000, 507.000000)">
                <polygon id="Fill-1" points="0 59.3079623 59.3071698 59.3079623 59.3071698 -0.000339622642 0 -0.000339622642"></polygon>
                <path d="M19.0871321,19.3708302 L18.7803396,19.3198868 L18.8086415,19.6346038 L18.6456226,19.9696981 L18.7622264,20.3376226 L19.1097736,20.4078113 L18.995434,19.9504528 L19.1493962,19.6946038 L19.0871321,19.3708302 Z M18.7622264,18.9553585 L18.7622264,19.1229057 L19.1335472,19.2542264 L19.2909057,18.8829057 L18.7622264,18.9553585 Z M18.5958113,20.5821509 L18.3648679,20.8538491 L18.3286415,21.138 L18.7339245,20.9172453 L18.5958113,20.5821509 Z M19.6497736,23.0500755 L20.1750566,22.6844151 L19.6973208,22.6572453 L19.6497736,23.0500755 Z M19.6010943,16.9912075 L19.8829811,17.2119623 L20.3969434,17.1304528 L20.9199623,17.2561132 L21.2980755,16.7659245 L21.1135472,16.6425283 L21.2833585,16.2496981 L21.7984528,15.8093208 L21.7033585,15.1119623 L20.3561887,15.9723396 L20.5078868,16.3810189 L19.8829811,16.1251698 L19.5433585,16.5044151 L19.8671321,16.8112075 L19.6010943,16.9912075 Z M19.431283,18.6338491 L19.4663774,18.3293208 L18.7214717,18.2625283 L18.4893962,18.3791321 L18.906,18.7504528 L19.431283,18.6338491 Z M24.4056226,25.4138491 L24.156566,25.1863019 L24.1180755,25.5519623 L24.4441132,25.8010189 L24.4056226,25.4138491 Z M20.1422264,17.327434 L19.8863774,17.4451698 L19.776566,17.6715849 L19.5761887,17.7734717 L19.9418491,18.0372453 L20.6052453,17.5119623 L20.1422264,17.327434 Z M34.7403396,44.7078113 L33.9376981,45.0859245 L34.3282642,45.1595094 L34.7403396,45.4198868 L35.1410943,45.3610189 L35.1410943,45.1719623 L35.3346792,44.8730943 L35.0369434,44.9036604 L34.7403396,44.7078113 Z M26.2690189,35.5108302 L26.9867547,35.0081887 L26.4648679,35.0613962 L26.2237358,34.608566 L25.6033585,34.6787547 C25.6033585,34.6787547 25.4392075,35.1191321 25.4482642,35.1315849 L26.2690189,35.5108302 Z M25.1086415,31.5406415 L24.8743019,32.2425283 L25.3780755,32.1712075 L26.1037358,31.5134717 L25.9848679,31.2293208 L26.091283,30.7708302 L25.1086415,31.5406415 Z M42.4622264,37.4387547 L42.3275094,36.7764906 L41.3143019,36.0587547 L39.9150566,35.9942264 L39.0456226,36.0157358 L38.9743019,36.6123396 L38.7444906,36.9508302 L38.2803396,36.4900755 L37.7392075,36.3666792 L38.6063774,35.5776226 L38.6063774,35.0976226 L37.9192075,34.0900755 L37.6509057,34.0459245 L37.0463774,33.7244151 L36.7939245,33.3361132 L36.4792075,33.3949811 L36.2629811,33.452717 L35.8927925,33.3463019 L35.676566,33.3463019 L36.0863774,33.2500755 L36.3558113,33.3146038 L36.7973208,33.228566 L37.0814717,33.3361132 L37.3146792,33.558 L37.626,33.5047925 L37.9237358,33.5636604 L37.115434,32.6591321 L36.7316604,32.2142264 L36.9716604,31.8700755 L37.1924151,31.7964906 L36.7939245,31.5938491 L36.620717,31.323283 L36.4418491,31.3017736 L35.9686415,30.5149811 L35.255434,30.1776226 L34.2376981,29.9817736 L34.2037358,29.6172453 L33.9773208,29.4915849 L33.651283,28.5089434 L33.2833585,27.9519623 L33.0399623,26.687434 L32.7331698,26.2663019 L32.4614717,26.2663019 L31.6101509,25.1376226 L31.1041132,25.0346038 L30.711283,24.7447925 L30.0671321,24.5161132 L29.8169434,24.7187547 L29.316566,25.0198868 L28.5943019,24.8081887 L28.2671321,24.8512075 L27.6909057,24.6915849 L27.5267547,24.3995094 L27.8675094,24.5591321 L28.5558113,24.6112075 L29.120717,24.4425283 L29.2973208,24.0281887 L29.8814717,24.048566 L30.4078868,23.6930943 L29.8678868,23.4644151 L29.8305283,23.1802642 L29.6097736,23.028566 L28.8727925,23.3783774 L28.7505283,23.2470566 L29.3210943,22.8655472 L30.006,22.9029057 L30.4078868,22.5893208 L30.471283,22.3051698 L30.7509057,22.1376226 L31.1539245,21.438 L31.4029811,21.108566 L31.3656226,20.883283 L31.6441132,20.4078113 L31.5467547,20.2413962 L31.806,19.5904528 L32.2803396,19.218 L32.2803396,18.7968679 L31.5682642,18.2115849 L31.4267547,18.3202642 L30.2075094,18.3564906 L29.4648679,18.2353585 L29.2486415,18.3723396 L28.8818491,18.3723396 L28.4267547,18.2251698 L28.1063774,18.2353585 L28.0622264,18.3881887 L27.6026038,18.5104528 L27.1124151,18.7504528 L26.9109057,18.7436604 L26.5803396,18.9825283 L26.4761887,18.8896981 L26.9380755,18.4221509 L27.3909057,17.7463019 L27.0524151,17.9206415 L26.6267547,17.7666792 L26.8803396,17.627434 L26.9675094,17.3070566 L28.1505283,16.5044151 L28.4980755,15.978 L28.9010943,15.8466792 L29.0878868,15.3734717 L28.8818491,15.1708302 L29.1150566,14.8323396 L29.0878868,14.6195094 L28.4980755,14.6195094 L28.2558113,14.8538491 L27.8776981,14.7519623 L27.3105283,14.9795094 L26.7705283,14.9364906 L26.3335472,15.0961132 L26.0799623,15.1017736 L25.8139245,15.3304528 L25.8739245,15.0813962 L25.6316604,14.9851698 L25.1482642,15.3791321 L25.2897736,15.0293208 L24.6105283,14.7519623 L24.4995849,15.1255472 L24.2720377,15.287434 L24.3399623,15.6349811 L24.1995849,15.6440377 L24.2199623,16.0798868 L23.7331698,16.1749811 L23.9686415,16.5406415 L23.7716604,16.9063019 L23.5293962,16.9187547 L24.1180755,17.3942264 L24.3161887,17.7236604 L23.7218491,17.4542264 L23.5067547,17.627434 L23.075434,17.3647925 L23.046,17.5549811 L23.1614717,17.8051698 L23.0188302,17.9919623 L22.7969434,17.583283 L22.5852453,18.0134717 L22.8127925,18.2466792 L22.6395849,18.467434 L22.9893962,18.8308302 L23.3346792,18.8455472 L22.9316604,18.9825283 L22.5195849,18.7719623 L22.6101509,19.3651698 L22.5976981,19.5678113 L23.3561887,19.4613962 L22.866,19.6844151 L22.8127925,19.8010189 L22.9690189,19.8972453 L23.4433585,19.7376226 L23.3346792,19.8542264 L23.5293962,20.072717 L23.1750566,19.9504528 L23.0301509,20.0296981 L22.9316604,20.312717 L23.1229811,20.4383774 L22.836566,20.4813962 L22.6531698,20.7361132 L22.9837358,20.8368679 L23.060717,21.0644151 L22.5195849,20.8742264 L22.4143019,21.2036604 L22.6305283,21.3361132 L22.506,21.5534717 L22.2603396,21.7289434 L21.7192075,21.7346038 L21.4961887,21.9564906 L21.696566,22.0640377 L22.1414717,22.0357358 L22.4471321,22.1229057 L22.3690189,22.2383774 L22.0282642,22.2383774 L22.5014717,22.6413962 L22.6486415,22.5825283 L22.8897736,22.8168679 L24.1180755,21.6983774 L23.916566,22.0357358 L24.0988302,22.1376226 L23.7331698,22.2542264 L23.4388302,22.8961132 L23.4716604,23.0557358 L23.0890189,23.7044151 L23.256566,23.7881887 L22.9316604,24.5693208 L23.0120377,25.0798868 L22.7799623,25.3606415 L22.9543019,25.6255472 L23.1693962,25.5259245 L22.7799623,26.0772453 L22.7176981,26.8572453 L22.4244906,27.1221509 L22.4584528,27.3021509 L23.0890189,27.3021509 L23.0029811,26.9013962 L23.2803396,26.3172453 L23.256566,25.9663019 L23.5905283,25.5938491 L23.3346792,24.632717 L23.5678868,24.6270566 L24.3376981,23.808566 L23.7524151,24.5896981 L23.6878868,25.1523396 L23.9029811,25.2972453 L23.9561887,24.9621509 L24.3376981,24.6847925 L24.4995849,25.2010189 L24.8143019,24.5693208 L24.7418491,24.1346038 L24.9920377,24.0213962 L24.8935472,24.5896981 L25.5286415,25.0198868 L24.9795849,24.8817736 L24.7826038,25.6108302 L24.9105283,26.1508302 L25.2456226,26.2255472 L25.4392075,26.687434 L24.9478868,27.1504528 L24.4486415,28.3255472 L24.5641132,28.848566 L24.1237358,28.6040377 L24.156566,29.1723396 L24.7452453,29.9217736 L24.5641132,29.2300755 L24.9739245,29.1202642 L26.0301509,29.8153585 L26.0550566,29.2730943 L25.6158113,28.9493208 L25.895434,28.8859245 L26.7433585,29.3693208 L27.3422264,29.2787547 L27.3422264,29.0557358 L27.8924151,29.0681887 L28.0486415,28.6096981 L29.540717,28.667434 L28.5580755,28.8949811 L27.9614717,30.4413962 L28.6973208,31.6368679 L29.0663774,31.4410189 L29.0663774,32.0829057 L29.540717,31.5508302 L30.1418491,31.6312075 L29.9335472,32.2798868 L30.1180755,32.3896981 L29.5237358,32.8119623 L29.7093962,33.543283 L29.3844906,34.1047925 L29.7546792,34.5349811 L30.1837358,34.8768679 L30.5448679,34.9063019 L30.3026038,35.0659245 L29.9063774,35.088566 L29.5599623,34.652717 L29.226,34.7681887 L29.4976981,35.1893208 L29.7920377,35.3602642 L29.3256226,35.2730943 L28.955434,34.9278113 L27.9886415,35.2040377 L27.5516604,35.1406415 L26.5588302,35.5776226 L26.046,36.2342264 L25.3237358,36.6451698 L25.0180755,37.0459245 L25.4788302,36.9791321 L25.7041132,37.0459245 L25.775434,36.8036604 L26.7863774,36.5534717 L26.6992075,37.0459245 L27.0524151,37.3866792 L26.6686415,37.6368679 L26.8905283,38.0013962 L27.1339245,38.0512075 L26.4648679,39.1968679 L25.9848679,39.3508302 L25.506,39.6700755 L25.2682642,39.6859245 L24.6478868,40.0300755 L24.1995849,40.0300755 L23.4863774,40.4602642 L24.0569434,40.5406415 L24.0909057,40.9108302 L23.676566,41.0863019 L24.4056226,41.2029057 L24.2199623,41.3647925 L24.5097736,41.5017736 L24.9241132,41.3998868 L25.3995849,41.1395094 L26.180717,40.8961132 L26.2543019,41.2255472 L26.8701509,41.3647925 L26.3652453,41.4870566 L26.3120377,41.7519623 L27.155434,41.7723396 L27.155434,41.6183774 L27.5856226,41.5164906 L28.011283,41.9681887 L28.4052453,42.378 L29.3776981,42.3712075 L29.5995849,42.0202642 L30.0637358,41.8368679 L30.6886415,41.6330943 L30.9252453,41.3217736 L31.4550566,41.0930943 L30.7327925,41.852717 L30.0116604,42.4742264 L29.9822264,43.2123396 L29.4920377,43.188566 L29.1048679,43.3187547 L28.6588302,43.0991321 L27.3909057,42.978 L26.4976981,43.188566 L26.5135472,43.6040377 L26.1422264,43.923283 L25.6509057,43.9323396 L25.5637358,44.8583774 L25.0339245,45.303283 L24.8969434,45.5466792 L24.3161887,45.632717 L24.171283,46.1647925 L23.916566,46.1647925 L23.7841132,46.4557358 L23.075434,46.9221509 L22.7493962,46.8168679 L22.2603396,47.1361132 L22.2603396,47.5447925 L22.7969434,47.5742264 L22.8127925,47.2040377 L23.4716604,47.3636604 L23.7422264,47.792717 L24.066,47.5164906 L23.9176981,47.2946038 L24.2176981,46.9447925 L24.3682642,47.1134717 L24.7305283,46.8010189 L24.9739245,46.7942264 L25.1527925,46.398 L25.7143019,46.5349811 L26.1490189,46.3538491 L26.4976981,46.4070566 L26.7524151,46.2757358 L27.0048679,46.5825283 L27.3105283,46.5621509 L27.7214717,46.8734717 L28.1992075,46.8519623 L28.1063774,46.5666792 L28.4822264,46.4138491 L28.5875094,46.1421509 L28.4822264,45.6757358 L28.8173208,45.3768679 L29.0878868,45.3406415 L29.2056226,45.1595094 L30.2776981,44.9263019 L30.8426038,44.9681887 L31.4867547,45.3768679 L31.7380755,45.2987547 L32.4410943,45.3191321 L32.8158113,45.452717 L33.0003396,45.0429057 L33.6546792,44.7406415 L34.1041132,44.852717 L34.7267547,44.4746038 L35.1784528,44.5617736 L35.4037358,44.5334717 L35.7161887,44.3195094 L35.7976981,44.5334717 L36.186,44.7349811 L36.620717,44.4655472 L37.5943019,44.448566 L38.2203396,44.3421509 L38.8192075,44.508566 L39.1101509,44.5617736 L39.5595849,44.2312075 L40.0497736,44.1451698 L40.4867547,43.7795094 L40.7844906,43.758 L41.0958113,43.8225283 L41.0222264,43.5100755 L41.7241132,43.0787547 L42.1543019,42.9983774 L42.186,42.5964906 L42.0693962,42.3146038 L42.2041132,41.9851698 L41.4161887,42.0123396 L40.8524151,42.2025283 L40.5252453,42.2557358 L39.996566,42.0791321 L39.8109057,42.0361132 L39.9897736,41.883283 L40.1561887,41.868566 L40.1992075,41.7723396 L39.726,41.6613962 L39.3127925,41.7938491 L39.8901509,41.4383774 L40.2693962,41.4746038 L40.7369434,41.268566 L40.5976981,40.9108302 L40.146,40.9108302 L40.4867547,40.6402642 L40.7369434,40.4138491 L41.0097736,40.6255472 L41.436566,40.3504528 L41.6097736,40.1093208 L41.3958113,40.0742264 L41.5350566,39.8761132 L41.0471321,39.8342264 L41.2395849,39.5330943 L41.5531698,39.6055472 L41.6437358,39.8172453 L41.9992075,39.4006415 L42.3399623,39.2704528 L42.3988302,38.4689434 L42.7146792,37.7308302 L42.4622264,37.4387547 Z M23.4433585,26.1429057 L23.5939245,26.9229057 L24.171283,27.1436604 L24.3399623,26.6036604 L23.9267547,25.8383774 L23.4433585,26.1429057 Z M40.3452453,41.868566 L40.146,41.9681887 L40.5082642,42.1391321 L40.8127925,42.063283 L40.6316604,41.883283 L40.3452453,41.868566 Z M23.0120377,30.9938491 L22.5682642,30.9247925 L22.7392075,30.4991321 L22.5682642,30.1776226 L22.9022264,30.1346038 L23.2429811,31.0753585 L23.060717,29.8730943 L22.2456226,29.8357358 L22.6927925,29.5346038 L21.8143019,28.4025283 L21.7543019,27.903283 L21.3071321,27.6904528 L20.3969434,27.6021509 L19.820717,27.9361132 L19.4810943,27.9734717 L19.2909057,28.1636604 L18.7214717,28.2655472 L18.4361887,28.5451698 L18.0331698,28.7421509 L17.855434,29.2153585 L17.2497736,29.2946038 L16.5920377,30.5149811 L17.855434,31.578 L18.291283,31.4987547 L18.4701509,30.7549811 L18.8176981,30.5149811 L19.6905283,30.9146038 L20.2588302,31.938 L20.6980755,32.0081887 L21.3433585,32.4112075 L21.4667547,32.4270566 L21.4226038,32.0251698 L21.696566,32.0829057 L22.1505283,31.7478113 L22.2037358,31.3595094 L22.9135472,31.4557358 L23.0120377,30.9938491 Z M29.1841132,12.5636604 L28.9010943,12.6010189 L29.1309057,12.8342264 L29.1841132,12.5636604 Z M33.9773208,5.76215094 L33.5720377,5.85837736 L33.4644906,6.18781132 C33.4644906,6.18781132 33.8810943,6.41083019 33.9184528,6.41083019 L33.9773208,5.76215094 Z M28.6078868,13.1693208 L28.6395849,13.563283 L29.2056226,13.4987547 L29.5158113,13.6742264 L29.5237358,13.2644151 L28.8727925,13.3142264 L29.0878868,13.0900755 L28.7380755,12.7764906 L28.295434,12.8138491 L28.295434,13.2915849 L28.4822264,13.4987547 L28.6078868,13.1693208 Z M28.7041132,13.9278113 L28.5003396,13.6583774 L28.2444906,13.7104528 L28.5682642,14.1836604 L28.7041132,13.9278113 Z M35.3878868,4.54630189 L35.0029811,4.89611321 L35.1614717,5.15196226 L35.3878868,4.54630189 Z M34.7652453,5.85837736 L34.760717,5.238 L34.5456226,5.09309434 L34.4958113,5.43384906 L34.2626038,5.75762264 L34.5727925,6.04856604 L34.7652453,5.85837736 Z M34.2920377,7.96630189 L34.0305283,8.40667925 L34.4709057,8.12026415 L34.2920377,7.96630189 Z M21.5176981,24.2229057 L21.3343019,24.7447925 L21.5958113,24.5025283 L21.5176981,24.2229057 Z M20.3969434,22.4942264 L20.7773208,22.3391321 L20.9120377,21.9259245 L20.3969434,22.4942264 Z M22.3509057,25.1217736 L22.8127925,24.2013962 L21.7871321,25.0696981 L21.9909057,25.5587547 L22.3509057,25.1217736 Z M21.0422264,20.7078113 L21.2833585,21.138 L21.4871321,20.9693208 L21.3343019,20.6715849 L21.0422264,20.7078113 Z M22.6101509,22.7942264 L22.2433585,22.743283 L21.7543019,22.248566 L21.2041132,22.5983774 L21.9795849,22.9447925 L21.5437358,23.1576226 L21.6603396,23.3206415 L21.1497736,23.6625283 L22.2603396,23.4372453 L22.2999623,23.598 L22.8252453,23.2391321 L22.6101509,22.7942264 Z M21.5075094,18.2557358 L21.2041132,18.3791321 L21.2720377,18.9825283 L20.6426038,18.5908302 L20.6720377,19.0640377 L20.4580755,18.9406415 L20.2373208,19.1364906 L20.7773208,19.5044151 L20.8067547,19.2983774 L21.0241132,19.4512075 L20.9403396,19.6198868 L21.3433585,20.268566 L22.0429811,20.2029057 L22.086,20.7361132 L22.3237358,20.6919623 L22.5014717,20.2255472 L22.9078868,20.0070566 L22.6927925,19.8689434 L22.3509057,19.9266792 L21.7429811,19.6346038 L21.8143019,18.723283 L21.5075094,18.2557358 Z M21.8414717,25.908566 L21.5958113,25.0266792 L20.7376981,25.3402642 L20.7490189,26.0342264 L21.2980755,25.7217736 L21.2267547,26.2470566 L21.8414717,25.908566 Z M21.8822264,21.1663019 L21.5958113,21.1663019 L21.6161887,21.4221509 L21.8822264,21.1663019 Z" id="Fill-2" fill="#FFFFFF"></path>
            </g>
        </g>
    </g>
</svg>